<svg width="57" height="57" viewBox="0 0 57 57" fill="none" xmlns="http://www.w3.org/2000/svg">
<g id="Emoji">
<path id="Vector" d="M52.366 11.834C52.366 9.57977 53.509 10.7069 54.6361 9.57977C56.8935 7.32555 58.0286 3.94262 55.7744 1.6884C53.5186 -0.56582 50.1404 0.577233 47.8862 2.83145C46.7575 3.95856 47.8894 5.10321 45.6352 5.10321H36.6167L37.7438 6.21438C37.7438 6.21438 43.381 14.0962 44.5081 12.9691C43.381 14.0978 51.2532 19.7285 51.2532 19.7285L52.366 20.8525V11.834Z" fill="#FEB323"/>
<path id="Vector_2" d="M49.0163 24.2343L41.1265 16.3429L33.2351 8.45312C32.108 9.58024 26.4709 8.45312 24.2166 10.7073L23.0895 11.8345L19.7066 15.2174L2.33125 32.5911C-0.158918 35.0813 -0.158918 39.1211 2.33125 41.6096L15.8582 55.1365C18.3483 57.6267 22.3865 57.6267 24.8766 55.1365L40.6594 39.3554L45.6349 34.3799L46.762 33.2527C49.0163 30.9969 47.8891 25.3614 49.0163 24.2343Z" fill="#F0F0FA"/>
<path id="Vector_3" d="M51.8344 23.6649C50.2769 25.2224 48.8819 26.3495 47.326 24.792L32.6719 10.1379C31.1144 8.58039 32.2431 7.18545 33.7991 5.6279C35.3566 4.07195 37.8787 4.07195 39.4346 5.6279L51.8344 18.0277C53.392 19.5853 53.392 22.1089 51.8344 23.6649Z" fill="#646ADB"/>
<path id="Vector_4" d="M20.4821 51.3388C20.074 51.3388 19.6659 51.1825 19.355 50.8717C18.7317 50.2483 18.7317 49.2408 19.355 48.6174L38.4856 29.4869C39.1089 28.8635 40.1165 28.8635 40.7398 29.4869C41.3632 30.1102 41.3632 31.1193 40.7398 31.7427L21.6092 50.8733C21.2984 51.1825 20.8902 51.3388 20.4821 51.3388ZM14.1053 44.9619C13.6971 44.9619 13.289 44.8057 12.9782 44.4948C12.3548 43.8715 12.3548 42.8639 12.9782 42.2406L32.1087 23.11C32.7321 22.4867 33.7396 22.4867 34.363 23.11C34.9863 23.7333 34.9863 24.7409 34.363 25.3642L15.2324 44.4964C14.9215 44.8057 14.5134 44.9619 14.1053 44.9619ZM7.7284 38.585C7.32028 38.585 6.91216 38.4288 6.60129 38.1179C5.97795 37.4946 5.97795 36.4871 6.60129 35.8637L25.7319 16.7331C26.3552 16.1098 27.3628 16.1098 27.9861 16.7331C28.6094 17.3565 28.6094 18.364 27.9861 18.9873L8.85551 38.1195C8.54464 38.4288 8.13652 38.585 7.7284 38.585Z" fill="#C7C9EF"/>
</g>
</svg>
