<svg width="110" height="109" viewBox="0 0 110 109" fill="none" xmlns="http://www.w3.org/2000/svg">
<g id="Emoji" filter="url(#filter0_d_4414_43625)">
<g id="Group">
<path id="Vector" d="M76.7715 41.8499C74.7406 45.3676 75.8083 49.7862 79.1563 51.7192C82.5044 53.6522 86.8649 52.3676 88.8959 48.8499C90.9268 45.3321 89.8591 40.9135 86.5111 38.9805C83.163 37.0475 78.8025 38.3321 76.7715 41.8499Z" fill="#EF4444"/>
<path id="Vector_2" d="M52.9337 51.1392C51.1929 54.1543 52.1081 57.9418 54.9778 59.5986C57.8476 61.2555 61.5852 60.1543 63.326 57.1392C65.0668 54.124 64.1516 50.3365 61.2819 48.6797C58.4121 47.0228 54.6745 48.124 52.9337 51.1392Z" fill="#DC2626"/>
<path id="Vector_3" d="M27.4209 47.3303C25.39 50.848 26.4577 55.2667 29.8057 57.1997C33.1538 59.1327 37.5143 57.848 39.5453 54.3303C41.5762 50.8126 40.5085 46.3939 37.1605 44.4609C33.8124 42.5279 29.4519 43.8126 27.4209 47.3303Z" fill="#EF4444"/>
<path id="Vector_4" d="M73.3489 67.7803C72.1883 69.7904 72.7984 72.3153 74.7116 73.4199C76.6248 74.5245 79.1165 73.7904 80.2771 71.7803C81.4376 69.7702 80.8275 67.2452 78.9143 66.1406C77.0011 65.0361 74.5094 65.7701 73.3489 67.7803Z" fill="#F87171"/>
<path id="Vector_5" d="M72.5272 21.2026C71.9469 22.2077 72.252 23.4702 73.2086 24.0225C74.1652 24.5747 75.411 24.2077 75.9913 23.2026C76.5716 22.1976 76.2665 20.9351 75.3099 20.3828C74.3534 19.8305 73.1075 20.1976 72.5272 21.2026Z" fill="#F87171"/>
<path id="Vector_6" d="M59.7474 79.3394C59.1672 80.3444 59.4722 81.6069 60.4288 82.1592C61.3854 82.7115 62.6313 82.3444 63.2115 81.3394C63.7918 80.3343 63.4867 79.0718 62.5302 78.5195C61.5736 77.9672 60.3277 78.3343 59.7474 79.3394Z" fill="#DC2626"/>
<path id="Vector_7" d="M37.4025 30.0386C36.8222 31.0436 37.1272 32.3061 38.0838 32.8584C39.0404 33.4107 40.2863 33.0436 40.8666 32.0386C41.4468 31.0335 41.1418 29.771 40.1852 29.2187C39.2286 28.6665 37.9827 29.0335 37.4025 30.0386Z" fill="#EF4444"/>
<path id="Vector_8" d="M38.5935 71.9795C37.4329 73.9896 38.0431 76.5146 39.9562 77.6191C41.8694 78.7237 44.3612 77.9896 45.5217 75.9795C46.6822 73.9694 46.0721 71.4444 44.1589 70.3398C42.2458 69.2353 39.754 69.9694 38.5935 71.9795Z" fill="#F87171"/>
<path id="Vector_9" d="M54.7803 27.9404C53.6197 29.9505 54.2298 32.4755 56.143 33.5801C58.0562 34.6846 60.5479 33.9506 61.7085 31.9404C62.869 29.9303 62.2589 27.4054 60.3457 26.3008C58.4325 25.1962 55.9408 25.9303 54.7803 27.9404Z" fill="#DC2626"/>
</g>
</g>
<defs>
<filter id="filter0_d_4414_43625" x="0.391846" y="-5.875" width="115.533" height="114.293" filterUnits="userSpaceOnUse" color-interpolation-filters="sRGB">
<feFlood flood-opacity="0" result="BackgroundImageFix"/>
<feColorMatrix in="SourceAlpha" type="matrix" values="0 0 0 0 0 0 0 0 0 0 0 0 0 0 0 0 0 0 127 0" result="hardAlpha"/>
<feMorphology radius="2" operator="dilate" in="SourceAlpha" result="effect1_dropShadow_4414_43625"/>
<feOffset/>
<feGaussianBlur stdDeviation="12"/>
<feComposite in2="hardAlpha" operator="out"/>
<feColorMatrix type="matrix" values="0 0 0 0 1 0 0 0 0 0.972549 0 0 0 0 0.92549 0 0 0 1 0"/>
<feBlend mode="normal" in2="BackgroundImageFix" result="effect1_dropShadow_4414_43625"/>
<feBlend mode="normal" in="SourceGraphic" in2="effect1_dropShadow_4414_43625" result="shape"/>
</filter>
</defs>
</svg>
