<svg width="48" height="48" viewBox="0 0 48 48" fill="none" xmlns="http://www.w3.org/2000/svg">
<path d="M19.1999 42.352C19.1999 45.4706 18.1151 47.9991 15.0856 47.9991H5.48562C-9.07183e-05 47.9991 -9.07183e-05 28.2344 5.48562 28.2344H15.0856C18.1151 28.2344 19.1999 30.7628 19.1999 33.8814V42.352Z" fill="#242759"/>
<path d="M45.2571 45.1756H43.8857V31.0579H45.2571C46.0155 31.0579 46.6285 30.4268 46.6285 29.6461C46.6285 28.8654 46.0155 28.2344 45.2571 28.2344H12.3428C6.85709 28.2344 6.85709 47.9991 12.3428 47.9991H45.2571C46.0155 47.9991 46.6285 47.368 46.6285 46.5873C46.6285 45.8066 46.0155 45.1756 45.2571 45.1756Z" fill="#646ADB"/>
<path d="M45.4931 45.1762H13.7144C10.9715 45.1762 10.9715 31.0586 13.7144 31.0586H45.4931C47.0072 31.0586 47.0072 45.1762 45.4931 45.1762Z" fill="#CCD6DD"/>
<path d="M14.4 33.8821H46.4229C46.2377 32.2233 45.9292 31.0586 45.493 31.0586H13.7143C11.4501 31.0586 11.0565 40.6699 12.5308 44.0299C11.9932 39.8525 12.6158 33.8821 14.4 33.8821Z" fill="#99AAB5"/>
<path d="M15.0857 9.88235C15.0857 13.0009 12.6295 15.5294 9.6 15.5294H4.11429C-1.37143 15.5294 -1.37143 0 4.11429 0H9.6C12.6295 0 15.0857 2.52847 15.0857 5.64706V9.88235Z" fill="#166534"/>
<path d="M41.1428 12.7059H39.7714V2.82353H41.1428C41.9012 2.82353 42.5143 2.19247 42.5143 1.41176C42.5143 0.631059 41.9012 0 41.1428 0H8.22854C2.74283 0 2.74283 15.5294 8.22854 15.5294H41.1428C41.9012 15.5294 42.5143 14.8984 42.5143 14.1176C42.5143 13.3369 41.9012 12.7059 41.1428 12.7059Z" fill="#22C55E"/>
<path d="M41.3789 12.7066H9.60011C6.85725 12.7066 6.85725 2.82422 9.60011 2.82422H41.3789C42.8929 2.82422 42.8929 12.7066 41.3789 12.7066Z" fill="#CCD6DD"/>
<path d="M9.59998 5.64775H42.4114C42.2551 4.05951 41.9122 2.82422 41.3787 2.82422H9.59998C7.96387 2.82422 7.31106 6.3381 7.62786 9.17716C7.84181 7.25998 8.49324 5.64775 9.59998 5.64775Z" fill="#99AAB5"/>
<path d="M26.0572 22.5901C26.0572 25.7087 23.601 28.2371 20.5715 28.2371H6.85721C1.37149 28.2371 1.37149 15.5312 6.85721 15.5312H20.5715C23.601 15.5312 26.0572 18.0597 26.0572 21.1783V22.5901Z" fill="#E64F12"/>
<path d="M46.6286 25.4136H45.2571V18.3548H46.6286C47.387 18.3548 48 17.7237 48 16.943C48 16.1623 47.387 15.5312 46.6286 15.5312H19.2C13.7143 15.5312 13.7143 28.2371 19.2 28.2371H46.6286C47.387 28.2371 48 27.6061 48 26.8254C48 26.0447 47.387 25.4136 46.6286 25.4136Z" fill="#FEB323"/>
<path d="M46.8646 25.4104H20.5715C17.8287 25.4104 17.8287 18.3516 20.5715 18.3516H46.8646C48.3786 18.3516 48.3786 25.4104 46.8646 25.4104Z" fill="#CCD6DD"/>
<path d="M20.5714 21.1751H47.978C47.8889 19.6758 47.52 18.3516 46.8644 18.3516H20.5714C18.8242 18.3516 18.1947 21.2132 18.6747 23.2927C18.9463 22.1083 19.5757 21.1751 20.5714 21.1751Z" fill="#99AAB5"/>
</svg>
