<svg width="48" height="48" viewBox="0 0 48 48" fill="none" xmlns="http://www.w3.org/2000/svg">
<g id="emoji">
<path id="Shape" fill-rule="evenodd" clip-rule="evenodd" d="M4 4C2.89543 4 2 4.89543 2 6V36C2 37.1046 2.89543 38 4 38H18C19.0609 38 20.0783 38.4214 20.8284 39.1716C21.5786 39.9217 22 40.9391 22 42C22 43.1046 22.8954 44 24 44C25.1046 44 26 43.1046 26 42C26 40.9391 26.4214 39.9217 27.1716 39.1716C27.9217 38.4214 28.9391 38 30 38H44C45.1046 38 46 37.1046 46 36V6C46 4.89543 45.1046 4 44 4H32C29.3478 4 26.8043 5.05357 24.9289 6.92893C24.5924 7.26549 24.2823 7.62357 24 7.99993C23.7177 7.62357 23.4076 7.26549 23.0711 6.92893C21.1957 5.05357 18.6522 4 16 4H4ZM26 35.0718C27.2058 34.3756 28.5835 34 30 34H42V8H32C30.4087 8 28.8826 8.63214 27.7574 9.75736C26.6321 10.8826 26 12.4087 26 14V35.0718ZM22 35.0718V14C22 12.4087 21.3679 10.8826 20.2426 9.75736C19.1174 8.63214 17.5913 8 16 8H6V34H18C19.4165 34 20.7942 34.3756 22 35.0718Z" fill="#E69801"/>
</g>
</svg>
