<svg width="214" height="184" viewBox="0 0 214 184" fill="none" xmlns="http://www.w3.org/2000/svg">
<rect width="214" height="184" fill="#2B293D"/>
<path d="M-14594 -5259C-14594 -5260.1 -14593.1 -5261 -14592 -5261H18866C18867.1 -5261 18868 -5260.1 18868 -5259V14256C18868 14257.1 18867.1 14258 18866 14258H-14592C-14593.1 14258 -14594 14257.1 -14594 14256V-5259Z" fill="#444444"/>
<path d="M-14592 -5260H18866V-5262H-14592V-5260ZM18867 -5259V14256H18869V-5259H18867ZM18866 14257H-14592V14259H18866V14257ZM-14593 14256V-5259H-14595V14256H-14593ZM-14592 14257C-14592.6 14257 -14593 14256.6 -14593 14256H-14595C-14595 14257.7 -14593.7 14259 -14592 14259V14257ZM18867 14256C18867 14256.6 18866.6 14257 18866 14257V14259C18867.7 14259 18869 14257.7 18869 14256H18867ZM18866 -5260C18866.6 -5260 18867 -5259.55 18867 -5259H18869C18869 -5260.66 18867.7 -5262 18866 -5262V-5260ZM-14592 -5262C-14593.7 -5262 -14595 -5260.66 -14595 -5259H-14593C-14593 -5259.55 -14592.6 -5260 -14592 -5260V-5262Z" fill="white" fill-opacity="0.1"/>
<g clip-path="url(#clip0_3383_27518)">
<rect width="1512" height="900" transform="translate(-443 -477)" fill="#1E1B39" fill-opacity="0.8"/>
<g clip-path="url(#clip1_3383_27518)">
<path d="M-115 -381C-115 -389.837 -107.837 -397 -99 -397H725C733.837 -397 741 -389.837 741 -381V327C741 335.837 733.837 343 725 343H-99C-107.837 343 -115 335.837 -115 327V-381Z" fill="white"/>
<path d="M21.3927 139.139C20.9111 138.512 20.5944 137.997 20.4426 137.594C19.499 135.106 18.6223 132.935 17.8126 131.082C17.2477 129.791 16.3188 128.349 15.0258 126.755C14.9752 126.693 14.9622 126.625 14.9867 126.55C15.4764 125.063 15.5572 123.731 15.2291 122.556C14.5614 120.153 13.0015 118.633 10.5495 117.996C8.82063 117.548 6.42082 118.65 4.88544 119.652C4.36304 119.993 4.23079 120.487 4.48874 121.133C5.16216 122.82 5.93842 124.463 7.02567 125.793C7.38319 126.231 7.91376 126.64 8.61739 127.02C10.4931 128.036 12.3689 127.882 14.2153 126.993C14.2953 126.955 14.3859 126.944 14.4722 126.964C14.5585 126.983 14.6354 127.032 14.6904 127.101C15.394 127.984 16.0372 128.901 16.62 129.853C17.0902 130.624 17.5783 131.646 18.0844 132.919C18.7243 134.527 19.4018 136.176 20.1169 137.866C20.3764 138.475 20.7413 139.11 21.2115 139.771C21.6131 140.332 21.7012 141.064 21.7135 141.735C21.7625 144.468 21.7616 147.161 21.711 149.816C21.7094 149.915 21.6588 149.965 21.5592 149.965H7.76764C7.70053 149.965 7.63612 149.992 7.58842 150.039C7.54074 150.086 7.51363 150.15 7.51299 150.217C7.45584 153.719 7.72928 157.28 8.33331 160.901C9.16101 165.861 10.2728 170.907 11.6686 176.04C11.7322 176.278 11.6416 176.411 11.3967 176.439C10.9494 176.491 10.6295 176.311 10.4368 175.898C10.2964 175.599 10.1568 175.599 10.0181 175.898C9.94461 176.052 9.86626 176.121 9.68996 176.133C9.23285 176.165 8.77083 176.258 8.30392 176.412C8.20468 176.444 8.09702 176.44 8.00073 176.4C7.90445 176.359 7.82603 176.285 7.77991 176.192C7.71786 176.064 7.65256 175.939 7.58398 175.817C7.44849 175.574 7.36687 175.591 7.33911 175.868L7.30972 176.169C7.29829 176.276 7.23953 176.338 7.13342 176.356C4.93279 176.739 2.7852 176.925 0.690674 176.914C0.452316 176.912 0.299683 177.027 0.232742 177.257C-0.416183 179.519 2.28728 179.661 3.6586 179.627C3.70288 179.626 3.7467 179.636 3.78596 179.657C3.82523 179.677 3.85866 179.708 3.88312 179.744C3.90758 179.781 3.92227 179.824 3.92583 179.868C3.9294 179.912 3.92171 179.957 3.90347 179.997L3.71736 180.408C3.68471 180.479 3.6994 180.536 3.76144 180.582C3.78104 180.597 3.80307 180.605 3.82756 180.607C3.86674 180.612 3.89938 180.6 3.92551 180.572C4.06427 180.434 4.13609 180.263 4.14099 180.061C4.14426 179.943 4.20386 179.878 4.31976 179.865C4.78993 179.814 5.21765 179.807 5.60294 179.843C5.63741 179.846 5.67081 179.857 5.70107 179.874C5.73132 179.891 5.7578 179.914 5.77888 179.941C5.79999 179.969 5.81523 180 5.82372 180.034C5.8322 180.067 5.83372 180.102 5.82822 180.137C5.76781 180.502 5.68454 180.864 5.57843 181.221C5.54904 181.318 5.54742 181.414 5.57355 181.51C5.60457 181.623 5.64864 181.629 5.70578 181.527C5.91963 181.154 6.07881 180.753 6.18329 180.325C6.2845 179.906 6.57019 179.739 7.04036 179.826C7.56931 179.923 8.09579 180.017 8.61983 180.105C8.70963 180.121 8.75533 180.174 8.75696 180.264C8.76349 180.804 8.76022 181.335 8.74716 181.856C8.739 182.207 8.78145 182.513 8.8745 182.776C8.90552 182.861 8.96674 182.917 9.05817 182.943C9.17407 182.977 9.21733 182.935 9.18796 182.818C8.99205 182.056 8.95204 181.206 9.06795 180.269C9.08264 180.158 9.14549 180.094 9.25652 180.078C9.45567 180.05 9.64912 180.06 9.83687 180.107C9.87553 180.116 9.91 180.138 9.93484 180.169C9.95969 180.2 9.97346 180.239 9.974 180.279L10.0083 182.164C10.0083 182.176 10.0106 182.187 10.015 182.197C10.0195 182.208 10.026 182.218 10.0343 182.226C10.0425 182.234 10.0522 182.24 10.0629 182.244C10.0736 182.248 10.085 182.25 10.0964 182.25H10.1626C10.1871 182.248 10.1993 182.235 10.1993 182.211C10.1813 181.548 10.2458 180.929 10.3927 180.354C10.4156 180.265 10.4703 180.203 10.5568 180.168C10.8539 180.052 11.1609 180.028 11.4776 180.095C11.5299 180.106 11.5768 180.135 11.6106 180.176C11.6445 180.217 11.6632 180.269 11.6637 180.323L11.7029 182.005C11.7029 182.028 11.7143 182.039 11.7371 182.039L11.8253 182.042C11.8971 182.042 11.9339 182.007 11.9355 181.936L11.9747 180.568C11.9796 180.39 12.0718 180.302 12.2514 180.305L13.1183 180.325C13.2962 180.328 13.3892 180.419 13.3974 180.597L13.4488 181.728C13.4505 181.753 13.4635 181.767 13.488 181.77L13.5541 181.775C13.6031 181.781 13.6276 181.76 13.6276 181.711L13.6472 180.541C13.6475 180.512 13.6535 180.484 13.6648 180.458C13.6761 180.432 13.6926 180.409 13.7132 180.39C13.7337 180.37 13.758 180.355 13.7845 180.345C13.8111 180.335 13.8393 180.331 13.8676 180.332L23.8464 180.734C24.0521 180.742 24.1663 180.848 24.1892 181.052C24.2357 181.486 24.1133 181.919 24.4635 182.274C24.5647 182.377 24.6177 182.357 24.6226 182.213L24.6618 181.131C24.67 180.932 24.7728 180.825 24.9704 180.81L25.083 180.803C25.2577 180.79 25.3491 180.87 25.3573 181.043L25.4234 182.453C25.425 182.484 25.4397 182.507 25.4675 182.522L25.5483 182.566C25.576 182.58 25.5923 182.572 25.5972 182.541C25.6707 182.1 25.6756 181.664 25.6119 181.231C25.5662 180.931 25.6952 180.79 25.9988 180.807C28.1562 180.93 30.2475 181.197 32.5151 181.224C34.2243 181.246 35.9042 181.278 37.6134 181.192C37.9195 181.177 38.1791 181.287 38.4827 181.312C40.4646 181.487 42.6155 181.606 44.9353 181.669C46.096 181.701 47.198 181.63 48.3514 181.706C50.6548 181.86 52.9869 181.923 55.3475 181.895C56.0675 181.887 56.8405 181.888 57.6665 181.9C58.8468 181.917 60.0443 181.811 61.2173 181.919C61.7707 181.971 62.2923 181.873 62.8481 181.909C64.3876 182.012 65.8846 182.058 67.3392 182.047C70.6271 182.022 73.2392 182.013 75.1753 182.02C82.9217 182.042 90.3496 182.052 97.4593 182.049C99.0167 182.047 101.622 182.265 103.701 182.152C104.732 182.096 105.766 182.152 106.799 182.135C109.117 182.1 111.408 182.061 113.67 182.017C113.824 182.012 114.011 181.914 114.126 181.99C114.194 182.034 114.269 182.056 114.351 182.056C115.241 182.055 116.058 182.037 116.802 182.003C117.594 181.965 118.45 181.963 119.371 181.998C120.774 182.049 122.295 181.961 123.745 181.909C124.342 181.888 124.938 181.903 125.532 181.954C126.406 182.025 127.287 182.027 128.177 181.958C128.48 181.934 128.78 181.926 129.076 181.934C129.384 181.942 129.693 181.936 130.004 181.914C130.317 181.893 130.63 181.891 130.944 181.907C133.89 182.049 136.806 181.853 139.738 181.971C141.004 182.021 141.89 182.032 142.394 182.003C144.618 181.877 146.408 181.853 147.765 181.931C149.693 182.042 151.601 182.059 153.49 181.98C154.603 181.935 155.605 181.934 156.495 181.978C158.062 182.059 159.58 181.897 161.14 181.99C162.389 182.064 163.747 182.065 165.215 181.993C165.546 181.975 165.743 181.809 165.805 181.496C165.834 181.344 165.889 181.334 165.969 181.466C166.344 182.066 167.607 182.081 168.315 182.069C169.618 182.044 170.897 182.01 172.152 181.966C172.429 181.956 172.715 182.027 173.009 182.032C175.801 182.081 178.446 182.063 180.946 181.978C181.359 181.965 181.77 181.971 182.18 181.998C182.733 182.032 183.272 181.956 183.813 181.968C186.042 182.012 188.349 182.038 190.736 182.047C190.857 182.048 190.92 182.109 190.927 182.228L190.978 183.087C190.981 183.13 190.993 183.173 191.015 183.21C191.038 183.248 191.069 183.279 191.106 183.303L191.174 183.347C191.241 183.388 191.287 183.371 191.311 183.298C191.435 182.929 191.48 182.555 191.444 182.176C191.419 181.91 191.54 181.78 191.806 181.785C192.053 181.788 192.312 181.843 192.585 181.951C192.786 182.029 192.892 182.176 192.903 182.392C192.921 182.756 193.013 183.081 193.18 183.366C193.304 183.579 193.371 183.562 193.381 183.317L193.42 182.282C193.431 181.981 193.587 181.82 193.887 181.797L194.025 181.787C194.407 181.759 194.603 181.937 194.615 182.321C194.628 182.757 194.727 183.134 194.911 183.452C194.994 183.597 195.047 183.587 195.07 183.42C195.113 183.118 195.118 182.802 195.085 182.47C195.057 182.183 195.188 182.034 195.477 182.025L195.656 182.02C195.915 182.011 196.083 182.132 196.16 182.382C196.273 182.759 196.381 183.184 196.486 183.658C196.512 183.779 196.576 183.868 196.679 183.925C196.833 184.008 196.891 183.965 196.855 183.795L196.554 182.355C196.547 182.321 196.548 182.286 196.556 182.253C196.564 182.219 196.58 182.188 196.601 182.161C196.622 182.134 196.65 182.112 196.68 182.096C196.711 182.081 196.745 182.072 196.78 182.071C197.411 182.048 198.055 182.047 198.709 182.066C199.042 182.076 199.156 182.243 199.052 182.568C199.046 182.585 199.046 182.604 199.052 182.621C199.058 182.638 199.069 182.653 199.083 182.664C199.098 182.675 199.116 182.68 199.134 182.68C199.152 182.68 199.17 182.674 199.184 182.664C199.24 182.626 199.258 182.574 199.238 182.507C199.207 182.397 199.219 182.28 199.272 182.181C199.326 182.081 199.416 182.009 199.522 181.978C199.883 181.877 200.243 181.836 200.602 181.856C201.004 181.88 201.391 181.869 201.763 181.821C204.896 181.431 208.02 180.927 211.137 180.31C211.986 180.142 212.78 179.901 213.519 179.588C214.151 179.321 214.132 178.28 213.627 177.925C213.474 177.818 213.195 177.745 212.79 177.707C208.47 177.304 204.126 177.02 199.757 176.855C199.701 176.853 199.647 176.833 199.603 176.799C199.558 176.765 199.526 176.718 199.51 176.664C199.015 174.938 198.8 173.214 199.343 171.441C199.369 171.358 199.419 171.284 199.488 171.228C199.899 170.895 200.485 170.662 200.492 170.048C200.493 169.991 200.481 169.934 200.458 169.883C200.435 169.831 200.401 169.784 200.358 169.747C200.315 169.709 200.265 169.682 200.21 169.665C200.155 169.649 200.098 169.645 200.041 169.653C199.156 169.781 198.272 169.814 197.387 169.754C196.724 169.71 196.046 169.714 195.352 169.768C194.47 169.837 193.579 169.834 192.678 169.759C192.518 169.746 192.437 169.659 192.435 169.499L192.386 162.655C192.386 162.501 192.31 162.425 192.156 162.427L190.584 162.447C190.564 162.447 190.544 162.441 190.527 162.431C190.51 162.42 190.497 162.404 190.489 162.386C190.481 162.367 190.479 162.347 190.483 162.327C190.487 162.307 190.496 162.289 190.511 162.275L198.354 154.437C198.643 154.148 198.643 153.858 198.354 153.567L197.901 153.114C197.593 152.804 197.284 152.804 196.975 153.114L188.667 161.425C188.644 161.449 188.615 161.466 188.584 161.476C188.552 161.486 188.519 161.488 188.486 161.482C188.454 161.476 188.423 161.462 188.397 161.441C188.371 161.421 188.35 161.394 188.336 161.364L185.131 154.189C184.905 153.683 184.521 153.487 183.977 153.601L183.661 153.668C183.16 153.774 183.008 154.063 183.203 154.534C184.242 157.044 185.327 159.504 186.458 161.915C186.618 162.255 186.51 162.43 186.135 162.442C184.99 162.479 183.879 162.438 182.802 162.319C182.747 162.313 182.692 162.319 182.64 162.336C182.587 162.353 182.539 162.381 182.498 162.417C182.458 162.454 182.425 162.499 182.402 162.549C182.38 162.599 182.368 162.654 182.368 162.709L182.359 169.563C182.357 169.682 182.297 169.746 182.18 169.756C182.017 169.771 181.856 169.781 181.697 169.788C180.001 169.848 178.392 169.852 176.871 169.798C175.526 169.75 174.039 169.628 172.412 169.43C172.312 169.417 172.242 169.457 172.201 169.548C171.834 170.368 171.334 171.13 171.104 172.009C170.735 173.411 170.809 174.807 171.324 176.196C171.333 176.218 171.336 176.241 171.333 176.264C171.331 176.287 171.323 176.31 171.311 176.329C171.298 176.349 171.281 176.366 171.261 176.379C171.241 176.391 171.218 176.399 171.195 176.402C170.638 176.461 170.118 176.456 169.635 176.387C169.538 176.374 169.5 176.32 169.52 176.226C169.84 174.735 169.945 173.494 169.836 172.501C169.424 168.708 165.239 167.768 161.985 168.123C159.691 168.374 157.263 168.858 154.702 169.575C154.426 169.652 154.164 169.619 153.916 169.477C153.766 169.389 153.617 169.301 153.47 169.212C153.176 169.033 153.197 168.901 153.532 168.816C156.468 168.07 159.126 167.173 161.505 166.127C165.883 164.201 169.79 161.549 173.225 158.171C173.535 157.866 174.202 157.138 175.225 155.989C178.133 152.722 179.836 148.981 180.333 144.766C180.799 140.811 179.64 136.487 176.802 133.619C174.812 131.608 172.611 130.252 170.198 129.552C168.84 129.157 167.548 128.949 166.322 128.928C162.132 128.857 158.108 130.544 154.455 132.459C154.375 132.501 154.314 132.483 154.271 132.405C153.607 131.19 151.585 130.485 150.277 130.127C149.288 129.858 148.387 129.885 147.405 129.738C147.31 129.723 147.215 129.727 147.121 129.75L146.863 129.809C146.692 129.848 146.656 129.796 146.756 129.652C147.733 128.244 148.712 126.893 149.398 125.308C149.547 124.964 149.604 124.553 149.572 124.077C149.569 124.034 149.557 123.993 149.537 123.956C149.516 123.918 149.488 123.886 149.455 123.86C149.421 123.835 149.382 123.817 149.34 123.808C149.299 123.798 149.256 123.798 149.214 123.807L142.953 125.142C142.603 125.217 142.559 125.132 142.821 124.887C143.361 124.386 143.965 123.879 144.633 123.366C145.122 122.989 145.442 122.588 145.593 122.164C145.62 122.086 145.62 122.007 145.593 121.929C145.458 121.562 145.174 121.358 144.755 121.439C143.172 121.741 141.705 122.085 140.355 122.47C140.051 122.555 139.974 122.459 140.124 122.184C140.652 121.207 140.98 120.13 141.109 118.951C141.151 118.564 141.141 118.181 141.077 117.8C140.991 117.293 140.974 116.779 140.768 116.302C140.051 114.636 138.547 113.738 136.779 113.41C136.686 113.392 136.603 113.341 136.547 113.265C136.251 112.867 135.991 112.411 135.766 111.899C135.602 111.53 135.683 111.223 136.008 110.978C136.911 110.297 137.773 109.615 138.594 108.931C139.115 108.498 139.199 108.015 138.846 107.481C138.515 106.978 138.226 106.468 137.979 105.951C137.1 104.119 136.138 102.481 135.276 100.771C134.063 98.3683 132.681 95.8208 131.13 93.1288C130.146 91.4244 129.082 89.7788 127.939 88.192C125.456 84.749 122.296 82.3329 118.46 80.9436C116.414 80.2025 114.335 79.5976 112.221 79.1291C112.176 79.1191 112.138 79.0927 112.112 79.0549C112.087 79.0172 112.077 78.9711 112.083 78.9258C112.245 77.8761 112.407 76.8427 112.568 75.8257C112.627 75.46 112.716 75.1024 112.835 74.7531C112.861 74.6764 112.913 74.6494 112.989 74.6723C114.735 75.1718 116.807 75.1327 118.602 75.0078C122.726 74.7237 125.645 72.7002 127.359 68.9372C128.098 67.3129 128.76 65.6012 129.345 63.8021C131.421 57.3994 133.028 51.0497 134.164 44.753C134.372 43.6021 134.536 42.3581 134.529 41.1974C134.516 39.2727 134.316 37.3536 133.929 35.4403C131.382 22.834 120.338 14.9881 107.526 17.5397C106.81 17.6834 106.161 17.8793 105.582 18.1274C105.489 18.1666 105.4 18.16 105.315 18.1078C104.989 17.9046 104.531 17.6058 104.539 17.1871C104.54 17.0679 104.587 16.9708 104.678 16.8957C106.527 15.375 107.654 13.3719 107.367 10.9745C106.947 7.46621 105.393 4.60766 102.705 2.39886C101.645 1.52872 100.303 0.958156 98.6788 0.687158C95.9198 0.226786 93.3176 0.672465 90.872 2.02419C89.646 2.70332 88.6975 3.68855 88.0266 4.97987C87.4437 6.10468 87.2576 7.37642 87.4682 8.79508C87.9751 12.1915 89.4248 15.8794 92.1895 17.929C93.773 19.1045 95.5272 19.6938 97.4519 19.6971C98.6437 19.6987 100.028 19.3795 101.605 18.7396C101.824 18.6514 101.974 18.7176 102.056 18.9379C102.072 18.9837 102.083 19.0302 102.09 19.0775C102.129 19.373 102.014 19.5861 101.745 19.7167C100.065 20.5272 98.6812 21.6414 97.2927 22.8756C96.6626 23.4355 96.0455 24.0951 95.4415 24.8542C93.4955 27.3046 92.0034 30.026 90.9651 33.0185C89.7782 36.4386 89.0901 39.7649 88.9008 42.9973C88.7424 45.6974 89.0281 48.0793 89.7578 50.1428C90.0288 50.9052 90.2386 51.6553 90.3872 52.3932C90.943 55.1653 93.027 57.308 95.9214 57.1806C95.9606 57.1789 95.9997 57.1863 96.0356 57.2022C96.0716 57.2181 96.1034 57.2421 96.1287 57.2724C96.154 57.3026 96.1721 57.3383 96.1816 57.3768C96.191 57.4152 96.1917 57.4553 96.1834 57.4941C96.0479 58.1242 95.928 58.738 95.8235 59.3355C95.1084 63.4022 94.395 67.7732 93.6832 72.4488C93.5494 73.3353 93.3739 74.2903 93.1567 75.3139C93.1354 75.4148 93.0821 75.5061 93.0049 75.5741C92.9276 75.642 92.8306 75.6831 92.7282 75.691C91.845 75.7628 90.9349 75.8844 89.9978 76.0558C86.5916 76.6803 83.3592 77.3219 80.019 78.3993C76.4308 79.5568 73.4816 81.3558 71.1716 83.7965C69.9325 85.1041 68.8036 86.7889 67.7849 88.8507C67.4421 89.5446 67.1768 90.2572 66.989 90.9885C66.727 92.0146 66.3646 93.0455 66.1222 94.0618C65.528 96.5399 64.9378 99.0458 64.3517 101.58C63.5893 104.884 62.4335 109.403 60.8842 115.136C60.299 117.306 59.4835 119.461 58.9301 121.694C58.9197 121.735 58.9187 121.777 58.9272 121.818C58.9357 121.86 58.9535 121.898 58.9792 121.932C59.005 121.965 59.038 121.992 59.0757 122.011C59.1134 122.029 59.1549 122.039 59.197 122.039L61.6581 122.066C61.7004 122.066 61.742 122.077 61.7792 122.097C61.8164 122.118 61.8481 122.147 61.8715 122.182C61.8949 122.218 61.9093 122.259 61.9135 122.301C61.9177 122.344 61.9116 122.386 61.8956 122.426C61.6287 123.082 61.5821 123.756 61.4132 124.439C61.0263 125.985 60.6483 127.552 60.2794 129.141C59.77 131.338 59.157 133.755 58.4403 136.391C57.6175 139.421 57.0494 142.802 56.3368 145.983C56.0609 147.219 55.7353 148.266 55.3598 149.125C55.3271 149.2 55.332 149.272 55.3745 149.341C55.8283 150.079 56.2422 150.597 56.616 150.896C57.2543 151.405 57.8926 151.904 58.531 152.392C58.5979 152.444 58.6183 152.51 58.5922 152.59C58.3081 153.459 58.1081 154.482 57.9922 155.661C57.9612 155.965 58.1008 156.11 58.4109 156.097C58.5285 156.092 58.6216 156.138 58.6901 156.234C58.7636 156.342 58.7709 156.458 58.7122 156.582C58.5897 156.839 58.3644 156.814 58.1612 156.954C58.1238 156.98 58.0927 157.014 58.0703 157.053C58.0478 157.092 58.0345 157.135 58.0314 157.179C57.922 158.655 57.9253 160.128 58.0412 161.597C58.0543 161.768 58.1416 161.828 58.3032 161.776C58.3228 161.769 58.3408 161.773 58.3571 161.788C58.3767 161.807 58.3857 161.829 58.384 161.851C58.3808 161.878 58.3677 161.896 58.3448 161.908C58.0739 162.048 57.9816 162.312 58.0681 162.699C58.1742 163.184 58.3228 164.163 58.5138 165.637C58.8142 167.955 59.4949 170.188 60.5561 172.335C60.943 173.116 61.5381 173.76 61.9494 174.536C62.1233 174.862 62.4392 175.112 62.689 175.386C62.8637 175.579 62.8204 175.675 62.5592 175.675C60.3357 175.672 58.3326 175.705 56.5499 175.775C55.1067 175.832 53.6636 175.876 52.2204 175.907C51.9445 175.912 51.6719 175.881 51.4025 175.814C51.3486 175.801 51.2982 175.776 51.2546 175.741C51.2111 175.706 51.1754 175.662 51.1499 175.612C51.1245 175.563 51.1098 175.508 51.107 175.452C51.1041 175.396 51.113 175.34 51.1332 175.288C51.2213 175.061 51.2834 174.831 51.3193 174.597C51.3405 174.46 51.3111 174.331 51.2311 174.21C51.2148 174.184 51.1936 174.162 51.1675 174.144C51.1469 174.131 51.1233 174.123 51.0988 174.121C51.0743 174.119 51.0497 174.124 51.0275 174.134C51.0051 174.144 50.9858 174.16 50.9713 174.18C50.9568 174.2 50.9476 174.223 50.9446 174.247L50.8344 175.29C50.824 175.386 50.78 175.474 50.7104 175.54C50.6408 175.605 50.5501 175.644 50.4548 175.648C48.8648 175.725 47.3359 175.725 45.8683 175.648C45.8444 175.647 45.8211 175.64 45.8006 175.627C45.7801 175.615 45.7631 175.597 45.7509 175.577C45.7388 175.556 45.7319 175.533 45.7311 175.509C45.7302 175.485 45.7353 175.461 45.7458 175.44C45.9303 175.072 46.0062 174.696 45.9736 174.311C45.9344 173.841 45.8364 173.828 45.6797 174.274L45.2659 175.452C45.2365 175.535 45.1802 175.592 45.0969 175.621C44.8504 175.707 44.5965 175.731 44.3353 175.692C44.2242 175.674 44.1244 175.614 44.0579 175.523C43.9914 175.433 43.9635 175.32 43.9803 175.21L44.3182 172.959C44.3236 172.921 44.3159 172.882 44.2963 172.849C44.2767 172.815 44.2465 172.789 44.2104 172.775L44.1125 172.739C44.1035 172.735 44.0938 172.734 44.0842 172.734C44.0745 172.735 44.0652 172.737 44.0568 172.742C44.0484 172.746 44.0411 172.752 44.0355 172.76C44.0299 172.767 44.0261 172.776 44.0243 172.785L43.5101 175.403C43.4726 175.591 43.3575 175.691 43.1648 175.704C42.8661 175.725 42.6024 175.685 42.3739 175.582C42.2906 175.544 42.2629 175.482 42.2906 175.396C42.5526 174.566 42.5135 173.76 42.7142 172.935C42.7219 172.904 42.7212 172.871 42.7122 172.84C42.7033 172.81 42.6863 172.782 42.6631 172.759C42.6398 172.737 42.6111 172.721 42.5797 172.713C42.5483 172.705 42.5153 172.706 42.4841 172.714C42.409 172.734 42.3641 172.787 42.3494 172.873C42.2057 173.748 42.0857 174.579 41.9894 175.366C41.9822 175.428 41.9551 175.485 41.9122 175.53C41.8693 175.574 41.813 175.604 41.7519 175.614C40.836 175.762 39.9757 175.678 39.1709 175.361C39.151 175.354 39.1333 175.342 39.119 175.326C39.1047 175.31 39.0943 175.291 39.0886 175.27C39.0829 175.25 39.0821 175.228 39.0862 175.207C39.0902 175.186 39.0991 175.166 39.1121 175.148C39.2133 175.016 39.2802 174.868 39.3129 174.705C39.45 174.037 39.6092 173.389 39.7904 172.761C39.7937 172.75 39.7942 172.738 39.7918 172.726C39.7894 172.715 39.7842 172.704 39.7767 172.695C39.7692 172.686 39.7596 172.679 39.7487 172.675C39.7379 172.671 39.7261 172.669 39.7145 172.67L39.6459 172.68C39.5914 172.687 39.5397 172.708 39.4966 172.742C39.4534 172.775 39.4204 172.82 39.401 172.871C39.0811 173.694 38.8909 174.486 38.8305 175.249C38.8223 175.35 38.7668 175.401 38.664 175.403L37.8461 175.42C37.7269 175.423 37.6893 175.37 37.7334 175.259C38.1464 174.251 38.3726 173.21 38.4117 172.134C38.4126 172.118 38.4086 172.102 38.4003 172.089C38.392 172.075 38.3797 172.064 38.3652 172.058L38.2697 172.011C38.2602 172.007 38.2497 172.004 38.239 172.004C38.2284 172.004 38.2179 172.007 38.2085 172.012C38.1992 172.017 38.1911 172.025 38.1852 172.033C38.1792 172.042 38.1754 172.052 38.1742 172.063C38.0159 173.104 37.7506 174.154 37.3784 175.212C37.3424 175.312 37.2722 175.372 37.1678 175.393C36.8315 175.459 36.4968 175.463 36.1638 175.405C36.1099 175.397 36.0597 175.372 36.0193 175.335C35.9789 175.299 35.9499 175.251 35.936 175.197C35.6944 174.246 35.3818 173.282 34.9981 172.305C34.9839 172.269 34.9559 172.239 34.9202 172.223C34.8844 172.207 34.8439 172.206 34.8071 172.22L34.7435 172.244C34.7131 172.256 34.6883 172.278 34.6742 172.308C34.6601 172.338 34.6577 172.372 34.6676 172.403L35.4879 175.016C35.5012 175.057 35.5025 175.101 35.4917 175.143C35.4809 175.185 35.4584 175.223 35.4268 175.253C35.3952 175.282 35.3558 175.302 35.3133 175.31C35.2708 175.318 35.2269 175.314 35.1867 175.298C35.0667 175.251 34.9932 175.217 34.861 175.217C33.5533 175.207 32.2286 175.205 30.8866 175.212C30.8001 175.214 30.7152 175.229 30.6319 175.259L30.4409 175.327C30.312 175.373 30.2736 175.333 30.3259 175.207C30.5046 174.764 30.7544 174.328 30.8646 173.865C31.1731 172.569 31.4335 171.132 31.6457 169.555C32.2237 165.275 32.6432 161.946 32.9044 159.569C33.1803 157.057 33.293 154.528 33.2424 151.983C33.2342 151.648 33.2073 151.314 33.1615 150.979C33.1452 150.861 33.0775 150.794 32.9583 150.778C31.0107 150.505 29.1006 150.312 27.2281 150.198C25.656 150.105 24.1157 149.896 22.4848 149.98C22.4505 149.982 22.4161 149.977 22.3838 149.965C22.3515 149.953 22.3219 149.935 22.2969 149.911C22.2719 149.888 22.252 149.859 22.2384 149.828C22.2249 149.796 22.2179 149.762 22.2179 149.728L22.2228 145.814C22.2228 145.729 22.2432 145.649 22.284 145.574C22.4383 145.283 22.2596 145.05 22.2473 144.747C22.2114 143.948 22.182 143.126 22.1591 142.281C22.151 142.02 22.1722 141.753 22.2228 141.48C22.2914 141.108 22.3379 140.753 22.4946 140.403C23.0432 139.191 23.5672 138.159 24.0668 137.307C25.0724 135.595 26.3637 134.046 27.9407 132.662C28.0599 132.556 28.1766 132.559 28.2909 132.672C29.9438 134.31 32.2261 135.025 34.2145 133.397C35.9009 132.015 37.1914 130.193 38.086 127.928C38.4126 127.102 38.7946 126.313 39.2321 125.56C39.3676 125.329 39.5586 125.107 39.8051 124.897C39.8289 124.877 39.8476 124.852 39.8598 124.823C39.8721 124.795 39.8775 124.764 39.8755 124.733C39.8736 124.702 39.8645 124.672 39.8489 124.645C39.8332 124.618 39.8115 124.595 39.7855 124.579C39.4606 124.368 39.0925 124.26 38.6811 124.255C37.9318 124.245 37.2657 124.047 36.5237 124.032C34.8455 124 33.6839 124.01 33.0391 124.064C32.0286 124.148 30.9764 124.413 29.8826 124.86C28.2468 125.526 27.34 126.739 27.162 128.499C27.042 129.677 27.424 130.833 27.8452 131.891C27.8741 131.962 27.8809 132.041 27.8648 132.116C27.8486 132.192 27.8103 132.261 27.7546 132.314C26.949 133.078 26.1678 133.835 25.4822 134.739C24.1182 136.538 23.026 138.299 22.1836 140.322C22.1167 140.482 22.071 140.476 22.0465 140.305C21.809 138.654 22.1763 136.964 21.8384 135.321C21.6327 134.325 22.0098 133.379 22.12 132.412C22.1853 131.823 22.2718 131.251 22.3795 130.696C22.8432 128.309 23.506 126.062 24.368 123.954C24.99 122.436 25.7825 121.013 26.7457 119.686C26.9841 119.356 27.2722 119.076 27.6102 118.846C27.64 118.825 27.6737 118.812 27.7093 118.805C27.7448 118.798 27.7814 118.799 27.8165 118.808C27.8516 118.817 27.8846 118.832 27.9131 118.855C27.9417 118.877 27.9653 118.905 27.9824 118.937C28.4183 119.764 29.2019 120.222 30.0002 120.68C31.5625 121.576 33.5411 122.289 34.6724 120.376C35.794 118.479 36.2739 116.571 36.6462 114.453C36.7017 114.136 36.7066 113.805 36.6608 113.459C36.6524 113.393 36.6193 113.332 36.5681 113.289C36.5169 113.246 36.4513 113.223 36.3842 113.226C35.5736 113.258 34.8855 113.806 34.168 114.085C32.7746 114.624 31.1707 113.63 29.7112 113.919C28.886 114.081 27.9554 114.482 27.5465 115.276C27.1465 116.049 27.0673 116.794 27.309 117.509C27.4004 117.78 27.42 118.052 27.3677 118.324C27.3481 118.427 27.3016 118.515 27.2281 118.589C26.0805 119.745 25.1557 121.131 24.4537 122.747C23.5509 124.82 22.8187 127.017 22.2571 129.339C22.0857 130.046 21.9763 130.761 21.929 131.484C21.9257 131.518 21.9078 131.535 21.8751 131.533H21.8016C21.7918 131.533 21.7869 131.527 21.7869 131.516C21.7576 130.437 21.7355 129.36 21.7208 128.286C21.7143 127.7 21.6604 126.893 21.5592 125.864C21.4563 124.836 21.3364 123.168 21.7967 122.228C22.373 121.051 22.8554 119.944 23.244 118.907C23.7011 117.686 24.1451 116.557 24.5761 115.52C25.1899 114.045 25.8038 112.593 26.4176 111.167C26.4672 111.05 26.5512 110.951 26.6584 110.883C26.7655 110.815 26.8908 110.782 27.0175 110.787C28.9635 110.865 30.8621 110.527 32.7134 109.773C34.3982 109.09 35.8919 107.782 35.9042 105.853C35.914 104.62 35.7711 103.302 35.4756 101.898C35.3565 101.328 35.4005 100.809 35.6079 100.34C35.631 100.288 35.642 100.231 35.6399 100.174C35.6378 100.117 35.6228 100.061 35.5959 100.01C35.569 99.96 35.531 99.9163 35.4847 99.8826C35.4384 99.849 35.3851 99.8264 35.3287 99.8164C34.648 99.6989 34.0945 99.9437 33.4309 99.9829C32.2669 100.055 31.1609 100.242 30.1128 100.546C29.0027 100.868 28.1105 101.443 27.4363 102.273C26.5792 103.327 26.0764 104.482 25.9278 105.738C25.7825 106.964 25.9262 108.364 26.3588 109.94C26.3813 110.018 26.3821 110.101 26.3613 110.18C26.2192 110.77 25.847 111.291 25.6144 111.86C24.3508 114.93 23.1297 118.005 21.951 121.084C21.7045 121.726 21.5551 121.704 21.5029 121.018C21.4359 120.148 21.4506 119.295 21.547 118.459C21.8384 115.934 21.5763 113.434 21.8212 110.919C21.8914 110.206 21.9322 109.578 21.9437 109.036C21.9714 107.658 22.0906 106.247 22.3012 104.802C22.3107 104.735 22.334 104.671 22.3696 104.613C22.4051 104.555 22.4521 104.506 22.5078 104.467C22.5634 104.429 22.6264 104.402 22.6928 104.389C22.7592 104.376 22.8277 104.376 22.8938 104.391C24.63 104.768 25.9646 102.985 26.3588 101.535C26.9343 99.4123 27.1571 97.0199 26.4984 95.0339C26.2217 94.1989 25.6854 93.5328 25.2005 92.8349C24.8757 92.3664 24.4847 92.3019 24.0276 92.6415C23.2954 93.1826 22.4408 93.7434 21.8727 94.3875C20.423 96.033 19.1569 98.5038 19.7495 100.664C20.1414 102.095 20.8254 103.249 21.8016 104.124C21.8571 104.173 21.8939 104.235 21.9118 104.31C22.0294 104.814 21.7649 105.209 21.76 105.703C21.7551 106.226 21.7102 106.787 21.6253 107.388C21.4343 108.74 21.5225 110.136 21.3853 111.409C21.0719 114.286 21.2286 117.247 21.2188 120.205C21.2164 121.15 20.8833 122.022 21.0597 122.938C21.2458 123.89 21.2482 124.853 21.2335 125.813C21.227 126.271 21.0939 126.311 20.8344 125.933C20.2189 125.032 19.6908 124.021 19.25 122.901C17.451 118.314 15.8707 113.934 14.5092 109.761C14.4781 109.665 14.5116 109.606 14.6095 109.585C14.6406 109.578 14.6683 109.565 14.6928 109.545C14.7271 109.518 14.7565 109.484 14.781 109.445C15.7899 107.775 16.5147 105.828 16.6102 103.925C16.7939 100.336 14.3965 98.9544 11.5314 97.8794C11.4253 97.8386 11.3282 97.8533 11.24 97.9235C9.80504 99.0597 8.39699 101.031 8.49004 102.956C8.56024 104.374 9.01489 105.594 9.85402 106.614C10.8466 107.822 12.0661 108.743 13.5125 109.376C13.7549 109.484 13.9851 109.722 14.0733 109.984C15.1654 113.224 16.3449 116.538 17.6118 119.926C18.108 121.248 18.69 122.687 19.3577 124.243C19.5716 124.744 19.823 125.209 20.112 125.639C20.3993 126.065 20.6964 126.472 21.0033 126.861C21.1666 127.066 21.2482 127.3 21.2482 127.561C21.2466 129.486 21.2482 131.389 21.2531 133.269C21.2547 134.076 21.3102 134.96 21.4196 135.921C21.5241 136.842 21.5453 137.905 21.4833 139.11C21.48 139.203 21.4498 139.212 21.3927 139.139ZM96.1222 8.30532C95.6684 7.32908 95.0684 6.37079 94.3224 5.43045C94.302 5.40443 94.2876 5.37423 94.2802 5.34205C94.2728 5.30987 94.2726 5.27651 94.2797 5.24439C94.2867 5.21228 94.3008 5.1822 94.3209 5.15636C94.341 5.13052 94.3666 5.10954 94.3958 5.09497L94.4913 5.04844C94.6644 4.96029 94.8162 4.98804 94.9468 5.1317C96.061 6.3512 97.4421 8.43266 97.1091 10.1101C97.0144 10.5802 96.8846 10.5909 96.7197 10.1419C96.4944 9.52482 96.3989 8.90038 96.1222 8.30532ZM100.329 21.9573C100.36 21.972 100.387 21.9908 100.41 22.0136C100.58 22.1785 100.568 22.3295 100.373 22.4666C97.616 24.393 95.4268 26.8043 93.8057 29.7004C93.7045 29.8816 93.5322 30.0546 93.289 30.2195C93.2008 30.2783 93.129 30.2628 93.0735 30.173C92.9706 30.0081 92.96 29.8383 93.0417 29.6636C94.4399 26.6173 96.8667 24.0682 99.6485 22.0283C99.7449 21.957 99.8589 21.9128 99.9785 21.9003C100.098 21.8878 100.219 21.9075 100.329 21.9573ZM120.39 30.4987C120.38 30.2954 120.289 30.1656 120.248 29.982C120.225 29.8873 120.257 29.8179 120.343 29.7738C120.469 29.7069 120.593 29.6971 120.715 29.7444C120.752 29.759 120.784 29.7816 120.81 29.8105C120.836 29.8394 120.855 29.8738 120.865 29.911C120.941 30.1966 120.994 30.4791 121.021 30.7582C121.149 32.0349 121.183 33.3221 121.124 34.62C121.121 34.6957 121.091 34.7677 121.038 34.8226C120.986 34.8775 120.916 34.9117 120.84 34.9187C120.701 34.9301 120.573 34.8461 120.456 34.6665C120.416 34.6028 120.396 34.5285 120.399 34.4534C120.452 33.0723 120.448 31.7541 120.39 30.4987ZM123.032 34.6934C122.97 35.0199 122.864 35.0354 122.714 34.74C122.43 34.1841 122.089 32.8421 122.77 32.4112C122.796 32.3945 122.826 32.3846 122.857 32.3825C122.888 32.3803 122.919 32.386 122.947 32.3989C122.975 32.4118 123 32.4315 123.019 32.4563C123.037 32.4812 123.049 32.5102 123.054 32.5409C123.171 33.2952 123.164 34.0127 123.032 34.6934ZM119.493 33.0625C119.986 33.6821 120.025 34.3237 119.503 34.8722C119.485 34.8914 119.462 34.9049 119.437 34.9113C119.412 34.9176 119.385 34.9165 119.36 34.908C119.335 34.8995 119.313 34.884 119.296 34.8634C119.28 34.8427 119.269 34.8177 119.266 34.7914C119.207 34.3098 119.133 33.8559 119.045 33.4299C119.004 33.2307 119.083 33.0903 119.28 33.0087C119.365 32.9728 119.436 32.9907 119.493 33.0625ZM102.061 51.7908C101.796 51.7876 101.543 51.7663 101.301 51.7272C100.955 51.6717 100.928 51.5476 101.221 51.355C102.014 50.8285 103.38 49.5869 103.143 48.5046C103.051 48.0834 103.02 47.6459 103.047 47.192C103.145 45.646 103.293 44.1563 103.491 42.723C103.499 42.6613 103.53 42.6047 103.577 42.5637C103.624 42.5227 103.685 42.5001 103.748 42.5002C105.841 42.505 107.798 42.1818 109.86 41.812C112.983 41.2521 116.053 40.3444 119.07 39.089C119.675 38.8376 120.244 38.5184 120.777 38.1315C120.817 38.1028 120.865 38.0874 120.914 38.0874C120.963 38.0874 121.011 38.1028 121.051 38.1315C121.459 38.4286 121.991 38.7429 122.647 39.0743C125.302 40.4113 127.97 41.4864 130.653 42.2994C131.524 42.5622 132.363 42.8177 133.167 43.0658C133.222 43.0828 133.268 43.119 133.298 43.1676C133.328 43.2163 133.339 43.2741 133.329 43.3303C132.645 47.423 131.702 51.7231 130.501 56.2305C129.391 60.3967 128.098 64.3131 126.624 67.9798C125.429 70.951 123.399 72.843 120.534 73.656C118.773 74.1556 116.369 74.1776 114.601 73.9254C113.783 73.8095 112.976 73.705 112.181 73.612C111.517 73.5336 110.942 73.3712 110.457 73.1246C108.501 72.1329 106.816 70.8008 105.104 69.4882C104.44 68.9772 104.226 69.1242 104.463 69.929C104.487 70.0073 104.638 70.2245 104.916 70.5804C106.695 72.8675 108.493 75.0298 110.31 77.0672C110.634 77.4272 110.871 77.8655 111.217 78.2206C111.254 78.259 111.283 78.3053 111.3 78.356C111.318 78.4067 111.324 78.4608 111.319 78.5144C111.314 78.568 111.297 78.6198 111.269 78.6664C111.242 78.7129 111.205 78.753 111.16 78.7838C110.943 78.934 110.886 79.1323 110.989 79.3788C111.038 79.4948 111.047 79.6139 111.016 79.7364C110.237 82.8488 109.458 85.7334 106.787 87.6239C104.561 89.1985 101.879 90.0972 99.1612 89.5462C96.2667 88.9609 93.8865 86.8991 92.5666 84.3621C91.5773 82.4635 90.8867 80.1216 90.4949 77.3366C90.4901 77.3026 90.4776 77.2668 90.4582 77.2313C90.4402 77.197 90.4157 77.1684 90.3847 77.1456C90.3113 77.0868 90.3202 77.0484 90.4117 77.0305C91.1332 76.877 91.8401 76.7693 92.5323 76.7072C92.9339 76.6697 93.3176 76.5709 93.6832 76.4109C93.7389 76.3861 93.7876 76.3478 93.8248 76.2995C93.8619 76.2512 93.8865 76.1944 93.8963 76.1342L97.1042 55.6697C97.1101 55.6337 97.1076 55.5969 97.0969 55.5621C97.0862 55.5272 97.0674 55.4954 97.0423 55.469C97.0171 55.4426 96.9861 55.4225 96.9518 55.4101C96.9175 55.3978 96.8808 55.3936 96.8446 55.3979C96.2765 55.4665 96.203 56.228 96.1614 56.6786C96.1578 56.7151 96.1469 56.7504 96.1293 56.7825C96.1118 56.8147 96.088 56.8429 96.0594 56.8656C96.0309 56.8882 95.998 56.9048 95.963 56.9143C95.9279 56.9239 95.8913 56.9261 95.8553 56.921C94.6603 56.7619 92.978 56.2182 92.2042 55.2314C91.352 54.1425 90.8704 53.0022 90.7594 51.8104C90.4802 48.796 92.6033 46.4647 95.6325 46.3423C97.4617 46.2688 99.0461 46.6974 100.273 48.1593C100.335 48.2328 100.345 48.3127 100.302 48.3993L100.099 48.8205C100.052 48.92 100.078 48.9919 100.177 49.036L100.741 49.2784C100.827 49.3159 100.906 49.3029 100.978 49.2392C101.27 48.978 101.59 48.7903 101.936 48.676C102.313 48.5519 102.402 48.6621 102.203 49.0066C101.855 49.6057 101.286 49.8873 100.496 49.8514C100.441 49.8493 100.386 49.8617 100.337 49.8874C100.288 49.9131 100.247 49.9513 100.218 49.998C100.189 50.0447 100.172 50.0983 100.17 50.1534C100.168 50.2085 100.181 50.2631 100.207 50.3118C100.415 50.6962 100.146 51.1199 100.131 51.5362C100.087 52.8193 99.9987 54.1278 99.8664 55.4616C99.8321 55.8077 99.8485 56.1489 99.9154 56.4852C99.9334 56.5668 99.9758 56.6329 100.043 56.6835C100.291 56.868 100.523 56.9202 100.738 56.8402C100.841 56.8011 100.913 56.7292 100.954 56.6247C101.515 55.1375 101.954 53.6136 102.271 52.0529C102.307 51.8798 102.237 51.7925 102.061 51.7908ZM90.4974 120.372C90.4827 120.35 90.4655 120.347 90.4459 120.362C88.8085 121.596 87.0503 122.643 85.1713 123.503C85.1157 123.529 85.0553 123.542 84.9941 123.542C84.9329 123.542 84.8723 123.529 84.8166 123.504C84.7608 123.478 84.7112 123.441 84.6709 123.394C84.6307 123.348 84.6009 123.293 84.5836 123.234C84.3974 122.59 84.2628 121.975 84.2138 121.307C83.9052 117.128 83.7069 113.001 83.6187 108.928C83.6089 108.465 83.5257 108.01 83.511 107.535C83.4424 104.941 83.4163 102.41 83.4326 99.9413C83.44 99.0426 83.6163 98.1071 83.5869 97.2354C83.5787 96.9807 83.4759 96.7611 83.2784 96.5767C83.231 96.5326 83.1763 96.5228 83.1143 96.5473C82.9053 96.6305 82.7943 96.784 82.7813 97.0076C82.6947 98.5063 82.6058 100.168 82.5143 101.993C82.4237 103.81 82.6123 105.62 82.649 107.398C82.7502 112.22 82.8776 115.495 83.031 117.222C83.1388 118.424 83.2041 119.592 83.2269 120.727C83.2283 120.781 83.2168 120.836 83.1933 120.885C83.1698 120.935 83.135 120.978 83.0918 121.011C83.0486 121.045 82.9981 121.068 82.9446 121.078C82.8911 121.088 82.8359 121.085 82.7837 121.069C82.325 120.937 81.8907 120.869 81.481 120.864C77.9865 120.837 74.999 120.509 71.3846 120.57C70.2206 120.589 68.7946 120.694 67.1066 120.883C65.0039 121.12 62.8392 121.346 60.6124 121.562C60.2647 121.594 59.9219 121.592 59.5839 121.554C59.5713 121.553 59.5591 121.548 59.5483 121.542C59.5375 121.535 59.5284 121.526 59.5216 121.515C59.5148 121.504 59.5105 121.492 59.509 121.479C59.5075 121.467 59.5088 121.454 59.5129 121.442C60.5169 118.568 61.3813 115.705 62.1062 112.851C63.0294 109.23 64.0089 105.706 64.8194 102.172C65.5231 99.1014 66.1932 96.2746 66.8299 93.692C67.0797 92.688 67.4592 91.5493 67.9783 90.6359C68.3114 90.0482 68.6461 89.4197 68.9824 88.7503C71.2401 84.2519 74.9696 81.2375 79.7105 79.587C82.8596 78.4924 86.0063 77.841 89.2191 77.219C89.2609 77.211 89.304 77.2117 89.3455 77.2211C89.3871 77.2306 89.4262 77.2485 89.4605 77.2738C89.4948 77.2991 89.5235 77.3312 89.5447 77.3682C89.566 77.4051 89.5793 77.446 89.584 77.4884C89.8697 79.9306 90.4402 82.1223 91.2957 84.0634C92.8139 87.5113 95.8626 90.2025 99.6411 90.6408C102.501 90.9714 105.614 89.9674 107.798 88.2385C109.081 87.2231 110.079 85.78 110.793 83.9091C111.263 82.6798 111.641 81.4823 111.927 80.3167C111.966 80.1584 112.065 80.0988 112.223 80.138C115.188 80.8481 117.779 81.5681 120.47 82.9688C123.551 84.5727 126.135 87.1586 128.003 89.9821C129.761 92.6415 131.506 95.6273 133.238 98.9397C133.74 99.898 134.222 100.808 134.686 101.67C135.457 103.105 136.116 104.609 136.934 106.022C137.236 106.544 137.543 107.084 137.854 107.64C138.129 108.132 138.068 108.536 137.673 108.852C136.348 109.92 135.085 110.882 133.885 111.74C133.539 111.986 133.17 112.22 132.778 112.442C129.964 114.029 127.126 115.376 124.173 116.877C123.979 116.975 123.905 116.918 123.953 116.706C124.009 116.446 124.09 116.255 124.036 115.978C123.879 115.168 123.774 114.379 123.522 113.583C122.51 110.385 121.239 107.182 120.223 104.18C119.64 102.459 119.067 100.747 118.502 99.0426C118.363 98.623 118.107 98.4867 117.733 98.6336C117.713 98.6418 117.694 98.6491 117.674 98.6557C117.29 98.7601 117.169 98.9985 117.309 99.3707C117.569 100.061 117.679 100.764 117.85 101.457C118.4 103.69 118.947 105.93 119.491 108.177C119.959 110.118 120.297 112.158 120.353 114.083C120.39 115.338 120.104 116.749 119.493 118.315C119.461 118.398 119.405 118.461 119.327 118.506C119.108 118.628 118.864 118.675 118.595 118.648C116.273 118.401 114.002 118.208 111.78 118.067C111.075 118.023 110.47 117.844 109.742 117.935C109.659 117.945 109.581 117.984 109.522 118.045C109.464 118.105 109.428 118.184 109.422 118.268C109.397 118.555 109.401 118.84 109.434 119.123C109.667 121.098 109.902 123.057 110.137 125C110.159 125.187 110.206 125.374 110.276 125.558C110.31 125.643 110.281 125.69 110.188 125.7C109.162 125.791 108.244 125.502 107.25 125.48C106.74 125.47 106.511 125.725 106.561 126.244C106.682 127.479 107.047 128.849 107.656 130.353C107.666 130.378 107.671 130.406 107.669 130.433C107.666 130.461 107.658 130.487 107.644 130.511C107.629 130.535 107.61 130.554 107.586 130.569C107.563 130.584 107.537 130.593 107.509 130.595C106.76 130.665 106.016 130.665 105.278 130.595C104.717 130.544 104.198 130.228 103.728 129.934C103.376 129.715 102.997 129.522 102.592 129.354C98.8698 127.804 94.6897 127.627 90.7912 128.068C89.3203 128.236 87.7629 128.642 86.1189 129.285C86.039 129.318 85.9843 129.293 85.9549 129.212C85.7737 128.709 85.661 128.34 85.617 128.105C85.3443 126.671 85.0464 125.288 84.7231 123.954C84.7167 123.928 84.7164 123.9 84.7225 123.873C84.7286 123.846 84.7408 123.822 84.7581 123.8C84.7755 123.779 84.7975 123.763 84.8224 123.751C84.8474 123.74 84.8746 123.735 84.9019 123.736C85.377 123.759 85.8479 123.65 86.3148 123.41C86.9385 123.092 87.5539 122.734 88.1612 122.335C88.9791 121.799 89.7064 121.136 90.5096 120.57C90.57 120.529 90.5782 120.479 90.5341 120.42L90.4974 120.372ZM21.1968 95.9228C21.4809 95.4951 21.7878 95.0821 22.1175 94.6837C22.671 94.0128 23.4129 93.5377 24.1402 93.1043C24.4912 92.8937 24.6284 92.99 24.5516 93.3932C24.5369 93.4651 24.5116 93.5344 24.4757 93.6014C24.4414 93.6651 24.4259 93.7336 24.4292 93.8071C24.4618 94.336 24.4504 94.798 24.3949 95.1931C23.9762 98.1512 23.5207 100.673 22.6048 103.105C22.551 103.247 22.4661 103.376 22.3502 103.492C22.1722 103.672 21.9984 103.668 21.8286 103.482C19.641 101.104 19.4304 98.5838 21.1968 95.9228ZM25.8005 101.864C25.3671 103.024 24.1867 104.577 22.7811 104.102C22.7593 104.094 22.7392 104.082 22.7222 104.067C22.7052 104.051 22.6915 104.032 22.6821 104.011C22.6727 103.99 22.6677 103.967 22.6675 103.944C22.6673 103.921 22.6718 103.898 22.6808 103.876C23.5117 101.924 24.0863 99.9217 24.4047 97.8696C24.6251 96.4575 24.8079 95.0168 24.9532 93.5475C24.9679 93.4022 25.0226 93.3851 25.1173 93.4961C25.8242 94.3189 26.2266 95.2208 26.3245 96.202C26.5033 97.9676 26.4568 100.108 25.8005 101.864ZM14.6145 108.867C14.5785 108.957 14.5181 109.021 14.4332 109.061C14.4017 109.075 14.367 109.081 14.3325 109.078C14.2979 109.076 14.2647 109.064 14.2361 109.045C14.2075 109.026 14.1845 108.999 14.1693 108.969C14.154 108.938 14.1471 108.904 14.1492 108.87C14.1761 108.326 13.9239 107.883 13.7868 107.371C13.6284 106.786 13.3803 105.944 13.0423 104.844C12.5509 103.244 12.1534 101.247 11.8498 98.854C11.8449 98.823 11.8359 98.7936 11.8228 98.7659C11.8081 98.7365 11.7918 98.7079 11.7739 98.6802C11.6873 98.5463 11.7192 98.5063 11.8694 98.5602C13.7304 99.236 15.8609 100.544 16.0764 102.608C16.2772 104.521 15.8315 106.519 14.7393 108.6C14.692 108.69 14.6504 108.779 14.6145 108.867ZM9.83443 105.951C9.18304 105.036 8.89163 103.89 8.96021 102.51C9.03366 101.036 9.98135 99.6401 11.1764 98.7634C11.1942 98.7505 11.215 98.7425 11.2368 98.74C11.2587 98.7376 11.2808 98.7408 11.301 98.7495C11.3212 98.7581 11.3389 98.7718 11.3522 98.7893C11.3656 98.8067 11.3741 98.8274 11.3772 98.8491C11.8294 102.114 12.6432 105.475 13.8186 108.931C13.8267 108.953 13.828 108.977 13.8223 109C13.8166 109.024 13.8041 109.044 13.7866 109.06C13.769 109.076 13.7471 109.087 13.7236 109.09C13.7 109.094 13.676 109.09 13.6545 109.08C12.084 108.363 10.8107 107.32 9.83443 105.951ZM27.7105 102.481C28.3962 101.675 29.6892 101.06 30.6785 100.845C31.6417 100.633 32.742 100.45 33.9794 100.296C34.2913 100.259 34.577 100.251 34.8365 100.272C34.8597 100.273 34.8819 100.282 34.9003 100.296C34.9186 100.31 34.9323 100.329 34.9397 100.352C34.947 100.374 34.9476 100.398 34.9415 100.421C34.9353 100.444 34.9226 100.464 34.9051 100.48C34.0349 101.249 33.2538 102.08 32.5616 102.973C32.1894 103.453 31.6898 103.803 31.325 104.285C31.1274 104.547 30.9168 104.807 30.6932 105.067C29.619 106.306 28.4632 107.717 27.2257 109.301C27.0984 109.464 26.9669 109.618 26.8314 109.763C26.8235 109.772 26.8135 109.778 26.8025 109.781C26.7915 109.784 26.7799 109.784 26.7689 109.781C26.7578 109.778 26.7478 109.772 26.7399 109.763C26.7319 109.755 26.7263 109.745 26.7237 109.734C26.3352 108.031 26.2543 106.481 26.4813 105.084C26.638 104.124 27.0477 103.256 27.7105 102.481ZM27.5073 109.69C28.9227 107.757 30.3356 106.04 31.7462 104.54C32.733 103.492 33.6488 102.329 34.7533 101.34C34.861 101.242 34.9296 101.264 34.959 101.406C35.1418 102.3 35.2928 103.218 35.412 104.158C35.6862 106.308 35.412 107.944 33.2987 109.056C31.72 109.888 30.0581 110.315 28.313 110.336C27.9334 110.341 27.6493 110.513 27.2698 110.5C27.2403 110.499 27.2117 110.49 27.1868 110.475C27.1619 110.459 27.1415 110.437 27.1276 110.411C27.1138 110.385 27.1069 110.356 27.1078 110.327C27.1087 110.297 27.1172 110.268 27.1326 110.243C27.2502 110.054 27.3751 109.869 27.5073 109.69ZM35.7352 113.841C35.998 113.734 36.0258 113.779 35.8185 113.973C35.3597 114.409 34.91 114.849 34.4692 115.295C34.0872 115.68 33.5819 116.031 32.9534 116.346C31.3633 117.142 29.7953 117.734 28.2493 118.121C28.0909 118.16 27.9783 118.106 27.9113 117.957C27.4885 117.02 27.5399 116.158 28.0656 115.371C28.9839 114 31.3421 114.502 32.6644 114.7C33.3256 114.801 34.4618 114.681 35.0691 114.218C35.265 114.066 35.4871 113.94 35.7352 113.841ZM135.575 116.752C135.2 117.21 135.433 118.574 135.496 119.137C135.578 119.861 135.575 120.576 135.486 121.282C135.244 123.217 134.899 125.183 134.399 127.091C134.061 128.379 133.749 129.649 133.464 130.901C133.384 131.244 133.33 131.607 133.302 131.991C133.3 132.02 133.285 132.035 133.256 132.035H133.253C133.23 132.035 133.218 132.024 133.216 132.001C133.158 131.116 133.122 130.247 133.109 129.393C133.096 128.602 132.91 127.853 132.901 127.049C132.881 125.203 132.889 123.323 132.925 121.41C132.932 121.06 132.893 120.704 132.81 120.34C132.794 120.263 132.748 120.213 132.673 120.19C132.036 119.991 131.435 119.889 130.87 119.884C129.85 119.878 128.801 119.767 127.724 119.554C127.626 119.534 127.596 119.478 127.636 119.385C128.466 117.413 129.59 116.057 131.48 115.124C133.924 113.919 136.894 113.197 139.245 115.067C139.729 115.453 140.08 115.921 140.301 116.473C140.577 117.167 140.714 117.792 140.712 118.349C140.712 118.945 140.525 119.724 140.151 120.687C139.774 121.667 138.663 122.539 137.916 123.222C137.818 123.312 137.702 123.383 137.568 123.437C137.338 123.529 137.286 123.468 137.414 123.256C138.385 121.63 139.064 119.942 139.451 118.192C139.5 117.973 139.424 117.813 139.223 117.71C139.192 117.693 139.159 117.684 139.123 117.68C138.839 117.661 138.657 117.787 138.577 118.06C138.059 119.859 137.397 121.509 136.591 123.009C136.526 123.131 136.449 123.241 136.361 123.339C136.197 123.522 136.122 123.491 136.135 123.246C136.157 122.869 136.302 122.566 136.317 122.186C136.373 120.477 136.532 118.52 136.101 116.867C136.087 116.813 136.059 116.764 136.019 116.726C135.979 116.687 135.929 116.661 135.874 116.649C135.82 116.637 135.763 116.64 135.71 116.658C135.657 116.677 135.61 116.709 135.575 116.752ZM34.0676 116.076C34.7418 115.554 35.3859 114.944 35.9997 114.247C36.0111 114.235 36.0257 114.226 36.042 114.221C36.0582 114.216 36.0754 114.216 36.0918 114.22C36.1082 114.224 36.1231 114.233 36.1349 114.245C36.1467 114.257 36.155 114.272 36.1588 114.289C36.1833 114.4 36.1858 114.508 36.1662 114.614C35.914 116.086 35.6397 117.651 35.0079 119.017C34.3908 120.352 33.5925 121.853 31.8172 121.06C31.0189 120.702 30.1969 120.243 29.3512 119.681C28.9594 119.421 28.646 119.074 28.3448 118.719C28.3213 118.69 28.3063 118.656 28.3015 118.619C28.2966 118.583 28.3022 118.546 28.3176 118.512C28.3329 118.479 28.3574 118.45 28.3882 118.43C28.419 118.41 28.4549 118.399 28.4917 118.398C28.7627 118.393 29.0272 118.352 29.2851 118.275C31.0286 117.749 32.7257 117.115 34.0676 116.076ZM122.701 117.298C123.083 117.896 123.718 117.805 124.266 117.546C124.963 117.217 125.696 116.854 126.465 116.456C126.517 116.429 126.573 116.413 126.631 116.408C126.689 116.403 126.747 116.41 126.802 116.428C126.857 116.446 126.908 116.475 126.952 116.513C126.996 116.551 127.032 116.597 127.058 116.649C127.369 117.281 127.667 118.319 127.427 119.022C127.392 119.128 127.322 119.218 127.228 119.279C127.135 119.34 127.024 119.367 126.913 119.358L120.297 118.78C120.288 118.779 120.279 118.776 120.272 118.771C120.264 118.766 120.258 118.759 120.254 118.751C120.25 118.743 120.248 118.735 120.248 118.726C120.248 118.717 120.25 118.709 120.255 118.701C120.831 117.717 121.14 116.656 121.181 115.518C121.194 115.16 121.298 115.132 121.494 115.432C121.904 116.059 122.306 116.681 122.701 117.298ZM5.76944 119.754C7.00363 118.923 8.33659 118.473 9.76831 118.403C10.0001 118.391 10.2311 118.417 10.4613 118.481C11.0049 118.63 11.4922 118.701 11.9796 119.005C13.4097 119.895 14.3737 121.118 14.8716 122.676C15.2111 123.734 15.1564 124.859 14.7075 126.053C14.6912 126.097 14.6642 126.137 14.6288 126.168C14.5935 126.2 14.5508 126.222 14.5046 126.233C14.4585 126.244 14.4102 126.244 14.364 126.232C14.3178 126.22 14.2751 126.197 14.2398 126.165C12.6236 124.703 10.6572 123.614 8.87206 122.338C7.8754 121.628 6.82487 121.001 5.7719 120.303C5.49763 120.122 5.49681 119.939 5.76944 119.754ZM125.216 127.887C122.726 126.88 120.037 126.542 117.417 126.317C115.107 126.12 113.14 125.982 111.515 125.903C111.465 125.901 111.416 125.881 111.378 125.847C111.341 125.813 111.315 125.767 111.307 125.717C111.085 124.41 110.909 123.125 110.778 121.863C110.693 121.027 110.556 120.127 110.367 119.164C110.358 119.12 110.36 119.075 110.372 119.032C110.385 118.99 110.407 118.95 110.438 118.918C110.469 118.886 110.507 118.861 110.549 118.846C110.591 118.832 110.636 118.827 110.68 118.834C113.472 119.218 116.286 119.348 119.195 119.546C122.66 119.784 126.098 120.18 129.609 120.423C130.324 120.472 131.061 120.545 131.818 120.641C131.895 120.651 131.939 120.694 131.95 120.771C132.119 121.891 132.198 123.144 132.188 124.53C132.173 126.831 132.178 129.03 132.203 131.124C132.208 131.537 132.252 132.005 132.337 132.527C132.411 132.989 132.439 133.455 132.421 133.926C132.412 134.115 132.387 134.228 132.345 134.263C132.313 134.291 132.276 134.311 132.235 134.322C132.195 134.333 132.153 134.336 132.111 134.329C132.07 134.322 132.031 134.307 131.996 134.283C131.962 134.259 131.933 134.228 131.911 134.192C131.366 133.283 130.782 132.428 130.16 131.629C129.486 130.763 128.76 130.036 127.983 129.447C127.151 128.815 126.228 128.295 125.216 127.887ZM7.57175 122.064C9.00673 123.041 10.5152 123.996 11.9404 125.041C12.6146 125.536 13.3207 126.009 14.0586 126.459C14.0693 126.466 14.0782 126.475 14.0845 126.486C14.0907 126.497 14.0941 126.51 14.0944 126.522C14.0946 126.535 14.0917 126.547 14.0859 126.559C14.08 126.57 14.0715 126.579 14.061 126.587C11.884 128.012 9.65811 127.468 7.71378 126.004C7.25586 125.658 7.01833 125.186 6.66815 124.747C6.44286 124.465 6.24043 124.147 6.06085 123.792C5.60048 122.882 5.2054 121.926 4.87563 120.927C4.69443 120.384 4.84544 120.267 5.32866 120.577C6.06494 121.052 6.81262 121.548 7.57175 122.064ZM74.7199 139.55C74.4676 139.925 74.2987 140.329 74.0195 140.696C73.8301 140.941 73.693 140.915 73.6081 140.618C72.8759 138.062 72.0899 135.405 71.6197 132.779C71.2116 130.502 70.7994 128.146 70.3831 125.712C70.2769 125.089 70.2941 124.519 70.4345 124.003C70.7822 122.727 71.7372 121.3 73.2237 121.302C75.23 121.307 77.216 121.318 79.1815 121.336C80.4892 121.349 81.7454 121.552 83.0825 121.611C83.1484 121.613 83.2116 121.638 83.2621 121.68C83.3126 121.722 83.3476 121.779 83.3616 121.843L85.1003 129.459C85.1264 129.567 85.0905 129.647 84.9925 129.699C83.9918 130.233 83.0792 130.78 82.2548 131.34C79.2721 133.36 76.8968 136.313 74.7199 139.55ZM133.508 135.995C133.405 135.874 133.368 135.737 133.398 135.583C133.902 132.924 134.486 130.266 135.149 127.61C135.299 127.003 135.569 126.573 135.959 126.322C136.647 125.876 137.436 125.563 138.146 125.103C140.029 123.883 141.469 123.183 143.418 122.781C143.65 122.732 143.695 122.803 143.553 122.994C143.347 123.267 143.11 123.519 142.843 123.751C141.617 124.818 140.434 125.84 139.294 126.814C138.498 127.498 137.746 128.328 137.039 129.302C135.615 131.264 134.522 133.501 133.76 136.012C133.711 136.17 133.639 136.181 133.545 136.044C133.533 136.027 133.521 136.011 133.508 135.995ZM62.902 123.863C62.9885 123.9 63.0844 123.912 63.1787 123.898C65.3116 123.548 68.2281 123.528 69.6362 125.558C69.8941 125.929 70.0606 126.302 70.1357 126.677C70.3937 127.998 70.659 129.516 70.9316 131.232C71.3332 133.752 71.885 136.182 72.587 138.522C72.8465 139.387 73.1037 140.266 73.3583 141.159C73.3885 141.265 73.3969 141.376 73.383 141.486C73.3691 141.595 73.3332 141.701 73.2775 141.796C71.9797 144.029 70.7136 146.236 69.5676 148.55C68.6975 150.308 67.8314 152.047 66.9695 153.766C66.8291 154.045 66.6038 154.165 66.2936 154.126C65.2798 153.993 64.2611 153.775 63.2375 153.469C62.7445 153.322 62.3519 153.133 62.0596 152.901C61.7593 152.663 61.4197 152.51 61.041 152.443C60.7014 152.383 60.3749 152.323 60.0614 152.264C59.5603 152.168 59.0068 151.878 58.4012 151.395C57.6004 150.756 56.7115 150.181 56.1679 149.274C56.0487 149.077 56.0324 148.819 56.1189 148.501C56.2348 148.075 56.3589 147.637 56.4911 147.188C56.6348 146.703 56.7548 146.231 56.8511 145.773C57.5784 142.281 58.22 138.83 59.1578 135.365C59.6754 133.45 60.1537 131.527 60.5928 129.594C60.8067 128.66 61.0434 127.675 61.303 126.64C61.5511 125.654 61.778 124.667 61.9837 123.68C62.0099 123.554 62.0817 123.517 62.1992 123.567L62.902 123.863ZM38.3628 124.831C37.5857 125.352 36.8135 125.921 36.0462 126.54C35.7279 126.796 35.4218 127.115 35.1279 127.495C34.7394 127.996 34.3557 128.488 33.977 128.972C32.662 130.644 30.6932 131.144 28.7611 131.741C28.4346 131.842 28.2142 131.731 28.0999 131.408C27.6542 130.135 27.2894 128.59 27.8697 127.387C28.3627 126.364 29.1023 125.653 30.0883 125.254C32.4783 124.292 34.9981 124.471 37.5008 124.495C37.8012 124.499 38.0877 124.581 38.3603 124.743C38.368 124.747 38.3745 124.753 38.3791 124.761C38.3837 124.768 38.3862 124.777 38.3865 124.786C38.3867 124.795 38.3847 124.804 38.3805 124.811C38.3764 124.819 38.3702 124.826 38.3628 124.831ZM143.9 127.992C143.465 127.548 143.004 127.398 142.519 127.542C141.132 127.951 139.831 128.66 138.616 129.667C138.065 130.125 137.553 130.767 137.005 131.276C136.908 131.364 136.877 131.345 136.912 131.22C136.969 131.012 137.068 130.811 137.21 130.617C137.63 130.044 138.076 129.466 138.547 128.883C138.954 128.379 139.424 128.063 139.894 127.649C140.768 126.883 142.02 126.469 143.132 126.224C144.978 125.821 146.705 125.43 148.313 125.051C148.545 124.996 148.596 125.069 148.467 125.272C147.636 126.576 146.795 127.79 145.943 128.915C145.644 129.31 145.24 129.682 144.775 129.782C144.068 129.932 143.297 130.05 142.463 130.135C142.205 130.159 142.167 130.079 142.348 129.895L143.9 128.318C143.943 128.274 143.966 128.215 143.966 128.154C143.966 128.093 143.943 128.035 143.9 127.992ZM38.6028 125.208C38.6501 125.18 38.6991 125.176 38.7497 125.196C38.7619 125.2 38.7729 125.208 38.7822 125.217C38.7915 125.226 38.7987 125.237 38.8036 125.249C38.8084 125.261 38.8107 125.275 38.8102 125.288C38.8098 125.301 38.8067 125.314 38.8011 125.325C38.3358 126.292 37.8877 127.297 37.4567 128.342C37.2167 128.927 36.9253 129.488 36.5825 130.027C35.7842 131.278 34.9981 132.358 33.8374 133.22C33.1207 133.751 32.3126 133.966 31.4131 133.864C30.9511 133.812 30.5161 133.648 30.1079 133.372C29.6541 133.065 29.2223 132.76 28.8125 132.456C28.504 132.226 28.5399 132.085 28.9202 132.033C30.1561 131.863 31.4205 131.393 32.7134 130.622C33.0987 130.394 33.4521 130.096 33.7737 129.731C34.3827 129.04 35.0291 128.262 35.7132 127.397C36.0821 126.93 36.5009 126.545 36.9694 126.241C37.5947 125.833 38.1391 125.489 38.6028 125.208ZM129.813 133.365C127.934 132.339 126.157 131.734 123.833 131.393C122.212 131.155 120.583 130.988 118.947 130.891C115.805 130.707 112.744 130.617 109.764 130.622C109.52 130.622 109.275 130.589 109.032 130.524C108.959 130.505 108.907 130.46 108.875 130.389C108.373 129.27 107.958 128.062 107.632 126.768C107.625 126.741 107.626 126.712 107.633 126.685C107.641 126.658 107.655 126.634 107.675 126.615C107.695 126.595 107.72 126.582 107.746 126.575C107.773 126.568 107.801 126.569 107.827 126.577C107.891 126.595 107.952 126.606 108.011 126.611C110.959 126.849 113.937 127.084 116.944 127.314C121.171 127.635 125.846 128.188 128.838 131.56C129.498 132.303 130.066 133.053 130.545 133.81C130.705 134.063 130.67 134.094 130.442 133.901C130.217 133.715 130.089 133.514 129.813 133.365ZM139.833 130.901C138.878 131.589 137.908 132.273 136.995 133.005C136.907 133.077 136.875 133.057 136.899 132.946C136.945 132.747 137.032 132.574 137.159 132.427C137.759 131.739 138.298 130.945 138.981 130.314C139.889 129.481 141.008 128.795 142.338 128.257C142.728 128.098 142.781 128.174 142.495 128.484C141.687 129.363 140.817 130.191 139.833 130.901ZM136.831 134.3C138.79 132.39 140.977 131.166 143.563 130.771C144.201 130.674 144.832 130.591 145.455 130.524C146.077 130.457 146.672 130.452 147.238 130.509C149.033 130.693 150.468 130.833 152.114 131.798C152.163 131.827 152.193 131.869 152.204 131.925C152.208 131.942 152.208 131.96 152.204 131.978C152.2 131.995 152.192 132.011 152.181 132.025C152.17 132.039 152.156 132.05 152.14 132.058C152.124 132.066 152.107 132.069 152.089 132.069C150.125 132.077 148.139 132.08 146.131 132.077C145.691 132.077 145.25 132.107 144.809 132.167C144.334 132.231 143.849 132.294 143.354 132.356C142.071 132.514 140.728 132.857 139.326 133.384C138.457 133.71 137.641 134.241 136.872 134.748C136.685 134.871 136.614 134.823 136.659 134.604C136.684 134.488 136.741 134.387 136.831 134.3ZM122.821 132.219C125.135 132.473 127.403 133.093 129.396 134.256C129.595 134.371 129.805 134.437 129.928 134.648C129.935 134.661 129.939 134.676 129.939 134.691C129.94 134.706 129.936 134.721 129.929 134.734C129.923 134.748 129.913 134.76 129.901 134.768C129.888 134.777 129.874 134.783 129.859 134.785C128.911 134.895 128.081 134.548 127.158 134.528C126.521 134.516 125.941 134.344 125.309 134.308C124.714 134.271 124.156 134.259 123.568 134.161C122.791 134.032 121.994 133.966 121.178 133.962C120.818 133.962 120.502 133.862 120.137 133.842C117.827 133.723 115.522 133.583 113.222 133.424C112.001 133.34 110.921 133.298 109.982 133.296C109.272 133.294 108.618 133.13 107.935 133.027C107.826 133.01 107.731 132.964 107.651 132.887C107.218 132.469 106.783 132.089 106.343 131.746C106.063 131.526 106.099 131.446 106.451 131.506C106.577 131.527 106.694 131.522 106.804 131.489C107.734 131.207 108.557 131.565 109.49 131.56C114.167 131.537 118.611 131.757 122.821 132.219ZM151.658 132.875C150.752 133.211 149.785 133.459 148.756 133.617C146.097 134.027 143.461 134.476 140.849 134.964C139.453 135.226 138.077 135.679 136.669 135.968C136.295 136.045 136.255 135.961 136.549 135.718C137.24 135.142 137.886 134.692 138.489 134.369C139.396 133.881 140.595 133.469 142.083 133.135C145.049 132.468 148.416 132.547 151.609 132.591C152.135 132.597 152.151 132.692 151.658 132.875ZM154.029 132.806C154.04 132.801 154.053 132.8 154.065 132.801C154.078 132.803 154.089 132.809 154.099 132.817C154.108 132.825 154.115 132.836 154.119 132.848C154.123 132.86 154.123 132.873 154.119 132.885C153.933 133.455 153.972 134.05 153.838 134.628C153.573 135.774 153.365 137.003 153.213 138.314C153.169 138.686 152.919 138.975 152.589 139.139C150.282 140.285 148.193 141.385 146.038 142.971C142.776 145.373 139.909 147.68 137.436 149.892C137.181 150.122 136.908 150.305 136.618 150.443C136.518 150.49 136.472 150.459 136.481 150.35C136.732 147.001 137.03 143.622 137.374 140.212C137.472 139.247 137.81 138.48 136.951 137.709C136.76 137.537 136.582 137.348 136.417 137.141C136.4 137.12 136.389 137.095 136.383 137.069C136.378 137.043 136.379 137.016 136.387 136.99C136.394 136.964 136.408 136.941 136.426 136.921C136.445 136.902 136.468 136.887 136.493 136.879C138.736 136.09 141.226 135.689 144.388 135.218C145.953 134.985 147.708 134.685 149.65 134.317C151.217 134.023 152.618 133.472 154.029 132.806ZM129.84 135.512C130.106 135.561 130.491 135.706 130.689 135.907C130.71 135.928 130.724 135.955 130.731 135.984C130.738 136.013 130.737 136.044 130.729 136.072C130.72 136.101 130.704 136.127 130.682 136.147C130.66 136.168 130.633 136.182 130.604 136.188C129.234 136.482 127.958 136.593 126.776 136.521C122.132 136.236 117.07 135.84 111.591 135.334C111.092 135.286 110.595 135.243 110.1 135.204C110.018 135.197 109.945 135.169 109.88 135.121C109.462 134.799 109.081 134.408 108.738 133.948C108.71 133.91 108.694 133.865 108.691 133.818C108.689 133.771 108.701 133.724 108.725 133.684C108.749 133.643 108.784 133.611 108.827 133.591C108.87 133.571 108.917 133.563 108.964 133.57C109.321 133.624 109.603 133.803 109.977 133.793C110.897 133.764 111.802 133.793 112.693 133.881C113.524 133.966 114.432 134.034 115.416 134.085C117.276 134.181 119.067 134.285 120.791 134.396C121.151 134.42 121.484 134.521 121.842 134.54C124.527 134.7 127.193 135.024 129.84 135.512ZM130.966 137.488C130.99 137.844 131.128 138.262 131.466 138.439C131.542 138.478 131.589 138.541 131.605 138.627C131.674 139.003 131.689 139.395 131.652 139.805C131.495 141.436 131.324 143.151 131.137 144.95C130.934 146.931 130.817 149.025 130.657 151.043C130.656 151.057 130.651 151.072 130.643 151.084C130.634 151.096 130.623 151.106 130.609 151.112C130.596 151.118 130.581 151.121 130.566 151.119C130.551 151.118 130.537 151.113 130.525 151.104C128.078 149.306 125.62 147.578 123.152 145.92C119.934 143.757 116.871 141.453 113.788 139.156C112.975 138.55 112.16 137.87 111.344 137.114C111.177 136.96 111.032 136.782 110.908 136.58C110.884 136.541 110.872 136.497 110.874 136.451C110.875 136.406 110.89 136.362 110.917 136.325C110.943 136.288 110.98 136.26 111.022 136.244C111.065 136.228 111.111 136.225 111.155 136.235C111.702 136.357 112.217 136.442 112.7 136.489C117.436 136.951 121.926 137.352 126.169 137.692C127.581 137.806 129.118 137.691 130.78 137.346C130.894 137.324 130.956 137.371 130.966 137.488ZM136.272 138.867C136.356 138.833 136.442 138.815 136.532 138.813C136.635 138.812 136.703 138.859 136.735 138.955C136.921 139.492 136.679 139.893 136.603 140.412C136.213 143.064 135.943 145.725 135.793 148.398C135.741 149.294 135.562 150.144 135.589 151.06C135.592 151.146 135.577 151.232 135.545 151.313C135.513 151.393 135.465 151.466 135.403 151.527L133.89 153.036C133.816 153.109 133.718 153.154 133.615 153.163C133.511 153.171 133.408 153.143 133.324 153.082L131.551 151.824C131.503 151.789 131.465 151.743 131.441 151.69C131.417 151.637 131.406 151.578 131.412 151.52L132.504 139.019C132.519 138.859 132.606 138.77 132.766 138.752C133.976 138.623 135.047 138.67 135.981 138.892C136.081 138.915 136.178 138.906 136.272 138.867ZM13.6545 175.971L13.3631 176.936C13.3337 177.034 13.2701 177.095 13.1721 177.12C13.0219 177.159 12.8562 177.16 12.675 177.125C12.5869 177.108 12.5281 177.058 12.4987 176.973C12.4122 176.726 12.2987 176.339 12.1583 175.812C11.5641 173.582 10.9829 171.191 10.4148 168.639C9.5822 164.891 8.9398 161.223 8.48759 157.635C8.29413 156.094 8.24271 154.5 8.06151 152.921C7.96844 152.127 8.00763 151.402 8.02966 150.626C8.03011 150.606 8.03517 150.586 8.04445 150.568C8.05373 150.55 8.067 150.534 8.08327 150.522C8.09953 150.509 8.11836 150.501 8.13834 150.497C8.15833 150.493 8.17894 150.494 8.19864 150.499C8.69655 150.634 9.24672 150.702 9.84911 150.702C14.4545 150.701 18.7366 150.697 22.6954 150.692C25.3793 150.69 27.9138 150.869 30.5928 151.219C30.6326 151.224 30.6696 151.243 30.6986 151.271C30.7276 151.299 30.7471 151.336 30.7544 151.376C30.7936 151.619 30.8148 151.863 30.8181 152.108C30.8523 154.416 30.7226 156.826 30.4287 159.337C30.0173 162.879 29.6035 166.422 29.1872 169.964C29.1398 170.369 29.0753 170.768 28.9937 171.162C28.7953 172.119 28.695 173.187 28.1636 173.97C27.02 175.66 24.843 176.204 22.9966 176.691C22.6416 176.784 22.3575 177.09 21.9877 177.014C21.7951 176.974 21.5886 176.974 21.3682 177.014C18.9015 177.471 16.46 177.498 14.0439 177.095C13.9247 177.074 13.87 177.003 13.8798 176.882C13.9076 176.572 13.91 176.276 13.8872 175.996C13.8529 175.576 13.7753 175.568 13.6545 175.971ZM60.5833 156.289C60.4982 156.279 60.4361 156.105 60.4108 155.805C60.3854 155.506 60.3989 155.105 60.4482 154.692C60.4726 154.487 60.5051 154.286 60.5437 154.099C60.5824 153.911 60.6266 153.742 60.6736 153.601C60.7207 153.46 60.7697 153.349 60.818 153.276C60.8663 153.202 60.9129 153.167 60.955 153.172C61.0401 153.182 61.1022 153.356 61.1275 153.655C61.1528 153.955 61.1394 154.355 61.0901 154.769C61.0657 154.973 61.0332 155.175 60.9945 155.362C60.9559 155.549 60.9117 155.718 60.8647 155.86C60.8176 156.001 60.7685 156.111 60.7202 156.185C60.672 156.259 60.6254 156.294 60.5833 156.289ZM137.512 155.215C139.025 156.104 140.8 157.284 142.113 158.484C142.143 158.513 142.167 158.548 142.182 158.587C142.198 158.626 142.204 158.668 142.201 158.71C142.175 158.999 141.933 159.013 141.476 158.754C141.329 158.671 141.19 158.587 141.057 158.504C139.588 157.593 138.214 156.622 136.936 155.59C136.9 155.561 136.872 155.524 136.853 155.481C136.835 155.439 136.827 155.392 136.831 155.345C136.847 155.157 136.923 155.069 137.059 155.081C137.232 155.095 137.383 155.14 137.512 155.215ZM184.325 167.577C185.161 167.431 185.16 167.29 184.323 167.153C184.017 167.102 183.681 167.092 183.314 167.121C183.284 167.124 183.255 167.12 183.227 167.11C183.199 167.101 183.173 167.085 183.152 167.065C183.13 167.045 183.113 167.021 183.101 166.994C183.089 166.967 183.083 166.938 183.083 166.908L183.105 163.125C183.106 163.099 183.111 163.073 183.122 163.05C183.132 163.026 183.147 163.005 183.166 162.987C183.184 162.969 183.206 162.955 183.231 162.946C183.255 162.937 183.28 162.933 183.306 162.934C184.217 162.971 185.143 162.99 186.083 162.99C186.526 162.99 187.417 163.104 188.757 163.331C188.999 163.371 189.338 163.308 189.774 163.142C190.342 162.926 190.956 162.924 191.549 162.963C191.585 162.966 191.62 162.982 191.645 163.009C191.67 163.036 191.684 163.071 191.684 163.108L191.662 169.501C191.66 169.699 191.56 169.799 191.363 169.8L183.473 169.825C183.21 169.826 183.081 169.696 183.086 169.433L183.113 167.9C183.116 167.676 183.23 167.576 183.453 167.599C183.767 167.63 184.057 167.622 184.325 167.577ZM113.749 168.892C113.94 168.595 114.197 168.37 114.52 168.218C116.983 167.054 119.439 165.733 121.886 164.254C121.929 164.228 121.977 164.211 122.027 164.205C122.077 164.199 122.128 164.204 122.176 164.219C122.224 164.234 122.268 164.26 122.306 164.294C122.343 164.328 122.373 164.369 122.393 164.415C122.65 165.01 123.076 165.517 123.363 166.115C124.006 167.444 124.457 168.914 124.717 170.525C124.896 171.643 125.026 172.842 125.106 174.12C125.114 174.254 125.08 174.388 125.007 174.501C124.934 174.614 124.828 174.701 124.702 174.749C123.886 175.061 123.135 175.37 122.449 175.677C120.433 176.578 118.249 177.547 115.896 178.584C114.807 179.064 113.824 179.589 112.948 180.159C112.621 180.369 112.292 180.49 111.959 180.521C108.457 180.841 105.214 180.354 102.229 179.059C98.7449 177.548 96.039 174.468 96.3794 170.53C96.6585 167.31 99.5824 166.115 102.425 166.499C104.655 166.801 106.943 167.308 109.287 168.02C110.48 168.381 111.678 168.695 112.879 168.963C113.098 169.012 113.316 169.03 113.533 169.017C113.576 169.014 113.618 169.002 113.656 168.98C113.693 168.958 113.725 168.928 113.749 168.892ZM148.531 170.848C148.569 170.888 148.617 170.918 148.669 170.934C148.722 170.95 148.777 170.952 148.83 170.939C150.218 170.606 151.604 170.327 152.988 170.104C153.355 170.045 153.725 170.04 154.097 170.089C154.451 170.135 154.791 170.105 155.116 170.001C157.143 169.351 159.322 168.905 161.652 168.662C163.956 168.422 166.204 168.439 168.107 169.879C169 170.554 169.424 171.754 169.574 172.837C169.686 173.64 169.461 174.455 169.38 175.254C169.16 177.391 167.436 179.228 165.606 180.176C164.931 180.525 164.069 180.649 163.023 180.548C161.226 180.377 159.504 180.124 157.699 180.176C155.892 180.225 154.015 180.304 152.067 180.413C151.166 180.462 150.334 180.544 149.572 180.658C149.036 180.738 148.54 180.711 148.083 180.577C147.474 180.399 146.883 180.178 146.31 179.914C143.03 178.402 139.924 176.567 136.99 174.409C136.552 174.087 136.168 173.719 135.837 173.304C135.821 173.284 135.81 173.26 135.806 173.235C135.802 173.209 135.804 173.183 135.813 173.159C135.821 173.134 135.836 173.112 135.855 173.095C135.874 173.078 135.897 173.066 135.922 173.06L147.718 170.288C147.846 170.257 147.981 170.272 148.1 170.33C148.219 170.388 148.314 170.486 148.369 170.606C148.41 170.696 148.464 170.776 148.531 170.848ZM172.434 172.501C172.639 171.999 172.926 171.252 173.577 171.255C181.27 171.284 189.076 171.288 196.997 171.267C197.249 171.267 197.35 171.39 197.301 171.637C197.257 171.855 197.164 172.031 197.142 172.266C196.998 173.84 197.113 175.29 197.485 176.618C197.54 176.815 197.465 176.914 197.259 176.914C188.927 176.899 181.061 176.898 173.661 176.909C173.285 176.909 172.99 176.749 172.777 176.429C171.975 175.224 171.861 173.915 172.434 172.501ZM0.793518 177.445L1.66528 177.46C1.69141 177.46 1.71671 177.465 1.7412 177.475C1.80159 177.499 1.82364 177.534 1.80731 177.58C1.78609 177.637 1.74446 177.665 1.68242 177.663L0.791061 177.641C0.764938 177.641 0.749435 177.628 0.744537 177.602L0.7323 177.514C0.725769 177.467 0.74617 177.444 0.793518 177.445Z" fill="#464BAA"/>
<path d="M131.782 48.0546C130.763 46.8963 128.775 46.5045 127.342 46.2229C126.816 46.1201 126.403 46.3045 126.101 46.7763C126.053 46.8514 126.024 46.9355 126.012 47.0286C125.942 47.6571 126.213 48.0522 126.825 48.2138C128.056 48.5387 129.326 48.9035 130.633 49.3084C131.574 49.5998 131.598 48.8505 131.818 48.2628C131.848 48.186 131.836 48.1166 131.782 48.0546Z" fill="#464BAA"/>
<path d="M111.672 48.2061C111.471 48.6452 111.506 49.0321 111.775 49.3668C111.85 49.4607 111.949 49.5331 112.061 49.577C112.172 49.6208 112.293 49.6345 112.412 49.6166C114.183 49.3456 115.95 48.9668 117.713 48.4803C118.21 48.3432 118.43 48.0192 118.374 47.5082C118.365 47.42 118.342 47.3359 118.306 47.256C118.1 46.7988 117.748 46.598 117.25 46.6535C115.739 46.8201 114.06 47.1792 112.216 47.731C112.096 47.7673 111.986 47.8284 111.892 47.9103C111.799 47.9922 111.724 48.093 111.672 48.2061Z" fill="#464BAA"/>
<path d="M94.5108 49.723C95.4316 50.0658 96.2764 50.6903 96.5237 51.6575C96.6217 52.0428 96.7506 52.4281 96.9106 52.8134C96.9201 52.8357 96.934 52.8559 96.9515 52.8729C96.9689 52.8898 96.9897 52.9031 97.0124 52.912C97.0352 52.9208 97.0596 52.9251 97.0841 52.9246C97.1087 52.9241 97.1329 52.9187 97.1555 52.9089C97.2698 52.8583 97.3155 52.7677 97.2926 52.6371C96.9988 50.9449 96.3376 49.3802 94.3982 49.3165C94.3734 49.3156 94.3489 49.3214 94.3272 49.3332C94.3054 49.3451 94.2873 49.3627 94.2748 49.384C94.2622 49.4054 94.2557 49.4297 94.2558 49.4545C94.256 49.4792 94.2629 49.5035 94.2757 49.5247C94.3296 49.6177 94.408 49.6838 94.5108 49.723Z" fill="#464BAA"/>
<path d="M123.122 60.9597C123.126 61.0167 123.114 61.0738 123.087 61.1251C123.061 61.1764 123.02 61.22 122.971 61.2511C122.567 61.5009 122.191 61.7548 121.842 62.0127C121.69 62.1237 121.608 62.2666 121.597 62.4413C121.593 62.4969 121.602 62.5526 121.624 62.6041C121.645 62.6556 121.678 62.7015 121.72 62.7382C121.762 62.7749 121.812 62.8015 121.867 62.8158C121.921 62.8301 121.978 62.8318 122.033 62.8208C122.978 62.6298 123.779 62.1392 124.437 61.3491C124.491 61.2854 124.504 61.2136 124.477 61.1336C124.366 60.8251 124.226 60.5434 124.058 60.2888C123.024 58.7338 122.393 56.9829 121.874 55.2222C121.845 55.127 121.785 55.0443 121.703 54.9877C121.621 54.9312 121.522 54.9042 121.423 54.9112L121.298 54.921C120.945 54.9472 120.815 55.1316 120.906 55.4745C121.406 57.3633 122.125 59.0938 123.064 60.6659C123.088 60.71 123.104 60.7589 123.11 60.8128C123.115 60.8618 123.119 60.9108 123.122 60.9597Z" fill="#464BAA"/>
<path d="M112.647 57.1608C111.778 57.0776 110.798 56.4189 110.34 55.6548C110.169 55.3692 109.949 55.3259 109.681 55.5251L109.628 55.5642C109.34 55.7781 109.299 56.0311 109.503 56.3234C110.618 57.9379 112.11 58.5493 113.979 58.1575C114.983 57.9469 116.367 57.6482 116.996 56.747C117.037 56.6882 117.038 56.6287 117.001 56.5682C116.567 55.8679 115.735 56.3038 115.179 56.5756C114.474 56.9258 113.401 57.2319 112.647 57.1608Z" fill="#464BAA"/>
<path d="M130.119 56.0977C130.166 56.0338 130.19 55.9561 130.188 55.8769C130.187 55.7976 130.159 55.7211 130.109 55.6594C129.94 55.4463 129.654 55.4708 129.431 55.5688C128.373 56.0365 127.046 56.5164 125.929 56.2422C125.428 56.1197 124.907 56.0144 124.367 55.9263C124.329 55.9203 124.29 55.9226 124.253 55.9329C124.216 55.9433 124.182 55.9616 124.152 55.9865C124.123 56.0114 124.099 56.0423 124.083 56.0771C124.067 56.1119 124.058 56.1499 124.058 56.1883C124.056 56.4773 124.102 56.8127 124.389 56.9548C125.895 57.7041 129.046 57.5572 130.119 56.0977Z" fill="#464BAA"/>
<path d="M100.231 77.4931C100.77 78.5232 101.481 79.3044 102.366 79.8366C102.394 79.8536 102.427 79.8627 102.46 79.8627C102.493 79.8627 102.526 79.8536 102.555 79.8366C102.779 79.706 102.839 79.5419 102.736 79.3444C102.682 79.2367 102.605 79.1346 102.506 79.0383C101.794 78.3543 101.119 77.5135 100.481 76.5161C100.465 76.4918 100.443 76.4717 100.418 76.4574C100.393 76.443 100.365 76.4349 100.336 76.4337C100.307 76.4325 100.279 76.4383 100.253 76.4505C100.227 76.4627 100.204 76.481 100.187 76.5038C100.161 76.5381 100.142 76.5765 100.131 76.6189C100.049 76.9017 100.085 77.2151 100.231 77.4931Z" fill="#464BAA"/>
<path d="M13.3703 161.917C14.0584 161.948 14.6877 162.113 15.3734 162.166C17.2181 162.31 19.0311 162.45 20.8121 162.585C22.0757 162.68 23.0952 162.735 23.8707 162.752C24.6567 162.769 25.3448 162.999 26.1358 162.837C26.1545 162.833 26.1719 162.825 26.1862 162.812C26.2005 162.799 26.2112 162.783 26.2172 162.765C26.2232 162.747 26.2243 162.728 26.2203 162.71C26.2163 162.692 26.2074 162.675 26.1946 162.661C26.1048 162.562 25.984 162.509 25.8322 162.504C23.3001 162.413 20.5975 162.215 17.7242 161.909C16.4362 161.775 15.2044 161.686 13.887 161.694C13.358 161.697 13.0046 161.518 12.8267 161.158C12.7712 161.043 12.7222 161.047 12.6797 161.167L12.5793 161.447C12.5649 161.49 12.5403 161.529 12.5075 161.561C12.4747 161.593 12.4347 161.617 12.3908 161.63C12.2847 161.661 12.1941 161.712 12.119 161.782C12.0079 161.888 12.0284 161.931 12.1802 161.912C12.3043 161.895 12.4177 161.909 12.5206 161.951C12.5989 161.984 12.6389 162.042 12.6406 162.127C12.6471 162.708 12.7377 163.29 12.9124 163.871C12.9237 163.908 12.9262 163.947 12.9196 163.986C12.9131 164.024 12.8978 164.06 12.8748 164.092C12.8518 164.123 12.8218 164.149 12.7871 164.167C12.7524 164.185 12.714 164.195 12.6748 164.196L12.043 164.211C12.0153 164.213 12.0022 164.227 12.0039 164.253L12.0112 164.326C12.0122 164.337 12.0151 164.347 12.0198 164.356C12.0245 164.365 12.0309 164.373 12.0386 164.38C12.0464 164.386 12.0553 164.391 12.0649 164.394C12.0745 164.397 12.0845 164.398 12.0945 164.397C12.6234 164.355 12.936 164.584 13.0324 165.085C13.2544 166.259 13.4895 167.398 13.7376 168.501C13.7605 168.603 13.8225 168.643 13.9237 168.624L13.9898 168.612C14.0191 168.606 14.0452 168.59 14.0625 168.566C14.0799 168.541 14.0872 168.511 14.0829 168.482L13.4413 164.654C13.4347 164.616 13.4388 164.576 13.453 164.54C13.4672 164.503 13.4911 164.471 13.522 164.448C13.553 164.424 13.5898 164.409 13.6287 164.404C13.6675 164.4 13.7069 164.406 13.7425 164.422C14.0674 164.567 14.4102 164.636 14.771 164.63C16.0868 164.605 17.3545 164.658 18.574 164.787C19.8008 164.919 21.0325 164.889 22.2569 165.029C23.447 165.165 24.6665 165.178 25.9154 165.068C25.9954 165.06 26.0223 165.018 25.9962 164.943L25.9693 164.86C25.953 164.813 25.9225 164.772 25.8821 164.743C25.8417 164.714 25.7935 164.698 25.744 164.698C24.6551 164.685 23.6413 164.668 22.7026 164.647C21.8194 164.627 20.8366 164.564 19.7543 164.456C17.7071 164.25 15.6689 164.152 13.6397 164.162C13.5427 164.163 13.4483 164.13 13.3721 164.07C13.296 164.009 13.2426 163.924 13.2209 163.829C13.1083 163.341 13.1058 162.747 13.2136 162.046C13.2283 161.957 13.2805 161.913 13.3703 161.917Z" fill="#464BAA"/>
<path d="M184.771 165.89L187.077 165.894C187.202 165.894 187.303 165.995 187.302 166.12L187.302 166.139C187.302 166.264 187.201 166.365 187.077 166.364L184.77 166.36C184.645 166.36 184.545 166.259 184.545 166.135L184.545 166.115C184.545 165.991 184.646 165.89 184.771 165.89Z" fill="#464BAA"/>
<path d="M20.8419 166.691C19.8109 166.589 18.7016 166.704 17.6756 166.5C17.3295 166.43 16.9752 166.419 16.6128 166.466C16.6014 166.468 16.5916 166.473 16.5834 166.481C16.5671 166.497 16.5696 166.518 16.5908 166.544C16.5973 166.553 16.6063 166.558 16.6177 166.559C18.3808 166.749 20.166 166.926 21.9732 167.093C22.827 167.173 24.0963 167.171 25.7811 167.088C25.8708 167.083 25.8839 167.05 25.8202 166.988C25.719 166.888 25.6039 166.838 25.475 166.838C24.6571 166.833 23.8318 166.827 22.9992 166.819C22.343 166.812 21.6238 166.77 20.8419 166.691Z" fill="#464BAA"/>
</g>
</g>
<defs>
<clipPath id="clip0_3383_27518">
<rect x="-443" y="-477" width="1512" height="900" rx="8" fill="white"/>
</clipPath>
<clipPath id="clip1_3383_27518">
<path d="M-115 -381C-115 -389.837 -107.837 -397 -99 -397H725C733.837 -397 741 -389.837 741 -381V327C741 335.837 733.837 343 725 343H-99C-107.837 343 -115 335.837 -115 327V-381Z" fill="white"/>
</clipPath>
</defs>
</svg>
