<svg width="48" height="48" viewBox="0 0 48 48" fill="none" xmlns="http://www.w3.org/2000/svg">
<path d="M32.1611 11.3689L31.2439 8.44704C31.0621 8.01321 30.5791 7.82934 30.1843 8.052C28.9389 8.75158 26.1902 9.94531 25.1863 10.3145C27.1114 11.0399 29.9334 12.4736 31.3063 12.3199C31.8273 12.2624 32.3741 11.8774 32.1611 11.3689ZM46.013 46.6697C45.4717 46.9929 37.1822 49.1002 20.7498 33.8761C15.7748 29.2664 1.00984 15.2661 1.20113 14.7892C1.20113 14.7892 0.754778 15.3064 0.384398 15.8465C0.117128 16.2358 -0.0483897 16.6495 0.0126619 17.0647C0.433239 19.8903 4.23472 22.5507 9.45802 26.8056L10.2028 27.4118L10.6953 27.8126C11.4931 28.4619 13.8374 30.4199 16.5685 32.7011C20.3035 35.8197 27.8074 42.024 28.0258 42.1964C30.902 44.4574 34.3141 46.243 38.4277 47.4712C43.6347 49.0241 46.013 46.6697 46.013 46.6697Z" fill="#8899A6"/>
<path d="M46.0129 46.6672C46.0129 46.6672 46.66 46.3526 47.3289 45.3485C47.9978 44.3444 48.4007 42.5846 47.39 40.6827C46.3792 38.7822 42.7012 33.3263 41.4951 31.0998C40.9076 30.0152 41.0921 29.0211 39.9688 27.0273C39.9688 27.0273 35.6762 19.0934 34.7265 17.3696C32.6955 13.6821 33.5869 11.7643 32.2342 10.664C31.332 9.92992 22.3222 10.9024 19.5803 8.66867C17.685 7.12586 17.6565 2.30781 16.8628 0.73052C16.2306 -0.526425 14.1223 0.0481785 12.6747 0.888536C11.2271 1.72889 7.28451 6.33147 6.3321 7.643C5.3797 8.95453 4.16002 10.3853 4.0542 11.8491L3.94702 13.3115C3.94702 13.3115 25.4657 35.0746 31.5898 39.4645C42.0323 46.9502 46.0129 46.6672 46.0129 46.6672Z" fill="#BE1931"/>
<path d="M32.9464 11.7902C32.8067 11.3391 32.6086 10.9642 32.2341 10.6582C31.332 9.9242 22.3223 10.8981 19.5805 8.66298C17.6852 7.1202 17.6567 2.30083 16.8631 0.725016C16.6162 0.235178 16.1413 0.0283263 15.5715 0.00390625C16.5076 2.01497 16.414 8.01082 18.7082 9.87823C21.473 12.1321 29.5832 11.5058 32.9464 11.7902Z" fill="#A0041E"/>
<path d="M17.3779 22.439C18.0631 20.3245 18.7943 15.3787 17.4783 12.4383C16.2451 9.68455 11.4534 3.88406 10.543 2.78516C8.86077 4.37246 6.61277 7.14917 5.93443 8.08288C5.03903 9.31537 3.96048 10.7001 3.90757 12.1064C3.88858 12.6121 4.0256 12.839 4.0256 12.839C4.0256 12.839 17.3508 22.5223 17.3779 22.439Z" fill="#DD2E44"/>
<path d="M30.7312 17.2377C30.2767 17.2377 29.8494 16.9475 29.673 16.472C29.4437 15.8529 29.7313 15.1548 30.3161 14.9106L32.7893 13.8834C33.3727 13.6436 34.0361 13.9452 34.2641 14.5658C34.4933 15.1849 34.2057 15.8831 33.621 16.1273L31.1477 17.1544C31.0107 17.2104 30.871 17.2377 30.7312 17.2377ZM32.5587 21.6377C32.1639 21.6377 31.7813 21.4208 31.571 21.033C31.2576 20.4569 31.4448 19.72 31.9902 19.3882L34.4228 17.9071C34.9682 17.5753 35.6642 17.775 35.9762 18.351C36.2896 18.927 36.1024 19.664 35.557 19.9958L33.1244 21.4768C32.9453 21.586 32.7513 21.6377 32.5587 21.6377ZM35.0292 25.591C34.6819 25.591 34.3387 25.4229 34.1162 25.1055C33.7404 24.5725 33.8448 23.8183 34.3482 23.4204L36.4022 21.7986C36.9056 21.4007 37.6192 21.5099 37.9936 22.0443C38.3694 22.5786 38.265 23.3328 37.7616 23.7307L35.7076 25.3511C35.5041 25.5134 35.2653 25.591 35.0292 25.591ZM37.668 29.2843C37.3397 29.2843 37.0141 29.1349 36.7889 28.8433C36.39 28.329 36.4619 27.5691 36.9463 27.1467L38.5132 25.7849C38.9976 25.364 39.7166 25.4373 40.1155 25.9516C40.5144 26.4658 40.4425 27.2257 39.9581 27.6481L38.3911 29.0099C38.1781 29.1938 37.9217 29.2843 37.668 29.2843ZM3.72336 12.2157C3.72336 12.2157 4.63913 13.0948 5.65666 13.2586C6.67418 13.4223 8.47724 14.6233 9.71726 15.6331C10.9573 16.643 15.6854 20.3621 18.5819 23.4535C21.4785 26.5448 26.037 32.9057 27.8089 34.7487C29.5807 36.5903 32.4393 39.3355 34.8827 40.9932C37.3261 42.651 39.5701 44.0544 41.0096 44.8517C42.8655 45.8802 44.5804 46.4951 46.0131 46.6631C45.5138 46.9734 42.875 48.0221 38.2935 46.3687C33.914 44.7871 31.0595 43.0733 28.7002 41.2173C26.3409 39.3614 13.4943 28.5646 11.3901 26.8508C9.28583 25.1371 2.99481 20.059 2.0017 18.5377C0.590734 16.3772 0.658569 15.432 0.932623 15.0556C1.60012 14.1348 3.00973 11.6339 3.72336 12.2157Z" fill="#CCD6DD"/>
<path d="M47.3899 40.6818C46.3792 38.7813 42.7012 33.3256 41.4952 31.0991C41.2591 30.6624 41.1465 30.2386 41.0244 29.7617C40.9009 29.8106 40.768 29.8393 40.6595 29.9183C39.0939 31.056 39.102 34.4935 41.4341 38.0875C43.3036 40.9691 46.3046 43.1899 47.9895 43.2244C48.0248 42.4515 47.8702 41.5839 47.3899 40.6818Z" fill="#DD2E44"/>
</svg>
