<svg width="48" height="48" viewBox="0 0 48 48" fill="none" xmlns="http://www.w3.org/2000/svg">
<g id="emoji">
<g id="Shape">
<path fill-rule="evenodd" clip-rule="evenodd" d="M24 12C19.5817 12 16 15.5817 16 20C16 24.4183 19.5817 28 24 28C28.4183 28 32 24.4183 32 20C32 15.5817 28.4183 12 24 12ZM20 20C20 17.7909 21.7909 16 24 16C26.2091 16 28 17.7909 28 20C28 22.2091 26.2091 24 24 24C21.7909 24 20 22.2091 20 20Z" fill="#E69801"/>
<path fill-rule="evenodd" clip-rule="evenodd" d="M22.8895 47.6634C22.8901 47.6638 22.8906 47.6641 24 46L22.8895 47.6634C23.5613 48.1112 24.4376 48.112 25.1094 47.6641L24 46C25.1094 47.6641 25.1088 47.6645 25.1094 47.6641L25.1162 47.6596L25.1295 47.6506L25.1754 47.6196C25.2143 47.5932 25.2698 47.5552 25.3409 47.506C25.4829 47.4076 25.6871 47.2643 25.9444 47.0784C26.4589 46.7068 27.1873 46.1644 28.0584 45.4708C29.7973 44.0861 32.1212 42.0857 34.4519 39.6255C39.0315 34.7915 44 27.8039 44 20C44 14.6957 41.8929 9.60859 38.1421 5.85786C34.3914 2.10714 29.3043 0 24 0C18.6957 0 13.6086 2.10714 9.85786 5.85786C6.10714 9.60859 4 14.6957 4 20C4 27.8039 8.96853 34.7915 13.5481 39.6255C15.8788 42.0857 18.2027 44.0861 19.9416 45.4708C20.8127 46.1644 21.5411 46.7068 22.0556 47.0784C22.3129 47.2643 22.5171 47.4076 22.6591 47.506C22.7302 47.5552 22.7857 47.5932 22.8246 47.6196L22.8705 47.6506L22.8838 47.6596L22.8895 47.6634ZM12.6863 8.68629C15.6869 5.68571 19.7565 4 24 4C28.2435 4 32.3131 5.68571 35.3137 8.68629C38.3143 11.6869 40 15.7565 40 20C40 26.1961 35.9685 32.2085 31.5481 36.8745C29.3788 39.1643 27.2027 41.0389 25.5666 42.3417C24.9578 42.8265 24.426 43.2304 24 43.5452C23.574 43.2304 23.0422 42.8265 22.4334 42.3417C20.7973 41.0389 18.6212 39.1643 16.4519 36.8745C12.0315 32.2085 8 26.1961 8 20C8 15.7565 9.68571 11.6869 12.6863 8.68629Z" fill="#E69801"/>
</g>
</g>
</svg>
