<svg width="114" height="114" viewBox="0 0 114 114" fill="none" xmlns="http://www.w3.org/2000/svg">
<g filter="url(#filter0_d_4414_43565)">
<path d="M62 88C81.8823 88 98 71.8823 98 52C98 32.1177 81.8823 16 62 16C42.1177 16 26 32.1177 26 52C26 71.8823 42.1177 88 62 88Z" fill="#F0F0FA"/>
<path d="M47 40C50.866 40 54 36.866 54 33C54 29.134 50.866 26 47 26C43.134 26 40 29.134 40 33C40 36.866 43.134 40 47 40Z" fill="#ABAEE8"/>
<path d="M66 56C69.3137 56 72 53.3137 72 50C72 46.6863 69.3137 44 66 44C62.6863 44 60 46.6863 60 50C60 53.3137 62.6863 56 66 56Z" fill="#ABAEE8"/>
<path d="M75 80C78.866 80 82 76.866 82 73C82 69.134 78.866 66 75 66C71.134 66 68 69.134 68 73C68 76.866 71.134 80 75 80Z" fill="#ABAEE8"/>
<path d="M70 30C72.2091 30 74 28.2091 74 26C74 23.7909 72.2091 22 70 22C67.7909 22 66 23.7909 66 26C66 28.2091 67.7909 30 70 30Z" fill="#ABAEE8"/>
<path d="M32 54C33.1046 54 34 53.1046 34 52C34 50.8954 33.1046 50 32 50C30.8954 50 30 50.8954 30 52C30 53.1046 30.8954 54 32 54Z" fill="#ABAEE8"/>
<path d="M86 36C87.1046 36 88 35.1046 88 34C88 32.8954 87.1046 32 86 32C84.8954 32 84 32.8954 84 34C84 35.1046 84.8954 36 86 36Z" fill="#ABAEE8"/>
<path d="M56 80C57.1046 80 58 79.1046 58 78C58 76.8954 57.1046 76 56 76C54.8954 76 54 76.8954 54 78C54 79.1046 54.8954 80 56 80Z" fill="#ABAEE8"/>
<path d="M90 58C92.2091 58 94 56.2091 94 54C94 51.7909 92.2091 50 90 50C87.7909 50 86 51.7909 86 54C86 56.2091 87.7909 58 90 58Z" fill="#ABAEE8"/>
<path d="M46 66C48.2091 66 50 64.2091 50 62C50 59.7909 48.2091 58 46 58C43.7909 58 42 59.7909 42 62C42 64.2091 43.7909 66 46 66Z" fill="#ABAEE8"/>
</g>
<defs>
<filter id="filter0_d_4414_43565" x="0" y="-10" width="124" height="124" filterUnits="userSpaceOnUse" color-interpolation-filters="sRGB">
<feFlood flood-opacity="0" result="BackgroundImageFix"/>
<feColorMatrix in="SourceAlpha" type="matrix" values="0 0 0 0 0 0 0 0 0 0 0 0 0 0 0 0 0 0 127 0" result="hardAlpha"/>
<feMorphology radius="2" operator="dilate" in="SourceAlpha" result="effect1_dropShadow_4414_43565"/>
<feOffset/>
<feGaussianBlur stdDeviation="12"/>
<feComposite in2="hardAlpha" operator="out"/>
<feColorMatrix type="matrix" values="0 0 0 0 1 0 0 0 0 0.972549 0 0 0 0 0.92549 0 0 0 1 0"/>
<feBlend mode="normal" in2="BackgroundImageFix" result="effect1_dropShadow_4414_43565"/>
<feBlend mode="normal" in="SourceGraphic" in2="effect1_dropShadow_4414_43565" result="shape"/>
</filter>
</defs>
</svg>
