<svg width="48" height="48" viewBox="0 0 48 48" fill="none" xmlns="http://www.w3.org/2000/svg">
<path fill-rule="evenodd" clip-rule="evenodd" d="M43.2927 4.47398C43.7413 4.85398 44 5.41211 44 6.00002V32C44 36.4183 40.4183 40 36 40C31.5817 40 28 36.4183 28 32C28 27.5817 31.5817 24 36 24C37.4571 24 38.8233 24.3896 40 25.0703V8.36094L20 11.6943V36C20 40.4183 16.4183 44 12 44C7.58172 44 4 40.4183 4 36C4 31.5817 7.58172 28 12 28C13.4571 28 14.8233 28.3896 16 29.0703V10C16 9.02234 16.7068 8.18796 17.6712 8.02723L41.6712 4.02723C42.2511 3.93058 42.8442 4.09397 43.2927 4.47398ZM40 32C40 29.7909 38.2091 28 36 28C33.7909 28 32 29.7909 32 32C32 34.2092 33.7909 36 36 36C38.2091 36 40 34.2092 40 32ZM12 32C14.2091 32 16 33.7909 16 36C16 38.2092 14.2091 40 12 40C9.79086 40 8 38.2092 8 36C8 33.7909 9.79086 32 12 32Z" fill="#464BAA"/>
</svg>
