<svg width="48" height="48" viewBox="0 0 48 48" fill="none" xmlns="http://www.w3.org/2000/svg">
<path d="M18.9088 0.0227332L10.4237 1.77549C9.82375 1.89943 9.33309 2.50704 9.33309 3.12542V24.4886C8.51578 24.2083 7.6158 24.0467 6.66649 24.0467C2.98392 24.0467 0 26.3922 0 29.2861C0 32.1786 2.98392 34.5255 6.66649 34.5255C10.2837 34.5255 13.2103 32.2581 13.313 29.437H13.333V8.52245L18.9088 7.37057C19.5088 7.24662 19.9995 6.63902 19.9995 6.02063V0.921341C19.9995 0.302959 19.5088 -0.10256 18.9088 0.0227332ZM46.9081 5.41168L38.4243 7.16444C37.823 7.28838 37.3324 7.89599 37.3324 8.51437V29.8775C36.5151 29.5959 35.6151 29.4356 34.6658 29.4356C30.9832 29.4356 27.9993 31.7812 27.9993 34.675C27.9993 37.5675 30.9832 39.9144 34.6658 39.9144C38.283 39.9144 41.2096 37.647 41.3123 34.8259H41.3323V13.9114L46.9081 12.7595C47.5081 12.6356 47.9988 12.028 47.9988 11.4096V6.31029C47.9988 5.69191 47.5081 5.28639 46.9081 5.41168Z" fill="url(#paint0_linear_7237_61001)"/>
<path d="M30.9091 13.495L22.4251 15.2478C21.8238 15.3731 21.3331 15.9807 21.3331 16.5991V37.9628C20.5158 37.6812 19.6158 37.5209 18.6664 37.5209C14.9838 37.5209 11.9998 39.8665 11.9998 42.7604C11.9998 45.6543 14.9838 47.9999 18.6664 47.9999C22.2838 47.9999 25.2104 45.7325 25.3131 42.9113H25.3331V21.9962L30.9091 20.8443C31.5091 20.7204 31.9998 20.1128 31.9998 19.4944V14.3949C31.9998 13.7765 31.5091 13.371 30.9091 13.495Z" fill="url(#paint1_linear_7237_61001)"/>
<defs>
<linearGradient id="paint0_linear_7237_61001" x1="23.9994" y1="7.98288" x2="23.9994" y2="39.9144" gradientUnits="userSpaceOnUse">
<stop stop-color="#FEB323"/>
<stop offset="1" stop-color="#E64F12"/>
</linearGradient>
<linearGradient id="paint1_linear_7237_61001" x1="21.9998" y1="20.3781" x2="21.9998" y2="47.9999" gradientUnits="userSpaceOnUse">
<stop stop-color="#FEB323"/>
<stop offset="1" stop-color="#E64F12"/>
</linearGradient>
</defs>
</svg>
