<svg width="64" height="64" viewBox="0 0 64 64" fill="none" xmlns="http://www.w3.org/2000/svg">
<g id="Emoji">
<path id="Vector" d="M64 32C64 49.6729 49.6729 64 32 64C14.3271 64 0 49.6729 0 32C0 14.3271 14.3271 0 32 0C49.6729 0 64 14.3271 64 32ZM32 26.6667C29.0542 26.6667 26.6667 29.0542 26.6667 32C26.6667 34.9458 29.0542 37.3333 32 37.3333C34.9458 37.3333 37.3333 34.9458 37.3333 32C37.3333 29.0542 34.9458 26.6667 32 26.6667Z" fill="#FECF73"/>
<path id="Vector_2" d="M23.6223 31.0728C23.8392 29.1102 24.6854 27.3377 26.0099 26.0133L11.8854 11.8906C7.43386 16.3422 4.46142 22.264 3.73608 28.8631L23.6223 31.0728ZM40.3779 32.936C40.161 34.8986 39.3148 36.6711 37.9903 37.9955L52.113 52.1182C56.5645 47.6666 59.537 41.7449 60.2623 35.1457L40.3779 32.936Z" fill="#FEB323"/>
<path id="Vector_3" d="M32.9362 40.378L35.1602 60.2588C41.7504 59.53 47.6651 56.5593 52.1131 52.1131L37.9904 37.9904C36.6659 39.3131 34.8953 40.1593 32.9362 40.378ZM31.1175 23.6188L29.0215 3.71484C22.3566 4.40818 16.3744 7.40018 11.8855 11.8891L26.0082 26.0117C27.3451 24.6766 29.1353 23.8268 31.1175 23.6188Z" fill="#FFE7B9"/>
</g>
</svg>
