<svg width="300" height="257" viewBox="0 0 300 257" fill="none" xmlns="http://www.w3.org/2000/svg">
<path d="M84.5976 161.906C84.1588 161.862 83.6923 161.851 83.1979 161.872C77.8691 162.084 72.5372 162.246 67.2022 162.357C64.6109 162.412 62.9353 162.433 62.1752 162.419C62.0269 162.415 61.8786 162.38 61.7303 162.314C61.6211 162.264 61.515 162.271 61.412 162.335C61.1607 162.492 60.9043 162.5 60.6427 162.36C60.5941 162.335 60.5406 162.32 60.4858 162.317C60.431 162.314 60.376 162.322 60.3244 162.341C60.0134 162.461 59.7003 162.476 59.3851 162.388C58.693 162.193 58.1152 162.372 57.4262 162.363C55.0389 162.33 52.5238 162.312 49.881 162.307C49.294 162.307 48.7718 162.196 48.1693 162.218C47.7841 162.23 47.3917 162.231 46.9921 162.221C45.0147 162.161 43.0218 162.123 41.0134 162.107C40.9741 162.106 40.935 162.114 40.8985 162.128C40.862 162.143 40.8287 162.165 40.8006 162.192C40.7725 162.22 40.7501 162.253 40.7346 162.289C40.7192 162.325 40.711 162.364 40.7106 162.403L40.6303 169.463C40.6293 169.505 40.6372 169.547 40.6533 169.586C40.6694 169.624 40.6935 169.659 40.724 169.688C40.7545 169.717 40.7907 169.74 40.8305 169.754C40.8702 169.769 40.9125 169.775 40.9547 169.772C42.8024 169.659 44.648 169.793 46.4916 170.174C46.5513 170.186 46.6038 170.213 46.6492 170.254C46.6883 170.293 46.7017 170.338 46.6893 170.387C46.6646 170.488 46.6008 170.549 46.4978 170.569C45.5739 170.752 44.6655 170.962 43.7201 171.005C42.7849 171.05 41.8992 171.09 41.0629 171.122C40.8136 171.131 40.689 171.259 40.689 171.509C40.6746 178.539 40.6952 185.307 40.7508 191.812C40.7694 194.024 40.7683 196.086 40.7477 197.997C40.6983 202.549 40.6458 207.192 40.5901 211.926C40.5881 212.035 40.6344 212.115 40.7292 212.167L40.998 212.318C41.0307 212.336 41.0589 212.361 41.0807 212.392C41.1025 212.422 41.1174 212.457 41.1242 212.494C41.1309 212.53 41.1295 212.568 41.12 212.605C41.1105 212.641 41.0931 212.675 41.0691 212.704C41.0217 212.76 40.9599 212.802 40.8837 212.831C40.7683 212.872 40.7024 212.953 40.6859 213.072L40.5531 213.987C40.5496 214.01 40.5511 214.035 40.5577 214.058C40.5643 214.081 40.5757 214.102 40.5911 214.121C40.6066 214.139 40.6258 214.154 40.6475 214.165C40.6692 214.175 40.6928 214.181 40.7168 214.181L56.5148 214.564C56.5416 214.565 56.5682 214.559 56.5919 214.546C56.6157 214.533 56.6358 214.515 56.6503 214.492C56.6649 214.47 56.6734 214.444 56.6751 214.417C56.6768 214.39 56.6716 214.363 56.66 214.339C56.2274 213.452 55.5755 212.062 55.6682 211.033C55.6991 210.674 55.6331 210.32 55.4704 209.97C55.4148 209.855 55.4055 209.735 55.4426 209.612C55.7918 208.407 55.6187 207.239 56.1533 206.04C56.8557 204.456 57.6116 202.979 58.4211 201.609C59.8198 199.242 61.377 197.007 63.0928 194.904C64.5903 193.067 65.9807 191.567 67.264 190.406C70.6133 187.378 74.7103 185.592 79.2028 185.181C80.9702 185.02 82.6551 184.949 84.2577 184.968C84.3017 184.969 84.3444 184.952 84.3766 184.921C84.4089 184.891 84.4283 184.849 84.4307 184.804C84.4616 184.332 84.476 183.878 84.474 183.441C84.4637 178.996 84.4606 174.558 84.4647 170.128C84.4646 170.092 84.4565 170.057 84.4412 170.026C84.4259 169.994 84.4037 169.966 84.3761 169.943C84.3486 169.921 84.3165 169.905 84.2821 169.897C84.2477 169.889 84.2119 169.889 84.1774 169.896C81.2277 170.522 78.2605 170.896 75.2758 171.017C70.8595 171.199 65.9807 171.257 60.6396 171.194C56.8495 171.148 53.7257 170.948 51.2683 170.594C51.0706 170.565 50.9058 170.477 50.774 170.328C50.7287 170.277 50.7235 170.215 50.7585 170.143C50.7742 170.109 50.7997 170.081 50.8317 170.063C50.8637 170.044 50.9007 170.035 50.9377 170.038C53.77 170.223 57.2594 170.315 61.4058 170.313C67.3402 170.311 72.9317 170.208 78.1801 170.004C80.2317 169.924 82.271 169.646 84.2824 169.463C84.4451 169.449 84.5286 169.36 84.5327 169.198L84.7304 163.228C85.2722 163.082 85.4957 163.235 85.4009 163.689C85.2382 164.482 85.1589 165.233 85.163 165.944C85.1918 171.728 85.302 178.001 85.4936 184.764C85.4977 184.867 85.5513 184.919 85.6543 184.921C86.9561 184.94 88.2198 184.963 89.4454 184.989C92.531 185.055 95.4117 185.41 98.0874 186.052C99.898 186.487 101.499 186.809 102.889 187.019C102.92 187.024 102.951 187.022 102.981 187.012C103.011 187.002 103.038 186.985 103.06 186.963C103.082 186.94 103.098 186.913 103.107 186.883C103.116 186.853 103.117 186.821 103.111 186.791L102.833 185.252C102.802 185.077 102.698 184.977 102.521 184.952C101.864 184.86 101.243 184.757 100.658 184.643C100.23 184.561 99.932 184.312 99.7652 183.896C98.5355 180.846 92.8318 165.403 98.9093 164.826C98.9464 164.822 98.9824 164.811 99.0151 164.794C99.0478 164.776 99.0766 164.752 99.0997 164.722C99.1228 164.693 99.1398 164.66 99.1496 164.624C99.1593 164.588 99.1617 164.55 99.1565 164.514C98.6621 161.061 98.244 157.44 97.9021 153.65C97.8063 152.615 98.0195 151.679 99.3048 151.972C99.3435 151.981 99.3836 151.98 99.422 151.97C99.4603 151.96 99.4957 151.941 99.5255 151.915C99.5552 151.889 99.5784 151.856 99.5932 151.819C99.608 151.783 99.614 151.743 99.6107 151.703C99.5613 151.139 99.5685 150.596 99.6323 150.075C99.7065 149.491 100.275 149.089 100.837 149.395C101.13 149.554 101.43 149.684 101.736 149.785C102.138 149.916 102.247 149.792 102.064 149.411C102 149.285 101.93 149.164 101.854 149.046C101.505 148.518 101.863 147.634 102.509 147.538C103.028 147.46 103.532 147.465 104.02 147.554C105.346 147.793 106.587 148.098 107.743 148.468C107.867 148.508 107.922 148.462 107.91 148.332C107.687 146 112.195 147.409 113.178 147.789C113.195 147.795 113.213 147.798 113.231 147.797C113.249 147.796 113.267 147.791 113.283 147.782C113.299 147.773 113.313 147.761 113.324 147.746C113.334 147.731 113.341 147.714 113.345 147.696C113.87 144.923 114.515 142.175 115.279 139.449C115.436 138.878 115.368 138.34 115.6 137.793C115.869 137.154 115.767 136.564 116.011 135.921C116.385 134.932 116.567 133.709 116.79 132.667C116.862 132.33 116.982 131.999 117.151 131.676C117.392 131.212 117.241 130.755 117.374 130.257C117.643 129.238 117.797 128.156 118.137 127.155C118.332 126.587 118.285 126.037 118.514 125.465C118.677 125.057 118.799 124.619 118.882 124.149C119.107 122.842 119.512 121.625 119.839 120.349C119.947 119.922 120.269 119.514 120.25 119.085C120.244 118.928 120.26 118.776 120.297 118.628C120.91 116.106 121.732 113.637 122.762 111.218C123.024 110.602 123.32 110.037 123.652 109.522C124.146 108.759 124.493 107.937 125.083 107.229C126.411 105.641 127.58 104.473 128.59 103.726C129.129 103.328 129.66 102.911 130.181 102.474C130.857 101.906 131.506 101.609 132.22 101.158C132.624 100.901 132.589 100.805 132.115 100.871C131.429 100.967 130.759 101.122 130.104 101.334C128.043 102.005 126.865 99.678 126.377 98.1054C126.342 97.9921 126.267 97.9488 126.152 97.9756C125.303 98.1589 124.556 97.9303 123.912 97.2897C121.413 94.8096 120.52 91.7147 121.233 88.0049C121.248 87.9244 121.281 87.848 121.328 87.7809C121.376 87.7138 121.437 87.6574 121.508 87.6156C121.955 87.3437 122.327 86.9874 122.623 86.5466C125.447 82.3321 127.938 76.922 128.281 71.7961C128.314 71.277 128.586 71.001 129.099 70.968C129.203 70.9621 129.302 70.9194 129.377 70.8475C129.688 70.555 129.788 70.2048 129.677 69.797C129.646 69.6796 129.573 69.6013 129.458 69.5622C128.528 69.247 127.561 68.9844 126.723 68.5024C123.889 66.8628 122.694 64.3539 123.139 60.9757C123.23 60.2939 123.421 59.7285 123.714 59.2795C124.786 57.6234 125.917 56.0939 127.987 55.7757C128.016 55.7713 128.043 55.7598 128.066 55.7424C128.089 55.725 128.108 55.7022 128.12 55.6759C128.132 55.6496 128.138 55.6207 128.136 55.5918C128.134 55.5628 128.126 55.5347 128.111 55.51C127.334 54.2061 126.713 52.8826 126.247 51.5396C126.074 51.0422 126.044 50.4984 125.957 49.9793C125.944 49.9088 125.916 49.842 125.875 49.7837C125.833 49.7254 125.779 49.6772 125.716 49.6425C123.223 48.2583 122.821 44.6649 122.889 42.0232C123.002 37.7408 124.881 34.6644 128.525 32.7941C129.301 32.3965 130.101 32.1246 130.925 31.9784C130.99 31.9672 131.051 31.9382 131.1 31.8945C131.149 31.8508 131.185 31.7942 131.203 31.7312C131.414 31.035 131.716 30.3768 132.112 29.7568C132.139 29.7138 132.155 29.665 132.159 29.6146C132.163 29.5641 132.156 29.5133 132.137 29.4664C131.69 28.3767 131.681 27.2088 132.112 25.9626C133.224 22.7523 135.504 20.4721 138.403 19.0292C138.51 18.9756 138.57 18.8891 138.585 18.7696C138.63 18.3803 138.678 17.9962 138.727 17.6172C139.083 14.9064 140.538 13.1545 143.09 12.3615C143.693 12.174 144.288 12.1679 144.873 12.343C145.148 12.4233 145.333 12.6272 145.574 12.7662C145.679 12.826 145.782 12.8208 145.883 12.7508C147.772 11.4201 149.801 10.5643 151.97 10.1832C155.342 9.58998 158.848 9.63838 162.487 10.3284C163.155 10.4551 163.76 10.7146 164.418 10.8877C165.943 11.2852 167.318 11.9403 168.543 12.8528C168.604 12.8983 168.675 12.9279 168.75 12.9387C168.825 12.9495 168.902 12.9412 168.973 12.9146C170.033 12.5191 171.141 12.2801 172.294 12.1977C175.95 11.9403 179.319 12.7384 182.401 14.5923C183.232 15.0897 183.776 15.7757 184.598 16.236C184.711 16.2978 184.792 16.3885 184.842 16.5079C185.044 16.9879 185.359 17.336 185.787 17.5523C185.904 17.6088 186.002 17.6979 186.068 17.8087C186.896 19.1929 187.746 20.9479 187.922 22.4619C187.956 22.7462 188.006 22.9964 188.243 23.188C190.342 24.8565 191.982 26.5775 193.162 28.351C194.413 30.2275 195.34 32.2616 195.943 34.4533C196.32 35.8231 196.645 37.5018 196.916 39.4896C197.062 40.5463 196.997 41.4948 197.037 42.5237C197.103 44.256 197.123 46.0965 197.099 48.0451C197.06 50.9515 197.203 53.7941 197.528 56.5728C197.536 56.6429 197.571 56.6614 197.633 56.6284L197.717 56.5852C197.729 56.579 197.735 56.5697 197.735 56.5574C197.744 54.8333 197.559 53.1463 197.624 51.4284C197.655 50.6477 197.671 49.8547 197.673 49.0493C197.675 48.6208 197.637 48.2181 197.559 47.8412C197.541 47.7444 197.553 47.6517 197.596 47.5631C197.66 47.4313 197.685 47.2974 197.67 47.1614C197.619 46.7227 197.622 46.2623 197.68 45.7803C197.694 45.6588 197.65 45.564 197.547 45.496L197.429 45.4157C197.293 45.323 197.288 45.2241 197.414 45.1191C197.434 45.1026 197.455 45.0861 197.476 45.0697C197.537 45.0285 197.572 44.9708 197.581 44.8966C197.649 44.3199 197.631 43.7339 197.528 43.1386C197.505 42.9999 197.536 42.858 197.615 42.7431C197.74 42.5639 197.894 42.464 198.075 42.4434C198.328 42.4166 198.456 42.5309 198.458 42.7863C198.487 45.6701 198.498 48.7053 198.492 51.8918C198.492 52.0237 198.491 52.1555 198.489 52.2873C198.471 53.3255 198.467 54.3863 198.48 55.4698C198.486 55.9765 198.489 56.4163 198.489 56.7891C198.483 59.5349 198.639 62.2662 198.959 64.9832C199.064 65.8946 199.469 66.7721 200.105 67.4333C200.64 67.9926 201.072 68.6322 201.668 69.1111C202.475 69.7568 203.08 70.4953 203.921 71.1441C208.028 74.3163 209.525 78.5977 208.41 83.9883C208.349 84.2869 208.2 84.8009 207.965 85.53C207.786 86.08 207.587 86.5754 207.369 87.0162C205.536 90.728 202.835 93.6293 199.268 95.7201C199.169 95.7777 199.124 95.8643 199.132 95.9796C199.235 97.7634 199.239 99.5421 199.144 101.316C199.116 101.844 199.311 102.205 199.218 102.752C199.117 103.346 199.133 103.951 199.265 104.569C199.359 105.026 199.647 105.517 200.127 106.04C202.259 108.365 204.003 111.047 205.361 114.086C205.581 114.58 206.389 116.517 207.783 119.897C208.663 122.031 209.574 124.445 210.518 127.137C212.684 133.32 214.58 138.975 216.203 144.099C216.345 144.555 216.459 145.019 216.546 145.493C216.663 146.151 216.926 146.757 217.074 147.421C217.423 148.984 217.766 150.702 217.105 152.099C217.045 152.225 216.947 152.297 216.811 152.315L216.478 152.365C216.373 152.381 216.277 152.421 216.19 152.485C214.837 153.468 213.358 154.227 211.753 154.762C211.642 154.799 211.546 154.873 211.482 154.972C211.419 155.071 211.391 155.189 211.404 155.306C211.806 158.999 212.152 162.668 212.442 166.312C212.548 167.634 212.59 169.088 212.569 170.674C212.546 172.331 212.457 173.702 212.3 174.79C212.127 175.999 211.787 177.338 211.281 178.807C211.258 178.873 211.281 178.917 211.349 178.94L211.423 178.964C211.435 178.968 211.443 178.964 211.448 178.952C211.732 178.149 212.013 177.324 212.291 176.477C213.401 173.099 213.76 169.721 213.366 166.343C213.232 165.212 213.027 163.889 212.751 162.375C212.637 161.745 212.687 161.047 212.983 160.478C213.105 160.241 213.181 160.256 213.212 160.522C213.333 161.572 213.539 162.638 213.83 163.719C213.912 164.03 213.951 164.346 213.947 164.665C213.941 165.153 214.176 165.539 214.213 166.021C214.293 167.09 214.387 168.179 214.494 169.287C214.566 170.047 214.551 170.85 214.448 171.694C214.321 172.735 214.272 173.746 214.028 174.768C213.529 176.855 212.729 178.784 211.627 180.556C211.458 180.829 211.317 180.816 211.203 180.515C211.111 180.274 211.134 180 211.275 179.693C211.34 179.547 211.339 179.409 211.271 179.279C211.193 179.135 211.135 179.142 211.098 179.301C210.993 179.74 210.792 180.097 210.493 180.373C210.394 180.466 210.39 180.562 210.48 180.661C211.177 181.427 211.93 182.02 212.739 182.44C213.336 182.751 213.886 183.249 214.389 183.933C214.463 184.034 214.56 184.105 214.679 184.146C215.81 184.529 216.32 185.456 217.219 186.139C218.935 187.441 220.552 188.819 222.07 190.273C222.426 190.615 222.744 190.901 223.022 191.132C223.355 191.406 223.659 191.697 223.933 192.006C224.684 192.85 225.432 193.659 226.031 194.586C226.835 195.819 227.823 196.817 228.475 198.142C229.251 199.718 230.137 201.127 230.746 202.82C231.846 205.873 232.459 209.069 232.585 212.408C232.588 212.484 232.621 212.556 232.676 212.609C232.732 212.661 232.806 212.688 232.881 212.686C234.416 212.647 236.033 212.622 237.732 212.612C238.422 212.608 239.302 212.584 240.371 212.541C241.289 212.502 242.169 212.481 243.009 212.479C243.119 212.479 243.227 212.478 243.334 212.476C249.421 212.424 255.004 212.393 260.083 212.383C266.277 212.369 272.639 212.382 279.169 212.423C279.2 212.423 279.231 212.417 279.259 212.405C279.287 212.392 279.313 212.374 279.333 212.351C279.354 212.329 279.37 212.302 279.379 212.273C279.389 212.243 279.392 212.213 279.388 212.182C279.207 210.504 279.179 208.716 279.305 206.818C279.36 205.995 279.374 205.202 279.345 204.439C279.335 204.149 279.362 203.857 279.428 203.565C279.521 203.151 279.379 202.808 279.394 202.385C279.425 201.449 279.414 200.535 279.36 199.641C279.327 199.089 279.331 198.364 279.37 197.466C279.399 196.765 279.366 196.046 279.271 195.306C279.24 195.059 279.379 194.778 279.336 194.484C279.264 194.012 279.251 193.569 279.299 193.152C279.357 192.655 279.277 192.229 279.197 191.716C279.18 191.602 279.203 191.498 279.265 191.404L279.444 191.135C279.495 191.057 279.496 190.977 279.447 190.897C279.03 190.217 279.092 188.944 279.144 188.163C279.185 187.532 279.206 186.867 279.206 186.167C279.212 184.364 279.227 182.563 279.249 180.763C279.297 176.925 279.274 173.011 279.181 169.021C279.172 168.509 279.265 168.039 279.104 167.545C278.96 167.102 278.892 166.616 278.9 166.086C278.943 163.522 278.965 160.958 278.965 158.396C279.288 158.39 279.597 158.303 279.892 158.136C279.941 158.81 279.921 159.469 279.83 160.114C279.796 160.355 279.864 160.59 279.864 160.831C279.866 162.501 279.861 164.235 279.849 166.034C279.847 166.32 279.856 166.656 279.876 167.041C280.181 172.438 280.285 177.633 280.188 182.626C280.164 183.945 280.306 185.283 280.173 186.605C280.105 187.294 280.26 187.946 280.179 188.62C280.122 189.094 280.117 189.577 280.167 190.069C280.239 190.8 280.238 191.533 280.164 192.269C280.087 193.013 280.371 193.622 280.148 194.388C280.119 194.487 280.139 194.575 280.207 194.651C280.246 194.696 280.266 194.747 280.266 194.802C280.28 196.028 280.293 197.255 280.303 198.482C280.309 199.171 280.463 199.765 280.266 200.46C280.237 200.559 280.233 200.66 280.253 200.763C280.334 201.164 280.367 201.63 280.352 202.159C280.278 204.973 280.228 207.827 280.201 210.721C280.201 210.783 280.224 210.842 280.267 210.887C280.31 210.932 280.368 210.959 280.429 210.962C282.656 211.061 284.833 211.263 286.961 211.567C287.68 211.67 288.365 211.837 289.016 212.068C289.125 212.107 289.2 212.18 289.241 212.287L289.334 212.531C289.388 212.667 289.486 212.721 289.628 212.692C289.852 212.649 290.077 212.63 290.301 212.636C293.519 212.733 296.731 212.832 299.938 212.933C299.979 212.935 300 212.957 300 212.998V213.001C300 213.042 299.979 213.064 299.938 213.066C292.48 213.47 285.013 213.652 277.537 213.613C277.12 213.61 276.716 213.489 276.305 213.557C276.01 213.605 275.709 213.621 275.402 213.607C274.684 213.57 273.928 213.553 273.135 213.557C267.942 213.582 263.381 213.591 259.453 213.585C250.839 213.571 241.98 213.53 232.875 213.465C232.814 213.464 232.755 213.487 232.71 213.53C232.666 213.573 232.64 213.631 232.637 213.693C232.575 215.539 232.412 217.45 232.146 219.428C232.075 219.965 231.837 220.41 231.775 220.948C231.73 221.325 231.656 221.696 231.553 222.06C230.984 224.087 230.204 225.911 229.214 227.532C228.388 228.879 227.471 229.861 226.464 230.477C226.188 230.646 226.211 230.726 226.535 230.718C231.822 230.596 237.243 230.566 242.796 230.628C242.903 230.63 242.999 230.66 243.084 230.718C243.145 230.759 243.205 230.801 243.263 230.844C243.361 230.917 243.481 230.958 243.606 230.962L245.222 231.008C245.524 231.016 245.69 231.171 245.719 231.472L245.787 232.195C245.816 232.5 245.678 232.659 245.373 232.674C240.547 232.925 235.736 233.088 230.941 233.162C230.797 233.164 230.365 233.195 229.646 233.254C228.849 233.322 228.074 233.149 227.267 233.254C226.828 233.312 226.433 233.269 226.081 233.125C225.98 233.083 225.886 233.098 225.799 233.168C225.674 233.273 225.533 233.329 225.376 233.335C213.332 233.79 201.135 234.265 188.784 234.759C182.555 235.006 175.727 235.105 168.642 235.278C164.368 235.383 160.016 235.174 155.588 234.651C154.727 234.55 154.161 234.123 153.892 233.369C153.854 233.268 153.782 233.22 153.675 233.227C149.069 233.501 144.879 233.609 141.103 233.551C138.061 233.504 135.314 233.541 132.863 233.662C132.158 233.696 131.503 233.591 130.796 233.678C130.274 233.742 129.745 233.779 129.207 233.789C126.732 233.834 124.299 233.89 121.909 233.956C121.276 233.974 120.618 233.894 120 233.977C119.491 234.043 119.002 234.049 118.532 233.993C117.479 233.866 116.422 234.064 115.409 233.758C115.308 233.727 115.215 233.743 115.131 233.804C114.896 233.977 114.638 234.063 114.358 234.061C111.54 234.042 108.861 234.031 106.322 234.027C102.787 234.021 99.209 233.709 95.7052 233.458C94.251 233.353 90.258 233.346 83.7263 233.437C78.7332 233.507 73.5383 233.543 68.1415 233.545C67.7749 233.545 67.4268 233.529 67.0972 233.499C66.7944 233.468 66.5132 233.514 66.2537 233.638C66.1239 233.697 65.9941 233.697 65.8644 233.638C65.1692 233.319 64.4771 233.585 63.7355 233.57C62.3966 233.547 61.0855 233.534 59.8023 233.529C59.3481 233.529 58.9001 233.65 58.4613 233.514C58.3583 233.481 58.2563 233.485 58.1554 233.526C57.8135 233.664 57.4623 233.668 57.1018 233.539C56.9906 233.5 56.8763 233.487 56.7588 233.502C55.971 233.597 55.2758 233.468 54.4971 233.557C53.8637 233.631 53.2334 233.52 52.5846 233.526C49.5154 233.547 46.5091 233.541 43.5656 233.508C43.407 233.506 43.3369 233.426 43.3555 233.27L43.3647 233.18C43.3956 232.919 43.5429 232.781 43.8066 232.766C49.0756 232.478 53.9389 232.302 58.3964 232.238C59.964 232.217 61.4821 232.183 62.9507 232.136C63.0496 232.132 63.1392 232.102 63.2195 232.046C64.0146 231.507 64.9725 231.14 66.093 230.946C68.3856 230.553 70.5567 230.379 72.6062 230.424C73.5373 230.445 73.5537 230.333 72.6556 230.087C71.4094 229.75 70.2467 229.256 69.1673 228.607C68.7718 228.371 68.3743 228.152 67.9747 227.952C67.6039 227.765 67.2609 227.523 66.9458 227.226C66.1332 226.46 65.1908 225.879 64.4338 225.088C63.7262 224.347 63.0558 223.825 62.4162 222.925C62.0578 222.425 61.6407 221.96 61.1648 221.532C61.0817 221.457 61.0189 221.361 60.9825 221.254C60.8013 220.702 60.5253 220.282 60.1545 219.993C59.8414 219.752 59.5849 219.446 59.3851 219.076C59.0947 218.538 58.7486 218.013 58.347 217.5C57.9608 217.012 57.7507 216.418 57.4479 215.881C57.4064 215.808 57.3471 215.748 57.2757 215.705C57.2042 215.662 57.123 215.639 57.04 215.637L50.0263 215.442C49.9171 215.44 49.8223 215.478 49.742 215.556C49.4907 215.808 49.2229 215.821 48.9387 215.596C48.8213 215.506 48.6977 215.495 48.5679 215.562C48.3331 215.689 48.2589 215.763 47.9747 215.773C42.341 215.972 36.3726 215.97 30.0695 215.766C29.087 215.736 28.1137 215.621 27.1404 215.661C26.5225 215.688 25.8767 215.599 25.2032 215.393C25.1528 215.378 25.1075 215.35 25.0721 215.311C25.0367 215.272 25.0126 215.225 25.0023 215.173C24.9405 214.846 25.2371 214.595 25.5245 214.524C25.8602 214.442 26.2094 214.368 26.5719 214.302C28.8336 213.886 31.3312 213.589 34.0646 213.412C35.9926 213.288 37.2058 213.191 37.7043 213.118C37.7352 213.114 37.7496 213.097 37.7476 213.066L37.7445 212.983C37.7424 212.894 37.6971 212.85 37.6085 212.85L34.8247 212.877C34.7175 212.877 34.6187 212.905 34.528 212.961C34.2005 213.152 33.941 212.93 33.598 212.933C22.3987 212.997 11.1993 212.967 0 212.844V211.96L39.002 211.975C39.1956 211.975 39.2945 211.878 39.2986 211.685C39.4222 206.206 39.4943 201.486 39.5149 197.524C39.5664 188.076 39.6364 179.298 39.725 171.19C39.7271 171.052 39.6591 170.988 39.5211 170.996C39.2204 171.012 38.9103 170.97 38.5911 170.869C38.4901 170.836 38.4222 170.77 38.3871 170.671C38.14 169.982 38.897 169.843 39.3759 169.862C39.5736 169.868 39.6766 169.773 39.6848 169.578C39.794 167.31 39.829 165.146 39.7899 163.086C39.7621 161.637 40.7755 161.204 42.1134 161.161C43.9405 161.103 45.6913 161.102 47.366 161.158C47.3884 161.159 47.4107 161.155 47.4312 161.146C47.4518 161.137 47.4701 161.123 47.4849 161.106C47.4997 161.089 47.5105 161.068 47.5167 161.046C47.5228 161.025 47.5241 161.001 47.5205 160.979L47.2887 159.533C47.2683 159.404 47.2133 159.282 47.1297 159.181C47.046 159.08 46.9366 159.003 46.8129 158.958C42.9013 157.521 38.3223 156.248 36.4406 152.108C36.144 151.453 35.7856 150.149 36.2398 149.553C36.5796 149.106 37.038 148.915 37.6147 148.981C42.6139 149.559 45.2155 153.486 47.505 157.447C47.54 157.507 47.5895 157.523 47.6533 157.497C47.7234 157.47 47.744 157.421 47.7151 157.351C47.5174 156.865 47.4679 156.326 47.5668 155.732C47.5833 155.621 47.5709 155.514 47.5297 155.411C47.4453 155.207 47.434 155.003 47.4958 154.799C47.6276 154.365 47.6029 153.95 47.4216 153.554C47.3722 153.445 47.3701 153.336 47.4154 153.227L47.4556 153.134C47.4906 153.054 47.4896 152.974 47.4525 152.896C47.2877 152.542 47.2517 152.187 47.3444 151.833C47.5205 151.15 47.3289 150.288 47.2826 149.575C47.1322 147.303 47.0282 144.779 46.9705 142.005C46.9643 141.751 47.0786 141.578 47.3135 141.486C47.3505 141.471 47.3897 141.466 47.4309 141.47C47.6574 141.497 47.7831 141.625 47.8078 141.853C47.9273 142.949 47.9819 143.944 47.9716 144.838C47.9551 146.311 48.0498 147.623 48.2558 148.774C48.3217 149.143 48.4072 149.147 48.5123 148.787C49.0005 147.097 49.637 145.36 49.8378 143.636C49.9676 142.53 50.122 141.438 50.3013 140.361C50.3044 140.341 50.3119 140.323 50.3232 140.307C50.3346 140.291 50.3494 140.277 50.3667 140.268C50.384 140.258 50.4032 140.253 50.4229 140.252C50.4426 140.251 50.4623 140.254 50.4805 140.262L50.5793 140.302C50.6632 140.337 50.7349 140.396 50.785 140.472C50.8351 140.548 50.8614 140.637 50.8605 140.729C50.8564 141.404 50.8111 142.065 50.7245 142.712C50.4115 145.054 49.7791 147.317 48.8274 149.5C48.1693 151.011 48.2836 152.701 48.4227 154.286C48.5916 156.241 48.7275 158.201 48.8305 160.166C48.8429 160.389 48.9129 160.409 49.0406 160.228C50.19 158.603 52.3436 155.402 54.769 156.112C55.7114 156.387 55.8844 157.367 55.5971 158.176C55.0657 159.668 54.1202 160.635 52.7607 161.078C52.7159 161.092 52.6777 161.123 52.6528 161.163C52.628 161.203 52.618 161.25 52.6248 161.297C52.633 161.367 52.6732 161.402 52.7453 161.402C54.7268 161.404 56.8176 161.404 59.0175 161.402C59.0626 161.402 59.1071 161.391 59.1469 161.37C59.1867 161.348 59.2205 161.317 59.2453 161.28C59.2702 161.242 59.2852 161.199 59.2891 161.154C59.293 161.109 59.2857 161.064 59.2677 161.022C59.1781 160.815 59.1194 160.648 59.1163 160.417C59.0885 159.091 59.0175 157.71 59.1843 156.394C59.2677 155.732 59.1318 155.111 59.1596 154.441C59.4191 148.357 59.7961 142.128 60.0278 135.97C60.1885 131.671 60.3975 127.628 60.655 123.84C60.7642 122.229 60.93 120.6 61.1525 118.952C61.171 118.816 61.135 118.698 61.0443 118.597C60.6859 118.197 60.3687 117.74 60.0927 117.225C59.8805 116.829 59.586 116.489 59.209 116.205C58.4531 115.637 57.7332 115.074 57.0493 114.518C56.9298 114.421 56.8814 114.448 56.9041 114.598C57.247 116.808 53.15 118.146 51.5742 118.56C49.8841 119.004 48.0581 119.304 46.4607 119.894C42.8271 121.238 40.0371 124.167 37.281 126.834C36.3417 127.742 35.2789 128.497 34.0924 129.099C33.2674 129.519 32.3621 129.105 32.2385 128.187C32.0779 127.004 31.8461 125.833 31.9296 124.603C32.0161 123.369 32.1572 122.105 32.3529 120.809C32.4517 120.148 32.6278 119.531 32.8812 118.958C33.0975 118.467 33.011 118.013 33.1964 117.534C33.9039 115.689 35.0008 113.44 36.4962 112.08C37.1729 111.462 37.7723 110.776 38.5447 110.282C39.3027 109.796 40.1885 109.39 41.2019 109.065C42.5017 108.647 43.6099 108.428 44.5265 108.41C44.786 108.404 45.0445 108.387 45.302 108.36C46.0528 108.277 46.7635 108.444 47.4988 108.555C49.328 108.827 50.9573 109.661 52.3868 111.058C52.6381 111.303 52.7638 111.594 52.7638 111.932C52.7638 112.049 52.8215 112.122 52.9368 112.148C56.0884 112.834 58.7332 114.16 60.7601 116.724C61.2421 117.334 61.4553 117.252 61.3997 116.477C61.2853 114.911 61.6561 113.545 61.7364 112.059C61.7756 111.35 61.8384 110.645 61.9249 109.942C62.0568 108.853 62.1525 107.777 62.2123 106.716C62.2658 105.761 62.3709 104.803 62.5274 103.843C62.7375 102.542 62.6819 101.22 62.8302 99.9129C63.0527 97.9395 63.2134 95.9693 63.3122 94.0022C63.3184 93.8642 63.3555 93.7333 63.4235 93.6098C63.4729 93.5212 63.4925 93.4264 63.4822 93.3255C63.3956 92.4727 63.4543 91.6292 63.0589 90.8382C62.6057 89.9319 62.1762 89.0462 61.7704 88.181C61.7574 88.1541 61.7385 88.1305 61.7151 88.112C61.6917 88.0935 61.6644 88.0806 61.6354 88.0743C61.6064 88.0681 61.5765 88.0686 61.5479 88.0758C61.5194 88.0831 61.493 88.0969 61.4707 88.1162C59.827 89.5004 57.9371 89.9535 55.801 89.4757C52.8719 88.8175 51.4414 90.4675 50.0448 92.6859C48.5473 95.0609 46.3515 96.1104 43.4574 95.8344C41.5727 95.6552 40.102 94.3451 40.3522 92.3275C40.4779 91.2893 40.7354 90.4407 41.1247 89.7815C41.1629 89.7163 41.1801 89.6408 41.174 89.5651C41.1679 89.4895 41.1389 89.4173 41.0907 89.3583C40.7694 88.9628 40.4171 88.5796 40.3769 88.0451C40.1607 85.219 40.9187 82.7029 42.651 80.4968C42.8776 80.2064 43.1443 80.0189 43.4513 79.9345C43.5398 79.9098 43.6109 79.8593 43.6645 79.7831C44.0105 79.2846 44.4523 78.8891 44.99 78.5966C48.1353 76.8818 52.2354 75.9889 54.9853 78.6121C56.0049 79.5843 56.6301 80.9036 56.8608 82.5701C56.8752 82.6669 56.9277 82.7307 57.0184 82.7616C58.0256 83.12 59.0236 83.6752 60.0124 84.427C60.826 85.047 61.5109 85.8823 62.0671 86.9328C62.5923 87.9298 63.0856 88.9092 63.547 89.8711C63.7489 90.2914 63.8735 90.2687 63.9209 89.8032C63.9909 89.109 64.0363 88.4272 64.0569 87.7578C64.0775 87.0883 64.13 86.4086 64.2144 85.7185C64.5069 83.3229 64.7716 80.88 65.0085 78.3896C65.025 78.2351 65.0672 78.0734 65.1352 77.9045C65.2773 77.5492 65.0888 76.9467 65.2001 76.4956C65.3731 75.785 65.2711 75.1052 65.4596 74.4069C65.7315 73.412 65.7037 72.2503 65.8149 71.1967C65.8376 70.9804 65.8891 70.7754 65.9694 70.5818C66.1023 70.2512 65.9354 70.0596 65.9632 69.7414C66.093 68.3448 66.264 66.9709 66.4761 65.6196C66.5606 65.0738 66.6008 64.532 66.5966 63.9944C66.5905 63.395 66.6533 62.8111 66.7851 62.2425C66.955 61.5164 66.9211 60.8274 67.0416 60.1075C67.1178 59.642 67.1538 59.1734 67.1497 58.7017C67.1435 58.0436 67.4185 57.4781 67.4618 56.8324C67.4988 56.2391 67.5648 55.6531 67.6595 55.0743C67.6635 55.0495 67.6603 55.0241 67.6504 55.001C67.6405 54.9779 67.6243 54.9581 67.6036 54.9439C67.5829 54.9296 67.5586 54.9216 67.5335 54.9206C67.5084 54.9196 67.4835 54.9258 67.4618 54.9383C67.0395 55.1876 66.6069 55.3678 66.1641 55.4791C64.4379 55.9157 62.6479 55.854 60.7941 55.2937C57.6889 54.3575 55.2603 52.93 52.0253 54.5892C50.4042 55.4214 48.9418 56.1145 47.6379 56.6686C47.5143 56.7201 47.4082 56.7891 47.3196 56.8756C46.3865 57.7964 45.5338 56.0661 46.3711 55.3462C46.4494 55.2782 46.4947 55.1927 46.507 55.0898C46.6636 53.8024 46.815 52.5057 46.9612 51.1997C47.0354 50.5354 47.2486 49.9175 47.2671 49.2316C47.2733 48.9823 47.3196 48.7218 47.4061 48.4499C47.9293 46.8143 48.3475 45.6783 48.6606 45.0419C49.9398 42.4619 52.1397 40.2867 55.0873 39.644C57.5303 39.1126 59.7765 39.6296 61.826 41.1951C63.9271 42.7987 65.2619 45.4188 66.2011 47.9833C66.2913 48.2337 66.2957 48.5066 66.2135 48.7588C66.1888 48.8392 66.16 48.9154 66.127 48.9875C66.0281 49.2017 65.9262 49.2038 65.8211 48.9937C65.543 48.4293 65.1589 47.5435 64.6686 46.3365C63.2875 42.9377 59.8733 39.4988 55.937 40.1909C52.1026 40.8645 49.5257 44.0562 48.5834 47.7083C48.1075 49.5478 47.7769 51.4892 47.5915 53.5325C47.5442 54.0742 47.6925 54.135 48.0365 53.7148C49.19 52.3121 50.5896 51.2265 52.2354 50.4582C52.2952 50.4294 52.3446 50.3913 52.3837 50.3439C52.427 50.2903 52.4795 50.2563 52.5413 50.2419C53.4775 50.0442 54.2994 49.59 55.2356 49.3459C58.554 48.4839 62.0578 48.0698 65.2341 49.2717C65.4843 49.3675 65.645 49.3181 65.8922 49.3397C65.9972 49.3479 66.0868 49.3891 66.161 49.4633C66.8984 50.1801 67.5411 50.9804 68.089 51.864C68.0978 51.8778 68.1107 51.8883 68.1259 51.8943C68.1411 51.9002 68.1577 51.9012 68.1735 51.8971C68.1893 51.893 68.2033 51.884 68.2137 51.8714C68.224 51.8588 68.2301 51.8432 68.2311 51.827C68.2723 50.8753 68.3835 49.9154 68.5648 48.9473C68.6122 48.694 68.6833 48.4437 68.778 48.1965C68.9356 47.7825 68.8305 47.3036 68.9139 46.8586C69.2868 44.8482 69.6637 42.8461 70.0448 40.8521C70.1777 40.1508 70.4063 39.4927 70.4681 38.782C70.4949 38.473 70.5412 38.1702 70.6071 37.8736C70.9862 36.1454 71.3816 34.4028 71.7936 32.6457C71.8678 32.3306 71.9955 32.0144 72.1767 31.6972C72.2136 31.6321 72.2239 31.5552 72.2055 31.4827C72.187 31.4102 72.1413 31.3475 72.0779 31.3079C71.5608 30.9824 71.1355 30.6044 70.8018 30.1739C68.8841 27.6939 68.0416 24.7113 68.2744 21.226C68.7873 13.5449 72.0779 7.48483 78.1461 3.04587C79.7693 1.85941 81.824 0.948955 84.3102 0.314525C84.4396 0.280083 84.5752 0.281154 84.7026 0.317618C85.2402 0.459746 85.3824 0.16004 85.8366 0.110604C88.1662 -0.138636 90.3394 0.0333599 92.3559 0.626593C93.8699 1.06843 95.285 1.85322 96.5951 2.6751C97.3768 3.16328 98.106 3.84612 98.1956 4.83484C98.7734 11.3079 97.7105 17.2062 94.4168 22.533C94.2232 22.8461 93.9966 23.1324 93.7371 23.3919C93.3261 23.806 93.0944 24.3312 92.7051 24.7761C90.7112 27.0626 88.4103 29.006 85.8026 30.6065C85.1043 31.0329 84.0445 31.5798 83.2473 31.7652C82.2555 31.9938 81.3471 32.3986 80.3121 32.5654C79.0947 32.7652 77.8567 32.7796 76.5982 32.6087C76.4925 32.594 76.385 32.619 76.2961 32.6788C76.2073 32.7386 76.1433 32.8291 76.1162 32.9331C75.0863 36.9436 74.0481 41.2281 73.0017 45.7865C72.6804 47.1861 72.529 48.5827 72.1798 49.9916C71.9306 50.9927 71.738 51.9269 71.602 52.7941C71.4496 53.7766 71.2467 54.7365 70.9934 55.6737C70.9089 55.9847 70.8904 56.2597 70.9377 56.4987C70.9563 56.5934 70.9563 56.6882 70.9377 56.7829L70.2395 60.3362C70.2253 60.4066 70.2328 60.4798 70.2611 60.5463C70.2714 60.571 70.2817 60.5957 70.292 60.6204C70.3002 60.641 70.3023 60.6626 70.2982 60.6853C70.0922 61.9768 69.8481 63.2611 69.5659 64.5382C69.4588 65.014 69.4135 65.4724 69.4299 65.9132C69.4423 66.2675 69.3939 66.6135 69.2847 66.9513C69.192 67.2397 69.1261 67.5446 69.087 67.8659C68.7059 71.0854 68.3609 73.7045 68.0519 75.7232C67.7326 77.7953 67.504 79.6657 67.366 81.3342C67.3474 81.5443 67.3959 81.5607 67.5112 81.3836C68.3485 80.089 69.6246 78.8778 70.8759 78.2413C71.0222 78.1671 71.0243 78.0889 70.8821 78.0065L70.6658 77.8798C70.567 77.8221 70.5196 77.7366 70.5237 77.6234C70.5423 77.1661 70.6525 76.7479 70.8543 76.3689C72.4177 73.4439 74.9091 71.7672 78.3284 71.3388C78.9546 71.2605 79.5736 71.1812 80.1854 71.1009C80.5314 71.0555 80.8528 71.0535 81.1494 71.0947C81.8044 71.1843 82.4007 71.0267 83.0403 71.2275C83.4544 71.3604 83.8622 71.2523 84.3071 71.3666C85.6604 71.7188 87.2208 72.346 88.1322 73.4305C88.2229 73.5397 88.332 73.6211 88.4598 73.6746C88.985 73.8971 89.329 74.2823 89.4917 74.8302C89.5171 74.919 89.5603 75.0015 89.6188 75.0727C89.6773 75.144 89.7497 75.2023 89.8316 75.2442C90.1777 75.4255 90.3764 75.7489 90.4279 76.2144C90.4382 76.3257 90.4753 76.4256 90.5392 76.5141C90.8749 76.9941 91.1046 77.4493 91.2282 77.8798C91.6381 79.3052 91.7565 80.8717 91.5835 82.5793C91.4414 84.013 90.9068 85.3014 90.4774 86.6454C90.4478 86.7389 90.3957 86.8237 90.3258 86.8927C90.2558 86.9616 90.1699 87.0125 90.0757 87.0409C89.7297 87.1419 89.3887 87.2706 89.053 87.4272C86.6584 88.5456 83.7819 88.1471 81.6777 86.7381C80.482 85.9379 79.2646 84.5073 78.1461 83.3672C77.5261 82.7348 76.8052 82.534 75.9833 82.7647C74.6949 83.1293 72.7298 83.7256 71.4537 83.1973C69.8934 82.5546 70.224 81.2013 70.8574 79.9221C71.2447 79.1353 71.1303 79.0539 70.5145 79.678C69.5752 80.6276 68.71 81.7492 67.9191 83.0428C67.1559 84.2911 66.9272 85.5362 66.8932 86.8864C66.8809 87.3905 66.8551 87.8788 66.816 88.3479C66.5668 91.4274 66.3546 94.4842 66.1795 97.5183C66.163 97.7984 66.1074 98.0652 66.0127 98.3186C65.8582 98.7295 66.0899 99.0168 66.0559 99.471C65.9035 101.374 65.75 103.423 65.5956 105.617C65.5368 106.466 65.3885 107.372 65.4287 108.234C65.4534 108.774 65.1877 109.151 65.2619 109.673C65.4163 110.807 65.0919 111.997 64.9652 113.165C64.8355 114.403 64.7242 115.592 64.6315 116.734C64.5986 117.133 64.6985 117.17 64.9313 116.845C66.1085 115.182 67.6626 114.32 69.5041 113.514C69.5225 113.506 69.5387 113.493 69.5514 113.477C69.5641 113.461 69.5728 113.443 69.577 113.423C69.5813 113.403 69.5808 113.383 69.5756 113.363C69.5704 113.343 69.5608 113.325 69.5473 113.31C68.3176 111.917 68.744 109.361 69.328 107.693C70.3816 104.693 73.632 102.592 76.6229 102.193C77.1636 102.119 77.7136 102.344 78.1863 102.187C78.3717 102.125 78.5633 102.111 78.761 102.144C80.7632 102.475 82.6881 103.113 84.5358 104.056C85.1259 104.359 85.5986 104.785 86.1764 105.057C86.4215 105.173 86.6347 105.306 86.816 105.456C87.3011 105.854 87.8542 106.296 88.4041 106.593C90.1035 107.507 91.9357 108.607 91.8894 110.832C91.8647 111.932 91.7071 113.156 90.9439 114.005C90.8306 114.133 90.7915 114.113 90.8265 113.947C90.9068 113.579 91.0861 113.285 91.1015 112.899C91.1571 111.667 91.0407 110.491 90.7524 109.371C90.6308 108.899 90.4104 108.525 90.0911 108.249C89.2075 107.479 88.5432 106.988 88.0983 106.778C86.8479 106.185 85.6718 105.595 84.5697 105.008C81.0845 103.151 76.9689 101.94 73.357 104.242C70.5546 106.027 68.9572 109.364 69.7667 112.612C69.8841 113.083 70.0221 113.09 70.1808 112.63C71.2096 109.633 74.0708 108.107 77.1296 107.782C77.9268 107.698 78.6693 107.739 79.3573 107.906C79.4521 107.931 79.5468 107.933 79.6416 107.912C80.241 107.779 80.7199 108.116 81.2915 108.187C81.582 108.222 81.8611 108.288 82.1288 108.385C83.0022 108.7 83.8859 109.027 84.7799 109.364C85.7439 109.729 87.9592 110.804 88.2497 111.876C88.2614 111.919 88.261 111.963 88.2485 112.005C88.2359 112.047 88.2118 112.085 88.1788 112.113C88.1458 112.142 88.1054 112.161 88.0622 112.168C88.0189 112.174 87.9747 112.169 87.9345 112.151C87.4999 111.964 87.1342 111.713 86.8376 111.397C86.1538 110.677 85.3762 110.113 84.5049 109.707C82.3853 108.721 80.1885 108.27 77.9144 108.354C74.732 108.471 72.4229 109.984 70.9872 112.893C70.7565 113.365 70.6288 113.828 70.604 114.283C70.5999 114.376 70.5773 114.465 70.5361 114.549C70.2951 115.043 70.0355 115.581 70.2765 116.131C70.6875 117.061 71.6607 117.166 72.5413 116.959C73.6948 116.689 74.7629 116.498 75.7454 116.384C76.9298 116.246 78.2759 116.278 79.7837 116.48C82.1567 116.799 84.1547 116.897 85.7778 116.774C87.3495 116.656 88.4083 115.871 88.9541 114.419C89.0777 114.088 89.2343 114.071 89.4238 114.37L89.6246 114.688C89.7544 114.892 89.7709 115.106 89.674 115.331C89.2538 116.313 88.9201 117.528 87.573 117.382C87.4618 117.37 87.365 117.402 87.2826 117.478C87.1054 117.643 86.9087 117.737 86.6924 117.759C85.1578 117.92 83.9631 117.94 83.1083 117.818C82.5851 117.744 82.1412 117.7 81.7766 117.685C79.4747 117.599 77.454 117.067 75.1182 117.531C73.8205 117.79 71.6175 118.396 70.3847 117.833C69.1653 117.277 68.7862 116.283 69.2476 114.852C69.2554 114.828 69.2565 114.803 69.251 114.779C69.2455 114.755 69.2335 114.733 69.2163 114.715C69.1992 114.697 69.1775 114.685 69.1536 114.678C69.1297 114.672 69.1046 114.672 69.0808 114.679C67.9932 114.985 66.2784 116.82 65.4102 117.772C64.9282 118.3 64.4585 118.77 64.4554 119.554C64.4513 120.838 64.3401 122.133 64.1217 123.441C64.0661 123.794 64.1619 124.137 64.1434 124.483C64.0569 125.974 64.0342 127.355 64.0754 128.626C64.0939 129.195 63.7479 129.676 64.063 130.199C64.1304 130.311 64.1504 130.447 64.1187 130.576C64.0136 131 63.9796 131.444 64.0167 131.907C64.0661 132.559 63.8251 133.146 63.8746 133.823C63.9034 134.249 64.0486 134.294 64.3102 133.956C64.9797 133.093 65.7572 132.353 66.643 131.737C67.574 131.091 68.6009 130.43 69.7235 129.757C70.2343 129.45 70.6947 129.05 71.1046 128.558C72.118 127.334 73.2097 126.297 74.3797 125.447C76.8639 123.636 80.3059 122.249 83.3153 122.904C84.1722 123.089 85.0342 123.338 85.9014 123.651C92.4517 126.009 94.0399 132.513 94.2685 138.788C94.3334 140.562 94.0368 142.582 93.1284 144.133C92.8647 144.58 92.6031 145.057 92.3436 145.564C91.9944 146.241 90.2858 146.553 89.5504 146.645C85.1661 147.199 80.9702 146.352 77.8557 143.111C77.3768 142.613 77.1234 142.066 76.6476 141.581C76.4664 141.396 76.3005 141.196 76.1502 140.982C75.1089 139.505 74.1789 138.047 72.8349 136.817C72.1829 136.221 71.3363 135.875 70.4434 135.899C69.4217 135.932 68.4124 135.922 67.4154 135.868C66.5791 135.825 66.0333 135.396 65.7778 134.58C65.7708 134.557 65.7575 134.536 65.7393 134.52C65.7212 134.503 65.699 134.492 65.6751 134.488C65.6512 134.484 65.6265 134.486 65.6038 134.494C65.5811 134.503 65.5611 134.518 65.5461 134.537C65.1547 135.025 64.7912 135.512 64.4554 135.998C64.029 136.61 63.9549 137.389 63.9302 138.112C63.7345 143.638 63.5491 148.611 63.374 153.029C63.3452 153.748 63.3071 154.504 63.2597 155.297C63.2164 155.997 63.2134 156.749 63.2504 157.552C63.304 158.71 63.2164 159.883 62.9878 161.072C62.9801 161.113 62.9817 161.156 62.9924 161.197C63.0031 161.238 63.0227 161.277 63.0498 161.309C63.0769 161.342 63.1109 161.368 63.1493 161.387C63.1877 161.405 63.2296 161.414 63.2721 161.414C65.6573 161.41 68.0571 161.405 70.4712 161.399C71.7895 161.397 73.8308 161.36 76.5951 161.288C78.8012 161.23 80.8456 161.206 82.7283 161.217C83.3998 161.219 84.0867 161.285 84.7891 161.414C84.8151 161.419 84.84 161.428 84.8623 161.443C84.8846 161.457 84.9039 161.475 84.9191 161.497C84.9343 161.519 84.9451 161.544 84.9509 161.57C84.9567 161.596 84.9574 161.623 84.9529 161.649C84.9282 161.779 84.8097 161.865 84.5976 161.906ZM64.9467 88.8052C64.8808 88.9617 64.8478 89.1512 64.8478 89.3737C64.8499 90.8939 64.7376 92.343 64.511 93.721C64.3215 94.8807 64.1835 96.1464 64.097 97.5183C64.0229 98.7048 63.9158 99.9829 63.7757 101.353C63.5635 103.406 63.3575 105.809 63.1577 108.561C63.1268 108.978 62.8642 109.383 62.9415 109.769C62.993 110.035 63.0022 110.312 62.9693 110.6C62.753 112.436 62.5892 114.274 62.3173 116.103C62.1999 116.907 62.0887 118.989 62.9693 119.486C63.0093 119.509 63.0544 119.52 63.1003 119.521C63.1461 119.521 63.1911 119.509 63.2311 119.487C63.271 119.465 63.3045 119.434 63.3285 119.395C63.3524 119.356 63.366 119.312 63.3678 119.267C63.4976 116.2 63.7664 113.328 64.1743 110.65C64.2258 110.31 64.336 109.989 64.5049 109.686C64.5564 109.591 64.5656 109.492 64.5327 109.389C64.3967 108.973 64.338 108.561 64.3566 108.153C64.4307 106.404 64.5636 104.31 64.7551 101.869C64.9035 99.9633 65.0435 97.9076 65.1753 95.7015C65.5317 89.7012 66.0065 83.8935 66.5997 78.2784C66.7357 77.0033 66.9025 75.8138 67.1003 74.7097C67.2774 73.723 67.4134 72.7199 67.5081 71.7003C67.6255 70.4458 67.8943 69.281 68.0025 67.9988C68.0602 67.2984 68.1776 66.6681 68.3547 66.1078C68.5319 65.5537 68.6256 64.9842 68.6359 64.3992C68.6503 63.6391 68.7399 62.8234 68.9047 61.9521C69.4052 59.2887 69.7945 56.6192 70.36 53.9342C70.4465 53.5201 70.3754 53.0845 70.4928 52.6952C70.5567 52.4768 70.6092 52.2564 70.6504 52.034C71.0181 49.9886 71.5928 47.9709 71.9635 45.9904C72.3199 44.0933 72.7689 42.0798 73.3107 39.9499C74.6908 34.5161 75.9854 29.66 77.1945 25.3817C77.2398 25.2231 77.3449 25.1479 77.5097 25.1562L77.59 25.1593C77.6868 25.1634 77.729 25.2139 77.7167 25.3107C77.4592 27.4982 77.0071 29.6095 76.3603 31.6447C76.3469 31.6867 76.3442 31.7314 76.3522 31.7748C76.3602 31.8181 76.3788 31.8589 76.4062 31.8934C76.4337 31.9279 76.4693 31.9551 76.5097 31.9726C76.5502 31.9901 76.5944 31.9974 76.6383 31.9938C78.5478 31.8424 80.4789 31.5705 82.2246 30.8753C84.4431 29.9917 86.3525 28.8587 87.953 27.4766C88.4948 27.009 89.0427 26.5198 89.5968 26.009C90.5711 25.1109 91.4167 24.2076 92.1335 23.2992C92.9554 22.2631 93.6361 21.2291 94.1758 20.1971C96.4396 15.8694 97.4396 11.1843 97.176 6.14181C97.1742 6.10997 97.1654 6.07891 97.1502 6.05086C97.1351 6.02281 97.1139 5.99847 97.0882 5.97957C97.0625 5.96067 97.0329 5.94769 97.0016 5.94155C96.9703 5.93541 96.9381 5.93627 96.9072 5.94406C90.8142 7.47967 85.8582 11.8208 82.2432 16.9251C82.0361 17.2155 81.7519 17.4349 81.5881 17.7469C81.2709 18.3525 80.9032 18.8881 80.4851 19.3536C79.6447 20.2836 79.2801 21.4114 78.3871 22.363C78.3068 22.4475 78.2121 22.4938 78.1029 22.5021C78.074 22.5043 78.045 22.4993 78.0186 22.4875C77.9922 22.4756 77.9691 22.4573 77.9516 22.4343C77.9341 22.4112 77.9226 22.3841 77.9183 22.3555C77.9139 22.3268 77.9169 22.2976 77.9268 22.2703C78.486 20.7378 79.243 19.403 80.0371 17.9663C80.4171 17.2804 80.9177 16.7768 81.3533 16.131C84.4863 11.4902 89.1148 7.33754 94.5558 5.64436C95.353 5.39718 96.1934 5.44661 97.0215 5.39409C97.1471 5.38585 97.2172 5.3189 97.2316 5.19325C97.2975 4.6165 97.177 4.19938 96.8701 3.9419C94.5569 2.00359 91.5423 0.916 87.8264 0.679119C87.6121 0.66676 87.2372 0.721345 86.7017 0.842875C86.3062 0.931448 85.9323 0.918058 85.5801 0.802707C85.5163 0.780049 85.4514 0.779021 85.3855 0.799619C84.7098 1.00766 84.0455 1.20438 83.3926 1.38976C78.4798 2.78633 74.1418 7.0193 71.8214 11.6601C68.9881 17.3391 67.5792 25.3261 72.1644 30.4026C72.1846 30.4242 72.2102 30.4403 72.2385 30.449C72.2668 30.4577 72.2969 30.4588 72.3255 30.4522C72.3542 30.4456 72.3804 30.4315 72.4015 30.4114C72.4226 30.3913 72.4378 30.3658 72.4455 30.3377L73.5733 26.1758C73.6495 25.8936 73.8328 25.7649 74.1233 25.7896C74.3046 25.804 74.457 25.9142 74.5806 26.1202C74.6166 26.1797 74.6399 26.2458 74.649 26.3145C74.658 26.3831 74.6526 26.4527 74.6331 26.5188C73.4404 30.4881 72.4486 34.3338 71.6577 38.0559C70.4279 43.842 69.3867 50.0195 68.5339 56.5883C68.4062 57.5749 68.2703 58.6172 68.1261 59.7151C68.0045 60.6379 67.9015 61.6874 67.8171 62.8636C67.6502 65.2633 67.3402 67.9504 66.8871 70.9248C66.7738 71.6581 66.7099 72.346 66.6955 72.9887C66.6862 73.3533 66.5132 73.6098 66.5348 73.9713C66.5781 74.6819 66.3711 75.3956 66.3124 76.1063C66.2918 76.337 66.2269 76.7356 66.1177 77.302C66.0395 77.7057 66.0168 78.1136 66.0498 78.5256C66.0536 78.5637 66.0484 78.6024 66.0344 78.6384C66.0205 78.6743 65.9982 78.7066 65.9694 78.7326L65.8922 78.8036C65.7995 78.8902 65.8046 78.9695 65.9076 79.0415C66.025 79.1281 66.0281 79.2156 65.9169 79.3042C65.8781 79.3353 65.8521 79.3796 65.8441 79.4287C65.8362 79.4778 65.8467 79.5281 65.8736 79.5699C65.9643 79.7079 65.9632 79.8439 65.8705 79.9777C65.817 80.0581 65.7871 80.1456 65.7809 80.2404C65.7356 80.986 65.6512 81.6967 65.5276 82.3723C65.4967 82.5371 65.4884 82.7039 65.5029 82.8728C65.5193 83.05 65.509 83.2271 65.472 83.4043C65.4184 83.6597 65.3855 83.9162 65.3731 84.1736C65.3195 85.1871 65.2021 86.2057 65.0209 87.2294C64.9622 87.56 65.1012 87.8381 64.9251 88.1285C64.888 88.1903 64.8726 88.2573 64.8787 88.3294C64.887 88.4076 64.9076 88.4808 64.9405 88.5487C64.9817 88.6332 64.9838 88.7187 64.9467 88.8052ZM172.195 49.4046C171.977 49.454 171.759 49.4767 171.54 49.4726C168.627 49.4324 165.815 49.0029 163.05 47.9802C162.423 47.7475 161.743 47.6228 161.007 47.6064C155.844 47.4982 145.008 47.1398 143.059 41.1549C142.101 38.2166 142.481 34.2432 143.04 31.0916C143.051 31.0319 143.029 30.9876 142.975 30.9587L142.11 30.5107C142.049 30.4798 142.01 30.4984 141.996 30.5663C141.252 34.3256 139.97 37.9797 138.149 41.5288C136.984 43.806 134.537 47.2325 131.787 47.5353C131.706 47.5436 131.628 47.575 131.564 47.6258C131.499 47.6767 131.45 47.7449 131.423 47.8226C130.19 51.2739 130.258 54.7684 130.446 58.4205C130.452 58.5344 130.5 58.6422 130.58 58.7231C130.661 58.8041 130.768 58.8526 130.882 58.8592C131.156 58.8757 131.388 58.8181 131.577 58.6862C131.678 58.6141 131.742 58.5183 131.769 58.3989C132.158 56.6315 133.086 55.0444 134.553 53.6376C136.107 52.1514 137.812 51.7435 139.808 51.1843C140.26 51.0586 140.708 51.0319 141.152 51.104C141.674 51.1884 142.178 51.2667 142.666 51.3388C146.723 51.9382 149.779 54.9816 150.205 59.1775C150.208 59.205 150.217 59.2315 150.232 59.2551C150.246 59.2788 150.265 59.299 150.288 59.3143C150.311 59.3296 150.337 59.3397 150.365 59.3438C150.392 59.348 150.42 59.346 150.446 59.3382C152.36 58.7717 154.316 58.679 156.314 59.0601C156.345 59.0658 156.377 59.065 156.408 59.0576C156.438 59.0502 156.467 59.0364 156.492 59.0172C156.517 58.998 156.538 58.9737 156.553 58.946C156.568 58.9182 156.577 58.8876 156.58 58.8562C156.726 57.1362 157.396 55.545 158.591 54.0825C159.751 52.6591 160.943 51.7662 162.169 51.4037C162.921 51.1812 163.609 50.9175 164.233 50.6127C164.633 50.417 165.065 50.3243 165.531 50.3346C170.74 50.4644 174.043 52.5283 175.807 57.4967C175.822 57.5408 175.848 57.5808 175.881 57.6133C175.915 57.6458 175.955 57.6699 176 57.6838C176.044 57.6976 176.092 57.7008 176.138 57.693C176.184 57.6851 176.227 57.6666 176.264 57.6388L179.03 55.6088C179.124 55.5399 179.196 55.444 179.235 55.3338C179.274 55.2235 179.279 55.104 179.249 54.9909C178.837 53.4501 178.533 51.9433 178.338 50.4706C178.292 50.1224 178.191 49.7877 178.035 49.4664C177.985 49.365 177.898 49.2856 177.791 49.2439C177.016 48.9514 176.386 48.3994 175.9 47.5878C175.855 47.5131 175.785 47.4567 175.703 47.4289C175.621 47.4012 175.532 47.4038 175.452 47.4364C174.552 47.8051 173.582 48.0121 172.541 48.0575C172.323 48.0678 172.26 48.1718 172.353 48.3695C172.481 48.6455 172.502 48.9216 172.418 49.1976C172.383 49.3109 172.309 49.3799 172.195 49.4046ZM67.5236 52.2533C66.9211 51.2152 66.0405 50.2203 64.888 49.7939C63.4132 49.246 61.963 49.0153 60.5376 49.1018C57.4911 49.2841 53.805 50.0596 51.3889 51.9135C49.9325 53.0299 48.742 54.3111 47.8171 55.7571C47.642 56.029 47.6966 56.0877 47.9808 55.9333C49.3115 55.2144 50.7781 54.5552 52.3807 53.9558C54.6516 53.1061 56.5055 53.2359 58.6158 54.1134C60.8064 55.0218 63.5378 55.717 65.8736 55.0959C67.1446 54.7561 67.8016 53.9949 67.8449 52.8126C67.8468 52.7114 67.8091 52.6138 67.7398 52.5407C67.6554 52.4521 67.5833 52.3563 67.5236 52.2533ZM158.171 57.5677C156.845 63.2343 161.301 68.5796 167.02 69.04C171.485 69.3984 174.269 66.0584 174.763 61.915C175.088 59.1857 174.366 56.7191 172.597 54.5151C171.602 53.275 170.358 52.4624 168.865 52.0772C168.008 51.8568 167.155 51.7075 166.306 51.6292C164.894 51.4995 162.883 52.2379 161.696 52.9053C159.826 53.962 158.651 55.5161 158.171 57.5677ZM148.946 61.4375C149.084 60.413 149.014 59.3704 148.738 58.3693C148.463 57.3681 147.987 56.4281 147.339 55.6028C146.692 54.7775 145.884 54.0831 144.963 53.5593C144.041 53.0355 143.024 52.6925 141.969 52.5499C140.915 52.4073 139.843 52.4679 138.816 52.7282C137.788 52.9885 136.825 53.4435 135.981 54.0671C135.138 54.6907 134.43 55.4708 133.898 56.3628C133.367 57.2548 133.022 58.2412 132.883 59.2657C132.745 60.2903 132.815 61.3328 133.091 62.334C133.367 63.3351 133.842 64.2751 134.49 65.1004C135.137 65.9257 135.945 66.6201 136.867 67.1439C137.788 67.6677 138.805 68.0107 139.86 68.1533C140.914 68.2959 141.986 68.2353 143.013 67.975C144.041 67.7147 145.004 67.2597 145.848 66.6361C146.691 66.0125 147.399 65.2324 147.931 64.3404C148.463 63.4485 148.807 62.462 148.946 61.4375ZM157.939 88.9041C157.937 88.9562 157.917 89.0059 157.882 89.044C157.846 89.082 157.799 89.1059 157.748 89.1111C155.309 89.3582 153.066 89.6909 151.018 90.1091C150.936 90.1256 150.859 90.1591 150.791 90.2074C150.724 90.2556 150.667 90.3175 150.624 90.3891C150.582 90.4607 150.554 90.5404 150.545 90.6231C150.535 90.7058 150.542 90.7896 150.567 90.8691C150.759 91.4902 150.867 92.0587 150.811 92.7168C150.684 94.2184 151.154 95.7077 151.627 97.1135C153.101 101.516 156.595 103.389 161.103 103.553C162.961 103.619 164.75 103.483 166.47 103.145C170.013 102.449 172.456 100.389 173.799 96.9652C174.374 95.4966 174.573 94.1484 174.398 92.9207C173.984 90.0102 173.716 87.1738 173.595 84.4115C173.552 83.4043 174.095 83.324 174.627 82.6936C176.613 80.3392 178.225 77.9004 179.465 75.3771C180.31 73.6633 180.998 72.2904 181.529 71.2584C181.554 71.207 181.569 71.1524 181.573 71.0947C181.588 70.8228 181.22 70.6034 181.125 70.3006C181.048 70.0658 181.129 69.8773 181.366 69.7352C181.439 69.6905 181.525 69.6689 181.611 69.6733C181.698 69.6777 181.781 69.7079 181.851 69.7599C182.262 70.0658 182.676 70.3717 183.216 70.3531C184.885 70.2934 186.404 69.7434 187.774 68.7032C190.793 66.4168 193.215 63.7133 192.739 59.6441C192.563 58.1424 191.584 55.8622 190.199 54.9075C188.069 53.4429 185.919 53.2009 183.748 54.1814C183.67 54.2164 183.639 54.2761 183.655 54.3606C183.888 55.5862 184.001 56.5759 183.995 57.3298C183.995 57.3447 184 57.3593 184.008 57.3718C184.016 57.3844 184.027 57.3944 184.041 57.4008C184.054 57.4073 184.069 57.4098 184.084 57.4082C184.099 57.4065 184.113 57.4008 184.125 57.3916C185.381 56.4194 186.541 56.3256 187.604 57.1104C188.306 57.6295 188.718 58.4658 188.84 59.6193C188.994 61.0674 188.558 62.3291 187.53 63.4043C186.016 64.9904 184.191 65.5177 182.055 64.9862C181.746 64.908 181.588 64.7133 181.582 64.4023C181.581 64.3694 181.587 64.3368 181.599 64.3063C181.611 64.2757 181.63 64.2479 181.653 64.2246C181.677 64.2012 181.704 64.1827 181.735 64.1703C181.766 64.1578 181.799 64.1516 181.832 64.152C184.146 64.1891 186.062 63.7225 187.224 61.535C187.473 61.0674 187.575 60.5957 187.53 60.1199C187.258 57.2402 185.555 57.543 183.837 59.0663C182.045 60.6575 180.207 58.161 179.713 56.6871C179.703 56.6589 179.687 56.6333 179.665 56.6124C179.644 56.5915 179.618 56.5759 179.589 56.5669C179.561 56.5579 179.53 56.5557 179.501 56.5605C179.471 56.5653 179.443 56.5769 179.419 56.5945L176.391 58.8345C176.311 58.8936 176.248 58.9727 176.209 59.0638C176.169 59.155 176.154 59.2549 176.166 59.3536C176.62 63.3363 175.044 67.628 171.342 69.6023C169.711 70.4737 167.863 70.7672 165.799 70.4829C161.047 69.831 156.95 65.7803 156.552 60.8274C156.547 60.7676 156.528 60.7097 156.495 60.659C156.462 60.6083 156.417 60.5664 156.363 60.537C154.757 59.6719 152.591 60.0426 150.833 60.3856C150.678 60.4159 150.536 60.4951 150.428 60.6117C150.321 60.7282 150.252 60.8763 150.233 61.0344C150.171 61.5556 150.111 62.0891 150.051 62.6349C149.903 64.0006 149.195 65.289 148.284 66.2778C145.148 69.6919 140.603 70.6034 136.444 68.558C132.974 66.8525 131.241 63.531 131.621 59.6441C131.621 59.6334 131.62 59.6227 131.615 59.6129C131.611 59.603 131.605 59.5943 131.597 59.5874C131.589 59.5805 131.579 59.5756 131.569 59.5731C131.558 59.5706 131.548 59.5705 131.537 59.573L130.499 59.8356C130.46 59.8459 130.441 59.8717 130.443 59.9129L130.925 68.5055C130.93 68.582 130.953 68.6563 130.991 68.7224C131.03 68.7884 131.084 68.8443 131.148 68.8855C131.395 69.0482 131.674 69.1512 131.985 69.1945C132.111 69.211 132.188 69.281 132.217 69.4046C132.225 69.4437 132.216 69.4777 132.189 69.5066C132.144 69.5581 132.089 69.591 132.025 69.6054C131.764 69.6693 131.503 69.7342 131.244 69.8001C131.202 69.811 131.163 69.8303 131.129 69.857C131.096 69.8836 131.068 69.9169 131.048 69.9547C131.028 69.9925 131.016 70.034 131.013 70.0766C131.01 70.1191 131.016 70.1617 131.03 70.2018C131.201 70.6776 131.28 71.1297 131.265 71.5582C131.249 72.0154 131.271 72.4851 131.333 72.9671C131.653 75.4265 131.95 77.0569 132.226 77.8582C133.266 80.8717 135.058 83.2889 137.602 85.1098C139.293 86.319 141.283 87.3468 143.572 88.1934C145.175 88.7866 147.097 89.0771 148.778 89.0956C149.394 89.1018 149.928 89.1409 150.382 89.213C150.915 89.2975 151.441 89.315 151.96 89.2656C153.983 89.0678 155.939 88.8845 157.828 88.7156C157.906 88.7073 157.943 88.7434 157.939 88.8237V88.9041ZM125.191 59.0539C125.178 59.0715 125.17 59.0926 125.169 59.1145C125.168 59.1364 125.174 59.158 125.185 59.1769C125.196 59.1957 125.213 59.2107 125.232 59.2202C125.252 59.2297 125.274 59.2331 125.296 59.23L128.531 58.8345C128.797 58.8036 128.92 58.6543 128.902 58.3865L128.812 57.129C128.781 56.6717 128.555 56.5337 128.132 56.715C126.95 57.2258 125.969 58.0054 125.191 59.0539ZM124.465 60.9881C123.695 64.6896 126.133 67.4735 129.418 68.5642C129.447 68.5742 129.478 68.5763 129.508 68.5705C129.538 68.5647 129.567 68.551 129.59 68.5308C129.614 68.5106 129.632 68.4846 129.643 68.4553C129.654 68.4259 129.657 68.3943 129.652 68.3633C129.488 67.352 129.388 66.3056 129.353 65.2242C129.297 63.4166 128.88 61.7698 129.041 59.9592C129.044 59.9174 129.039 59.8753 129.025 59.8358C129.011 59.7963 128.989 59.7603 128.96 59.7304C128.93 59.7004 128.895 59.6772 128.857 59.6623C128.818 59.6474 128.776 59.6412 128.735 59.6441C127.46 59.7244 126.134 59.9087 124.758 60.1971C124.659 60.2177 124.601 60.2775 124.582 60.3763C124.547 60.5741 124.508 60.778 124.465 60.9881ZM83.3771 78.1054C83.7335 78.5585 83.6614 78.643 83.1608 78.3587C80.5345 76.8664 77.7259 75.5687 74.8092 77.2866C73.2067 78.23 72.1407 79.5905 71.6113 81.3681C71.5644 81.526 71.5808 81.6958 71.657 81.8413C71.7332 81.9868 71.8632 82.0965 72.0192 82.1468C72.807 82.4001 74.6207 81.8594 75.4704 81.6586C76.8217 81.3352 77.9783 81.6761 78.9402 82.6813C79.5952 83.3672 80.2822 84.0645 81.0011 84.773C83.5553 87.2943 86.3834 87.6661 89.4856 85.8885C89.5618 85.8431 89.6143 85.7793 89.6431 85.6969C90.5114 83.1726 90.9934 79.3073 89.5844 76.9621C89.2785 76.4492 89.1272 75.924 88.7471 75.4729C86.1795 72.3986 82.821 71.8146 79.0298 72.1946C75.8721 72.5098 73.598 73.8384 71.7936 76.3195C71.4125 76.8447 71.2251 77.4534 71.2313 78.1455C71.2315 78.1538 71.2337 78.1619 71.2379 78.1691C71.242 78.1762 71.2479 78.1823 71.255 78.1866C71.2621 78.1909 71.2701 78.1933 71.2784 78.1937C71.2867 78.1941 71.2949 78.1924 71.3023 78.1888C71.9862 77.8262 72.6268 77.4287 73.2242 76.9961C75.8041 75.1299 78.7795 74.9569 81.548 76.6593C82.169 77.0394 82.9384 77.543 83.3771 78.1054ZM43.7139 86.7752C43.4482 87.8103 42.7561 88.1656 42.3946 89.0616C42.0753 89.8588 41.7766 90.725 41.4985 91.6601C41.412 91.9464 41.378 92.2379 41.3966 92.5345C41.4522 93.48 41.8013 94.2926 42.8055 94.5367C46.1702 95.3555 48.123 93.4213 49.7266 90.7425C50.8183 88.9174 52.3662 88.0327 54.3705 88.0884C55.319 88.1131 56.1811 88.6476 57.1512 88.6013C58.6467 88.5271 59.9567 88.3139 61.032 87.2047C61.0979 87.1347 61.1154 87.0554 61.0845 86.9668C60.6149 85.6783 58.7703 84.5846 57.4942 83.7349C57.4716 83.7201 57.4462 83.7102 57.4196 83.7058C57.3929 83.7014 57.3657 83.7026 57.3395 83.7093C57.3134 83.7159 57.2889 83.728 57.2677 83.7446C57.2464 83.7613 57.2289 83.7822 57.2161 83.806C57.1358 83.9646 57.0132 84.0264 56.8484 83.9913C56.731 83.9666 56.6311 83.9089 56.5487 83.8183C55.1893 82.3538 51.7009 82.7091 49.983 83.1324C49.2209 83.3198 48.4639 83.4918 47.712 83.6484C47.69 83.6519 47.6674 83.6483 47.6475 83.6381C47.6276 83.6279 47.6115 83.6116 47.6016 83.5916C47.5916 83.5716 47.5882 83.549 47.592 83.527C47.5957 83.505 47.6064 83.4847 47.6224 83.4692C48.9788 82.2364 51.5186 81.9181 53.2952 81.949C53.4044 81.9511 53.5094 81.9768 53.6104 82.0263C53.8174 82.1313 54.0831 81.9923 54.3457 82.0232C54.7866 82.0788 55.2129 82.1704 55.6249 82.2982C55.9936 82.4156 56.0976 82.2981 55.937 81.9459C54.9606 79.8016 53.5022 77.9601 50.9068 77.9261C49.3908 77.9076 47.9345 78.2444 46.5379 78.9365C43.2195 80.5802 41.5387 83.2879 41.4954 87.0595C41.4924 87.5631 41.344 88.1131 41.6561 88.6445C41.6726 88.672 41.6967 88.6942 41.7254 88.7086C41.754 88.723 41.7861 88.7289 41.8177 88.7257C41.8494 88.7224 41.8792 88.7101 41.9037 88.6902C41.9282 88.6703 41.9463 88.6437 41.9558 88.6136C42.2463 87.7547 42.7283 87.0729 43.4018 86.5682C43.7046 86.3416 43.8086 86.4106 43.7139 86.7752ZM149.943 95.1948C149.902 94.96 149.767 94.8735 149.538 94.9353C149.112 95.0527 148.846 95.1248 148.741 95.1516C148.649 95.1766 148.568 95.2338 148.514 95.313C148.46 95.3921 148.435 95.4882 148.444 95.5841C148.687 97.9055 149.425 100.117 150.657 102.218C152.999 106.21 156.926 107.115 161.319 107.183C164.965 107.236 168.781 106.809 171.806 104.971C175.65 102.638 178.131 99.1157 178.183 94.5058C178.185 94.2977 178.088 94.1628 177.893 94.101L175.705 93.4058C175.51 93.344 175.423 93.4141 175.446 93.6159C175.524 94.3637 175.48 95.0558 175.313 95.6923C174.495 98.8356 172.772 101.191 170.144 102.759C167.19 104.52 162.827 104.965 159.277 104.588C155.464 104.186 152.701 102.292 150.987 98.9056C150.579 98.0981 150.231 96.8612 149.943 95.1948ZM190.641 95.8622L190.416 95.0712C190.379 94.9373 190.292 94.8766 190.156 94.8889C189.647 94.9342 189.202 94.8137 188.821 94.5274C188.576 94.342 188.378 94.3843 188.228 94.6541C187.987 95.0887 187.679 95.4811 187.304 95.8313C187.003 96.1135 187.027 96.3648 187.375 96.5852C189.204 97.7346 191.315 98.8963 192.934 100.012C194.769 101.281 196.523 102.629 198.196 104.056C198.216 104.073 198.242 104.084 198.268 104.086C198.295 104.089 198.322 104.083 198.345 104.07C198.368 104.057 198.387 104.037 198.399 104.013C198.411 103.989 198.416 103.962 198.412 103.936C198.34 103.445 198.311 102.946 198.325 102.437C198.381 100.311 198.382 98.3453 198.328 96.5388C198.327 96.5072 198.319 96.4762 198.304 96.4482C198.289 96.4202 198.268 96.396 198.243 96.3773C198.217 96.3585 198.188 96.3458 198.156 96.3401C198.125 96.3344 198.093 96.3358 198.063 96.3442C195.609 97.0178 193.456 97.3113 191.083 96.3566C190.976 96.3132 190.881 96.2461 190.804 96.1604C190.728 96.0747 190.672 95.9727 190.641 95.8622ZM140.871 144.276C140.902 144.303 140.926 144.337 140.943 144.374C140.961 144.411 140.971 144.452 140.972 144.493C140.974 144.534 140.968 144.575 140.954 144.613C140.939 144.652 140.918 144.687 140.89 144.717C140.441 145.197 139.992 145.691 139.543 146.197C136.679 149.42 135.165 153.69 135.73 158.019C135.732 158.04 135.741 158.06 135.753 158.076C135.766 158.093 135.783 158.106 135.803 158.114C135.823 158.122 135.844 158.125 135.865 158.123C135.887 158.12 135.907 158.112 135.925 158.099C136.271 157.831 136.656 157.595 137.08 157.389C140.073 155.932 142.774 154.787 145.182 153.953C152.013 151.583 159.166 150.619 166.093 151.543C167.242 151.694 169.804 152.386 170.19 153.638C170.217 153.722 170.273 153.794 170.349 153.84C170.424 153.887 170.514 153.905 170.601 153.891C172.133 153.65 173.518 153.239 173.66 155.42C173.757 156.957 173.919 158.63 174.148 160.438C174.763 165.286 175.517 170.622 175.968 175.822C175.971 175.857 175.982 175.89 175.999 175.921C176.016 175.951 176.039 175.977 176.067 175.998C176.095 176.019 176.127 176.033 176.161 176.041C176.195 176.048 176.23 176.049 176.264 176.041C177.41 175.796 178.449 175.601 179.382 175.454C180.745 175.238 181.684 176.953 181.798 178.078C181.801 178.105 181.812 178.131 181.83 178.152C181.847 178.173 181.87 178.189 181.896 178.198C181.922 178.206 181.949 178.207 181.975 178.2C182.001 178.193 182.025 178.178 182.042 178.158C182.343 177.814 182.66 177.515 182.994 177.262C184.388 176.207 185.852 175.131 187.385 174.033C188.604 173.16 189.827 172.394 191.055 171.737C191.177 171.672 191.274 171.569 191.331 171.444C191.389 171.319 191.405 171.178 191.376 171.042C190.8 168.329 190.469 165.549 190.385 162.7C190.357 161.835 190.144 161.01 190.292 160.151C190.298 160.12 190.297 160.089 190.29 160.058C190.283 160.028 190.269 159.999 190.25 159.974C190.231 159.949 190.208 159.927 190.18 159.912C190.153 159.896 190.123 159.886 190.091 159.882C189.374 159.795 188.216 159.814 187.956 158.989C187.806 158.509 187.653 158.002 187.499 157.469C187.36 156.99 187.375 156.523 187.258 156.06C187.171 155.716 187.1 155.367 187.045 155.012C186.192 149.416 185.405 143.556 184.684 137.432C184.457 135.496 184.269 133.098 184.119 130.239C184.115 130.164 184.127 130.09 184.156 130.023C184.265 129.755 184.394 129.628 184.542 129.643C184.67 129.653 184.748 129.721 184.777 129.846C185.209 131.758 185.546 133.84 185.787 136.094C185.867 136.848 186.059 137.546 186.133 138.3C186.187 138.877 186.256 139.428 186.34 139.953C187.335 146.188 188.04 152.578 188.963 158.665C188.971 158.712 188.994 158.755 189.029 158.786C189.064 158.818 189.108 158.836 189.155 158.838C192.364 158.99 195.478 158.655 198.495 157.833C199.855 157.461 201.174 157.075 202.453 156.678C203.028 156.499 203.593 156.471 204.153 156.251C204.528 156.105 204.892 155.979 205.246 155.871C207.677 155.136 210.032 154.394 212.313 153.644C213.411 153.281 214.528 152.748 215.665 152.043C216.098 151.774 216.493 151.512 216.558 150.953C216.63 150.351 216.56 149.787 216.348 149.259C215.727 147.718 215.297 146.092 214.788 144.619C213.432 140.693 212.153 136.878 210.95 133.174C208.886 126.818 206.748 120.586 204.184 114.762C202.5 110.937 200.136 107.381 196.814 104.588C193.675 101.949 190.472 99.7985 187.205 98.1362C186.521 97.7902 185.848 97.4472 185.185 97.1074C184.548 96.7819 183.913 96.5121 183.278 96.2978C182.04 95.8838 180.845 95.3792 179.691 94.7839C179.662 94.7689 179.629 94.7615 179.597 94.7623C179.564 94.763 179.532 94.7719 179.503 94.7881C179.475 94.8044 179.451 94.8275 179.433 94.8553C179.416 94.8832 179.406 94.9149 179.404 94.9476C179.153 100.074 176.271 103.797 171.76 106.256C171.358 106.476 170.898 106.482 170.496 106.732C170.23 106.899 169.939 107.036 169.622 107.143C166.411 108.221 163.241 108.425 159.842 108.277C155.242 108.076 151.516 106.408 149.279 102.153C148.41 100.5 147.53 98.334 147.644 96.4369C147.646 96.398 147.64 96.3591 147.625 96.3232C147.609 96.2874 147.586 96.2556 147.556 96.2304C147.527 96.2052 147.491 96.1873 147.453 96.1781C147.416 96.1689 147.376 96.1686 147.338 96.1773C143.839 96.9786 140.404 98.1393 137.034 99.6595C132.887 101.532 129.418 103.971 126.624 106.976C125.726 107.944 125.059 108.898 124.622 109.837C122.768 113.841 121.931 117.558 120.667 122.91C118.692 131.275 116.745 139.581 114.828 147.829C114.809 147.914 114.823 148.002 114.867 148.077C114.911 148.151 114.983 148.205 115.066 148.227C116.396 148.592 117.843 149.087 119.407 149.714C122.628 151.003 125.63 152.428 128.41 153.99C128.526 154.054 128.582 154.02 128.58 153.888C128.508 151.183 128.407 148.64 128.277 146.259C128.123 143.466 128.111 140.803 128.104 138.084C128.104 137.505 128.142 136.934 128.216 136.372C128.284 135.865 128.319 135.351 128.321 134.83C128.323 133.87 128.412 132.848 128.59 131.762C128.641 131.455 128.822 131.323 129.133 131.367C129.313 131.391 129.407 131.494 129.418 131.676C129.457 132.532 129.466 133.373 129.445 134.197C129.362 137.651 129.377 141.133 129.588 144.581C129.742 147.142 129.867 149.676 129.961 152.185C129.965 152.313 129.973 152.437 129.983 152.556C130.043 153.228 130.077 153.954 130.085 154.734C130.085 154.799 130.099 154.864 130.126 154.923C130.153 154.982 130.193 155.035 130.243 155.077L134.009 158.297C134.65 158.847 134.842 158.719 134.587 157.914C132.835 152.42 135.56 147.007 140.538 144.232C140.655 144.166 140.766 144.181 140.871 144.276ZM39.8115 117.753C39.4284 118.232 38.9124 118.572 38.5231 119.066C37.9422 119.804 37.3603 120.566 36.7774 121.353C35.8381 122.619 34.94 124.403 34.0831 126.704C34.0131 126.894 33.9904 127.105 34.0151 127.338C34.0205 127.383 34.0387 127.427 34.0677 127.463C34.0967 127.498 34.1352 127.525 34.1789 127.54C34.2225 127.555 34.2695 127.557 34.3143 127.547C34.3592 127.536 34.4001 127.513 34.4323 127.48C34.8648 127.031 35.3149 126.649 35.7825 126.333C36.1697 126.072 36.556 125.736 36.9411 125.326C38.4222 123.75 40.0875 122.264 41.9373 120.868C43.6645 119.564 45.7933 118.699 47.8882 118.312C49.8821 117.944 51.2797 117.646 52.081 117.419C53.1655 117.11 55.3592 116.387 55.9524 115.371C56.3561 114.683 56.2017 114.164 55.489 113.814C52.4734 112.334 48.0488 112.389 44.888 113.013C44.4307 113.104 44.3689 112.986 44.7026 112.658C45.3175 112.062 46.6183 112.167 47.437 111.957C47.8573 111.848 48.2836 111.802 48.7162 111.821C49.7544 111.868 50.7874 111.937 51.8152 112.028C52.0418 112.048 52.082 111.971 51.9357 111.796C50.6102 110.217 48.6915 109.334 46.5905 109.133C41.7117 108.663 37.763 110.912 35.4519 115.121C34.7824 116.338 34.3097 117.449 34.0337 118.455C33.667 119.783 33.3848 121.256 33.1871 122.873C33.0635 123.874 33.2025 124.85 32.9893 125.861C32.9687 125.953 33.0058 125.998 33.1006 125.993L33.2087 125.99C33.2231 125.99 33.2324 125.984 33.2365 125.972C34.458 122.297 36.6105 119.512 39.6941 117.617C39.9969 117.432 40.036 117.477 39.8115 117.753ZM62.787 120.169C62.5913 120.124 62.4286 120 62.2988 119.799C62.1237 119.527 62.03 119.552 62.0176 119.876C61.9187 122.317 61.653 124.739 61.5325 127.115C61.0649 136.343 60.6406 145.61 60.2595 154.917C60.2266 155.728 60.2091 156.547 60.207 157.373C60.207 158.191 60.2204 159.011 60.2472 159.833C60.2637 160.315 60.2183 160.682 60.1112 160.936C59.9773 161.251 60.0803 161.389 60.4202 161.35C60.8033 161.308 61.1803 161.342 61.5511 161.452C61.8806 161.548 62.0454 161.426 62.0454 161.084C62.0434 158.109 62.0681 156.224 62.1196 155.427C62.4018 150.994 62.5727 146.436 62.6325 141.754C62.651 140.262 62.994 138.692 62.7344 137.194C62.5521 136.143 62.6541 135.133 62.7499 134.058C62.9847 131.512 62.7653 128.379 62.9075 126.519C63.0414 124.749 63.1011 123.169 63.0867 121.779C63.0805 121.201 63.2566 120.719 63.1021 120.138C63.0918 120.101 63.0671 120.083 63.028 120.083C62.9827 120.081 62.9435 120.097 62.9106 120.132C62.8945 120.148 62.8747 120.16 62.8531 120.167C62.8315 120.173 62.8088 120.174 62.787 120.169ZM89.5597 140.917C89.4753 140.898 89.4176 140.85 89.3867 140.772C88.5566 138.722 87.5215 136.845 86.2815 135.139C85.5029 134.064 84.5481 133.14 83.6706 132.136C83.1454 131.533 82.512 131.082 81.9095 130.576C79.3851 128.456 76.3819 128.101 73.4126 129.738C72.3662 130.315 71.2447 131.007 70.0479 131.815C69.6184 132.105 69.1086 131.87 68.6606 132.176C67.9232 132.681 67.4123 133.263 67.1281 133.922C67.1056 133.973 67.0953 134.029 67.098 134.085C67.1006 134.141 67.1162 134.196 67.1434 134.245C67.1706 134.294 67.2087 134.336 67.2548 134.368C67.3009 134.4 67.3538 134.42 67.4092 134.429C68.1384 134.538 68.8594 134.572 69.5721 134.531C71.4383 134.419 73.1346 135.059 74.3643 136.505C75.3139 137.619 76.2696 138.878 77.2316 140.281C77.9381 141.31 78.8764 142.346 80.0463 143.386C80.5345 143.822 81.0588 144.132 81.619 144.316C82.2802 144.532 82.9054 144.803 83.4945 145.128C83.6202 145.196 83.7541 145.224 83.8962 145.212C84.7026 145.138 85.4225 145.444 86.2197 145.484C87.9582 145.564 89.6967 145.494 91.4352 145.274C91.5227 145.262 91.606 145.229 91.6777 145.178C91.7494 145.127 91.8072 145.059 91.8461 144.98C92.4455 143.772 92.8565 142.493 92.9646 141.118C93.1974 138.176 92.9873 135.276 92.3343 132.417C91.4754 128.65 89.3692 125.849 86.0158 124.016C85.5214 123.744 84.7212 123.448 84.1557 123.386C79.5242 122.888 75.2325 125.32 72.1984 128.654C72.1448 128.711 72.0861 128.767 72.0222 128.821C71.9584 128.874 71.9285 128.94 71.9326 129.018C71.9335 129.048 71.9421 129.077 71.9577 129.102C71.9733 129.127 71.9952 129.147 72.0213 129.161C72.0473 129.175 72.0766 129.182 72.1061 129.18C72.1356 129.179 72.1642 129.17 72.1891 129.154C73.3941 128.388 74.8494 127.952 76.5549 127.847C77.727 127.777 78.9526 128.051 80.2317 128.669C83.0403 130.026 85.3082 132.346 86.6708 135.062C86.9056 135.53 87.1868 135.944 87.5143 136.304C88.4927 137.381 89.2796 138.687 89.8749 140.222C89.9135 140.319 89.9294 140.425 89.9212 140.531C89.8965 140.836 89.776 140.964 89.5597 140.917ZM125.141 153.298C121.174 151.563 117.014 150.037 112.662 148.719C111.669 148.418 110.635 148.235 109.56 148.169C109.486 148.164 109.412 148.181 109.347 148.217C109.283 148.254 109.23 148.309 109.196 148.375C109.163 148.441 109.149 148.515 109.157 148.589C109.165 148.663 109.194 148.732 109.241 148.79C109.394 148.977 109.612 149.111 109.896 149.191C115.77 150.848 122.373 153.619 128.392 156.523C128.437 156.545 128.487 156.555 128.537 156.553C128.587 156.552 128.636 156.538 128.68 156.514C128.724 156.489 128.761 156.455 128.789 156.413C128.817 156.371 128.834 156.323 128.84 156.273C128.883 155.844 128.725 155.334 128.358 155.077C127.41 154.414 126.338 153.821 125.141 153.298ZM103.288 149.219C103.384 149.621 103.625 149.896 104.011 150.044C104.909 150.388 105.827 150.685 106.767 150.934C112.04 152.335 116.869 153.78 121.254 155.269C121.427 155.327 121.61 155.365 121.801 155.383C122.141 155.416 122.164 155.346 121.869 155.173C119.342 153.706 116.397 152.939 113.589 151.858C112.244 151.341 110.725 150.868 109.031 150.44C108.398 150.279 107.86 149.93 107.258 149.735C106.236 149.402 105.046 149.034 103.686 148.632C103.628 148.615 103.565 148.613 103.506 148.628C103.447 148.642 103.392 148.671 103.348 148.713C103.303 148.755 103.271 148.808 103.253 148.866C103.235 148.925 103.234 148.987 103.247 149.046L103.288 149.219ZM46.232 157.262C44.2948 154.5 42.5614 151.774 39.3233 150.563C38.6704 150.318 38.0771 150.2 37.5436 150.208C37.3191 150.21 37.1863 150.347 37.1451 150.619C37.1289 150.718 37.1407 150.82 37.1791 150.912C38.8197 154.772 42.4224 156.221 46.1177 157.534C46.1341 157.54 46.1517 157.542 46.1692 157.541C46.1867 157.539 46.2036 157.534 46.2187 157.525C46.2338 157.516 46.2467 157.504 46.2565 157.489C46.2663 157.475 46.2727 157.458 46.2753 157.441C46.2856 157.377 46.2712 157.317 46.232 157.262ZM110.576 154.45C113.397 155.059 116.153 155.909 119.021 156.403C119.733 156.526 119.754 156.452 119.082 156.18C118.629 155.997 118.167 155.832 117.695 155.686C115.492 155.006 113.258 154.225 110.975 153.591C108.655 152.951 106.005 152.153 103.025 151.2C102.378 150.994 101.693 150.819 100.97 150.674C100.682 150.617 100.54 150.734 100.544 151.027L100.553 151.629C100.557 151.895 100.686 152.068 100.939 152.148C102.107 152.523 103.229 152.83 104.304 153.069C106.461 153.553 108.551 154.013 110.576 154.45ZM104.715 188.305C104.789 189.396 104.897 190.504 105.039 191.626C105.252 193.284 105.464 194.949 105.676 196.619C105.696 196.788 105.789 196.893 105.954 196.934C111.561 198.362 117.877 200.097 124.903 202.141C127.688 202.95 130.373 203.714 132.958 204.433C132.983 204.44 133.01 204.44 133.035 204.434C133.06 204.428 133.083 204.415 133.102 204.398C133.121 204.38 133.135 204.358 133.143 204.333C133.151 204.309 133.152 204.282 133.147 204.257C132.999 203.478 132.838 202.743 132.773 201.934C132.726 201.332 132.664 200.747 132.588 200.179C131.558 192.53 130.422 182.949 129.18 171.435C129.06 170.324 128.972 169.078 128.914 167.696C128.821 165.428 128.398 163.142 128.673 160.868C128.689 160.733 128.656 160.597 128.579 160.485C128.502 160.374 128.387 160.294 128.256 160.262L99.3326 153.054C99.2781 153.04 99.2211 153.04 99.1666 153.053C99.1121 153.067 99.0617 153.093 99.0199 153.131C98.9781 153.169 98.9461 153.216 98.9268 153.269C98.9076 153.321 98.9016 153.378 98.9093 153.434L100.355 164.124C100.364 164.191 100.386 164.255 100.419 164.313C100.453 164.371 100.498 164.421 100.551 164.462C100.604 164.503 100.665 164.532 100.729 164.549C100.794 164.566 100.861 164.569 100.927 164.56C102.748 164.304 104.374 164.2 105.806 164.248C106.572 164.273 107.312 164.502 108.027 164.937C109.127 165.607 109.025 167.025 108.203 167.838C108.181 167.861 108.164 167.889 108.154 167.92C108.144 167.951 108.141 167.983 108.147 168.015C108.152 168.047 108.164 168.077 108.183 168.102C108.202 168.128 108.227 168.149 108.256 168.163C110.496 169.262 110.981 170.761 109.161 172.708C109.137 172.733 109.12 172.765 109.112 172.8C109.104 172.834 109.105 172.87 109.115 172.904C109.126 172.938 109.145 172.968 109.171 172.993C109.197 173.017 109.229 173.033 109.263 173.041C110.406 173.298 111.831 174.382 111.203 175.705C110.734 176.7 110.125 177.567 109.377 178.306C109.279 178.403 109.293 178.478 109.421 178.532C110.83 179.128 111.469 180.098 110.443 181.541C109.13 183.389 106.652 185.345 104.292 185.045C104.26 185.041 104.228 185.045 104.198 185.057C104.169 185.069 104.143 185.089 104.124 185.115C104.105 185.14 104.093 185.17 104.089 185.202C104.085 185.234 104.09 185.266 104.103 185.295C104.334 185.82 104.453 186.363 104.462 186.924C104.468 187.427 104.681 187.795 104.715 188.305ZM165.852 154.571V154.568C165.848 154.537 165.83 154.521 165.799 154.521C163.505 154.571 161.226 154.749 158.962 155.056C155.823 155.482 152.835 155.754 149.72 156.211C149.306 156.273 148.861 156.35 148.688 155.896C148.495 155.392 148.666 155 149.201 154.722C150.388 154.108 151.637 153.652 152.949 153.353C152.972 153.348 152.992 153.334 153.004 153.315C153.017 153.296 153.022 153.273 153.017 153.251L153.002 153.174C152.996 153.143 152.977 153.131 152.946 153.137C151.679 153.364 150.402 153.648 149.115 153.99C144.575 155.195 140.337 156.772 136.4 158.72C136.386 158.727 136.373 158.738 136.364 158.751C136.355 158.764 136.35 158.78 136.349 158.796C136.348 158.812 136.351 158.829 136.359 158.843C136.366 158.857 136.377 158.869 136.391 158.878C136.795 159.131 137.254 159.316 137.769 159.431C137.969 159.475 138.176 159.447 138.353 159.354C138.61 159.221 138.786 159.079 139.092 159.066C139.732 159.046 140.335 158.987 140.899 158.89C146.036 158.021 151.464 157.072 157.182 156.044C160.078 155.525 162.952 155.056 165.803 154.636C165.84 154.631 165.856 154.61 165.852 154.571ZM166.087 178.013C166.614 177.667 167.303 177.51 168.154 177.543C168.207 177.545 168.259 177.535 168.308 177.513C168.356 177.491 168.398 177.458 168.432 177.416C168.648 177.146 168.899 176.929 169.183 176.764C169.278 176.71 169.385 176.677 169.495 176.669L174.401 176.31C174.603 176.294 174.693 176.185 174.67 175.983L172.356 155.683C172.292 155.123 171.984 154.901 171.432 155.019C170.472 155.223 169.54 155.389 168.636 155.519C165.322 156.001 162.149 156.457 159.119 156.888C157.311 157.143 155.504 157.417 153.7 157.71L139.672 159.972C139.584 159.986 139.504 160.029 139.444 160.094C139.384 160.159 139.348 160.242 139.342 160.33C139.288 161.026 139.28 161.863 139.317 162.839C139.381 164.487 139.485 165.922 139.629 167.146C140.573 175.126 141.389 182.51 142.079 189.3C142.33 191.744 142.395 194.228 142.765 196.582C143.167 199.134 143.297 201.659 143.396 204.164C143.397 204.203 143.407 204.241 143.425 204.276C143.442 204.31 143.467 204.341 143.497 204.365C143.527 204.39 143.562 204.408 143.599 204.418C143.636 204.428 143.676 204.43 143.714 204.424C152.975 202.931 161.981 201.494 170.731 200.114C172.554 199.826 174.346 199.684 176.163 199.212C176.319 199.17 176.394 199.068 176.388 198.906L176.345 198.078C176.339 197.927 176.261 197.847 176.113 197.837C172.748 197.583 167.993 196.425 166.439 193.103C166.118 192.415 166.186 191.698 166.643 190.953C166.657 190.929 166.662 190.901 166.658 190.874C166.654 190.847 166.641 190.822 166.621 190.804C165.775 190.032 164.474 187.733 165.756 186.713C165.962 186.549 165.991 186.356 165.843 186.136C164.64 184.348 164.704 182.817 166.034 181.544C166.078 181.502 166.107 181.446 166.116 181.386C166.124 181.326 166.112 181.265 166.081 181.214C165.62 180.42 165.132 178.637 166.087 178.013ZM122.741 155.847C122.842 155.948 122.965 155.986 123.111 155.961C123.274 155.934 123.295 155.866 123.173 155.757C123.072 155.667 122.948 155.635 122.799 155.661C122.661 155.686 122.642 155.748 122.741 155.847ZM202.549 167.918C201.017 168.466 199.486 169.033 197.958 169.618C194.211 171.053 190.63 173.009 187.215 175.485C185.821 176.496 184.406 177.444 183.121 178.522C182.81 178.784 182.477 178.99 182.123 179.14C182.083 179.157 182.048 179.185 182.024 179.221C182 179.258 181.987 179.3 181.987 179.344C182.044 184.387 181.613 189.235 180.692 193.888C180.687 193.91 180.688 193.933 180.694 193.955C180.7 193.977 180.712 193.997 180.727 194.013C180.742 194.03 180.762 194.043 180.783 194.051C180.804 194.058 180.827 194.061 180.85 194.058C182.755 193.794 184.589 193.514 186.353 193.217C190.87 192.453 194.995 191.13 198.727 189.247C199.895 188.658 201.179 187.85 202.58 186.825C204.45 185.455 206.098 184.104 207.524 182.771C209.643 180.785 210.948 178.369 211.438 175.522C211.624 174.453 211.587 173.449 211.633 172.389C211.668 171.549 211.655 170.762 211.593 170.029C211.488 168.797 211.372 167.547 211.247 166.278C211.22 165.998 211.178 165.717 211.12 165.437C211.017 164.937 210.966 164.364 210.966 163.719C210.966 163.058 210.573 162.425 210.718 161.773C210.827 161.282 210.505 160.682 210.44 160.123C210.284 158.741 210.156 157.395 210.057 156.085C210.026 155.681 209.818 155.544 209.433 155.674C205.944 156.864 202.39 157.945 198.773 158.915C196.52 159.516 194.194 159.864 191.797 159.959C191.78 159.96 191.764 159.964 191.749 159.971C191.734 159.979 191.721 159.989 191.711 160.002C191.7 160.015 191.692 160.03 191.688 160.046C191.684 160.062 191.683 160.079 191.685 160.095C191.813 160.861 191.906 161.623 191.964 162.378C192.196 165.435 192.374 168.228 192.498 170.758C192.506 170.929 192.591 170.986 192.751 170.928C192.953 170.854 193.152 170.732 193.348 170.563C193.417 170.506 193.497 170.46 193.583 170.427C194.555 170.061 195.523 169.696 196.487 169.334C198.306 168.652 200.312 168.144 202.506 167.81C202.528 167.806 202.546 167.811 202.558 167.826C202.569 167.834 202.575 167.843 202.577 167.854C202.591 167.884 202.582 167.906 202.549 167.918ZM131.991 158.572C132.216 158.708 132.471 158.766 132.758 158.745C133.153 158.714 133.213 158.556 132.937 158.272C132.286 157.599 131.465 156.99 130.474 156.446C130.151 156.267 129.989 156.362 129.989 156.73V157.234C129.987 157.679 130.204 157.947 130.641 158.037C131.125 158.136 131.575 158.314 131.991 158.572ZM53.7463 159.094C54.1748 158.802 54.4065 158.347 54.4415 157.732C54.4453 157.663 54.4344 157.595 54.4096 157.532C54.3848 157.468 54.3467 157.411 54.2978 157.363C54.2488 157.316 54.1903 157.28 54.126 157.257C54.0618 157.234 53.9935 157.225 53.9255 157.231C52.7453 157.336 51.1077 159.351 50.4557 160.25C50.2106 160.587 50.292 160.714 50.6998 160.63C51.7658 160.41 52.8503 159.7 53.7463 159.094ZM133.904 159.854C133.7 159.811 133.638 159.731 133.397 159.749C132.847 159.792 132.255 159.825 131.621 159.848C131.207 159.86 130.866 160.098 130.598 160.562C130.583 160.588 130.573 160.617 130.567 160.648C130.487 161.126 130.689 161.359 131.173 161.346C132.765 161.307 134.447 161.037 136.218 160.534C136.542 160.443 136.553 160.323 136.252 160.172C135.519 159.81 134.774 159.704 134.018 159.854C133.979 159.862 133.941 159.862 133.904 159.854ZM129.708 161.971C129.685 161.967 129.675 161.976 129.677 161.998C129.943 165.215 129.961 168.28 130.385 171.348C130.655 173.297 130.88 175.158 131.061 176.931C132.054 186.668 132.976 195.096 133.827 202.215C133.909 202.913 134.024 203.655 134.173 204.439C134.193 204.544 134.256 204.595 134.361 204.591C136.932 204.489 139.472 204.656 142.042 204.535C142.076 204.534 142.11 204.525 142.141 204.511C142.172 204.496 142.199 204.476 142.222 204.45C142.245 204.425 142.263 204.396 142.275 204.364C142.286 204.331 142.291 204.297 142.29 204.263C142.184 202.4 142.113 200.537 141.857 198.677C141.618 196.943 141.449 195.265 141.35 193.644C141.316 193.051 141.137 192.473 141.103 191.886C140.973 189.667 140.643 187.622 140.402 185.456C139.784 179.872 139.212 174.543 138.687 169.469C138.353 166.24 138.217 163.718 138.279 161.906C138.285 161.729 138.292 161.552 138.301 161.377C138.329 160.774 138.129 160.685 137.698 161.112C137.34 161.467 136.957 161.612 136.478 161.696C135.518 161.858 134.559 162.02 133.601 162.181C132.417 162.376 131.119 162.306 129.708 161.971ZM101.99 169.911C101.959 169.827 101.971 169.75 102.027 169.68C102.074 169.62 102.135 169.584 102.209 169.571C104.1 169.225 106.281 168.604 107.211 166.769C107.289 166.617 107.305 166.442 107.257 166.278C107.209 166.115 107.099 165.977 106.952 165.892C106.379 165.558 105.772 165.363 105.129 165.308C103.04 165.126 100.999 165.324 99.0051 165.901C98.2018 166.133 97.8773 166.513 97.6889 167.291C97.3758 168.603 97.3078 169.789 97.4849 170.848C97.7507 172.419 98.039 174.003 98.3501 175.6C98.4531 176.121 98.5818 176.609 98.7363 177.064C98.9649 177.734 99.1153 178.388 99.1874 179.026C99.2162 179.288 99.2914 179.529 99.4129 179.749C99.4562 179.829 99.482 179.915 99.4902 180.006L99.6169 181.418C99.6207 181.465 99.6353 181.51 99.6594 181.55C99.6836 181.591 99.7166 181.624 99.7559 181.649C99.9804 181.789 100.066 181.983 100.012 182.23C99.9815 182.376 99.9938 182.52 100.049 182.66L100.433 183.645C100.477 183.757 100.549 183.855 100.643 183.929C100.737 184.004 100.849 184.052 100.967 184.069C102.39 184.273 103.66 184.31 104.777 184.18C106.652 183.964 108.608 182.153 109.396 180.62C109.433 180.548 109.455 180.468 109.461 180.387C109.466 180.305 109.456 180.223 109.43 180.146C109.404 180.068 109.362 179.997 109.308 179.936C109.254 179.875 109.188 179.825 109.115 179.789C108.707 179.594 108.284 179.562 107.845 179.693C106.615 180.064 105.432 180.491 104.125 180.494C104.012 180.494 103.916 180.457 103.837 180.383C103.739 180.29 103.71 180.178 103.751 180.046C103.786 179.926 103.864 179.85 103.986 179.817C104.749 179.598 105.565 179.403 106.294 179.066C107.598 178.461 108.704 177.403 109.612 175.893C109.909 175.402 110.017 174.391 109.309 174.194C108.759 174.039 107.904 174.194 107.317 174.342C106.243 174.612 105.153 174.778 104.044 174.839C103.995 174.842 103.946 174.836 103.899 174.824C103.561 174.733 103.397 174.566 103.405 174.32C103.406 174.265 103.428 174.212 103.467 174.172C103.506 174.131 103.559 174.106 103.615 174.101C105.651 173.909 107.27 173.199 108.552 171.533C108.908 171.073 108.92 170.328 108.722 169.816C108.444 169.108 107.579 169.012 106.94 169.213C105.509 169.664 103.77 170.282 102.252 170.115C102.194 170.109 102.138 170.086 102.092 170.05C102.045 170.014 102.01 169.966 101.99 169.911ZM211.998 172.531C212.024 172.54 212.051 172.546 212.078 172.55C212.125 172.556 212.144 172.536 212.133 172.488C212.121 172.428 212.092 172.377 212.047 172.334C212.038 172.325 212.026 172.319 212.014 172.315C212.002 172.312 211.989 172.311 211.977 172.313C211.964 172.315 211.952 172.32 211.942 172.327C211.932 172.335 211.923 172.344 211.917 172.355C211.874 172.444 211.901 172.503 211.998 172.531ZM171.488 188.206C171.482 188.218 171.472 188.222 171.46 188.218C170.092 187.781 168.8 187.497 167.582 187.365C167.501 187.356 167.418 187.368 167.342 187.399C167.266 187.43 167.199 187.479 167.147 187.543C167.095 187.606 167.06 187.682 167.045 187.763C167.029 187.844 167.035 187.927 167.06 188.005C167.635 189.806 169.041 190.532 170.885 190.875C172.105 191.102 173.172 191.427 174.086 191.852C174.119 191.867 174.147 191.89 174.167 191.921C174.187 191.951 174.197 191.986 174.197 192.022C174.197 192.085 174.171 192.133 174.117 192.164C173.899 192.291 173.675 192.333 173.447 192.287C171.568 191.919 169.812 191.635 168.179 191.438C168.151 191.435 168.123 191.438 168.096 191.446C168.069 191.455 168.044 191.469 168.024 191.487C168.003 191.506 167.986 191.529 167.974 191.554C167.963 191.58 167.956 191.607 167.956 191.635C167.944 193.347 170.607 195 172.081 195.637C174.034 196.477 176.121 196.951 178.344 197.058C178.428 197.062 178.51 197.037 178.577 196.987C178.644 196.936 178.69 196.864 178.708 196.783C179.714 192.437 180.399 187.771 180.763 182.786C180.862 181.421 180.649 180.006 180.584 178.631C180.538 177.651 180.028 176.415 178.749 176.749C176.064 177.45 173.453 177.484 170.709 177.401C169.927 177.379 169.359 177.725 168.617 177.867C167.743 178.031 166.247 178.859 167.035 180.043C168.274 181.903 170.548 181.909 172.6 182.212C172.981 182.267 173.212 182.455 173.292 182.774C173.325 182.908 173.274 182.979 173.138 182.987C171.135 183.117 169.724 183.05 168.905 182.786C168.377 182.615 167.848 182.446 167.317 182.28C166.979 182.173 166.735 182.28 166.584 182.601C165.379 185.156 169.844 187.066 171.438 187.869C171.547 187.923 171.577 188.005 171.528 188.116L171.488 188.206ZM127.187 215.294C127.014 216.375 126.821 217.47 126.609 218.578C126.606 218.594 126.607 218.61 126.612 218.625C126.617 218.64 126.625 218.654 126.636 218.665C126.648 218.676 126.661 218.684 126.677 218.689C126.692 218.694 126.708 218.695 126.723 218.692C129.683 218.112 132.69 218.207 135.705 218.105C137.298 218.054 138.952 217.916 140.667 217.691C145.055 217.12 149.479 216.375 153.953 216.239C154.054 216.236 154.151 216.198 154.226 216.131C154.302 216.063 154.35 215.971 154.364 215.871C154.459 215.171 154.677 214.5 155.019 213.857C155.038 213.823 155.048 213.785 155.049 213.746C155.051 213.708 155.043 213.669 155.028 213.634C155.012 213.599 154.989 213.568 154.96 213.543C154.93 213.519 154.896 213.501 154.859 213.492C154.688 213.451 154.514 213.425 154.336 213.415C145.75 212.989 136.413 212.726 127.585 212.148C127.466 212.14 127.397 212.196 127.378 212.315C127.304 212.826 127.271 213.333 127.279 213.835C127.29 214.371 127.259 214.857 127.187 215.294ZM39.2214 212.963C39.2216 212.94 39.206 212.917 39.1756 212.895C39.1452 212.874 39.1006 212.854 39.0442 212.837C38.9878 212.82 38.9208 212.807 38.8471 212.797C38.7733 212.788 38.6942 212.782 38.6142 212.782C38.5343 212.781 38.4551 212.785 38.3812 212.793C38.3073 212.801 38.2401 212.814 38.1834 212.83C38.1267 212.845 38.0817 212.864 38.051 212.886C38.0202 212.907 38.0042 212.929 38.004 212.952C38.0038 212.976 38.0194 212.999 38.0498 213.02C38.0802 213.042 38.1248 213.062 38.1812 213.079C38.2376 213.095 38.3046 213.109 38.3783 213.118C38.4521 213.128 38.5312 213.133 38.6112 213.134C38.6911 213.135 38.7703 213.131 38.8442 213.123C38.9181 213.114 38.9853 213.102 39.042 213.086C39.0987 213.07 39.1437 213.051 39.1744 213.03C39.2052 213.009 39.2212 212.986 39.2214 212.963ZM149.9 217.478C149.532 217.531 149.254 217.407 148.883 217.457C146.043 217.825 143.315 218.209 140.701 218.609C137.414 219.113 133.873 219.252 130.576 219.483C125.6 219.834 120.872 221.162 116.394 223.469C114.718 224.334 113.209 225.435 111.868 226.772C111.485 227.155 111.08 227.535 111.281 228.076C112.137 230.406 114.466 231.592 116.759 232.436C117.485 232.701 118.196 232.405 118.962 232.467C119.458 232.506 119.969 232.521 120.494 232.513C124.972 232.435 129.48 232.324 134.018 232.182C135.895 232.125 137.946 232.102 140.173 232.114C144.596 232.143 149.037 232.03 153.496 231.774C153.506 231.774 153.517 231.771 153.526 231.766C153.535 231.761 153.543 231.755 153.55 231.747C153.557 231.739 153.562 231.73 153.565 231.721C153.568 231.711 153.568 231.701 153.567 231.691C153.264 228.478 153.232 225.123 153.471 221.628C153.568 220.233 153.761 218.871 154.049 217.54C154.054 217.521 154.054 217.502 154.05 217.483C154.046 217.464 154.038 217.446 154.027 217.43C154.016 217.414 154.001 217.401 153.984 217.391C153.967 217.382 153.948 217.375 153.929 217.373C152.621 217.245 151.278 217.28 149.9 217.478Z" fill="#464BAA"/>
<path d="M141.159 46.9545C142.126 46.9298 143.3 47.2418 144.023 47.9339C144.175 48.0802 144.147 48.1564 143.937 48.1626C142.858 48.1935 141.792 48.0205 140.714 48.1379C139.414 48.2779 138.138 48.6271 136.886 49.1853C136.843 49.2036 136.797 49.2122 136.751 49.2106C136.704 49.209 136.658 49.1972 136.617 49.176C136.44 49.0813 136.367 48.9752 136.398 48.8578C136.486 48.5303 136.639 48.2996 136.855 48.1657C138.14 47.3623 139.642 46.9947 141.159 46.9545Z" fill="#464BAA"/>
<path d="M164.145 60.5775C164.274 61.3327 164.813 61.8708 165.348 61.7794C165.883 61.688 166.211 61.0016 166.082 60.2464C165.953 59.4911 165.415 58.953 164.88 59.0445C164.345 59.1359 164.016 59.8222 164.145 60.5775Z" fill="#464BAA"/>
<path d="M142.979 62.1531C142.685 62.5455 142.2 62.8112 141.774 62.3972C141.102 61.7401 140.911 60.9707 141.199 60.0891C141.243 59.9597 141.333 59.8509 141.453 59.7832C142.048 59.4537 142.584 59.5453 143.059 60.0582C143.609 60.6515 143.583 61.3497 142.979 62.1531Z" fill="#464BAA"/>
<path d="M150.731 65.5591C150.647 65.6345 150.594 65.7374 150.581 65.8484C150.568 65.9594 150.596 66.0708 150.66 66.1616C150.993 66.6343 151.803 67.5427 151.506 68.1081C151.444 68.2279 151.337 68.3179 151.207 68.3584C151.078 68.399 150.938 68.3867 150.817 68.3244C150.07 67.9382 148.905 66.8815 149.078 65.936C149.424 64.0327 152.684 63.1089 154.3 63.0626C154.419 63.0605 154.493 63.1171 154.522 63.2325C154.538 63.2922 154.528 63.3499 154.491 63.4055C154.45 63.4673 154.392 63.5116 154.318 63.5384C152.882 64.0369 151.687 64.7104 150.731 65.5591Z" fill="#464BAA"/>
<path d="M152.05 77.211C151.083 76.8866 150.095 76.8341 149.084 77.1029C148.975 77.1317 148.878 77.108 148.794 77.0318C148.024 76.3552 147.827 75.0575 148.065 74.1491C148.346 73.0677 149.579 72.8916 150.431 73.3921C151.482 74.01 152.628 75.2923 152.832 76.5437C152.849 76.6457 152.84 76.7505 152.804 76.8477C152.769 76.945 152.709 77.0314 152.63 77.0986C152.551 77.1658 152.457 77.2115 152.355 77.2312C152.253 77.2509 152.148 77.2439 152.05 77.211Z" fill="#464BAA"/>
<path d="M88.633 84.335C88.599 83.3617 88.2653 82.7932 87.7956 82.0238C87.7933 82.0218 87.7919 82.0192 87.792 82.0166C87.792 82.014 87.7935 82.0116 87.7959 82.01C87.7984 82.0084 87.8017 82.0076 87.8051 82.0079C87.8085 82.0081 87.8118 82.0094 87.8142 82.0115C88.4774 82.6953 88.8884 83.5048 89.047 84.44C89.0573 84.5039 89.0305 84.5399 88.9667 84.5482L88.8863 84.5574C88.8549 84.5604 88.8232 84.5569 88.7931 84.5472C88.7631 84.5374 88.7354 84.5217 88.7117 84.5009C88.6879 84.48 88.6687 84.4546 88.6552 84.426C88.6416 84.3975 88.6341 84.3665 88.633 84.335Z" fill="#464BAA"/>
<path d="M45.5183 84.9094C45.4709 84.9383 45.4266 84.9733 45.3854 85.0145C45.3792 85.0227 45.3751 85.0227 45.373 85.0145C45.373 85.0124 45.373 85.0114 45.373 85.0114C45.373 85.0093 45.3741 85.0073 45.3761 85.0052C45.9035 84.4964 46.4915 84.0752 47.1404 83.7415C47.1775 83.7209 47.2063 83.7291 47.2269 83.7662L47.2732 83.8466C47.2794 83.8569 47.2774 83.8651 47.2671 83.8713C46.6944 84.2256 46.1115 84.5716 45.5183 84.9094Z" fill="#464BAA"/>
<path d="M194.268 109.426C192.946 111.429 191.699 113.199 190.529 114.738C190.492 114.787 190.449 114.796 190.4 114.766C190.338 114.731 190.32 114.68 190.347 114.614C191.583 111.716 193.216 108.978 195.247 106.402C195.289 106.348 195.345 106.308 195.408 106.284C195.472 106.261 195.54 106.256 195.606 106.269C195.758 106.3 195.872 106.376 195.946 106.497C196.115 106.773 196.095 107.034 195.887 107.279C195.279 107.998 194.74 108.714 194.268 109.426Z" fill="#464BAA"/>
<path d="M132.631 119.459C132.62 119.458 132.61 119.454 132.601 119.449C132.591 119.443 132.583 119.436 132.577 119.427C132.571 119.419 132.566 119.409 132.564 119.398C132.561 119.388 132.561 119.377 132.563 119.367L132.572 119.317C132.7 118.541 132.835 117.775 132.968 117.061C133.101 116.347 133.23 115.699 133.348 115.156C133.466 114.612 133.57 114.183 133.654 113.893C133.738 113.603 133.801 113.458 133.839 113.465L133.891 113.474C133.93 113.478 133.943 113.634 133.929 113.935C133.916 114.236 133.876 114.675 133.812 115.228C133.748 115.78 133.662 116.435 133.558 117.155C133.454 117.875 133.334 118.645 133.205 119.422L133.196 119.472C133.192 119.492 133.18 119.511 133.163 119.523C133.146 119.535 133.124 119.54 133.103 119.536L132.631 119.459Z" fill="#464BAA"/>
<path d="M209.578 142.401C208.551 142.49 207.638 142.818 206.841 143.387C206.728 143.467 206.641 143.446 206.581 143.322L206.538 143.239C206.528 143.217 206.522 143.194 206.522 143.17C206.521 143.147 206.525 143.123 206.534 143.101C206.542 143.079 206.555 143.059 206.572 143.042C206.589 143.026 206.609 143.013 206.631 143.004L209.915 141.719C209.969 141.696 210.028 141.693 210.082 141.709C210.329 141.775 210.421 141.902 210.357 142.089C210.342 142.134 210.316 142.174 210.283 142.207C210.25 142.24 210.21 142.265 210.165 142.281C209.982 142.343 209.786 142.383 209.578 142.401Z" fill="#464BAA"/>
<path d="M99.5963 169.387C99.5677 169.842 99.7212 170.221 99.9392 170.235C100.157 170.249 100.357 169.891 100.386 169.437C100.414 168.982 100.261 168.602 100.043 168.588C99.8248 168.575 99.6249 168.932 99.5963 169.387Z" fill="#464BAA"/>
<path d="M100.142 174.901C100.13 175.271 100.275 175.576 100.466 175.583C100.657 175.589 100.822 175.294 100.834 174.924C100.846 174.554 100.702 174.249 100.511 174.242C100.32 174.236 100.155 174.531 100.142 174.901Z" fill="#464BAA"/>
<path d="M101.659 178.79C101.818 178.79 101.947 178.661 101.947 178.502C101.947 178.343 101.818 178.215 101.659 178.215C101.501 178.215 101.372 178.343 101.372 178.502C101.372 178.661 101.501 178.79 101.659 178.79Z" fill="#464BAA"/>
<path d="M177.339 186.865L177.296 186.86C177.097 186.838 176.919 186.981 176.897 187.18L176.799 188.064C176.777 188.263 176.92 188.441 177.119 188.463L177.162 188.468C177.36 188.49 177.539 188.347 177.561 188.148L177.658 187.264C177.68 187.065 177.537 186.887 177.339 186.865Z" fill="#464BAA"/>
</svg>
