<svg width="64" height="72" viewBox="0 0 64 72" fill="none" xmlns="http://www.w3.org/2000/svg">
<path fill-rule="evenodd" clip-rule="evenodd" d="M46 0C44 0 44 2 44 2V4C44 4 44 6 46 6C48 6 48 4 48 4V2C48 2 48 0 46 0ZM64 18C64 16 62 16 62 16H60C60 16 58 16 58 18C58 20 60 20 60 20H62C62 20 64 20 64 18ZM34 18C34 16 32 16 32 16H30C30 16 28 16 28 18C28 20 30 20 30 20H32C32 20 34 20 34 18ZM37.121 10.121C38.535 8.707 37.121 7.293 37.121 7.293L35.707 5.879C35.707 5.879 34.293 4.465 32.878 5.879C31.464 7.294 32.878 8.708 32.878 8.708L34.293 10.121C34.293 10.121 35.707 11.535 37.121 10.121ZM58.121 31.121C59.535 29.707 58.121 28.293 58.121 28.293L56.707 26.879C56.707 26.879 55.293 25.465 53.879 26.879C52.465 28.293 53.879 29.707 53.879 29.707L55.293 31.121C55.293 31.121 56.707 32.535 58.121 31.121ZM54.88 10.121C56.294 11.535 57.708 10.121 57.708 10.121L59.122 8.707C59.122 8.707 60.536 7.293 59.122 5.879C57.708 4.465 56.294 5.879 56.294 5.879L54.88 7.293C54.88 7.293 53.466 8.707 54.88 10.121ZM33.88 31.121C35.294 32.535 36.708 31.121 36.708 31.121L38.122 29.707C38.122 29.707 39.536 28.293 38.122 26.879C36.708 25.465 35.294 26.879 35.294 26.879L33.88 28.293C33.88 28.293 32.466 29.707 33.88 31.121ZM46 30C44 30 44 32 44 32V34C44 34 44 36 46 36C48 36 48 34 48 34V32C48 32 48 30 46 30ZM56 18C56 23.5228 51.5228 28 46 28C40.4772 28 36 23.5228 36 18C36 12.4772 40.4772 8 46 8C51.5228 8 56 12.4772 56 18Z" fill="url(#paint0_linear_4414_43553)"/>
<path d="M24 72C37.2548 72 48 61.2548 48 48C48 34.7452 37.2548 24 24 24C10.7452 24 0 34.7452 0 48C0 61.2548 10.7452 72 24 72Z" fill="url(#paint1_linear_4414_43553)"/>
<path d="M40.1735 55.6652C38.8175 55.1452 39.0588 55.3345 38.2228 53.5572C37.3868 51.7812 36.8802 51.2092 35.0002 51.0012C33.1188 50.7945 33.1895 50.9412 32.6668 50.0012C32.1442 49.0599 30.0242 50.2558 28.6668 50.7799C27.3055 51.3025 27.6415 52.4412 27.2228 52.3345C26.8028 52.2305 25.7468 51.9599 24.6988 51.1252C23.6535 50.2879 25.4762 49.6345 26.0002 49.1132C26.5242 48.5892 25.0135 48.8745 24.4895 48.5585C23.9655 48.2465 23.0282 49.1865 22.1922 48.3479C21.3548 47.5119 21.8788 46.2572 21.7748 45.2118C21.6695 44.1652 23.1322 43.9572 24.0735 43.7479C25.0135 43.5399 25.7442 43.7492 25.7442 45.0025C25.7442 46.2572 26.8948 46.6758 26.5815 45.2105C26.2682 43.7452 26.8948 43.3292 27.3148 42.5972C27.7322 41.8652 28.4642 40.8185 29.4042 39.2505C30.3455 37.6825 30.9735 38.4132 32.1228 38.5252C33.2735 38.6385 33.5868 38.4145 34.4228 38.5198C35.2562 38.6252 34.4228 37.4745 34.7375 36.3252C35.0495 35.1758 36.2002 35.3839 37.3522 35.6985C38.5015 36.0118 36.2002 34.2332 35.7828 33.2932C35.3628 32.3519 34.2135 33.2932 33.4842 31.7252C32.7468 30.1572 31.7188 29.1425 30.7775 29.0025C29.8362 28.8612 31.0775 30.9945 30.3455 32.1438C29.6108 33.2932 28.4855 33.1132 27.3322 33.1132C26.1842 33.1132 25.1175 32.1438 25.9548 30.6798C26.7895 29.2172 28.3855 29.3678 29.2215 28.1132C30.0588 26.8598 26.2482 26.9745 24.8882 26.5572C23.5282 26.1385 21.8962 26.1425 20.5375 27.1878C19.1775 28.2318 16.2695 28.5585 15.1188 28.9758C13.9695 29.3932 13.7628 28.2825 13.5548 27.4452C13.4615 27.0732 13.0375 26.9558 12.4402 26.9692C9.48016 28.6012 6.91616 30.8518 4.8855 33.5305C5.2015 34.6065 6.73216 33.2785 7.03217 32.9785C7.3455 32.6652 8.9135 33.0838 9.1215 34.2332C9.33083 35.3825 9.22683 36.6398 8.8095 37.6852C8.39083 38.7292 9.85483 40.1932 10.6908 41.6572C11.5282 43.1225 12.4682 43.1212 12.8868 43.1212C13.3042 43.1212 15.7095 44.0625 15.6042 45.2118C15.5002 46.3625 17.8002 47.4065 18.7415 48.1385C19.6828 48.8732 20.2775 49.5945 21.4988 49.8052C22.7215 50.0159 24.1508 52.0145 24.7775 52.2252C25.2588 52.3852 26.0735 53.1545 26.5655 53.3932C25.9188 54.2119 24.6668 55.8932 24.6668 56.6679C24.6668 57.7159 26.0335 59.3625 26.5562 59.7799C27.0775 60.1959 28.5788 60.5132 28.8895 61.5572C29.2042 62.6025 28.6708 66.1212 27.7322 67.0612C26.7882 68.0012 26.4455 70.2239 26.4455 70.2239C26.4455 70.2239 26.7775 70.9452 27.8895 70.2239C29.1188 69.4279 31.1775 67.1612 32.0002 66.6679C33.5682 65.7252 35.0922 64.5812 36.5562 63.2239C38.0202 61.8652 37.4895 60.9132 38.2228 59.5572C38.9548 58.1985 39.9015 58.2598 41.1548 57.1132C42.4108 55.9612 41.5335 56.1892 40.1735 55.6652Z" fill="#84CC16"/>
<defs>
<linearGradient id="paint0_linear_4414_43553" x1="43.3947" y1="14.5017" x2="50.2222" y2="33.6128" gradientUnits="userSpaceOnUse">
<stop stop-color="#FEB323"/>
<stop offset="1" stop-color="#F17645"/>
</linearGradient>
<linearGradient id="paint1_linear_4414_43553" x1="33.5" y1="27.5" x2="14" y2="69" gradientUnits="userSpaceOnUse">
<stop stop-color="#3B82F6"/>
<stop offset="1" stop-color="#2563EB"/>
</linearGradient>
</defs>
</svg>
