<svg width="120" height="120" viewBox="0 0 120 120" fill="none" xmlns="http://www.w3.org/2000/svg">
<g id="Emoji">
<path id="Sun" fill-rule="evenodd" clip-rule="evenodd" d="M59.9102 0C53.2533 0 53.2533 6.68619 53.2533 6.68619V13.3724C53.2533 13.3724 53.2533 20.0586 59.9102 20.0586C66.5671 20.0586 66.5671 13.3724 66.5671 13.3724V6.68619C66.5671 6.68619 66.5671 0 59.9102 0ZM119.822 60.1757C119.822 53.4895 113.165 53.4895 113.165 53.4895H106.509C106.509 53.4895 99.8517 53.4895 99.8517 60.1757C99.8517 66.8619 106.509 66.8619 106.509 66.8619H113.165C113.165 66.8619 119.822 66.8619 119.822 60.1757ZM19.9688 60.1757C19.9688 53.4895 13.3119 53.4895 13.3119 53.4895H6.65496C6.65496 53.4895 -0.00195312 53.4895 -0.00195312 60.1757C-0.00195312 66.8619 6.65496 66.8619 6.65496 66.8619H13.3119C13.3119 66.8619 19.9688 66.8619 19.9688 60.1757ZM30.3569 33.8355C35.0633 29.1083 30.3569 24.3812 30.3569 24.3812L25.6504 19.6541C25.6504 19.6541 20.944 14.9269 16.2342 19.6541C11.5278 24.3845 16.2342 29.1117 16.2342 29.1117L20.944 33.8355C20.944 33.8355 25.6504 38.5626 30.3569 33.8355ZM89.4669 33.8355C94.1733 38.5626 98.8798 33.8355 98.8798 33.8355L103.586 29.1083C103.586 29.1083 108.293 24.3812 103.586 19.6541C98.8798 14.9269 94.1733 19.6541 94.1733 19.6541L89.4669 24.3812C89.4669 24.3812 84.7605 29.1083 89.4669 33.8355ZM19.5694 104.04C24.2758 108.768 28.9822 104.04 28.9822 104.04L33.6887 99.3134C33.6887 99.3134 38.3951 94.5862 33.6887 89.8591C28.9822 85.1319 24.2758 89.8591 24.2758 89.8591L19.5694 94.5862C19.5694 94.5862 14.8629 99.3134 19.5694 104.04ZM93.1945 60.1687C93.1945 78.6321 78.2925 93.5996 59.91 93.5996C41.5274 93.5996 26.6254 78.6321 26.6254 60.1687C26.6254 41.7053 41.5274 26.7377 59.91 26.7377C78.2925 26.7377 93.1945 41.7053 93.1945 60.1687Z" fill="url(#paint0_linear_4414_43641)"/>
<path id="Cloud" d="M99.285 77.2057C97.1482 77.2057 95.0912 77.54 93.1507 78.1585C90.8607 71.3787 84.6298 66.5078 77.2839 66.5078C69.4022 66.5078 62.8052 72.1175 60.9778 79.6696C59.0274 78.1451 56.6209 77.2091 53.9848 77.2091C47.5509 77.2091 42.3352 82.5948 42.3352 89.2442C42.3352 90.8589 42.6547 92.3901 43.2139 93.8008C42.1022 93.4766 40.9539 93.2526 39.7456 93.2526C32.5961 93.2526 26.8013 99.2401 26.8013 106.625C26.8013 114.01 32.5961 119.997 39.7456 119.997H99.2883C110.725 119.997 119.998 110.423 119.998 98.6015C119.998 86.7837 110.725 77.2057 99.285 77.2057Z" fill="url(#paint1_linear_4414_43641)"/>
</g>
<defs>
<linearGradient id="paint0_linear_4414_43641" x1="38.5" y1="8" x2="81.2564" y2="109.892" gradientUnits="userSpaceOnUse">
<stop offset="0.25" stop-color="#FEB323"/>
<stop offset="1" stop-color="#E64F12"/>
</linearGradient>
<linearGradient id="paint1_linear_4414_43641" x1="74.1004" y1="66.5078" x2="98.5687" y2="86.6152" gradientUnits="userSpaceOnUse">
<stop stop-color="#F0F0FA"/>
<stop offset="1" stop-color="white"/>
</linearGradient>
</defs>
</svg>
