<svg width="182" height="238" viewBox="0 0 182 238" fill="none" xmlns="http://www.w3.org/2000/svg">
<path d="M15.1843 137.044C16.0281 136.469 16.7497 135.72 17.3493 134.797C17.8025 134.097 18.1062 133.645 18.2605 133.44C19.2654 132.095 19.9949 131.047 21.4685 129.968C23.865 128.219 26.3845 127.346 29.2234 126.57C30.6237 126.187 31.9861 125.882 33.3103 125.653C37.7136 124.891 42.6794 124.135 46.7077 122.911C47.653 122.624 48.654 122.174 49.7107 121.56C50.1267 121.317 50.6657 121.092 51.1374 120.995C52.2917 120.753 53.4675 120.512 54.6648 120.274C55.6697 120.078 56.4577 119.495 57.4128 120.239C57.4408 120.261 57.4735 120.277 57.5085 120.284C57.5434 120.292 57.5797 120.291 57.6146 120.283C57.6495 120.274 57.6822 120.258 57.7101 120.235C57.7381 120.213 57.7606 120.184 57.7761 120.151C58.0193 119.627 58.1072 119.073 58.2536 118.519C58.9919 115.769 59.449 112.8 59.6247 109.613C59.6482 109.181 59.4724 108.869 59.0974 108.675C55.8474 107.004 52.8991 104.909 50.2527 102.391C49.0515 101.249 48.0613 99.9392 47.1062 98.6325C45.157 95.9626 43.6863 92.9362 42.6941 89.5534C42.5915 89.2048 42.3425 88.9206 41.9441 88.9675C40.2312 89.1706 38.531 88.9616 36.8435 88.3405C34.5232 87.4909 32.3493 85.5075 31.6521 83.0788C30.5212 79.153 30.9255 74.7439 32.7829 71.2487C33.4294 70.0339 34.2781 68.8318 35.3288 67.6423C36.2878 66.5603 37.3796 66.0095 38.6042 65.99C40.2195 65.9646 41.4245 66.6941 42.2195 68.1784C42.9324 69.4714 43.1033 70.9196 42.7322 72.5232C42.6967 72.676 42.7125 72.8362 42.7771 72.9791C42.8417 73.1221 42.9515 73.2398 43.0896 73.3142C43.2009 73.3728 43.3571 73.3239 43.5583 73.1677C45.2898 71.8171 46.1247 70.1911 47.1501 68.322C47.488 67.7028 47.7868 67.0632 48.0466 66.403C48.615 64.9558 48.9675 64.0056 49.1042 63.5525C49.8347 61.0935 50.5534 58.3054 51.2605 55.1882C51.5007 54.1316 51.6872 53.0525 51.82 51.9509C51.8283 51.881 51.86 51.816 51.9101 51.7665C51.9601 51.717 52.0254 51.6859 52.0954 51.6784C56.7595 51.1316 60.9216 49.4587 64.5818 46.6599C65.6013 45.8806 66.5271 44.8083 67.4822 43.8591C67.9021 43.445 68.406 42.6931 68.9939 41.6032C69.0114 41.57 69.0368 41.5612 69.07 41.5769L69.1404 41.612C69.1853 41.6335 69.198 41.6667 69.1784 41.7116C68.5632 43.071 67.822 44.3054 66.9548 45.4148C66.8786 45.5124 66.8367 45.6228 66.8288 45.7458L66.8142 46.0066C66.8064 46.1491 66.74 46.2536 66.615 46.32C65.654 46.8415 64.7107 47.2282 64.1013 48.1775C64.0446 48.2654 64.0232 48.362 64.0368 48.4675C64.238 49.9753 65.072 50.6814 66.5388 50.5857C69.1716 50.4118 71.9509 49.7878 74.8767 48.7136C75.7615 48.3913 77.1794 47.7556 76.7663 46.6101C76.5339 45.9655 76.0476 45.5232 75.3073 45.2829C75.0085 45.1853 75.0105 45.0925 75.3132 45.0046C76.5964 44.6267 77.7829 44.3044 78.987 43.6657C80.905 42.6501 82.7478 41.3601 84.5154 39.7956C86.4226 38.1081 87.9109 35.6823 89.0154 33.4734C89.1013 33.3015 89.1394 33.3112 89.1296 33.5027C88.9675 36.403 87.9958 38.9284 86.2146 41.0788C85.6052 41.8142 84.8405 42.3532 84.2634 43.1413C84.2026 43.2247 84.1708 43.3258 84.1729 43.4289C84.175 43.5321 84.2109 43.6318 84.2751 43.7126C84.5193 44.0153 84.8562 44.1862 85.2859 44.2253C87.2195 44.3991 88.9997 44.3054 90.6267 43.9441C91.4509 43.7605 92.5867 43.2253 94.0339 42.3386C94.1413 42.2722 94.2214 42.1814 94.2741 42.0661C94.3034 42.0017 94.3454 41.946 94.4001 41.8991C97.3034 39.3679 99.0993 35.2927 99.8523 31.5603C99.864 31.4958 99.9031 31.4675 99.9695 31.4753L100.046 31.487C100.063 31.489 100.071 31.4987 100.069 31.5163C99.7273 35.3523 98.2146 38.6325 95.531 41.3571C95.3415 41.5486 94.9529 41.8073 94.365 42.1335C94.363 42.1355 94.362 42.1374 94.362 42.1394L94.3972 42.2038C94.4148 42.2409 94.4421 42.2517 94.4792 42.2361C95.1179 41.9529 95.7282 41.4948 96.3103 40.862C99.1657 37.7507 100.482 34.0769 100.26 29.8405C100.23 29.3112 100.325 29.2878 100.544 29.7702C101.149 31.1042 101.842 32.5232 102.621 34.0271C102.687 34.1521 102.713 34.1443 102.697 34.0036C102.693 33.9685 102.701 33.9392 102.72 33.9157C102.765 33.861 102.807 33.862 102.846 33.9187C105.251 37.4245 108.024 40.5671 111.167 43.3464C112.264 44.3171 113.493 45.2868 114.852 46.2556C116.13 47.1657 117.431 48.0407 118.758 48.8806C120.267 49.8376 121.797 50.7165 123.345 51.5173C123.953 51.6853 124.361 51.8913 124.57 52.1355C124.881 52.4929 125.115 53.0202 125.273 53.7175C125.822 56.153 126.252 58.6618 126.562 61.2439C126.923 64.282 126.58 67.2497 126.996 70.1882C127.004 70.2441 127.026 70.2972 127.059 70.3428C127.093 70.3884 127.137 70.425 127.187 70.4493C127.238 70.4737 127.294 70.4851 127.35 70.4824C127.406 70.4798 127.461 70.4633 127.509 70.4343C128.721 69.7155 130.059 69.2898 131.522 69.1569C131.553 66.9577 131.554 64.7702 131.525 62.5944C131.496 60.6296 131.479 58.6765 131.475 56.7351C131.468 54.0183 131.416 51.528 131.32 49.2644C131.205 46.4968 130.887 43.6472 130.368 40.7155C129.723 37.0847 128.569 33.4489 126.905 29.8083C124.741 25.0681 121.872 21.1716 118.298 18.1189C116.654 16.7185 114.993 15.3357 113.127 14.1843C110.564 12.6081 107.718 11.1862 104.59 9.91866C103.857 9.62179 103.112 9.38351 102.354 9.20382C101.51 9.00265 100.708 8.81906 99.946 8.65304C98.7019 8.38351 97.2146 8.23214 95.4841 8.19894C93.0993 8.15402 91.0964 8.58273 89.4753 9.48507C89.3288 9.56515 89.2956 9.53292 89.3757 9.38839C90.8904 6.5964 92.6657 4.16769 95.6218 2.83761C98.5945 1.50167 101.75 1.21261 105.088 1.97043C105.196 1.99511 105.308 1.98272 105.407 1.93527C105.622 1.83761 105.726 1.71945 105.72 1.58078C105.703 1.21554 105.531 0.993862 105.205 0.915737C102.845 0.353237 100.621 0.282924 98.531 0.704799C94.4099 1.53292 91.324 3.85324 89.2732 7.66574C89.154 7.88644 89.0925 7.87082 89.0886 7.61886C89.0417 4.69797 87.5212 1.6423 84.3777 1.16476C84.1003 1.12179 83.8816 1.21554 83.7214 1.44601C83.6902 1.49093 83.6697 1.54073 83.6599 1.59542C83.6522 1.63721 83.6528 1.68009 83.6616 1.72159C83.6705 1.7631 83.6873 1.80241 83.7113 1.83726C83.7353 1.87211 83.7658 1.90182 83.8013 1.92467C83.8367 1.94753 83.8762 1.96308 83.9177 1.97043C87.3864 2.59152 88.2068 6.0046 88.4265 9.16867C88.4363 9.3132 88.3786 9.35031 88.2536 9.28C87.7048 8.97531 87.1198 8.73605 86.4988 8.56222C83.9675 7.85519 81.4675 7.44406 78.9988 7.32882C72.7624 7.03976 66.9929 7.86691 61.6902 9.81027C60.3288 10.3103 58.737 11.0163 56.9148 11.9284C52.0456 14.3659 47.7566 17.7819 44.0154 21.7927C42.0954 23.8474 40.364 26.2497 38.821 28.9997C36.6999 32.7771 35.4362 36.8376 35.03 41.1814C34.946 42.0681 34.7917 42.9431 34.5671 43.8064C32.0456 53.4235 30.279 63.1413 29.2673 72.9597C29.1872 73.7527 28.9402 74.8532 28.5261 76.2614C28.0066 78.0251 27.4812 79.7859 26.9499 81.5437C26.8464 81.8835 26.5495 82.5564 26.0593 83.5622C24.6472 86.4568 22.5905 89.1901 20.4314 91.613C17.4841 94.9216 14.6237 98.4392 11.8503 102.166C7.68137 107.764 4.45872 114.509 4.40012 121.519C4.34446 128.196 7.6931 132.658 12.9958 136.273C13.2673 136.457 13.9968 136.714 15.1843 137.044ZM47.0066 19.8152C46.3659 20.5398 45.7292 21.281 45.0964 22.0388C42.0866 25.6403 39.7146 29.6911 37.9802 34.1911C37.2224 36.1599 36.4939 38.0935 35.7946 39.9919C35.7888 40.0095 35.7859 40.0095 35.7859 39.9919C35.7898 39.7673 35.8112 39.5407 35.8503 39.3122C37.0866 31.7302 41.2409 24.9978 46.9714 19.7829C47.1765 19.5974 47.1882 19.6081 47.0066 19.8152ZM6.59445 123.673C6.78781 126.675 7.7136 129.693 9.25755 132.301C9.3884 132.519 9.36887 132.534 9.19895 132.344C6.7302 129.614 5.40012 126.373 5.20872 122.621C5.02903 119.105 5.66769 115.484 7.12473 111.758C8.22824 108.941 9.5554 106.449 11.1062 104.281C12.8425 101.853 14.6423 99.4275 16.5056 97.0036C16.5368 96.9626 16.5476 96.9675 16.5378 97.0183C16.532 97.0437 16.5212 97.0681 16.5056 97.0915C12.697 102.371 8.88255 108.175 7.40305 114.262C6.65891 117.315 6.38937 120.452 6.59445 123.673Z" fill="#464BAA"/>
<path d="M93.5066 7.25719C96.9783 5.70153 101.335 5.85973 104.868 7.15758C105.165 7.26696 105.338 7.16442 105.386 6.84997C105.39 6.82262 105.393 6.7943 105.395 6.76501C105.406 6.60518 105.364 6.44625 105.274 6.31352C105.184 6.1808 105.053 6.0819 104.9 6.03258C101.323 4.87243 97.4089 4.64684 94.0163 6.31676C93.8915 6.3792 93.7652 6.44969 93.6384 6.5277C93.2537 6.76598 93.1453 6.99254 93.3132 7.20739C93.3349 7.23591 93.3657 7.25629 93.4008 7.26531C93.4358 7.27433 93.473 7.27147 93.5066 7.25719Z" fill="#464BAA"/>
<path d="M112.072 44.531C110.393 43.2067 108.594 41.9265 107.182 40.4001C105.452 38.531 103.997 36.4519 102.817 34.1628C102.811 34.153 102.802 34.1501 102.791 34.154L102.712 34.195C102.677 34.2146 102.668 34.2429 102.685 34.28C104.853 38.5827 107.993 42.0066 112.104 44.5515C112.11 44.5554 112.116 44.5573 112.122 44.5573C112.124 44.5573 112.126 44.5554 112.128 44.5515C112.128 44.5456 112.124 44.5417 112.116 44.5398C112.114 44.5398 112.109 44.5398 112.101 44.5398C112.09 44.5398 112.08 44.5368 112.072 44.531Z" fill="#464BAA"/>
<path d="M79.9919 43.7843C82.0691 43.3507 83.7683 41.7159 84.9987 39.9112C85.0163 39.8878 85.0124 39.8673 84.987 39.8497C84.9655 39.8341 84.947 39.837 84.9314 39.8585C84.111 41.089 83.0827 42.1144 81.8464 42.9347C81.2722 43.3155 80.6218 43.5353 79.9802 43.7403C79.7146 43.8263 79.7185 43.8409 79.9919 43.7843Z" fill="#464BAA"/>
<path d="M79.4001 43.8361C79.239 43.88 79.0603 43.8625 78.9196 43.9562C78.8415 44.009 78.8493 44.0353 78.9431 44.0353C79.1657 44.0334 79.3982 43.9894 79.6404 43.9035C79.7361 43.8683 79.7341 43.842 79.6345 43.8244C79.5544 43.8107 79.4763 43.8146 79.4001 43.8361Z" fill="#464BAA"/>
<path d="M103.954 45.3622C101.273 45.2099 100.435 47.6621 102.803 48.9951C105.197 50.3466 107.828 51.1093 110.695 51.2832C111.644 51.3417 112.863 51.0634 113.182 50.0673C113.666 48.5761 111.967 47.6064 110.783 47.0673C108.572 46.0634 106.296 45.4951 103.954 45.3622Z" fill="#464BAA"/>
<path d="M61.2449 49.8233C62.0886 49.4757 62.7156 49.0675 63.1258 48.5987C63.1277 48.5972 63.1289 48.5949 63.1292 48.5924C63.1295 48.59 63.1288 48.5875 63.1272 48.5855C63.1257 48.5836 63.1234 48.5824 63.1209 48.5821C63.1185 48.5818 63.116 48.5825 63.114 48.5841C62.4519 49.0821 61.826 49.4903 61.2361 49.8087C61.2347 49.8101 61.2338 49.8119 61.2336 49.8138C61.2333 49.8158 61.2337 49.8178 61.2348 49.8195C61.2358 49.8212 61.2373 49.8225 61.2392 49.8232C61.241 49.8239 61.243 49.8239 61.2449 49.8233Z" fill="#464BAA"/>
<path d="M47.0939 69.9797C46.9322 70.3838 46.7805 70.7031 46.755 70.6929C46.7294 70.6827 46.8398 70.3468 47.0014 69.9427C47.163 69.5385 47.3148 69.2192 47.3403 69.2294C47.3658 69.2396 47.2555 69.5755 47.0939 69.9797Z" fill="#464BAA"/>
<path d="M46.2838 71.8369C46.0889 72.2097 45.9135 72.5028 45.892 72.4915C45.8705 72.4803 46.011 72.1689 46.2059 71.7961C46.4008 71.4233 46.5763 71.1302 46.5978 71.1415C46.6193 71.1527 46.4787 71.464 46.2838 71.8369Z" fill="#464BAA"/>
<path d="M45.6472 72.8174C45.6159 72.8525 45.5925 72.8916 45.5768 72.9345C45.5104 73.1045 45.528 73.1142 45.6296 72.9638C45.6862 72.8799 45.7399 72.7871 45.7907 72.6855C45.8708 72.5215 45.8542 72.5117 45.7409 72.6562C45.7233 72.6797 45.7087 72.706 45.697 72.7353C45.6853 72.7646 45.6686 72.792 45.6472 72.8174Z" fill="#464BAA"/>
<path d="M45.3426 73.3128C44.9695 73.7796 44.5301 74.1468 44.0242 74.4144C43.9324 74.4632 43.9383 74.4945 44.0418 74.5081C44.1023 74.516 44.156 74.5042 44.2029 74.473C44.6521 74.1702 45.0389 73.7884 45.3631 73.3275C45.5232 73.099 45.5164 73.0941 45.3426 73.3128Z" fill="#464BAA"/>
<path d="M105.126 78.9219C104.704 78.8145 104.329 78.6152 104.001 78.3242C103.614 79.124 103.356 79.9238 102.316 79.9648C99.863 80.0605 97.4851 80.0742 95.1824 80.0059C95.075 80.002 95.0173 80.0537 95.0095 80.1611L94.8103 83.4189C94.8091 83.4381 94.8119 83.4574 94.8184 83.4755C94.8249 83.4936 94.8351 83.5101 94.8482 83.5241C94.8614 83.5381 94.8773 83.5493 94.895 83.5569C94.9127 83.5645 94.9317 83.5684 94.9509 83.5684C97.2322 83.5977 99.4636 83.624 101.645 83.6475C102.624 83.6592 103.438 82.7715 103.831 81.9453C104.302 80.9609 104.733 79.9531 105.126 78.9219ZM101.936 82.8843C101.914 82.8751 101.914 82.8189 101.935 82.7281C101.956 82.6372 101.997 82.5192 102.048 82.3999C102.099 82.2807 102.157 82.17 102.208 82.0921C102.259 82.0143 102.3 81.9757 102.321 81.9849C102.343 81.9941 102.343 82.0503 102.322 82.1411C102.301 82.2319 102.261 82.3499 102.209 82.4692C102.158 82.5885 102.101 82.6992 102.049 82.777C101.998 82.8549 101.957 82.8934 101.936 82.8843Z" fill="#464BAA"/>
<path d="M61.2039 78.9261C61.243 78.9476 61.2859 78.9613 61.3328 78.9671C61.4422 78.9828 61.4539 78.9574 61.368 78.891C61.3309 78.8617 61.2889 78.8421 61.242 78.8324C61.0271 78.7874 61.0144 78.8187 61.2039 78.9261Z" fill="#464BAA"/>
<path d="M91.8923 78.9841C91.8923 79.2946 91.8464 79.5661 91.7546 79.7985C92.6491 79.7985 93.03 80.3054 92.8972 81.3191C92.7956 82.1023 92.5407 82.6648 92.1325 83.0066C91.113 83.8601 90.4333 84.6882 90.0934 85.4909C89.5505 86.778 89.1901 87.9704 89.0124 89.0681C89.4792 89.7087 89.6169 90.4343 89.4255 91.2448C89.4044 91.3368 89.4094 91.4341 89.4401 91.5261C89.7722 92.4753 89.9167 93.4148 89.8737 94.3444C89.944 94.403 89.9987 94.4665 90.0378 94.5349C90.2487 95.0075 90.4294 95.4948 90.5798 95.9968C90.7224 96.4655 90.7546 96.9753 90.6764 97.5261C90.5202 98.6257 90.3493 99.7478 90.1638 100.892C91.6618 103.238 93.405 105.167 95.3932 106.678C97.2175 108.067 99.2419 109.044 101.466 109.608C104 110.253 106.573 110.523 109.186 110.42C112.077 110.308 114.903 109.836 117.665 109.002C117.128 108.814 116.688 108.519 116.346 108.117C112.62 109.013 108.848 109.281 105.032 108.92C103.399 108.765 101.896 108.454 100.523 107.985C100.435 107.956 100.349 107.921 100.265 107.88C100.138 107.819 100.145 107.791 100.286 107.795C100.87 107.814 101.482 107.82 102.123 107.812C106.75 107.759 110.973 107.719 114.794 107.692C115.901 107.684 117.171 107.55 118.602 107.288C119.171 107.209 119.727 107.153 120.263 106.925C121.746 106.292 123.23 105.638 124.716 104.965C126.284 104.253 127.649 103.043 128.423 101.487C128.9 100.526 128.973 99.24 129.167 98.1443C129.34 97.1657 129.744 96.0026 130.257 95.1472C130.503 94.7351 130.665 94.3063 130.743 93.861C131.335 90.5739 131.487 87.9196 135.088 86.6247C136.24 86.2087 137.388 85.7312 138.533 85.1921C138.629 85.1472 138.675 85.072 138.674 84.9665L138.665 84.3864C137.104 84.5329 135.641 84.5915 134.276 84.5622C131.089 84.4958 127.955 84.5378 124.875 84.6882C124.92 85.0769 125.024 85.3591 125.188 85.5349C126.919 87.3981 128.003 89.5769 128.44 92.071C128.572 92.8327 128.546 93.6003 128.411 94.3532C128.382 94.5251 128.302 94.6638 128.174 94.7692C128.156 94.7825 128.136 94.7914 128.115 94.7951C128.093 94.7989 128.071 94.7974 128.05 94.7907C128.03 94.7841 128.011 94.7726 127.996 94.7571C127.98 94.7416 127.969 94.7227 127.963 94.7019L127.385 92.8298C127.538 94.1521 127.502 95.364 127.277 96.4655C126.406 100.739 123.984 103.672 120.011 105.263C116.726 106.58 113.535 106.426 110.437 104.803C108.041 103.547 105.943 101.317 104.836 98.7712C102.811 94.1101 103.889 88.4499 107.607 84.8698C107.808 84.6745 107.769 84.5886 107.49 84.612C106.97 84.6589 106.402 84.6755 105.785 84.6618C102.117 84.5896 98.3405 84.5593 94.4557 84.571C94.2448 84.571 94.1403 84.6765 94.1423 84.8874L94.1833 103.746C94.1833 103.947 94.0944 104 93.9167 103.904C93.8327 103.859 93.7595 103.801 93.697 103.728C93.529 103.531 93.4323 103.319 93.4069 103.092C93.3171 102.288 93.2702 101.499 93.2663 100.725C93.2292 95.2175 93.1882 89.5261 93.1432 83.6511C93.1413 83.5671 93.1608 83.489 93.2018 83.4167C93.8151 82.3464 94.0339 81.3435 93.8581 80.4079C93.6647 79.3845 93.0095 78.9099 91.8923 78.9841Z" fill="#464BAA"/>
<path d="M128.256 80.8744C129.023 82.0141 130.034 83.016 131.417 83.3412C132.116 83.5033 133.64 83.5151 135.99 83.3764C136.502 82.9174 137.148 82.6654 137.929 82.6205C138.489 82.5883 139.157 82.4682 139.283 81.9408C139.305 81.8525 139.306 81.7602 139.286 81.6714C139.266 81.5826 139.226 81.4996 139.168 81.4289C139.111 81.3582 139.038 81.3018 138.955 81.264C138.873 81.2263 138.782 81.2082 138.691 81.2113C136.478 81.2856 134.152 81.3393 131.713 81.3725C130.353 81.393 129.835 80.394 128.68 79.975C128.652 79.9648 128.621 79.9622 128.591 79.9676C128.561 79.973 128.533 79.9862 128.51 80.0057C128.487 80.0253 128.47 80.0507 128.459 80.0792C128.449 80.1078 128.446 80.1385 128.452 80.1684C128.507 80.4438 128.441 80.6791 128.256 80.8744Z" fill="#464BAA"/>
<path d="M89.739 81.3125C89.8874 81.7539 89.8982 82.0615 89.7712 82.2353C88.8923 83.4209 88.24 84.6992 87.8142 86.0703C88.0583 86.6016 88.1452 87.1162 88.0749 87.6143C87.8991 88.8564 87.8054 89.9736 87.7937 90.9658C87.9949 89.7412 88.238 88.54 88.5232 87.3623C88.9431 85.6221 89.7312 84.1123 90.8874 82.833C90.9447 82.7696 90.9796 82.6892 90.987 82.604C90.9945 82.5189 90.9739 82.4337 90.9285 82.3613C90.7683 82.1074 90.698 81.8018 90.7175 81.4443L89.739 81.3125Z" fill="#464BAA"/>
<path d="M112.347 83.5479C108.168 85.4424 105.844 88.6065 105.375 93.0401C105.279 93.9483 105.363 95.0235 105.627 96.2657C106.359 99.7432 108.937 102.424 112.213 103.88C116.323 105.708 121.936 104.123 124.632 100.558L125.083 98.8965C125.091 98.8672 125.088 98.8389 125.074 98.8116C125.058 98.7803 125.037 98.7539 125.01 98.7324C124.986 98.7133 124.957 98.7025 124.927 98.702C124.896 98.7015 124.867 98.7112 124.843 98.7295L123.495 99.7315C121.919 101.722 119.872 103.003 117.354 103.575C116.856 103.689 116.013 103.711 114.826 103.643C114.781 103.64 114.739 103.62 114.709 103.587C114.679 103.553 114.663 103.509 114.665 103.464L114.671 103.367C114.678 103.203 114.763 103.121 114.926 103.121C117.824 103.123 120.195 102.145 122.039 100.186C124.224 97.8594 124.955 95.1602 124.23 92.0879C123.463 88.836 120.407 86.1114 117.255 85.2471C117.124 85.21 117.083 85.128 117.132 85.001L117.158 84.9307C117.213 84.7901 117.312 84.7393 117.457 84.7784C121.306 85.8125 124.702 88.9356 125.159 93.0694C125.677 92.8506 126.128 92.5225 126.512 92.085C126.204 90.0694 125.385 88.2608 124.054 86.6592C123.058 85.4619 121.945 84.6182 120.715 84.128C119.707 83.7276 118.415 83.4473 116.839 83.2871C115.335 83.1856 113.838 83.2725 112.347 83.5479Z" fill="#464BAA"/>
<path d="M82.5935 96.3687C82.7908 96.2398 83.0213 96.3628 83.2849 96.7378L85.2478 97.022C85.3244 97.0332 85.4024 97.0292 85.4774 97.0103C85.5525 96.9913 85.623 96.9577 85.685 96.9115C85.7471 96.8652 85.7994 96.8072 85.839 96.7407C85.8786 96.6742 85.9047 96.6006 85.9158 96.524L86.9412 89.4693C86.9474 89.427 86.944 89.3839 86.9315 89.3431C86.9189 89.3023 86.8973 89.2648 86.8684 89.2334C86.8395 89.2019 86.804 89.1774 86.7644 89.1614C86.7247 89.1455 86.6821 89.1385 86.6394 89.1412C84.7498 89.2554 83.2557 91.0689 82.7928 92.7711C82.4842 93.9039 82.3699 94.6334 82.45 94.9595C82.5652 95.4361 82.6131 95.9058 82.5935 96.3687Z" fill="#464BAA"/>
<path d="M138.943 113.363C138.451 112.542 137.941 111.939 137.868 110.887C137.836 110.389 137.385 110.02 136.91 109.979C135.64 109.877 134.163 109.903 132.477 110.055C132.452 110.057 132.427 110.065 132.405 110.078C132.382 110.09 132.363 110.108 132.348 110.129C132.333 110.15 132.323 110.173 132.318 110.199C132.313 110.224 132.313 110.25 132.319 110.275C132.978 112.914 131.253 114.637 129.214 115.909C127.155 117.194 124.996 118.223 122.736 118.996C121.983 119.254 121.4 119.729 120.999 120.423C120.567 121.165 120.045 121.909 119.431 122.653C119.412 122.676 119.4 122.704 119.396 122.734C119.392 122.764 119.397 122.795 119.409 122.822C119.422 122.85 119.442 122.873 119.467 122.89C119.492 122.906 119.521 122.916 119.552 122.916C121.442 122.967 123.484 123.234 125.678 123.716C128.982 124.441 131.55 125.117 133.38 125.744C134.848 126.247 136.359 126.905 137.912 127.715C139.315 128.445 140.581 129.599 141.633 130.944C141.857 131.233 141.949 131.195 141.908 130.829C141.418 126.415 140.81 121.767 140.086 116.884C140.01 116.376 139.834 115.664 139.558 114.748C139.416 114.274 139.211 113.812 138.943 113.363Z" fill="#464BAA"/>
<path d="M6.11698 202.058C7.69316 202.831 9.9168 203.157 11.657 203.335C11.6775 202.597 11.698 201.791 11.5633 201.065C11.2176 199.205 11.1336 197.311 11.3113 195.381C11.6902 191.244 12.6014 187.41 14.0447 183.879C14.2283 183.432 14.1463 183.376 13.7986 183.712C10.7459 186.674 7.63457 190.131 5.95879 194.013C5.36699 195.387 4.69024 196.749 4.44414 198.267C4.08965 200.441 4.85722 200.681 6.11698 202.058Z" fill="#464BAA"/>
<path d="M22.3357 229.853L20.7771 237.569H24.4275C24.6677 235.417 24.78 233.61 24.7644 232.15C24.7351 229.234 24.7517 227.11 24.8142 225.777C24.8298 225.447 24.8142 225.062 24.7673 224.62C24.6912 223.902 24.1521 223.469 23.6834 223.009C23.6511 222.978 23.6104 222.957 23.5664 222.949C23.5225 222.941 23.4771 222.946 23.4359 222.963C23.3947 222.981 23.3596 223.01 23.3348 223.047C23.3101 223.085 23.2968 223.128 23.2966 223.173C23.2947 225.542 22.9744 227.769 22.3357 229.853Z" fill="#464BAA"/>
<path d="M19.989 227.675C19.6062 231.058 18.8699 234.355 17.78 237.568H19.8513C20.0349 236.924 20.1921 236.27 20.323 235.605C20.9265 232.51 21.3728 229.377 21.6619 226.207C21.3337 227.285 20.7761 227.774 19.989 227.675Z" fill="#464BAA"/>
<path d="M137.85 232.393L138.234 237.57H145.236C145.172 236.302 145.042 235.028 144.846 233.746C144.756 233.146 144.887 232.659 144.961 232.047C142.603 231.918 140.233 232.033 137.85 232.393Z" fill="#464BAA"/>
<path d="M123.345 51.5156C124.339 55.2129 124.941 58.9121 125.15 62.6133C125.371 66.5078 125.491 69.7607 125.51 72.3721C125.514 72.8779 125.358 73.335 125.042 73.7432C125.027 73.7616 125.009 73.7764 124.988 73.7865C124.967 73.7965 124.943 73.8014 124.92 73.8008C124.897 73.8002 124.874 73.7942 124.853 73.7832C124.833 73.7721 124.815 73.7564 124.801 73.7373C124.36 73.1084 123.879 72.3896 123.357 71.5811C122.89 70.8564 122.276 70.4854 121.514 70.4678C117.809 70.3799 113.912 70.374 109.822 70.4502C108.888 70.4697 108.181 70.8721 107.701 71.6572C107.617 71.7939 107.576 71.7822 107.578 71.6221C107.578 71.3672 107.633 71.0859 107.546 70.8369C106.869 68.8945 104.569 67.2949 102.791 69.2051C102.337 69.6885 101.844 70.3447 101.759 71.0215C101.72 71.3164 101.653 71.6035 101.557 71.8828C101.314 72.5889 101.493 74.1797 101.944 74.7832C102.085 74.9727 102.038 75.0508 101.803 75.0176C101.325 74.9512 100.844 74.9297 100.362 74.9531C99.8639 74.9766 99.3639 74.9853 98.8619 74.9795C97.4655 74.96 95.9889 74.9932 94.4323 75.0791C93.5494 75.1279 92.8356 75.3125 92.2907 75.6328C92.1578 75.7109 92.0944 75.6728 92.1002 75.5186C92.1266 74.9268 92.191 71.332 90.9459 71.7129C90.8444 71.7441 90.7858 71.8115 90.7701 71.915C90.7369 72.1377 90.7291 72.3613 90.7467 72.5859C90.9577 75.0781 90.7379 77.3809 90.0875 79.4941C89.9918 79.8047 89.7828 79.9873 89.4606 80.042C88.9254 80.1338 88.3795 80.2031 87.8229 80.25C87.4635 80.2793 87.3229 80.4697 87.401 80.8213L87.4215 80.9121C87.5055 81.2832 87.7311 81.4199 88.0983 81.3223C88.7487 81.1504 89.2955 81.1465 89.7389 81.3106L90.7174 81.4424C90.7936 81.0967 90.8463 80.8682 91.1041 80.5928C91.3366 80.3506 91.5533 80.085 91.7545 79.7959C91.8463 79.5635 91.8922 79.292 91.8922 78.9814L92.0973 77.8594C92.1442 77.5957 92.2243 77.585 92.3375 77.8271C92.4547 78.0752 92.65 78.2334 92.9235 78.3018C95.1578 78.8584 97.3395 78.9385 99.4684 78.542C99.5895 78.5186 99.6364 78.4463 99.609 78.3252C99.5836 78.2197 99.5338 78.125 99.4596 78.041C99.3912 77.9688 99.359 77.8828 99.3629 77.7832C99.3649 77.7363 99.3854 77.6992 99.4244 77.6719C99.5065 77.6113 99.5973 77.5947 99.6969 77.6221C100.074 77.7275 100.448 77.7246 100.819 77.6133C101.03 77.5488 101.235 77.6221 101.361 77.8008C101.362 77.8029 101.364 77.8046 101.366 77.8059C101.369 77.8072 101.371 77.808 101.373 77.8083C101.376 77.8085 101.379 77.8083 101.381 77.8075C101.383 77.8067 101.385 77.8054 101.387 77.8037L101.484 77.7305C101.552 77.6777 101.628 77.666 101.71 77.6953C101.858 77.75 101.986 77.7188 102.093 77.6016C102.117 77.5765 102.146 77.5579 102.178 77.5476C102.211 77.5373 102.245 77.5357 102.278 77.543C102.839 77.6738 103.418 77.6602 104.015 77.502C104.05 77.4933 104.086 77.4943 104.119 77.5049C104.153 77.5155 104.183 77.5353 104.206 77.5621C104.229 77.5888 104.245 77.6215 104.25 77.6564C104.256 77.6913 104.252 77.7271 104.238 77.7598L104.001 78.3223C104.329 78.6133 104.704 78.8125 105.126 78.9199L109.119 72.2666C109.166 72.1884 109.231 72.1232 109.31 72.0772C109.389 72.0311 109.478 72.0055 109.57 72.0029C113.318 71.9111 117.111 71.8945 120.949 71.9531C121.549 71.9619 121.872 72.1611 122.2 72.6211C124.174 75.3965 126.193 78.1475 128.256 80.874C128.441 80.6787 128.506 80.4434 128.452 80.168C128.446 80.1381 128.449 80.1074 128.459 80.0788C128.469 80.0503 128.487 80.0249 128.51 80.0053C128.533 79.9857 128.561 79.9726 128.591 79.9672C128.621 79.9618 128.652 79.9644 128.68 79.9746C129.835 80.3936 130.353 81.3926 131.713 81.3721C134.152 81.3389 136.478 81.2852 138.691 81.2109C138.782 81.2078 138.872 81.2259 138.955 81.2636C139.038 81.3014 139.111 81.3578 139.168 81.4285C139.226 81.4992 139.266 81.5822 139.286 81.671C139.306 81.7598 139.305 81.8521 139.283 81.9404C139.157 82.4678 138.489 82.5879 137.929 82.6201C137.148 82.665 136.502 82.917 135.99 83.376C137.312 83.3428 138.524 83.3145 139.626 83.291C139.993 83.2812 140.263 83.4453 140.437 83.7832C140.486 83.875 140.461 83.9326 140.361 83.9561L138.665 84.3838L138.673 84.9639C138.675 85.0693 138.629 85.1445 138.533 85.1895C137.388 85.7285 136.24 86.2061 135.088 86.6221C131.487 87.917 131.335 90.5713 130.743 93.8584C130.665 94.3037 130.503 94.7324 130.256 95.1445C129.744 96 129.339 97.1631 129.167 98.1416C128.973 99.2373 128.9 100.523 128.422 101.484C127.649 103.04 126.284 104.25 124.716 104.962C123.23 105.636 121.746 106.289 120.263 106.922C119.727 107.15 119.171 107.206 118.602 107.285L116.346 108.114C116.688 108.517 117.128 108.812 117.665 108.999C120.626 108.149 123.438 106.948 126.102 105.396C128.44 104.034 129.686 101.986 129.84 99.252C129.85 99.0918 129.762 98.8711 129.577 98.5898C129.557 98.5605 129.556 98.5303 129.574 98.499C129.58 98.4873 129.589 98.4795 129.6 98.4756C129.641 98.46 129.678 98.4658 129.712 98.4932C130.544 99.1807 131.361 99.8604 132.164 100.532C132.9 101.149 133.347 101.749 133.506 102.331C133.603 102.694 133.706 103.074 133.813 103.471C134.153 104.742 133.667 106.386 132.89 107.297C130.113 110.561 125.276 111.94 121.403 113.423C121.19 113.505 121.107 113.658 121.154 113.883C121.175 113.98 121.235 114.062 121.333 114.129C121.368 114.153 121.409 114.169 121.451 114.175C121.493 114.182 121.535 114.179 121.576 114.167C124.935 113.216 127.982 111.947 130.716 110.361C130.884 110.264 131.073 110.206 131.282 110.188C131.332 110.184 131.382 110.19 131.43 110.205C131.477 110.22 131.521 110.245 131.559 110.277C131.597 110.31 131.627 110.35 131.649 110.394C131.671 110.439 131.684 110.488 131.686 110.537C131.783 112.266 131.089 113.546 129.723 114.548C127.315 116.309 124.872 117.313 122.214 118.459C121.488 118.773 120.978 119.22 120.685 119.798C117.673 125.73 111.454 128.856 105.6 131.476C104.309 132.054 103.308 133.027 102.597 134.396C95.9762 147.108 89.6539 158.95 82.2916 172.113C79.358 177.359 76.3658 182.025 73.3151 186.111C70.6823 189.639 67.6608 193.497 64.2506 197.687C60.2223 202.635 55.8073 207.29 51.5709 212.077C48.2897 215.783 44.5748 218.956 40.5465 221.517C38.3102 222.938 36.1442 223.884 34.0485 224.353C29.9762 225.267 26.153 223.356 23.1911 220.614C22.4332 219.911 21.6549 219.199 20.8561 218.479C20.443 218.106 20.2995 217.649 19.8219 217.301C19.4079 216.994 19.0289 216.603 18.6852 216.126C17.4752 214.441 16.4557 212.83 15.6559 210.882C14.2926 207.56 13.3414 203.977 12.8024 200.133C12.568 198.475 12.4801 196.714 12.5885 195.038C12.6452 194.149 12.7262 193.267 12.8317 192.39C12.9235 191.622 13.0485 190.863 13.2067 190.113C13.6286 188.115 14.0651 186.293 14.818 184.301C15.4479 182.634 16.3033 181.567 17.8004 180.606C22.693 177.463 28.5817 175.509 34.318 176.174C34.9235 176.242 35.5729 176.412 36.2663 176.684C36.3834 176.729 36.3961 176.794 36.3043 176.88C34.1559 178.903 32.0006 181.112 29.8385 183.507C28.403 185.097 27.1559 186.752 26.0973 188.473C26.0185 188.598 25.9922 188.749 26.0241 188.892C26.0983 189.251 26.2614 189.379 26.5133 189.275C26.6188 189.23 26.6959 189.156 26.7448 189.053C27.3756 187.703 28.4049 186.256 29.8327 184.711C32.0739 182.285 34.2653 180.029 36.7467 177.809C39.8209 175.057 42.8649 172.214 45.8786 169.28C50.3024 164.971 55.1979 160.617 59.2321 156.63C65.1735 150.763 71.2428 144.041 77.4401 136.465C79.8717 133.494 82.5055 129.941 85.3414 125.807C85.4528 125.643 85.5328 125.47 85.5817 125.288C85.9391 123.923 86.6217 122.707 87.0114 121.397C87.8454 118.581 88.4362 115.631 88.7838 112.547C88.9567 111.018 87.4655 108.914 86.5397 107.745C84.7409 105.466 82.9303 102.94 82.4557 99.9814C82.3873 99.5537 82.486 99.5117 82.7516 99.8555C83.0895 100.291 83.4313 100.7 83.777 101.083C83.9996 101.329 84.2887 101.421 84.6442 101.358C84.6911 101.351 84.734 101.333 84.7731 101.306C85.07 101.106 85.0905 100.881 84.8346 100.629C84.1803 99.9863 83.5934 99.3115 83.0739 98.6045C82.8688 98.3252 82.9225 98.1123 83.235 97.9658C83.8268 97.6885 84.441 97.583 85.0778 97.6494C87.4889 97.8955 88.693 99.1728 90.1637 100.89C90.3493 99.7451 90.5201 98.623 90.6764 97.5234C90.7545 96.9726 90.7223 96.4629 90.5797 95.9941C90.4293 95.4922 90.2487 95.0049 90.0377 94.5322L89.9762 98.8945C89.9743 99.0137 89.9225 99.043 89.8209 98.9824C89.6569 98.8848 89.5241 98.749 89.4225 98.5752C89.3209 98.4033 89.2858 98.2187 89.317 98.0215L89.8737 94.3418C89.9166 93.4121 89.7721 92.4727 89.4401 91.5234C89.4094 91.4315 89.4043 91.3342 89.4254 91.2422C89.6168 90.4316 89.4791 89.7061 89.0123 89.0654L87.5534 97.0371C87.5469 97.0691 87.5284 97.0973 87.5017 97.1158C87.4749 97.1344 87.442 97.1419 87.4098 97.1367C87.2243 97.1016 87.0758 97.0156 86.9645 96.8789C86.8981 96.7969 86.8737 96.7021 86.8912 96.5947L87.7936 90.9639C87.8053 89.9717 87.8991 88.8545 88.0748 87.6123C88.1451 87.1143 88.0582 86.5996 87.8141 86.0684L87.36 87.7383C87.3326 87.8398 87.2672 87.8877 87.1637 87.8818C85.2457 87.8037 83.7252 88.4795 82.6022 89.9092C80.6041 92.4541 80.319 95.3174 81.7467 98.499C81.7916 98.5947 81.8073 98.6953 81.7936 98.8008C81.4479 101.874 83.0885 104.663 85.0045 107.095C85.1686 107.3 85.236 107.648 85.2008 107.903C84.0563 116.509 83.0602 123.314 82.2125 128.32C82.0836 129.082 81.6061 129.834 80.7799 130.576C80.6881 130.66 80.5797 130.695 80.4547 130.682C78.5016 130.48 76.5328 130.247 74.5485 129.981C69.693 129.329 65.1832 127.472 61.0192 124.409C60.0582 123.702 59.1949 122.918 58.4293 122.057C58.3649 121.986 58.3541 121.908 58.3971 121.822C59.1237 120.406 59.6071 119.095 59.8473 117.888C60.3649 115.288 60.6657 112.599 60.7496 109.819C60.7505 109.797 60.7569 109.775 60.7682 109.756C60.7794 109.736 60.7952 109.72 60.8142 109.708C60.8331 109.697 60.8545 109.69 60.8765 109.689C60.8985 109.688 60.9203 109.692 60.9401 109.702C65.5397 111.844 70.1686 113.282 75.4303 113.273C75.4928 113.273 75.5533 113.251 75.6006 113.21C75.6479 113.169 75.679 113.113 75.6881 113.051L75.7028 112.954C75.7086 112.915 75.6986 112.876 75.675 112.844C75.6515 112.812 75.6162 112.791 75.5768 112.784C72.2868 112.301 69.6442 111.785 66.7848 110.736C58.9918 107.883 51.9928 103.723 47.2584 96.832C45.6764 94.5293 44.5719 92.1387 43.5143 89.6807C43.3073 89.1982 43.2682 88.6885 43.3971 88.1514C43.444 87.96 43.3698 87.8701 43.1744 87.8818C42.4889 87.9268 41.7701 87.9502 41.0182 87.9521C36.9342 87.9727 33.2516 85.4121 32.5426 81.29C32.2555 79.6123 32.2604 77.7275 32.5573 75.6357C32.9762 72.7119 34.3473 69.9316 36.3161 67.7812C37.2789 66.7285 38.4459 66.3711 39.817 66.709C40.7194 66.9316 41.3932 67.6494 42.2194 68.1768C41.4245 66.6924 40.2194 65.9629 38.6041 65.9883C37.3795 66.0078 36.2877 66.5586 35.3288 67.6406C34.278 68.8301 33.4293 70.0322 32.7829 71.2471C30.9254 74.7422 30.5211 79.1514 31.652 83.0772C32.3493 85.5059 34.5231 87.4893 36.8434 88.3389C38.5309 88.96 40.2311 89.1689 41.944 88.9658C42.3424 88.9189 42.5914 89.2031 42.694 89.5518C43.6862 92.9346 45.1569 95.9609 47.1061 98.6309C48.0612 99.9375 49.0514 101.247 50.2526 102.39C52.8991 104.907 55.8473 107.002 59.0973 108.674C59.4723 108.867 59.6481 109.18 59.6246 109.611C59.4489 112.799 58.9918 115.768 58.2535 118.518C58.1071 119.071 58.0192 119.625 57.776 120.149C57.7606 120.182 57.738 120.211 57.71 120.234C57.6821 120.257 57.6494 120.273 57.6145 120.281C57.5796 120.29 57.5433 120.29 57.5084 120.283C57.4734 120.275 57.4407 120.259 57.4127 120.237C56.4577 119.493 55.6696 120.076 54.6647 120.272C53.4674 120.511 52.2916 120.751 51.1373 120.993C50.6656 121.09 50.1266 121.315 49.7106 121.559C48.6539 122.172 47.653 122.622 46.7076 122.909C42.6793 124.134 37.7135 124.89 33.3102 125.651C31.986 125.88 30.6237 126.186 29.2233 126.568C26.3844 127.345 23.8649 128.218 21.4684 129.967C19.9948 131.045 19.2653 132.094 18.2604 133.438C18.1061 133.644 17.8024 134.096 17.3493 134.795C16.7496 135.719 16.028 136.468 15.1842 137.042C13.8522 139.034 12.777 140.953 11.9586 142.799C10.1324 146.92 8.71057 151.331 7.69299 156.032C5.33752 166.939 3.51234 177.926 1.63441 188.936C1.50941 189.678 1.28481 191.435 0.960587 194.206C0.73793 196.11 0.715454 197.917 0.893188 199.626C0.978149 200.458 1.22717 201.311 1.7428 201.999C2.67834 203.249 3.69496 204.058 4.79262 204.425C6.80629 205.099 9.20277 205.437 11.9821 205.438C12.0914 205.438 12.1617 205.49 12.193 205.594C13.3239 209.473 14.4166 213.554 16.9918 216.776C17.5485 217.471 18.0553 218.18 18.6998 218.78C19.1832 219.229 19.4791 219.864 20.0182 220.228C20.1881 220.343 20.3463 220.476 20.4928 220.626C20.5709 220.708 20.6051 220.805 20.5953 220.916L19.9889 227.675C20.776 227.774 21.3336 227.285 21.6617 226.207L21.8815 222.114C21.8971 221.81 22.0114 221.767 22.2243 221.985L22.5319 222.299C22.7487 222.521 22.8454 222.787 22.8219 223.096L22.3356 229.852C22.9742 227.768 23.2946 225.541 23.2965 223.172C23.2967 223.127 23.31 223.083 23.3347 223.046C23.3595 223.009 23.3946 222.98 23.4358 222.962C23.4769 222.945 23.5223 222.94 23.5663 222.948C23.6103 222.956 23.651 222.977 23.6832 223.008C24.152 223.468 24.6911 223.901 24.7672 224.619C24.8141 225.061 24.8297 225.446 24.8141 225.776C24.7516 227.108 24.735 229.232 24.7643 232.148C24.7799 233.609 24.6676 235.416 24.4274 237.568H25.8717L26.0006 225.006C26.0026 224.768 26.108 224.708 26.317 224.827C33.2135 228.779 40.6608 223.456 45.8639 219.393C45.9967 219.289 46.068 219.321 46.0778 219.489C46.3102 223.11 46.5875 226.691 46.9098 230.232C47.0299 231.551 47.0621 232.904 47.1266 234.267C47.2028 235.839 46.4918 236.756 44.9938 237.018C44.8473 237.043 44.7155 237.089 44.5983 237.155C44.3737 237.282 44.3053 237.42 44.3932 237.568H51.6823L61.1686 236.338C61.2682 236.326 61.3151 236.37 61.3092 236.47L61.233 237.568H62.3317L62.2116 236.139C62.2038 236.055 62.2418 236.018 62.3258 236.027L62.4166 236.039C62.4746 236.047 62.5288 236.072 62.5722 236.111C62.6156 236.151 62.6461 236.202 62.6598 236.259C62.7614 236.671 62.7799 237.107 62.7155 237.568H63.4743L63.5475 236.092C63.5534 235.992 63.6061 235.938 63.7057 235.928C66.8287 235.6 69.9508 235.259 73.0719 234.905C75.0817 234.679 77.025 234.473 78.902 234.287C88.0563 233.387 95.445 232.621 101.068 231.99C104.683 231.586 108.535 231.106 112.623 230.552C114.384 230.313 116.323 230.082 118.438 229.857C123.278 229.342 128.21 228.734 133.233 228.035C133.43 228.008 133.528 228.093 133.526 228.29C133.497 230.953 133.81 234.094 136.693 234.955C136.793 234.984 136.843 235.052 136.845 235.157L136.883 237.568H138.234L137.85 232.392C137.38 232.368 137.065 232.14 136.907 231.706C136.51 230.618 136.301 229.307 136.28 227.771C136.278 227.666 136.33 227.608 136.435 227.599C139.901 227.238 143.361 226.813 146.839 226.849C146.865 226.849 146.892 226.855 146.917 226.865C146.942 226.876 146.964 226.891 146.983 226.911C147.001 226.93 147.016 226.953 147.026 226.978C147.036 227.003 147.041 227.03 147.041 227.057C147.004 228.646 146.66 230.175 146.009 231.642C145.927 231.829 145.808 231.979 145.652 232.093C145.39 232.28 145.16 232.265 144.961 232.046C144.887 232.658 144.756 233.145 144.846 233.745C145.042 235.026 145.172 236.301 145.236 237.568H146.411L146.033 234.396C146.021 234.298 146.059 234.226 146.147 234.179C149.05 232.655 149.256 229.104 149.499 226.222C149.557 225.526 149.458 224.767 149.2 223.942C149.096 223.618 148.873 223.388 148.529 223.251C148.408 223.204 148.349 223.115 148.353 222.984C148.39 220.855 148.355 218.441 148.248 215.742C148.011 209.832 147.695 204.216 147.298 198.894C147.109 196.358 146.826 193.781 146.449 191.162C146.443 191.12 146.428 191.08 146.405 191.044C146.382 191.009 146.351 190.979 146.314 190.957C146.211 190.895 146.115 190.876 146.027 190.901C145.812 190.962 145.714 191.103 145.734 191.323C146.013 194.628 146.275 198.788 146.519 203.804C146.857 210.788 147.056 216.792 147.117 221.815C147.131 222.841 146.979 223.96 146.947 225.041C146.945 225.15 146.89 225.213 146.783 225.229C146.197 225.32 145.645 225.385 145.128 225.422C141.987 225.646 138.898 225.9 135.861 226.184C135.736 226.195 135.675 226.139 135.679 226.014C135.7 225.149 135.744 224.241 135.682 223.392C135.069 215.104 134.463 206.817 133.863 198.53C133.812 197.819 133.761 197.136 133.711 196.479C133.408 192.579 133.143 188.583 132.917 184.491C132.69 180.39 131.967 171.983 130.749 159.272C129.635 147.686 128.024 136.333 125.358 124.887C125.354 124.87 125.354 124.852 125.359 124.836C125.364 124.819 125.373 124.804 125.386 124.791C125.399 124.779 125.414 124.77 125.431 124.765C125.448 124.76 125.467 124.76 125.484 124.764C127.896 125.33 130.267 126 132.597 126.773C134.65 127.455 136.575 128.36 138.372 129.489C138.533 129.592 138.706 129.753 138.779 129.935C139.035 130.577 139.279 131.384 139.511 132.354C140.316 135.704 141.113 139.988 141.902 145.207C142.382 148.393 142.921 152.324 143.516 157.002C143.717 158.584 143.926 160.135 144.143 161.654C144.247 162.375 144.308 163.099 144.328 163.825C144.378 165.662 144.583 167.522 144.682 169.324C144.967 174.459 145.249 179.756 145.526 185.215C145.555 185.754 145.655 186.299 145.675 186.835C145.685 187.099 145.813 187.182 146.059 187.084L146.188 187.034C146.376 186.96 146.465 186.821 146.458 186.618C146.434 185.923 146.417 185.278 146.405 184.685C146.305 179.628 146.202 174.526 146.094 169.38C145.977 163.88 145.738 158.291 145.377 152.613C144.953 145.941 144.254 139.3 143.279 132.688C143.248 132.47 143.216 132.246 143.185 132.018C142.849 129.434 142.546 126.985 142.274 124.673C141.983 122.212 141.435 119.073 140.631 115.257C140.461 114.45 140.205 113.798 139.863 113.3C139.265 112.431 138.807 111.43 138.489 110.297C138.454 110.172 138.501 110.108 138.63 110.106C140.182 110.086 143.206 110.106 143.197 107.771C143.193 107.043 143.191 106.333 143.191 105.642C143.191 105.126 142.801 104.745 143.191 104.259C143.906 103.364 144.457 102.5 144.843 101.666C144.896 101.553 144.984 101.51 145.107 101.537C146.733 101.906 148.242 102.129 149.909 101.941C149.989 101.932 150.062 101.893 150.113 101.831C150.164 101.769 150.189 101.69 150.181 101.61L150.164 101.408C150.148 101.205 150.039 101.119 149.836 101.15C147.978 101.452 146.027 100.84 144.225 100.33C143.991 100.264 143.816 100.33 143.701 100.529C143.674 100.575 143.662 100.628 143.666 100.681C143.671 100.734 143.691 100.784 143.724 100.825L144.099 101.282C144.166 101.362 144.167 101.444 144.102 101.528C143.085 102.847 142.052 104.154 141.006 105.451C139.705 107.065 137.683 107.93 136.23 105.864C135.877 105.36 135.588 104.664 135.363 103.775C135.338 103.668 135.348 103.564 135.395 103.465C135.598 103.043 135.593 102.646 135.38 102.272C134.445 100.636 133.603 98.9561 132.855 97.2334C132.354 96.085 132.284 94.9248 132.006 93.7295C131.721 92.5107 132.102 90.0791 132.981 89.1328C133.391 88.6914 133.944 88.3086 134.639 87.9844C136.37 87.1777 138.21 86.3018 140.159 85.3564C141.13 84.8857 142.231 84.7539 143.464 84.9609C146.88 85.5381 150.175 86.5869 153.615 87.2168C153.906 87.2695 154.182 87.2393 154.444 87.126C154.553 87.0791 154.578 86.9619 154.517 86.7744C154.501 86.724 154.473 86.6783 154.434 86.6414C154.396 86.6046 154.349 86.5778 154.297 86.5635C153.026 86.209 151.69 86.001 150.407 85.6201C148.171 84.9541 145.984 84.4258 143.847 84.0352C143.332 83.9395 142.789 83.9082 142.218 83.9414C142.119 83.9473 142.037 83.9102 141.972 83.8301L140.059 81.4189C139.903 81.2217 139.951 81.1152 140.203 81.0996C140.642 81.0732 141.917 80.8096 141.521 80.0361C141.497 79.9898 141.457 79.9529 141.41 79.9312C141.362 79.9094 141.308 79.9041 141.257 79.916C140.56 80.0742 139.854 80.165 139.139 80.1885C136.954 80.2588 134.779 80.3164 132.615 80.3613C131.452 80.3848 130.013 80.1943 129.17 79.3242C128.517 78.6504 127.914 77.9814 127.359 77.3174C127.285 77.2294 127.235 77.1243 127.212 77.0118C127.189 76.8993 127.194 76.7828 127.227 76.6728C127.576 75.5215 127.491 74.6777 129.003 74.5225C132.609 74.1533 136.295 73.8486 139.866 73.2393C140.659 73.1025 141.459 72.9785 142.265 72.8672C143.17 72.7402 143.995 72.7764 144.741 72.9756C145.69 73.2295 146.569 73.6709 147.378 74.2998C150.387 76.6455 153.377 79.6211 156.345 83.2266C157.324 84.416 157.989 85.7324 158.34 87.1758C158.528 87.9434 158.528 88.7109 158.592 89.4756C158.639 90.0518 158.647 90.6475 158.616 91.2627C158.448 94.5459 158.253 97.8399 158.03 101.145C157.825 104.195 157.739 108.247 157.772 113.3C157.778 114.274 157.953 115.117 158.297 115.828C158.455 116.156 158.599 116.49 158.73 116.83C161.109 123.01 164.444 132.546 168.735 145.438C171.565 153.942 174.084 162.502 176.291 171.117C177.849 177.205 178.904 183.255 179.455 189.267C179.73 192.278 179.759 195.627 178.47 198.434C177.353 200.871 175.783 203.113 173.759 205.16C170.926 208.028 166.948 209.455 162.978 209.777C159.968 210.021 157.089 209.878 154.341 209.347C154.274 209.334 154.212 209.302 154.162 209.254C154.112 209.207 154.077 209.147 154.06 209.08L152.323 202.386C152.301 202.299 152.248 202.222 152.174 202.17C152.1 202.118 152.01 202.094 151.919 202.102L151.796 202.113C151.76 202.116 151.726 202.127 151.696 202.144C151.665 202.161 151.638 202.184 151.617 202.213C151.596 202.241 151.581 202.273 151.574 202.308C151.566 202.342 151.566 202.378 151.573 202.412C152.502 206.985 153.372 211.298 154.432 215.739C156.008 222.339 157.631 229.016 159.301 235.77C159.45 236.375 159.617 236.975 159.802 237.568H161.314L154.429 210.686C154.379 210.49 154.451 210.42 154.646 210.475C161.373 212.385 169.626 211.588 174.799 206.458C178.054 203.229 181.04 198.691 181.198 193.957C181.254 192.296 181.233 190.494 181.057 188.789C180.487 183.318 179.613 178.174 178.435 173.355C177 167.49 175.151 160.849 173.156 154.582C168.916 141.264 164.256 128.177 159.178 115.321C158.768 114.287 158.792 113.188 158.8 112.014C158.838 107.107 158.925 103.752 159.064 101.947C159.416 97.3457 159.637 93.8223 159.729 91.377C159.76 90.5352 159.739 89.5889 159.665 88.5381C159.504 86.25 158.701 84.2754 157.245 82.4619C154.995 79.6631 152.432 76.9844 149.557 74.4258C147.542 72.6357 145.233 71.2236 142.511 71.4814C142.477 71.485 142.443 71.4788 142.412 71.4638C142.382 71.4488 142.356 71.4254 142.339 71.3965C141.68 70.3398 140.745 69.5674 139.532 69.0791C138.967 68.8525 138.157 68.7617 137.1 68.8066C135.229 68.8848 133.37 69.001 131.522 69.1553C130.059 69.2881 128.721 69.7139 127.508 70.4326C127.46 70.4616 127.406 70.4781 127.35 70.4808C127.294 70.4834 127.238 70.472 127.187 70.4476C127.137 70.4233 127.092 70.3867 127.059 70.3411C127.026 70.2956 127.004 70.2425 126.996 70.1865C126.58 67.248 126.922 64.2803 126.562 61.2422C126.252 58.6602 125.822 56.1514 125.273 53.7158C125.115 53.0186 124.881 52.4912 124.57 52.1338C124.361 51.8896 123.953 51.6836 123.345 51.5156ZM129.799 72.9814C128.135 73.1514 126.829 73.8047 126.331 75.4189C126.26 75.6455 126.152 75.665 126.005 75.4775L125.754 75.1582C125.619 74.9883 125.597 74.8047 125.689 74.6074C126.337 73.207 127.177 71.8271 128.566 71.1035C129.05 70.8516 129.749 70.6797 130.661 70.5879C133.163 70.3398 135.49 70.1572 137.642 70.04C138.764 69.9785 140.015 70.6904 140.915 71.4023C140.939 71.4213 140.956 71.4469 140.966 71.4758C140.975 71.5048 140.976 71.5359 140.968 71.5652C140.96 71.5946 140.943 71.6209 140.92 71.6409C140.897 71.6609 140.869 71.6737 140.839 71.6777C137.13 72.1719 133.45 72.6064 129.799 72.9814ZM98.3903 76.6025C97.2145 76.5342 96.0026 76.4316 94.7545 76.2949C94.7123 76.2906 94.6721 76.2746 94.6385 76.2487C94.6049 76.2228 94.5791 76.1881 94.5641 76.1484L94.5289 76.0605C94.5075 76.0059 94.526 75.9785 94.5846 75.9785L104.789 75.9111C105.047 75.9111 105.133 76.0322 105.049 76.2744L105.003 76.4092C104.948 76.5653 104.845 76.7002 104.71 76.7949C104.574 76.8895 104.412 76.9391 104.247 76.9365C102.393 76.9111 100.582 76.8389 98.8121 76.7197C98.651 76.708 98.5455 76.6143 98.3903 76.6025ZM83.2848 96.7353C83.2223 97.0967 83.026 97.1455 82.6959 96.8818C82.6139 96.8174 82.5758 96.7334 82.5817 96.6299L82.5934 96.3662C82.6129 95.9033 82.5651 95.4336 82.4498 94.957C82.3698 94.6309 82.484 93.9014 82.7926 92.7686C83.2555 91.0664 84.7496 89.2529 86.6393 89.1387C86.6819 89.136 86.7246 89.143 86.7642 89.1589C86.8038 89.1749 86.8394 89.1994 86.8683 89.2309C86.8972 89.2623 86.9187 89.2998 86.9313 89.3406C86.9439 89.3814 86.9472 89.4245 86.941 89.4668L85.9157 96.5215C85.9045 96.5981 85.8784 96.6717 85.8388 96.7382C85.7992 96.8047 85.7469 96.8627 85.6849 96.909C85.6229 96.9552 85.5523 96.9888 85.4773 97.0078C85.4023 97.0267 85.3243 97.0307 85.2477 97.0195L83.2848 96.7353ZM131.156 97.4268C131.121 97.458 131.082 97.4639 131.039 97.4443C130.687 97.2842 130.494 97.0205 130.459 96.6533C130.4 96.0176 130.473 94.7578 131.431 94.9131C131.539 94.9307 131.603 94.9922 131.625 95.0977C131.734 95.6231 131.775 96.1709 131.748 96.7412C131.742 96.8447 131.7 96.9316 131.622 97.002L131.156 97.4268ZM140.994 107.021C141.331 106.802 141.498 106.374 141.846 106.143C141.864 106.131 141.884 106.124 141.906 106.123C141.927 106.122 141.948 106.127 141.967 106.137C141.985 106.147 142 106.163 142.011 106.181C142.021 106.2 142.026 106.221 142.025 106.242C141.99 106.96 142.248 107.912 141.624 108.437C141.28 108.728 140.925 108.871 140.56 108.867C137.732 108.838 134.964 108.932 132.257 109.148C132.255 109.148 132.252 109.148 132.25 109.146C132.247 109.145 132.246 109.143 132.244 109.14C132.243 109.138 132.243 109.135 132.243 109.132C132.243 109.13 132.244 109.127 132.246 109.125L134.352 107.229C134.376 107.206 134.404 107.196 134.437 107.2C135.793 107.364 137.079 107.527 138.296 107.689C139.223 107.814 140.123 107.592 140.994 107.021ZM83.7448 126.445C84.653 120.87 85.4557 115.222 86.109 109.696C86.1344 109.489 86.1647 109.275 86.1998 109.055C86.2448 108.779 86.3239 108.77 86.4371 109.025C86.6774 109.572 86.7614 110.175 86.6891 110.833C86.1305 115.917 85.4713 120.622 84.7116 124.948C84.6002 125.581 84.3678 126.12 84.0143 126.565C83.7701 126.872 83.6803 126.832 83.7448 126.445ZM137.868 110.886C137.941 111.938 138.451 112.541 138.943 113.361C139.211 113.811 139.416 114.272 139.558 114.747C139.834 115.663 140.009 116.375 140.086 116.883C140.81 121.766 141.418 126.414 141.908 130.828C141.949 131.193 141.857 131.231 141.632 130.942C140.581 129.598 139.315 128.443 137.912 127.714C136.359 126.903 134.848 126.246 133.38 125.742C131.549 125.115 128.982 124.439 125.677 123.715C123.484 123.232 121.442 122.966 119.551 122.915C119.521 122.914 119.492 122.905 119.467 122.888C119.441 122.872 119.421 122.848 119.409 122.821C119.396 122.793 119.392 122.763 119.396 122.733C119.4 122.703 119.412 122.675 119.431 122.651C120.045 121.907 120.567 121.164 120.999 120.422C121.4 119.728 121.983 119.253 122.736 118.995C124.996 118.222 127.155 117.192 129.214 115.907C131.253 114.636 132.978 112.913 132.319 110.273C132.313 110.248 132.312 110.222 132.317 110.197C132.322 110.172 132.333 110.148 132.348 110.127C132.363 110.106 132.382 110.089 132.404 110.076C132.427 110.064 132.452 110.056 132.477 110.054C134.163 109.901 135.64 109.876 136.91 109.978C137.384 110.019 137.836 110.388 137.868 110.886ZM59.1383 124.002C62.3727 126.775 65.9918 128.765 69.9957 129.97C73.2536 130.951 76.5846 131.268 80.0182 131.514C80.0425 131.515 80.0659 131.524 80.0855 131.538C80.1051 131.553 80.1203 131.573 80.1292 131.595C80.1381 131.618 80.1404 131.643 80.1357 131.667C80.1311 131.691 80.1198 131.713 80.1032 131.73C79.0563 132.848 78.0534 134.04 77.0944 135.308C77.021 135.403 76.9242 135.478 76.8133 135.525C76.7025 135.573 76.5813 135.59 76.4615 135.577C74.1969 135.308 71.8707 134.941 69.7701 134.273C62.7828 132.056 56.5162 127.934 52.1891 122.027C52.1764 122.01 52.1681 121.99 52.165 121.969C52.162 121.948 52.1641 121.927 52.1714 121.907C52.1786 121.887 52.1908 121.869 52.2066 121.854C52.2225 121.84 52.2416 121.83 52.2623 121.825C53.5573 121.511 54.8258 121.117 56.068 120.645C56.1117 120.627 56.1601 120.626 56.2046 120.641C56.249 120.656 56.2868 120.686 56.3112 120.727C57.0651 121.939 58.0075 123.031 59.1383 124.002ZM43.9069 124.808C46.3522 124.22 48.5885 123.31 50.6159 122.077C50.7571 121.991 50.9253 121.962 51.0874 121.994C51.2495 122.026 51.3937 122.117 51.4918 122.25C52.3473 123.41 53.1559 124.567 54.152 125.628C59.6364 131.458 67.8658 135.873 76.1334 136.377C76.1438 136.378 76.1537 136.382 76.1622 136.388C76.1706 136.394 76.1773 136.402 76.1815 136.412C76.1856 136.421 76.1872 136.432 76.186 136.442C76.1847 136.453 76.1807 136.462 76.1744 136.471C71.3756 142.084 66.4069 147.561 61.2682 152.9C59.1198 155.133 56.8903 157.303 54.5797 159.41C54.5646 159.425 54.5457 159.434 54.5252 159.439C54.5048 159.443 54.4835 159.441 54.464 159.434C54.4444 159.426 54.4273 159.414 54.4146 159.397C54.4019 159.38 54.3942 159.361 54.3922 159.34C54.3688 159.121 54.3278 158.907 54.2692 158.698C51.8434 150.153 49.4928 142.276 47.2174 135.067C46.1725 131.755 45.0055 128.458 43.7164 125.177C43.7019 125.14 43.6954 125.101 43.6973 125.062C43.6993 125.022 43.7096 124.984 43.7276 124.949C43.7457 124.914 43.771 124.883 43.8019 124.859C43.8329 124.834 43.8686 124.817 43.9069 124.808ZM133.778 225.8C133.693 225.967 133.711 226.189 133.664 226.368C133.64 226.46 133.583 226.512 133.491 226.523C128.907 227.111 124.71 227.604 120.899 228C119.012 228.195 117.076 228.418 115.089 228.668C108.976 229.434 102.59 230.191 95.9323 230.941C94.0807 231.15 92.2672 231.34 90.4918 231.51C81.3453 232.383 72.1178 233.358 62.8092 234.437C62.7784 234.44 62.7472 234.437 62.7178 234.427C62.6885 234.417 62.6619 234.4 62.6401 234.377C62.6183 234.355 62.6019 234.328 62.5921 234.298C62.5823 234.268 62.5794 234.236 62.5836 234.205C62.7028 233.352 62.7457 232.473 62.7125 231.568C62.4166 223.444 61.3795 213.709 60.278 204.63C60.2641 204.523 60.274 204.413 60.3069 204.31C60.3398 204.207 60.3949 204.112 60.4684 204.032C65.4977 198.47 70.3053 192.593 74.8912 186.401C77.8815 182.366 80.7614 177.836 83.5309 172.811C87.2067 166.143 90.8317 159.446 94.4059 152.722C97.2125 147.434 99.8551 142.102 102.591 136.72C103.555 134.818 104.2 133.333 106.344 132.393C110.912 130.383 115.236 127.878 118.476 124.146C118.687 123.903 118.95 123.79 119.264 123.806C120.905 123.886 122.533 124.11 124.148 124.479C124.244 124.503 124.307 124.561 124.339 124.652C124.551 125.248 124.739 125.947 124.901 126.75C126.805 136.207 128.213 145.64 129.123 155.048C129.992 164.021 130.766 172.922 131.446 181.752C131.59 183.621 131.721 185.568 131.839 187.594C132.504 199.137 133.344 210.495 134.203 222.261C134.294 223.509 134.431 224.534 133.778 225.8ZM42.9196 125.549C43.4996 127.169 44.1588 128.704 44.6803 130.318C47.8346 140.062 50.7916 149.984 53.5514 160.084C53.5727 160.164 53.572 160.248 53.5493 160.327C53.5266 160.407 53.4828 160.479 53.4225 160.535C50.1393 163.566 46.9284 166.635 43.7897 169.74C43.7716 169.759 43.7486 169.771 43.7234 169.777C43.6982 169.782 43.672 169.78 43.648 169.77C43.624 169.761 43.6033 169.745 43.5884 169.724C43.5735 169.703 43.565 169.678 43.5641 169.652C43.4137 166.713 43.1393 163.812 42.7408 160.948C42.649 160.292 42.5016 159.672 42.2985 159.088C40.5289 154.005 38.8414 148.846 36.8668 143.839C34.7663 138.513 32.6598 133.389 30.8082 127.611C30.8033 127.596 30.8014 127.581 30.8027 127.565C30.8041 127.55 30.8087 127.535 30.8161 127.521C30.8236 127.507 30.8338 127.496 30.8461 127.487C30.8584 127.477 30.8724 127.471 30.8873 127.468C31.7506 127.261 32.61 127.089 33.4655 126.952C36.3854 126.481 39.3805 125.912 42.4508 125.244C42.5279 125.228 42.6083 125.236 42.6812 125.267C42.754 125.299 42.8158 125.352 42.858 125.42C42.8815 125.459 42.902 125.502 42.9196 125.549ZM15.8844 137.531C16.2448 136.925 16.9156 137.062 17.2672 136.365C18.4479 134.019 20.2906 131.713 22.4996 130.509C24.7946 129.257 27.2409 128.352 29.8385 127.793C29.9577 127.768 30.0348 127.813 30.0699 127.931C30.7574 130.302 31.4498 132.411 32.1471 134.259C33.5006 137.845 34.9801 141.687 36.5856 145.784C37.4039 147.876 38.7721 151.875 40.6901 157.781C41.1276 159.129 41.4108 160.32 41.5397 161.355C41.9342 164.549 42.1959 167.702 42.3248 170.815C42.3285 170.901 42.3142 170.987 42.2829 171.067C42.2517 171.146 42.2041 171.218 42.1432 171.278L40.1217 173.288C40.0554 173.354 39.9725 173.4 39.8817 173.422C39.7909 173.444 39.6956 173.442 39.6061 173.414C38.3756 173.033 37.2067 172.491 35.9323 172.216C27.4655 170.382 19.025 173.15 12.4039 178.523C8.55629 181.646 5.61 185.215 3.56508 189.229C3.24477 189.857 3.14807 189.825 3.27502 189.132C3.69104 186.854 4.09338 184.469 4.48206 181.975C5.45276 175.76 6.4518 169.753 7.47914 163.954C8.13734 160.245 8.89807 156.559 9.76135 152.895C11.0524 147.408 13.0934 142.287 15.8844 137.531ZM143.513 148.283C142.743 142.667 141.802 136.758 140.279 131.188C140.236 131.034 140.273 131.012 140.39 131.121C141.419 132.094 142.022 132.826 142.172 134.109C142.736 138.979 143.224 143.702 143.636 148.28C143.64 148.315 143.625 148.335 143.589 148.339H143.587C143.544 148.345 143.519 148.326 143.513 148.283ZM6.11682 202.058C4.85706 200.681 4.08949 200.44 4.44398 198.267C4.69008 196.749 5.36684 195.387 5.95863 194.013C7.63441 190.131 10.7457 186.674 13.7985 183.712C14.1461 183.376 14.2281 183.432 14.0446 183.879C12.6012 187.41 11.6901 191.244 11.3112 195.381C11.1334 197.311 11.2174 199.205 11.5631 201.064C11.6979 201.791 11.6774 202.597 11.6569 203.335C11.7643 203.493 11.819 203.638 11.8209 203.769C11.8218 203.792 11.8178 203.815 11.8092 203.837C11.8007 203.858 11.7878 203.878 11.7713 203.895C11.7548 203.911 11.7351 203.924 11.7134 203.933C11.6917 203.941 11.6684 203.945 11.6451 203.944C10.1783 203.896 8.60805 203.668 6.93422 203.262C4.9391 202.775 3.19299 201.709 2.75061 199.608C2.276 197.35 2.62463 194.733 2.89124 192.311C2.91467 192.1 2.97522 191.9 3.07288 191.713C4.21545 189.482 5.38539 187.549 6.58266 185.912C10.1276 181.068 14.6354 177.396 20.1061 174.894C25.9655 172.216 33.2926 171.7 39.2985 174.185C39.305 174.187 39.3109 174.192 39.3153 174.197C39.3198 174.203 39.3228 174.209 39.324 174.216C39.3252 174.223 39.3245 174.23 39.3221 174.236C39.3197 174.243 39.3156 174.248 39.3102 174.252C38.5621 174.871 37.8278 175.491 37.1071 176.112C37.07 176.144 37.0309 176.147 36.9899 176.124C36.1285 175.642 35.1852 175.348 34.1598 175.242C26.5075 174.454 19.0778 177.583 13.4176 182.748C9.34827 186.466 6.1725 190.603 4.33266 195.835C3.43617 198.387 3.03186 200.979 6.11682 202.058ZM50.7301 214.875C50.7623 214.315 51.0729 214.084 51.4186 213.694C53.8268 211.005 56.3444 208.318 58.9713 205.635C58.9893 205.616 59.0128 205.602 59.0385 205.597C59.0642 205.592 59.091 205.594 59.1152 205.604C59.1394 205.615 59.16 205.632 59.174 205.654C59.1881 205.676 59.1951 205.702 59.194 205.729C59.1862 206.117 59.2076 206.527 59.2584 206.959C60.2701 215.58 60.987 223.701 61.4088 231.322C61.4577 232.213 61.3463 233.299 61.0748 234.58C61.0534 234.686 60.9889 234.744 60.8815 234.756C59.4811 234.916 58.0533 235.082 56.5983 235.254C56.0621 235.315 55.5172 235.219 55.0104 235.374C54.6295 235.491 54.2428 235.571 53.8502 235.614C52.0631 235.812 50.3434 236.048 48.691 236.323C48.6653 236.327 48.6391 236.326 48.6139 236.319C48.5888 236.312 48.5654 236.3 48.5454 236.284C48.5254 236.267 48.5092 236.246 48.498 236.223C48.4867 236.199 48.4806 236.174 48.4801 236.147C48.4625 235.072 48.5123 234.012 48.4362 232.992C48.069 228.092 47.6949 223.166 47.3141 218.215C47.3105 218.166 47.3185 218.116 47.3373 218.071C47.3561 218.025 47.3852 217.984 47.4225 217.951L50.5748 215.191C50.6204 215.151 50.6575 215.103 50.6842 215.049C50.7108 214.994 50.7265 214.935 50.7301 214.875ZM147.673 229.576C148 227.906 148.164 226.176 148.166 224.385C148.168 224.273 148.221 224.233 148.327 224.265L148.403 224.285C148.538 224.322 148.606 224.411 148.608 224.552C148.657 227.054 148.362 229.254 147.723 231.152C147.444 231.982 146.961 232.744 146.273 233.438C146.099 233.613 146.017 233.578 146.027 233.332C146.035 233.16 146.09 233.006 146.194 232.869C146.946 231.873 147.439 230.775 147.673 229.576ZM135.263 227.959C135.351 229.901 135.533 231.864 136.91 233.273C137.071 233.44 137.071 233.71 136.96 233.897C136.905 233.989 136.83 234.012 136.734 233.965C135.722 233.471 135.089 232.601 134.836 231.354C134.591 230.159 134.522 229.084 134.628 228.129C134.647 227.943 134.747 227.822 134.926 227.766C134.981 227.75 135.037 227.748 135.093 227.76C135.14 227.77 135.181 227.795 135.212 227.831C135.242 227.867 135.261 227.912 135.263 227.959Z" fill="#464BAA"/>
<path d="M64.6549 67.4893C65.3493 65.752 66.1755 63.9033 67.7253 62.7315C70.9801 60.2705 75.5827 61.9024 77.1852 65.4649C77.2516 65.6133 77.3659 65.6875 77.528 65.6875C77.569 65.6856 77.609 65.6768 77.6481 65.6612C77.8337 65.583 77.9088 65.4453 77.8737 65.2481C77.487 63.0977 75.237 61.3604 73.1715 60.6338C72.2399 60.3076 71.2506 60.2129 70.2038 60.3496C66.1901 60.877 63.987 64.7442 63.486 68.4766C63.445 68.7832 63.5602 69.0078 63.8317 69.1504L63.8991 69.1826C64.1471 69.3135 64.2838 69.2393 64.3092 68.96C64.3561 68.4414 64.4586 67.9815 64.6549 67.4893Z" fill="#464BAA"/>
<path d="M112.541 68.7028C112.572 68.9001 112.685 68.9782 112.88 68.9372L113.009 68.9079C113.228 68.861 113.331 68.7253 113.317 68.5007C113.097 64.9528 110.484 61.2204 106.801 60.5935C105.381 60.3513 104.082 60.5798 102.902 61.279C101.304 62.2282 100.209 63.571 99.6177 65.3073C99.5967 65.3675 99.5897 65.4318 99.5973 65.4952C99.6049 65.5587 99.6269 65.6197 99.6616 65.6735C99.7456 65.8083 99.8521 65.8952 99.981 65.9343C100.196 66.0007 100.348 65.9304 100.438 65.7233C101.566 63.1218 104.44 61.0212 107.417 62.0993C110.211 63.1101 112.104 65.8786 112.541 68.7028Z" fill="#464BAA"/>
<path d="M75.6384 72.2581C75.5011 74.503 74.0099 76.2384 72.3077 76.1343C70.6055 76.0301 69.3369 74.1259 69.4742 71.8811C69.6115 69.6362 71.1027 67.9008 72.8049 68.0049C74.5071 68.109 75.7757 70.0132 75.6384 72.2581Z" fill="#464BAA"/>
<path d="M39.07 75.0487C39.3248 74.0877 40.3326 73.2996 41.2614 74.0848C41.6578 74.4207 42.0358 74.7752 42.3951 75.1483C42.4127 75.1658 42.4283 75.1698 42.442 75.16L42.5065 75.1073C42.5338 75.0877 42.5377 75.0643 42.5182 75.0369C42.0651 74.3592 41.4967 73.8299 40.8131 73.449C38.276 72.0311 37.1774 79.0946 40.3883 80.1405C40.4508 80.16 40.4928 80.1395 40.5143 80.0789C40.5241 80.0535 40.5231 80.0272 40.5114 79.9998C40.5055 79.9842 40.4957 79.9725 40.482 79.9647C38.8737 78.9715 38.6334 76.7069 39.07 75.0487Z" fill="#464BAA"/>
<path d="M110.795 79.8049C111.331 79.6077 111.761 79.1903 111.99 78.6445C112.22 78.0988 112.23 77.4694 112.019 76.8948C111.807 76.3201 111.392 75.8474 110.863 75.5805C110.335 75.3136 109.737 75.2745 109.201 75.4717C108.665 75.6689 108.235 76.0863 108.005 76.632C107.776 77.1778 107.765 77.8072 107.977 78.3818C108.188 78.9564 108.604 79.4292 109.132 79.696C109.661 79.9629 110.259 80.0021 110.795 79.8049ZM110.465 79.0954C110.186 79.2028 109.865 79.1655 109.572 78.9919C109.279 78.8182 109.038 78.5223 108.901 78.1693C108.765 77.8162 108.745 77.435 108.846 77.1094C108.946 76.7838 109.159 76.5406 109.437 76.4331C109.716 76.3257 110.037 76.363 110.33 76.5366C110.623 76.7103 110.864 77.0062 111 77.3593C111.137 77.7123 111.157 78.0935 111.056 78.4191C110.956 78.7447 110.743 78.9879 110.465 79.0954Z" fill="#464BAA"/>
<path d="M110.745 77.4224C110.225 77.19 109.727 77.2369 109.251 77.563C109.155 77.6294 109.141 77.7095 109.21 77.8033C109.682 78.4634 110.218 78.5816 110.818 78.1578C110.879 78.1144 110.928 78.0556 110.959 77.9872C110.99 77.9189 111.003 77.8435 110.995 77.7687C110.988 77.694 110.961 77.6226 110.917 77.5617C110.873 77.5009 110.813 77.4528 110.745 77.4224Z" fill="#464BAA"/>
<path d="M60.6529 78.7492C58.7428 78.6701 57.1841 78.9924 56.1734 80.6476C55.3795 81.9484 55.7633 83.4162 56.8062 84.4475C57.7672 85.3986 58.9215 85.9846 60.2691 86.2053C60.2926 86.2092 60.3082 86.1994 60.316 86.176V86.173C60.3238 86.1496 60.315 86.1349 60.2896 86.1291C58.6695 85.7541 56.859 84.6613 56.147 83.0822C55.5347 81.7228 56.6861 80.009 57.7994 79.3937C58.6314 78.9328 59.5767 78.7502 60.6353 78.8459C60.6705 78.8478 60.69 78.8312 60.6939 78.7961C60.6978 78.7668 60.6842 78.7512 60.6529 78.7492Z" fill="#464BAA"/>
<path d="M61.8776 79.0369C62.6002 79.2772 63.3014 79.6238 63.9811 80.077C65.1207 80.8358 65.528 81.908 65.2262 83.2674C64.9127 84.6912 63.1286 85.6697 61.7692 86.0535C61.3375 86.1766 61.3434 86.2078 61.7868 86.1473C62.9606 85.9852 63.8971 85.5321 64.5963 84.7879C65.692 83.6219 65.9821 81.7352 64.8454 80.5428C64.1032 79.7635 63.1412 79.2762 61.9596 79.0809C61.9401 79.077 61.9235 79.0682 61.9098 79.0545C61.9 79.0467 61.8903 79.0399 61.8805 79.034C61.8629 79.0242 61.862 79.0252 61.8776 79.0369Z" fill="#464BAA"/>
<path d="M112.347 83.5469C113.837 83.2715 115.334 83.1846 116.838 83.2861C117.983 83.2119 118.958 83.3242 119.762 83.623C123.94 85.1729 126.457 88.4658 127.385 92.8281L127.962 94.7002C127.969 94.721 127.98 94.74 127.995 94.7554C128.011 94.7709 128.03 94.7825 128.05 94.7891C128.071 94.7957 128.093 94.7972 128.114 94.7935C128.136 94.7897 128.156 94.7808 128.173 94.7676C128.302 94.6621 128.381 94.5234 128.411 94.3516C128.545 93.5986 128.572 92.8311 128.44 92.0693C128.002 89.5752 126.918 87.3965 125.188 85.5332C125.024 85.3574 124.919 85.0752 124.875 84.6865C122.312 82.7354 119.415 81.7061 116.182 81.5986C116.065 81.5967 115.946 81.5977 115.825 81.6016C114.834 81.6387 113.865 81.7842 112.916 82.0381C112.198 82.2314 111.65 82.8643 112.347 83.5469Z" fill="#464BAA"/>
<path d="M125.159 93.0664C125.467 95.5254 124.913 97.7461 123.495 99.7285L124.842 98.7266C124.867 98.7082 124.896 98.6985 124.926 98.699C124.957 98.6996 124.986 98.7103 125.009 98.7295C125.037 98.751 125.058 98.7774 125.074 98.8086C125.088 98.8359 125.09 98.8643 125.083 98.8936L124.632 100.555C126.423 98.0645 127.049 95.2402 126.512 92.082C126.128 92.5195 125.676 92.8477 125.159 93.0664Z" fill="#464BAA"/>
<path d="M139.093 93.6622C139.378 93.6368 139.412 93.7178 139.195 93.9053C136.953 95.8467 135.727 98.17 135.518 100.875C135.514 100.938 135.528 101.002 135.559 101.057C135.59 101.113 135.637 101.158 135.694 101.186C135.75 101.215 135.814 101.227 135.877 101.219C135.941 101.212 136 101.186 136.049 101.145C136.306 100.924 136.487 100.635 136.591 100.277C137.317 97.7842 138.395 95.5811 140.569 94.1192C141.106 93.7598 141.74 93.5899 142.47 93.6094C145.093 93.6817 147.634 93.7256 150.091 93.7413C151.368 93.7491 152.681 93.6543 154.031 93.4571C154.106 93.4457 154.177 93.4129 154.235 93.3626C154.292 93.3122 154.334 93.2464 154.356 93.1729C154.426 92.9249 154.36 92.7696 154.157 92.7071C154.048 92.6719 153.929 92.6592 153.802 92.669C151.906 92.8174 150.012 92.8272 148.122 92.6983C146.935 92.6192 145.717 92.5928 144.539 92.5401C142.634 92.4561 140.427 92.5586 137.918 92.8477C137.681 92.8751 137.531 93.003 137.467 93.2315L137.434 93.3487C137.346 93.6573 137.463 93.7979 137.783 93.7706L139.093 93.6622Z" fill="#464BAA"/>
<path d="M28.2535 219.056C30.5416 219.006 32.2818 219.252 34.0221 220.758C34.6988 221.347 34.8805 222.188 35.0416 223.026C35.0973 223.316 35.399 223.503 35.6774 223.345C35.8746 223.232 35.9674 223.062 35.9557 222.835C35.8639 220.892 34.9322 219.56 33.1607 218.839C31.7135 218.251 30.1637 218.037 28.5113 218.195C28.2418 218.22 28.0729 218.364 28.0045 218.626L27.984 218.713C27.9234 218.946 28.0133 219.06 28.2535 219.056Z" fill="#464BAA"/>
</svg>
