<svg width="72" height="72" viewBox="0 0 72 72" fill="none" xmlns="http://www.w3.org/2000/svg">
<g id="Emoji">
<path id="Vector" d="M36 50C6.876 50 0 59.4824 0 63.8658C0 68.2492 3.582 71.9982 8 71.9982H64C68.418 71.9982 72 68.2349 72 63.8658C72 59.4966 65.124 50 36 50Z" fill="#65A30D"/>
<path id="Vector_2" d="M57.6076 56.0393C57.6076 59.152 55.1236 60.2682 52.0616 60.2682C48.9996 60.2682 46.5156 59.154 46.5156 56.0393L47.9016 43.3547C47.9016 40.242 48.9976 40.5348 52.0616 40.5348C55.1236 40.5348 56.2216 40.24 56.2216 43.3547L57.6076 56.0393Z" fill="#511B06"/>
<path id="Vector_3" d="M69.7362 38.8942C60.5562 30.4873 56.8382 18.4492 52.0622 18.4492C47.2862 18.4492 43.5682 30.4873 34.3902 38.8942C30.5322 42.4277 32.3702 44.471 37.6582 44.0623C42.3722 43.6984 46.7802 42.5558 52.0622 42.5558C57.3442 42.5558 61.7542 43.7004 66.4662 44.0623C71.7542 44.471 73.5922 42.4257 69.7362 38.8942Z" fill="#65A30D"/>
<path id="Vector_4" d="M66.7537 35.5621C59.6997 28.6475 55.7357 18.7422 52.0617 18.7422C48.3897 18.7422 44.4257 28.6475 37.3717 35.5621C31.7657 41.0576 44.7177 42.2896 52.0617 35.5621C59.4037 42.2896 72.3577 41.0576 66.7537 35.5621Z" fill="#4D7C0F"/>
<path id="Vector_5" d="M66.7537 29.96C59.6997 23.4988 55.7357 14.2461 52.0617 14.2461C48.3897 14.2461 44.4257 23.4988 37.3717 29.96C31.7657 35.0936 44.7177 36.2443 52.0617 29.96C59.4037 36.2443 72.3577 35.0916 66.7537 29.96Z" fill="#65A30D"/>
<path id="Vector_6" d="M63.5319 25.3732C58.0259 20.3291 54.9299 13.1055 52.0619 13.1055C49.1959 13.1055 46.0999 20.3291 40.5919 25.3732C36.2159 29.3805 46.3259 30.2812 52.0619 25.3732C57.7959 30.2791 67.9079 29.3805 63.5319 25.3732Z" fill="#4D7C0F"/>
<path id="Vector_7" d="M63.5319 21.1779C58.0259 16.1338 54.9299 8.91016 52.0619 8.91016C49.1959 8.91016 46.0999 16.1338 40.5919 21.1779C36.2159 25.1852 46.3259 26.0859 52.0619 21.1779C57.7959 26.0859 67.9079 25.1872 63.5319 21.1779Z" fill="#65A30D"/>
<path id="Vector_8" d="M61.3178 17.45C56.8738 13.3797 54.3758 7.55078 52.0618 7.55078C49.7478 7.55078 47.2498 13.3797 42.8058 17.45C39.2738 20.6847 47.4338 21.4105 52.0618 17.45C56.6898 21.4105 64.8518 20.6847 61.3178 17.45Z" fill="#4D7C0F"/>
<path id="Vector_9" d="M61.3178 14.2898C56.8738 10.2195 54.3758 4.39062 52.0618 4.39062C49.7478 4.39062 47.2498 10.2195 42.8058 14.2898C39.2738 17.5245 47.4338 18.2503 52.0618 14.2898C56.6898 18.2503 64.8518 17.5245 61.3178 14.2898Z" fill="#65A30D"/>
<path id="Vector_10" d="M59.1057 9.63814C55.7257 6.54171 53.8237 2.10547 52.0617 2.10547C50.3017 2.10547 48.3997 6.54171 45.0177 9.63814C42.3297 12.1002 48.5397 12.6512 52.0617 9.63814C55.5837 12.6532 61.7937 12.1002 59.1057 9.63814Z" fill="#4D7C0F"/>
<path id="Vector_11" d="M59.1057 7.53267C55.7257 4.43624 53.8237 0 52.0617 0C50.3017 0 48.3997 4.43624 45.0177 7.53267C42.3297 9.99476 48.5397 10.5457 52.0617 7.53267C55.5837 10.5457 61.7937 9.99476 59.1057 7.53267Z" fill="#65A30D"/>
<path id="Vector_12" d="M30.2019 65.9008C29.3539 65.9008 28.5979 65.358 28.3139 64.5468L18.2899 36.0162C18.0699 35.392 18.1639 34.7394 18.5399 34.1945C18.9159 33.6557 19.5279 33.3711 20.1799 33.3711H43.6979C44.4999 33.3711 45.2259 33.8184 45.5419 34.5686L57.5699 63.0789C57.8359 63.7091 57.7719 64.4228 57.4019 64.9941C57.0259 65.5674 56.3979 65.9008 55.7239 65.9008H30.2019Z" fill="#E69801"/>
<path id="Vector_13" d="M8.15004 65.9026C7.47604 65.9026 6.84604 65.557 6.47604 64.9877C6.10604 64.4144 6.04404 63.6906 6.30804 63.0604L18.344 34.5114C18.658 33.7633 19.386 33.2773 20.186 33.2773C20.988 33.2773 21.716 33.7653 22.03 34.5114L34.066 63.0583C34.332 63.6906 34.266 64.4124 33.896 64.9857C33.526 65.557 32.896 65.9026 32.222 65.9026H8.15004Z" fill="#FEC350"/>
<path id="Vector_14" d="M20.18 38.3281L16.168 65.9052H24.188L20.18 38.3281Z" fill="#151734"/>
<path id="Vector_15" d="M28.254 63.6367L29.15 65.8996H24.188L28.254 63.6367ZM12.104 63.6367L11.208 65.8996H16.168L12.104 63.6367Z" fill="#FEB323"/>
<path id="Vector_16" d="M24.1882 65.9072C24.1882 65.9072 27.8342 64.9618 29.6162 63.2886L20.1802 38.3302L24.1882 65.9072ZM16.1682 65.9072C16.1682 65.9072 12.5222 64.9618 10.7402 63.2886L20.1782 38.3281L16.1682 65.9072Z" fill="#FFE7B9"/>
<path id="Vector_17" d="M27.25 10.2459C27.214 10.2459 27.182 10.2581 27.146 10.2581C27.214 9.92466 27.25 9.58106 27.25 9.2273C27.25 6.41958 25.012 4.14453 22.25 4.14453C20.468 4.14453 18.916 5.09806 18.03 6.5253C17.476 6.30979 16.88 6.17967 16.25 6.17967C13.7 6.17967 11.62 8.12536 11.312 10.6322C10.748 10.4024 10.146 10.2459 9.5 10.2459C6.738 10.2459 4.5 12.5209 4.5 15.3287C4.5 18.1364 6.738 20.4114 9.5 20.4114H27.25C30.012 20.4114 32.25 18.1364 32.25 15.3287C32.25 12.5209 30.012 10.2459 27.25 10.2459Z" fill="url(#paint0_linear_4414_43582)"/>
</g>
<defs>
<linearGradient id="paint0_linear_4414_43582" x1="4" y1="20" x2="7.89763" y2="-0.5675" gradientUnits="userSpaceOnUse">
<stop stop-color="#E3E4F7"/>
<stop offset="0.607571" stop-color="#F0F0FA"/>
</linearGradient>
</defs>
</svg>
