<svg width="48" height="48" viewBox="0 0 48 48" fill="none" xmlns="http://www.w3.org/2000/svg">
<g id="emoji">
<path id="Shape" fill-rule="evenodd" clip-rule="evenodd" d="M15.4142 2.58579C14.6332 1.80474 13.3668 1.80474 12.5858 2.58579C11.8047 3.36683 11.8047 4.63316 12.5858 5.41421L19.1716 12H8C4.68629 12 2 14.6863 2 18V40C2 43.3137 4.68629 46 8 46H40C43.3137 46 46 43.3137 46 40V18C46 14.6863 43.3137 12 40 12H28.8284L35.4142 5.41421C36.1953 4.63316 36.1953 3.36683 35.4142 2.58579C34.6332 1.80474 33.3668 1.80474 32.5858 2.58579L24 11.1716L15.4142 2.58579ZM6 18C6 16.8954 6.89543 16 8 16H40C41.1046 16 42 16.8954 42 18V40C42 41.1046 41.1046 42 40 42H8C6.89543 42 6 41.1046 6 40V18Z" fill="#464BAA"/>
</g>
</svg>
