<svg width="60" height="60" viewBox="0 0 60 60" fill="none" xmlns="http://www.w3.org/2000/svg">
<g filter="url(#filter0_d_7237_61022)">
<path d="M54 48.3698C54 48.3698 54 54.0007 48.3529 54.0007H11.6471C6 54.0007 6 48.3698 6 48.3698V21.6231C6 15.9922 11.6471 15.9922 11.6471 15.9922H48.3529C48.3529 15.9922 54 15.9922 54 21.6231V48.3698Z" fill="url(#paint0_linear_7237_61022)"/>
<path d="M34.6631 19.3526C35.2151 19.903 35.2151 20.7927 34.6631 21.3431C34.1111 21.8935 33.2188 21.8935 32.6668 21.3431L19.6899 8.40333C19.1379 7.85291 19.1379 6.96323 19.6899 6.41281C20.2419 5.8624 21.1341 5.8624 21.6861 6.41281L34.6631 19.3526Z" fill="url(#paint1_linear_7237_61022)"/>
<path d="M25.3371 19.3526C24.7851 19.903 24.7851 20.7927 25.3371 21.3431C25.8891 21.8935 26.7813 21.8935 27.3333 21.3431L40.3103 8.40333C40.8623 7.85291 40.8623 6.96323 40.3103 6.41281C39.7583 5.8624 38.866 5.8624 38.314 6.41281L25.3371 19.3526Z" fill="url(#paint2_linear_7237_61022)"/>
<path d="M29.9999 20.2148C41.294 20.2148 44.1176 21.6226 45.5293 23.0303C46.9411 24.438 48.3529 27.2535 48.3529 34.2921C48.3529 41.3307 46.9411 44.1461 45.5293 45.5538C44.1176 46.9616 41.294 48.3693 29.9999 48.3693C18.7058 48.3693 15.8823 46.9616 14.4705 45.5538C13.0587 44.1461 11.647 41.3307 11.647 34.2921C11.647 27.2535 13.0587 24.438 14.4705 23.0303C15.8823 21.6226 18.7058 20.2148 29.9999 20.2148Z" fill="url(#paint3_linear_7237_61022)"/>
<path d="M49.0588 51.1841C50.2284 51.1841 51.1765 50.2387 51.1765 49.0725C51.1765 47.9063 50.2284 46.9609 49.0588 46.9609C47.8893 46.9609 46.9412 47.9063 46.9412 49.0725C46.9412 50.2387 47.8893 51.1841 49.0588 51.1841Z" fill="#66757F"/>
<path d="M10.9411 51.1841C12.1107 51.1841 13.0588 50.2387 13.0588 49.0725C13.0588 47.9063 12.1107 46.9609 10.9411 46.9609C9.77159 46.9609 8.82349 47.9063 8.82349 49.0725C8.82349 50.2387 9.77159 51.1841 10.9411 51.1841Z" fill="#66757F"/>
</g>
<path opacity="0.5" d="M36.9573 23.544V29.9231H34.9502C34.1474 29.9231 33.418 30.0112 32.7669 30.1825C32.1109 30.3539 31.5479 30.6427 31.078 31.0442C30.6129 31.4456 30.2507 31.989 29.9912 32.6695C29.7366 33.35 29.6143 34.2019 29.6143 35.2153V27.7102C30.1479 26.8534 30.657 26.1191 31.3766 25.5022C32.1011 24.8854 32.9382 24.4056 33.8879 24.058C34.8376 23.7104 35.8607 23.5391 36.9573 23.5391V23.544Z" fill="white"/>
<path d="M23.5928 23.5469V44.2508H29.6141V23.5469H23.5928Z" fill="white"/>
<path opacity="0.5" d="M34.8814 44.2549C33.9366 44.2549 33.1681 43.9513 32.5806 43.3394C31.9932 42.7323 31.6995 41.9931 31.6995 41.1216C31.6995 40.2502 31.9932 39.4767 32.5806 38.8647C33.1681 38.2576 33.9366 37.9492 34.8814 37.9492C35.8263 37.9492 36.5557 38.2528 37.1333 38.8647C37.711 39.4718 37.9998 40.2257 37.9998 41.1216C37.9998 42.0175 37.711 42.7323 37.1333 43.3394C36.5557 43.9464 35.8067 44.2549 34.8814 44.2549Z" fill="white"/>
<defs>
<filter id="filter0_d_7237_61022" x="0" y="0" width="60" height="60" filterUnits="userSpaceOnUse" color-interpolation-filters="sRGB">
<feFlood flood-opacity="0" result="BackgroundImageFix"/>
<feColorMatrix in="SourceAlpha" type="matrix" values="0 0 0 0 0 0 0 0 0 0 0 0 0 0 0 0 0 0 127 0" result="hardAlpha"/>
<feOffset/>
<feGaussianBlur stdDeviation="3"/>
<feComposite in2="hardAlpha" operator="out"/>
<feColorMatrix type="matrix" values="0 0 0 0 0.996078 0 0 0 0 0.952941 0 0 0 0 0.780392 0 0 0 1 0"/>
<feBlend mode="normal" in2="BackgroundImageFix" result="effect1_dropShadow_7237_61022"/>
<feBlend mode="normal" in="SourceGraphic" in2="effect1_dropShadow_7237_61022" result="shape"/>
</filter>
<linearGradient id="paint0_linear_7237_61022" x1="30" y1="15.9922" x2="30" y2="54.0007" gradientUnits="userSpaceOnUse">
<stop stop-color="#E0E0E0"/>
<stop offset="1" stop-color="#8393A3"/>
</linearGradient>
<linearGradient id="paint1_linear_7237_61022" x1="27.1765" y1="6" x2="27.1765" y2="21.7559" gradientUnits="userSpaceOnUse">
<stop stop-color="#E0E0E0"/>
<stop offset="1" stop-color="#8393A3"/>
</linearGradient>
<linearGradient id="paint2_linear_7237_61022" x1="32.8237" y1="6" x2="32.8237" y2="21.7559" gradientUnits="userSpaceOnUse">
<stop stop-color="#E0E0E0"/>
<stop offset="1" stop-color="#8393A3"/>
</linearGradient>
<linearGradient id="paint3_linear_7237_61022" x1="29.9999" y1="20.2148" x2="29.9999" y2="48.3693" gradientUnits="userSpaceOnUse">
<stop stop-color="#FBBF24"/>
<stop offset="1" stop-color="#E64F12"/>
</linearGradient>
</defs>
</svg>
