<svg width="56" height="56" viewBox="0 0 56 56" fill="none" xmlns="http://www.w3.org/2000/svg">
<g clip-path="url(#clip0_4450_47738)">
<path d="M44.476 21.0387C43.5759 18.909 42.2866 16.9973 40.6439 15.3546C39.0025 13.7125 37.0888 12.4233 34.9604 11.5225C32.7549 10.5901 30.4133 10.1172 27.9992 10.1172C25.585 10.1172 23.2434 10.5901 21.0385 11.5225C18.9088 12.4233 16.9971 13.7125 15.3551 15.3546C13.7124 16.9966 12.4231 18.909 11.5229 21.0387C10.5906 23.2436 10.1177 25.5852 10.1177 27.9993C10.1177 30.4135 10.5906 32.7551 11.5229 34.9599C12.4231 37.0897 13.7124 39.0014 15.3551 40.6441C16.9965 42.2855 18.9088 43.5747 21.0385 44.4755C23.2434 45.4079 25.585 45.8822 27.9992 45.8822C30.4133 45.8822 32.7549 45.4086 34.9604 44.4755C37.0888 43.5754 39.0019 42.2861 40.6439 40.6441C42.2866 39.0014 43.5759 37.089 44.476 34.9599C45.4084 32.7551 45.8813 30.4135 45.8813 27.9993C45.8813 25.5852 45.4084 23.2436 44.476 21.0387Z" fill="#171936"/>
<path d="M27.9994 11.0152C25.7067 11.0152 23.4831 11.4639 21.3903 12.3494C19.3679 13.2046 17.5521 14.4294 15.9926 15.989C14.4317 17.5485 13.2082 19.365 12.3523 21.3867C11.4669 23.4802 11.0181 25.7038 11.0181 27.9965C11.0181 30.2892 11.4669 32.5128 12.3523 34.6063C13.2075 36.6287 14.4317 38.4445 15.9926 40.004C17.5521 41.5636 19.3679 42.7884 21.3903 43.643C23.4824 44.5284 25.7061 44.9771 27.9994 44.9771C30.2928 44.9771 32.5171 44.5284 34.6092 43.643C36.6316 42.7884 38.4474 41.5636 40.007 40.004C41.5665 38.4445 42.7913 36.6287 43.6472 34.6063C44.5327 32.5128 44.9814 30.2892 44.9814 27.9965C44.9814 25.7038 44.5327 23.4802 43.6472 21.3867C42.792 19.365 41.5665 17.5485 40.007 15.989C38.4474 14.4294 36.6316 13.2046 34.6092 12.3494C32.5171 11.4639 30.2921 11.0152 27.9994 11.0152ZM27.9994 46.7795C25.4646 46.7795 23.0055 46.2824 20.6887 45.3031C18.4523 44.3567 16.444 43.0024 14.7188 41.2785C12.9942 39.5539 11.6399 37.5443 10.6941 35.3079C9.71482 32.9924 9.21777 30.532 9.21777 27.9972C9.21777 25.4623 9.71482 23.0019 10.6941 20.6857C11.6399 18.4494 12.9942 16.4404 14.7188 14.7159C16.4433 12.9913 18.4516 11.637 20.6887 10.6912C23.0055 9.71122 25.4646 9.21484 27.9994 9.21484C30.5343 9.21484 32.9947 9.71189 35.3115 10.6912C37.5479 11.637 39.5562 12.9913 41.2814 14.7159C43.006 16.4404 44.3603 18.4487 45.3061 20.6857C46.2854 23.0019 46.7824 25.4623 46.7824 27.9972C46.7824 30.532 46.2854 32.9924 45.3061 35.3079C44.3603 37.5443 43.006 39.5539 41.2814 41.2785C39.5569 43.0024 37.5486 44.3567 35.3115 45.3031C32.9947 46.2824 30.535 46.7795 27.9994 46.7795Z" fill="#FFF9F3"/>
<path d="M27.9992 11.8341C25.8165 11.8341 23.7002 12.2614 21.708 13.1039C19.7836 13.9176 18.055 15.0834 16.5699 16.5685C15.0855 18.0535 13.9197 19.7821 13.106 21.7066C12.2629 23.6988 11.8363 25.8151 11.8363 27.9978C11.8363 30.1805 12.2629 32.2968 13.106 34.2889C13.9197 36.2134 15.0855 37.942 16.5699 39.4271C18.0557 40.9115 19.7843 42.0773 21.708 42.8916C23.7002 43.7341 25.8165 44.1607 27.9992 44.1607C30.1819 44.1607 32.2996 43.7341 34.2904 42.8916C36.2155 42.0773 37.9441 40.9115 39.4285 39.4271C40.9143 37.9413 42.0801 36.2141 42.8931 34.2889C43.7356 32.2968 44.1629 30.1805 44.1629 27.9978C44.1629 25.8151 43.7349 23.6981 42.8931 21.7066C42.0794 19.7821 40.9136 18.0529 39.4285 16.5685C37.9441 15.0834 36.2155 13.9176 34.2904 13.1039C32.2989 12.2614 30.1826 11.8341 27.9992 11.8341ZM27.9992 45.7967C25.5972 45.7967 23.2663 45.3259 21.0722 44.3982C18.9525 43.502 17.0489 42.2175 15.4149 40.5842C13.7802 38.9495 12.497 37.0465 11.6008 34.9269C10.6725 32.7321 10.2016 30.4011 10.2016 27.9984C10.2016 25.5957 10.6725 23.2648 11.6008 21.0707C12.4977 18.951 13.7802 17.0481 15.4149 15.4134C17.0489 13.7787 18.9525 12.4955 21.0722 11.5994C23.2669 10.671 25.5979 10.2008 27.9992 10.2008C30.4006 10.2008 32.7329 10.6717 34.9277 11.5994C37.0473 12.4955 38.9503 13.7794 40.585 15.4134C42.2196 17.0481 43.5028 18.951 44.399 21.0707C45.3273 23.2655 45.7982 25.5964 45.7982 27.9984C45.7982 30.4005 45.3273 32.7321 44.399 34.9269C43.5021 37.0465 42.2196 38.9495 40.585 40.5842C38.9503 42.2188 37.0473 43.502 34.9277 44.3982C32.7329 45.3259 30.4019 45.7967 27.9992 45.7967ZM27.9992 10.0331C25.5744 10.0331 23.2213 10.508 21.0071 11.4451C18.8673 12.35 16.9462 13.6452 15.2968 15.2953C13.6474 16.9454 12.3521 18.8665 11.4466 21.0056C10.5102 23.2205 10.0352 25.5736 10.0352 27.9984C10.0352 30.4233 10.5102 32.7764 11.4466 34.9919C12.3521 37.1303 13.6474 39.0528 15.2968 40.7022C16.9462 42.3516 18.868 43.6469 21.0071 44.5518C23.222 45.4895 25.5744 45.9644 27.9992 45.9644C30.4241 45.9644 32.7778 45.4895 34.9927 44.5518C37.1325 43.6476 39.0536 42.3523 40.703 40.7022C42.3524 39.0514 43.6477 37.1303 44.5532 34.9919C45.4896 32.7764 45.9646 30.4233 45.9646 27.9984C45.9646 25.5736 45.4896 23.2205 44.5532 21.0056C43.6477 18.8665 42.3524 16.9448 40.703 15.2953C39.0536 13.6452 37.1325 12.35 34.9927 11.4451C32.7778 10.508 30.4254 10.0331 27.9992 10.0331ZM27.9992 47.5984C25.355 47.5984 22.788 47.0793 20.3699 46.057C18.0362 45.0696 15.9394 43.657 14.1404 41.8573C12.3414 40.0583 10.928 37.9628 9.94067 35.6278C8.91908 33.2097 8.3999 30.644 8.3999 27.9984C8.3999 25.3529 8.91908 22.7865 9.94067 20.3684C10.928 18.0341 12.3414 15.9386 14.1404 14.1389C15.9394 12.3399 18.0356 10.9266 20.3699 9.9392C22.7873 8.91695 25.355 8.39844 27.9992 8.39844C30.6434 8.39844 33.2118 8.91695 35.63 9.93987C37.9636 10.9273 40.0591 12.3399 41.8594 14.1396C43.6584 15.9393 45.0718 18.0348 46.0585 20.3691C47.0814 22.7865 47.5999 25.3536 47.5999 27.9991C47.5999 30.6446 47.0807 33.2103 46.0585 35.6285C45.0718 37.9621 43.6584 40.0589 41.8594 41.858C40.0597 43.6576 37.9642 45.0703 35.63 46.0577C33.2118 47.0806 30.6448 47.5991 27.9992 47.5991" fill="#FFF9F3"/>
<path d="M45.5462 27.9999C45.5462 37.6906 37.6901 45.5466 27.9994 45.5466C18.3087 45.5466 10.4526 37.6906 10.4526 27.9999C10.4526 18.3092 18.3081 10.4531 27.9994 10.4531C37.6907 10.4531 45.5462 18.3092 45.5462 27.9999Z" fill="#ECEDEC"/>
<path d="M35.5448 12.1523C35.5555 12.2523 35.573 12.3542 35.5991 12.4582C35.7132 13.0317 35.6749 13.567 35.6374 14.1405C35.6374 14.1787 35.522 14.217 35.522 14.2552C35.4462 14.9434 35.408 15.6316 35.2168 16.3581C35.1786 16.5493 35.255 16.7787 35.2168 16.9698C35.2168 17.0081 35.1014 17.0463 35.1014 17.0845C35.0632 17.2757 35.1397 17.4286 35.1014 17.6198C34.872 18.4227 34.4903 19.0727 34.222 19.8381C34.1838 19.9145 34.222 20.1057 34.0309 20.1439C34.108 20.3351 33.9926 20.488 33.9551 20.6792C33.6499 21.5968 33.2669 22.438 32.9603 23.2798C32.5015 24.4268 32.1198 25.6121 31.5839 26.7215C30.5891 28.8633 29.5575 30.8133 28.1421 32.8397C28.1039 32.9168 28.1804 32.9926 28.1421 33.0691C26.154 36.052 24.3187 38.6519 21.8711 41.1385C21.1051 41.9206 20.3216 42.6578 19.5254 43.3661C22.0374 44.7553 24.9265 45.5455 28.0006 45.5455C37.6913 45.5455 45.5474 37.6894 45.5474 27.9987C45.5474 21.0092 41.4604 14.9743 35.5461 12.1523H35.5448Z" fill="#DCDFF9"/>
<path d="M20.1836 12.287C27.7217 10.8482 33.32 15.9803 33.32 15.9803C33.32 15.9803 34.1424 15.9461 36.1286 15.8777C36.2285 14.7783 36.3278 13.7681 36.1889 12.4782C33.744 11.1856 30.9576 10.4531 27.9994 10.4531C25.0413 10.4531 22.5373 11.1138 20.1836 12.2877V12.287Z" fill="#FF8863"/>
<path d="M36.1887 12.4759C35.0356 11.8661 33.8061 11.3812 32.5195 11.0391C32.875 11.349 33.2547 11.6542 33.419 12.0365H33.5331C33.4566 12.1512 33.686 12.2277 33.6089 12.3424H33.7242C33.7625 12.4571 33.8 12.61 33.8396 12.7247C33.9536 13.0306 34.1448 13.3365 34.1831 13.6806C34.336 13.6423 34.2213 13.91 34.3742 13.8717C34.3742 13.9864 34.336 14.1011 34.3742 14.1776H34.4896C34.4507 14.4452 34.6036 14.6747 34.5654 14.9423H34.6794C34.7056 15.2723 34.7324 15.5983 34.7592 15.923C35.1335 15.9095 35.5877 15.8934 36.1276 15.8747C36.2276 14.7753 36.3268 13.7651 36.188 12.4752L36.1887 12.4759Z" fill="#FF6738"/>
<path d="M22.8683 11.8225C23.7276 11.8225 24.5909 11.8983 25.4515 12.0499C26.8715 12.3001 28.2902 12.7556 29.6673 13.4035C31.7568 14.3876 33.0896 15.499 33.3955 15.766C33.643 15.7559 34.4399 15.7251 35.9364 15.6728C36.0256 14.6928 36.1034 13.7557 35.9907 12.61C33.5383 11.3342 30.7781 10.6608 27.9984 10.6608C25.7788 10.6608 23.635 11.0693 21.6066 11.8769C22.0265 11.8406 22.4471 11.8219 22.8677 11.8219L22.8683 11.8225ZM33.2425 16.1913L33.1781 16.1329C33.164 16.1202 31.7655 14.8524 29.4761 13.7758C27.3699 12.7858 24.0549 11.7595 20.2221 12.4913L18.729 12.7764L20.0893 12.0982C22.5611 10.8667 25.2228 10.2422 27.9991 10.2422C30.7754 10.2422 33.7496 10.9512 36.2858 12.2921L36.3851 12.3437L36.3972 12.4544C36.5347 13.7316 36.4435 14.7411 36.3449 15.8096L36.3207 16.0786L36.1362 16.0846C34.1729 16.1524 33.3364 16.1873 33.3284 16.1873L33.2425 16.1906V16.1913Z" fill="#171936"/>
<path d="M11.0278 32.4692C12.4391 37.8388 16.3316 42.2035 21.406 44.2628C23.5954 41.9272 33.5698 30.7252 34.2091 19.8084C33.5511 19.1504 32.8286 18.6641 32.8286 18.6641C24.1186 18.9062 11.8723 24.7211 11.0278 32.4692Z" fill="#F2B43C"/>
<path d="M31.0089 23.8134C28.7149 28.3645 25.9238 32.4167 22.2144 35.9356C22.099 36.0496 21.9468 36.2032 21.8321 36.279C20.2262 37.7701 18.6197 39.0708 16.5933 39.7965C16.2217 39.9206 15.8823 40.1413 15.5127 40.3211C17.1755 42.0061 19.1765 43.3563 21.4061 44.2605C23.5955 41.9249 33.5699 30.723 34.2092 19.8062C33.8523 19.4493 33.4767 19.1428 33.2077 18.9375C32.6174 20.267 32.0305 21.5931 31.4295 22.9333C31.2772 23.2392 31.1243 23.545 31.0089 23.8127V23.8134Z" fill="#F4A414"/>
<path d="M11.2405 32.4535C12.6169 37.6419 16.388 41.951 21.3524 44.0136C23.5713 41.6297 33.3163 30.5854 33.9952 19.8906C33.48 19.3889 32.9374 18.9951 32.7663 18.8757C28.3701 19.0119 23.2608 20.5265 19.0839 22.9339C14.4193 25.6224 11.6356 29.0024 11.2412 32.4542M21.4604 44.5113L21.3269 44.457C18.7975 43.43 16.5007 41.8014 14.6863 39.7462C12.8591 37.6768 11.5243 35.1789 10.826 32.5226L10.8159 32.4857L10.8199 32.4468C11.2123 28.8447 14.0732 25.3379 18.8739 22.571C20.9634 21.367 23.3601 20.3514 25.807 19.633C28.2279 18.9227 30.654 18.5155 32.8227 18.4551L32.8897 18.4531L32.9461 18.4907C32.9763 18.5108 33.692 18.9958 34.3574 19.6605L34.4238 19.7269L34.4191 19.8208C34.2702 22.359 33.6048 25.1059 32.4417 27.9855C31.4831 30.3587 30.1791 32.8412 28.5666 35.3667C25.7319 39.8032 22.7221 43.1664 21.559 44.4067L21.4611 44.512" fill="#171936"/>
<path d="M45.5458 27.9999C45.5458 25.3879 44.9749 22.91 43.9513 20.6831C41.6419 19.3717 38.8789 18.5259 37.74 18.6728C37.5609 19.3912 36.6533 19.8587 36.6533 19.8587C41.9511 25.4114 43.1182 33.7122 40.9121 39.8793C43.789 36.7541 45.5458 32.5826 45.5458 27.9999Z" fill="#575ED5"/>
<path d="M36.9834 19.9022C39.4263 22.537 41.0899 25.8829 41.8022 29.5976C42.4093 32.7677 42.2738 36.0531 41.4279 38.9643C43.9561 35.8734 45.3365 32.0178 45.3365 27.9985C45.3365 25.4992 44.8167 23.0884 43.7891 20.8306C41.5232 19.5555 38.991 18.8109 37.8983 18.8679C37.7139 19.3569 37.2631 19.7171 36.9841 19.9029L36.9834 19.9022ZM40.3674 40.7787L40.7149 39.8061C43.0727 33.2164 41.3401 25.0726 36.5018 20.0015L36.3086 19.7989L36.5568 19.6708C36.5648 19.6668 37.3832 19.2362 37.5361 18.6204L37.571 18.4815L37.7132 18.4634C38.9514 18.3038 41.7962 19.2167 44.0547 20.4992L44.113 20.5328L44.1412 20.5945C45.2118 22.9254 45.7558 25.4167 45.7558 27.9991C45.7558 32.4652 44.0902 36.7346 41.0664 40.0201L40.3674 40.7801V40.7787Z" fill="#171936"/>
<path d="M39.0831 19.918C38.3419 21.442 36.1975 21.927 34.2952 21.0007C32.3922 20.0743 31.4504 18.0882 32.1916 16.5642C32.9335 15.0402 35.0773 14.5559 36.9803 15.4815C38.8833 16.4079 39.825 18.394 39.0825 19.918H39.0831Z" fill="#DCDFF9"/>
<path d="M39.0831 19.918C38.3419 21.442 36.1975 21.927 34.2952 21.0007C32.3922 20.0743 31.4504 18.0882 32.1916 16.5642C32.9335 15.0402 35.0773 14.5559 36.9803 15.4815C38.8833 16.4079 39.825 18.394 39.0825 19.918H39.0831Z" fill="#DCDFF9"/>
<path d="M35.0029 15.2197C34.7285 15.2197 34.4589 15.2485 34.1973 15.3076C33.3561 15.4981 32.7108 15.9763 32.3815 16.6551C32.0508 17.334 32.0723 18.1369 32.4419 18.9163C32.8182 19.7112 33.5097 20.3846 34.3871 20.8112C35.2658 21.2385 36.221 21.3666 37.0796 21.1728C37.9201 20.983 38.566 20.504 38.8954 19.8252C39.2261 19.1464 39.2046 18.3435 38.835 17.564C38.4587 16.7692 37.7671 16.0957 36.8898 15.6684C36.2787 15.3713 35.6294 15.219 35.0029 15.219V15.2197ZM36.274 21.6799C35.5838 21.6799 34.8714 21.5129 34.2033 21.1882C33.2408 20.7194 32.4808 19.9768 32.0629 19.0954C31.6383 18.1993 31.6175 17.2669 32.0039 16.472C32.3916 15.6765 33.1375 15.1184 34.1054 14.8991C35.0559 14.6844 36.1097 14.8239 37.0736 15.2928C38.0361 15.7617 38.7961 16.5049 39.214 17.3856C39.6386 18.2824 39.6594 19.2141 39.2724 20.009C38.886 20.8045 38.1394 21.3626 37.1722 21.582C36.8804 21.6477 36.5799 21.6806 36.2747 21.6806L36.274 21.6799Z" fill="#171936"/>
<path d="M34.8564 20.037C35.88 20.5354 37.1954 20.7762 38.2733 20.2972C39.3841 19.8042 39.6598 18.5848 39.1245 17.5578C38.6335 16.6167 37.8152 15.85 36.8439 15.4227C35.9732 15.0397 34.8859 14.8888 33.9589 15.1504C32.9259 15.4422 32.2793 16.4115 32.5349 17.4773C32.8126 18.6351 33.8241 19.5346 34.8564 20.037Z" fill="#F1F2F1"/>
<path d="M39.1354 17.5599C38.8798 17.0454 38.5303 16.5839 38.1158 16.2009C37.7563 15.8695 37.1794 15.3785 36.6824 15.349C36.5073 15.3383 36.3349 15.3926 36.1706 15.4577C35.4052 15.7629 34.5198 16.3941 34.3856 17.3083C34.2917 17.9442 34.5983 18.5875 35.0396 19.0342C35.8077 19.8117 37.28 20.5844 38.3714 20.2779C39.448 19.976 39.5546 18.4024 39.1354 17.5599Z" fill="#DCDFF9"/>
<path d="M34.8432 15.2126C34.0209 15.2126 33.2253 15.4621 32.8417 16.1899C32.6176 16.6165 32.5854 17.08 32.7457 17.5683C33.069 18.5577 34.1141 19.4452 34.9472 19.851C35.8816 20.3058 36.9434 20.4607 37.7879 20.2655C38.4889 20.1032 39.0544 19.5129 39.1932 18.7965C39.4548 17.4442 38.1153 16.267 36.8898 15.6707C36.386 15.4259 35.6039 15.2133 34.8432 15.2133V15.2126ZM37.0118 20.7693C36.2794 20.7693 35.4966 20.5835 34.7641 20.2273C33.8237 19.7691 32.7115 18.8099 32.3473 17.6991C32.1508 17.0995 32.1923 16.526 32.4714 15.9954C32.8531 15.2696 33.601 14.8571 34.6346 14.8027C35.4288 14.7605 36.3625 14.949 37.0729 15.2937C37.4988 15.501 38.3051 15.9565 38.9168 16.6729C39.5112 17.3698 39.7479 18.1311 39.6037 18.8757C39.4347 19.7517 38.7424 20.4748 37.8818 20.6733C37.6055 20.7371 37.313 20.7686 37.0112 20.7686L37.0118 20.7693Z" fill="#171936"/>
<path d="M27.9992 10.788C18.5084 10.788 10.7878 18.5092 10.7878 28C10.7878 37.4908 18.5084 45.2114 27.9992 45.2114C37.4899 45.2114 45.2112 37.4908 45.2112 28C45.2112 18.5092 37.4899 10.788 27.9992 10.788ZM27.9992 45.8822C25.585 45.8822 23.2434 45.4086 21.0385 44.4755C18.9088 43.5754 16.9971 42.2861 15.3551 40.6441C13.7124 39.0014 12.4231 37.089 11.5229 34.9599C10.5906 32.7551 10.1177 30.4134 10.1177 27.9993C10.1177 25.5852 10.5906 23.2436 11.5229 21.0387C12.4231 18.909 13.7124 16.9973 15.3551 15.3546C16.9965 13.7125 18.9088 12.4233 21.0385 11.5225C23.2434 10.5901 25.585 10.1172 27.9992 10.1172C30.4133 10.1172 32.7549 10.5901 34.9604 11.5225C37.0888 12.4233 39.0019 13.7125 40.6439 15.3546C42.2866 16.9966 43.5759 18.909 44.476 21.0387C45.4084 23.2436 45.8813 25.5852 45.8813 27.9993C45.8813 30.4134 45.4084 32.7551 44.476 34.9599C43.5759 37.0897 42.2866 39.0014 40.6439 40.6441C39.0025 42.2855 37.0888 43.5747 34.9604 44.4755C32.7549 45.4079 30.4133 45.8822 27.9992 45.8822Z" fill="#171936"/>
<path d="M12.7842 30.7821C15.8966 24.8846 24.6716 21.0572 28.5903 20.418C22.3829 22.879 15.1916 28.3224 12.7842 30.7821Z" fill="#FFF8D6"/>
</g>
<defs>
<clipPath id="clip0_4450_47738">
<rect width="39.1993" height="39.2" fill="white" transform="translate(8.3999 8.39844)"/>
</clipPath>
</defs>
</svg>
