<svg width="56" height="56" viewBox="0 0 56 56" fill="none" xmlns="http://www.w3.org/2000/svg">
<g clip-path="url(#clip0_4450_47737)">
<path d="M51.8246 27.9455C51.77 27.6961 51.2036 27.5117 50.314 27.3321C50.1213 24.9146 49.0645 22.6773 47.2962 20.9733C45.3712 19.1194 42.8348 18.1206 40.1534 18.1614C37.472 18.2021 34.9668 19.2769 33.0991 21.1881C32.1044 22.2062 31.3536 23.397 30.8756 24.6901C29.6938 23.9973 28.9112 23.6588 28.119 23.6333C27.2335 23.6036 26.3997 23.9807 25.1958 24.6714C24.6819 23.435 23.9166 22.305 22.9275 21.3449C21.0149 19.4896 18.4944 18.4901 15.8303 18.5302C13.1662 18.5703 10.6768 19.6464 8.82153 21.5583C7.09541 23.3369 6.11113 25.6419 6.01374 28.1002C4.90997 28.344 4.24342 28.5526 4.16744 29.3331C4.15708 29.4381 4.15708 29.5334 4.16744 29.6205C4.17435 29.684 4.18678 29.7434 4.20336 29.7973C4.21164 29.8235 4.22062 29.8491 4.23029 29.8733C4.25171 29.9244 4.27865 29.972 4.30904 30.0142C4.4831 30.3312 4.86714 30.8106 4.92931 30.861C5.32095 31.1801 5.85764 31.3148 6.36532 31.1732C6.83156 32.8655 7.74193 34.4099 9.03497 35.665C10.9476 37.5203 13.468 38.5197 16.1321 38.4797C18.7963 38.4396 21.2856 37.3635 23.1409 35.4515C24.9962 33.5382 25.9957 31.0178 25.9556 28.3537C25.9529 28.1748 25.9453 27.9959 25.9328 27.8184L26.0806 27.7196L26.0599 27.5289C26.0592 27.522 25.9922 26.8942 25.9625 26.2477C27.076 25.4305 28.4098 25.4153 29.0259 25.6778C29.4949 25.8781 29.8969 26.0494 30.1338 26.1496C30.1145 26.2856 30.091 26.4611 30.0716 26.6414C30.0012 27.292 29.9977 27.6153 30.2706 27.7286C30.263 27.9144 30.2602 28.1009 30.263 28.288C30.303 30.9535 31.3861 33.4436 33.3125 35.2982C35.2376 37.1528 37.7739 38.1516 40.4553 38.1108C43.1367 38.0701 45.6419 36.9953 47.5096 35.0827C48.8206 33.7406 49.7061 32.1002 50.1054 30.3208C51.654 30.5771 51.5621 29.9665 51.7009 29.0251C51.7299 28.8993 51.761 28.7564 51.7866 28.612C51.8315 28.3571 51.8584 28.1002 51.8246 27.9461V27.9455Z" fill="#171936"/>
<path d="M30.7202 27.1682L30.9785 27.2753L30.9592 27.7547C30.9522 27.9342 30.9495 28.1111 30.9522 28.2768C30.9895 30.7572 31.998 33.0746 33.7904 34.8014C35.5835 36.5296 37.9472 37.4593 40.4455 37.4213C42.9439 37.3833 45.2778 36.3825 47.0185 34.6011C48.2265 33.364 49.0623 31.832 49.4346 30.1687L49.5769 29.534L50.2186 29.6403C50.6558 29.7129 50.8389 29.6887 50.9003 29.6742C50.9342 29.583 50.9625 29.3647 50.9832 29.2003C50.9943 29.1119 51.006 29.0201 51.0212 28.9227L51.0254 28.8944L51.0316 28.8674C51.064 28.7286 51.0903 28.6029 51.1096 28.4917C51.1269 28.3929 51.1373 28.3155 51.1435 28.2554C50.9991 28.2002 50.7173 28.1138 50.1785 28.0054L49.6695 27.9032L49.628 27.3858C49.4491 25.1423 48.4517 23.0412 46.8188 21.4684C45.0257 19.7409 42.6621 18.8105 40.1637 18.8485C37.6654 18.8865 35.3314 19.888 33.5908 21.6687C32.668 22.6136 31.9711 23.7105 31.52 24.9289L31.2348 25.6991L30.5261 25.2833C29.3622 24.6015 28.7033 24.3397 28.0947 24.3204C27.3743 24.2955 26.6401 24.634 25.537 25.2674L24.8587 25.6569L24.5582 24.9351C24.074 23.7699 23.3633 22.7283 22.446 21.8386C20.6653 20.1111 18.3189 19.18 15.8385 19.218C13.3581 19.2553 11.0408 20.2576 9.31327 22.0375C7.7177 23.6822 6.78937 25.8448 6.69957 28.127L6.67885 28.6574L6.16081 28.7721C5.00523 29.0277 4.87399 29.1596 4.8512 29.3993C4.84567 29.4552 4.84567 29.5043 4.84982 29.545C4.85258 29.5699 4.85672 29.5865 4.85949 29.5954L4.86363 29.6065L4.86639 29.6113L4.89126 29.6459L4.91129 29.6832C5.0294 29.8973 5.2974 30.2447 5.38858 30.3483C5.62066 30.5238 5.91353 30.5846 6.17877 30.5113L6.84393 30.3248L7.02767 30.9914C7.46351 32.5711 8.32277 34.0168 9.51289 35.171C11.2936 36.8991 13.64 37.8295 16.121 37.7916C18.6014 37.7543 20.9188 36.7534 22.6463 34.972C24.3738 33.1913 25.3042 30.845 25.2669 28.3646C25.2641 28.2036 25.2572 28.0358 25.2462 27.8652L25.2192 27.4694L25.3539 27.3782C25.3311 27.1309 25.2952 26.7103 25.2759 26.2786L25.2593 25.9111L25.5563 25.6929C26.8252 24.7611 28.3986 24.6623 29.2973 25.045C29.7656 25.2446 30.1676 25.4152 30.4045 25.516L30.8908 25.7232L30.8169 26.2461C30.7934 26.4119 30.7727 26.5742 30.7575 26.7158C30.7478 26.8022 30.7243 27.019 30.7209 27.1689L30.7202 27.1682ZM40.4663 38.7993C37.6018 38.8428 34.8921 37.7757 32.8352 35.794C30.7761 33.8102 29.6185 31.1489 29.5749 28.299C29.5736 28.2105 29.5736 28.1207 29.5749 28.0282C29.4762 27.8956 29.394 27.7174 29.3615 27.4811C29.3277 27.2394 29.3449 26.9665 29.3871 26.5797C29.2006 26.5003 28.9871 26.4091 28.7571 26.311C28.4194 26.1667 27.5166 26.1349 26.6732 26.6081C26.7043 27.0722 26.7444 27.4501 26.7451 27.4549L26.81 28.0586L26.6401 28.1725C26.6421 28.2299 26.6435 28.2879 26.6442 28.3438C26.687 31.1924 25.6185 33.8869 23.6354 35.9314C21.6517 37.9753 18.991 39.1253 16.1431 39.1689C13.2946 39.2117 10.6001 38.1431 8.55624 36.1601C7.33158 34.972 6.41223 33.5146 5.87347 31.917C5.38029 31.8997 4.89402 31.7208 4.49547 31.3962C4.32556 31.258 3.91941 30.7206 3.72532 30.3794C3.6749 30.3048 3.63138 30.224 3.59615 30.1404C3.57681 30.0948 3.56024 30.0479 3.54573 30.0002C3.51603 29.9042 3.49531 29.802 3.48356 29.697C3.46837 29.5616 3.46837 29.4172 3.48356 29.2673C3.54089 28.6754 3.83722 28.2216 4.36355 27.9191C4.6502 27.7547 4.9928 27.6414 5.36095 27.5468C5.57715 25.1209 6.61945 22.8415 8.3283 21.0795C10.3121 19.035 12.9727 17.8856 15.8206 17.8421C18.6684 17.7993 21.3636 18.8671 23.4075 20.8509C24.2736 21.6915 24.9796 22.6509 25.5128 23.7105C26.4874 23.198 27.2838 22.9168 28.1424 22.9458C28.9277 22.9721 29.6737 23.2518 30.5371 23.7112C31.0448 22.6053 31.739 21.5976 32.6072 20.7086C34.6027 18.6661 37.2793 17.5175 40.1437 17.4739C43.0081 17.4304 45.7178 18.4976 47.7748 20.4786C48.7135 21.3834 49.4685 22.4306 50.019 23.591C50.4949 24.5946 50.8064 25.6597 50.948 26.7642C51.7472 26.9541 52.3695 27.2104 52.498 27.7982C52.5484 28.0289 52.5387 28.3162 52.4655 28.7313C52.4434 28.8598 52.4137 29.0007 52.3792 29.1527C52.3681 29.2294 52.3584 29.3046 52.3488 29.3779C52.2859 29.8683 52.2148 30.4236 51.7354 30.78C51.417 31.0163 51.0171 31.0777 50.6254 31.0674C50.1433 32.7493 49.244 34.2944 48.0028 35.5647C46.0072 37.6078 43.3307 38.7565 40.4663 38.8V38.7993Z" fill="#FFF9F3"/>
<path d="M6.83439 29.653C6.9525 29.651 7.07061 29.6807 7.17491 29.7401C7.33033 29.8278 7.44429 29.9742 7.49195 30.1455L7.67569 30.8121C8.07976 32.2771 8.87685 33.6171 9.98132 34.6891C11.6328 36.2909 13.81 37.1543 16.1115 37.1198C18.413 37.0852 20.5625 36.1562 22.165 34.5047C23.7675 32.8525 24.6309 30.6753 24.5963 28.3738C24.5943 28.2246 24.5874 28.0685 24.577 27.9104L24.5501 27.5139C24.5397 27.3668 24.5791 27.2238 24.6564 27.1036C24.6378 26.8681 24.6184 26.5911 24.6053 26.3093L24.6039 26.2782C24.4402 26.2105 24.3097 26.0799 24.2406 25.9155L23.9408 25.1937C23.4919 24.1134 22.8322 23.1464 21.9806 22.321C20.3284 20.7179 18.1519 19.8551 15.8504 19.8897C13.5489 19.9242 11.3994 20.8532 9.7969 22.5054C8.31668 24.0313 7.45535 26.0371 7.37246 28.1535L7.35174 28.684C7.3393 28.9886 7.1238 29.2469 6.8261 29.3132L6.30805 29.4279C5.9993 29.4963 5.79208 29.5494 5.65325 29.5916C5.71956 29.6848 5.79139 29.7774 5.8432 29.843C5.89638 29.8692 5.95302 29.8775 5.99999 29.8644L6.66516 29.6779C6.72111 29.6627 6.77844 29.6544 6.83577 29.653H6.83439ZM31.4255 26.7755C31.5726 26.9067 31.6576 27.0988 31.6493 27.3032L31.63 27.7826C31.6231 27.9504 31.621 28.1134 31.6231 28.2675C31.6576 30.5683 32.5928 32.7171 34.2561 34.3189C35.9207 35.9227 38.1152 36.7861 40.4353 36.7509C42.7554 36.7157 44.9222 35.786 46.5378 34.1324C47.6589 32.9851 48.4339 31.5643 48.7792 30.0233L48.9215 29.3885C48.9996 29.0404 49.3353 28.8138 49.6862 28.8725L50.3278 28.9789H50.3348C50.3417 28.9292 50.3486 28.8787 50.3562 28.8249L50.3603 28.7979C50.3631 28.7793 50.3665 28.7606 50.3707 28.7427L50.3727 28.7344C50.2788 28.713 50.1704 28.6902 50.0453 28.6646L49.5363 28.5624C49.2427 28.503 49.0231 28.2564 48.9996 27.9573L48.9581 27.44C48.7924 25.3609 47.8668 23.4117 46.3527 21.9529C44.6881 20.349 42.4937 19.4856 40.1735 19.5208C37.8534 19.5561 35.6866 20.4858 34.071 22.1394C33.2138 23.0166 32.568 24.034 32.1501 25.1633L31.8648 25.9335C31.7985 26.1124 31.659 26.2547 31.4822 26.3251L31.4801 26.3403C31.4587 26.4944 31.4393 26.6443 31.4248 26.7762L31.4255 26.7755ZM40.4553 38.0944C37.7781 38.1351 35.2459 37.1377 33.3243 35.2866C31.4013 33.4341 30.3204 30.9495 30.2803 28.2882C30.2775 28.1093 30.2803 27.9207 30.2879 27.7294L30.29 27.6852C30.1352 27.556 30.0441 27.3619 30.0489 27.1526C30.053 26.9951 30.0724 26.7969 30.089 26.6422C30.1048 26.4944 30.1263 26.3245 30.1511 26.1518L30.1532 26.138L30.1415 26.1331C29.9045 26.0323 29.5025 25.861 29.0335 25.6614C28.3276 25.3609 27.0083 25.459 25.9536 26.2326L25.946 26.2381V26.2471C25.9647 26.6546 25.9978 27.0525 26.0227 27.3143C26.0372 27.4711 25.9964 27.6251 25.9122 27.7508L25.917 27.8178C25.9294 28.0001 25.937 28.1797 25.9398 28.3524C25.9799 31.0124 24.9824 33.5287 23.1299 35.4379C21.2774 37.3477 18.7929 38.4211 16.1329 38.4618C13.4729 38.5019 10.9566 37.5038 9.04746 35.6513C7.77101 34.4142 6.84958 32.8635 6.38265 31.1678L6.37851 31.1512L6.36193 31.1561C5.94266 31.2735 5.48333 31.2017 5.10551 30.9647C5.02745 30.9261 4.95838 30.8722 4.90105 30.8059L4.88655 30.7907C4.78363 30.6732 4.47695 30.2816 4.32499 30.0046C4.29322 29.9604 4.26697 29.9121 4.24625 29.8623C4.23658 29.8395 4.2276 29.814 4.22 29.7891C4.20411 29.7373 4.19237 29.6786 4.18546 29.6178C4.17579 29.5301 4.17579 29.4369 4.18546 29.3339C4.26628 28.5037 5.07788 28.3241 6.01864 28.1155L6.03107 28.1127V28.1003C6.12778 25.6524 7.12311 23.3329 8.83403 21.5695C10.6865 19.6597 13.1711 18.587 15.8311 18.5469C18.491 18.5068 21.0073 19.5036 22.9165 21.3561C23.8994 22.3107 24.662 23.4276 25.1814 24.6771L25.189 24.695L25.2056 24.6854C26.4164 23.9912 27.2397 23.621 28.1197 23.6493C28.8526 23.6735 29.5972 23.9601 30.8681 24.7047L30.8854 24.7158L30.8923 24.6971C31.3758 23.3903 32.1225 22.2133 33.1123 21.2007C34.9772 19.2929 37.4783 18.2195 40.1549 18.1788C42.8314 18.138 45.3643 19.1354 47.2859 20.9859C49.0369 22.6733 50.1061 24.9264 50.2981 27.3336V27.346L50.312 27.3481C50.7858 27.4434 51.147 27.5381 51.3853 27.6306C51.6685 27.7391 51.844 28.025 51.8122 28.3269C51.8032 28.4111 51.7894 28.5051 51.7715 28.6087C51.75 28.7309 51.721 28.8698 51.6858 29.0203C51.672 29.1157 51.6609 29.202 51.6499 29.287C51.6154 29.5563 51.5863 29.7587 51.529 29.91C51.451 30.1179 51.2748 30.274 51.0593 30.3265C50.839 30.3797 50.5282 30.3728 50.1089 30.303L50.093 30.3009L50.0895 30.3161C49.6896 32.101 48.7938 33.7442 47.4986 35.0704C45.6337 36.9795 43.1326 38.0522 40.456 38.093L40.4553 38.0944ZM28.1073 25.5467C28.4699 25.5412 28.7897 25.5957 29.0204 25.6938L29.6504 25.9618C29.9225 26.0779 30.0869 26.3583 30.0551 26.6519C30.0199 26.9779 30.0033 27.2148 30.0275 27.3889C30.0413 27.4876 30.0703 27.5691 30.1145 27.6272C30.2022 27.7453 30.2492 27.8889 30.2471 28.0354C30.2464 28.121 30.2464 28.2067 30.2471 28.2882C30.2879 30.9585 31.3723 33.452 33.3015 35.3101C35.2293 37.1681 37.7705 38.1683 40.4567 38.1275C43.1423 38.0868 45.6523 37.0099 47.5228 35.0946C48.6798 33.91 49.5301 32.4532 49.9804 30.8812C50.0647 30.5876 50.3375 30.3873 50.6435 30.3956C50.9571 30.4039 51.183 30.3528 51.3349 30.2402C51.5677 30.0668 51.6216 29.7663 51.6824 29.2918C51.692 29.2144 51.7024 29.1357 51.7141 29.0556C51.7169 29.0376 51.7203 29.019 51.7245 29.001C51.757 28.8608 51.7832 28.7302 51.8039 28.6142C51.8592 28.2985 51.8716 28.0782 51.8412 27.9414C51.7984 27.7453 51.4551 27.574 50.792 27.4172C50.5199 27.3529 50.3161 27.1271 50.2809 26.8494C50.1483 25.8161 49.8554 24.8159 49.4113 23.8779C48.896 22.7914 48.1887 21.8099 47.3087 20.9617C45.3809 19.1043 42.8397 18.1042 40.1535 18.1449C37.468 18.1857 34.9579 19.2625 33.0874 21.1772C32.2744 22.0095 31.6217 22.9551 31.1472 23.9905C31.0698 24.159 30.9268 24.2882 30.7521 24.3469C30.5766 24.4063 30.3846 24.3904 30.2216 24.3041C29.3554 23.8427 28.7269 23.6368 28.1197 23.6168C27.4601 23.594 26.7956 23.7936 25.8251 24.3048C25.6656 24.3884 25.4791 24.4049 25.3078 24.3497C25.1358 24.2958 24.9935 24.1729 24.9127 24.0126C24.414 23.0214 23.7502 22.12 22.9393 21.3333C21.0232 19.4746 18.4986 18.4737 15.8297 18.5138C13.1607 18.5545 10.6672 19.6313 8.80847 21.5474C7.21705 23.1879 6.23 25.3395 6.02762 27.6071C6.00206 27.8896 5.80175 28.1272 5.52616 28.197C5.15455 28.2923 4.89069 28.389 4.69591 28.5009C4.35952 28.6936 4.18615 28.9575 4.15024 29.3305C4.13987 29.4348 4.13987 29.5322 4.15024 29.622C4.15714 29.6855 4.16958 29.7463 4.18684 29.8022C4.19513 29.8285 4.20411 29.8547 4.21447 29.8789C4.23243 29.9224 4.25523 29.9646 4.28216 30.0039C4.29114 30.0171 4.30012 30.0316 4.30841 30.0461C4.48455 30.3555 4.82576 30.7907 4.92108 30.8763C5.19944 31.1022 5.54619 31.232 5.89707 31.2445C6.17613 31.2548 6.42064 31.4365 6.50975 31.7017C7.01259 33.1951 7.88221 34.5689 9.02329 35.6768C10.9394 37.5356 13.4639 38.5364 16.1329 38.4964C18.8019 38.4556 21.2954 37.3788 23.1541 35.4627C25.0128 33.546 26.0137 31.0221 25.9736 28.3524C25.9729 28.2999 25.9716 28.2467 25.9702 28.1922C25.9653 28.0381 26.0144 27.8883 26.1049 27.7681L26.0786 27.5256C26.0786 27.5256 26.0365 27.1361 26.0047 26.6512C25.9874 26.3935 26.1201 26.1483 26.3459 26.0219C26.9255 25.6959 27.5651 25.5543 28.1087 25.546L28.1073 25.5467ZM40.4761 39.471C37.4334 39.5173 34.5545 38.3831 32.369 36.2778C30.1801 34.169 28.9493 31.3398 28.9037 28.3089C28.9037 28.2799 28.903 28.2502 28.903 28.2205C28.798 28.0264 28.7289 27.8095 28.6965 27.5726C28.6716 27.393 28.6675 27.212 28.6771 27.0076L28.4934 26.9288C28.387 26.8853 27.918 26.8335 27.3786 27.0228C27.3972 27.2369 27.4124 27.3792 27.4124 27.382L27.4773 27.9863C27.4974 28.1742 27.4373 28.3593 27.3164 28.4982C27.3192 31.4648 26.1871 34.2643 24.117 36.398C22.0089 38.571 19.1804 39.7929 16.1529 39.8391C13.1255 39.8847 10.2611 38.7492 8.08805 36.6411C6.89655 35.4848 5.96684 34.0716 5.3811 32.5327C4.90589 32.438 4.45208 32.226 4.07149 31.9165C3.80004 31.6962 3.35383 31.078 3.15283 30.7326C3.08376 30.627 3.02505 30.5158 2.97601 30.3997C2.94838 30.3341 2.92351 30.2657 2.90279 30.1973C2.86135 30.0606 2.83164 29.9169 2.81576 29.7705C2.79573 29.5895 2.79504 29.3975 2.81438 29.2027C2.89312 28.3925 3.31308 27.748 4.02867 27.3371C4.23381 27.2196 4.46313 27.1195 4.74219 27.0276C5.05716 24.6253 6.1485 22.3625 7.8456 20.6129C9.953 18.4385 12.7815 17.2166 15.809 17.1703C18.8364 17.1247 21.7008 18.2603 23.8738 20.3683C24.6302 21.1019 25.2739 21.9252 25.794 22.8218C26.6934 22.4108 27.4103 22.2485 28.1632 22.2741C28.8201 22.2955 29.4639 22.4605 30.2333 22.8107C30.7348 21.8755 31.3696 21.0128 32.1259 20.2385C34.2471 18.0689 37.0901 16.8484 40.1328 16.8021C43.1754 16.7559 46.0543 17.89 48.2398 19.9947C49.2372 20.9555 50.0391 22.0682 50.6242 23.3025C51.0642 24.2309 51.3729 25.2124 51.5449 26.2257C52.1617 26.4094 52.9595 26.7748 53.1522 27.6541C53.2227 27.9746 53.2144 28.3427 53.1253 28.8477C53.1025 28.9796 53.0728 29.1226 53.0382 29.2745C53.0293 29.3381 53.021 29.4009 53.0134 29.4631C52.9457 29.9922 52.8428 30.7921 52.1355 31.3184C51.8564 31.5263 51.5187 31.6575 51.1277 31.7121C50.5896 33.3208 49.6813 34.8065 48.4822 36.034C46.3617 38.2042 43.5187 39.4254 40.4761 39.4717V39.471Z" fill="#FFF9F3"/>
<path d="M24.5493 25.4185C27.8979 23.4293 28.2302 23.3968 31.9345 25.7086C31.5139 27.1965 31.3129 27.6447 31.3274 27.6724C31.3419 27.7 30.5351 27.49 30.3963 27.4375C30.2568 27.3843 30.4847 25.9539 30.4847 25.9539C30.4847 25.9539 29.9038 25.7073 29.1516 25.3875C28.3987 25.0663 26.8715 25.1091 25.64 26.0968C25.6648 26.8166 25.745 27.5632 25.745 27.5632L25.1558 27.9604L24.5493 25.4192V25.4185Z" fill="#171936"/>
<path d="M24.9118 25.574L25.3573 27.4417L25.4098 27.4072C25.3842 27.1364 25.3393 26.6198 25.3221 26.1086L25.3165 25.9504L25.4402 25.851C26.7035 24.837 28.3585 24.7051 29.2744 25.0967C30.0266 25.4165 30.6068 25.6631 30.6068 25.6631L30.8354 25.7605L30.7967 26.005C30.7291 26.4305 30.6703 26.9437 30.6662 27.1896C30.7933 27.2255 30.9667 27.2718 31.109 27.307C31.1946 27.0584 31.3452 26.6087 31.5628 25.853C28.2556 23.7947 27.9441 23.7788 24.9111 25.574H24.9118ZM24.9532 28.4799L24.1865 25.2666L24.3875 25.1471C26.0535 24.1566 27.0482 23.5985 28.1195 23.6344C29.157 23.669 30.1779 24.2381 32.1029 25.4393L32.3053 25.5657L32.2404 25.795C31.9592 26.7904 31.7755 27.3243 31.6871 27.5805C31.6802 27.5999 31.674 27.6199 31.6677 27.6379L31.7106 27.7201L31.5648 27.8852C31.435 28.0302 31.2706 27.9936 31.1262 27.9611C31.0281 27.9397 30.9107 27.91 30.8292 27.8893C30.7864 27.8782 30.4051 27.7795 30.2842 27.7332C29.9997 27.6248 30.0024 27.3015 30.0742 26.6419C30.0936 26.4616 30.1171 26.2861 30.1364 26.1501C29.8995 26.0499 29.4975 25.8793 29.0285 25.6783C28.4124 25.4165 27.0786 25.4303 25.9651 26.2481C25.9941 26.8947 26.0618 27.5225 26.0625 27.5294L26.0832 27.7201L24.9553 28.4792L24.9532 28.4799Z" fill="#171936"/>
<path d="M4.253 29.7381C4.06305 29.8002 4.83804 30.788 4.92853 30.8612C5.32155 31.181 5.861 31.3157 6.37007 31.172C6.48887 31.1388 6.6056 31.0884 6.69402 31.0076C6.81489 30.8964 6.87084 30.7361 6.88051 30.578C6.8964 30.3196 6.83631 30.0047 6.70231 29.776C6.45088 29.3457 4.25369 29.7374 4.253 29.7374V29.7381Z" fill="#171936"/>
<path d="M15.8464 19.6295C10.9533 19.7034 7.03274 23.7442 7.10734 28.6372C7.18125 33.5303 11.2227 37.4509 16.1158 37.377C21.0088 37.3031 24.9294 33.2616 24.8548 28.3685C24.7809 23.4755 20.7395 19.5556 15.8471 19.6302L15.8464 19.6295ZM16.1323 38.478C13.4682 38.518 10.9471 37.5186 9.03515 35.6633C7.12254 33.8073 6.04708 31.3179 6.00702 28.6538C5.96696 25.9897 6.96643 23.4686 8.82172 21.5566C10.677 19.6447 13.1664 18.5693 15.8305 18.5285C18.4946 18.4884 21.0157 19.4879 22.9277 21.3432C24.8403 23.1985 25.9157 25.6878 25.9558 28.352C25.9959 31.0161 24.9964 33.5372 23.1411 35.4498C21.2858 37.3618 18.7965 38.4372 16.1323 38.478Z" fill="#171936"/>
<path d="M25.4052 28.3605C25.484 33.5658 21.3286 37.8483 16.124 37.927C10.9194 38.0057 6.63551 33.8503 6.55676 28.6457C6.47802 23.4405 10.6334 19.158 15.838 19.0792C21.0426 19.0005 25.3265 23.1559 25.4052 28.3605Z" fill="#2F314A"/>
<path d="M51.7216 28.8959C51.5282 30.0431 51.7754 30.7601 49.3703 30.164C48.163 29.7979 48.395 28.6265 48.3971 28.5988C48.3992 28.5726 50.7663 28.4648 50.7663 28.4648L51.7216 28.8959Z" fill="#171936"/>
<path d="M40.1702 19.2623C35.2405 19.3369 31.2903 23.3777 31.3649 28.2707C31.4388 33.1638 35.5099 37.0837 40.4389 37.0091C45.3686 36.9345 49.3181 32.8931 49.2442 28C49.1703 23.1069 45.0992 19.1877 40.1702 19.2623ZM40.4562 38.1101C37.7748 38.1508 35.2384 37.1521 33.3134 35.2975C31.3877 33.4429 30.3046 30.9528 30.2638 28.2873C30.2238 25.6218 31.2302 23.1014 33.0993 21.1881C34.967 19.2768 37.4722 18.2014 40.1536 18.1613C42.835 18.1213 45.3713 19.1194 47.2964 20.9733C49.2221 22.8292 50.3052 25.3179 50.3459 27.9834C50.386 30.6489 49.3796 33.17 47.5105 35.0827C45.6428 36.9953 43.1375 38.07 40.4562 38.1108V38.1101Z" fill="#171936"/>
<path d="M49.7952 27.9926C49.8739 33.1979 45.6888 37.4811 40.4476 37.5605C35.2064 37.6399 30.8935 33.4852 30.8141 28.28C30.7353 23.0747 34.9204 18.7915 40.1616 18.7121C45.4028 18.6326 49.7157 22.7873 49.7952 27.9926Z" fill="#2F314A"/>
<path d="M7.66477 27.7189C5.58915 28.2708 4.27539 28.219 4.16695 29.3339C4.15659 29.4388 4.15659 29.5342 4.16695 29.6212C4.17386 29.6847 4.18629 29.7441 4.20287 29.798C4.21116 29.8243 4.22014 29.8498 4.22981 29.874C4.47294 30.4521 5.3025 30.4376 6.03605 30.2394C6.94918 29.9914 8.04881 29.6516 8.04881 29.6516L7.93484 27.625L7.66546 27.7189H7.66477Z" fill="#171936"/>
<path d="M6.33994 28.5508C5.60501 28.7559 4.90946 29.2318 4.76993 29.4922C4.67806 29.1068 4.86594 28.7456 6.33994 28.5508Z" fill="#AAB1ED"/>
<path d="M48.4823 27.0156C50.379 27.3182 51.739 27.5523 51.8247 27.9453C51.8585 28.1001 51.8316 28.3563 51.7867 28.6112C51.7176 29.0042 51.6057 29.3952 51.6064 29.4145C51.6064 29.4456 48.4581 28.7839 48.4581 28.7839C48.4581 28.7839 48.4553 27.3789 48.4816 27.0156H48.4823Z" fill="#171936"/>
<path d="M49.1694 27.6172C49.9106 27.6883 50.7277 27.8845 51.0751 28.1055C51.4226 28.3259 49.4443 28.1656 49.1694 27.6172Z" fill="#AAB1ED"/>
<path d="M24.5548 28.3544C24.6266 33.1135 20.8394 37.0292 16.0941 37.1011C11.3489 37.1729 7.44491 33.3739 7.37308 28.6148C7.30124 23.8558 11.0885 19.9407 15.8331 19.8682C20.5776 19.7957 24.4823 23.5954 24.5541 28.3544H24.5548Z" fill="#171936"/>
<path d="M24.0707 28.3647C24.1384 32.8551 20.5646 36.5511 16.0874 36.6188C11.6101 36.6865 7.92508 33.1009 7.85739 28.6106C7.7897 24.1202 11.3635 20.4241 15.8408 20.3564C20.318 20.2887 24.003 23.8743 24.0707 28.3647Z" fill="#FF480F"/>
<path d="M15.8408 20.3532C11.3635 20.4208 7.78903 24.1169 7.85741 28.6073C7.87882 30.0254 8.26148 31.3543 8.91629 32.505C11.2634 30.0834 18.0262 23.1319 19.961 21.4079C18.7467 20.7165 17.3383 20.3304 15.8415 20.3525L15.8408 20.3532Z" fill="#7A84E3"/>
<path d="M48.8793 27.9762C48.9601 32.7422 45.1735 36.671 40.422 36.7512C35.6706 36.8313 31.7535 33.0337 31.6727 28.2684C31.5918 23.5024 35.3784 19.5736 40.1299 19.4934C44.8814 19.4133 48.7985 23.2116 48.8793 27.9762Z" fill="#171936"/>
<path d="M48.3825 27.9871C48.4585 32.4775 44.8909 36.1791 40.4136 36.2544C35.9364 36.3303 32.2451 32.7517 32.1692 28.2613C32.0932 23.7702 35.6608 20.0686 40.138 19.9934C44.6153 19.9181 48.3065 23.496 48.3825 27.9871Z" fill="#FF480F"/>
<path d="M40.138 19.9933C35.6608 20.0686 32.0932 23.7702 32.1692 28.2613C32.194 29.7491 32.6167 31.1368 33.333 32.3248C36.1325 29.2891 41.4718 23.5022 43.9287 20.8637C42.7911 20.2862 41.5008 19.9705 40.138 19.9933Z" fill="#7A84E3"/>
<path d="M26.0269 24.9861C26.6886 24.5765 27.869 23.7911 29.7885 24.7775C30.223 25.0462 30.3777 25.2755 30.2831 25.2189C30.2831 25.2189 29.6946 24.9854 29.3036 24.859C28.5777 24.6255 27.2494 24.361 26.0269 24.9868V24.9861Z" fill="#AAB1ED"/>
<path d="M18.3931 19.8594C20.3616 20.3263 23.8898 21.5634 24.5792 26.2375C23.4616 23.724 23.2993 23.1928 22.2321 22.1837C20.7319 20.7656 18.9311 20.0189 18.3931 19.8594Z" fill="#AAB1ED"/>
<path d="M42.5986 19.3906C44.5748 19.8251 48.1223 21.0055 48.887 25.6672C47.7293 23.1723 47.558 22.6439 46.4743 21.6527C44.9512 20.2589 43.1388 19.5412 42.5986 19.3906Z" fill="#AAB1ED"/>
<path d="M20.9021 22.0352L9.6709 33.6117C9.99485 34.0109 10.3554 34.3791 10.7477 34.7092L22.0259 23.0837C21.6853 22.6996 21.3089 22.3481 20.9027 22.0352H20.9021Z" fill="#FFE97D"/>
<path d="M12.798 35.9734L23.3398 25.1069C23.1533 24.6973 22.9336 24.3063 22.685 23.9375L11.6147 35.3482C11.9898 35.5879 12.3849 35.7972 12.798 35.9734Z" fill="#FF8059"/>
<path d="M7.90137 29.3422C8.0257 30.5274 8.40214 31.6361 8.97682 32.612L20.0484 21.4603C19.0711 20.887 17.9638 20.514 16.7834 20.3945L7.90137 29.3422Z" fill="#A2A9EC"/>
<path d="M32.5483 30.5913C32.855 31.559 33.3365 32.4472 33.956 33.2195L45.0069 21.5221C44.2057 20.9432 43.2953 20.5088 42.3138 20.2539L32.5483 30.5913Z" fill="#A2A9EC"/>
<path d="M36.2334 35.1726L47.0315 23.6264C46.691 23.1125 46.2938 22.6415 45.8497 22.2188L34.7573 34.0805C35.2049 34.4977 35.7002 34.8652 36.2327 35.1726H36.2334Z" fill="#FFE97D"/>
<path d="M38.6807 36.0988L48.1084 26.0184C47.9792 25.5328 47.8065 25.0659 47.5945 24.6211L37.2578 35.674C37.7137 35.8578 38.1896 36.0001 38.6807 36.0988Z" fill="#FF8059"/>
</g>
<defs>
<clipPath id="clip0_4450_47737">
<rect width="50.4" height="23.0398" fill="white" transform="translate(2.7998 16.8008)"/>
</clipPath>
</defs>
</svg>
