<svg width="80" height="80" viewBox="0 0 80 80" fill="none" xmlns="http://www.w3.org/2000/svg">
<g id="Sticker=Graduation">
<g id="Vector">
<path d="M15.7429 16.9168L48.2476 21.1675L63.8291 34.75L63.8019 34.647C63.9302 34.612 64.0994 34.5886 64.2919 34.5886C64.7606 34.5886 65.3575 34.7384 65.8087 35.2634C66.1665 35.6795 66.3687 36.2609 66.4192 37.0057L73.087 42.8179L72.6359 43.8407C72.6359 43.8407 69.1299 43.3662 65.1456 42.8121C64.8461 43.6093 64.4961 44.4668 64.0916 45.3847L59.7165 55.3115C60.6907 56.5365 60.4204 59.7275 58.9581 63.0468C58.9484 63.0701 58.9367 63.0935 58.925 63.1188L57.91 62.6715L57.7505 61.4581L56.6986 62.1387L55.246 61.499L55.1079 60.2934L54.1318 61.007L53.3092 60.6453C53.319 60.622 53.3287 60.5967 53.3404 60.5734C54.8026 57.2541 56.9766 54.9012 58.5381 54.7942L62.9133 44.8674C63.273 44.0488 63.5783 43.306 63.8369 42.6312C61.0951 42.2462 58.2853 41.8437 56.3427 41.5442L54.5946 45.5111C54.7832 45.5305 54.9407 45.548 55.0651 45.5597C55.1099 45.5597 55.1527 45.5636 55.1954 45.5674C55.2596 45.5733 55.3238 45.5811 55.3879 45.5927C55.5318 45.62 55.6718 45.6627 55.806 45.7191C55.8157 45.723 55.8235 45.7269 55.8332 45.7288C55.8507 45.7366 55.8663 45.7444 55.8838 45.7522C56.0024 45.8047 56.1152 45.865 56.2221 45.9389C56.4691 46.1139 56.6966 46.3239 56.8736 46.5708C57.2391 47.0589 57.4783 47.6364 57.595 48.2353C57.7136 48.8343 57.7214 49.4526 57.6358 50.0574C57.6086 50.2071 57.5891 50.3588 57.5561 50.5085L57.4433 50.9518C57.3539 51.2455 57.2352 51.5294 57.0972 51.8016C56.8211 52.348 56.473 52.8555 56.0646 53.3106C56.0569 53.3183 56.0491 53.3261 56.0413 53.3339L56.8152 53.4039C56.4671 54.0009 55.9752 54.5239 55.3763 54.8876C55.0768 55.0684 54.7443 55.2006 54.3982 55.2648C54.2523 55.292 54.1007 55.3056 53.9509 55.3056C53.7468 55.3056 53.5406 55.2765 53.3442 55.2104C53.2315 55.1734 53.1226 55.1248 53.0176 55.0723C51.1255 54.6192 45.0489 53.1803 39.3981 52.0097C40.2867 53.8025 41.5312 54.8117 41.5312 54.8117L38.0953 53.4739L38.278 56.3596C36.213 54.8506 34.951 53.0092 34.179 51.3738C33.864 51.3466 33.5295 51.3174 33.1834 51.2824C31.9311 52.8341 29.8719 54.7048 26.782 55.6518L27.9001 52.9858L24.2152 53.1239C24.2152 53.1239 26.5467 52.278 28.1548 49.9893C19.4297 48.5484 9.1257 46.8625 9.1257 46.8625C7.43979 46.5533 6.5667 44.5155 7.05478 41.8553C7.50591 39.4052 8.88069 37.7718 10.411 37.7718C10.5413 37.7718 10.6735 37.7835 10.8077 37.8088C10.8077 37.8088 16.8221 39.1447 23.1749 40.5058C22.7666 40.185 22.5818 40.01 22.5818 40.01L27.4743 28.9087L15.2937 17.9396L15.7449 16.9168M15.7429 14C14.5995 14 13.5456 14.6728 13.075 15.7404L12.6375 16.7321C12.5636 16.8935 12.5053 17.0607 12.4625 17.2357C12.3711 17.5993 12.3536 17.9746 12.4042 18.3382C12.4158 18.418 12.4294 18.4977 12.4469 18.5755C12.5092 18.8535 12.6103 19.1161 12.7445 19.3572C12.8631 19.5691 13.007 19.7675 13.18 19.9483C13.2345 20.0047 13.2909 20.0591 13.3473 20.1116C13.3492 20.1136 13.3531 20.1175 13.355 20.1194L23.9527 29.6671L20.7209 36.9999C15.6885 35.9109 11.4864 34.9776 11.4358 34.9678C11.4008 34.9601 11.3658 34.9523 11.3308 34.9464C11.0255 34.8901 10.7163 34.8628 10.4071 34.8628C7.39507 34.8628 4.89246 37.4627 4.18077 41.3362C3.83853 43.1932 3.97659 44.9335 4.57745 46.3725C5.33387 48.1809 6.79615 49.4079 8.59095 49.7385C8.6104 49.7423 8.6279 49.7443 8.64734 49.7482C8.72707 49.7618 14.8368 50.7613 21.5765 51.8697C21.314 52.418 21.2207 53.0519 21.3432 53.6878C21.5901 54.9537 22.6304 55.889 23.8808 56.029C23.9547 56.6085 24.2036 57.1646 24.6119 57.6157C25.1739 58.236 25.9634 58.5763 26.7742 58.5763C27.0601 58.5763 27.3479 58.5336 27.6279 58.448C29.9535 57.7363 31.7911 56.5949 33.2009 55.4106C34.142 56.6726 35.2601 57.7791 36.5474 58.7202C37.0569 59.0936 37.6616 59.2822 38.2683 59.2822C38.7486 59.2822 39.2309 59.1636 39.6703 58.9225C40.2031 58.6308 40.6193 58.1855 40.8798 57.6624C41.0996 57.713 41.3232 57.7382 41.5429 57.7382C42.5696 57.7382 43.5594 57.2074 44.0883 56.274C44.133 56.1962 44.1719 56.1185 44.2089 56.0387C47.252 56.7174 49.9608 57.3513 51.495 57.7149C51.1878 58.271 50.9097 58.8369 50.6647 59.393C50.653 59.4183 50.6413 59.4455 50.6316 59.4708L50.6277 59.4805C49.986 60.9525 50.6569 62.6618 52.127 63.3093L52.9495 63.671C53.1381 63.7546 53.3345 63.8168 53.5329 63.8577C53.6962 63.9763 53.8751 64.0774 54.0637 64.161L55.5163 64.8008C55.7224 64.8922 55.9363 64.9563 56.1521 64.9972C56.3291 65.1294 56.5197 65.2422 56.7258 65.3336L57.7408 65.7808C58.1239 65.95 58.5225 66.0297 58.9153 66.0297C60.0315 66.0297 61.0971 65.3861 61.5813 64.301V64.2952C61.5949 64.2699 61.6065 64.2427 61.6182 64.2174C62.8433 61.4406 63.6658 57.923 62.8996 55.294L66.7518 46.5553C66.8334 46.3725 66.9112 46.1897 66.989 46.0089C69.9291 46.4153 72.21 46.7225 72.2373 46.7264C72.3675 46.7439 72.4998 46.7536 72.6281 46.7536C73.7715 46.7536 74.8254 46.0808 75.296 45.0133L75.7471 43.9904C76.2624 42.8218 75.9571 41.4548 74.9946 40.6147L69.1105 35.4851C68.8946 34.6703 68.5291 33.9606 68.0176 33.3617C67.1951 32.4011 66.0264 31.806 64.7547 31.6874L50.1649 18.9702C49.7313 18.593 49.1966 18.3519 48.6268 18.276L16.1221 14.0253C15.9957 14.0078 15.8674 14 15.7429 14ZM59.5317 45.3011C59.452 45.1727 59.3684 45.0483 59.2809 44.9258C59.4092 44.9452 59.5395 44.9627 59.6717 44.9821L59.5317 45.3011Z" fill="#FFF8EC"/>
<path d="M28.6468 28.5431L15.7429 16.9168L48.2476 21.1675L73.0832 42.8178C73.0832 42.8178 59.1565 40.9355 55.2694 40.2764L28.6468 28.5431Z" fill="#575ED5"/>
<path d="M28.1977 29.564L15.2937 17.9396L47.7985 22.1903L72.634 43.8407C72.634 43.8407 58.7073 41.9584 54.8202 41.2992L28.1977 29.5659V29.564Z" fill="#242759"/>
<path d="M73.0832 42.8178L72.632 43.8407L70.8761 42.3103L73.0832 42.8178Z" fill="#575ED5"/>
<path d="M15.7429 16.9168L15.2937 17.9396L17.4055 18.2157L15.7429 16.9168Z" fill="#575ED5"/>
<path d="M44.3489 29.6884C54.6568 34.2308 57.4997 38.9132 57.4997 38.9132L51.4134 52.7233C51.4134 52.7233 46.6687 52.3538 36.3608 47.8114C26.0528 43.269 22.5799 40.0158 22.5799 40.0158L28.6663 26.2058C28.6663 26.2058 33.9457 25.1052 44.3489 29.6884Z" fill="#575ED5"/>
<path d="M59.2284 56.4101L58.052 55.8909L62.9114 44.8635C65.8709 38.151 65.1339 36.4631 64.8384 36.1073C64.5798 35.7942 64.1695 35.8798 64.1247 35.8895L63.8019 34.645C64.2492 34.5264 65.1728 34.5225 65.8068 35.2614C67.024 36.6829 66.4621 39.9924 64.0878 45.3807L59.2284 56.4081V56.4101Z" fill="#575ED5"/>
<path d="M53.3073 60.6433C53.3171 60.62 53.3268 60.5947 53.3384 60.5714C55.0205 56.7543 57.6417 54.2147 59.1915 54.8973C60.7413 55.5798 60.6363 59.2277 58.9523 63.0448C58.9426 63.0682 58.9309 63.0915 58.9192 63.1168L57.9042 62.6695L57.7447 61.4561L56.6928 62.1367L55.2402 61.497L55.1021 60.2914L54.126 61.005L53.3034 60.6433H53.3073Z" fill="#646ADB"/>
<path d="M32.9773 47.2378C32.9773 47.2378 33.339 52.7563 38.2761 56.3634L38.0934 53.4777L41.5293 54.8156C41.5293 54.8156 38.2839 52.1846 38.5348 47.8717L32.9754 47.2378H32.9773Z" fill="#98340C"/>
<path d="M10.8058 37.8146C10.8058 37.8146 26.7898 41.3653 34.1615 42.7848C40.5979 44.0254 52.9729 45.3399 55.0769 45.5596C55.1799 45.5616 55.283 45.5732 55.386 45.5907L53.6146 55.22C53.5504 55.2084 53.4862 55.1928 53.424 55.1734C51.7906 54.7806 39.9523 51.9493 33.1387 50.8176C23.9994 49.299 9.12184 46.8644 9.12184 46.8644C7.43594 46.5552 6.56285 44.5174 7.05092 41.8573C7.539 39.1971 9.11796 37.4996 10.8039 37.8107L10.8058 37.8146Z" fill="#DDDDDD"/>
<path d="M55.386 45.5927C57.0719 45.9019 58.1745 48.352 57.3831 50.9382C57.1342 51.751 56.5741 52.6533 55.948 53.33L56.8133 53.4077C56.0238 54.6872 54.7152 55.4242 53.6146 55.222C51.9287 54.9128 50.9603 52.5055 51.4484 49.8454C51.9364 47.1852 53.7001 45.2816 55.3841 45.5907L55.386 45.5927Z" fill="#B3B3B3"/>
<path d="M53.9296 53.1452L52.6248 52.8827C52.6248 52.8827 52.0784 51.7335 52.4265 49.8804C52.7745 48.0272 53.7526 46.6077 55.2402 46.8605C56.7278 47.1114 56.3369 50.0651 56.2766 50.3568C56.2163 50.6504 55.7147 52.5755 53.9315 53.1452H53.9296Z" fill="#D0D0D0"/>
<path d="M55.386 45.5927C55.6797 45.6627 55.9636 45.7774 56.2086 45.9563C56.4497 46.1352 56.6694 46.3472 56.8386 46.5961C57.1886 47.0861 57.4103 47.6597 57.5114 48.2509C57.6183 48.842 57.6183 49.4506 57.5289 50.0418C57.4997 50.1896 57.4783 50.3373 57.4453 50.4832L57.3286 50.9168C57.2372 51.2007 57.1186 51.4768 56.9805 51.7413C56.7025 52.2721 56.3544 52.766 55.9558 53.2113C55.7555 53.433 55.5396 53.643 55.3063 53.8258C55.073 54.0086 54.8182 54.17 54.544 54.2556C54.406 54.2964 54.2679 54.3158 54.1299 54.2925C54.0599 54.2769 53.986 54.2731 53.9179 54.2517C53.8498 54.2283 53.7799 54.2128 53.7137 54.1817C53.4473 54.0708 53.214 53.8861 53.037 53.6547C52.8581 53.4233 52.7259 53.1588 52.6287 52.8808C52.5412 52.5988 52.4712 52.3091 52.444 52.0116C52.374 51.4204 52.3992 50.8157 52.4731 50.2207C52.5451 49.6256 52.6773 49.0364 52.9243 48.4939C53.1693 47.9572 53.5154 47.4419 54.0132 47.1289C54.2602 46.9733 54.5421 46.878 54.8299 46.8761C54.8649 46.8761 54.9018 46.8722 54.9388 46.8761L55.0457 46.8897C55.0807 46.8955 55.1177 46.8975 55.1527 46.9052L55.2557 46.9325C55.3899 46.9772 55.5144 47.053 55.6213 47.1483C55.8391 47.3389 55.9888 47.6014 56.0958 47.8756C56.2008 48.1536 56.2688 48.4453 56.3038 48.7428C56.3758 49.3359 56.3388 49.9465 56.1988 50.5279C56.1308 50.8196 56.0297 51.1035 55.8936 51.3718C55.7516 51.6363 55.5902 51.891 55.3996 52.1244C55.0185 52.5852 54.5227 52.978 53.9354 53.1413C54.5246 52.9916 55.0341 52.6066 55.4308 52.1496C55.6291 51.9182 55.7983 51.6635 55.948 51.399C56.0938 51.1307 56.2027 50.8429 56.2805 50.5473C56.4341 49.9562 56.4769 49.3378 56.4127 48.7292C56.3797 48.4239 56.3155 48.1225 56.2105 47.8328C56.1016 47.545 55.948 47.263 55.7108 47.0491C55.5941 46.9422 55.4541 46.8566 55.3024 46.8022L55.1857 46.7691C55.1469 46.7613 55.108 46.7575 55.0691 46.7516L54.9524 46.7341C54.9135 46.7302 54.8727 46.7341 54.8338 46.7341C54.5149 46.7341 54.2038 46.8391 53.9393 47.0064C53.4026 47.3408 53.0429 47.8775 52.7862 48.4317C52.5276 48.9917 52.3895 49.5984 52.3137 50.2012C52.2359 50.806 52.2067 51.4204 52.2767 52.033C52.3078 52.3382 52.3798 52.6416 52.4731 52.9352C52.5762 53.2269 52.7181 53.5089 52.9106 53.7578C53.1032 54.0067 53.3598 54.2108 53.6535 54.3314C53.7254 54.3644 53.8032 54.382 53.879 54.4072C53.9549 54.4306 54.0346 54.4364 54.1124 54.452C54.2718 54.4792 54.4429 54.4558 54.5927 54.4072C54.896 54.31 55.1605 54.1369 55.4016 53.9483C55.6427 53.7558 55.8624 53.5419 56.0666 53.3144C56.475 52.8574 56.823 52.3499 57.0992 51.8055C57.2372 51.5332 57.3558 51.2493 57.4453 50.9557L57.5581 50.5123C57.5911 50.3626 57.6106 50.2109 57.6378 50.0612C57.7214 49.4565 57.7136 48.8381 57.597 48.2392C57.4803 47.6403 57.2411 47.0627 56.8755 46.5747C56.6986 46.3277 56.4711 46.1177 56.2241 45.9427C55.9733 45.7677 55.6855 45.6607 55.3899 45.5966L55.386 45.5927Z" fill="#D0D0D0"/>
<path d="M56.8133 53.4077C56.4322 53.9833 55.9344 54.4869 55.3335 54.8195C55.036 54.9867 54.7113 55.1092 54.3768 55.1637C54.0443 55.2162 53.6982 55.2084 53.3812 55.0917C53.0643 54.9809 52.7804 54.7922 52.5373 54.5608C52.3001 54.3197 52.1095 54.0378 51.9501 53.7383C51.6487 53.1297 51.4873 52.453 51.4309 51.7743C51.322 50.4132 51.6 49.0151 52.2203 47.7958C52.374 47.4886 52.5626 47.2028 52.7648 46.9266C52.8776 46.7983 52.9768 46.6563 53.1012 46.5397C53.1615 46.4794 53.2198 46.4172 53.2821 46.3588L53.4785 46.1935C53.7468 45.9835 54.0385 45.791 54.3671 45.6899C54.6918 45.583 55.0399 45.5421 55.3841 45.5907C55.0438 45.5246 54.688 45.548 54.3535 45.6471C54.0151 45.7385 53.7099 45.9233 53.4279 46.1274L53.2218 46.2908C53.1576 46.3491 53.0954 46.4113 53.0332 46.4716C52.9029 46.5883 52.7979 46.7302 52.6793 46.8586C52.4654 47.1347 52.267 47.4244 52.1037 47.7336C51.7673 48.3481 51.5417 49.017 51.3998 49.7015C51.2597 50.3859 51.2053 51.0899 51.2597 51.7879C51.3239 52.4841 51.4931 53.1783 51.812 53.8083C51.9812 54.1175 52.1815 54.4131 52.4342 54.6639C52.6909 54.9089 53.0001 55.1053 53.3404 55.2142C53.6807 55.3309 54.0482 55.3289 54.3943 55.2667C54.7424 55.2025 55.073 55.0684 55.3724 54.8895C55.9713 54.5258 56.4614 54.0028 56.8114 53.4058L56.8133 53.4077Z" fill="#D0D0D0"/>
<path d="M38.5036 43.477C38.5036 43.477 34.636 42.5242 30.3036 41.9136C30.3036 41.9136 27.4198 48.6475 28.1568 49.9873C26.5487 52.2819 24.2114 53.1277 24.2114 53.1277L27.8963 52.9897L26.7781 55.6556C29.8699 54.7086 31.9273 52.838 33.1795 51.2863C34.8246 51.4554 36.2363 51.5157 36.2363 51.5157C36.2363 51.5157 35.3749 47.2008 38.5036 43.477Z" fill="#E64F12"/>
</g>
</g>
</svg>
