<svg width="56" height="56" viewBox="0 0 56 56" fill="none" xmlns="http://www.w3.org/2000/svg">
<g clip-path="url(#clip0_4450_47753)">
<path d="M47.5986 27.9984C47.5986 33.2341 45.5602 38.156 41.8589 41.8581C38.1562 45.5601 33.2349 47.5991 27.9992 47.5991C22.7636 47.5991 17.8416 45.5601 14.1396 41.8581C10.4383 38.1554 8.3999 33.2341 8.3999 27.9984C8.3999 22.7628 10.4383 17.8415 14.1403 14.1395C17.8423 10.4375 22.7636 8.39844 27.9999 8.39844C33.2362 8.39844 38.1568 10.4375 41.8595 14.1395C45.5609 17.8415 47.5992 22.7635 47.5992 27.9984H47.5986Z" fill="#FFF8EC"/>
<path d="M36.92 30.5846L35.0338 32.4359L32.6616 34.7645L30.2888 37.0924L28.8517 38.5034C28.5943 38.7561 28.2598 38.8814 27.9253 38.8814C27.5909 38.8814 27.2483 38.7528 26.9896 38.4947L19.0795 30.5846C16.6584 28.1635 16.6584 24.2376 19.0795 21.8158C20.347 20.5483 22.0261 19.9444 23.6864 20.004C24.411 20.0295 25.1322 20.1823 25.8139 20.4605C26.4782 20.732 27.1049 21.1247 27.6612 21.6369C27.7631 21.7629 27.863 21.8869 27.9649 22.0122C27.9729 22.0256 27.9863 22.0323 27.9997 22.0323C28.0131 22.0323 28.0265 22.0256 28.0346 22.0122L28.0359 22.0102C28.1385 21.8842 28.239 21.7602 28.3416 21.6342C28.9428 21.0812 29.6265 20.6676 30.3511 20.3955C30.9839 20.1575 31.6475 20.0268 32.3144 20.0027H32.7608C33.4854 20.0282 34.2066 20.181 34.8883 20.4592C34.9433 20.4819 34.9982 20.5054 35.0525 20.5295C35.7302 20.8298 36.3656 21.2581 36.9213 21.8138C39.3424 24.2349 39.3424 28.1608 36.9213 30.5819L36.92 30.5846Z" fill="#F24E38"/>
<path d="M27.9999 11.5659C23.6109 11.5659 19.4832 13.2751 16.3791 16.3793C13.2756 19.4834 11.5664 23.6104 11.5664 27.9994C11.5664 32.3885 13.2756 36.5162 16.3791 39.6196C19.4832 42.7231 23.6102 44.433 27.9999 44.433C32.3897 44.433 36.5166 42.7231 39.6201 39.6196C42.7235 36.5162 44.4328 32.3892 44.4328 27.9994C44.4328 23.6097 42.7235 19.4834 39.6201 16.3793C36.516 13.2751 32.389 11.5659 27.9999 11.5659ZM27.9999 45.9787C23.1973 45.9787 18.6815 44.1086 15.2858 40.7129C11.8908 37.3172 10.02 32.8021 10.02 27.9994C10.02 23.1968 11.8901 18.6824 15.2858 15.286C18.6822 11.8896 23.198 10.0195 27.9999 10.0195C32.8019 10.0195 37.317 11.8896 40.7133 15.286C44.109 18.6824 45.9792 23.1975 45.9792 27.9994C45.9792 32.8014 44.1097 37.3172 40.7133 40.7129C37.3176 44.1086 32.8019 45.9787 27.9999 45.9787Z" fill="#F24E38"/>
</g>
<defs>
<clipPath id="clip0_4450_47753">
<rect width="39.1987" height="39.2" fill="white" transform="translate(8.3999 8.39844)"/>
</clipPath>
</defs>
</svg>
