<svg width="56" height="56" viewBox="0 0 56 56" fill="none" xmlns="http://www.w3.org/2000/svg">
<g clip-path="url(#clip0_4450_47756)">
<path d="M25.2904 11.1992C22.3616 11.1992 19.6077 12.3401 17.5365 14.4113C15.4646 16.4832 14.3237 19.2378 14.3237 22.1681C14.3237 25.0984 15.4646 27.853 17.5365 29.9249L29.8627 42.2518C30.4989 42.888 31.3457 43.238 32.2455 43.238C33.1453 43.238 33.9703 42.896 34.6042 42.2743L36.8446 40.0753L40.5419 36.4471L44.2391 32.8182L47.1788 29.9329L47.1832 29.9285L47.1875 29.9242C49.2594 27.8522 50.4003 25.0977 50.4003 22.1681C50.4003 19.2385 49.2594 16.4832 47.1875 14.412C46.2282 13.4527 45.1171 12.6887 43.8847 12.1419C43.7932 12.1005 43.698 12.0598 43.5949 12.0169H43.592L43.5898 12.0148C42.3901 11.5238 41.1236 11.2522 39.8258 11.2065H39.8033L39.78 11.2058H39.0386C37.8476 11.2486 36.6791 11.4824 35.565 11.9008C34.3936 12.3408 33.3181 12.9719 32.3617 13.7809C31.4858 13.0409 30.5083 12.4476 29.4495 12.014C28.2491 11.5238 26.9833 11.2522 25.6855 11.2065C25.5548 11.2014 25.4219 11.1992 25.2904 11.1992ZM25.2904 12.5064C25.4066 12.5064 25.5228 12.5086 25.639 12.513C26.7683 12.5529 27.8925 12.7904 28.9542 13.2247C29.9906 13.648 30.9666 14.2595 31.8337 15.0584C31.992 15.2537 32.1482 15.4476 32.3072 15.6437C32.3195 15.664 32.3406 15.6742 32.3617 15.6742C32.3827 15.6742 32.4031 15.664 32.4161 15.6437L32.4176 15.6408C32.5766 15.4447 32.7342 15.2515 32.8933 15.0547C33.8301 14.1927 34.8955 13.5493 36.0247 13.1244C37.0117 12.7533 38.0458 12.5493 39.0843 12.513H39.78C40.9093 12.5529 42.0328 12.7904 43.0953 13.2247C43.1809 13.2602 43.2666 13.2966 43.3509 13.335C44.4075 13.8027 45.3974 14.4701 46.263 15.3365C50.0365 19.1092 50.0365 25.227 46.263 29.0004L43.3233 31.8857L39.6268 35.5146L35.9289 39.1428L33.6892 41.3411C33.2883 41.7347 32.7662 41.9315 32.2455 41.9315C31.7248 41.9315 31.1895 41.7304 30.7872 41.3281L18.4603 29.0011C14.6876 25.2284 14.6876 19.11 18.4603 15.3365C20.347 13.4498 22.8184 12.5071 25.2904 12.5071" fill="#FFF8EC"/>
<path d="M46.2627 29.0008L43.3229 31.8861L39.6264 35.515L35.9285 39.1432L33.6888 41.3415C33.2879 41.7351 32.7658 41.9319 32.2451 41.9319C31.7244 41.9319 31.1892 41.7308 30.7868 41.3285L18.4599 29.0015C14.6872 25.2288 14.6872 19.1104 18.4599 15.3369C20.4352 13.3616 23.0511 12.4211 25.6386 12.5141C26.7679 12.554 27.8921 12.7915 28.9538 13.2258C29.9902 13.6492 30.9662 14.2607 31.8333 15.0595C31.9916 15.2549 32.1478 15.4488 32.3068 15.6448C32.3192 15.6652 32.3402 15.6753 32.3613 15.6753C32.3823 15.6753 32.4027 15.6652 32.4158 15.6448L32.4172 15.6419C32.5762 15.4458 32.7338 15.2527 32.8929 15.0559C33.8297 14.1938 34.8951 13.5504 36.0244 13.1256C37.0113 12.7545 38.0454 12.5504 39.0839 12.5141H39.7797C40.9089 12.554 42.0324 12.7915 43.0949 13.2258C43.1806 13.2614 43.2663 13.2977 43.3505 13.3362C44.4072 13.8039 45.397 14.4713 46.2627 15.3376C50.0361 19.1104 50.0361 25.2281 46.2627 29.0015V29.0008Z" fill="#F24E38"/>
<path d="M21.6199 23.6765C21.3388 23.6765 21.0549 23.6925 20.7753 23.7252L20.7528 23.7281L20.7303 23.7317L20.3025 23.7963L20.2793 23.8L20.2568 23.8043C19.4754 23.951 18.7281 24.2226 18.0353 24.6097C17.4252 24.951 16.8726 25.3737 16.3867 25.8719C15.8355 25.5741 15.2509 25.3497 14.6409 25.2016C14.0788 25.0658 13.5007 24.9968 12.9212 24.9968C12.6401 24.9968 12.3562 25.0135 12.0773 25.0454C11.0897 25.1595 10.1528 25.4659 9.29152 25.9554C8.39899 26.463 7.63573 27.1428 7.0228 27.975C4.62989 31.2249 5.32707 35.8153 8.57619 38.2082L17.3098 44.6397C17.7578 44.9701 18.2887 45.1444 18.8443 45.1444C18.9743 45.1444 19.1057 45.1342 19.2342 45.1153C19.9089 45.013 20.5059 44.6557 20.9162 44.1103L22.089 42.5481L24.0244 39.9715L25.9598 37.3941L27.4987 35.3447L27.5023 35.3397L27.5059 35.3346C29.8988 32.0854 29.2024 27.495 25.9525 25.1021C25.2241 24.5654 24.4151 24.1725 23.5473 23.935C23.4827 23.9169 23.4166 23.8995 23.3447 23.882H23.3418L23.3389 23.8806C22.7775 23.7448 22.1987 23.6758 21.6199 23.6758V23.6765ZM21.6199 24.9837C22.0919 24.9837 22.5662 25.0396 23.0317 25.1515C23.0876 25.1653 23.1435 25.1798 23.1994 25.195C23.893 25.3846 24.564 25.7019 25.1777 26.1544C27.8509 28.1224 28.4217 31.8857 26.4536 34.559L24.914 36.6084L22.9794 39.1857L21.0433 41.7624L19.8711 43.3238C19.6613 43.6034 19.3584 43.7733 19.0382 43.8219C18.9743 43.8314 18.9096 43.8365 18.8443 43.8365C18.5799 43.8365 18.3141 43.7551 18.0846 43.5867L9.3518 37.1552C6.67857 35.1864 6.10703 31.4231 8.07582 28.7499C9.10633 27.3505 10.6278 26.5277 12.2276 26.3432C12.4579 26.3163 12.6895 26.3033 12.9212 26.3033C13.394 26.3033 13.8682 26.3592 14.3337 26.4717C15.0105 26.6359 15.6678 26.9205 16.2756 27.3309C16.3911 27.4362 16.5058 27.5407 16.6213 27.6468C16.6293 27.6562 16.6409 27.6613 16.6518 27.6613C16.654 27.6613 16.6562 27.6613 16.6583 27.6613C16.6707 27.6591 16.6823 27.6511 16.6888 27.6373V27.6359C16.7687 27.5001 16.8479 27.3664 16.9278 27.2314C17.423 26.6134 18.0185 26.1181 18.6736 25.7521C19.2459 25.4318 19.8624 25.2096 20.4986 25.0905L20.9263 25.0258C21.1558 24.999 21.3875 24.9859 21.6199 24.9859" fill="#FFF8EC"/>
<path d="M26.4534 34.5589L24.9138 36.6083L22.9791 39.1857L21.043 41.7623L19.8709 43.3237C19.661 43.6033 19.3582 43.7733 19.0379 43.8219C18.7126 43.8713 18.3698 43.7965 18.0844 43.5866L9.35155 37.1552C6.67832 35.1864 6.10678 31.4231 8.07558 28.7499C9.10609 27.3504 10.6275 26.5276 12.2274 26.3432C12.926 26.2626 13.6392 26.3032 14.3334 26.471C15.0103 26.6351 15.6675 26.9198 16.2754 27.3301C16.3908 27.4354 16.5056 27.54 16.621 27.646C16.6305 27.6576 16.645 27.662 16.6581 27.6598C16.6704 27.6576 16.6821 27.6496 16.6886 27.6358V27.6344C16.7685 27.4986 16.8476 27.365 16.9275 27.2299C17.4228 26.6119 18.0183 26.1166 18.6734 25.7506C19.2456 25.4303 19.8622 25.2081 20.4984 25.089L20.9261 25.0243C21.624 24.9437 22.3379 24.9844 23.0314 25.1522C23.0873 25.166 23.1433 25.1805 23.1992 25.1957C23.8927 25.3853 24.5638 25.7026 25.1774 26.1551C27.8506 28.1231 28.4215 31.8864 26.4534 34.5597V34.5589Z" fill="#646ADB"/>
</g>
<defs>
<clipPath id="clip0_4450_47756">
<rect width="44.8" height="33.9459" fill="white" transform="translate(5.6001 11.1992)"/>
</clipPath>
</defs>
</svg>
