<svg width="56" height="56" viewBox="0 0 56 56" fill="none" xmlns="http://www.w3.org/2000/svg">
<g clip-path="url(#clip0_4450_47757)">
<path d="M10.2994 30.1119C9.33563 30.1119 8.4347 29.7422 7.76289 29.0697C7.09108 28.3986 6.7207 27.497 6.7207 26.5339V15.5599C6.7207 14.5961 7.09108 13.6951 7.76221 13.0233C8.4347 12.3508 9.33563 11.9805 10.2994 11.9805H12.8711C13.8349 11.9805 14.7358 12.3508 15.4076 13.0227C16.0794 13.6945 16.4491 14.5954 16.4491 15.5592V26.5339C16.4491 27.4977 16.0794 28.3986 15.4069 29.0704C14.7351 29.7416 13.8342 30.1119 12.8711 30.1119H10.2994Z" fill="#FFF8EC"/>
<path d="M35.2265 43.9994C33.5538 43.9994 32.1419 43.6317 31.0078 42.9038C29.8656 43.6202 28.48 43.9825 26.8728 43.9825C25.2656 43.9825 23.8841 43.6067 22.7392 42.895C22.0701 43.5546 21.178 43.9169 20.2236 43.9169H17.6844C16.7206 43.9169 15.8197 43.5472 15.1479 42.8747C14.4761 42.2029 14.1057 41.302 14.1057 40.3382V39.6279L13.369 40.472C12.7053 41.2324 11.7848 41.6947 10.7771 41.7717C10.6777 41.7798 10.579 41.7832 10.4824 41.7832C9.56862 41.7832 8.68256 41.4554 7.98845 40.8613L4.78282 38.1146C3.63249 37.1278 2.93432 35.7531 2.8174 34.2426C2.70115 32.7307 3.18034 31.2654 4.16643 30.1151C5.18766 28.9235 6.67254 28.203 8.24122 28.1375C8.323 28.1341 8.39937 28.1334 8.47507 28.1334C8.91101 28.1334 9.34356 28.1834 9.76598 28.2814C10.2377 28.0908 10.7372 27.9644 11.2495 27.9056L11.3353 27.8975L11.6091 27.8759L11.6672 27.8746C11.7571 27.8712 11.8368 27.8705 11.8909 27.8705C12.0484 27.8705 12.2052 27.8766 12.3613 27.8901C12.5384 27.4819 12.7945 27.1088 13.1237 26.7891C13.4812 26.4404 13.903 26.1768 14.3646 26.0071C14.2652 25.5766 14.2071 25.0981 14.2071 24.5682V15.5596C14.2071 14.5958 14.5768 13.6956 15.2486 13.0238C15.9197 12.3513 16.8213 11.9809 17.7851 11.9809H20.4217C21.3855 11.9809 22.2864 12.3513 22.9589 13.0231C23.0319 13.0961 23.1015 13.1718 23.167 13.2502C23.4705 13.0089 23.7922 12.798 24.1302 12.6176C25.2406 12.0228 26.2983 11.8984 26.9897 11.8984C27.6812 11.8984 28.5713 12.0127 29.5276 12.4621C30.0663 12.1505 30.6894 11.9802 31.3464 11.9802H33.6396C34.1174 11.9802 34.5797 12.0708 35.0075 12.2425C35.4347 12.0708 35.8977 11.9802 36.3748 11.9802H38.668C38.8715 11.9802 39.0729 11.9971 39.2716 12.0296C39.4764 11.9964 39.6852 11.9802 39.8968 11.9802H44.0898C45.0685 11.9802 45.9883 12.3371 46.6804 12.9846C47.4022 13.6604 47.7997 14.5749 47.7997 15.5589V16.7545C47.7997 17.3081 47.6685 17.8515 47.4225 18.3394C47.4225 18.3678 47.4239 18.3962 47.4239 18.4253V19.1512C47.7436 19.6905 47.9146 20.3096 47.9146 20.9483V26.5336C47.9146 27.0149 47.8199 27.4799 47.6388 27.909C47.7402 27.9151 47.8416 27.9246 47.9423 27.9361L48.0038 27.9435L48.3045 27.9888L48.3654 28.0003C49.0493 28.1287 49.7049 28.3767 50.3085 28.737C50.3625 28.7701 50.4051 28.7958 50.447 28.8228L50.4639 28.8336C51.0763 29.2263 51.6075 29.7237 52.0414 30.3124C52.9829 31.5911 53.3695 33.1578 53.1316 34.7258C52.8943 36.2931 52.0603 37.6746 50.7829 38.6154L46.9075 41.4135C46.2391 41.8954 45.4524 42.1502 44.6312 42.1502C44.4332 42.1502 44.2358 42.1347 44.0432 42.1049C43.026 41.9501 42.1298 41.4115 41.5141 40.5869C41.3796 40.8532 41.2221 41.1175 41.0363 41.3757C40.1766 42.5733 38.4707 43.9994 35.2272 43.9994H35.2265Z" fill="#FFF8EC"/>
<path d="M51.4831 34.4763C51.3127 35.6037 50.7126 36.5979 49.7934 37.2738L45.9308 40.0631C45.5496 40.3381 45.0995 40.4834 44.6305 40.4834C44.5196 40.4834 44.4067 40.4753 44.2966 40.4578C43.7093 40.3692 43.1929 40.0563 42.8408 39.5785L40.628 36.5742V36.8831C40.628 37.8293 40.5293 39.2243 39.6824 40.4044C38.7633 41.6838 37.2642 42.3333 35.2271 42.3333C33.3813 42.3333 31.9708 41.8014 31.0293 40.7518C31.0077 40.7747 30.9854 40.7977 30.9638 40.8193C29.9723 41.8129 28.5976 42.3164 26.8734 42.3164C24.7154 42.3164 23.0676 41.4783 22.1356 40.0056V40.3381C22.1356 41.4101 21.2962 42.2508 20.2243 42.2508H17.685C16.6131 42.2508 15.7723 41.4101 15.7723 40.3381V35.0718L15.6838 34.8346C15.5216 35.311 15.2688 35.7564 14.9309 36.1505L12.1139 39.3757C11.7388 39.8056 11.2184 40.0671 10.6493 40.111C10.5932 40.1151 10.5371 40.1171 10.4823 40.1171C9.96597 40.1171 9.46516 39.9319 9.07248 39.596L5.86685 36.8493C5.05445 36.1525 4.56175 35.1813 4.47929 34.1141C4.39751 33.0476 4.73545 32.0128 5.43226 31.1998C6.15409 30.3583 7.20303 29.8494 8.31078 29.8034C8.36552 29.8014 8.42094 29.8007 8.47569 29.8007C8.89337 29.8007 9.30633 29.8649 9.70306 29.992C9.77132 30.0143 9.83756 30.0366 9.90379 30.0629C9.99841 30.0089 10.0951 29.9589 10.1951 29.9129C10.5878 29.7297 11.0061 29.6121 11.4394 29.5621L11.4691 29.5594L11.6955 29.5412H11.7253C11.7807 29.5378 11.8361 29.5371 11.8915 29.5371C12.3092 29.5371 12.7215 29.602 13.1182 29.7297C13.1581 29.7426 13.1959 29.7554 13.2338 29.7683C13.4663 29.8514 13.6886 29.9548 13.9009 30.0785L13.8542 29.9535L13.8441 29.9244C13.7535 29.6513 13.742 29.4276 13.742 29.2837C13.742 28.2577 14.5679 27.4534 15.6216 27.4534H17.02C17.0058 27.4399 16.993 27.4271 16.9801 27.4149C16.4752 26.929 15.8737 26.0409 15.8737 24.5688V15.5602C15.8737 14.4883 16.7138 13.6482 17.7851 13.6482H20.4223C21.4949 13.6482 22.335 14.4883 22.335 15.5602V17.1357C22.4195 16.9403 22.5094 16.7511 22.604 16.5693C23.9706 13.9564 25.9387 13.5664 26.9904 13.5664C27.6642 13.5664 28.7111 13.7273 29.7182 14.5363C30.0466 13.9996 30.6468 13.6482 31.3463 13.6482H33.6395C34.1735 13.6482 34.6547 13.8503 35.0075 14.195C35.3596 13.8509 35.8415 13.6482 36.3748 13.6482H38.668C38.8748 13.6482 39.0755 13.6793 39.2641 13.7388C39.4621 13.68 39.6743 13.6482 39.896 13.6482H44.0891C45.2347 13.6482 46.1322 14.4883 46.1322 15.5602V16.7558C46.1322 17.212 45.97 17.6263 45.6943 17.9514C45.7341 18.1028 45.7558 18.2616 45.7558 18.4259V19.6215C45.7558 19.6431 45.7544 19.6647 45.7544 19.6864C46.0626 20.0209 46.2471 20.4609 46.2471 20.9489V26.5342C46.2471 27.6062 45.3563 28.4456 44.2195 28.4456H41.7803C41.1707 28.4456 40.6604 28.3456 40.2373 28.1948C40.4833 28.5159 40.6273 28.9201 40.6273 29.3648V30.0954C40.7327 30.0008 40.8436 29.9095 40.9605 29.823C41.6992 29.2789 42.5745 28.9917 43.4903 28.9917C43.7559 28.9917 44.0235 29.0167 44.2844 29.066C44.7812 29.16 45.2516 29.3384 45.6855 29.5979C45.7761 29.652 45.8646 29.7088 45.9504 29.7689C46.089 29.7243 46.2309 29.6872 46.3742 29.6567C46.6635 29.5959 46.9615 29.5642 47.2589 29.5642C47.4218 29.5642 47.5881 29.5736 47.7503 29.5925L47.7793 29.5959L48.0233 29.6324L48.0524 29.6378C48.5491 29.7304 49.0209 29.9102 49.4534 30.1684C49.4933 30.1927 49.5291 30.215 49.5643 30.2373C50.0049 30.5198 50.3868 30.878 50.6997 31.3018C51.3756 32.2203 51.6547 33.3477 51.4831 34.4757V34.4763Z" fill="#FEDB96"/>
<path d="M27.8739 19.1613C27.8739 17.9001 27.4812 16.9505 26.9899 16.9505C26.3674 16.9505 25.9578 17.8677 25.9578 19.1613C25.9578 19.8331 26.3674 20.2751 26.9899 20.2751C27.4974 20.2751 27.8739 19.8331 27.8739 19.1613ZM22.9766 22.9124C22.9766 18.2928 24.5817 15.2305 26.9899 15.2305C29.398 15.2305 30.822 18.1793 30.822 22.9124C30.822 25.4671 29.446 26.8432 26.9074 26.8432C24.3688 26.8432 22.9766 25.4347 22.9766 22.9124Z" fill="#F24E38"/>
<path d="M33.1477 26.565L31.1167 15.5578V15.493C31.1167 15.3781 31.1985 15.3125 31.3465 15.3125H33.6397C33.787 15.3125 33.8857 15.3943 33.9182 15.5261L34.8847 20.8979C34.9015 21.0128 34.9664 21.0776 35.032 21.0776C35.0813 21.0776 35.1469 21.0128 35.1631 20.8979L36.0972 15.5261C36.1296 15.3943 36.2283 15.3125 36.3749 15.3125H38.6681C38.8317 15.3125 38.9304 15.4112 38.8973 15.5585L36.6203 26.5657C36.5872 26.6968 36.4892 26.7786 36.3418 26.7786H33.4268C33.2795 26.7786 33.1808 26.6968 33.1484 26.5657L33.1477 26.565Z" fill="#F24E38"/>
<path d="M44.2204 26.7779H41.7798C40.3544 26.7779 39.519 26.0081 39.519 24.5671V15.5585C39.519 15.4112 39.6664 15.3125 39.8955 15.3125H44.0892C44.3184 15.3125 44.4657 15.4112 44.4657 15.5585V16.7541C44.4657 16.9015 44.3184 17.0001 44.0892 17.0001H43.0085C42.795 17.0001 42.6483 17.0988 42.6483 17.2462V17.9342C42.6483 18.0815 42.7956 18.1802 43.0085 18.1802H43.729C43.9419 18.1802 44.0892 18.2782 44.0892 18.4262V19.6211C44.0892 19.7685 43.9419 19.8672 43.729 19.8672H43.0085C42.795 19.8672 42.6483 19.9327 42.6483 19.9489V20.4572C42.6483 20.6045 42.7956 20.7025 43.0085 20.7025H44.2204C44.4333 20.7025 44.5806 20.8012 44.5806 20.9485V26.5339C44.5806 26.6812 44.4333 26.7799 44.2204 26.7799V26.7779Z" fill="#F24E38"/>
<path d="M13.6649 35.0657L13.0086 35.8173L12.1834 36.7622L11.3582 37.707L10.8587 38.2795C10.7688 38.3822 10.6471 38.439 10.5214 38.4491C10.3937 38.4593 10.2626 38.4201 10.1578 38.3308L6.95219 35.5834C5.97083 34.7427 5.85728 33.2652 6.69738 32.2839C7.13737 31.7702 7.75241 31.4938 8.37894 31.4681C8.65199 31.4566 8.92842 31.4931 9.19268 31.5783C9.45019 31.6614 9.69755 31.7905 9.92194 31.9676C9.96384 32.0122 10.0051 32.0554 10.047 32.1C10.0504 32.1048 10.0551 32.1068 10.0605 32.1068C10.0659 32.1068 10.0706 32.1034 10.0733 32.098C10.1085 32.0466 10.1423 31.9973 10.1774 31.9473C10.3876 31.7215 10.633 31.5458 10.8979 31.4228C11.129 31.3147 11.3751 31.2464 11.6251 31.218L11.7934 31.2052C12.0671 31.1937 12.3429 31.2302 12.6072 31.3154C12.6288 31.3221 12.6497 31.3295 12.6714 31.337C12.935 31.4302 13.1864 31.5729 13.4114 31.7662C14.3928 32.6069 14.5063 34.0844 13.6656 35.0657H13.6649Z" fill="#F24E38"/>
<path d="M48.806 35.9323L47.9057 36.5825L46.7737 37.4003L45.6416 38.2181L44.9563 38.7135C44.8332 38.802 44.6866 38.8338 44.5474 38.8122C44.4068 38.7905 44.2743 38.7162 44.1831 38.5925L41.3965 34.809C40.5435 33.6506 40.7916 32.0204 41.9493 31.1674C42.5549 30.7207 43.2909 30.5761 43.9762 30.7058C44.2757 30.7619 44.5656 30.8707 44.8312 31.0296C45.0901 31.1843 45.326 31.3871 45.524 31.6345C45.5584 31.6926 45.5922 31.7507 45.6267 31.8095C45.6287 31.8156 45.6341 31.8196 45.6396 31.8203C45.645 31.8203 45.651 31.819 45.6551 31.8142C45.7058 31.7676 45.7551 31.7223 45.8058 31.6764C46.0904 31.4851 46.4006 31.356 46.7182 31.2884C46.996 31.2296 47.2799 31.2168 47.559 31.2492L47.7442 31.2776C48.0429 31.3337 48.3329 31.4432 48.5985 31.6013C48.6201 31.6142 48.6411 31.6277 48.662 31.6412C48.9243 31.8088 49.1615 32.0265 49.3575 32.2921C50.2104 33.4505 49.9624 35.0807 48.8046 35.933L48.806 35.9323Z" fill="#F24E38"/>
<path d="M8.38721 26.5352V15.5605C8.38721 14.4885 9.22663 13.6484 10.2992 13.6484H12.8709C13.9428 13.6484 14.7829 14.4885 14.7829 15.5605V26.5352C14.7829 27.6071 13.9428 28.4465 12.8709 28.4465H10.2992C9.22663 28.4465 8.38721 27.6071 8.38721 26.5352Z" fill="#FEDB96"/>
<path d="M10.0537 26.5325V15.5585C10.0537 15.4112 10.1517 15.3125 10.2997 15.3125H12.8714C13.0187 15.3125 13.1174 15.4112 13.1174 15.5585V26.5325C13.1174 26.6799 13.0187 26.7786 12.8714 26.7786H10.2997C10.1524 26.7786 10.0537 26.6806 10.0537 26.5325Z" fill="#F24E38"/>
<path d="M17.5386 24.5671V15.5585C17.5386 15.4112 17.6373 15.3125 17.7846 15.3125H20.4218C20.5692 15.3125 20.6678 15.4112 20.6678 15.5585V20.4565C20.6678 20.6039 20.7658 20.7019 20.9139 20.7019H22.1588C22.3061 20.7019 22.4041 20.8005 22.4041 20.9479V26.5332C22.4041 26.6806 22.3061 26.7792 22.1588 26.7792H19.8C18.3746 26.7792 17.5392 26.0094 17.5392 24.5685L17.5386 24.5671Z" fill="#F24E38"/>
<path d="M17.4384 40.3366V34.9317C17.4384 34.8168 17.4384 34.7512 17.3891 34.637L15.4236 29.3956C15.4067 29.3463 15.4067 29.3139 15.4067 29.2807C15.4067 29.1827 15.4885 29.1172 15.6196 29.1172H18.0602C18.1913 29.1172 18.29 29.1665 18.3386 29.3132L19.1909 31.8517C19.2403 31.9666 19.3051 32.0153 19.3869 32.0153C19.4687 32.0153 19.5505 31.966 19.5836 31.8517L20.4514 29.3132C20.5007 29.1659 20.5987 29.1172 20.7299 29.1172H22.4662C22.6459 29.1172 22.7284 29.2152 22.6622 29.395L20.5332 34.7019C20.5001 34.8005 20.4676 34.8985 20.4676 35.0134V40.3366C20.4676 40.4839 20.3696 40.5826 20.2216 40.5826H17.6831C17.5357 40.5826 17.437 40.4846 17.437 40.3366H17.4384Z" fill="#F24E38"/>
<path d="M27.8392 32.966C27.8392 31.7048 27.4465 30.7552 26.9552 30.7552C26.3327 30.7552 25.9231 31.6724 25.9231 32.966C25.9231 33.6378 26.3327 34.0798 26.9552 34.0798C27.4628 34.0798 27.8392 33.6378 27.8392 32.966ZM22.9419 36.717C22.9419 32.0975 24.5471 29.0352 26.9552 29.0352C29.3633 29.0352 30.788 31.984 30.788 36.717C30.788 39.2725 29.412 40.6479 26.8734 40.6479C24.3349 40.6479 22.9426 39.2394 22.9426 36.717H22.9419Z" fill="#F24E38"/>
<path d="M31.4429 36.8809V29.3625C31.4429 29.2152 31.5409 29.1172 31.6889 29.1172H34.3261C34.4735 29.1172 34.5715 29.2152 34.5715 29.3625V33.3758C34.5715 34.2281 34.5715 34.6532 35.2108 34.6532C35.8502 34.6532 35.8495 34.2274 35.8495 33.3758V29.3625C35.8495 29.2152 35.9482 29.1172 36.0955 29.1172H38.7159C38.8632 29.1172 38.9619 29.2152 38.9619 29.3625V36.8809C38.9619 38.6334 38.5199 40.6644 35.2277 40.6644C31.9356 40.6644 31.4442 38.6334 31.4442 36.8809H31.4429Z" fill="#F24E38"/>
</g>
<defs>
<clipPath id="clip0_4450_47757">
<rect width="50.4" height="32.1009" fill="white" transform="translate(2.7998 11.8984)"/>
</clipPath>
</defs>
</svg>
