<svg width="56" height="56" viewBox="0 0 56 56" fill="none" xmlns="http://www.w3.org/2000/svg">
<g clip-path="url(#clip0_4450_47743)">
<path d="M46.0974 24.9364C46.0763 24.9406 44.4848 25.3099 42.7283 25.5528C42.9031 25.5212 43.0744 25.4833 43.2394 25.4384C44.4967 25.0986 45.2121 24.412 45.363 23.3976C45.6881 21.2164 45.9022 18.2468 45.9043 18.2166C45.9134 18.0797 45.8481 17.9484 45.7337 17.8747C45.6186 17.7996 45.4726 17.7926 45.3518 17.8579C45.3371 17.8656 43.9063 18.628 42.6455 19.1917C41.9779 19.4908 41.1235 19.7969 40.4151 19.9899C39.8725 20.1381 39.4983 20.1984 39.2575 20.2139C39.6878 19.8432 40.6012 19.2725 41.0898 19.052C41.2871 18.9622 41.6388 18.8414 42.0123 18.7136C42.7487 18.4602 43.582 18.1724 43.9927 17.8852C44.3633 17.6318 44.3662 16.9965 44.3402 15.803C44.3275 15.2463 44.3142 14.6714 44.3647 14.2136C44.4981 13.0188 45.5715 9.56619 46.5038 8.38187C46.607 8.252 46.6127 8.07017 46.5172 7.93468C46.4231 7.79919 46.2504 7.74092 46.0938 7.79146C44.4967 8.30465 42.0403 8.92103 38.5849 9.67431C37.4617 9.92002 36.4431 9.97337 35.6238 10.0162C34.7554 10.0618 34.1278 10.0955 33.7262 10.3314C33.2846 10.5912 32.9666 11.5508 32.7813 13.1845C32.6802 14.0774 32.6444 15.0294 32.6725 15.9245C32.1656 14.5752 32.1221 12.8384 32.5728 10.9337C32.6022 10.8081 32.565 10.6761 32.4752 10.5841C32.3846 10.4915 32.2533 10.4522 32.127 10.4802C30.6836 10.7919 28.1395 12.149 27.8327 12.4045C27.4494 12.7239 27.29 14.4643 27.2837 14.538C27.2423 14.9971 27.2212 15.5587 27.2633 16.1442C26.5816 14.9718 26.1794 13.5965 26.4763 12.5028C26.5114 12.3708 26.4728 12.229 26.3752 12.1349C26.277 12.0394 26.1352 12.005 26.0046 12.0444C24.6426 12.4522 23.0617 13.5481 22.9957 13.5951C22.9128 13.652 22.8567 13.7412 22.8398 13.8409C22.8139 13.989 22.3737 16.6763 22.844 19.5533C22.0922 18.0046 21.4632 16.067 21.6429 14.2873C21.6555 14.161 21.6036 14.036 21.5039 13.9567C21.4042 13.8774 21.2708 13.8528 21.15 13.8928C20.0338 14.2649 16.2829 17.8115 15.995 18.3633C15.7788 18.7768 15.9101 20.4055 16.2822 21.9184C16.391 22.3635 16.5342 22.864 16.7238 23.399C16.0814 22.414 15.7184 21.5175 15.6482 20.4603C15.6391 20.3325 15.5675 20.2195 15.4566 20.1563C15.3457 20.0945 15.2109 20.0924 15.0979 20.1521C14.0925 20.6786 13.2192 22.4934 12.8907 23.2487C12.2378 24.7497 11.8208 26.3271 11.7766 27.4693C11.7758 27.4883 11.7766 27.5087 11.7787 27.5276C11.8334 28.0008 12.5516 29.8162 13.8405 31.4758C13.0227 30.9521 12.3571 30.3912 11.8917 29.7018C11.8215 29.5986 11.7049 29.5368 11.58 29.5368H11.5779C11.4522 29.5368 11.335 29.6007 11.2662 29.706C10.2159 31.2996 10.2314 32.8862 10.5957 34.9284C10.8962 36.6105 12.089 40.3074 16.7546 40.3074H16.7701C16.5384 40.5159 16.2885 40.7412 16.0238 40.9799C14.0574 42.7553 11.3645 45.1858 9.6473 46.3399C9.17272 46.6593 9.02951 47.2827 9.32155 47.7573C9.46547 47.9918 9.68029 48.1462 9.94425 48.2059C10.0299 48.2248 10.1177 48.234 10.2054 48.234C10.7074 48.234 11.2241 47.9518 11.5119 47.7643C13.8749 46.2255 15.9438 44.2949 17.9446 42.4275C18.0983 42.2843 18.2542 42.1382 18.4093 41.9929C18.3833 42.1333 18.3623 42.2808 18.3468 42.4324C18.2092 43.8077 18.6515 44.9057 19.6266 45.6105C20.7 46.3862 22.2403 46.9015 23.9617 47.0616C25.6795 47.2216 27.3855 47.011 28.7664 46.4677C28.9054 46.4129 28.9994 46.2802 29.0051 46.1314C29.0093 45.9826 28.9264 45.8436 28.7923 45.7783C28.0994 45.4455 27.2584 44.6831 26.5409 43.7389C26.2531 43.3598 26.0088 42.9821 25.8214 42.6283C27.2893 44.0127 29.1532 45.6856 30.454 45.7116H30.4842C32.0926 45.7116 34.5469 43.2496 34.8235 42.9673C34.9084 42.8796 34.9456 42.7567 34.9246 42.6367C34.9021 42.5159 34.8228 42.4134 34.7118 42.3622C34.3285 42.186 33.2516 41.656 32.8739 41.3365C32.7216 41.2074 32.3116 40.8858 31.7956 40.4885C32.5475 40.7742 33.3548 40.9792 34.2085 41.0199L34.4303 41.0297C36.8713 41.1463 39.6373 41.2776 40.8588 38.3873C40.9115 38.263 40.8932 38.1205 40.8118 38.0131C40.731 37.9064 40.5977 37.851 40.4643 37.8685C39.4758 37.9963 34.1938 36.284 32.0006 35.0463C32.3327 35.1552 32.6605 35.2808 32.9406 35.424C34.0948 36.0102 39.0083 37.4838 41.1396 37.0534C41.3348 37.0191 41.8459 36.9144 43.0885 34.9095C43.7343 33.8662 44.4335 32.5345 44.913 31.4323C44.9755 31.2877 44.9425 31.1199 44.8288 31.0111C44.7158 30.9023 44.5466 30.8756 44.4041 30.9437C43.4493 31.4042 40.0992 31.3754 38.0486 31.1768C37.3143 31.1059 36.2205 30.8349 35.1941 30.4698C34.8782 30.3575 34.6044 30.2494 34.3749 30.149C34.4275 30.1602 34.4802 30.1701 34.5328 30.1813C36.7618 30.646 40.9094 31.5123 44.3072 30.1104C44.3198 30.1062 44.3318 30.0991 44.3444 30.0921C44.6133 29.9454 45.0591 29.5172 45.8271 27.5009C46.2314 26.4409 46.5298 25.4531 46.5417 25.4117C46.5811 25.2825 46.5488 25.1428 46.4568 25.0452C46.3648 24.9477 46.2279 24.9062 46.0974 24.9364Z" fill="#171936"/>
<path d="M25.3594 26.9612L34.7954 28.9248C36.8622 29.3552 40.6868 30.1534 43.7035 28.9697C43.8032 28.8511 44.1078 28.413 44.6301 27.0434C44.6996 26.8594 44.7656 26.6783 44.8288 26.5042C44.2651 26.6109 43.5975 26.7261 42.906 26.8215L42.496 24.2921C42.6427 24.2654 42.7803 24.2338 42.906 24.2001C43.9906 23.9067 44.0636 23.4167 44.0952 23.2075C44.2623 22.0898 44.3992 20.7567 44.4918 19.7352C44.0748 19.9416 43.6143 20.1621 43.1692 20.3608C42.4461 20.6844 41.5209 21.0164 40.7528 21.2257C40.1989 21.3759 39.7265 21.4657 39.3453 21.491L35.5101 21.7564L38.4193 19.2424C38.9648 18.7707 40.0003 18.1353 40.5619 17.8819C40.8139 17.7675 41.1762 17.6432 41.5953 17.4986C42.0214 17.3519 42.6813 17.1244 43.0534 16.9461C43.0773 16.6604 43.066 16.157 43.0576 15.8299C43.0443 15.2303 43.0309 14.6118 43.0899 14.0706C43.1917 13.1607 43.721 11.2288 44.3992 9.61268C42.9411 10.0002 41.1067 10.4341 38.8574 10.9248C37.6337 11.1929 36.5568 11.2484 35.6912 11.2947C35.2496 11.3172 34.7161 11.346 34.4676 11.4057C34.3826 11.584 34.1952 12.0937 34.0562 13.3257C33.9628 14.1485 33.927 15.0323 33.9544 15.8818L34.1966 23.6336L31.4734 16.3725C31.0185 15.1608 30.8781 13.7364 31.0529 12.1898C30.1522 12.5675 29.2038 13.0582 28.7882 13.3061C28.7032 13.5897 28.6042 14.1611 28.5607 14.6483C28.5172 15.1426 28.5101 15.6129 28.5424 16.0482L28.9447 21.5802L26.1555 16.786C25.7722 16.1261 25.2422 15.0246 25.1201 13.8073C24.6918 14.0327 24.305 14.2692 24.0502 14.4328C23.947 15.2451 23.7665 17.2423 24.1105 19.3435L25.3587 26.9605L25.3594 26.9612ZM20.3687 38.4155L19.6702 42.2226C19.6498 42.3357 19.633 42.4487 19.6218 42.5589C19.5298 43.4779 19.7762 44.1357 20.3771 44.5695C21.268 45.2126 22.5829 45.6443 24.0796 45.7833C24.9389 45.8641 25.7912 45.8402 26.5845 45.7209C26.218 45.3656 25.8572 44.9578 25.5188 44.5127C25.1924 44.0837 24.9137 43.652 24.6883 43.2294L21.0223 36.3424L26.6989 41.694C27.4318 42.3841 28.2118 43.0981 28.9559 43.6429C29.9514 44.3716 30.3895 44.4249 30.4744 44.427H30.4836C30.9553 44.427 31.9697 43.8036 32.9905 42.9254C32.6332 42.7281 32.2765 42.5084 32.0449 42.3125C31.988 42.2641 31.7711 42.0872 31.0115 41.5003L24.1864 36.2273L32.2499 39.2868C32.968 39.5606 33.6286 39.7073 34.2682 39.7361L34.4886 39.7473C36.5463 39.8449 38.0191 39.8315 38.9613 38.9526C38.2438 38.7925 37.3487 38.5356 36.2816 38.1839C34.2836 37.5247 32.4478 36.7686 31.3695 36.1613L32.3973 33.8257C32.8297 33.9668 33.2074 34.1191 33.5212 34.2785C34.542 34.7987 39.0385 36.1073 40.8146 35.8068C40.9354 35.7057 41.3088 35.3428 41.9968 34.2314C42.3184 33.7126 42.6532 33.1194 42.9649 32.5213C40.7753 32.7116 37.9623 32.4539 37.9244 32.4504C37.0819 32.3683 35.899 32.0783 34.7638 31.6747C34.4388 31.5595 34.1362 31.4402 33.8631 31.3215L25.4746 27.6745L25.5307 28.0164L25.3356 27.6127L22.4376 26.3533L24.9803 26.8819L21.6913 20.1108C21.1599 19.015 20.5772 17.5161 20.3912 15.9253C19.2265 16.871 17.6498 18.3438 17.1773 18.9118C17.1471 19.3154 17.2278 20.3909 17.5269 21.6104C17.6392 22.0688 17.7754 22.5258 17.9313 22.9674L21.5039 33.0745L15.6483 24.0941C15.2636 23.5037 14.9722 22.9456 14.7651 22.3882C14.5391 22.7582 14.3004 23.2152 14.0645 23.7565C13.5015 25.051 13.1217 26.4368 13.0613 27.4112C13.168 27.8079 13.7521 29.2702 14.8515 30.6848L19.4182 36.5636L13.1476 32.5501C12.6288 32.218 12.1873 31.8853 11.8089 31.5392C11.5828 32.3528 11.6088 33.3146 11.8559 34.6983C12.2083 36.6696 13.3435 39.0207 16.7533 39.0207H19.7144L20.368 38.4134L20.3687 38.4155ZM10.2061 49.5139C10.0208 49.5139 9.83898 49.4936 9.66418 49.4543C9.06324 49.3188 8.55427 48.9544 8.22993 48.4265C7.57634 47.3629 7.88523 45.9778 8.93196 45.2737C10.2497 44.387 12.2203 42.6677 13.9487 41.1205C12.7973 40.7028 11.8145 40.0063 11.0416 39.053C9.96886 37.7283 9.52096 36.1999 9.33352 35.1511C8.92494 32.8639 8.91511 30.9417 10.1949 28.9985C10.3325 28.7886 10.5129 28.6173 10.72 28.4917C10.6014 28.1533 10.5284 27.8718 10.5052 27.671C10.4954 27.5881 10.4919 27.5004 10.4954 27.4154C10.5466 26.1034 10.9917 24.3974 11.7148 22.7343C12.2961 21.3983 13.2508 19.6693 14.5019 19.0136C14.5391 18.9946 14.5763 18.9763 14.6142 18.9595C14.6296 18.4934 14.6998 18.0707 14.8585 17.7668C15.1877 17.1356 16.7477 15.6944 17.4033 15.1054C19.7285 13.0119 20.493 12.7578 20.7443 12.6735C21.1669 12.5331 21.6183 12.5682 22.0058 12.7613C22.0831 12.6791 22.1694 12.6054 22.2628 12.5408C22.4467 12.4131 24.1077 11.2737 25.636 10.8139C26.2131 10.6412 26.8386 10.7949 27.269 11.214L27.2837 11.2288C28.1367 10.691 30.4183 9.53546 31.856 9.22516C32.2169 9.14794 32.5812 9.19006 32.9027 9.33959C32.9589 9.29817 33.0172 9.25886 33.0776 9.22446C33.7466 8.82992 34.5448 8.7885 35.5557 8.73444C36.3286 8.69443 37.2904 8.64388 38.3112 8.42063C41.7258 7.67508 44.1429 7.06993 45.7007 6.56938C46.4 6.34403 47.1511 6.59887 47.5702 7.20261C47.9894 7.80425 47.9648 8.59755 47.5106 9.17391C46.8001 10.0746 45.7646 13.2197 45.6383 14.3535C45.5968 14.7256 45.6088 15.2577 45.62 15.7723C45.6256 16.0334 45.6312 16.289 45.6298 16.5347C45.9114 16.5515 46.1865 16.64 46.4308 16.798C46.9363 17.1272 47.2241 17.7043 47.182 18.3066C47.1799 18.3368 46.9637 21.345 46.6295 23.5852C46.6239 23.6224 46.6169 23.6617 46.6106 23.7003C46.904 23.7796 47.1764 23.9376 47.3905 24.1665C47.7942 24.5982 47.9395 25.2153 47.7696 25.7804C47.7563 25.8232 47.4446 26.8531 47.0241 27.956C46.5979 29.0764 46.2364 29.8073 45.9036 30.3008C46.2462 30.769 46.3241 31.3981 46.0876 31.9428C45.5856 33.0963 44.8527 34.4912 44.1766 35.5829C43.3216 36.9623 42.6961 37.6538 42.1513 38.0027C42.1941 38.2976 42.1569 38.6023 42.0383 38.8845C41.3397 40.5378 40.1287 41.6098 38.4382 42.0717C37.6983 42.2732 36.9289 42.3427 36.1735 42.3553C36.177 42.3708 36.1805 42.3876 36.1833 42.4038C36.2809 42.9317 36.1138 43.4772 35.7375 43.8626C35.5417 44.0634 34.8298 44.7724 33.9312 45.4618C32.5875 46.4917 31.4587 46.9929 30.4829 46.9929L30.4267 46.9915C30.3031 46.9894 30.1789 46.9789 30.0546 46.9599C29.8707 47.2716 29.585 47.5216 29.2339 47.6592C27.6705 48.2755 25.7554 48.5156 23.841 48.3373C21.8942 48.1555 20.1314 47.556 18.8755 46.6496C18.1749 46.1428 17.6666 45.4843 17.364 44.712C15.7662 46.1744 14.0898 47.6149 12.2104 48.8386C11.7359 49.1468 11.0029 49.5153 10.2047 49.5153L10.2061 49.5139Z" fill="#FFF9F3"/>
<path d="M35.1359 12.2182C35.0755 12.4723 35.0025 12.8605 34.9386 13.4271C34.8502 14.207 34.8165 15.0473 34.8424 15.8554L35.0039 21.0216L37.8394 18.5715C38.4593 18.0359 39.5797 17.3521 40.1975 17.0734C40.4875 16.9421 40.868 16.8108 41.3067 16.6599C41.544 16.5778 41.8803 16.4626 42.1801 16.3496C42.1787 16.1713 42.1744 15.9902 42.1709 15.8519C42.1576 15.2221 42.1428 14.5735 42.2088 13.9725C42.2826 13.307 42.5683 12.1276 42.9776 10.8906C41.8431 11.1672 40.5436 11.4656 39.0476 11.7927C37.7531 12.0749 36.6368 12.1332 35.7396 12.1803C35.5782 12.1894 35.3472 12.2013 35.1366 12.2175L35.1359 12.2182ZM26.1373 26.218L34.9758 28.0559C36.8868 28.4547 40.392 29.1869 43.1285 28.2378C43.1945 28.1226 43.2935 27.9352 43.4241 27.6439C43.2893 27.6642 43.1573 27.6839 43.0274 27.7021C42.5486 27.7695 42.1063 27.441 42.0291 26.965L41.6191 24.4342C41.5426 23.9582 41.8599 23.5075 42.3338 23.4197C42.4574 23.3973 42.5711 23.3713 42.6736 23.3432C43.0499 23.2421 43.1826 23.1347 43.2127 23.1045L43.217 23.0764C43.3054 22.4867 43.3847 21.831 43.4535 21.2062C42.7038 21.5369 41.7666 21.8697 40.9859 22.0824C40.3765 22.2481 39.8451 22.347 39.407 22.3779L35.5719 22.6426C35.3837 22.6552 35.2033 22.6082 35.0495 22.5162L35.0839 23.6065C35.0973 24.041 34.7947 24.4215 34.3693 24.5051C33.9438 24.5886 33.5184 24.3527 33.3661 23.9456L30.6415 16.6845C30.2919 15.7508 30.108 14.7223 30.0925 13.6124C29.8952 13.7121 29.7148 13.8062 29.5625 13.8883C29.5169 14.1284 29.4705 14.4373 29.4445 14.7279C29.4052 15.1751 29.3989 15.5977 29.4263 15.9853L29.8286 21.5172C29.8587 21.9293 29.6011 22.307 29.2052 22.4292C28.8106 22.5513 28.3838 22.3842 28.1767 22.0283L25.3882 17.2328C25.2008 16.9133 24.9958 16.5188 24.809 16.0709C24.7768 16.9526 24.7992 18.0647 24.986 19.2012L26.1359 26.218H26.1373ZM12.5579 33.2278C12.5839 33.609 12.6415 34.0414 12.7313 34.5455C13.1631 36.9619 14.4787 38.1364 16.7547 38.1364H19.3669L19.7636 37.7664C20.0121 37.5354 20.3673 37.4681 20.6783 37.5846L20.2704 36.8173C20.2332 36.9429 20.1686 37.0616 20.0746 37.1648C19.7846 37.4828 19.3044 37.5467 18.9415 37.3136L12.6717 33.3001C12.6337 33.2755 12.5958 33.2517 12.5586 33.2271L12.5579 33.2278ZM32.518 35.7572C33.5626 36.2613 35.0074 36.8299 36.5603 37.3417C37.5958 37.6836 38.4691 37.9335 39.155 38.0872C39.4765 38.1588 39.7321 38.4032 39.8184 38.7205C39.8205 38.7303 39.824 38.7415 39.8262 38.7521C39.9525 38.4895 40.2052 38.2957 40.5155 38.2578C40.79 38.2234 41.0526 38.3182 41.2393 38.4951C41.2794 38.3786 41.292 38.2529 41.2737 38.1287C41.2246 37.7847 41.3804 37.4428 41.6739 37.2553C42.1457 36.9528 42.7185 36.2521 43.4234 35.1148C43.8312 34.4556 44.2602 33.6834 44.6428 32.9252C44.4434 32.8487 44.2707 32.6999 44.1668 32.4935C44.1029 32.3657 44.0727 32.2302 44.0741 32.0968C44.0741 31.7704 44.2532 31.458 44.5642 31.3021L44.5768 31.2965C44.8267 31.1758 45.1047 31.1821 45.3392 31.2909C45.3413 31.1259 45.2908 30.9616 45.1904 30.8233C44.9699 30.5208 44.9615 30.1129 45.1714 29.8033C45.4838 29.3386 45.8201 28.6309 46.1978 27.6389C46.6042 26.5733 46.9096 25.5658 46.9216 25.523C47.0009 25.2605 46.9342 24.974 46.7454 24.7733C46.6478 24.6694 46.5221 24.5949 46.3831 24.557C45.9359 24.437 45.6572 23.9947 45.7401 23.5405C45.7457 23.5103 45.7499 23.4808 45.7548 23.4527C46.0833 21.2519 46.2975 18.2732 46.2996 18.243C46.3199 17.9629 46.1851 17.6947 45.9514 17.5424C45.839 17.4693 45.7113 17.4272 45.5793 17.4188C45.1089 17.39 44.7425 16.9983 44.7453 16.5265C44.7467 16.2955 44.7418 16.0512 44.7354 15.7936C44.7242 15.2481 44.7109 14.6865 44.7593 14.2547C44.8997 12.9939 45.99 9.6726 46.817 8.62307C47.0276 8.35489 47.0388 7.98633 46.8436 7.70762C46.6464 7.4219 46.3059 7.30676 45.9752 7.41277C44.3907 7.92244 41.9463 8.53461 38.5035 9.28649C37.4112 9.52377 36.4101 9.57642 35.6056 9.61925C34.681 9.66769 34.0133 9.70349 33.5304 9.98711C33.4981 10.0075 33.4651 10.0285 33.4349 10.051C33.1737 10.2448 32.8276 10.2799 32.5328 10.143C32.3811 10.0735 32.2133 10.0552 32.0463 10.0917C30.7538 10.3704 28.5691 11.4677 27.7611 11.9781C27.4101 12.1999 26.953 12.1487 26.6596 11.8545L26.654 11.8489C26.47 11.6706 26.211 11.5955 25.9625 11.646C26.0699 11.7948 26.1296 11.9753 26.1296 12.1641C26.131 12.2469 26.1183 12.3298 26.0952 12.4126L26.0917 12.4217C26.0053 12.7117 25.7835 12.9237 25.5153 13.0115L25.542 13.0248C25.8017 13.1652 25.9758 13.4249 26.0046 13.7184C26.1155 14.8122 26.6287 15.8301 26.9257 16.3398L27.7828 17.8147L27.6593 16.1123C27.6249 15.6307 27.6305 15.1112 27.6782 14.57C27.7267 14.0273 27.8341 13.4025 27.9408 13.0501C28.0047 12.8374 28.1458 12.6555 28.3374 12.5425C28.8239 12.2533 29.8215 11.7443 30.7124 11.3715C31.0023 11.2494 31.3358 11.2908 31.5878 11.4803C31.8392 11.6685 31.9726 11.9767 31.936 12.2898C31.776 13.71 31.9002 14.9785 32.306 16.0611L33.1442 18.2949L33.0705 15.9101C33.0424 15.0193 33.0797 14.0905 33.1772 13.2263C33.2917 12.221 33.4616 11.46 33.6701 11.0233C33.7845 10.7825 34.0028 10.6056 34.2626 10.5438C34.5665 10.4708 35.0278 10.442 35.6456 10.409C36.4803 10.3655 37.5172 10.3107 38.6713 10.058C40.9241 9.5673 42.7234 9.14117 44.1738 8.75575C44.5003 8.668 44.8485 8.77471 45.0703 9.03025C45.2922 9.28578 45.3504 9.64452 45.2191 9.95692C44.567 11.5126 44.065 13.3547 43.9737 14.1684C43.9211 14.6514 43.9337 15.2411 43.9471 15.8104C43.9569 16.2731 43.9639 16.7126 43.94 17.0172C43.9141 17.3324 43.7238 17.6097 43.4388 17.7466C43.0197 17.9474 42.3373 18.1826 41.8852 18.3385C41.4865 18.4753 41.1432 18.594 40.9283 18.6902C40.4432 18.9099 39.4751 19.5038 39.0006 19.9138L38.1048 20.6867L39.2849 20.606C39.6022 20.5835 40.029 20.5021 40.5191 20.3687C41.2464 20.17 42.1225 19.8562 42.8077 19.5509C43.1896 19.3796 43.6248 19.1746 44.1001 18.9387C44.3879 18.7962 44.7298 18.8207 44.9952 19.004C45.2599 19.1858 45.4052 19.4961 45.3764 19.8155C45.2879 20.7801 45.1468 22.1736 44.9741 23.3369C44.8611 24.0965 44.3781 24.6237 43.5006 24.9417L43.6417 25.8123C43.9737 25.7582 44.3149 25.6978 44.6659 25.6318C44.9776 25.5736 45.2978 25.6859 45.5042 25.9274C45.7106 26.1696 45.7723 26.5038 45.6642 26.8028C45.5968 26.991 45.5287 27.1784 45.4599 27.3574C45.1784 28.096 44.9222 28.6695 44.6933 29.0746C44.6463 29.3505 44.4694 29.5976 44.197 29.7254L44.171 29.738C44.1443 29.7492 44.117 29.7605 44.0889 29.7696C44.0685 29.7787 44.0489 29.7878 44.0271 29.7963C40.7648 31.0761 36.7625 30.2414 34.6136 29.7928L30.7026 28.9791L34.2169 30.5074C34.4725 30.6169 34.7561 30.7293 35.0622 30.8381C36.1335 31.2193 37.2364 31.4917 38.0107 31.5668C38.0367 31.5689 40.7718 31.8202 42.8905 31.6363C43.212 31.6082 43.5258 31.7584 43.7056 32.0287C43.8846 32.2976 43.9042 32.6437 43.754 32.9308C43.4269 33.5599 43.0808 34.1706 42.7543 34.6978C42.0649 35.8099 41.629 36.2844 41.3847 36.4887C41.2639 36.5884 41.1193 36.6558 40.9641 36.6818C40.7465 36.719 40.498 36.7358 40.227 36.7358C37.9461 36.7358 34.0576 35.5459 33.1211 35.0692C33.0424 35.0299 32.961 34.9906 32.8726 34.9513L32.5194 35.7558L32.518 35.7572ZM21.0237 35.4553C21.2434 35.4553 21.4618 35.5375 21.6324 35.6975L27.309 41.0491C28.0208 41.7195 28.7762 42.411 29.4818 42.927C30.0609 43.3518 30.386 43.4887 30.5046 43.5301C30.6605 43.483 30.9953 43.3181 31.4706 42.9888C31.4348 42.9586 31.2389 42.7972 30.4695 42.2032L23.6444 36.9303C23.2969 36.6614 23.1986 36.1784 23.4127 35.7937C23.6282 35.4104 24.0916 35.2426 24.5023 35.3978L32.5658 38.4572C33.1948 38.6959 33.7648 38.8251 34.3096 38.8496L34.5329 38.8609C34.9288 38.8791 35.2896 38.8925 35.6175 38.8981C33.7192 38.2522 31.9901 37.5284 30.935 36.9338C30.5369 36.7099 30.3747 36.2212 30.5587 35.8042L31.5864 33.4686C31.7704 33.0509 32.24 32.841 32.6732 32.9821C33.1492 33.1379 33.5697 33.3071 33.9249 33.4875C34.8797 33.9741 38.7429 35.0552 40.406 34.9611C40.5619 34.7793 40.8364 34.4234 41.2443 33.7641C41.3025 33.6715 41.3608 33.5746 41.4191 33.477C39.5903 33.4939 37.8633 33.3359 37.8415 33.3338C36.9296 33.2453 35.6687 32.9379 34.4683 32.511C34.1243 32.3889 33.8013 32.2625 33.51 32.1354L25.8986 28.8261C25.867 28.8394 25.8347 28.8527 25.801 28.8633C25.3805 28.9967 24.927 28.8015 24.7339 28.4049L24.6813 28.2974L22.0859 27.1686C21.6682 26.9868 21.4562 26.5199 21.5938 26.086C21.7306 25.6522 22.1743 25.3924 22.6201 25.4851L23.3945 25.6466L20.8945 20.4993C20.4136 19.5087 20.0493 18.5371 19.8064 17.5936C19.1037 18.2198 18.4367 18.858 18.0625 19.2546C18.0794 19.6863 18.1636 20.4796 18.3897 21.3993C18.495 21.8296 18.6228 22.2586 18.7695 22.6721L22.3414 32.7792C22.4916 33.2025 22.3014 33.6715 21.8977 33.8709C21.4955 34.0695 21.0069 33.9361 20.7611 33.5592L14.9069 24.5802C14.8613 24.5086 14.8164 24.4377 14.7714 24.3675C14.339 25.4184 14.0385 26.5115 13.9613 27.3125C14.1284 27.7955 14.6724 29.0058 15.5535 30.141L20.1202 36.0198C20.1384 36.0436 20.156 36.0682 20.1714 36.0928C20.2227 35.9166 20.3294 35.7551 20.4838 35.6358C20.6439 35.515 20.8335 35.4539 21.023 35.4539L21.0237 35.4553ZM21.2329 38.625L20.5435 42.383C20.5267 42.4735 20.514 42.5634 20.5056 42.6483C20.4291 43.4037 20.6615 43.6803 20.898 43.8509C21.6625 44.4034 22.8223 44.7755 24.1639 44.9011C24.3534 44.9194 24.5416 44.9313 24.729 44.9384C24.411 44.508 24.1337 44.0742 23.9062 43.6473L21.2336 38.6257L21.2329 38.625ZM21.2722 13.4769C21.1901 13.4769 21.1072 13.4902 21.0265 13.5169C20.3315 13.7486 18.9955 14.8683 17.9987 15.7662C16.5742 17.0481 15.7908 17.9025 15.6462 18.1791C15.6082 18.2507 15.5184 18.4746 15.5015 18.9906C15.4903 19.3332 15.2818 19.6393 14.9673 19.7762C14.949 19.7839 14.9329 19.7917 14.9146 19.8008C14.1178 20.2185 13.2705 21.3874 12.5291 23.0898C11.8475 24.6553 11.4298 26.2447 11.3827 27.4515C11.3813 27.4908 11.3827 27.5308 11.3869 27.568C11.3926 27.6193 11.422 27.8123 11.5575 28.1978C11.6972 28.5937 11.5393 29.0325 11.1805 29.2515C11.0823 29.3112 11.0001 29.3905 10.9369 29.4867C9.8144 31.1912 9.82563 32.8578 10.2075 34.9962C10.3767 35.9432 10.7783 37.3185 11.7316 38.4951C12.3993 39.32 13.2473 39.923 14.2519 40.2874C14.5454 40.3948 14.7609 40.6468 14.8206 40.9529C14.8802 41.2597 14.7735 41.5749 14.5412 41.782C12.8942 43.2577 10.8246 45.0724 9.42758 46.0118C8.7768 46.4498 8.58304 47.307 8.98671 47.9641C9.18398 48.2856 9.49427 48.5075 9.85933 48.5896C9.96955 48.6142 10.0868 48.6275 10.2068 48.6275C10.7874 48.6275 11.3547 48.3376 11.7281 48.094C13.644 46.8465 15.3499 45.354 16.7666 44.0573C16.9828 43.8586 17.2819 43.7814 17.5669 43.8467C17.8526 43.9141 18.0871 44.1156 18.1931 44.388C18.4353 45.0086 18.8411 45.5274 19.3964 45.9303C20.526 46.7461 22.135 47.2873 23.9252 47.4544C25.7034 47.6194 27.4746 47.3997 28.911 46.8345C29.0704 46.772 29.2059 46.6562 29.2922 46.5081C29.4761 46.1985 29.8279 46.0307 30.1852 46.082C30.2729 46.0946 30.3586 46.1023 30.4421 46.1044H30.4878C31.2509 46.103 32.2281 45.6495 33.3928 44.7565C34.2457 44.1029 34.919 43.4318 35.105 43.2415C35.2798 43.0625 35.357 42.8091 35.3121 42.5634L35.3079 42.5409C35.2517 42.2812 35.3156 42.0095 35.4806 41.8024C35.6463 41.5953 35.8962 41.4717 36.1609 41.4675C36.9612 41.4549 37.6302 41.372 38.2059 41.2155C39.0687 40.9789 39.7693 40.5689 40.3204 39.9715C40.0459 39.8718 39.8304 39.6373 39.7609 39.3397C39.7138 39.4372 39.6485 39.5271 39.5671 39.6029C38.361 40.7269 36.6109 40.7374 34.4479 40.6349L34.2261 40.6237C33.4917 40.59 32.742 40.4243 31.9353 40.1182L29.4544 39.1768L31.5548 40.7985C32.1073 41.2253 32.485 41.5237 32.6198 41.6367C32.7083 41.7118 32.9315 41.8789 33.4222 42.1513C33.6764 42.2924 33.8449 42.5479 33.8751 42.8372C33.9045 43.1264 33.7908 43.4107 33.5704 43.6003C32.8248 44.2412 31.4334 45.316 30.485 45.316H30.447C29.9563 45.2992 29.2782 44.9784 28.4329 44.3599C27.6495 43.7863 26.8449 43.0499 26.0917 42.3401L24.3443 40.6939L25.4732 42.8133C25.6761 43.1931 25.9295 43.5855 26.2271 43.9766C26.5353 44.3823 26.8639 44.7551 27.2044 45.0851C27.4466 45.3203 27.5336 45.6713 27.4304 45.9928C27.3272 46.3143 27.0513 46.5488 26.7179 46.5993C25.8424 46.7327 24.927 46.7552 23.9989 46.6688C22.3456 46.5144 20.8756 46.0258 19.8576 45.2901C19.2616 44.8597 18.5834 44.0201 18.74 42.4707C18.7526 42.3373 18.7723 42.2004 18.7969 42.0642L19.1914 39.9125H16.754C13.6145 39.9125 11.5653 38.1174 10.9833 34.8579C10.7046 33.298 10.6961 32.2358 10.9552 31.3056C11.038 31.0087 11.269 30.7756 11.5653 30.6907C11.8615 30.6057 12.1809 30.6808 12.4091 30.8893C12.7482 31.1996 13.1469 31.5001 13.6271 31.8069L15.5563 33.0418L14.1515 31.2326C12.9265 29.6559 12.3206 28.0742 12.2055 27.6453C12.1802 27.5526 12.1704 27.4557 12.1767 27.3595C12.2441 26.277 12.6457 24.7985 13.2522 23.4057C13.4895 22.8602 13.7437 22.3632 14.0076 21.93C14.1845 21.6401 14.5117 21.4751 14.8501 21.5074C15.1877 21.5397 15.4777 21.763 15.5977 22.081C15.7802 22.571 16.0407 23.0715 16.3931 23.6128L18.1938 26.3753L17.0944 23.2653C16.9288 22.7956 16.7841 22.3105 16.6655 21.824C16.3664 20.6046 16.2506 19.4041 16.292 18.8488C16.3054 18.6642 16.3763 18.488 16.4949 18.3455C17.0193 17.7158 18.641 16.205 19.8324 15.2376C20.0837 15.0333 20.4263 14.982 20.7253 15.1042C21.0258 15.2264 21.235 15.5023 21.2736 15.8238C21.4505 17.3423 22.0332 18.7835 22.4909 19.725L23.6725 22.1568L23.2351 19.4884C22.8686 17.2573 23.0673 15.1323 23.1691 14.3228C23.2028 14.0617 23.3495 13.8286 23.5714 13.6861C23.836 13.5169 24.2481 13.2635 24.7065 13.0227C24.7515 12.9988 24.7985 12.9799 24.8455 12.9644C24.5858 12.8366 24.4096 12.5902 24.3626 12.3136C23.7139 12.652 23.1242 13.0241 22.7704 13.2705C22.7289 13.3 22.6896 13.3344 22.6538 13.3716C22.3849 13.6573 21.9609 13.7324 21.6113 13.5576C21.5039 13.5036 21.3881 13.4769 21.2715 13.4769H21.2722ZM10.2061 50.4008C9.95621 50.4008 9.70839 50.3742 9.4697 50.3215C8.63288 50.1334 7.92454 49.6258 7.47383 48.8929C6.57032 47.4214 6.99365 45.5098 8.43702 44.5389C9.48304 43.8355 10.9791 42.5655 12.3579 41.3496C11.5947 40.8989 10.9236 40.3176 10.3522 39.6128C9.16081 38.1427 8.66588 36.4599 8.46018 35.3079C8.07407 33.1471 7.92805 30.8297 9.45426 28.5109C9.52797 28.3985 9.61151 28.2925 9.70278 28.1928C9.66487 28.0391 9.63889 27.8994 9.62415 27.7751C9.60941 27.646 9.60379 27.514 9.60941 27.382C9.66487 25.9653 10.1359 24.1421 10.9018 22.3828C11.745 20.4466 12.7075 19.1163 13.7668 18.4213C13.8195 18.0008 13.9206 17.6512 14.0729 17.3591C14.3635 16.8024 15.2853 15.8224 16.8108 14.4485C19.2742 12.2315 20.1076 11.9542 20.4656 11.8349C20.9128 11.686 21.381 11.6636 21.8296 11.7639C22.281 11.4558 23.8557 10.4245 25.3819 9.96605C26.0432 9.76738 26.7466 9.84811 27.3349 10.1703C28.4273 9.56098 30.334 8.64764 31.67 8.35911C32.0491 8.27697 32.4296 8.28188 32.7953 8.36823C33.6069 7.95052 34.4928 7.90349 35.5094 7.84943C36.25 7.81152 37.1711 7.76308 38.123 7.55458C41.5096 6.81604 43.9 6.21792 45.4312 5.72579C46.5039 5.38039 47.6566 5.77143 48.3004 6.6974C48.9434 7.62338 48.9069 8.83929 48.2098 9.72455C47.6517 10.4329 46.6408 13.3906 46.5221 14.4541C46.4877 14.7679 46.4996 15.2923 46.5095 15.7543C46.5095 15.7838 46.5109 15.8126 46.5116 15.842C46.652 15.9017 46.7882 15.9733 46.9174 16.0569C47.6931 16.5609 48.1347 17.4476 48.068 18.3722C48.0666 18.4002 47.8798 20.997 47.585 23.1789C47.7507 23.2878 47.903 23.4162 48.0385 23.5623C48.6591 24.2222 48.8809 25.1713 48.6205 26.039C48.5861 26.1513 48.2765 27.1686 47.8553 28.2736C47.5281 29.1329 47.2262 29.8019 46.9286 30.3312C47.1799 30.9567 47.1771 31.6679 46.9026 32.2983C46.3838 33.4882 45.6298 34.9274 44.9327 36.0514C44.23 37.1858 43.6326 37.9461 43.0499 38.4404C43.0288 38.7113 42.9635 38.9781 42.8568 39.2301C42.0474 41.1467 40.6398 42.3907 38.6734 42.927C38.1806 43.0625 37.6449 43.1531 37.0503 43.2015C36.9541 43.6789 36.7232 44.1261 36.3736 44.4827C36.1672 44.6947 35.4188 45.4417 34.4732 46.1662C32.968 47.3196 31.6637 47.8806 30.485 47.8806H30.4646C30.2112 48.1431 29.903 48.3509 29.5611 48.4857C27.8713 49.1512 25.8115 49.4124 23.7602 49.2221C21.659 49.0263 19.7404 48.3685 18.3574 47.3688C17.8674 47.0157 17.4553 46.6001 17.1232 46.1283C15.8336 47.2761 14.3474 48.5075 12.6955 49.5823C12.1206 49.9565 11.222 50.4029 10.2054 50.4029L10.2061 50.4008Z" fill="#FFF9F3"/>
<path d="M17.8311 39.8658C16.057 41.4166 12.1306 45.1219 9.85812 46.6502C9.55976 46.851 9.45516 47.2519 9.6426 47.558C9.87989 47.9448 10.3573 47.8437 10.6963 47.7594C11.1639 47.6415 13.8169 46.0774 14.9282 45.025C16.0388 43.9727 19.1755 40.7707 19.1755 40.7707C19.1755 40.7707 17.7419 43.7831 19.848 45.303C21.9527 46.8236 25.6517 47.1318 28.4001 46.0507C26.8213 45.2897 25.0999 42.7813 25.0704 41.4075C26.4443 42.6641 28.9702 45.303 30.4606 45.3318C31.9524 45.3613 34.5541 42.7006 34.5541 42.7006C34.5541 42.7006 33.1297 42.0442 32.6298 41.6202C32.13 41.1976 28.497 38.4295 28.1123 38.1606C29.6701 38.9293 31.7453 40.525 34.2256 40.6409C36.7058 40.756 39.3581 40.9673 40.5115 38.2378C39.3202 38.3916 33.4379 36.4111 31.4954 35.1805C30.535 34.6806 30.1503 34.1997 30.1503 34.1997C30.1503 34.1997 31.9756 34.5079 33.11 35.0843C34.2445 35.6614 39.0892 37.0837 41.0682 36.68C41.8384 36.5452 43.6636 33.3552 44.5672 31.2786C43.4523 31.8163 39.7997 31.7216 38.0123 31.5475C36.2249 31.3748 32.9191 30.1638 33.0342 29.6443C33.1486 29.1255 39.455 31.7019 44.1635 29.7594C44.9701 29.3178 46.1818 25.3001 46.1818 25.3001C46.1818 25.3001 43.3758 25.9537 41.0493 26.1067C38.7242 26.2605 35.4169 26.0295 35.5714 25.2608C35.7061 24.9919 36.9164 25.4728 39.1271 25.3956C41.3385 25.3191 44.6633 25.5304 44.9905 23.3393C45.3169 21.1483 45.5282 18.1879 45.5282 18.1879C45.5282 18.1879 44.0856 18.9566 42.798 19.5336C41.5105 20.11 39.3384 20.8022 38.7614 20.5333C38.185 20.2645 40.3381 18.9755 40.9335 18.7067C41.5295 18.4378 43.2017 17.9758 43.7788 17.5722C44.1438 17.3223 43.856 15.3811 43.9908 14.1694C44.1256 12.9577 44.9905 9.40196 46.3938 8.15234C45.3057 8.50195 42.235 9.2777 39.2001 9.99798C37.1839 10.4754 34.5717 10.2669 33.9181 10.6516C33.2638 11.0363 32.7836 14.823 33.1873 17.5525C32.0914 16.265 31.4568 14.0157 32.2065 10.8439C30.7842 11.1507 28.3039 12.4972 28.0737 12.6889C27.8427 12.8819 27.2277 15.822 27.9775 17.7456C26.7672 16.4377 25.0943 14.3625 26.1136 12.401C25.2319 12.401 24.1234 13.1712 23.5667 13.6071C23.335 13.7889 23.1847 14.0543 23.1489 14.3471C22.9987 15.5932 22.7088 19.2177 23.9605 22.1276C22.9229 20.7636 20.9628 17.3033 21.2696 14.2467C20.232 14.5928 16.5604 18.0903 16.3294 18.5333C16.0985 18.9748 16.3687 23.9101 19.4485 27.4132C16.8595 24.3334 15.3199 22.9553 15.1634 20.6351C13.8028 21.3491 12.2415 25.2039 12.1524 27.4792C12.219 28.0598 13.6027 31.3839 16.0353 33.1018C14.2627 32.213 12.5251 31.3067 11.5802 29.9075C10.5602 31.4576 10.629 32.9705 10.9659 34.8575C11.3029 36.7446 12.629 40.4541 17.8304 39.8637L17.8311 39.8658Z" fill="#1FAF51"/>
<path d="M35.4798 25.8218C43.4268 24.4725 44.2987 20.9567 43.9399 19.201C43.0343 19.6931 39.1367 21.3183 38.6965 20.5411C38.3132 19.8651 39.3115 19.5239 40.9984 18.6471C42.5878 17.8208 44.3815 18.6372 43.697 15.0583C43.1839 15.4704 40.8271 15.9758 40.1974 16.1619C40.1314 16.1808 40.0654 16.1998 40.0016 16.2166C41.6626 14.6265 43.7925 11.8837 43.7694 10.1055C41.9237 10.519 38.0562 13.2309 36.4781 14.7403C35.8673 13.643 36.4647 11.5755 36.2057 11.0406C35.7079 11.1964 33.3063 15.231 33.3997 17.766C30.7881 19.0248 30.1037 13.5917 30.1037 13.5917C30.1037 13.5917 29.7014 14.1386 29.3728 15.2871C29.038 16.4546 28.8302 19.4986 28.5121 21.5689C26.644 20.3397 25.1031 17.8889 24.2726 15.7343C22.8798 17.7246 24.2803 23.8975 24.2803 23.8975C24.2803 23.8975 21.0278 20.0111 20.1531 18.3326C19.2777 20.0034 18.2492 23.6034 19.5851 27.7362C19.5851 27.7362 17.6082 26.4943 14.7692 23.7768C13.3764 27.7966 13.9647 30.5535 15.9325 33.139C14.235 32.4061 13.5056 32.3465 12.117 30.9199C12.1556 34.3529 15.2656 36.6232 18.3903 37.6264C16.6163 38.0118 13.0872 36.6927 12.1998 34.687C11.0787 37.9002 14.0756 39.2362 15.6671 39.8834C17.2081 40.5125 17.9599 39.8912 19.6961 39.2741C17.9733 43.2623 24.4783 45.8928 27.5328 45.2652C26.7901 44.6074 25.6366 43.1282 24.9494 41.588C24.8103 41.2784 25.188 41.0432 25.4415 41.27C28.9046 44.3666 33.3077 42.3265 33.3077 42.3265L28.112 38.0189C28.112 38.0189 35.4257 40.5384 38.8404 38.134C36.8733 37.6327 32.5916 35.8061 30.1886 34.3592C36.3994 35.4396 39.4715 33.9555 42.6728 31.9498C40.3589 31.9105 35.1112 32.1064 32.8879 29.7139C34.9856 29.558 40.9444 29.2653 43.5166 26.2093C41.0939 26.5828 38.5596 26.8053 35.4805 25.8204L35.4798 25.8218Z" fill="#00A439"/>
<path d="M41.5912 26.8698C33.7116 27.2658 31.2292 25.9452 31.2292 25.9452C31.2292 25.9452 32.641 23.7205 33.3325 22.9686C35.4969 23.2396 41.5091 22.4274 43.3729 20.9545C37.7518 23.029 34.0844 22.0967 34.0844 22.0967L36.3091 19.0015C36.3091 19.0015 40.4904 18.1485 42.1142 16.4348C40.9924 17.0835 38.359 18.0699 37.0294 18.199C38.7697 16.6314 42.0033 12.2395 43.2255 10.4297C39.2731 14.4025 36.9185 17.0238 36.1631 17.881C35.3207 16.6862 35.235 14.1231 35.744 12.2135C34.0844 14.6194 35.5783 18.2987 35.5783 18.2987C35.5783 18.2987 33.7257 20.3241 32.6431 21.5913C31.1604 20.911 30.3257 17.8515 30.0175 16.0593C29.5535 19.1187 31.7782 22.6724 31.7782 22.6724C31.7782 22.6724 30.2639 24.3713 29.399 25.1751C26.9581 24.3713 24.9489 20.4469 24.2384 17.8515C24.0524 23.6924 29.2706 26.1221 29.2706 26.1221C29.2706 26.1221 28.5882 26.8965 27.4404 28.5406C25.4557 28.2619 22.1071 24.7574 20.649 20.6632C20.7732 26.2148 26.5727 29.3466 26.5727 29.3466L25.6411 30.7113C25.6411 30.7113 24.9594 31.1761 24.3704 31.4555C18.5709 33.3783 16.7723 27.1141 15.6561 25.1906C17.0209 33.8122 24.3086 33.0062 24.3086 33.0062C24.3086 33.0062 22.9748 34.0909 21.7659 35.0527C18.2614 36.1387 15.3149 34.0909 14.2914 33.2541C14.4465 33.6261 15.2833 34.5563 15.9973 34.9909C19.1698 36.6751 21.5616 36.0306 21.9842 35.8951C20.9972 36.9657 11.1638 45.7024 9.68115 47.2076C11.0361 49.3425 20.6005 38.89 21.8522 37.719C22.2454 37.3511 22.7614 37.5687 23.0667 38.0138C24.805 40.5411 28.6682 41.3625 30.5925 41.7907C24.2967 39.2031 23.6185 36.6624 23.6185 36.6624C23.6185 36.6624 24.2644 35.6346 25.1728 34.4917C26.8261 35.7624 33.131 37.8664 35.546 37.9942C29.1281 36.0868 26.0012 33.5924 26.0012 33.5924C26.0012 33.5924 26.9335 32.0669 28.2042 30.2318C29.927 31.5882 37.8065 33.2253 39.8684 32.8869C31.0565 31.8135 28.8255 29.2434 28.7693 29.329C28.7132 29.4133 29.4194 28.0008 30.2373 26.8151C33.4849 27.6905 39.8115 27.324 41.5912 26.8712V26.8698Z" fill="#3DBA69"/>
<path d="M43.0942 10.69C42.0819 11.9719 40.9635 13.1499 39.8599 14.3399C38.7564 15.5298 37.6703 16.7359 36.5864 17.9427C36.0451 18.5457 35.5109 19.1551 34.978 19.7673L34.1812 20.6848L33.3921 21.6108C33.1324 21.9211 32.8684 22.2293 32.6122 22.5424L32.2247 23.0099L31.8428 23.4796C31.3359 24.1086 30.8389 24.7447 30.351 25.3905C28.3986 27.9705 26.5677 30.6579 24.6056 33.2666C23.6297 34.5689 22.6357 35.8725 21.5426 37.1095C20.9971 37.728 20.4229 38.3268 19.8156 38.8962C19.2069 39.4655 18.5625 40.0033 17.8703 40.4856C17.6281 40.6533 17.2967 40.5944 17.1282 40.3522C16.9605 40.1114 17.0194 39.7786 17.2602 39.6101L17.2623 39.6087C18.5513 38.72 19.6977 37.6037 20.7669 36.4173C21.8396 35.2295 22.8322 33.9574 23.8186 32.6699C25.792 30.1047 27.6488 27.4348 29.6517 24.8556C30.1516 24.2097 30.6627 23.5716 31.1836 22.9411L31.5767 22.4708L31.9726 22.0046C32.2352 21.6929 32.5041 21.3862 32.7695 21.078L33.574 20.1576C33.845 19.8536 34.1131 19.5468 34.3862 19.2457C34.9317 18.6405 35.4814 18.0389 36.036 17.4422C37.1396 16.2466 38.2727 15.0763 39.4092 13.9131C40.5458 12.7484 41.6887 11.5907 42.9475 10.5475C42.991 10.5103 43.0563 10.5173 43.0928 10.5609C43.1244 10.5988 43.1244 10.6535 43.0942 10.6907V10.69Z" fill="#171936"/>
<path d="M17.8309 39.3729C18.024 39.3729 18.2016 39.4859 18.2816 39.6664C18.3694 39.8636 18.3174 40.0946 18.1553 40.2371C17.7432 40.598 17.216 41.0732 16.6073 41.6236C14.6213 43.4159 11.9016 45.8709 10.1332 47.0601C10.0496 47.1163 10.0174 47.2272 10.063 47.3009C10.0861 47.3388 10.1044 47.3494 10.136 47.3557C10.3143 47.3957 10.6857 47.2637 11.0381 47.0342C13.3379 45.5367 15.3787 43.6314 17.3522 41.7893C17.8387 41.3351 18.342 40.8661 18.8426 40.4084C19.016 40.2491 19.2785 40.2357 19.4681 40.3761C19.6583 40.5165 19.7215 40.7707 19.6204 40.9834C19.6169 40.9904 19.2912 41.6903 19.2104 42.5426C19.1107 43.5935 19.4224 44.3882 20.1364 44.9049C21.8915 46.1714 24.998 46.5835 27.4866 45.9629C26.9285 45.5213 26.3557 44.9309 25.8495 44.264C25.4585 43.7487 24.5458 42.4359 24.5241 41.3639C24.5199 41.1666 24.6329 40.9862 24.8133 40.904C24.9923 40.8219 25.2036 40.8556 25.349 40.989C25.5617 41.1842 25.8039 41.4137 26.0608 41.6566C27.309 42.8388 29.3997 44.8193 30.4717 44.8396C31.2587 44.8523 32.7041 43.7613 33.7059 42.8367C33.2363 42.598 32.6311 42.266 32.3131 41.9971C31.8147 41.5745 28.1718 38.8029 27.8313 38.5642C27.6207 38.416 27.559 38.1317 27.6902 37.9099C27.8215 37.688 28.1016 37.6052 28.3326 37.7182C28.7138 37.9064 29.1182 38.1395 29.5471 38.3852C30.9189 39.1728 32.4746 40.0665 34.2493 40.148L34.4725 40.1592C36.6004 40.2603 38.6222 40.3565 39.7251 38.6779C37.5432 38.3395 32.907 36.6497 31.2516 35.6093C30.2407 35.0807 29.8125 34.5661 29.7668 34.5086C29.6391 34.3492 29.6236 34.1274 29.7268 33.9504C29.8307 33.7742 30.0329 33.6802 30.2344 33.7153C30.3116 33.7279 32.1488 34.0417 33.3367 34.6455C34.5315 35.2541 39.1867 36.562 40.9733 36.1976C41.1194 36.1373 41.5974 35.6795 42.409 34.3541C42.8407 33.6493 43.2963 32.8117 43.6846 32.0178C41.9857 32.2789 39.2913 32.1666 37.9679 32.0388C36.4024 31.8872 33.2643 30.8868 32.6852 30.0886C32.5251 29.8688 32.5258 29.6681 32.5553 29.5382C32.6775 28.9899 33.3331 29.0777 33.548 29.1064C33.8372 29.1443 34.224 29.2251 34.7133 29.3269C36.8412 29.7706 40.795 30.5954 43.9401 29.3192C44.0054 29.2679 44.3592 28.9225 45.0283 27.1618C45.1918 26.7301 45.3386 26.3067 45.4544 25.9613C44.4371 26.1698 42.6652 26.4949 41.085 26.5988C39.9933 26.6704 38.736 26.6571 37.7194 26.5616C35.9644 26.3966 35.4849 26.0631 35.2764 25.8252C35.1093 25.6349 35.0433 25.399 35.0903 25.1638C35.0995 25.121 35.1135 25.0796 35.1332 25.0403C35.3536 24.6001 35.8225 24.6605 36.533 24.7532C37.1101 24.8283 37.9834 24.9413 39.1137 24.902C39.365 24.8929 39.6233 24.8886 39.8978 24.883C42.2938 24.8374 44.2946 24.6837 44.5059 23.2649C44.718 21.8425 44.8822 20.0741 44.97 19.033C44.4343 19.3054 43.7 19.6698 43.0029 19.9815C42.9734 19.9948 40.5072 21.0787 39.1354 21.0794C38.9066 21.0794 38.7072 21.0492 38.5562 20.9776C38.3155 20.8653 38.1729 20.6484 38.1743 20.395C38.1764 20.1163 38.3176 19.7617 39.3285 19.0751C39.8529 18.7185 40.4433 18.3872 40.7339 18.2559C40.9684 18.1506 41.3222 18.0284 41.7315 17.8873C42.3079 17.6886 43.0843 17.4226 43.4361 17.2091C43.4985 16.9747 43.4845 16.286 43.4733 15.8198C43.4606 15.2336 43.4466 14.6299 43.5034 14.1153C43.6165 13.0988 44.3227 10.6466 45.1406 8.98136C43.5758 9.42294 41.476 9.93051 38.7732 10.5202C37.5804 10.78 36.5239 10.8361 35.6737 10.8811C35.0293 10.9148 34.4199 10.947 34.1889 11.0671C34.0892 11.1815 33.8014 11.8183 33.6343 13.4231C33.4883 14.8215 33.5044 16.3007 33.6792 17.4808C33.7115 17.6985 33.595 17.9112 33.3956 18.0017C33.1948 18.0923 32.9583 18.0396 32.8165 17.8719C32.0632 16.9866 30.9575 15.0286 31.5633 11.5487C30.3432 11.9825 28.8142 12.7948 28.447 13.0328C28.2624 13.4989 27.8096 15.9455 28.4414 17.5658C28.5278 17.7862 28.4449 18.0361 28.2441 18.1618C28.0434 18.2882 27.7815 18.2538 27.6207 18.0797C26.4912 16.8602 25.4634 14.9135 25.5146 13.1563C24.7459 13.5003 23.9997 13.9714 23.6697 14.1876C23.5455 15.1101 23.1341 18.9502 24.416 21.9324C24.5143 22.1613 24.4272 22.4266 24.2117 22.5523C23.9962 22.678 23.7217 22.6239 23.5707 22.4259C22.5724 21.1124 20.837 18.0516 20.7514 15.1213C19.4589 16.0613 17.1212 18.265 16.7807 18.7445C16.655 19.3686 16.9534 23.5436 19.5334 26.7448C19.6295 26.8592 19.7285 26.9758 19.8289 27.0944C20.0023 27.3015 19.977 27.6097 19.7727 27.7859C19.5678 27.9621 19.2596 27.9404 19.0798 27.7375C18.9759 27.6174 18.8735 27.4967 18.7752 27.3752C18.6958 27.2812 18.6172 27.1878 18.5407 27.0965C16.5448 24.7328 15.3198 23.2817 14.9154 21.4508C13.8919 22.7095 12.7377 25.6286 12.6493 27.4532C12.7482 27.9642 14.0372 31.0855 16.3209 32.6994C16.5315 32.8483 16.5919 33.134 16.4599 33.3558C16.3279 33.5763 16.0464 33.6584 15.8154 33.5433C14.0828 32.6735 12.6408 31.8949 11.6496 30.7906C11.1062 31.9497 11.1617 33.1354 11.4537 34.7711C11.8019 36.7178 13.0859 39.9058 17.7769 39.3729C17.7958 39.3715 17.8141 39.3708 17.833 39.3708L17.8309 39.3729ZM10.2048 48.3484C10.1093 48.3484 10.0138 48.3385 9.91977 48.3168C9.62421 48.2508 9.38342 48.0781 9.22336 47.8169C8.89832 47.2869 9.05627 46.5954 9.5835 46.2416C11.2936 45.0909 13.9831 42.6633 15.9467 40.8914C16.1292 40.7264 16.304 40.5685 16.4711 40.4175C11.9535 40.2743 10.7812 36.6252 10.4814 34.9466C10.1781 33.2498 9.98225 31.4421 11.1694 29.6393C11.2599 29.5017 11.4137 29.4181 11.578 29.4174H11.5808C11.7443 29.4174 11.8974 29.4996 11.9894 29.6351C12.334 30.1447 12.7932 30.5856 13.3464 30.9935C12.2961 29.4792 11.7128 27.9677 11.6629 27.5395C11.6601 27.5135 11.6587 27.489 11.6601 27.463C11.7549 25.0543 13.4777 20.8688 15.0446 20.046C15.1913 19.9688 15.3682 19.9723 15.5142 20.0531C15.6603 20.1352 15.7543 20.284 15.7656 20.4511C15.8112 21.1405 15.986 21.7611 16.2844 22.3866C16.2429 22.2343 16.205 22.0876 16.1699 21.945C15.7852 20.383 15.6624 18.7501 15.8933 18.3071C16.0976 17.9161 17.4701 16.6201 18.1672 15.9904C19.1479 15.1038 20.4544 14.0009 21.1143 13.7804C21.2737 13.7278 21.4471 13.7594 21.5784 13.8633C21.7082 13.9672 21.7777 14.1315 21.7609 14.2978C21.6107 15.7875 22.0354 17.3924 22.623 18.7796C22.3352 16.1975 22.7023 13.9552 22.7262 13.8198C22.7472 13.6899 22.8217 13.574 22.9305 13.4982C22.9979 13.4512 24.595 12.3448 25.9731 11.9313C26.1444 11.88 26.3304 11.9243 26.4582 12.0499C26.5873 12.1742 26.6372 12.3595 26.5902 12.5315C26.3388 13.4617 26.6084 14.6039 27.1258 15.6415C27.1188 15.2371 27.1391 14.8559 27.1686 14.5267C27.2079 14.0907 27.3645 12.6417 27.7604 12.3125C28.0799 12.0457 30.6114 10.6873 32.1039 10.3651C32.2689 10.3293 32.4416 10.3805 32.5602 10.502C32.6789 10.622 32.7273 10.7954 32.688 10.9604C32.3271 12.4859 32.2871 13.9012 32.5504 15.089C32.5581 14.4467 32.5974 13.7945 32.6683 13.1704C32.8579 11.4981 33.1941 10.509 33.6701 10.2296C34.0948 9.97965 34.7351 9.94595 35.6204 9.89892C36.434 9.85609 37.4484 9.80274 38.5612 9.56054C42.0137 8.80656 44.4673 8.19228 46.0595 7.6798C46.2659 7.61381 46.492 7.68963 46.6155 7.86795C46.7391 8.04626 46.7321 8.28355 46.5973 8.45414C45.6762 9.62442 44.6134 13.0433 44.4828 14.2269C44.4322 14.6755 44.4456 15.2477 44.4582 15.8002C44.4842 16.9726 44.4996 17.6795 44.0595 17.9807C43.6368 18.2762 42.7951 18.5669 42.0524 18.8224C41.6817 18.9502 41.3321 19.0709 41.139 19.1573C40.769 19.3244 40.1225 19.714 39.6605 20.0482C40.3914 19.9113 41.5434 19.5574 42.5992 19.0843C43.8566 18.5219 45.2845 17.7616 45.2992 17.7539C45.4572 17.6697 45.6488 17.6774 45.8005 17.775C45.9507 17.8726 46.0357 18.0453 46.0237 18.2236C46.0216 18.2538 45.8061 21.2283 45.4811 23.4137C45.3498 24.2877 44.8549 24.8458 44.1697 25.2046C45.2578 25.0094 46.0581 24.8248 46.0729 24.8213C46.2442 24.7819 46.4239 24.836 46.5446 24.9645C46.6647 25.0922 46.7082 25.2748 46.657 25.444C46.6443 25.4854 46.3446 26.4773 45.9395 27.5409C45.1666 29.5691 44.7123 30.0247 44.4027 30.1939C44.3873 30.203 44.3712 30.2107 44.3543 30.2178C41.5223 31.3852 38.1863 30.9963 35.8471 30.5617C36.6706 30.8187 37.4835 31.0033 38.0627 31.0581C40.0474 31.2511 43.4318 31.282 44.355 30.8362C44.541 30.7464 44.7629 30.7815 44.911 30.9247C45.0598 31.0679 45.1041 31.2876 45.0219 31.4772C44.5403 32.5843 43.8376 33.9224 43.1882 34.9684C42.0622 36.7873 41.5139 37.1019 41.1629 37.1657C39.8346 37.4346 37.44 36.9727 35.527 36.4405C35.8261 36.5494 36.1335 36.6582 36.4438 36.7621C38.6573 37.5104 40.0726 37.7976 40.4503 37.7491C40.6251 37.7267 40.7985 37.7997 40.9052 37.9394C41.0126 38.0805 41.0365 38.2679 40.967 38.4301C39.7139 41.3955 36.9044 41.2621 34.4255 41.1434L34.2051 41.1336C33.5817 41.1048 32.9856 40.989 32.4177 40.8198C32.669 41.0157 32.8572 41.1659 32.9512 41.2459C33.3177 41.5562 34.3834 42.0799 34.7625 42.2547C34.9085 42.3221 35.011 42.4555 35.0405 42.6135C35.07 42.77 35.0201 42.9329 34.9085 43.0473C34.6284 43.3331 32.1418 45.8267 30.485 45.8267H30.4534C29.333 45.8056 27.9338 44.7238 26.355 43.2804C27.0409 44.2801 28.0258 45.2784 28.8444 45.6722C29.0213 45.7572 29.1301 45.939 29.1231 46.1349C29.1154 46.3307 28.9932 46.5034 28.8107 46.575C27.4129 47.1254 25.6888 47.3395 23.9526 47.1767C22.2109 47.0145 20.651 46.4908 19.5607 45.7038C18.5498 44.973 18.0907 43.8364 18.2339 42.4176C18.2374 42.3804 18.2416 42.3425 18.2465 42.3053C18.1728 42.3734 18.0998 42.4422 18.0282 42.5103C16.0232 44.3805 13.9501 46.316 11.5787 47.8591C11.2789 48.0549 10.7404 48.3477 10.2069 48.3477L10.2048 48.3484Z" fill="#171936"/>
</g>
<defs>
<clipPath id="clip0_4450_47743">
<rect width="41.7581" height="44.8" fill="white" transform="translate(7 5.60156)"/>
</clipPath>
</defs>
</svg>
