<svg width="56" height="56" viewBox="0 0 56 56" fill="none" xmlns="http://www.w3.org/2000/svg">
<path d="M43.5904 36.0124C43.5789 36.6942 43.4253 37.3372 43.1547 37.9135C44.1544 38.5443 44.8183 39.6509 44.8183 40.9119C44.8183 41.7479 44.5427 42.4082 44.3784 42.8036C42.8461 46.4945 39.9411 48.6138 36.4087 48.6138C33.3544 48.6138 30.8942 47.3163 29.5278 45.1963C27.4365 47.238 25.0324 48.6138 22.5823 48.6138C18.9645 48.6138 16.4384 46.0862 16.4384 42.4685C16.4384 42.345 16.4398 42.2216 16.4441 42.101C13.1644 42.0386 10.705 39.4486 10.705 36.0282C10.705 33.2838 11.9358 30.9565 13.7888 29.2513C13.018 28.9707 12.3233 28.5724 11.7255 28.0672C10.2844 26.845 9.48926 25.0515 9.48926 23.0199C9.48926 20.9882 10.3239 19.2328 11.8389 17.941C11.958 17.8369 12.0829 17.7393 12.2099 17.6439C11.6021 16.6219 11.2827 15.4858 11.2827 14.2902C11.2827 10.6998 14.0751 7.88653 17.6397 7.88653C19.055 7.88653 20.364 8.30564 21.4304 9.08646C23.0208 7.71573 24.7274 7.39062 25.9912 7.39062C28.4606 7.39062 30.4277 8.52238 31.4518 10.3553C33.663 8.46568 36.4812 7.39062 39.2514 7.39062C40.3444 7.39062 41.2946 7.54133 42.0725 7.83773C43.5753 8.41257 44.3303 9.48333 44.5972 10.506C46.1194 11.7483 47.0473 13.7175 47.0473 16.0585C47.0473 19.278 45.9515 22.6029 44.0403 25.1814C43.5473 25.846 43.0098 26.4481 42.4356 26.9792C44.402 28.0485 45.3135 29.979 45.3135 31.8988C45.3135 33.5644 44.6511 35.0313 43.5904 36.0124Z" fill="#F24E38"/>
<path d="M39.2515 7.38997C40.3445 7.38997 41.2946 7.54068 42.0726 7.83708C43.5754 8.41192 44.3303 9.48267 44.5973 10.5053C46.1195 11.7476 47.0474 13.7169 47.0474 16.0579C47.0474 19.2773 45.9515 22.6022 44.0404 25.1808C43.5474 25.8453 43.0098 26.4475 42.4357 26.9785C44.4021 28.0479 45.3135 29.9784 45.3135 31.8981C45.3135 33.5638 44.6511 35.0307 43.5904 36.0117C43.579 36.6935 43.4254 37.3365 43.1548 37.9128C44.1545 38.5436 44.8184 39.6503 44.8184 40.9112C44.8184 41.7473 44.5428 42.4075 44.3784 42.803C42.8462 46.4946 39.9411 48.6132 36.4088 48.6132C33.3544 48.6132 30.8943 47.3156 29.5279 45.1957C27.4366 47.2374 25.0324 48.6132 22.5823 48.6132C18.9646 48.6132 16.4384 46.0856 16.4384 42.4678C16.4384 42.3444 16.4399 42.2209 16.4442 42.1004C13.1645 42.0379 10.705 39.4479 10.705 36.0275C10.705 33.2832 11.9358 30.9558 13.7888 29.2507C13.0181 28.97 12.3234 28.5717 11.7256 28.0665C10.2845 26.8443 9.48932 25.0509 9.48932 23.0192C9.48932 20.9875 10.324 19.2321 11.8389 17.9403C11.9581 17.8363 12.083 17.7387 12.21 17.6432C11.6021 16.6213 11.2828 15.4852 11.2828 14.2896C11.2828 10.6991 14.0752 7.88588 17.6398 7.88588C19.055 7.88588 20.364 8.30499 21.4305 9.08581C23.0208 7.71507 24.7274 7.38997 25.9912 7.38997C28.4607 7.38997 30.4278 8.52173 31.4519 10.3546C33.663 8.46503 36.4813 7.38997 39.2515 7.38997ZM39.2515 5.60156C37.6561 5.60156 36.0593 5.90083 34.5063 6.49218C33.5525 6.85532 32.6454 7.31606 31.7942 7.87009C31.3041 7.38064 30.7443 6.95866 30.1278 6.61849C28.9035 5.94317 27.512 5.60156 25.9919 5.60156C24.7619 5.60156 23.0431 5.8549 21.3293 6.93928C20.209 6.38525 18.9553 6.09675 17.6398 6.09675C15.4359 6.09675 13.3812 6.94359 11.8555 8.48082C10.3326 10.0145 9.49435 12.077 9.49435 14.2896C9.49435 15.3 9.67018 16.2753 10.019 17.2026C9.37809 17.8743 8.85922 18.6336 8.4724 19.4696C7.95999 20.577 7.7002 21.7712 7.7002 23.0192C7.7002 24.2672 7.94635 25.4765 8.43149 26.5709C8.92453 27.684 9.64362 28.6464 10.568 29.4308H10.5694L10.5708 29.4329C10.6986 29.5413 10.8299 29.6454 10.9641 29.7451C10.5665 30.297 10.2228 30.8769 9.93499 31.4833C9.25824 32.9107 8.9152 34.4393 8.9152 36.0275C8.9152 38.1396 9.67161 40.1017 11.0445 41.5528C12.0471 42.6121 13.3188 43.3391 14.7275 43.6756C14.8172 44.3495 14.983 44.9969 15.2242 45.609C15.6067 46.5815 16.1664 47.4398 16.8877 48.1617C17.6089 48.8837 18.468 49.4435 19.4397 49.826C20.41 50.2078 21.4671 50.4016 22.5809 50.4016C24.0406 50.4016 25.5291 50.0176 27.0046 49.2612C27.7875 48.86 28.5655 48.3541 29.3305 47.7498C31.1089 49.4543 33.5934 50.4016 36.4074 50.4016C37.4688 50.4016 38.5015 50.2415 39.4775 49.9265C40.4478 49.6129 41.3621 49.1457 42.196 48.5378C43.0177 47.9386 43.7627 47.2015 44.4086 46.3475C45.0458 45.505 45.5906 44.544 46.0276 43.4912C46.23 43.0061 46.6053 42.1054 46.6053 40.9119C46.6053 39.9948 46.3671 39.0898 45.9157 38.2939C45.7219 37.9516 45.4901 37.6322 45.226 37.3408C45.2662 37.1593 45.2985 36.9756 45.3221 36.7904C45.803 36.2378 46.1955 35.6098 46.4927 34.9152C46.896 33.9714 47.1005 32.9567 47.1005 31.8988C47.1005 29.9159 46.3685 28.1074 45.0746 26.764C45.2109 26.5953 45.3451 26.4231 45.475 26.2472C47.6101 23.3665 48.8344 19.6534 48.8344 16.0586C48.8344 14.6556 48.5617 13.3358 48.0227 12.1373C47.5634 11.1139 46.9319 10.224 46.1424 9.48483C45.9106 8.87984 45.5697 8.31432 45.1406 7.82488C44.5033 7.0986 43.6859 6.54098 42.7099 6.1678C41.7252 5.79246 40.5619 5.60228 39.2493 5.60228L39.2515 5.60156Z" fill="#FFF8EC"/>
<path d="M23.9158 17.2386C25.331 16.9085 26.6996 15.3986 26.6996 14.3364C26.6996 13.8649 26.4405 13.6288 26.086 13.6288C25.4724 13.6288 24.7647 14.101 23.9158 17.2386ZM19.3148 21.9099C18.7486 21.5087 18.135 21.0846 17.4511 21.0846C16.7671 21.0846 16.2002 21.5798 16.2002 22.1697C16.2002 22.7596 16.7427 23.1845 17.3563 23.1845C18.2527 23.1845 18.89 22.5945 19.3148 21.9099ZM22.6182 21.8159C23.7981 22.5472 24.9772 23.0904 26.251 23.0904C27.3132 23.0904 28.0681 22.713 28.5633 22.123C28.7758 21.864 28.8934 21.7456 29.0585 21.7456C29.3183 21.7456 29.413 21.9106 29.413 22.1704C29.413 23.1615 28.2095 26.4879 25.8269 26.4879C24.2222 26.4879 22.7359 25.143 21.4858 23.7751C20.5183 25.4264 18.9144 26.4879 16.8145 26.4879C14.2898 26.4879 12.7568 25.214 12.7568 23.0194C12.7568 20.8248 14.668 19.4569 16.6494 19.4569C17.8056 19.4569 18.9847 19.8107 19.9758 20.3066C20.1645 19.8581 20.2585 19.5043 20.4006 18.9381C17.6642 18.4902 14.5496 16.9566 14.5496 14.2905C14.5496 12.5207 15.8945 11.1522 17.6405 11.1522C19.787 11.1522 20.6131 12.8745 20.6131 13.6532C20.6131 13.8419 20.4947 14.007 20.2829 14.007C20.0942 14.007 19.7878 13.8412 19.4806 13.8412C18.8907 13.8412 18.3718 14.4075 18.3718 15.1624C18.3718 16.1772 19.2452 16.8375 20.7781 17.3097C21.8396 12.9212 23.4679 10.6562 25.9927 10.6562C27.9038 10.6562 28.9652 11.6947 28.9652 13.4874C28.9652 15.9174 26.5352 18.4422 23.5383 18.9373C23.2555 19.9521 22.9483 20.9188 22.6182 21.8159Z" fill="#FFF8EC"/>
<path d="M36.68 24.5057C38.6148 24.5057 40.4786 20.3533 40.4786 17.0736C40.4786 15.3749 39.6999 14.7613 38.7325 14.7613C38.2137 14.7613 37.7185 14.9034 37.3403 15.1151C37.1278 15.2328 37.0338 15.3038 36.8925 15.3038C36.7511 15.3038 36.68 15.2098 36.68 15.044C36.68 13.9352 38.3314 12.3542 40.4786 12.3542C42.2484 12.3542 43.782 13.5578 43.782 16.0588C43.782 21.2023 40.1958 26.5582 35.6186 26.5582C32.5513 26.5582 30.2153 24.6471 30.2153 20.8011C30.2153 13.6525 35.5239 10.6562 39.2514 10.6562C40.7377 10.6562 41.4453 11.0337 41.4453 11.3875C41.4453 11.6 41.3032 11.694 41.0915 11.694C40.9027 11.694 40.5489 11.6466 39.959 11.6466C36.9154 11.6466 34.5557 14.7376 34.5557 20.471C34.5557 23.3022 35.4521 24.505 36.6793 24.505L36.68 24.5057Z" fill="#FFF8EC"/>
<path d="M21.0021 31.0505C19.4211 31.0505 17.7461 33.0793 17.7461 34.9905C17.7461 35.7691 18.1946 36.1229 18.6898 36.1229C18.9963 36.1229 19.2797 35.9342 19.4448 35.9342C19.6099 35.9342 19.6809 36.0282 19.6809 36.1933C19.6809 37.137 18.2886 38.8357 16.5663 38.8357C15.0326 38.8357 13.9712 37.6795 13.9712 36.0282C13.9712 32.0172 18.1473 29.3984 21.7808 29.3984C24.3048 29.3984 25.7207 30.5309 25.7207 32.5368C25.7207 35.4856 23.8807 38.5056 23.8807 41.1954C23.8807 41.7616 24.1871 42.2101 24.7297 42.2101C25.7207 42.2101 27.301 40.2753 28.4342 37.0903C28.9057 35.7691 29.2129 34.2828 29.2129 33.0793C29.2129 32.0179 28.5993 31.522 27.939 31.522C27.7029 31.522 27.5615 31.3799 27.5615 31.1919C27.5615 30.6256 28.8828 29.3984 30.4867 29.3984C31.9264 29.3984 32.8464 30.2948 32.8464 31.7811C32.8464 33.4798 32.3038 35.0371 31.4778 36.7595C29.2602 41.4781 25.4853 45.3477 22.5831 45.3477C20.672 45.3477 19.7046 44.1449 19.7046 42.4692C19.7046 39.1428 21.9702 36.3117 21.9702 32.1356C21.9702 31.3569 21.6401 31.0505 21.0028 31.0505H21.0021Z" fill="#FFF8EC"/>
<path d="M38.3912 42.4226C39.3586 42.4226 40.0899 41.7386 40.6088 41.125C40.9152 40.7712 41.0566 40.6298 41.2454 40.6298C41.4111 40.6298 41.5518 40.7475 41.5518 40.9126C41.5518 41.0777 41.4815 41.2664 41.3631 41.5499C40.8442 42.8 39.4756 45.3477 36.4083 45.3477C33.341 45.3477 31.6187 43.6727 31.6187 41.0066C31.6187 37.8683 34.1197 36.5004 35.2759 35.9808C34.4498 35.2732 33.8836 34.3295 33.8836 33.291C33.8836 31.1682 36.3136 29.3984 38.7199 29.3984C40.7968 29.3984 42.047 30.2711 42.047 31.8995C42.047 33.0793 41.3394 34.023 40.3483 34.023C39.617 34.023 39.0744 33.5515 39.0744 32.9143C39.0744 31.9942 40.0892 31.8995 40.0892 31.3096C40.0892 31.0268 39.9005 30.7907 39.3816 30.7907C38.3668 30.7907 37.4468 32.0653 37.4468 33.7403C37.4468 34.5426 37.8716 35.0141 37.8716 35.0141C37.8716 35.0141 38.4379 34.8491 39.0515 34.8491C39.8064 34.8491 40.3253 35.2969 40.3253 35.9342C40.3253 36.7832 39.6177 37.3731 38.7206 37.3731C37.8236 37.3731 37.3054 37.0903 37.0226 36.949C36.5978 37.2554 35.7954 38.4589 35.7954 39.9452C35.7954 41.6439 36.9279 42.4226 38.3905 42.4226H38.3912Z" fill="#FFF8EC"/>
</svg>
