<svg width="56" height="56" viewBox="0 0 56 56" fill="none" xmlns="http://www.w3.org/2000/svg">
<g clip-path="url(#clip0_4450_47752)">
<path d="M41.526 47.5984H14.8429C12.4447 47.5984 10.5 45.6543 10.5 43.2562V12.7413C10.5 10.3425 12.4441 8.39844 14.8429 8.39844H41.526C43.9241 8.39844 45.8689 10.3425 45.8689 12.7413V43.2562C45.8689 45.6543 43.9248 47.5984 41.526 47.5984Z" fill="#FFF8EC"/>
<path d="M41.5261 9.90234H14.843C13.2783 9.90234 12.0059 11.1748 12.0059 12.7395V43.2544C12.0059 44.8184 13.2789 46.0909 14.843 46.0909H41.5261C43.0908 46.0909 44.3632 44.8184 44.3632 43.2544V12.7395C44.3632 11.1748 43.0908 9.90234 41.5261 9.90234ZM43.0726 43.2544C43.0726 44.1073 42.379 44.8009 41.5255 44.8009H14.843C13.9901 44.8009 13.2965 44.1073 13.2965 43.2544V12.7395C13.2965 11.8866 13.9901 11.1923 14.843 11.1923H41.5261C42.379 11.1923 43.0732 11.8866 43.0732 12.7395V43.2544H43.0726ZM18.2602 13.1252H15.6319V19.8681H20.4038V17.7446H18.2602V13.1252ZM24.3258 12.9232C23.1531 12.9232 22.2638 13.1553 21.6775 13.6306C21.0811 14.1154 20.7474 15.016 20.7474 16.168C20.7474 17.6944 21.162 18.8371 21.9603 19.4642C22.4758 19.8687 23.224 20.0706 24.2349 20.0706C25.3067 20.0706 26.1558 19.848 26.6512 19.4435C27.3894 18.8164 27.8139 17.6944 27.8139 16.3091C27.8139 15.1771 27.5311 14.2571 27.0256 13.7416C26.48 13.196 25.57 12.9226 24.3265 12.9226L24.3258 12.9232ZM24.2851 18.0588C23.5676 18.0588 23.2641 17.574 23.2641 16.4314C23.2641 15.6023 23.5777 15.2386 24.2851 15.2386C24.9925 15.2386 25.296 15.6023 25.296 16.5832C25.296 17.564 24.9824 18.0588 24.2851 18.0588ZM31.6143 16.5217C31.5842 16.7042 31.5334 17.189 31.4626 17.9779H31.4118C31.3817 17.0679 31.361 16.8152 31.3008 16.5217L30.5426 13.1252H27.9143L29.6834 19.8681H33.1916L35.0008 13.1252H32.4026L31.6143 16.5217ZM35.527 19.8681H41.0972V18.1591H38.0242V17.4216H41.0972V15.8952H38.0242V15.127H41.0972V13.1252H35.527V19.8681ZM18.2602 20.7053H15.6319V27.4482H20.4038V25.3253H18.2602V20.7053ZM24.3258 20.5033C23.1531 20.5033 22.2638 20.736 21.6775 21.2107C21.0811 21.6961 20.7474 22.5961 20.7474 23.7487C20.7474 25.2752 21.162 26.4172 21.9603 27.0443C22.4758 27.4488 23.224 27.6507 24.2349 27.6507C25.3067 27.6507 26.1558 27.4281 26.6512 27.0236C27.3894 26.3971 27.8139 25.2752 27.8139 23.8898C27.8139 22.7572 27.5311 21.8372 27.0256 21.3217C26.48 20.7761 25.57 20.5027 24.3265 20.5027L24.3258 20.5033ZM24.2851 25.6389C23.5676 25.6389 23.2641 25.1541 23.2641 24.0115C23.2641 23.1831 23.5777 22.8187 24.2851 22.8187C24.9925 22.8187 25.296 23.1824 25.296 24.1626C25.296 25.1428 24.9824 25.6383 24.2851 25.6383V25.6389ZM31.6143 24.1024C31.5842 24.2843 31.5334 24.7691 31.4626 25.558H31.4118C31.3817 24.648 31.361 24.3953 31.3008 24.1024L30.5426 20.7053H27.9143L29.6834 27.4482H33.1916L35.0008 20.7053H32.4026L31.6143 24.1024ZM35.527 27.4482H41.0972V25.7393H38.0242V25.0017H41.0972V23.4753H38.0242V22.7071H41.0972V20.7053H35.527V27.4482ZM18.2602 28.2854H15.6319V35.0283H20.4038V32.9055H18.2602V28.2854ZM24.3258 28.0835C23.1531 28.0835 22.2638 28.3161 21.6775 28.7915C21.0811 29.2763 20.7474 30.1762 20.7474 31.3289C20.7474 32.8553 21.162 33.9979 21.9603 34.6244C22.4758 35.0289 23.224 35.2309 24.2349 35.2309C25.3067 35.2309 26.1558 35.0089 26.6512 34.6044C27.3894 33.9772 27.8139 32.8553 27.8139 31.47C27.8139 30.3374 27.5311 29.4174 27.0256 28.9019C26.48 28.3563 25.57 28.0828 24.3265 28.0828L24.3258 28.0835ZM24.2851 33.219C23.5676 33.219 23.2641 32.7336 23.2641 31.5916C23.2641 30.7626 23.5777 30.3988 24.2851 30.3988C24.9925 30.3988 25.296 30.7626 25.296 31.7434C25.296 32.7242 24.9824 33.219 24.2851 33.219ZM31.6143 31.6826C31.5842 31.8644 31.5334 32.3498 31.4626 33.1381H31.4118C31.3817 32.2282 31.361 31.9754 31.3008 31.6826L30.5426 28.2854H27.9143L29.6834 35.0283H33.1916L35.0008 28.2854H32.4026L31.6143 31.6826ZM35.527 35.0283H41.0972V33.32H38.0242V32.5819H41.0972V31.0554H38.0242V30.2872H41.0972V28.2854H35.527V35.0283ZM18.2602 35.8661H15.6319V42.609H20.4038V40.4856H18.2602V35.8661ZM24.3258 35.6642C23.1531 35.6642 22.2638 35.8962 21.6775 36.3716C21.0811 36.8564 20.7474 37.7569 20.7474 38.909C20.7474 40.4354 21.162 41.578 21.9603 42.2045C22.4758 42.6097 23.224 42.8116 24.2349 42.8116C25.3067 42.8116 26.1558 42.589 26.6512 42.1845C27.3894 41.5573 27.8139 40.4354 27.8139 39.0501C27.8139 37.9181 27.5311 36.9981 27.0256 36.4826C26.48 35.9364 25.57 35.6636 24.3265 35.6636L24.3258 35.6642ZM24.2851 40.7991C23.5676 40.7991 23.2641 40.3144 23.2641 39.1717C23.2641 38.3427 23.5777 37.9789 24.2851 37.9789C24.9925 37.9789 25.296 38.3427 25.296 39.3235C25.296 40.3043 24.9824 40.7991 24.2851 40.7991ZM31.6143 39.2627C31.5842 39.4452 31.5334 39.9299 31.4626 40.7189H31.4118C31.3817 39.8083 31.361 39.5562 31.3008 39.2627L30.5426 35.8661H27.9143L29.6834 42.609H33.1916L35.0008 35.8661H32.4026L31.6143 39.2627ZM35.527 42.609H41.0972V40.9001H38.0242V40.1626H41.0972V38.6355H38.0242V37.8673H41.0972V35.8661H35.527V42.609Z" fill="url(#paint0_linear_4450_47752)"/>
</g>
<defs>
<linearGradient id="paint0_linear_4450_47752" x1="28.1846" y1="46.0909" x2="28.1846" y2="9.90234" gradientUnits="userSpaceOnUse">
<stop stop-color="#E64F12"/>
<stop offset="1" stop-color="#FEB323"/>
</linearGradient>
<clipPath id="clip0_4450_47752">
<rect width="35.3689" height="39.2" fill="white" transform="translate(10.5 8.39844)"/>
</clipPath>
</defs>
</svg>
