<svg width="56" height="56" viewBox="0 0 56 56" fill="none" xmlns="http://www.w3.org/2000/svg">
<g clip-path="url(#clip0_4450_47745)">
<path d="M48.089 33.1027C48.0619 32.9135 48.0342 32.7256 48.0058 32.5389L48.0038 32.5299C47.989 32.4324 47.9741 32.3355 47.9586 32.2393C47.958 32.229 47.956 32.2187 47.9541 32.209C47.9399 32.1179 47.925 32.0282 47.9102 31.9378C47.9076 31.9223 47.9044 31.9061 47.9018 31.8906C47.8876 31.8054 47.874 31.7195 47.8592 31.6343C47.8553 31.6149 47.8527 31.5943 47.8488 31.5742C47.8346 31.4922 47.8198 31.4115 47.8062 31.3302C47.8023 31.3069 47.7978 31.2837 47.794 31.2617C47.7797 31.1816 47.7649 31.1029 47.7513 31.0247C47.7468 30.9995 47.7423 30.9757 47.7371 30.9511C47.7229 30.873 47.7081 30.7961 47.6945 30.718C47.6887 30.6928 47.6842 30.6676 47.6797 30.6431C47.6648 30.5663 47.65 30.4888 47.6351 30.4119C47.6306 30.3868 47.6261 30.3629 47.6209 30.3377C47.6054 30.2608 47.5893 30.1834 47.5744 30.1065C47.5699 30.0826 47.5654 30.0594 47.5596 30.0348C47.5441 29.9567 47.5279 29.8786 47.5111 29.8011C47.5073 29.7798 47.5027 29.7572 47.4982 29.7352C47.4814 29.6552 47.4646 29.5764 47.4472 29.4976C47.4433 29.4769 47.4388 29.4576 47.4343 29.4376C47.4169 29.3568 47.3988 29.2761 47.3813 29.1954C47.3775 29.178 47.3736 29.1599 47.3704 29.1431C47.3516 29.0598 47.3323 28.9759 47.3135 28.8932C47.3097 28.8784 47.3071 28.8642 47.3032 28.8493C47.2838 28.7641 47.2645 28.6795 47.2438 28.5942C47.2412 28.582 47.238 28.571 47.2354 28.5587C47.2147 28.4703 47.1947 28.3831 47.1734 28.2959C47.1715 28.2875 47.1689 28.2791 47.167 28.2701C47.1444 28.181 47.1231 28.0919 47.1011 28.0028L47.0966 27.984C47.0733 27.8923 47.0501 27.8013 47.0268 27.7103L47.0243 27.6993C47.0004 27.6063 46.9758 27.5127 46.9519 27.4197V27.4171C46.651 26.2832 46.3159 25.1997 45.9446 24.1711L45.942 24.164C45.913 24.082 45.8833 24.0012 45.8536 23.9205L45.8458 23.9018C45.8329 23.8656 45.82 23.8295 45.8058 23.7933C45.7974 23.772 45.789 23.7507 45.7819 23.7281C45.7729 23.7042 45.7632 23.6797 45.7541 23.6558C45.7393 23.6157 45.7238 23.5751 45.7076 23.535C45.6715 23.4414 45.6353 23.3478 45.5992 23.2535C45.5753 23.1934 45.5507 23.1327 45.5268 23.0727C45.4907 22.9836 45.4552 22.8945 45.419 22.8054C45.3932 22.7434 45.3667 22.682 45.3409 22.6194C45.3047 22.5329 45.2692 22.4476 45.2324 22.3624C45.2053 22.2991 45.1788 22.2371 45.1517 22.1751C45.1142 22.0906 45.0781 22.0073 45.04 21.9233C45.0128 21.8613 44.9851 21.8 44.9567 21.7386C44.9199 21.6553 44.8818 21.5727 44.8437 21.49C44.8146 21.43 44.7868 21.3706 44.7584 21.3099C44.7197 21.2272 44.6803 21.1439 44.6396 21.0613C44.6119 21.0038 44.5841 20.9463 44.5563 20.8895C44.5143 20.8049 44.4737 20.7216 44.4317 20.639C44.4039 20.5841 44.3762 20.5292 44.3471 20.4743C44.3045 20.3897 44.2606 20.3051 44.2173 20.2218C44.1902 20.1695 44.1624 20.1179 44.1347 20.0669C44.0895 19.9816 44.0436 19.8958 43.9984 19.8118C43.9713 19.7627 43.9448 19.7143 43.9177 19.6652C43.8693 19.5787 43.8221 19.4928 43.7737 19.4069C43.7479 19.3617 43.7208 19.3153 43.6949 19.2694C43.6446 19.1822 43.5948 19.0957 43.5445 19.0092C43.5186 18.9653 43.4915 18.922 43.4657 18.8781C43.414 18.7916 43.3624 18.7044 43.3094 18.6192C43.2836 18.5766 43.2571 18.5346 43.2313 18.4926C43.1777 18.4061 43.1248 18.3208 43.0705 18.2356C43.0434 18.1936 43.0169 18.153 42.9905 18.111C42.9356 18.0264 42.882 17.9418 42.8258 17.8592C42.798 17.8172 42.7703 17.7759 42.7425 17.7339C42.6889 17.6519 42.634 17.5705 42.5778 17.4898C42.5481 17.4459 42.5178 17.4033 42.4881 17.3607C42.4435 17.2967 42.3996 17.2315 42.3544 17.1682C42.3402 17.1489 42.3266 17.1301 42.3137 17.1108L42.3092 17.105L42.295 17.0856C42.2589 17.0346 42.2214 16.9836 42.1852 16.9332C42.1781 16.9229 42.1704 16.9125 42.1626 16.9028C42.1265 16.8525 42.0903 16.8034 42.0542 16.7543C42.0458 16.7434 42.0387 16.733 42.0303 16.722C41.9941 16.6736 41.9579 16.6252 41.9218 16.5774C41.9134 16.5664 41.905 16.5561 41.8966 16.5451C41.8611 16.498 41.8249 16.4502 41.7888 16.4031C41.7804 16.3921 41.772 16.3805 41.7629 16.3695C41.7274 16.323 41.6913 16.2765 41.6564 16.2313C41.6474 16.219 41.6377 16.2081 41.6286 16.1971C41.5931 16.1519 41.5582 16.106 41.5221 16.0615C41.513 16.0492 41.5034 16.0382 41.4943 16.026C41.4588 15.9814 41.4239 15.9375 41.3878 15.8942C41.3787 15.882 41.3684 15.8703 41.3587 15.8581C41.3232 15.8142 41.2883 15.7715 41.2528 15.7289C41.2425 15.716 41.2322 15.7037 41.2225 15.6915C41.187 15.6489 41.1527 15.6069 41.1179 15.5649C41.1069 15.5526 41.0966 15.5397 41.0862 15.5275C41.0507 15.4855 41.0165 15.4448 40.981 15.4041C40.97 15.3912 40.9597 15.379 40.9487 15.366C40.9145 15.326 40.8789 15.2853 40.8447 15.2453C40.8337 15.2324 40.8221 15.2195 40.8111 15.2072C40.7769 15.1672 40.7427 15.1284 40.7072 15.089C40.6962 15.0761 40.6846 15.0632 40.673 15.0503C40.6387 15.0115 40.6052 14.9734 40.5709 14.9353C40.5587 14.9211 40.547 14.9082 40.5348 14.8953C40.5006 14.8579 40.467 14.8204 40.4328 14.783C40.4205 14.7687 40.4089 14.7558 40.3966 14.7429C40.3624 14.7055 40.3288 14.6693 40.2952 14.6331C40.2823 14.6189 40.2694 14.606 40.2571 14.5925C40.2235 14.5563 40.19 14.5208 40.1557 14.4846C40.1435 14.4717 40.1306 14.4575 40.1176 14.4446C40.0841 14.4091 40.0505 14.3742 40.0176 14.3387C40.0046 14.3258 39.9917 14.3116 39.9775 14.298C39.9452 14.2638 39.9117 14.2302 39.8781 14.196C39.8652 14.1818 39.851 14.1682 39.838 14.154C39.8045 14.1204 39.7722 14.0869 39.7386 14.0539C39.7257 14.0397 39.7115 14.0262 39.6979 14.012C39.6656 13.9797 39.6327 13.9467 39.6004 13.9145C39.5856 13.9003 39.5707 13.8867 39.5565 13.8718C39.5242 13.8402 39.4926 13.8086 39.4597 13.7769C39.4448 13.7627 39.43 13.7479 39.4157 13.7343C39.3835 13.704 39.3518 13.6723 39.3202 13.6426C39.3053 13.6278 39.2898 13.6129 39.275 13.5981C39.2433 13.5684 39.2117 13.5387 39.1801 13.5083C39.1652 13.4941 39.1497 13.4792 39.1336 13.4657C39.1032 13.436 39.0716 13.4063 39.0406 13.3772C39.0251 13.3624 39.0083 13.3475 38.9922 13.3327C38.9618 13.3036 38.9308 13.2758 38.9005 13.2481C38.8837 13.2326 38.8669 13.2177 38.8501 13.2016C38.8204 13.1745 38.7907 13.1467 38.761 13.1196C38.7436 13.1041 38.7268 13.0892 38.7087 13.0731C38.679 13.0473 38.6499 13.0201 38.6202 12.9943C38.6028 12.9788 38.5847 12.9627 38.5673 12.9472C38.5382 12.9213 38.5098 12.8962 38.4801 12.8703C38.4627 12.8548 38.4446 12.8387 38.4265 12.8232C38.3974 12.798 38.369 12.7728 38.3413 12.7483C38.3225 12.7328 38.3045 12.7167 38.2857 12.7018C38.258 12.6766 38.2302 12.6527 38.2011 12.6282C38.1824 12.6127 38.163 12.5959 38.1443 12.5798C38.1166 12.5565 38.0894 12.5326 38.0617 12.5094C38.0423 12.4939 38.0229 12.4771 38.0029 12.4609C37.9758 12.4377 37.9493 12.4157 37.9222 12.3931C37.9015 12.3764 37.8815 12.3596 37.8609 12.3428C37.835 12.3202 37.8085 12.2989 37.7827 12.2776C37.7614 12.2608 37.7407 12.2433 37.7194 12.2265C37.6943 12.2059 37.6684 12.1846 37.6432 12.1646C37.6219 12.1478 37.6006 12.1303 37.5793 12.1135C37.5541 12.0929 37.529 12.0729 37.5044 12.0535C37.4831 12.0361 37.4605 12.0193 37.4392 12.0012C37.4153 11.9818 37.3901 11.9625 37.3656 11.9437C37.343 11.9263 37.321 11.9082 37.2984 11.8908C37.2745 11.872 37.25 11.8533 37.2268 11.8352C37.2035 11.8178 37.1803 11.7997 37.157 11.7823C37.1351 11.7649 37.1118 11.7461 37.0886 11.7287C37.0653 11.7113 37.0414 11.6925 37.0169 11.6751C36.9943 11.6583 36.973 11.6409 36.951 11.6241C36.9271 11.6067 36.9026 11.5879 36.8787 11.5705C36.8574 11.5537 36.8348 11.5382 36.8135 11.5214C36.7883 11.5027 36.7644 11.4853 36.7399 11.4665C36.7186 11.451 36.6973 11.4349 36.676 11.4194C36.6508 11.402 36.6269 11.3832 36.6017 11.3658C36.581 11.3503 36.5597 11.3355 36.5397 11.3193C36.5139 11.3006 36.4874 11.2819 36.4629 11.2638C36.4435 11.2496 36.4241 11.236 36.4041 11.2212C36.377 11.2024 36.3505 11.1837 36.324 11.1643C36.3053 11.1514 36.2859 11.1372 36.2672 11.1243C36.2401 11.1049 36.2136 11.0862 36.1865 11.0668C36.1691 11.0539 36.1503 11.041 36.1329 11.0287C36.1051 11.0094 36.0774 10.99 36.0503 10.9713C36.0328 10.959 36.0147 10.9461 35.9986 10.9338C35.9695 10.9144 35.9418 10.8951 35.914 10.8751C35.8972 10.8641 35.8804 10.8525 35.8636 10.8408C35.8359 10.8215 35.8068 10.8027 35.7791 10.7834C35.7623 10.7724 35.7455 10.7608 35.73 10.7498C35.7009 10.7304 35.6732 10.711 35.6447 10.6923C35.6292 10.6813 35.6131 10.6697 35.5976 10.66C35.5686 10.6407 35.5401 10.6219 35.5111 10.6026C35.4962 10.5922 35.4807 10.5819 35.4646 10.5709C35.4355 10.5522 35.4078 10.5335 35.3794 10.5141C35.3639 10.5038 35.349 10.4934 35.3329 10.4838C35.3038 10.465 35.2754 10.4457 35.2463 10.4269C35.2315 10.4179 35.2166 10.4076 35.2018 10.3979L35.1908 10.3901L35.3845 8.38646C35.4181 8.03454 35.2334 7.71039 34.9131 7.56187C34.5916 7.41207 34.2248 7.47987 33.9794 7.73299L32.6693 9.07479C32.6415 9.06575 32.6137 9.05542 32.586 9.04574C32.5718 9.04122 32.5589 9.0367 32.5459 9.03153C32.431 8.9915 32.3141 8.95275 32.1966 8.91336C32.1882 8.91078 32.1792 8.90755 32.1708 8.90497C31.9906 8.84621 31.8098 8.78809 31.6258 8.73256C31.1596 8.5905 30.6798 8.45749 30.1858 8.33351H30.1833C30.0257 8.29283 29.8668 8.25473 29.7048 8.21663L29.6893 8.21276C29.4923 8.16627 29.2934 8.12171 29.0933 8.07845C29.0784 8.07458 29.0629 8.07199 29.0468 8.06812C28.9622 8.05068 28.8776 8.0326 28.793 8.01517C28.7827 8.01259 28.7724 8.01065 28.7627 8.00871H28.7601C28.5948 7.9732 28.4288 7.94091 28.2603 7.90863H28.2577C28.1957 7.89571 28.1331 7.88473 28.0711 7.87247C28.0569 7.87053 28.0433 7.86795 28.0291 7.86472H28.0227L28.0143 7.86213C27.9652 7.85309 27.9148 7.84341 27.8645 7.83437C27.8386 7.82985 27.8135 7.82597 27.7876 7.82145C27.7431 7.81306 27.6992 7.80596 27.6546 7.79756C27.6062 7.78917 27.5578 7.78077 27.51 7.77238C27.4867 7.7685 27.4648 7.76398 27.4422 7.76011C23.4303 7.07694 19.5483 7.03303 16.7788 7.14474C16.7678 7.14539 16.7562 7.14539 16.7452 7.14668C16.6206 7.1512 16.4992 7.15701 16.3804 7.16217C16.3552 7.16282 16.3313 7.16476 16.3061 7.16605C16.2738 7.16799 16.2409 7.16863 16.2092 7.17057C16.1324 7.17444 16.0549 7.17896 15.9781 7.18284C15.9477 7.18477 15.918 7.18671 15.887 7.18865C15.7766 7.19446 15.6668 7.20092 15.5584 7.20737C15.5183 7.20996 15.4783 7.21319 15.4389 7.21577C15.3524 7.22158 15.2665 7.22675 15.1806 7.23256C15.1193 7.23708 15.0573 7.2416 14.9959 7.24547C14.9178 7.25128 14.8397 7.25774 14.7622 7.26291C14.7067 7.26743 14.6505 7.2713 14.5962 7.27582C14.5246 7.28163 14.4542 7.28809 14.3838 7.29325C14.316 7.29907 14.2475 7.30423 14.1797 7.31069C14.1048 7.31715 14.0293 7.3236 13.955 7.33135C13.9027 7.33587 13.8517 7.34039 13.802 7.3462C13.7064 7.3546 13.6115 7.36493 13.5172 7.37397C13.4875 7.37655 13.4572 7.38043 13.4275 7.38301C13.3125 7.39528 13.197 7.4069 13.084 7.42046H13.0775C11.0228 7.64969 9.26582 7.98611 8.14421 8.37677L8.13969 8.37871C8.11257 8.38775 8.08609 8.39743 8.05897 8.40777L8.04412 8.41358C8.01442 8.42391 7.98536 8.43489 7.95695 8.44522C7.94468 8.44974 7.93306 8.4562 7.92144 8.46265L7.91756 8.46459C7.90723 8.47105 7.8969 8.4788 7.88721 8.4859L7.88334 8.48848C7.8743 8.49688 7.8659 8.50527 7.85815 8.51431L7.85428 8.51818C7.84589 8.52722 7.83943 8.53756 7.83297 8.54724L7.83039 8.55305C7.82458 8.56338 7.81941 8.57372 7.81489 8.58469L7.81295 8.58921C7.80843 8.60148 7.80456 8.61246 7.80198 8.62473V8.6286C7.79939 8.64152 7.79746 8.65379 7.79617 8.6667V8.66864C7.79552 8.68155 7.79617 8.69576 7.79681 8.70867L7.79746 8.71061L7.80133 8.7345L7.80521 8.74871V8.75323C7.80973 8.76549 7.81425 8.77647 7.82006 8.7868V8.79068L7.82264 8.79326C7.82716 8.80359 7.83362 8.81392 7.84007 8.82296L7.84395 8.82878C7.8517 8.83782 7.8588 8.84621 7.86655 8.8546L7.87236 8.86042C7.88076 8.86816 7.88915 8.87527 7.89819 8.88172L7.904 8.88624C7.91304 8.8927 7.92337 8.89851 7.9337 8.90368L7.93822 8.90562C7.9492 8.91143 7.95953 8.91595 7.9718 8.91853L7.97438 8.92047C7.9873 8.92434 7.99957 8.92628 8.01248 8.92822H8.01506C8.82544 9.02959 9.89346 9.88388 10.1291 10.9493C10.3435 11.9166 9.84245 12.8516 8.67822 13.6671C8.65691 13.682 8.6356 13.6969 8.613 13.7117H8.61236C8.53745 13.764 8.45997 13.815 8.38054 13.8647C8.27658 13.93 8.23461 14.0617 8.28304 14.1747C8.33147 14.2877 8.4548 14.349 8.57361 14.3193C9.17736 14.1682 10.1485 14.484 10.7303 15.2737C11.387 16.1635 11.3263 17.3471 10.5624 18.6075C10.5172 18.6812 10.514 18.7729 10.5521 18.8497C10.5908 18.9265 10.667 18.9775 10.7529 18.9859C10.7781 18.9879 10.802 18.9918 10.8272 18.9937C10.8943 19.0008 10.9602 19.0079 11.0267 19.0163C11.0409 19.0182 11.0538 19.0202 11.0674 19.0221C11.1358 19.0305 11.2049 19.0395 11.2734 19.0499C11.2856 19.0518 11.2966 19.0537 11.3089 19.0557C11.3786 19.066 11.4484 19.077 11.5181 19.0893C11.5284 19.0912 11.5394 19.0931 11.5504 19.0957C11.6201 19.108 11.6886 19.1209 11.7583 19.1345C11.7693 19.1364 11.7803 19.139 11.7919 19.1422C11.8597 19.1564 11.9275 19.1713 11.9953 19.1861C12.0082 19.19 12.0211 19.1926 12.034 19.1964C12.0992 19.2113 12.1638 19.2268 12.229 19.2436C12.2445 19.2481 12.2607 19.2526 12.2762 19.2565C12.3375 19.2733 12.3989 19.2901 12.4589 19.3075C12.4796 19.3133 12.4989 19.3198 12.5183 19.3249C12.5751 19.3417 12.6307 19.3585 12.6862 19.376C12.7114 19.3843 12.7353 19.3927 12.7605 19.4011C12.8108 19.4179 12.8605 19.4347 12.9103 19.4521C12.9419 19.4625 12.9723 19.4747 13.0032 19.4857C13.0459 19.5012 13.0885 19.5174 13.1311 19.5329C13.1692 19.5477 13.2073 19.5632 13.2454 19.5781C13.2796 19.5923 13.3151 19.6058 13.3487 19.62C13.3958 19.6394 13.4417 19.6601 13.4882 19.6801C13.5134 19.6911 13.5385 19.7014 13.5631 19.7124C13.6186 19.7376 13.6735 19.7634 13.7284 19.7892C13.7439 19.7963 13.76 19.8041 13.7749 19.8118C13.8401 19.8435 13.9047 19.8757 13.9686 19.9093L13.9834 19.9171C15.2387 20.5718 16.3281 21.5546 17.2398 22.8596C18.4596 24.6043 18.8857 26.3013 18.8896 26.3181L18.8922 26.3284L18.8967 26.3433L18.9006 26.3523L18.9071 26.3672L18.9129 26.3775L18.9193 26.3898L18.9297 26.4046L18.9342 26.4111C18.9555 26.4388 18.9826 26.4614 19.013 26.4789C19.022 26.4834 19.0304 26.4873 19.0401 26.4911L19.0485 26.4937L19.0672 26.5002L19.0782 26.5021L19.0956 26.506H19.1066L19.1253 26.5086H19.1343C19.1466 26.5086 19.1582 26.5079 19.1705 26.506L19.1776 26.504C19.1905 26.5021 19.2028 26.4995 19.2151 26.495C19.6135 26.3555 21.8638 26.5266 24.4157 27.4914C24.6772 27.5908 24.9484 27.7012 25.2261 27.822C21.426 36.8866 17.1965 46.9572 16.8162 47.8489C16.7936 47.9025 16.7904 47.9632 16.8072 48.0188C16.9324 48.4385 17.1546 48.7149 17.4652 48.8408C17.5924 48.8918 17.7202 48.9112 17.8423 48.9112C18.1916 48.9112 18.4789 48.7517 18.4951 48.742C18.5442 48.7149 18.5823 48.6716 18.6036 48.6206L26.8449 28.6549C28.3294 29.5473 29.7435 30.8091 30.4764 32.5648L30.4822 32.5777C30.488 32.5906 30.4932 32.6029 30.4977 32.6158H30.4984L30.5009 32.6235L30.5093 32.641L30.5164 32.6519L30.5242 32.6642L30.5345 32.6784L30.5403 32.6855L30.5532 32.6984L30.5597 32.7049L30.5707 32.7152L30.5797 32.7223L30.5901 32.7288L30.6023 32.7372L30.6107 32.7411L30.6262 32.7494H30.6288L30.652 32.7598C30.7218 32.783 30.7986 32.774 30.8613 32.7346C30.8935 32.7139 30.9297 32.6946 30.9697 32.6752C31.7749 32.2852 34.0421 32.085 36.3634 32.4014C38.0914 32.6371 41.1876 33.3454 42.5126 35.4466C42.5184 35.4557 42.5249 35.4653 42.5313 35.4737L42.5462 35.4886L42.5527 35.4963L42.5701 35.5112L42.5778 35.517L42.5946 35.528L42.6037 35.5338L42.6204 35.5409L42.6327 35.5467L42.6476 35.5525L42.6624 35.557L42.6818 35.5609L42.6928 35.5628C42.7031 35.5635 42.7134 35.5648 42.7244 35.5648C42.7354 35.5648 42.7477 35.5641 42.7599 35.5622H42.7606L42.7709 35.5603L42.7916 35.5557H42.7942C42.8051 35.5519 42.8167 35.5473 42.8277 35.5428H42.8303C42.8413 35.5364 42.8529 35.5299 42.8626 35.5235L42.8729 35.5157L42.8923 35.4989L42.9026 35.4886L42.9181 35.4718L42.9272 35.4589L42.9394 35.4402L42.9472 35.426L42.9562 35.4066L42.962 35.3898L42.9659 35.3814C43.2584 34.3231 43.8589 33.5618 44.7048 33.1808C45.5927 32.7817 46.6678 32.8476 47.7326 33.3674C47.8159 33.4081 47.9147 33.3997 47.9896 33.3448C48.0645 33.2899 48.1026 33.1989 48.0897 33.1072L48.089 33.1027Z" fill="#171936"/>
<path d="M17.5643 47.9574C17.6063 48.0465 17.6625 48.1273 17.738 48.1583C17.7671 48.1692 17.8 48.175 17.8413 48.175C17.8962 48.175 17.953 48.1647 18.0021 48.1512L26.4914 27.5856L27.2223 28.0241C28.9761 29.0785 30.2359 30.3739 30.9714 31.881H30.9798C32.1569 31.4864 34.4014 31.3915 36.4626 31.673C38.1117 31.8978 40.9303 32.5357 42.5775 34.3302C42.983 33.4907 43.6042 32.8696 44.403 32.5105C45.2599 32.1244 46.2439 32.0844 47.2403 32.3853C47.2383 32.3762 47.2364 32.3665 47.2358 32.3562L47.2312 32.3259C47.2164 32.2368 47.2015 32.1476 47.1873 32.0585L47.1789 32.0114C47.1647 31.9281 47.1512 31.8442 47.137 31.7596L47.1266 31.7002C47.1124 31.6195 47.0989 31.5394 47.084 31.46L47.0717 31.3915C47.0588 31.3134 47.044 31.2352 47.0298 31.1584L47.0169 31.0861C47.0026 31.0092 46.9878 30.9331 46.9742 30.8569L46.9594 30.782C46.9452 30.7058 46.9303 30.6309 46.9155 30.5547L46.9013 30.4823C46.8864 30.4061 46.8709 30.33 46.8561 30.2538L46.8419 30.1834C46.8264 30.1065 46.8102 30.0303 46.7934 29.9529L46.7805 29.8876C46.7637 29.8095 46.7469 29.7314 46.7302 29.6539L46.7179 29.5945C46.7005 29.5144 46.6824 29.435 46.6649 29.3549L46.654 29.3039C46.6352 29.2219 46.6165 29.1405 46.5984 29.0585L46.5894 29.0159C46.57 28.9313 46.5506 28.848 46.5306 28.7641L46.5222 28.7299C46.5016 28.6427 46.4816 28.5574 46.4602 28.4716L46.4544 28.4444C46.4331 28.3573 46.4105 28.2688 46.3892 28.1816L46.3847 28.1629C46.3621 28.0732 46.3395 27.9828 46.3162 27.8937L46.3137 27.8807C46.2904 27.7916 46.2665 27.6999 46.242 27.6089C45.9488 26.4963 45.6163 25.4251 45.254 24.4216V24.4158C45.2237 24.3338 45.1946 24.255 45.1649 24.1762L45.0681 23.9173C45.061 23.8966 45.0526 23.8773 45.0448 23.8573C45.0371 23.8379 45.03 23.8185 45.0216 23.7985C44.9874 23.7075 44.9518 23.6158 44.9157 23.5247C44.8983 23.4795 44.8802 23.4356 44.8627 23.3911L44.8453 23.3471C44.8098 23.26 44.7756 23.1728 44.7394 23.085C44.7207 23.0385 44.7013 22.9933 44.6819 22.9468L44.6645 22.9042C44.629 22.8196 44.5941 22.7363 44.558 22.6523C44.5386 22.6059 44.5192 22.5594 44.4985 22.5142L44.4753 22.4612C44.4411 22.3824 44.4056 22.3024 44.3713 22.2236C44.35 22.1771 44.3294 22.1319 44.3081 22.0854L44.2893 22.0434C44.2512 21.9601 44.2151 21.8801 44.1776 21.8C44.1563 21.7554 44.1357 21.7115 44.1156 21.667L44.0917 21.6166C44.0543 21.5378 44.0175 21.4591 43.9794 21.3809C43.96 21.3402 43.9394 21.2989 43.9193 21.2582L43.8967 21.213C43.8561 21.1297 43.816 21.049 43.7753 20.969C43.7566 20.9322 43.7385 20.8953 43.7198 20.8585L43.6946 20.8095C43.652 20.7268 43.61 20.6442 43.5674 20.5628C43.5487 20.5286 43.53 20.4944 43.5125 20.4595L43.4867 20.4123C43.4422 20.3291 43.3982 20.2451 43.353 20.1625C43.3363 20.1308 43.3188 20.0992 43.3007 20.0675L43.2749 20.0204C43.2284 19.9371 43.1819 19.8525 43.1348 19.7699C43.118 19.7402 43.1012 19.7111 43.0844 19.6827L43.0573 19.6355C43.0089 19.551 42.9598 19.4664 42.9107 19.3831C42.8952 19.356 42.8791 19.3295 42.8636 19.303L42.8345 19.2559C42.7842 19.1713 42.7344 19.0867 42.6834 19.0034C42.6679 18.9776 42.6511 18.9511 42.635 18.9265L42.6072 18.8813C42.5556 18.798 42.5033 18.7135 42.4503 18.6308C42.4348 18.6056 42.4187 18.5817 42.4032 18.5572L42.3735 18.5107C42.3205 18.4281 42.2676 18.3467 42.214 18.2653C42.1985 18.2401 42.1817 18.215 42.1649 18.1911L42.1333 18.1439C42.0803 18.0652 42.0274 17.9851 41.9738 17.907C41.9563 17.8811 41.9376 17.8547 41.9202 17.8301L41.8433 17.7184C41.8143 17.6764 41.7859 17.6358 41.7568 17.5951L41.6994 17.5144C41.6638 17.464 41.629 17.4149 41.5928 17.3665L41.5715 17.3368C41.536 17.2884 41.5011 17.2399 41.4656 17.1921L41.4424 17.1618C41.4081 17.1147 41.3726 17.0682 41.3371 17.0217L41.3132 16.9894C41.2777 16.9429 41.2435 16.8977 41.2086 16.8519L41.1834 16.8196C41.1479 16.7744 41.1137 16.7298 41.0795 16.6853L41.0523 16.6517C41.0181 16.6078 40.9839 16.5645 40.949 16.5206L40.9213 16.4864C40.887 16.4425 40.8528 16.3998 40.8179 16.3585L40.7889 16.323C40.7547 16.281 40.7211 16.2397 40.6869 16.1977L40.6572 16.1616C40.6229 16.1209 40.5894 16.0796 40.5551 16.0402L40.5248 16.0034C40.4912 15.9633 40.457 15.9233 40.4234 15.8846L40.3911 15.8471C40.3588 15.8084 40.3246 15.769 40.291 15.7302L40.2588 15.6928C40.2252 15.654 40.1916 15.6159 40.1587 15.5778L40.1251 15.5404C40.0915 15.5029 40.0579 15.4655 40.025 15.428L39.9895 15.3893C39.9578 15.3538 39.9243 15.317 39.8913 15.2808L39.8558 15.2421C39.8235 15.2066 39.7906 15.1717 39.7577 15.1362L39.7215 15.0974C39.6892 15.0619 39.6563 15.0277 39.6234 14.9935L39.5859 14.9534C39.5536 14.9192 39.5207 14.8856 39.4884 14.8514L39.4503 14.8127C39.4187 14.7791 39.3864 14.7455 39.3535 14.7126L39.3134 14.6725C39.2818 14.6403 39.2501 14.6073 39.2185 14.575L39.1778 14.535C39.1462 14.5027 39.1145 14.4711 39.0829 14.4401L39.0409 14.3981C39.0093 14.3678 38.9789 14.3368 38.9473 14.3064L38.9047 14.2645C38.8743 14.2341 38.8433 14.2044 38.8117 14.1747L38.7678 14.1327C38.7374 14.103 38.7064 14.074 38.6761 14.0456L38.6315 14.0029C38.6012 13.9739 38.5715 13.9461 38.5405 13.9177L38.494 13.8738C38.4643 13.8467 38.4346 13.8189 38.4049 13.7918L38.3565 13.7472C38.3268 13.7201 38.2977 13.6943 38.2693 13.6672L38.2189 13.6226C38.1892 13.5955 38.1615 13.5703 38.1324 13.5458L38.0756 13.4948C38.0497 13.4715 38.0226 13.4483 37.9968 13.425L37.8076 13.2597C37.7798 13.2365 37.7527 13.2126 37.725 13.1893L37.1076 12.6786L36.376 12.111L35.7129 11.6312L35.0594 11.1844L34.7921 11.0081L34.4195 10.7659L34.6565 8.31932C34.6604 8.2767 34.6436 8.24764 34.6055 8.23021C34.5674 8.21277 34.5338 8.21794 34.5054 8.24893L32.8691 9.92458L32.3087 9.72763C32.1957 9.68953 32.0814 9.65079 31.969 9.61334L31.9438 9.60494C31.7637 9.54618 31.5848 9.49001 31.413 9.43706C30.9643 9.30081 30.4922 9.16844 30.008 9.04833L30.0015 9.0464C29.8485 9.00765 29.6922 8.96956 29.5379 8.9334L29.5237 8.93081C29.3306 8.88561 29.1337 8.84106 28.9386 8.79909L28.8934 8.78875C28.8121 8.77132 28.7281 8.75324 28.6455 8.73645L28.6119 8.7287C28.4492 8.69513 28.2852 8.66284 28.1225 8.6312L28.1031 8.62733C28.0476 8.61699 27.9914 8.60602 27.9371 8.59568L27.8803 8.58535C27.8332 8.57696 27.7835 8.56792 27.7344 8.55823L27.6582 8.54532C27.6156 8.53692 27.573 8.52982 27.529 8.52207C27.4806 8.51368 27.4335 8.50528 27.3863 8.49689L27.3192 8.48591C23.2828 7.79822 19.3762 7.77627 16.8088 7.87958L16.7752 7.88152C16.6525 7.88604 16.5331 7.89185 16.4149 7.89702L16.2457 7.90541C16.1708 7.90929 16.0946 7.91316 16.0185 7.91639L15.9287 7.9222C15.8202 7.92801 15.7124 7.93447 15.6045 7.94093L15.4857 7.94932C15.4011 7.95384 15.3166 7.9603 15.232 7.96611C15.1706 7.96998 15.1093 7.9745 15.0492 7.97902C14.9724 7.98483 14.8949 7.99 14.8187 7.99581C14.7638 8.00033 14.7089 8.00421 14.6534 8.00873C14.5837 8.01454 14.5139 8.0197 14.4455 8.02616C14.3777 8.03197 14.3112 8.03714 14.244 8.04295C14.1698 8.0507 14.0955 8.05716 14.0219 8.06361C13.9709 8.06813 13.9205 8.07265 13.8708 8.07782C13.7772 8.08686 13.6835 8.09654 13.5905 8.10558L13.5021 8.11462C13.3878 8.12689 13.2754 8.13852 13.1644 8.15078H13.1599C11.7173 8.31221 10.4414 8.52401 9.44568 8.76551C9.55997 8.84816 9.67103 8.93727 9.77822 9.03413C10.3232 9.52746 10.7022 10.1512 10.8443 10.7918C10.9889 11.4491 10.8953 12.0955 10.566 12.7121C10.38 13.0615 10.1185 13.3953 9.78532 13.7124C10.3729 13.9196 10.9328 14.3161 11.3202 14.8404C11.7438 15.4151 11.9478 16.106 11.911 16.8402C11.8858 17.3316 11.7567 17.8366 11.5268 18.3493C11.5688 18.3557 11.6069 18.3622 11.6437 18.3686C11.6527 18.3706 11.6624 18.3725 11.6715 18.3745H11.6792C11.7645 18.3912 11.8361 18.4048 11.9039 18.4184C11.913 18.4203 11.9233 18.4229 11.933 18.4248L11.9407 18.4268C12.0253 18.4442 12.0951 18.459 12.1609 18.4739C12.1713 18.4765 12.1822 18.4797 12.1932 18.4823L12.2023 18.4842C12.2739 18.501 12.3437 18.5185 12.414 18.5365C12.4263 18.5404 12.4392 18.5443 12.4521 18.5469L12.4651 18.5507C12.5322 18.5682 12.5981 18.5869 12.6639 18.6056C12.6788 18.6101 12.6943 18.6147 12.7091 18.6198L12.7285 18.6256C12.7886 18.6444 12.8499 18.6631 12.9106 18.6825C12.93 18.6883 12.9487 18.6947 12.9674 18.7012L13.0017 18.7122C13.0527 18.7296 13.1037 18.7464 13.154 18.7645C13.1779 18.7729 13.2025 18.7819 13.2264 18.7903L13.28 18.8097C13.3181 18.8239 13.3562 18.8374 13.3942 18.8523C13.4265 18.8646 13.4582 18.8775 13.4911 18.8904L13.5486 18.9136C13.5763 18.9246 13.6041 18.9362 13.6312 18.9472C13.6764 18.9666 13.721 18.986 13.7668 19.006L13.8069 19.0234C13.8262 19.0318 13.8456 19.0402 13.8643 19.0486C13.9257 19.0764 13.9851 19.1041 14.0451 19.1332L14.058 19.1396C14.071 19.1454 14.0832 19.1506 14.0961 19.1571C14.1633 19.1894 14.2337 19.2249 14.3054 19.2617L14.3228 19.2707C15.6814 19.9791 16.865 21.0471 17.842 22.4431C18.7679 23.7688 19.2664 25.077 19.4769 25.726C20.0064 25.7021 20.6902 25.7893 21.1222 25.8571C21.9319 25.9843 23.2047 26.2529 24.6763 26.8088C24.9623 26.9167 25.2464 27.0336 25.5209 27.1543L26.1808 27.4442L25.9025 28.1093C22.2677 36.7775 18.2501 46.3438 17.5656 47.9639L17.5643 47.9574ZM17.8407 49.6408C17.6121 49.6408 17.3932 49.6002 17.1898 49.5175C16.8256 49.3716 16.3433 49.028 16.1037 48.2261C16.0378 48.0072 16.0507 47.7702 16.1411 47.5597C16.5079 46.6983 20.5346 37.1106 24.2636 28.2159C24.2281 28.2017 24.192 28.1887 24.1558 28.1752C21.724 27.255 19.7481 27.1407 19.4298 27.1937C19.3923 27.206 19.3536 27.215 19.3136 27.2227H19.3097C19.2994 27.2253 19.289 27.2273 19.28 27.2286C19.2542 27.2331 19.2283 27.2357 19.2031 27.2376L19.1838 27.2402H19.1321C19.1166 27.2402 19.1018 27.2395 19.0856 27.2382C19.0662 27.2376 19.0469 27.2363 19.0281 27.2344C19.0133 27.2324 19.0004 27.2305 18.9862 27.2286C18.9629 27.2247 18.941 27.2202 18.9184 27.2156H18.9119C18.8997 27.2118 18.888 27.2079 18.8758 27.2053C18.8525 27.1989 18.8306 27.1924 18.806 27.184C18.7931 27.1795 18.7789 27.1737 18.766 27.1685C18.7298 27.1543 18.6962 27.1388 18.664 27.1214C18.5413 27.0555 18.4373 26.9664 18.3527 26.8566C18.3437 26.8444 18.3359 26.834 18.3288 26.823C18.3217 26.8127 18.3082 26.794 18.2946 26.7707C18.2862 26.7578 18.2772 26.743 18.2694 26.7268C18.261 26.7126 18.2539 26.6991 18.2468 26.6849L18.2449 26.6803C18.2365 26.6648 18.23 26.6481 18.2223 26.6313C18.2165 26.6171 18.2113 26.6035 18.2068 26.5893C18.199 26.5706 18.1939 26.5531 18.1894 26.5357C18.1848 26.5209 18.1803 26.5054 18.1764 26.4892C18.1739 26.4769 17.7645 24.8885 16.6377 23.2768C15.7996 22.0764 14.7916 21.1646 13.6454 20.5654L13.6312 20.5589C13.5679 20.5253 13.5105 20.4969 13.453 20.4692L13.4104 20.4485C13.3613 20.4253 13.311 20.4014 13.2612 20.3788C13.2503 20.373 13.238 20.3684 13.2257 20.3633L13.1754 20.342C13.1379 20.3252 13.1017 20.3097 13.0656 20.2948C13.0449 20.2864 13.0255 20.278 13.0055 20.2709L12.9397 20.2438C12.9158 20.2348 12.8912 20.2244 12.8673 20.2148C12.8376 20.2038 12.8073 20.1922 12.7769 20.1812L12.7137 20.1579C12.6982 20.1521 12.682 20.147 12.6652 20.1405C12.6233 20.1263 12.5819 20.1127 12.54 20.0985L12.4948 20.083C12.4838 20.0792 12.4715 20.0753 12.4605 20.0721C12.4102 20.0566 12.3592 20.0404 12.3081 20.0256L12.2533 20.0088C12.1977 19.9933 12.1416 19.9771 12.0854 19.9623L12.0428 19.95C11.9834 19.9352 11.9239 19.9203 11.8632 19.9061L11.8277 19.8977C11.7657 19.8829 11.7031 19.8699 11.6411 19.857L11.6095 19.8506C11.5462 19.8377 11.4823 19.8254 11.4183 19.8144L11.3886 19.8086C11.3254 19.7976 11.2608 19.7873 11.1962 19.777L11.1639 19.7724C11.1007 19.7634 11.0374 19.755 10.9734 19.7466L10.9354 19.7421C10.8753 19.735 10.8127 19.7279 10.7513 19.7214L10.7126 19.7169C10.7022 19.7163 10.6932 19.715 10.6829 19.7143C10.3432 19.6827 10.0488 19.4825 9.89574 19.1777C9.74271 18.873 9.75627 18.5165 9.93384 18.2253C10.3581 17.5253 10.7391 16.52 10.1392 15.7063C9.72786 15.1491 9.05631 14.9515 8.75024 15.0283C8.27757 15.1465 7.79651 14.9069 7.60667 14.4595C7.41618 14.0107 7.57761 13.4986 7.99087 13.2403C8.05286 13.2016 8.11614 13.1596 8.17942 13.1177L8.20008 13.1028C8.21429 13.0938 8.2272 13.0854 8.23883 13.0757L8.2582 13.0628C9.16931 12.4248 9.55803 11.7655 9.4121 11.1043C9.2384 10.3217 8.40219 9.71278 7.92372 9.65337L7.86044 9.64433C7.82686 9.63788 7.79457 9.62948 7.76293 9.62044L7.73065 9.61011C7.69642 9.59784 7.66285 9.58493 7.63056 9.57008C7.62217 9.56556 7.61313 9.56168 7.60473 9.55716C7.5647 9.53779 7.52854 9.51648 7.49238 9.4913C7.48204 9.48419 7.47107 9.47645 7.46009 9.4687C7.42845 9.44481 7.39423 9.41575 7.36194 9.3854L7.34063 9.36409C7.31093 9.33374 7.28123 9.29887 7.2554 9.26271C7.24829 9.25238 7.24248 9.24528 7.23667 9.23753C7.22182 9.21493 7.20697 9.19233 7.19276 9.16779L7.18243 9.15229L7.16177 9.11032C7.15531 9.09805 7.15079 9.08643 7.14498 9.07416C7.12948 9.038 7.11592 9.00184 7.10494 8.96568L7.09655 8.93985C7.09203 8.92306 7.08816 8.90628 7.08428 8.88949C7.0817 8.87916 7.07976 8.86818 7.07782 8.8572L7.07589 8.85074L7.07201 8.82492L7.07008 8.81006L7.06297 8.73645C7.06104 8.71127 7.06104 8.68609 7.06104 8.66155V8.65122L7.06297 8.62539C7.06491 8.58277 7.07008 8.53628 7.07976 8.49108L7.08622 8.45944C7.09526 8.41747 7.10946 8.37227 7.12625 8.32836C7.12884 8.31932 7.13271 8.31092 7.13658 8.30124C7.15402 8.25927 7.17468 8.21923 7.19664 8.17984L7.2089 8.16112C7.23409 8.12108 7.26121 8.08298 7.29091 8.04811L7.30641 8.02939C7.33611 7.99517 7.37033 7.96159 7.40585 7.93189L7.42716 7.91316C7.46461 7.88346 7.50335 7.85634 7.5421 7.83309L7.56792 7.81824C7.6099 7.79499 7.65251 7.77562 7.69578 7.75883C7.72613 7.74656 7.75906 7.73559 7.7907 7.72332L7.80813 7.71686C7.83719 7.70653 7.8656 7.6962 7.8966 7.68651L7.90047 7.68458C9.05631 7.28165 10.865 6.92908 12.9952 6.6921L13.0055 6.69017C13.1172 6.6779 13.2328 6.66628 13.3497 6.65401L13.4414 6.64368C13.537 6.63464 13.6338 6.62495 13.73 6.61591C13.7823 6.6101 13.834 6.60558 13.8863 6.60106C13.9612 6.59331 14.0374 6.58685 14.1149 6.57975C14.1833 6.57394 14.2524 6.56748 14.3221 6.56231C14.3938 6.5565 14.4649 6.55005 14.5365 6.54488C14.5933 6.54036 14.6495 6.53649 14.7064 6.53197C14.7851 6.52551 14.8639 6.5197 14.9433 6.51453C15.0053 6.51001 15.068 6.50549 15.1306 6.50162C15.2171 6.49516 15.3043 6.48935 15.3915 6.48418L15.5129 6.47579C15.6233 6.46933 15.735 6.46287 15.846 6.45642L15.939 6.4519C16.0159 6.44738 16.094 6.4435 16.1721 6.43963L16.3458 6.43059C16.4666 6.42478 16.5893 6.42026 16.7145 6.41509H16.7488C19.3865 6.30726 23.4029 6.32986 27.5646 7.03886L27.633 7.05112C27.6834 7.05952 27.7324 7.06791 27.7815 7.07631C27.8261 7.0847 27.8713 7.0931 27.9158 7.1002L27.9946 7.11505C28.045 7.12344 28.096 7.13378 28.147 7.14282L28.0198 7.86409L28.1528 7.14346L28.2051 7.1525C28.2671 7.16477 28.3297 7.17575 28.3917 7.18802L28.4092 7.19189C28.5706 7.22224 28.734 7.25517 28.8947 7.28875L28.9412 7.29779C29.0284 7.31652 29.1136 7.33395 29.2002 7.35268L29.2473 7.36301C29.4507 7.40756 29.656 7.45276 29.8562 7.50055L29.8711 7.50442C30.0357 7.54316 30.1997 7.5832 30.3612 7.62323L30.3689 7.62581C30.8758 7.75302 31.3698 7.88927 31.8386 8.03326C32.0207 8.08815 32.2079 8.1482 32.3984 8.21084L32.4242 8.21923C32.4384 8.22375 32.4533 8.22827 32.4669 8.23344L33.4529 7.22353C33.9197 6.74441 34.6145 6.6172 35.2209 6.89938C35.8278 7.18091 36.1778 7.79241 36.1139 8.45815L35.9628 10.0247L36.6285 10.4831L37.4815 11.1088L37.9606 11.4827L38.5315 11.9508L38.6754 12.0735C38.7052 12.0987 38.7342 12.1239 38.7626 12.1484L38.9634 12.3221C38.9912 12.3473 39.019 12.3725 39.0467 12.3964L39.1061 12.4493C39.1365 12.4771 39.1675 12.5042 39.1972 12.5313L39.2501 12.5798C39.2818 12.6075 39.3121 12.6353 39.3431 12.6644L39.3954 12.7115C39.4258 12.7393 39.4574 12.769 39.4891 12.798L39.5394 12.8445C39.5711 12.8742 39.6033 12.9046 39.635 12.9343L39.6821 12.9788C39.7144 13.0092 39.7473 13.0408 39.7796 13.0718L39.8268 13.117C39.8591 13.1487 39.892 13.1803 39.9243 13.2119L39.9695 13.2558C40.003 13.2881 40.0353 13.3211 40.0676 13.3533L40.1128 13.3979C40.1464 13.4315 40.18 13.4651 40.2129 13.498L40.2555 13.5419C40.2897 13.5755 40.3233 13.6097 40.3569 13.6439L40.3995 13.6878C40.4331 13.7221 40.4673 13.7576 40.5015 13.7924L40.5422 13.8351C40.5764 13.8706 40.6107 13.9074 40.6455 13.9435L40.6856 13.9842C40.7198 14.0204 40.754 14.0578 40.7889 14.0946L40.8289 14.1372C40.8625 14.1734 40.8974 14.2115 40.9322 14.2496L40.9703 14.2903C41.0059 14.329 41.0401 14.3671 41.0749 14.4065L41.1124 14.4472C41.1479 14.4859 41.1828 14.526 41.2183 14.566L41.2538 14.606C41.29 14.6461 41.3255 14.6868 41.3603 14.7274L41.3959 14.7675C41.4314 14.8081 41.4662 14.8495 41.5018 14.8908L41.5353 14.9295C41.5715 14.9715 41.6077 15.0141 41.6438 15.0568L41.6761 15.0955C41.7116 15.1381 41.7478 15.182 41.7839 15.2246L41.8156 15.2627C41.8517 15.3073 41.8879 15.3512 41.9241 15.3958L41.9538 15.4332C41.9912 15.4784 42.0274 15.5243 42.0642 15.5695L42.0932 15.6056C42.1294 15.6521 42.1669 15.6986 42.203 15.7451L42.2308 15.7806C42.2682 15.8277 42.305 15.8762 42.3425 15.9233L42.3683 15.9575C42.4058 16.006 42.4426 16.055 42.48 16.1035L42.5059 16.1377C42.5433 16.1868 42.5801 16.2371 42.6176 16.2875L42.6415 16.3198C42.6796 16.3708 42.7164 16.4218 42.7538 16.4728L42.7771 16.5045C42.8145 16.5568 42.852 16.6084 42.8894 16.6607L42.9508 16.746C42.983 16.7924 43.016 16.8376 43.0476 16.8841L43.1199 16.9887C43.1406 17.0184 43.1606 17.0475 43.1813 17.0772C43.2387 17.1599 43.2943 17.2444 43.3511 17.3277L43.3802 17.3717C43.3995 17.4007 43.4183 17.4285 43.437 17.4569C43.4938 17.5421 43.5493 17.6293 43.6062 17.7158L43.6339 17.7584C43.6514 17.7875 43.6701 17.8153 43.6875 17.8437C43.7431 17.9308 43.7979 18.0193 43.8528 18.1071L43.8787 18.1491C43.8974 18.1788 43.9148 18.2079 43.9335 18.2376C43.9871 18.326 44.0401 18.4151 44.093 18.5042L44.1202 18.5488C44.1376 18.5785 44.1563 18.6082 44.1737 18.6386C44.2261 18.727 44.2771 18.8161 44.3281 18.9052L44.3539 18.9491C44.3726 18.9814 44.3914 19.0144 44.4094 19.0467C44.4585 19.1338 44.5076 19.2229 44.5573 19.3114L44.5812 19.356C44.6006 19.3915 44.6199 19.4263 44.64 19.4618C44.6871 19.5484 44.7336 19.6362 44.7801 19.7234L44.804 19.7686C44.8246 19.8067 44.8447 19.8435 44.864 19.8816C44.9092 19.9681 44.9538 20.054 44.9977 20.1405L45.0229 20.1889C45.0435 20.229 45.0636 20.269 45.0842 20.3084C45.1268 20.393 45.1688 20.4782 45.2108 20.5628L45.2334 20.6099C45.256 20.6538 45.2773 20.6971 45.2986 20.7417C45.3386 20.8243 45.3774 20.907 45.4174 20.9896L45.4407 21.0387C45.4626 21.0858 45.4852 21.1336 45.5078 21.1808C45.5459 21.2641 45.5846 21.3486 45.6227 21.4332L45.6434 21.4771C45.6654 21.5262 45.688 21.5753 45.7093 21.625C45.7467 21.7077 45.7835 21.791 45.8197 21.8749L45.8423 21.9272C45.8636 21.9763 45.8849 22.0254 45.9062 22.0751C45.9437 22.1622 45.9805 22.2507 46.0179 22.3385L46.0354 22.3805C46.056 22.4296 46.076 22.4786 46.0967 22.529C46.1335 22.6188 46.1703 22.7098 46.2071 22.8022L46.2239 22.8448C46.2433 22.8919 46.262 22.9397 46.2814 22.9868C46.3188 23.0824 46.3556 23.178 46.3918 23.2735L46.4112 23.3239C46.4202 23.3478 46.4305 23.373 46.4402 23.3982L46.4777 23.4963C46.4822 23.5105 46.488 23.5234 46.4932 23.537C46.5016 23.5609 46.5106 23.5861 46.5203 23.6106L46.5416 23.6694C46.5713 23.7501 46.6017 23.8327 46.6314 23.916L46.6333 23.9205C47.0104 24.9679 47.3559 26.0805 47.6593 27.2318C47.6852 27.3286 47.7097 27.4229 47.7342 27.5185L47.7368 27.5295C47.7601 27.6212 47.784 27.7141 47.8072 27.8071L47.8117 27.8258C47.8343 27.9169 47.8563 28.0079 47.8789 28.099L47.8853 28.1261C47.9067 28.2146 47.928 28.3024 47.9493 28.3915L47.9577 28.427C47.9783 28.5142 47.9977 28.6007 48.0177 28.6872L48.028 28.7318C48.0468 28.8164 48.0661 28.901 48.0849 28.9856L48.0971 29.0385C48.1146 29.1205 48.1333 29.2032 48.1507 29.2852L48.1637 29.3452C48.1811 29.4259 48.1979 29.506 48.2147 29.5867L48.2289 29.6539C48.2457 29.7327 48.2624 29.8127 48.2779 29.8915L48.2928 29.9638C48.3083 30.042 48.3244 30.1201 48.3393 30.1989L48.3541 30.2731C48.369 30.3519 48.3845 30.43 48.3993 30.5082L48.4135 30.585C48.4284 30.6631 48.4432 30.7419 48.4581 30.8207L48.471 30.895C48.4859 30.975 48.5007 31.0544 48.5149 31.1345L48.5278 31.2049C48.542 31.2875 48.5569 31.3689 48.5705 31.4516L48.5808 31.5136C48.5956 31.5988 48.6105 31.6853 48.6247 31.7718L48.6331 31.8203C48.6479 31.912 48.6628 32.003 48.6776 32.0953L48.6822 32.1276C48.6977 32.2245 48.7138 32.3226 48.7287 32.4208V32.4285C48.7609 32.6339 48.7887 32.8205 48.8152 33.0006C48.8675 33.3629 48.7157 33.72 48.4206 33.9356C48.1256 34.1513 47.7381 34.1842 47.4107 34.0248C46.5442 33.6012 45.6905 33.5392 45.0048 33.8472C44.1964 34.2114 43.8328 34.9875 43.6707 35.5738C43.6662 35.5926 43.6598 35.6113 43.6533 35.6307C43.6475 35.6455 43.643 35.6597 43.6378 35.6746C43.6275 35.6997 43.6158 35.7256 43.6023 35.7514C43.5933 35.7708 43.5829 35.7895 43.5719 35.8082C43.559 35.8315 43.5442 35.8547 43.5254 35.8799C43.5132 35.8973 43.5016 35.9135 43.4893 35.929C43.466 35.958 43.4454 35.9793 43.4318 35.9942C43.417 36.0097 43.4021 36.0245 43.3866 36.0388C43.3608 36.0626 43.3363 36.0814 43.3188 36.0943C43.3065 36.1033 43.2898 36.1162 43.2697 36.1304C43.231 36.1563 43.1877 36.1808 43.1451 36.2008L43.109 36.2183L43.0883 36.2247C43.0754 36.2305 43.0625 36.2351 43.0496 36.2396L43.0373 36.2454L42.9889 36.2596C42.963 36.2667 42.9398 36.2719 42.9211 36.2751C42.9081 36.2777 42.892 36.2809 42.8739 36.2835L42.8352 36.2893C42.7583 36.2977 42.6802 36.2977 42.604 36.2886C42.5814 36.2861 42.562 36.2822 42.5472 36.2796C42.5317 36.277 42.5084 36.2725 42.4813 36.2654C42.4561 36.2589 42.4361 36.2525 42.4219 36.248C42.4064 36.2434 42.3877 36.237 42.3651 36.2286C42.3425 36.2196 42.3244 36.2112 42.3102 36.2047C42.2934 36.197 42.274 36.1879 42.2502 36.175C42.2334 36.1647 42.2179 36.1563 42.2062 36.1492C42.192 36.1408 42.172 36.1266 42.1488 36.1104C42.132 36.0982 42.1191 36.0878 42.1087 36.0801C42.0939 36.0691 42.0745 36.053 42.0532 36.0316C42.0377 36.0174 42.0242 36.0039 42.0145 35.9936C42.0022 35.9806 41.9854 35.9632 41.966 35.94C41.9409 35.9096 41.9157 35.8747 41.8924 35.8399C40.7263 33.9886 37.8657 33.3461 36.2637 33.1278C33.9481 32.8121 31.887 33.0458 31.2891 33.3358C31.2684 33.3461 31.2548 33.3532 31.2484 33.3584C31.0011 33.5114 30.7015 33.5476 30.4257 33.4578C30.4064 33.4514 30.3876 33.4449 30.3689 33.4371L30.3566 33.4333L30.325 33.4191C30.3018 33.4081 30.283 33.3984 30.2682 33.39C30.2553 33.3836 30.2424 33.3758 30.2301 33.3687C30.2191 33.3622 30.2075 33.3558 30.1978 33.3493H29.9247L29.7994 32.8489L29.7936 32.8347C29.3035 31.6692 28.4279 30.6354 27.1836 29.752L19.2806 48.9002C19.1973 49.1023 19.0456 49.2734 18.8545 49.3812C18.7783 49.4252 18.3644 49.6441 17.8413 49.6441L17.8407 49.6408Z" fill="#FFF9F3"/>
<path d="M32.5159 8.98945C32.5288 8.99332 32.5417 8.99784 32.5546 9.00236L32.6611 9.03981L32.7696 8.92811C32.6889 8.96233 32.6024 8.98364 32.5152 8.98945H32.5159ZM8.03211 8.8984C8.28071 8.93198 8.55321 9.034 8.81731 9.19091C8.70431 9.02561 8.65781 8.81833 8.69785 8.61558C8.7353 8.42509 8.84184 8.25979 8.9923 8.14872C8.68106 8.23073 8.40017 8.31467 8.15092 8.4012L8.14188 8.40507C8.11993 8.41282 8.09281 8.42251 8.06698 8.43219L8.04955 8.43865C8.02372 8.44769 7.99466 8.45802 7.96689 8.469C7.95785 8.47158 7.94946 8.47675 7.93977 8.48127L7.92751 8.48772L7.90684 8.50258L7.89651 8.51097L7.87779 8.5297L7.87391 8.53422C7.86745 8.54261 7.861 8.55101 7.85454 8.56134H7.85389C7.84808 8.57361 7.84292 8.58265 7.83904 8.59169L7.8371 8.59814C7.83323 8.60718 7.83065 8.61687 7.83 8.62139L7.82613 8.63818C7.82354 8.65109 7.82354 8.66078 7.82354 8.66207V8.66788L7.8229 8.6724V8.68079L7.82677 8.71631L7.83388 8.74537L7.84162 8.76603L7.84615 8.77507L7.84808 8.77894L7.8526 8.78734L7.861 8.80154L7.86875 8.81058L7.88553 8.83125L7.89135 8.83706C7.90039 8.8461 7.90878 8.85256 7.91072 8.85385L7.92169 8.8616C7.93009 8.86805 7.93719 8.87257 7.94688 8.87645L7.95269 8.87903L7.97206 8.88742L7.98691 8.89194L7.99595 8.89388L8.0334 8.90034L8.03211 8.8984ZM35.2208 10.3739L35.3331 10.4481C35.2905 10.3842 35.2563 10.3132 35.2337 10.2389L35.2208 10.3732V10.3739ZM8.88834 14.2501C9.02135 14.2501 9.16212 14.2669 9.30676 14.2992C9.17245 14.1907 9.07624 14.0383 9.03943 13.8646C9.00327 13.6967 9.02523 13.525 9.09819 13.3745C8.9768 13.4778 8.84184 13.5805 8.69462 13.6845L8.67525 13.6987C8.6604 13.709 8.6449 13.7193 8.62876 13.7303L8.61326 13.7413L8.6068 13.7458C8.53642 13.793 8.46474 13.8394 8.39436 13.884C8.29944 13.9428 8.26457 14.0558 8.30783 14.1591C8.35174 14.2611 8.45764 14.314 8.56612 14.2869C8.66556 14.2617 8.77404 14.2495 8.88898 14.2495L8.88834 14.2501ZM11.0722 18.9903C11.0935 18.9929 11.1148 18.9962 11.1374 18.9987C11.1199 18.9884 11.1038 18.9774 11.087 18.9665C11.0683 18.9729 11.0496 18.9794 11.0315 18.9852H11.036L11.0722 18.991V18.9903ZM24.7911 27.6649C24.8647 27.7353 24.9228 27.8212 24.9635 27.9155C25.0055 28.013 25.0255 28.1169 25.0249 28.2203C25.0785 28.0911 25.1333 27.9613 25.1876 27.8322C25.0578 27.7754 24.9248 27.7198 24.7911 27.6649ZM26.8568 28.6916L26.6411 29.2114C26.7321 29.1204 26.8451 29.0519 26.9717 29.0158C27.095 28.9803 27.2235 28.977 27.3456 29.0035C27.1867 28.897 27.0247 28.793 26.8561 28.6916H26.8568ZM30.6407 32.7203L30.6491 32.7242L30.6594 32.728C30.7214 32.7487 30.7892 32.7403 30.8454 32.7061C30.8796 32.6848 30.9158 32.6654 30.9558 32.646L30.9668 32.6402C30.7724 32.6396 30.591 32.5653 30.4534 32.4368C30.4676 32.4704 30.4812 32.5027 30.4954 32.535L30.5031 32.5517C30.5173 32.5873 30.529 32.6221 30.5387 32.6596V32.6641C30.5645 32.6764 30.589 32.6899 30.6123 32.7061L30.6181 32.7087L30.6413 32.7209H30.642L30.6407 32.7203ZM34.0391 30.7457C34.8598 30.7457 35.7244 30.8012 36.5639 30.9155C38.0309 31.1163 40.5815 31.6639 42.418 33.1413C42.8648 32.5621 43.4311 32.1107 44.0891 31.8137C44.7768 31.5037 45.529 31.3772 46.3065 31.4359C46.2981 31.3875 46.2897 31.3404 46.2806 31.2919L46.2677 31.2196C46.2535 31.1454 46.24 31.0698 46.2258 30.9949L46.2116 30.92C46.1973 30.8477 46.1825 30.7721 46.1676 30.6972L46.1534 30.6236C46.1386 30.55 46.1237 30.4758 46.1089 30.4009L46.0947 30.3305C46.0792 30.2562 46.0643 30.1807 46.0482 30.1051L46.034 30.0392C46.0185 29.9643 46.0017 29.8869 45.9849 29.81L45.9726 29.7513C45.9559 29.6744 45.9384 29.595 45.921 29.5175L45.91 29.4665C45.8926 29.3864 45.8745 29.3057 45.8564 29.2263L45.8461 29.1837C45.8274 29.101 45.808 29.0184 45.7893 28.937L45.7809 28.9028C45.7602 28.8175 45.7402 28.7336 45.7208 28.649L45.7137 28.6213C45.693 28.538 45.6717 28.4514 45.6504 28.3649L45.6459 28.3442C45.6233 28.2577 45.6014 28.1699 45.5788 28.0814L45.5749 28.0672C45.5523 27.9807 45.5297 27.8909 45.5064 27.8018C45.2178 26.7119 44.893 25.6606 44.5379 24.6772L44.5353 24.6707C44.5075 24.592 44.4797 24.5145 44.4507 24.4376L44.3551 24.1813C44.3493 24.1671 44.3428 24.1496 44.3357 24.1322L44.3106 24.067C44.277 23.9798 44.2428 23.8894 44.2072 23.8003C44.1905 23.7564 44.173 23.7138 44.1562 23.6712L44.1388 23.6273C44.1046 23.542 44.0704 23.4561 44.0355 23.3722C44.0168 23.3276 43.998 23.2831 43.9799 23.2385L43.9574 23.1862C43.9251 23.1062 43.8915 23.0274 43.8579 22.9493C43.8385 22.9047 43.8192 22.8601 43.7991 22.8156L43.772 22.7536C43.7397 22.6793 43.7068 22.6051 43.6739 22.5308C43.6545 22.4863 43.6351 22.4424 43.6145 22.3978L43.5841 22.33C43.5505 22.2577 43.5189 22.188 43.4866 22.1182C43.4698 22.0808 43.453 22.0459 43.4363 22.0104L43.4027 21.9406C43.3652 21.8625 43.3291 21.7857 43.2929 21.7095C43.2755 21.6733 43.2574 21.6372 43.2393 21.601L43.207 21.5351C43.1689 21.4583 43.1321 21.3827 43.0947 21.3085C43.0772 21.273 43.0592 21.2387 43.0411 21.2039L43.0159 21.1535C42.9739 21.0728 42.9332 20.9921 42.8913 20.9133C42.8771 20.8875 42.8641 20.861 42.8506 20.8352L42.8131 20.7667C42.7705 20.6847 42.7266 20.604 42.6833 20.5246C42.6666 20.4942 42.6511 20.4645 42.6343 20.4348L42.6084 20.3877C42.562 20.305 42.5174 20.2237 42.4709 20.1423C42.4567 20.1184 42.4438 20.0939 42.4302 20.0706L42.3966 20.0119C42.3495 19.9292 42.3017 19.8466 42.2539 19.7659C42.241 19.7433 42.2281 19.7207 42.2139 19.6981L42.1816 19.6432C42.1313 19.5599 42.0822 19.4779 42.0331 19.3972L41.9608 19.279C41.9085 19.1963 41.8588 19.1156 41.8078 19.0349C41.7948 19.0142 41.7826 18.9949 41.7697 18.9755L41.7335 18.92C41.6812 18.8392 41.6302 18.7592 41.5785 18.6804C41.5643 18.6597 41.5508 18.6397 41.5366 18.6191L41.5004 18.5655C41.4481 18.4867 41.3971 18.4105 41.3454 18.3343C41.328 18.3091 41.3118 18.2859 41.2951 18.2626L41.2163 18.1496C41.1885 18.1096 41.1627 18.0708 41.1343 18.0315L41.0787 17.9546C41.0445 17.9055 41.0103 17.8578 40.9754 17.8106L40.9541 17.7816C40.9199 17.7344 40.8857 17.6879 40.8521 17.6414L40.8288 17.6117C40.7953 17.5665 40.7617 17.5207 40.7275 17.4755L40.7042 17.4458C40.67 17.4006 40.6364 17.356 40.6022 17.3108L40.5789 17.2805C40.5447 17.2366 40.5111 17.1933 40.4776 17.1507L40.4517 17.1184C40.4182 17.0758 40.3846 17.0332 40.3517 16.9912L40.3245 16.9576C40.2922 16.9157 40.2587 16.8743 40.2244 16.833L40.1986 16.7994C40.1644 16.7575 40.1308 16.7174 40.0985 16.6767L40.0708 16.6432C40.0372 16.6031 40.0049 16.5631 39.9713 16.5243L39.9416 16.4888C39.9093 16.4501 39.8764 16.412 39.8435 16.3726L39.8131 16.3371C39.7808 16.299 39.7479 16.2609 39.7156 16.2241L39.684 16.1879C39.6517 16.1505 39.6188 16.1137 39.5865 16.0762L39.5548 16.0407C39.5226 16.0033 39.4896 15.9671 39.458 15.9322L39.4225 15.8935C39.3921 15.8599 39.3592 15.8237 39.3275 15.7889L39.2933 15.7527C39.2617 15.7172 39.23 15.683 39.1984 15.6494L39.1622 15.6107C39.1306 15.5771 39.099 15.5435 39.0673 15.5106L38.9014 15.3362C38.8691 15.3026 38.8381 15.2704 38.8064 15.2387L38.7683 15.1987C38.738 15.169 38.707 15.1373 38.6767 15.1057L38.6366 15.0657C38.6063 15.0353 38.5753 15.0043 38.5449 14.9746L38.5042 14.9339C38.4745 14.9042 38.4448 14.8745 38.4151 14.8455L38.2395 14.6763C38.2098 14.6472 38.1807 14.6195 38.151 14.5917L37.9748 14.4258C37.9451 14.3986 37.9173 14.3728 37.8882 14.347L37.7081 14.1823C37.679 14.1565 37.6525 14.132 37.6248 14.1081L37.3071 13.8285C37.2838 13.8091 37.2587 13.7878 37.2335 13.7665L36.631 13.2667L35.9181 12.7152L35.2731 12.2471L34.6345 11.8106L34.0042 11.3973C33.7666 11.2424 33.6349 10.9686 33.6614 10.6864L33.7143 10.1421L33.4128 10.4501C33.2068 10.6619 32.8955 10.7342 32.6172 10.6367L32.0567 10.441C31.9502 10.4036 31.8398 10.3668 31.7307 10.3306L31.7055 10.3229C31.5292 10.2641 31.3555 10.2099 31.1902 10.1595C30.7537 10.0258 30.2933 9.89862 29.8219 9.77981L29.8135 9.77723C29.6656 9.74107 29.5139 9.70361 29.3641 9.66875L29.3492 9.66487C29.162 9.62096 28.9696 9.5777 28.7784 9.53573L28.7339 9.52669C28.6532 9.50925 28.5724 9.49246 28.4904 9.47568L28.4569 9.46857C28.2993 9.43629 28.1385 9.40465 27.9797 9.37365L27.9584 9.36978C27.9048 9.3588 27.8505 9.34847 27.7969 9.33814L27.7414 9.32781C27.6949 9.31941 27.6478 9.31102 27.5993 9.30198L27.1906 9.2303C23.2207 8.55359 19.3703 8.53292 16.8397 8.63495H16.8061C16.6867 8.64141 16.5672 8.64593 16.4516 8.65174L16.2838 8.66013C16.2101 8.66401 16.1352 8.66723 16.061 8.67111L15.9712 8.67692C15.8653 8.68273 15.7588 8.68919 15.6529 8.69565L15.5347 8.70339C15.4521 8.70921 15.3688 8.71437 15.2848 8.72018C15.2248 8.72406 15.1654 8.72858 15.1047 8.7331C15.0285 8.73891 14.9536 8.74408 14.8774 8.74989L14.716 8.7628C14.6475 8.76861 14.5784 8.77378 14.51 8.77959C14.4441 8.7854 14.3782 8.79057 14.3124 8.79638C14.2388 8.80284 14.1664 8.80929 14.0941 8.81704L13.9443 8.83125C13.8526 8.83964 13.7603 8.84868 13.6686 8.85837L13.5814 8.86741C13.4697 8.87838 13.3593 8.89065 13.2489 8.90292H13.2424C12.4236 8.99461 11.6546 9.10439 10.963 9.22578C11.2659 9.65971 11.4809 10.1356 11.5881 10.6225C11.7741 11.4619 11.6565 12.2846 11.2388 13.0665C11.1645 13.2041 11.0818 13.3403 10.9889 13.474C11.353 13.7239 11.674 14.0332 11.9329 14.3831C12.4624 15.1012 12.7168 15.9626 12.671 16.8743C12.6561 17.1714 12.609 17.4723 12.5315 17.7758C12.5554 17.7816 12.5799 17.788 12.6038 17.7945C12.6206 17.7984 12.6374 17.8029 12.6542 17.8074L12.6645 17.81C12.7349 17.8287 12.8046 17.8481 12.8744 17.8687C12.895 17.8745 12.9144 17.8797 12.9338 17.8862L12.9486 17.8907C13.0106 17.9094 13.0765 17.9288 13.1417 17.9501C13.1656 17.9578 13.1888 17.9649 13.2121 17.9733L13.2424 17.9837C13.2954 18.0011 13.3509 18.0192 13.4058 18.0392C13.4329 18.0482 13.4607 18.0586 13.4884 18.0689L13.5414 18.0883C13.5801 18.1025 13.6234 18.118 13.666 18.1335C13.7035 18.1483 13.7396 18.1625 13.7758 18.1774L13.8307 18.2C13.8597 18.211 13.892 18.2239 13.9237 18.2381C13.9727 18.2575 14.0218 18.2801 14.0722 18.3014L14.1148 18.3201C14.1355 18.3291 14.1555 18.3375 14.1761 18.3472C14.242 18.3769 14.3053 18.4073 14.3692 18.437L14.3795 18.4428C14.395 18.4499 14.4118 18.4576 14.4286 18.466C14.499 18.5002 14.5752 18.5383 14.6527 18.5784L14.6669 18.5848L14.674 18.5887C16.143 19.3545 17.4176 20.5033 18.465 22.0007C19.2405 23.11 19.7332 24.2084 20.0173 24.9645C20.4506 24.9878 20.8968 25.0453 21.239 25.0989C22.0836 25.2319 23.4125 25.5108 24.9448 26.0907C25.2431 26.203 25.5401 26.3244 25.8268 26.451L26.4868 26.7409C26.5468 26.768 26.603 26.801 26.6527 26.8404C26.7334 26.8578 26.8116 26.8888 26.8832 26.932L27.6142 27.3711C29.2789 28.3714 30.5361 29.5866 31.3587 30.9904C32.1032 30.8296 33.0395 30.747 34.0404 30.747L34.0391 30.7457ZM47.2893 33.1419C47.4404 33.1975 47.5921 33.2627 47.7445 33.3369C47.8188 33.3731 47.904 33.366 47.9718 33.3163C48.0396 33.2672 48.0732 33.1884 48.0609 33.1058C48.0357 32.9321 48.0099 32.7539 47.9789 32.5588C47.9427 32.7112 47.8601 32.8501 47.7393 32.956C47.6115 33.0677 47.4526 33.1303 47.2893 33.1419ZM42.9894 34.9667C43.0036 35.0132 43.012 35.0604 43.0165 35.1088C43.0437 35.03 43.0721 34.9525 43.1031 34.8776C43.0676 34.9112 43.0307 34.9409 42.9901 34.9667H42.9894ZM17.8406 50.4014C17.5139 50.4014 17.1987 50.3413 16.9049 50.2219C16.1721 49.9268 15.6284 49.2946 15.3739 48.4422C15.2577 48.0535 15.281 47.6325 15.4398 47.2593C15.7924 46.4302 19.5885 37.3933 23.2511 28.6593C21.4153 28.0511 19.9347 27.9232 19.5737 27.942C19.535 27.9523 19.4956 27.9613 19.4549 27.9691H19.4471C19.4304 27.9736 19.4116 27.9762 19.3935 27.9794C19.3593 27.9852 19.3238 27.9897 19.2876 27.9923C19.2534 27.9968 19.2198 27.9994 19.1856 27.9994H19.1333C19.103 27.9994 19.0739 27.9988 19.0449 27.9968C19.0113 27.9949 18.979 27.993 18.9467 27.9891C18.9196 27.9865 18.8957 27.9826 18.8718 27.9801C18.8337 27.9736 18.7937 27.9671 18.7549 27.9575L18.7446 27.9555C18.7213 27.9497 18.7 27.9445 18.6774 27.9387C18.6355 27.9277 18.5967 27.9155 18.5567 27.9013C18.5309 27.8922 18.5057 27.8825 18.4805 27.8722C18.4172 27.847 18.3591 27.8193 18.3003 27.7876C18.084 27.6708 17.8981 27.5126 17.7489 27.3188C17.7321 27.2962 17.7185 27.2782 17.7063 27.2594C17.6908 27.2368 17.6682 27.2058 17.6449 27.1677C17.6307 27.1445 17.6152 27.1187 17.6004 27.0909C17.5875 27.067 17.5746 27.0425 17.5623 27.0173L17.5565 27.005C17.5436 26.9772 17.5306 26.9495 17.519 26.9204C17.508 26.8952 17.4984 26.8701 17.4893 26.8455C17.477 26.8119 17.468 26.7816 17.459 26.7519C17.4512 26.7261 17.4441 26.7009 17.4377 26.6751C17.4222 26.6163 17.0283 25.1634 16.0132 23.7112C15.2461 22.6128 14.3317 21.7818 13.2954 21.2407L13.2863 21.2362L13.2805 21.2336C13.225 21.2045 13.174 21.1787 13.1243 21.1548L13.0855 21.1374C13.0371 21.1141 12.9925 21.0928 12.9473 21.0721L12.8711 21.0386C12.8356 21.0231 12.804 21.0089 12.7717 20.996C12.7568 20.9895 12.7413 20.983 12.7265 20.9772L12.6458 20.9449C12.6283 20.9385 12.6103 20.9307 12.5928 20.9243C12.5689 20.9139 12.5425 20.9049 12.5179 20.8952L12.4114 20.8565C12.3797 20.8455 12.3462 20.8352 12.3139 20.8242L12.2293 20.7951C12.1828 20.7803 12.1363 20.7674 12.0911 20.7532L12.0375 20.7364C11.9891 20.7222 11.94 20.7093 11.8909 20.6963L11.8851 20.6944L11.8464 20.6841C11.7941 20.6699 11.7424 20.6582 11.6895 20.6453H11.6837L11.6533 20.6369C11.5984 20.624 11.5435 20.6117 11.488 20.6008H11.4815L11.4544 20.5937C11.3989 20.5827 11.3421 20.5724 11.2852 20.562H11.2794L11.2536 20.5562C11.1968 20.5459 11.1406 20.5368 11.0825 20.5285H11.0767L11.0489 20.5226C10.9921 20.5142 10.9359 20.5071 10.8791 20.5H10.8733L10.8397 20.4942C10.7861 20.4878 10.7312 20.482 10.675 20.4768L10.6111 20.4703C10.0093 20.4135 9.48756 20.0584 9.21572 19.5179C8.94387 18.9768 8.96776 18.3453 9.28158 17.8281C9.58636 17.327 9.875 16.6296 9.52566 16.1556C9.32613 15.8857 9.01683 15.776 8.90512 15.7714C8.07602 15.9645 7.23852 15.5396 6.90533 14.7538C6.56762 13.9589 6.85367 13.0497 7.58592 12.5926C7.63887 12.559 7.69246 12.5241 7.7467 12.488L7.74929 12.486L7.82161 12.4357C8.17804 12.1858 8.76371 11.7015 8.6675 11.2669C8.57064 10.8317 8.02888 10.4384 7.82806 10.4074C7.81902 10.4068 7.81128 10.4055 7.80288 10.4036L7.7396 10.3945L7.71829 10.3907C7.65953 10.3797 7.60013 10.3648 7.54395 10.348L7.5291 10.3435L7.49681 10.3332L7.48454 10.3287C7.42514 10.3093 7.36638 10.2861 7.31084 10.2602C7.29405 10.2518 7.27856 10.2447 7.26177 10.2363C7.19332 10.2021 7.12875 10.164 7.06482 10.1214C7.04416 10.1072 7.02414 10.0936 7.00477 10.0788C6.94924 10.0368 6.88854 9.98708 6.83237 9.9322C6.82397 9.9251 6.80912 9.90895 6.79362 9.8941C6.74067 9.83922 6.68966 9.77916 6.64252 9.71459C6.62832 9.69587 6.61928 9.68295 6.61024 9.67004C6.58828 9.6384 6.56568 9.60288 6.54437 9.56672C6.52759 9.54154 6.51273 9.51442 6.49917 9.48665L6.47851 9.44468C6.46753 9.42208 6.45591 9.39819 6.44623 9.3743C6.41911 9.31295 6.39586 9.25096 6.37649 9.18768L6.37261 9.17348L6.36486 9.14765C6.35582 9.11343 6.34743 9.08243 6.34097 9.05208C6.33839 9.04111 6.33645 9.02884 6.33322 9.01657C6.3287 8.99591 6.32483 8.97653 6.32225 8.95652L6.31579 8.91196C6.31514 8.90163 6.31321 8.8913 6.31192 8.88161L6.30546 8.80736C6.30481 8.79832 6.30352 8.78863 6.30288 8.77959C6.30094 8.74085 6.30029 8.70081 6.30029 8.66078C6.30029 8.64334 6.30029 8.62462 6.30094 8.60718L6.30288 8.58135C6.30675 8.50516 6.31708 8.42444 6.33258 8.34373L6.33452 8.3334L6.34097 8.30176L6.34356 8.28949C6.36034 8.21265 6.38424 8.13452 6.41329 8.05832C6.41975 8.04089 6.4275 8.02281 6.43396 8.00602C6.46431 7.9337 6.50111 7.86138 6.54179 7.79164C6.54567 7.78518 6.55277 7.77291 6.56052 7.76C6.60572 7.68639 6.65544 7.61988 6.7071 7.5566C6.71291 7.55079 6.72259 7.53787 6.73422 7.52496C6.7891 7.46361 6.84851 7.40421 6.91179 7.35061L6.92212 7.34222L6.94343 7.32349L6.94989 7.31962C7.0151 7.26667 7.08355 7.21824 7.15393 7.17691L7.16685 7.16917L7.19268 7.15431L7.19978 7.14979C7.27404 7.10911 7.35023 7.0736 7.42643 7.04519C7.46 7.03227 7.49487 7.01936 7.53039 7.00644L7.5517 6.9987C7.5814 6.98836 7.61369 6.9761 7.64662 6.96512L7.65501 6.96254C8.85863 6.54282 10.7267 6.17734 12.9112 5.9339L12.9202 5.93197C13.0345 5.9197 13.1533 5.90678 13.2721 5.89452L13.3638 5.88548C13.4613 5.87514 13.5595 5.86481 13.657 5.85577L13.8158 5.84092C13.8927 5.83446 13.9701 5.82672 14.047 5.82026C14.1174 5.8138 14.1871 5.80734 14.2575 5.80153C14.3298 5.79508 14.4021 5.78926 14.4745 5.7841C14.5332 5.77958 14.5907 5.77506 14.6482 5.76989C14.7263 5.76408 14.807 5.75762 14.8877 5.75246C14.951 5.74794 15.0143 5.74342 15.0782 5.73825C15.1654 5.73244 15.2538 5.72598 15.3417 5.72082L15.4643 5.71307C15.5773 5.70532 15.6897 5.69886 15.8033 5.69241L15.897 5.68789C15.9758 5.68337 16.0545 5.67949 16.134 5.67497L16.3083 5.66658C16.431 5.66077 16.5563 5.6556 16.6835 5.65108L16.7157 5.64914C19.3916 5.54131 23.4654 5.56455 27.6923 6.28518L28.1308 6.36202C28.1818 6.37106 28.2347 6.38074 28.287 6.38978L28.2928 6.39172L28.3451 6.40076C28.4091 6.41303 28.4724 6.42465 28.5356 6.43692L28.5544 6.44079C28.719 6.47243 28.8856 6.50472 29.049 6.53894L29.0974 6.54798C29.1859 6.56671 29.2737 6.58544 29.3609 6.60352L29.408 6.61385C29.6179 6.65905 29.8277 6.70683 30.0318 6.75526L30.046 6.75913C30.2132 6.79788 30.3811 6.8392 30.5483 6.88053L30.5587 6.88311C31.074 7.0129 31.5808 7.15302 32.0619 7.30025C32.1252 7.31962 32.1891 7.33899 32.253 7.35965L32.9104 6.68681C33.6058 5.97394 34.639 5.7841 35.5436 6.20382C36.447 6.62353 36.9687 7.53529 36.8732 8.52711L36.7647 9.64679L37.0617 9.85084L37.0811 9.86504L37.9334 10.4907L37.9509 10.5037L38.43 10.8775L38.4442 10.8885L39.0163 11.3573L39.0266 11.3657L39.2623 11.5665L39.6142 11.8758C39.6478 11.9055 39.6782 11.9333 39.7098 11.961L39.7621 12.0082C39.7918 12.0353 39.8196 12.0611 39.8473 12.0863L39.9113 12.1451C39.9436 12.1748 39.9765 12.2051 40.0088 12.2361L40.0591 12.2813C40.0934 12.3136 40.1263 12.3446 40.1592 12.3762L40.5028 12.7049C40.5383 12.7404 40.5712 12.7734 40.6061 12.8069L40.6506 12.8508C40.6868 12.887 40.721 12.9212 40.7552 12.9555L40.7978 12.9994C40.834 13.0355 40.8682 13.071 40.9037 13.1059L40.9464 13.1498C40.9825 13.1873 41.0167 13.2234 41.0523 13.2596L41.0929 13.3016C41.1304 13.3403 41.1653 13.3778 41.2014 13.4159L41.2395 13.4565C41.277 13.4946 41.3118 13.5334 41.348 13.5715L41.3867 13.6134C41.4229 13.6522 41.4591 13.6916 41.4952 13.7316L41.5327 13.7716C41.5701 13.8123 41.605 13.8517 41.6405 13.8905L41.6793 13.9331C41.7167 13.975 41.7529 14.0157 41.789 14.0564L41.8252 14.0964C41.8626 14.1404 41.8994 14.1817 41.9356 14.2236L41.9698 14.2624C42.0079 14.3063 42.0441 14.3489 42.0815 14.3915L42.1151 14.4303C42.1532 14.4748 42.1894 14.5187 42.2268 14.562L42.2604 14.6007C42.2979 14.6459 42.3353 14.6905 42.3728 14.7351L42.4031 14.7732C42.4418 14.8196 42.4793 14.8648 42.5161 14.9113L42.5458 14.9475C42.5858 14.9959 42.6226 15.0431 42.6601 15.0896L42.6898 15.1257C42.7279 15.1741 42.766 15.2226 42.8028 15.2704L42.8319 15.3059C42.8706 15.3562 42.9081 15.4053 42.9462 15.4544L42.972 15.488C43.012 15.5403 43.0501 15.59 43.0882 15.6404L43.114 15.6739C43.1528 15.7262 43.1909 15.7772 43.229 15.8289L43.2542 15.8612C43.2929 15.9141 43.331 15.9671 43.3704 16.02L43.3936 16.0517C43.4324 16.1053 43.4718 16.1595 43.5099 16.2131L43.5712 16.2983C43.6048 16.3448 43.6351 16.3894 43.6661 16.4339L43.7552 16.5618C43.774 16.5889 43.7927 16.6154 43.8108 16.6425C43.8695 16.7271 43.927 16.8136 43.9845 16.9008L44.0135 16.9428C44.0342 16.9725 44.0536 17.0022 44.0736 17.0325C44.1311 17.121 44.1885 17.2101 44.246 17.2992L44.2821 17.356C44.2989 17.3812 44.3157 17.4064 44.3312 17.4322C44.388 17.5207 44.4442 17.6111 44.5004 17.7021L44.5308 17.7512C44.5482 17.779 44.565 17.8067 44.5831 17.8358C44.6386 17.9256 44.6935 18.0179 44.7484 18.1089L44.7819 18.1658C44.7974 18.1929 44.8142 18.2207 44.831 18.2484C44.884 18.3382 44.9369 18.4305 44.9886 18.5216L45.0137 18.5655C45.0331 18.599 45.0525 18.6333 45.0725 18.6675C45.1235 18.7572 45.1739 18.8483 45.2249 18.9393L45.2481 18.982C45.2688 19.0194 45.2888 19.0556 45.3095 19.0917C45.3579 19.1815 45.4063 19.2719 45.4535 19.3616L45.4774 19.4068C45.498 19.4449 45.5193 19.4837 45.5394 19.5237C45.5859 19.6128 45.6311 19.7013 45.6769 19.7904L45.7085 19.8517C45.7279 19.8892 45.7466 19.9253 45.7654 19.9634C45.8093 20.0487 45.8519 20.1359 45.8952 20.2243L45.9178 20.2695C45.9404 20.3147 45.9623 20.3606 45.9849 20.4058C46.0256 20.491 46.0669 20.5756 46.1063 20.6608L46.1296 20.7093C46.1522 20.7577 46.1748 20.8068 46.198 20.8558C46.2367 20.9391 46.2748 21.0237 46.3129 21.1077L46.3362 21.158C46.3594 21.209 46.3827 21.2601 46.4046 21.3111C46.4427 21.3957 46.4795 21.4822 46.5176 21.5674L46.5402 21.6178C46.5615 21.6688 46.5841 21.7198 46.6061 21.7708C46.6442 21.8606 46.6823 21.951 46.7191 22.0407L46.7365 22.0814C46.7578 22.1324 46.7791 22.1834 46.8005 22.2344C46.8386 22.3274 46.8754 22.4204 46.9128 22.514L46.9302 22.5567C46.9496 22.6051 46.969 22.6542 46.989 22.7032C47.0271 22.8001 47.0639 22.8982 47.102 22.9957L47.1207 23.0442C47.1298 23.0694 47.1414 23.0965 47.1511 23.1242L47.2544 23.4013C47.2847 23.4839 47.3157 23.5685 47.3461 23.6531L47.35 23.6634C47.7335 24.7256 48.0854 25.8614 48.3947 27.0328C48.4206 27.1309 48.4457 27.2278 48.4709 27.324L48.4748 27.3389C48.4981 27.4286 48.5219 27.5235 48.5452 27.6184L48.551 27.6378C48.5736 27.7295 48.5962 27.8218 48.6188 27.9142L48.6259 27.9439C48.6472 28.0311 48.6685 28.1215 48.6898 28.2125L48.6982 28.248C48.7189 28.3365 48.7389 28.4243 48.7596 28.5115L48.7699 28.558C48.7893 28.6432 48.8086 28.7291 48.8287 28.8143L48.8409 28.8692C48.8584 28.9519 48.8771 29.0352 48.8958 29.1191L48.9087 29.1804C48.9262 29.2631 48.9442 29.3445 48.961 29.4265L48.9752 29.4949C48.992 29.575 49.0088 29.6544 49.0256 29.7351L49.0405 29.8087C49.0566 29.8888 49.0721 29.9676 49.0876 30.0464L49.1024 30.1225C49.1179 30.2026 49.1328 30.2814 49.1476 30.3615L49.1625 30.4396C49.1773 30.5197 49.1928 30.5984 49.2071 30.6785L49.2213 30.7547C49.2361 30.8348 49.251 30.9161 49.2658 30.9981L49.2781 31.0698C49.2929 31.1525 49.3078 31.2358 49.322 31.3197L49.333 31.383C49.3478 31.4702 49.3627 31.5573 49.3769 31.6445L49.3853 31.6929C49.4001 31.7866 49.4156 31.8789 49.4305 31.9712L49.4363 32.0074C49.4511 32.103 49.4666 32.2024 49.4815 32.3018L49.4834 32.3148C49.5151 32.5169 49.5428 32.7067 49.5699 32.8895C49.6616 33.5313 49.3937 34.166 48.87 34.5477C48.3463 34.9293 47.6593 34.9893 47.0768 34.7052C46.4175 34.383 45.7938 34.3236 45.3185 34.538C44.7794 34.7801 44.5249 35.3438 44.4061 35.7739C44.3971 35.8081 44.3848 35.8443 44.3719 35.8804C44.3635 35.9043 44.3551 35.9276 44.3461 35.9508C44.3286 35.996 44.3073 36.0425 44.2847 36.0883C44.2679 36.1219 44.2505 36.1555 44.2311 36.1878C44.206 36.2304 44.1795 36.2724 44.1485 36.3156C44.1272 36.346 44.1046 36.3757 44.0813 36.4041C44.051 36.4428 44.0181 36.479 43.9819 36.5171C43.9541 36.5462 43.927 36.572 43.8999 36.5972C43.8611 36.6327 43.823 36.6643 43.7817 36.6947C43.7514 36.7179 43.7223 36.7392 43.692 36.7599C43.6242 36.8051 43.5493 36.8484 43.4711 36.8852L43.4388 36.9007C43.4117 36.9136 43.384 36.9246 43.3555 36.9349H43.351C43.342 36.9394 43.3323 36.9433 43.3233 36.9472C43.3 36.9562 43.2768 36.9646 43.2529 36.971L43.2044 36.9853L43.196 36.9878C43.1573 36.9988 43.1173 37.0085 43.0759 37.0169C43.0521 37.0227 43.0236 37.0272 42.9914 37.0324L42.9726 37.035L42.9345 37.0395L42.9216 37.0414C42.7854 37.0569 42.6465 37.0563 42.5109 37.0395C42.4774 37.035 42.4431 37.0305 42.4076 37.0227C42.3676 37.0162 42.3308 37.0079 42.2927 36.9988C42.2546 36.9885 42.2204 36.9781 42.1868 36.9672C42.1526 36.9562 42.1196 36.9446 42.0873 36.9317C42.0538 36.9187 42.0202 36.9045 41.9879 36.889C41.9517 36.8723 41.9162 36.8548 41.882 36.8361C41.8581 36.8219 41.8304 36.8064 41.8032 36.789C41.769 36.7676 41.7348 36.745 41.7031 36.7218C41.6715 36.6992 41.6483 36.6811 41.6295 36.665C41.5953 36.6379 41.5637 36.6114 41.5327 36.5823C41.5088 36.5597 41.4855 36.5371 41.4623 36.5119C41.4326 36.4816 41.4055 36.4506 41.379 36.419C41.3338 36.3641 41.2899 36.3027 41.2499 36.2407C40.2102 34.5896 37.3445 34.0375 36.1616 33.8761C33.8447 33.5604 31.9954 33.8419 31.6299 34.0098C31.1973 34.2713 30.6736 34.332 30.19 34.1751C30.1622 34.166 30.1351 34.1564 30.1073 34.1454C30.0867 34.1389 30.0666 34.1305 30.046 34.1215L30.0143 34.1073L30.0085 34.1047H29.9252C29.5759 34.1047 29.2718 33.8671 29.1859 33.5281L29.0755 33.0845C28.7468 32.3206 28.2192 31.6116 27.5025 30.971L19.9844 49.1848C19.8359 49.5438 19.5672 49.8467 19.2295 50.0378C19.081 50.1224 18.5367 50.4001 17.8412 50.4001L17.8406 50.4014Z" fill="#FFF9F3"/>
<path d="M8.04443 8.67717C11.6727 7.30114 24.8519 6.17501 33.5671 9.67803C39.489 13.1811 45.7732 18.7142 47.8408 33.139C45.6182 32.0535 43.395 32.88 42.7228 35.3105C40.344 31.5363 32.2273 31.5873 30.7279 32.5184C28.5564 27.1925 20.1646 25.894 19.1314 26.2556C19.1314 26.2556 17.4435 19.3554 10.7739 18.7342C12.6865 15.5812 9.95899 13.7112 8.51129 14.0734C12.2339 11.7469 9.66002 8.87799 8.04443 8.67717Z" fill="#F2B43C"/>
<path d="M31.7056 10.417L34.1574 7.9045C34.5345 7.51836 35.1873 7.8212 35.135 8.35844L34.8057 11.7749L31.7056 10.4163V10.417Z" fill="#F7572D"/>
<path d="M34.8059 12.0265H34.782C34.6445 12.0116 34.5437 11.8902 34.5567 11.7527L34.8873 8.3349C34.9079 8.12504 34.7517 8.03529 34.7032 8.01269C34.6542 7.99073 34.485 7.9281 34.3378 8.07984L31.8853 10.5923C31.7885 10.6918 31.6303 10.6937 31.5315 10.5969C31.432 10.5 31.4301 10.3418 31.5269 10.2424L33.98 7.72986C34.226 7.47738 34.5928 7.40958 34.9137 7.55874C35.234 7.70726 35.4187 8.03141 35.3851 8.38333L35.0545 11.7998C35.0422 11.9296 34.9331 12.0265 34.8059 12.0265Z" fill="#171936"/>
<path d="M8.75279 13.9154C13.4 12.3586 21.5729 10.311 35.625 13.2878C33.6517 11.0316 30.9978 9.37083 28.2128 8.153C20.1885 6.61167 10.9837 7.56281 8.04443 8.67668C9.62386 8.87233 12.179 11.5927 8.75279 13.9154Z" fill="#FF3203"/>
<path d="M31.9988 12.9715L37.1529 12.0985C37.0748 12.0384 36.998 11.9777 36.9198 11.9183C26.3714 11.4986 16.0237 15.9495 10.8037 18.7377C17.4527 19.3764 19.1316 26.2558 19.1316 26.2558C19.1399 26.252 19.1503 26.2494 19.1593 26.2468C21.8875 21.5634 31.9994 12.9715 31.9994 12.9715H31.9988Z" fill="#FF3203"/>
<path d="M31.9247 11.7344C32.5381 20.5846 32.4477 25.226 30.7056 32.4645C30.7133 32.482 30.7204 32.5001 30.7282 32.5181C32.2275 31.587 40.3442 31.536 42.7231 35.3102C42.7553 33.4971 38.358 16.494 31.9247 11.7344Z" fill="#FF3203"/>
<path d="M8.85534 8.67542C9.64053 9.06285 10.4051 9.84804 10.6324 10.7921C10.768 11.3539 10.7066 11.9137 10.4496 12.4542C10.3121 12.7441 10.119 13.0243 9.87299 13.2936C11.9574 12.6556 14.8767 11.9389 18.6425 11.6522C23.5377 11.279 29.0082 11.6929 34.9133 12.8855C33.2093 11.1285 30.9351 9.62075 28.1385 8.39453C23.6152 7.52926 19.1694 7.52281 16.2346 7.67003C13.2708 7.81855 10.5516 8.19371 8.85598 8.67542H8.85534ZM8.75267 14.1666C8.65904 14.1666 8.57187 14.1143 8.52796 14.0271C8.47243 13.9148 8.50859 13.7792 8.61126 13.7088C9.85362 12.8668 10.3844 11.8995 10.1461 10.9096C9.8943 9.86483 8.82047 9.02604 8.01332 8.9266C7.89903 8.91239 7.80927 8.82264 7.79507 8.7077C7.78215 8.59341 7.84802 8.48493 7.95456 8.44425C9.56627 7.8334 12.729 7.34523 16.2088 7.17024C19.1772 7.02173 23.6772 7.02819 28.2592 7.9083C28.2779 7.91218 28.2954 7.91734 28.3121 7.92509C31.4859 9.31339 34.0093 11.0626 35.8122 13.1244C35.8826 13.2051 35.8942 13.3233 35.8393 13.4156C35.7857 13.5086 35.6766 13.5558 35.572 13.5338C21.9021 10.6378 13.7641 12.5007 8.8308 14.1543C8.80497 14.1627 8.77785 14.1673 8.75202 14.1673L8.75267 14.1666Z" fill="#171936"/>
<path d="M11.6134 18.595C12.8661 18.8178 14.0193 19.2802 15.0499 19.9737C16.0424 20.64 16.9225 21.5221 17.6664 22.5921C18.5252 23.828 18.9978 25.0161 19.218 25.6728C20.4643 23.735 22.8864 21.0462 26.4294 17.6704C29.2706 14.9642 31.8115 12.8004 31.8367 12.7791C31.8709 12.75 31.9129 12.7306 31.9574 12.7235L35.3991 12.1404C25.375 12.1727 15.9203 16.3705 11.6134 18.595ZM19.1315 26.5051C19.0895 26.5051 19.0489 26.4948 19.0114 26.4754C18.9494 26.4412 18.9049 26.3824 18.8881 26.3146C18.8842 26.2972 18.46 24.6061 17.2454 22.8645C15.6311 20.5477 13.4556 19.2434 10.7798 18.9864C10.67 18.976 10.5802 18.8947 10.5589 18.7868C10.5363 18.6783 10.5886 18.5686 10.6861 18.5169C14.8213 16.3079 25.6558 11.2203 36.9308 11.6684C36.9831 11.6704 37.0321 11.6891 37.0728 11.7194C37.1516 11.7795 37.2297 11.8402 37.3079 11.9015C37.386 11.9629 37.4202 12.0642 37.3963 12.1598C37.3724 12.2567 37.293 12.329 37.1955 12.3458L32.1092 13.2065C31.3207 13.8813 21.9507 21.9528 19.3762 26.3721C19.3446 26.427 19.2936 26.4677 19.2322 26.4864L19.2148 26.4922C19.1877 26.5012 19.1599 26.5064 19.1321 26.5064L19.1315 26.5051Z" fill="#171936"/>
<path d="M34.023 31.7402C34.7985 31.7402 35.6237 31.7932 36.4296 31.9029C38.0348 32.1212 40.772 32.7378 42.3728 34.4522C42.0861 32.7372 41.173 28.9604 39.6414 24.7322C38.1 20.4827 35.6295 14.9741 32.4687 12.3202C33.015 20.5893 32.6844 25.1849 31.0501 32.1012C31.7384 31.8674 32.8187 31.7402 34.023 31.7402ZM42.7227 35.5609C42.6382 35.5609 42.5574 35.5183 42.511 35.444C41.1859 33.3429 38.0897 32.6345 36.3618 32.3988C33.9261 32.0676 31.5505 32.3033 30.8596 32.732C30.7976 32.7708 30.7201 32.7805 30.6504 32.7572C30.58 32.7353 30.5232 32.6823 30.4954 32.6132C30.4915 32.6042 30.487 32.5938 30.4831 32.5835L30.4741 32.5622C30.4534 32.5131 30.4489 32.4589 30.4618 32.4072C32.2072 25.1532 32.5359 20.5292 31.9308 11.7914C31.9244 11.6939 31.9748 11.6009 32.06 11.5544C32.1465 11.5072 32.2511 11.5143 32.3293 11.5731C35.8 14.1405 38.4765 20.054 40.1115 24.5624C41.9944 29.7566 42.9888 34.3902 42.972 35.3149C42.9701 35.4266 42.8958 35.5222 42.7893 35.5519C42.7667 35.5583 42.7447 35.5609 42.7221 35.5609H42.7227Z" fill="#171936"/>
<path d="M15.6148 10.682C18.0673 9.34024 23.1104 10.6588 24.4993 12.811C27.4832 11.4685 34.7423 14.8088 36.6337 18.9492C39.6505 18.3739 43.0773 24.1317 43.105 25.9139C45.6014 26.2962 47.5173 31.4845 47.804 32.8877C45.6989 18.6502 39.4542 13.161 33.5665 9.6786C24.8519 6.17492 11.6727 7.30106 8.04443 8.67709C11.0109 8.46077 13.7177 8.46077 15.6155 10.6814L15.6148 10.682Z" fill="#F7572D"/>
<path d="M27.108 7.98686V7.95716C19.362 6.69929 10.8494 7.61299 8.04443 8.67649C11.0109 8.46017 13.7177 8.46017 15.6155 10.6808C15.764 10.5988 15.9222 10.5278 16.0882 10.4651C16.5886 10.2301 17.1149 10.0648 17.5959 9.80972C20.6004 8.16508 23.8536 8.34394 27.108 7.98621V7.98686Z" fill="#F7572D"/>
<path d="M37.1568 12.1008C35.9712 11.1723 34.7612 10.3832 33.5672 9.67679C33.1882 9.5244 32.8001 9.38169 32.4049 9.24609C31.6817 10.3684 30.7299 11.9626 29.915 13.3516C32.7078 14.4687 35.5509 16.5769 36.6344 18.9474C39.6512 18.372 43.078 24.1299 43.1058 25.9121C43.1058 25.9121 43.4596 19.207 37.1568 12.1008Z" fill="#FCE2B4"/>
<path d="M37.0704 18.6571C37.8705 18.6571 38.7222 19.02 39.6081 19.7413C40.8408 20.746 41.9998 22.381 42.6933 23.8003C42.6023 23.2043 42.4622 22.5004 42.2465 21.7133C41.615 19.4087 40.1899 15.9031 36.9845 12.2839C35.9436 11.4702 34.7884 10.6915 33.4563 9.90244C33.1515 9.78104 32.8345 9.66094 32.5091 9.54665C31.9408 10.4364 31.1918 11.673 30.2762 13.2292C31.6457 13.8065 32.9527 14.5826 34.0717 15.4847C35.3063 16.4791 36.2387 17.5781 36.7798 18.6732C36.8754 18.6623 36.9723 18.6577 37.0698 18.6577L37.0704 18.6571ZM43.106 26.1629H43.1014C42.9658 26.1604 42.8574 26.0512 42.8554 25.9163C42.838 24.763 41.234 21.712 39.293 20.1306C38.3457 19.359 37.4675 19.0445 36.6823 19.1937C36.5693 19.215 36.4557 19.1562 36.4073 19.0516C35.4445 16.9459 32.8603 14.7989 29.8222 13.5837C29.7544 13.5566 29.7028 13.501 29.6782 13.4326C29.655 13.3641 29.6627 13.2879 29.6995 13.2247C30.7443 11.4438 31.5837 10.0593 32.1952 9.11079C32.2572 9.01393 32.3773 8.9726 32.4865 9.00941C32.8913 9.14759 33.2859 9.29417 33.661 9.44462C33.672 9.44914 33.6843 9.45496 33.6946 9.46141C35.0616 10.2699 36.2439 11.0686 37.3119 11.9035C37.3229 11.9126 37.3345 11.9242 37.3442 11.9352C38.7951 13.5714 40.0142 15.322 40.9673 17.141C41.7306 18.597 42.3259 20.099 42.736 21.6061C43.4379 24.1799 43.3591 25.8556 43.3552 25.9253C43.3475 26.059 43.2383 26.1629 43.1053 26.1629H43.106Z" fill="#171936"/>
<path d="M33.567 9.67587C31.5775 8.87647 29.3543 8.31857 27.0665 7.94922L23.5493 11.8268C23.9451 12.1257 24.2719 12.4563 24.4992 12.8089C27.483 11.4665 34.7422 14.8068 36.6335 18.9471C36.6335 18.9471 37.5621 12.4363 33.567 9.67652V9.67587Z" fill="#F7572D"/>
<path d="M26.1372 12.2602C27.5423 12.2602 29.296 12.7219 31.0866 13.5975C33.4609 14.7578 35.4052 16.396 36.4571 18.091C36.4906 17.4356 36.4977 16.4516 36.3492 15.3687C36.1122 13.6298 35.4162 11.2722 33.448 9.89816C31.6348 9.17237 29.5195 8.60672 27.1613 8.21735L23.9153 11.7966C24.1845 12.0219 24.4112 12.2583 24.5913 12.5011C25.0324 12.3383 25.5541 12.2596 26.1372 12.2596V12.2602ZM36.634 19.1978C36.5371 19.1978 36.4474 19.141 36.4067 19.0512C35.5608 17.2 33.4893 15.3287 30.8664 14.0469C29.6622 13.4593 28.4456 13.0506 27.3473 12.8665C26.2192 12.6773 25.27 12.7367 24.6017 13.0364C24.4893 13.0874 24.3556 13.0486 24.2885 12.9447C24.0844 12.627 23.7842 12.3177 23.398 12.0264C23.3425 11.9838 23.3063 11.9199 23.2999 11.8502C23.2934 11.7798 23.3167 11.7107 23.3638 11.6577L26.881 7.78149C26.9385 7.71821 27.0231 7.6885 27.1064 7.70271C29.5666 8.09918 31.7717 8.68614 33.6605 9.44422C33.6772 9.45196 33.694 9.45971 33.7089 9.47134C34.6568 10.1261 35.4136 11.0379 35.9579 12.1827C36.3886 13.0899 36.6889 14.1425 36.8464 15.3138C37.1157 17.2987 36.8916 18.9156 36.8819 18.9834C36.8664 19.0938 36.7799 19.1804 36.6702 19.1959C36.6579 19.1978 36.6463 19.1985 36.634 19.1985V19.1978Z" fill="#171936"/>
<path d="M33.2926 9.56999C33.3585 9.59517 33.4237 9.621 33.4883 9.64618C33.4824 9.65522 33.4792 9.66039 33.4792 9.66039C33.4172 9.63004 33.3546 9.60034 33.2926 9.57063C31.8598 9.01661 30.3133 8.58397 28.7112 8.25337C22.8591 7.44622 16.7531 9.3795 15.6147 10.6826C18.0672 9.34076 23.1103 10.6593 24.4992 12.8115C24.5328 12.796 24.567 12.7824 24.6012 12.7689C25.6744 11.8416 28.6886 9.69009 33.5664 9.67911C33.4753 9.64295 33.3836 9.60679 33.2913 9.57128L33.2926 9.56999Z" fill="#FCE2B4"/>
<path d="M18.1483 9.88949C18.8947 9.88949 19.6986 9.98958 20.5168 10.191C22.3248 10.6385 23.8138 11.4805 24.5661 12.4685C25.6496 11.5658 28.2518 9.79845 32.3089 9.47688C31.1892 9.09461 29.9688 8.76659 28.6703 8.49797C26.1113 8.14605 23.1933 8.29586 20.4515 8.91833C19.1194 9.22117 18.0411 9.58471 17.2475 9.9405C17.5355 9.90628 17.837 9.8882 18.1489 9.8882L18.1483 9.88949ZM24.5002 13.0593C24.4169 13.0593 24.3368 13.0186 24.2897 12.945C23.6724 11.9881 22.1814 11.1189 20.3967 10.6779C18.5628 10.224 16.82 10.3073 15.7359 10.9C15.6293 10.9588 15.4963 10.9323 15.4201 10.8381C15.3452 10.7431 15.3478 10.6075 15.4272 10.5165C16.069 9.7823 17.9972 8.96418 20.3405 8.43146C23.1429 7.79542 26.1274 7.64303 28.7458 8.00464L28.7626 8.00722C30.446 8.35462 32.0002 8.80081 33.3821 9.33611H33.384L33.3905 9.33869C33.4815 9.37421 33.5713 9.40908 33.6617 9.44524C33.7721 9.48979 33.836 9.60667 33.8141 9.72483C33.7908 9.843 33.6888 9.92824 33.5687 9.92824C28.7749 9.93857 25.8162 12.0501 24.7656 12.9567C24.7449 12.9741 24.721 12.9889 24.6952 12.9993L24.6868 13.0019C24.6591 13.0141 24.63 13.0251 24.6022 13.0374C24.5687 13.0522 24.5344 13.06 24.5002 13.06V13.0593Z" fill="#171936"/>
<path d="M34.0229 31.7366C34.7984 31.7366 35.6236 31.7895 36.4295 31.8993C38.1284 32.1305 41.0948 32.8072 42.6413 34.7598C43.0152 33.81 43.6615 33.0939 44.4971 32.7181C45.4024 32.3093 46.4646 32.3151 47.5275 32.7252C45.4069 18.7169 39.2345 13.322 33.4566 9.90029C25.1681 6.57742 13.1139 7.48078 8.85534 8.67536C9.64247 9.06925 10.4025 9.87059 10.6156 10.8353C10.7466 11.4248 10.6646 12.0079 10.3734 12.5691C10.1442 13.0094 9.78646 13.4259 9.3067 13.814C9.98664 13.9393 10.6827 14.3629 11.1309 14.9718C11.559 15.551 12.102 16.7591 11.1773 18.5258C12.5921 18.7124 13.8874 19.1941 15.0323 19.9612C16.0273 20.6276 16.9113 21.5097 17.6578 22.5822C18.6716 24.0383 19.15 25.4292 19.3095 25.9645C20.1955 25.8709 22.3928 26.1866 24.5909 27.0177C26.7728 27.8429 29.5984 29.4017 30.8524 32.1724C31.5201 31.8903 32.6966 31.7372 34.0222 31.7372L34.0229 31.7366ZM42.7227 35.5573C42.6374 35.5573 42.5567 35.5134 42.5109 35.4404C41.1858 33.3393 38.0896 32.6309 36.3617 32.3952C33.926 32.064 31.5504 32.2996 30.8595 32.7284C30.7975 32.7671 30.72 32.7768 30.6503 32.7536C30.5799 32.7316 30.5231 32.6787 30.4953 32.6109C29.3711 29.8517 26.5681 28.3007 24.4139 27.4858C21.8627 26.5211 19.6117 26.35 19.2133 26.4895C19.1468 26.5127 19.0732 26.5069 19.0112 26.474C18.9492 26.4397 18.9047 26.381 18.8879 26.3132C18.884 26.2964 18.4578 24.5994 17.2381 22.8547C15.6167 20.5346 13.4341 19.2316 10.7505 18.9823C10.6653 18.9739 10.5891 18.9229 10.5497 18.8461C10.5116 18.7692 10.5142 18.6769 10.56 18.6039C11.3239 17.3429 11.3846 16.1592 10.7279 15.2701C10.1455 14.4797 9.17432 14.164 8.57122 14.3157C8.45241 14.3454 8.32908 14.2841 8.28065 14.1711C8.23222 14.0581 8.27419 13.9257 8.37815 13.8611C9.75418 13.0004 10.3586 11.9931 10.1274 10.9457C9.89172 9.87963 8.8237 9.02534 8.01332 8.92526C7.89903 8.91105 7.80927 8.8213 7.79507 8.70636C7.78215 8.59207 7.84802 8.48359 7.95456 8.4429C8.90183 8.08388 10.4464 7.75328 12.3048 7.51178C14.3362 7.24832 16.6169 7.10497 18.8969 7.09787C21.5411 7.09077 24.0814 7.2593 26.448 7.60282C29.1761 7.99865 31.6021 8.61854 33.6606 9.44571C33.6716 9.45023 33.6839 9.45604 33.6942 9.4625C39.64 12.9804 46.0003 18.5394 48.0886 33.1036C48.1015 33.1953 48.0634 33.2863 47.9885 33.3412C47.9136 33.3961 47.8148 33.4045 47.7315 33.3638C46.6667 32.844 45.5916 32.7781 44.7037 33.1772C43.8578 33.5582 43.2573 34.3195 42.9648 35.3778C42.9377 35.4727 42.8583 35.5437 42.7595 35.5579C42.7472 35.5599 42.7356 35.5605 42.7233 35.5605L42.7227 35.5573Z" fill="#171936"/>
<path d="M31.2876 13.9727C29.1632 19.1016 17.7224 46.7132 17.1348 48.0944C17.4208 48.784 18.3164 48.5826 18.3164 48.5826L32.5707 14.7288C32.2459 14.5945 31.5446 14.2012 31.2876 13.9733V13.9727Z" fill="#9D9F9D"/>
<path d="M17.3127 47.9537C17.3915 48.172 17.5051 48.3115 17.6491 48.3709C17.8422 48.4496 18.065 48.3812 18.1773 48.3347L32.1726 14.807C31.9434 14.6908 31.6664 14.5274 31.4417 14.3705C29.0971 20.0109 18.3362 45.5413 17.3121 47.9537H17.3127ZM17.8409 48.9062C17.7195 48.9062 17.591 48.8868 17.4638 48.8358C17.1526 48.7105 16.9311 48.4335 16.8058 48.0138C16.789 47.9583 16.7929 47.8976 16.8149 47.844C17.591 46.0205 29.0222 18.9015 31.104 13.8772C31.1343 13.8029 31.2008 13.7474 31.2796 13.7293C31.3584 13.7106 31.441 13.7319 31.5017 13.7861C31.7239 13.9831 32.274 14.3189 32.5917 14.4512C32.6531 14.4764 32.7021 14.5255 32.7273 14.5868C32.7525 14.6482 32.7525 14.7179 32.7273 14.7793L18.6016 48.6169C18.5803 48.6679 18.5422 48.7105 18.4937 48.7376C18.4782 48.7467 18.1902 48.9068 17.8409 48.9068V48.9062Z" fill="#171936"/>
<path d="M43.3168 25.6986C44.6825 26.0202 45.7977 27.5989 46.5035 28.8962C46.6978 29.2539 46.8747 29.6136 47.0355 29.9668C44.5618 17.981 38.8342 13.087 33.4567 9.90236C25.9806 6.90557 15.4418 7.3466 10.3225 8.33842C12.3623 8.36619 14.233 8.78655 15.6742 10.3699C16.8695 9.80098 18.6581 9.73189 20.5165 10.1916C22.3445 10.6449 23.8471 11.4999 24.591 12.5027C26.0948 11.9499 28.5525 12.36 31.0869 13.5985C33.7311 14.8912 35.8433 16.7767 36.7815 18.6738C37.5254 18.5892 38.3099 18.8281 39.1158 19.3847C40.0844 20.0544 41.0923 21.2089 41.9557 22.6372C42.6175 23.7317 43.1386 24.9076 43.3175 25.6992L43.3168 25.6986ZM47.8033 33.1366C47.6871 33.1366 47.5831 33.0546 47.5592 32.9358C47.4165 32.2378 46.8573 30.5964 46.0637 29.1358C45.3825 27.8831 44.3099 26.3501 43.0676 26.1603C42.961 26.1435 42.8771 26.0621 42.8584 25.9562C42.6233 24.6034 40.9148 21.2386 38.8304 19.7967C38.0678 19.2705 37.3459 19.0671 36.6808 19.1943C36.5678 19.2169 36.4541 19.1568 36.4057 19.0522C35.5598 17.2009 33.4883 15.3296 30.8654 14.0479C29.6612 13.4603 28.4446 13.0515 27.3463 12.8675C26.2182 12.6783 25.269 12.7377 24.6007 13.0373C24.4883 13.0883 24.3546 13.0496 24.2875 12.9456C23.6702 11.9887 22.1792 11.1195 20.3944 10.6785C18.5606 10.2246 16.8178 10.3072 15.7336 10.9006C15.6297 10.9581 15.5005 10.9342 15.4237 10.8438C13.5982 8.70648 11.0096 8.711 8.06185 8.92667C7.93722 8.93572 7.82616 8.85242 7.79904 8.73167C7.77192 8.61027 7.83778 8.48759 7.95401 8.44303C8.90128 8.08401 10.4458 7.7534 12.3042 7.5119C14.3357 7.24845 16.6163 7.1051 18.8964 7.098C21.5399 7.08896 24.0809 7.25943 26.4474 7.60295C29.1756 7.99878 31.6015 8.61867 33.6601 9.44583C33.6711 9.45035 33.6833 9.45616 33.6937 9.46262C36.2397 10.9684 39.52 13.1988 42.3069 17.1047C43.672 19.0167 44.8304 21.2205 45.7525 23.6549C46.7747 26.3546 47.5482 29.4483 48.0506 32.8506C48.0713 32.9842 47.9802 33.1108 47.8465 33.134C47.8323 33.1366 47.8175 33.1379 47.8026 33.1379L47.8033 33.1366Z" fill="#171936"/>
</g>
<defs>
<clipPath id="clip0_4450_47745">
<rect width="43.2864" height="44.8" fill="white" transform="translate(6.2998 5.60156)"/>
</clipPath>
</defs>
</svg>
