<svg width="56" height="56" viewBox="0 0 56 56" fill="none" xmlns="http://www.w3.org/2000/svg">
<g clip-path="url(#clip0_4450_47742)">
<path d="M26.568 14.8027C25.4548 14.2048 24.3624 13.6227 23.2499 13.07C21.8327 12.3657 20.5205 11.775 19.2384 11.2633C17.6703 10.6381 16.1094 10.1199 14.5973 9.72395C12.7008 9.22664 10.8409 8.8975 9.06871 8.74514C8.32994 8.6819 7.65799 8.64884 7.01552 8.64453C6.99827 8.64453 5.30871 8.64812 4.88973 8.7976C4.79415 8.83138 4.67414 8.88456 4.58359 8.99523C4.47507 9.12747 4.45495 9.2791 4.44776 9.41062C4.43051 9.77641 4.48154 10.1336 4.53041 10.4793C4.54191 10.5597 4.55269 10.6395 4.56347 10.7193C4.7999 12.5296 5.26415 14.3018 5.94256 15.9849C6.11792 16.4175 6.30405 16.8386 6.49952 17.2368C7.04139 18.3974 7.67237 19.558 8.42983 20.7848C9.26994 22.1452 10.2092 23.4977 11.3009 24.9206C11.3576 24.9939 11.4137 25.0672 11.469 25.1405C11.6882 25.428 11.9146 25.7248 12.1553 26.0058C16.9258 31.5783 22.2999 36.0928 28.5838 39.8076C32.8375 42.3229 36.8167 43.9988 39.4039 44.9618C42.3935 46.0742 45.2832 46.8834 47.1359 47.1256C47.7259 47.2025 48.3066 46.9632 48.6738 46.4961C48.6903 46.4753 48.7069 46.453 48.7227 46.4307L51.2071 42.9366C51.6181 42.3595 51.6648 41.6114 51.3314 40.9862C50.3432 39.1371 47.6921 34.3983 44.4287 30.3307C42.4308 27.842 39.2537 24.6475 35.7121 21.5681C32.167 18.4851 28.8346 16.0194 26.5672 14.802L26.568 14.8027Z" fill="#171936"/>
<path d="M5.32869 9.60579C5.33229 9.84294 5.36822 10.093 5.40559 10.3546C5.41709 10.438 5.42859 10.5214 5.44009 10.604C5.66646 12.3403 6.11059 14.0399 6.76241 15.654C6.92914 16.0672 7.10665 16.4682 7.2935 16.847L7.29996 16.8628C7.82746 17.9918 8.44335 19.1229 9.18212 20.3209C10.0057 21.6555 10.9277 22.9843 12.0021 24.3828C12.0553 24.4525 12.1092 24.5229 12.1631 24.5933L12.1717 24.6048C12.3837 24.8822 12.6015 25.169 12.8271 25.432C17.5336 30.929 22.8344 35.3832 29.0335 39.0477C33.2319 41.5292 37.1586 43.1835 39.7127 44.1336C42.6427 45.2245 45.4598 46.0157 47.2507 46.2507C47.531 46.2874 47.8034 46.176 47.9794 45.9518C47.9881 45.941 47.996 45.9295 48.0032 45.9187L50.4875 42.426C50.7024 42.1242 50.7269 41.7311 50.5522 41.4041C49.5756 39.5766 46.9568 34.8938 43.7401 30.8852C41.7746 28.4353 38.6362 25.2825 35.1335 22.2354C31.6358 19.1941 28.3616 16.7686 26.1496 15.5814C25.0428 14.9871 23.9584 14.4086 22.8567 13.8609C21.4618 13.1674 20.1711 12.5861 18.9113 12.0837C17.3762 11.4721 15.8505 10.9655 14.3737 10.5781C12.526 10.0938 10.7157 9.77252 8.99312 9.62519C8.27949 9.56339 7.63055 9.53177 7.01178 9.52745C6.43255 9.52745 5.68227 9.55979 5.32869 9.60579ZM47.8616 47.9719C47.5885 48.028 47.3046 48.0395 47.0222 48.0021C45.1063 47.752 42.144 46.9241 39.0961 45.7901C36.4738 44.8141 32.4443 43.116 28.1345 40.569C21.7643 36.804 16.3184 32.2283 11.4833 26.5811C11.2267 26.28 10.9924 25.9732 10.766 25.6764L10.7574 25.6649C10.7042 25.5966 10.6525 25.5276 10.5993 25.4593C9.48899 24.0127 8.53246 22.6357 7.67726 21.2494C6.90399 19.9954 6.2572 18.8082 5.70168 17.6188C5.49902 17.2041 5.30354 16.7657 5.12244 16.3159C4.41528 14.5631 3.93235 12.7183 3.68657 10.834C3.67579 10.7578 3.66573 10.6809 3.65495 10.604C3.60177 10.236 3.54355 9.81851 3.5644 9.37007C3.57086 9.23209 3.59027 8.81383 3.89857 8.43725C4.15729 8.12177 4.48356 8.00462 4.59135 7.96654C4.78395 7.89826 5.10879 7.8228 6.06532 7.78328C6.57556 7.76244 7.0161 7.76172 7.01969 7.76172C7.6866 7.76603 8.3801 7.80053 9.1426 7.86592C10.9651 8.02259 12.876 8.36036 14.8207 8.8706C16.3672 9.27593 17.9627 9.80557 19.5645 10.4445C20.8696 10.9648 22.2027 11.5656 23.6415 12.2806C24.7662 12.8397 25.8643 13.4254 26.9839 14.0262C29.3059 15.2731 32.6987 17.7798 36.2912 20.9038C39.8709 24.017 43.0876 27.2524 45.1163 29.7813C48.4264 33.9057 51.1092 38.702 52.1088 40.5726C52.6025 41.4961 52.5321 42.5992 51.9263 43.4516L49.4419 46.9457C49.4182 46.9794 49.393 47.0132 49.3672 47.0456C48.9877 47.5285 48.448 47.854 47.8601 47.9741L47.8616 47.9719Z" fill="#FFF9F3"/>
<path d="M6.16902 10.3087C6.17764 10.3748 6.18698 10.4402 6.19633 10.5056C6.4148 12.1786 6.84312 13.815 7.46906 15.3695C7.62861 15.7654 7.80036 16.1499 7.97715 16.5114L7.98075 16.5179L7.98865 16.5337L7.99153 16.5409C8.50536 17.6426 9.1076 18.7486 9.83128 19.9207C10.6405 21.233 11.5489 22.5402 12.6074 23.9179C12.6613 23.9883 12.7152 24.0594 12.7699 24.1306L12.7785 24.1421C12.9847 24.4123 13.196 24.6897 13.4066 24.9362C18.057 30.3685 23.2953 34.7696 29.4218 38.3909C33.5721 40.8436 37.4535 42.4793 39.9789 43.4193C42.8578 44.4915 45.6138 45.2669 47.3501 45.4948C47.3595 45.4955 47.3681 45.4955 47.3796 45.4804L49.8661 41.9834C49.9143 41.9159 49.9193 41.8354 49.8798 41.7621C48.9139 39.9539 46.3224 35.32 43.1453 31.361C41.2063 28.9456 38.1039 25.8288 34.6328 22.8104C31.1768 19.8043 27.9522 17.414 25.789 16.2527C24.688 15.662 23.6108 15.087 22.5177 14.5437C21.1408 13.8596 19.8687 13.2868 18.6283 12.7916C17.1235 12.1916 15.6265 11.695 14.1799 11.3155C12.3739 10.8419 10.606 10.5286 8.92722 10.3841C8.23371 10.3245 7.60489 10.2936 7.00697 10.2893C6.74035 10.2893 6.44139 10.2965 6.16902 10.308V10.3087ZM47.3595 47.0197C47.2912 47.0197 47.2222 47.0147 47.1532 47.0061C45.3084 46.7646 42.428 45.9576 39.4471 44.848C36.8635 43.8864 32.8922 42.2134 28.6464 39.7038C22.374 35.9956 17.0092 31.4896 12.2481 25.9279C12.0095 25.6484 11.7853 25.3537 11.5676 25.0684L11.5568 25.0555C11.5036 24.9858 11.4511 24.9161 11.398 24.8471C10.3078 23.4277 9.37063 22.0781 8.53339 20.7213C7.7788 19.4989 7.1507 18.3433 6.61099 17.1884L6.6074 17.1798C6.41408 16.7859 6.22795 16.3684 6.05547 15.9394C5.38065 14.2649 4.91928 12.5035 4.68428 10.7032C4.6735 10.6235 4.66272 10.543 4.65122 10.4625C4.61169 10.188 4.57217 9.90409 4.56642 9.6195C4.56642 9.57638 4.56857 9.5347 4.57504 9.49373C4.57288 9.47074 4.57217 9.44702 4.57217 9.42331C4.57217 9.00217 4.91281 8.66153 5.33322 8.66153H5.33394C5.49851 8.66153 5.6523 8.71399 5.77663 8.80382C6.17764 8.77939 6.65052 8.76645 7.01128 8.76645C7.65591 8.77077 8.32355 8.80382 9.05801 8.86707C10.8237 9.0187 12.6772 9.34713 14.5665 9.84228C16.0721 10.2375 17.6294 10.7535 19.1925 11.3773C20.4724 11.8876 21.7811 12.4769 23.1954 13.1797C24.3064 13.7324 25.3966 14.3138 26.5091 14.911C28.7686 16.124 32.0938 18.5847 35.6317 21.6613C39.1689 24.7364 42.3404 27.9251 44.3332 30.4088C47.5916 34.4684 50.2377 39.1993 51.2237 41.0448C51.5363 41.6298 51.4924 42.3284 51.108 42.8681L48.6243 46.3607C48.6092 46.3816 48.5927 46.4031 48.5754 46.4254C48.2772 46.8056 47.8323 47.0197 47.358 47.0197H47.3595ZM7.01775 8.52283C6.98685 8.52283 6.57003 8.52427 6.09859 8.54367C5.44605 8.57026 5.03714 8.61626 4.84885 8.68381C4.77842 8.70896 4.61385 8.76717 4.4888 8.92025C4.34148 9.10063 4.33213 9.31479 4.3271 9.40606C4.30986 9.78335 4.36088 10.1463 4.41047 10.4977C4.42197 10.5775 4.43275 10.6565 4.44353 10.7356C4.6814 12.5566 5.14781 14.3382 5.82981 16.0313C6.00373 16.464 6.1913 16.8851 6.38677 17.2832L6.39324 17.2962C6.93582 18.459 7.56824 19.621 8.32642 20.8492C9.16868 22.2132 10.1094 23.5693 11.2046 24.9951C11.2564 25.062 11.3074 25.1288 11.3584 25.1963L11.3721 25.2136C11.5927 25.5032 11.8198 25.8007 12.0627 26.086C16.8418 31.6686 22.2252 36.1911 28.5221 39.913C32.7837 42.4319 36.7693 44.1114 39.3615 45.0765C42.359 46.1919 45.2588 47.0039 47.1209 47.2476C47.3149 47.2734 47.5132 47.2655 47.708 47.2267C48.1291 47.1405 48.5057 46.9091 48.7695 46.5742C48.7874 46.5512 48.8047 46.5268 48.8212 46.5038L51.3063 43.0089C51.744 42.3938 51.7943 41.5975 51.4378 40.9306C50.4475 39.0793 47.7928 34.3319 44.5222 30.2571C42.5207 27.7627 39.3385 24.5632 35.7913 21.4787C32.2397 18.39 28.8979 15.9185 26.6234 14.6975C25.5095 14.0996 24.4171 13.5168 23.3025 12.9627C21.8824 12.257 20.5666 11.6648 19.2816 11.1517C17.7092 10.5243 16.1439 10.0047 14.6276 9.60728C12.7246 9.10853 10.8575 8.77795 9.07741 8.62488C8.33648 8.56092 7.66166 8.52786 7.01631 8.52355L7.01775 8.52283ZM47.3508 48.7862C47.2085 48.7862 47.0662 48.7769 46.9239 48.7582C44.9556 48.4995 41.93 47.6572 38.8319 46.5038C36.1808 45.5178 32.106 43.8009 27.7481 41.2252C21.3053 37.4171 15.7968 32.7889 10.9064 27.0763C10.6347 26.7587 10.3947 26.4432 10.1619 26.1385L10.1482 26.1198C10.0979 26.0544 10.0483 25.9883 9.99729 25.9229C8.87044 24.4554 7.90098 23.0569 7.03068 21.6483C6.24232 20.372 5.58475 19.1604 5.01701 17.9466C4.80645 17.5168 4.60522 17.064 4.41765 16.5998C3.68678 14.7881 3.18732 12.8808 2.93363 10.9325C2.92429 10.8592 2.91351 10.7852 2.90273 10.7111C2.84811 10.3295 2.78056 9.8545 2.80571 9.33419C2.83086 8.79808 3.00119 8.33382 3.31093 7.95509C3.57252 7.63601 3.91675 7.39885 4.33788 7.24937C4.5966 7.15667 4.9818 7.0654 6.03607 7.02228C6.542 7.00144 6.96816 7 7.02709 7C7.71413 7.00431 8.42775 7.03953 9.21037 7.10636C11.076 7.26662 13.0293 7.61229 15.0164 8.13332C16.5924 8.54655 18.2187 9.08554 19.8486 9.73592C21.1738 10.2641 22.5256 10.8728 23.983 11.5972C25.1178 12.1614 26.2209 12.75 27.3456 13.3543C29.7165 14.6271 33.1595 17.169 36.7923 20.3282C40.4057 23.4701 43.6569 26.7407 45.713 29.3035C49.0627 33.4774 51.7727 38.3233 52.7831 40.2126C53.4134 41.392 53.3243 42.802 52.5481 43.8922L50.0645 47.3863C50.0336 47.4294 50.0012 47.4732 49.9675 47.5163C49.4816 48.1344 48.7881 48.5613 48.0141 48.7201C47.7935 48.7646 47.5722 48.7876 47.3501 48.7876L47.3508 48.7862Z" fill="#FFF9F3"/>
<path d="M48.4773 46.2589L50.9617 42.7648C51.3045 42.2848 51.344 41.6516 51.0659 41.1321C50.0548 39.2406 47.431 34.5564 44.1941 30.5225C40.0267 25.3288 31.1419 17.6026 26.4254 15.0707C21.7261 12.549 14.3621 8.58201 5.19776 8.97655C5.13596 8.97942 5.0835 9.02111 5.06625 9.08075C4.67171 10.4735 4.65949 16.2098 12.385 25.8132C15.3775 29.3087 20.5439 34.7073 28.7388 39.551C36.2041 43.965 43.8521 46.3941 47.1766 46.8303C47.6818 46.8964 48.182 46.675 48.4773 46.2597V46.2589Z" fill="#5E5F73"/>
<path d="M31.7895 38.6067C19.1721 31.5135 15.5177 26.7898 12.9758 23.8383C12.9758 23.8383 11.951 23.6378 10.835 23.4258C11.3596 24.1466 11.9288 24.8918 12.549 25.663C15.5414 29.1585 20.7078 34.557 28.9027 39.4008C36.3875 43.8262 44.0555 46.2567 47.3664 46.6836C47.8565 46.7461 48.3401 46.5334 48.6269 46.1303L48.9158 45.7249C46.8381 45.3728 41.3713 43.993 31.7902 38.6067H31.7895Z" fill="#41435B"/>
<path d="M20.9811 16.1807C26.5062 19.3169 35.7826 25.8905 42.2081 32.9491C48.6335 40.007 50.2052 41.6628 50.2052 41.6628C50.2052 41.6628 43.0582 32.3411 39.8286 28.6063C36.6004 24.8714 32.2489 20.9627 28.5141 18.4265C24.7778 15.8904 22.3365 14.6636 21.4475 14.3359C20.6204 15.1214 20.9811 16.1807 20.9811 16.1807Z" fill="#A0A7EB"/>
<path d="M15.219 23.6016C19.9003 28.1571 25.0818 32.8162 32.6665 37.4774C40.2526 42.1385 46.589 45.2683 46.5013 45.1346C46.4129 45.0002 36.8915 42.1421 29.3614 37.4917C21.832 32.842 16.0519 27.713 13.3569 24.2031C14.7166 23.7877 15.219 23.6016 15.219 23.6016Z" fill="#A0A7EB"/>
<path d="M5.15565 8.9744C5.11971 8.97584 5.08953 8.99956 5.07947 9.03261C4.67271 10.3449 4.57497 16.1013 12.3846 25.8089C12.5485 26.0001 12.7188 26.197 12.8956 26.3989L12.9049 26.3946C14.8323 24.8976 19.5381 23.8448 21.4447 23.6752C21.8328 23.6407 22.2194 23.7521 22.5299 23.9864C25.6014 26.2976 43.534 39.7508 49.7317 44.4005C49.7547 44.4178 49.7884 44.4127 49.805 44.389C49.8215 44.3667 49.8165 44.3358 49.7956 44.3186L22.8964 22.4341C22.8885 22.4276 22.882 22.4197 22.8762 22.4104C22.7361 22.1581 20.7806 18.4966 22.4285 13.0815C22.4407 13.042 22.4228 13.0003 22.3854 12.9823C17.8974 10.8206 12.0332 8.66898 5.15565 8.9744Z" fill="#FFF4BD"/>
<path d="M9.64069 19.2418C6.79769 14.8207 6.51238 13.4056 5.32516 8.82422C5.30432 8.82494 5.28276 8.82566 5.26192 8.82709C4.84151 10.0237 4.62232 15.806 12.5484 25.6587C12.7122 25.8499 12.8825 26.0468 13.0593 26.2487L13.0701 26.2444C13.4222 25.9706 13.8685 25.7112 14.3737 25.4697C13.1463 24.0863 11.3561 21.9109 9.64069 19.2418Z" fill="#FFE97A"/>
<path d="M26.42 15.3099C21.7027 12.778 14.3027 8.79167 5.09246 9.21927C4.86752 9.86175 4.70007 11.8244 5.81686 15.0274C4.94513 10.7256 5.36842 9.63681 5.36842 9.63681C5.36842 9.63681 11.5086 8.63141 22.596 13.9387C27.028 16.0601 32.627 19.7353 38.2936 25.2697C45.3386 32.1501 46.717 35.3862 49.8352 39.1685C48.5129 36.8774 46.5085 33.6528 44.1887 30.7624C40.0205 25.5687 31.1358 17.8424 26.42 15.3106V15.3099Z" fill="#FDFDFD"/>
<path d="M5.09614 9.41149C5.09614 9.41939 5.09542 9.42945 5.09398 9.44239C5.07961 9.7471 5.12417 10.0597 5.17088 10.3903C5.18238 10.4729 5.19388 10.5549 5.20466 10.6368C5.43391 12.3932 5.88379 14.1115 6.54207 15.7443C6.71168 16.1633 6.89206 16.5707 7.08178 16.9552L7.08466 16.9617C7.61574 18.1 8.23522 19.2405 8.98047 20.4464C9.80764 21.7882 10.7354 23.1227 11.8141 24.5277C11.8709 24.601 11.927 24.675 11.9837 24.749C12.1972 25.0293 12.4185 25.3196 12.647 25.587C17.3708 31.1048 22.6917 35.5748 28.9138 39.2522C36.5704 43.7776 44.2061 46.0909 47.2208 46.4862C47.6003 46.5365 47.9733 46.3719 48.1968 46.0579L50.6812 42.5638C50.9485 42.1872 50.9801 41.6999 50.7616 41.2917C49.7821 39.4585 47.154 34.7613 43.9251 30.7376C39.8172 25.6186 30.9038 17.865 26.262 15.3734C25.1524 14.7777 24.065 14.1984 22.9626 13.6501C21.562 12.9537 20.2648 12.3702 18.9992 11.865C17.4556 11.2491 15.9205 10.7396 14.4343 10.3501C12.5737 9.86208 10.7491 9.53869 9.01353 9.38993C8.292 9.32812 7.63658 9.29578 7.01136 9.29147C6.48027 9.28788 5.31102 9.33531 5.10692 9.40717L5.09614 9.41149ZM47.6987 47.1502C47.5148 47.1876 47.3236 47.1955 47.131 47.1696C45.2747 46.9274 42.3814 46.1168 39.3904 45.0036C36.8003 44.0392 32.8197 42.3625 28.5624 39.8458C22.2742 36.1289 16.8965 31.6115 12.1231 26.0347C11.8817 25.7523 11.6546 25.4547 11.4354 25.1666C11.3793 25.0933 11.324 25.02 11.268 24.9474C10.1742 23.5237 9.23487 22.1698 8.39405 20.8079C7.63587 19.5797 7.00489 18.4177 6.46158 17.2556C6.26611 16.8568 6.07782 16.4349 5.90319 16.0016C5.22262 14.3142 4.75837 12.5391 4.52122 10.7252C4.51044 10.6454 4.49894 10.5656 4.48744 10.4859C4.43857 10.138 4.38755 9.77872 4.40479 9.40933C4.40839 9.32597 4.41845 9.12977 4.54996 8.9688C4.64842 8.8495 4.7749 8.79344 4.87551 8.75751C5.30742 8.60372 6.99914 8.60156 7.01567 8.60156C7.65958 8.60587 8.33296 8.63893 9.07318 8.70217C10.8475 8.85453 12.7103 9.18439 14.609 9.68242C16.1225 10.0791 17.6848 10.5973 19.2544 11.2232C20.5379 11.7349 21.8516 12.3264 23.2695 13.0314C24.382 13.584 25.4736 14.1668 26.5882 14.7647C28.857 15.9836 32.1938 18.4514 35.7418 21.5359C39.2847 24.6175 42.4641 27.8134 44.4633 30.3042C47.7289 34.3733 50.3822 39.1164 51.3703 40.9662C51.7131 41.6058 51.6636 42.3712 51.2431 42.9619L48.7588 46.456C48.5008 46.8196 48.1199 47.0625 47.6995 47.1488L47.6987 47.1502Z" fill="#171936"/>
<path d="M49.813 44.6791L49.6714 44.572C45.9143 41.7535 26.9633 27.537 22.8001 24.4073C22.2547 23.9969 21.582 23.8216 20.9065 23.9136C18.6291 24.224 14.6736 25.2423 13.0113 26.5338L12.8008 26.2614C14.6089 24.8564 18.7038 23.8661 20.8591 23.5722C21.6251 23.468 22.3884 23.6663 23.0064 24.132C26.1663 26.5072 37.8409 35.2669 44.929 40.5849L23.1667 22.8794C22.8576 22.6286 22.614 22.3052 22.4624 21.9444C21.9507 20.7278 20.9072 17.4169 22.2842 12.9648L22.6133 13.0669C21.2701 17.4104 22.282 20.6286 22.7807 21.8108C22.9108 22.1198 23.1192 22.3972 23.3837 22.6128L50.0666 44.3212L49.8115 44.6798L49.813 44.6791Z" fill="#171936"/>
</g>
<defs>
<clipPath id="clip0_4450_47742">
<rect width="50.4" height="41.7869" fill="white" transform="translate(2.7998 7)"/>
</clipPath>
</defs>
</svg>
