<svg width="56" height="56" viewBox="0 0 56 56" fill="none" xmlns="http://www.w3.org/2000/svg">
<path d="M23.3096 50.4016C22.5735 50.4016 21.8676 49.9847 21.5339 49.2746L14.6802 34.6773C14.2208 34.8023 13.7685 34.8817 13.3243 34.915C12.6755 34.9663 12.0448 34.6867 11.6417 34.1759C11.2386 33.6659 11.1144 32.9883 11.3101 32.3684L11.3723 32.1712L10.6253 31.862C9.87974 31.5535 9.40005 30.8195 9.41594 30.0133C9.42822 29.3747 9.74898 28.7939 10.2576 28.4413L7.92341 23.4689C7.90102 23.4212 7.88079 23.3742 7.86273 23.3258C6.85278 21.7697 6.7148 19.8907 7.5268 18.2884C8.59093 16.1861 11.0219 14.6633 14.0293 14.2154C16.3368 13.8708 18.6984 14.1698 20.7356 15.057C21.0462 14.7926 21.3908 14.5701 21.7607 14.396C22.1501 14.2132 22.5626 14.0868 22.9852 14.0189C23.5834 11.8227 24.883 9.74788 26.6689 8.14988C28.9344 6.12276 31.6579 5.22479 33.9567 5.74782C36.077 6.23185 37.6049 8.03574 37.8505 10.3439C37.8708 10.5375 37.8845 10.7318 37.8859 10.9254C37.8874 11.132 37.8773 11.3394 37.8549 11.5474L39.2593 14.5383C39.3084 14.5108 39.3351 14.4957 39.3366 14.4949C40.0352 14.0933 40.9093 14.1597 41.5385 14.6633C42.1678 15.1661 42.4257 16.0034 42.1873 16.7735L41.9489 17.545L42.1403 17.623C42.7428 17.8679 43.1849 18.396 43.3193 19.0332C43.4537 19.6697 43.2637 20.3314 42.8122 20.7995C42.3773 21.251 41.8614 21.6549 41.2719 22.0103L48.1949 36.7557C48.416 37.2267 48.4406 37.7657 48.2643 38.2547C48.088 38.7438 47.7239 39.1426 47.2536 39.3637L24.1418 50.2137C23.8724 50.3402 23.5892 50.3994 23.3103 50.3994L23.3096 50.4016Z" fill="#FFF8EC"/>
<path d="M15.673 30.2192C15.8833 30.2192 16.0935 30.2524 16.2965 30.3203C16.8044 30.4908 17.2198 30.8614 17.4473 31.3454L24.2504 45.8351L43.8136 36.6502L36.8885 21.8997C36.6522 21.3969 36.6407 20.8175 36.8567 20.3053C37.0272 19.9008 37.327 19.5685 37.7041 19.3568C37.6629 19.2434 37.6318 19.1263 37.6116 19.0064C37.1652 18.8287 36.783 18.487 36.5634 18.0189L34.0501 12.6657C33.8622 12.2655 33.8153 11.8132 33.9164 11.3827C33.9518 11.2324 33.9684 11.093 33.9677 10.9572C33.9677 10.8922 33.9612 10.825 33.954 10.7585C33.9359 10.5909 33.8095 9.737 33.0864 9.57229C31.838 9.28837 30.2573 10.2022 29.2842 11.0735C28.0055 12.2178 27.0946 13.6973 26.7204 15.2383C26.6691 15.4485 26.625 15.6782 26.5918 15.9029C26.4957 16.5531 26.0803 17.1115 25.4857 17.3911L24.8088 17.7089C24.4917 17.8578 24.1413 17.9192 23.7917 17.8859C23.6609 17.8722 23.5395 17.8939 23.4283 17.9466C23.317 17.9986 23.2238 18.0795 23.1501 18.1872C22.9529 18.4769 22.6813 18.7073 22.3649 18.8569L21.7739 19.1343C21.1888 19.4088 20.5075 19.3777 19.9498 19.0512C19.7757 18.9493 19.6066 18.8583 19.452 18.7825C18.0267 18.0853 16.3066 17.8412 14.6096 18.094C13.3179 18.2862 11.6051 18.9161 11.0264 20.0604C10.7447 20.6167 11.1088 21.1571 11.2785 21.3637C11.4974 21.6295 11.639 21.9452 11.6954 22.2761L14.6552 28.58C14.7837 28.8538 14.8459 29.1514 14.8408 29.4483C15.0734 29.634 15.2627 29.8724 15.3913 30.1462L15.4325 30.2336C15.5134 30.2235 15.5943 30.2184 15.6759 30.2184L15.673 30.2192Z" fill="white"/>
<path d="M46.4194 37.5923L23.3083 48.4423L12.4575 25.3306L35.5693 14.4805L46.4194 37.5923Z" fill="#EFAB00"/>
<path d="M39.4245 19.5074L13.8623 31.5097L9.69678 22.6383L35.2598 10.6367L39.4245 19.5074Z" fill="#FCC335"/>
<path d="M37.5776 41.7426L32.6753 44.045L20.29 17.6649L25.1924 15.3633L37.5776 41.7426Z" fill="#575ED5"/>
<path d="M25.2537 21.2189C25.2537 21.2189 19.0438 32.5212 13.1791 32.959L13.7838 31.0475L11.376 30.0498C11.376 30.0498 19.4324 27.0814 20.4316 22.5438C21.4307 18.007 23.5871 20.2595 25.2155 21.0853" fill="#8E97ED"/>
<path d="M24.6547 21.2313C24.6547 21.2313 37.3173 23.6724 41.4005 19.4404L39.5438 18.6848L40.3147 16.1953C40.3147 16.1953 32.8838 20.4966 28.7552 18.3676C24.6265 16.2379 24.9819 19.3357 24.5767 21.1165" fill="#8E97ED"/>
<path d="M35.9015 10.5509C35.7584 9.20357 34.9233 7.97834 33.5211 7.65902C31.5575 7.21184 29.4083 8.32871 27.9765 9.61029C26.4587 10.9692 25.297 12.789 24.8151 14.7735C24.4734 16.1815 24.2307 18.6659 25.7825 19.4634C26.0042 19.5769 26.2499 19.6086 26.502 19.5971C27.8782 16.9111 31.0381 11.8751 35.9022 10.5509H35.9015Z" fill="#8E97ED"/>
<path d="M32.5595 15.8931C34.0874 14.6144 35.9397 13.1342 35.9252 10.9409C35.9245 10.8101 35.9144 10.6801 35.9007 10.5508C31.0366 11.875 27.8767 16.911 26.5005 19.597C27.0922 19.5702 27.7257 19.2791 28.2025 19.058C29.8533 18.2937 31.1789 17.0468 32.5587 15.8931H32.5595Z" fill="#575ED5"/>
<path d="M9.97937 22.8549C9.03444 21.8839 8.62555 20.4586 9.27501 19.1763C10.1845 17.3789 12.4168 16.4398 14.3182 16.1566C16.3331 15.8568 18.4751 16.1255 20.3108 17.022C21.6126 17.6585 23.6794 19.0593 23.3009 20.762C23.2467 21.0048 23.1145 21.2143 22.944 21.4006C19.9987 20.744 14.1051 19.9587 9.97937 22.8549Z" fill="#8E97ED"/>
<path d="M16.2241 23.6935C14.2642 24.0519 11.9423 24.5323 10.2641 23.1207C10.1637 23.0369 10.0705 22.9458 9.97949 22.8526C14.1053 19.9564 19.9988 20.7424 22.9441 21.3984C22.5453 21.8369 21.9161 22.1382 21.4422 22.3636C19.8001 23.1459 17.9941 23.3699 16.2248 23.6935H16.2241Z" fill="#575ED5"/>
<path d="M26.4632 17.7516C27.1849 19.2882 26.6222 21.0733 25.2069 21.738C23.7917 22.4026 22.0586 21.6953 21.3369 20.158C20.6152 18.6214 21.178 16.8363 22.5932 16.1717C24.0084 15.5071 25.7415 16.2143 26.4625 17.7516H26.4632Z" fill="#575ED5"/>
<path d="M37.4007 24.7088C37.0922 24.3309 36.5519 24.1388 36.1141 24.4306C35.7753 24.656 35.5997 25.0729 35.6467 25.4688L35.6438 25.4659V25.4695C35.3693 25.1805 34.9365 25.0498 34.5464 25.1661C34.0422 25.3163 33.8442 25.8545 33.9381 26.3335C34.0451 26.8789 34.5312 27.186 35.0333 27.316C35.2977 27.3839 35.573 27.4034 35.8446 27.4063C36.0888 27.4092 36.3019 27.4258 36.5092 27.4995L36.5121 27.5009L36.5389 27.5111L36.5735 27.5241L36.619 27.5443L36.6328 27.4966L36.6451 27.4612L36.6537 27.4345V27.4316H36.6552C36.731 27.225 36.8538 27.0502 37.0077 26.8609C37.1789 26.6499 37.34 26.426 37.4563 26.1789C37.6781 25.7101 37.7525 25.1393 37.4007 24.7088Z" fill="#646ADB"/>
<path d="M23.2359 31.3572C22.9267 30.9794 22.3871 30.7872 21.9493 31.0791C21.6105 31.3052 21.4349 31.7213 21.4819 32.1172L21.479 32.1143V32.1179C21.2045 31.829 20.7717 31.6982 20.3816 31.8145C19.8774 31.9648 19.6801 32.503 19.7733 32.9819C19.8803 33.5274 20.3664 33.8351 20.8685 33.9644C21.1329 34.0331 21.4075 34.0518 21.6798 34.0547C21.924 34.0576 22.1371 34.0742 22.3444 34.1479L22.3473 34.1494L22.3741 34.1595L22.4087 34.1725L22.4543 34.1927L22.468 34.145L22.4803 34.1096L22.4889 34.0829V34.08H22.4904C22.5662 33.8734 22.689 33.6986 22.8429 33.5093C23.0141 33.2984 23.1752 33.0744 23.2915 32.8273C23.5133 32.3578 23.5877 31.7878 23.2359 31.3572Z" fill="#646ADB"/>
<path d="M26.9009 39.166C26.5925 38.7874 26.0521 38.596 25.6143 38.8878C25.2755 39.1132 25.0999 39.5301 25.1469 39.926L25.144 39.9231V39.9274C24.8695 39.6384 24.4368 39.5077 24.0467 39.624C23.5424 39.7742 23.3452 40.3125 23.4384 40.7914C23.5453 41.3368 24.0308 41.6439 24.5336 41.7739C24.798 41.8418 25.0732 41.8613 25.3449 41.8642C25.589 41.8671 25.8021 41.8844 26.0095 41.9581H26.0124L26.0391 41.9697L26.0738 41.9827L26.1193 42.0029L26.133 41.9552L26.1453 41.9198L26.154 41.8931V41.8902H26.1554C26.2313 41.6836 26.3541 41.5088 26.508 41.3195C26.6792 41.1086 26.8403 40.8846 26.9566 40.6375C27.1784 40.1687 27.2528 39.598 26.9009 39.1674V39.166Z" fill="#646ADB"/>
<path d="M41.0653 32.5175C40.7568 32.139 40.2164 31.9475 39.7786 32.2394C39.4398 32.4648 39.2643 32.8816 39.3112 33.2775L39.3083 33.2746V33.279C39.0338 32.99 38.6011 32.8592 38.211 32.9755C37.7067 33.1258 37.5088 33.664 37.6027 34.143C37.7096 34.6884 38.1958 34.9962 38.6979 35.1255C38.9623 35.1934 39.2375 35.2129 39.5092 35.2158C39.7533 35.2187 39.9665 35.236 40.1738 35.3097H40.1767L40.2034 35.3213L40.2381 35.3343L40.2836 35.3545L40.2973 35.3068L40.3096 35.2714L40.3183 35.2447V35.2418H40.3197C40.3956 35.0352 40.5184 34.8604 40.6723 34.6711C40.8435 34.4601 41.0046 34.2362 41.1209 33.9891C41.3427 33.5203 41.4171 32.9495 41.0653 32.519V32.5175Z" fill="#646ADB"/>
<path d="M30.2833 28.0486C29.9741 27.6708 29.4344 27.4786 28.9966 27.7705C28.6578 27.9966 28.4823 28.4127 28.5292 28.8086L28.5263 28.8057V28.8101C28.2518 28.5211 27.8191 28.3903 27.429 28.5066C26.9247 28.6576 26.7275 29.1951 26.8207 29.6741C26.9276 30.2195 27.4138 30.5273 27.9166 30.6558C28.181 30.7245 28.4563 30.7433 28.7279 30.7461C28.9721 30.749 29.1852 30.7657 29.3925 30.8401L29.3954 30.8408L29.4221 30.8509L29.4568 30.8646L29.5023 30.8841L29.5161 30.8365L29.5283 30.8011L29.537 30.7736V30.7707H29.5385C29.6143 30.5641 29.7371 30.3893 29.891 30.2C30.0622 29.9883 30.2233 29.7651 30.3396 29.518C30.5614 29.0485 30.6358 28.4785 30.284 28.0479L30.2833 28.0486Z" fill="#FFF8EC"/>
<path d="M33.9488 35.8572C33.6396 35.4794 33.1 35.2872 32.6622 35.5791C32.3234 35.8052 32.1478 36.2213 32.1948 36.6172L32.1919 36.6143V36.6179C31.9173 36.329 31.4846 36.1982 31.0945 36.3145C30.5903 36.4648 30.393 37.003 30.4862 37.4819C30.5931 38.0274 31.0793 38.3351 31.5821 38.4644C31.8466 38.5331 32.1218 38.5519 32.3934 38.5547C32.6376 38.5576 32.8507 38.5742 33.0581 38.6479L33.0609 38.6494L33.0877 38.6595L33.1223 38.6725L33.1679 38.6927L33.1816 38.645L33.1939 38.6096L33.2025 38.5829V38.58H33.204C33.2798 38.3734 33.4027 38.1986 33.5565 38.0093C33.7277 37.7984 33.8888 37.5744 34.0051 37.3273C34.2269 36.8578 34.3014 36.2878 33.9495 35.8572H33.9488Z" fill="#FFF8EC"/>
</svg>
