<svg width="56" height="56" viewBox="0 0 56 56" fill="none" xmlns="http://www.w3.org/2000/svg">
<g clip-path="url(#clip0_4450_47735)">
<path d="M21.3637 18.4678L21.3253 18.5494L21.3184 18.5517L21.3637 18.4678ZM39.2248 15.6459C38.6016 15.4497 37.9577 15.272 37.3107 15.1112L39.144 15.3497L39.2248 15.6459ZM53.1037 25.8012C53.0768 25.7166 53.0145 25.6473 52.9329 25.6112C52.8314 25.5658 50.4156 24.5056 48.1307 24.301H48.123C47.4791 24.2587 46.8251 24.2348 46.1696 24.2256L43.23 19.648C43.1792 19.5687 43.0946 19.5164 42.9999 19.5072L42.4829 19.4557L41.4389 17.7423C41.3889 17.6608 41.3051 17.6069 41.2105 17.5954L40.3726 17.4954L39.6879 14.9865C39.6556 14.8658 39.5533 14.7765 39.4287 14.7604L28.8187 13.3817C28.7694 13.3748 28.7187 13.3809 28.6725 13.3979L22.1954 15.7613C22.1239 15.7874 22.0638 15.839 22.0285 15.9067L20.4505 18.8586L16.3884 20.2965L15.3513 16.5391C15.1598 15.8428 14.1481 15.8174 13.8427 15.8259C13.4157 15.8382 12.961 15.9498 12.4148 16.1775C12.1755 16.2767 11.6154 16.5106 11.5039 17.0745C11.0138 19.5411 10.6476 21.3852 10.4452 22.3992L9.05119 22.8923C8.98657 22.9154 8.93118 22.9585 8.89425 23.0162L7.70562 24.8503L6.15385 25.3534C6.06846 25.3811 5.99921 25.4442 5.96382 25.5273L5.86612 25.7573C5.84612 25.7627 5.82765 25.7673 5.81073 25.772C5.76918 25.9081 5.70302 26.1043 5.61762 26.342L3.77889 30.6711C3.44885 30.7311 3.24266 30.7688 3.17958 30.7811C3.05417 30.8065 2.95647 30.9065 2.93493 31.0327C2.62565 32.8176 3.7335 35.2826 4.55362 36.5043C4.58593 36.5527 4.63132 36.5904 4.68364 36.6143C6.95858 37.6367 9.86747 38.6023 13.3303 39.4839C16.3776 40.2594 19.8512 40.9626 23.3779 41.5181C28.4802 42.322 33.3216 42.769 36.6383 42.769C37.6515 42.769 38.5224 42.7275 39.2156 42.6413C39.3286 42.6275 39.4248 42.5528 39.4664 42.4467C39.7903 41.6204 40.7042 39.5393 41.3159 38.7408L41.3205 38.7338C43.7778 35.3356 46.8505 32.5714 48.0068 31.5305L48.1507 31.4012C49.1224 30.5242 51.425 28.7478 51.4473 28.7301C51.4789 28.7062 51.5043 28.677 51.5243 28.6439L53.0729 26.0543C53.1183 25.9781 53.1291 25.8858 53.1029 25.8012H53.1037Z" fill="#171936"/>
<path d="M5.1144 35.9766C7.33164 36.9613 10.1582 37.8946 13.5179 38.7493C16.5422 39.5186 19.9935 40.2172 23.4971 40.7696C28.5047 41.5582 33.2946 42.0113 36.6397 42.0113C37.5075 42.0113 38.2538 41.9805 38.8623 41.919C39.2032 41.0912 40.0594 39.1393 40.7103 38.2861C43.2137 34.8249 46.3265 32.0229 47.4998 30.9682L47.6436 30.8389C48.5414 30.0288 50.5202 28.4909 50.9179 28.1831L52.155 26.1136C51.3572 25.7997 49.6747 25.205 48.0691 25.0604C47.4659 25.0211 46.8243 24.9965 46.1596 24.9873L45.7526 24.9811L42.7091 20.2428L42.032 20.1751L40.9049 18.3248L39.7756 18.1902L39.3063 16.4684L38.997 16.3714C38.42 16.1891 37.7914 16.0137 37.1283 15.8498L37.2429 15.2436L28.8309 14.1503L22.6177 16.4176L21.4983 18.5125L22.0522 18.7887L21.8807 19.1595L19.725 19.925L19.7265 19.9219L15.8729 21.2852L14.6196 16.7415C14.575 16.6784 14.2842 16.573 13.8657 16.5853C13.5325 16.5945 13.164 16.6884 12.7063 16.8792C12.5686 16.9369 12.2816 17.0562 12.2485 17.2231C11.7592 19.6904 11.3922 21.5337 11.1899 22.5485L11.106 22.9716L9.44887 23.5579L8.19715 25.4904L6.58384 26.0136L6.42151 26.3967L6.40381 26.4013C6.38227 26.4637 6.35919 26.5291 6.33457 26.5991L6.31842 26.6406L4.31967 31.3467L3.91653 31.4198C3.80959 31.439 3.72189 31.4552 3.64957 31.4682C3.55186 32.9515 4.44507 34.9341 5.11671 35.9766H5.1144ZM36.6397 43.53C33.2192 43.53 28.3431 43.0707 23.2609 42.2698C19.7111 41.7105 16.2129 41.0019 13.1448 40.221C9.6389 39.3286 6.6877 38.3485 4.37352 37.3083C4.19119 37.226 4.03578 37.0952 3.92423 36.929C3.16027 35.7904 1.81392 33.0669 2.18782 30.9051C2.26245 30.4727 2.60173 30.125 3.03179 30.0388C3.04795 30.0357 3.0841 30.028 3.24105 29.9996L4.91052 26.0682C5.00746 25.7943 5.059 25.6366 5.08516 25.552L5.2098 25.1442L5.32443 25.115C5.45599 24.8873 5.66755 24.715 5.92067 24.6326L7.21624 24.2126L8.25793 22.6046C8.38564 22.4077 8.57721 22.2561 8.79878 22.1777L9.78584 21.8284C9.99818 20.7621 10.3321 19.0826 10.7598 16.9277C10.9506 15.966 11.8338 15.5982 12.1231 15.4775C12.7586 15.2128 13.2979 15.0828 13.8226 15.0674C15.0097 15.0328 15.8559 15.5082 16.0844 16.3376L16.9038 19.3096L19.9204 18.2425L21.3591 15.5498C21.4837 15.3174 21.6883 15.1397 21.9361 15.0489L28.4131 12.6855C28.5732 12.627 28.7486 12.6078 28.9186 12.6301L39.5278 14.0088C39.9571 14.0642 40.3079 14.3704 40.4218 14.7881L40.9719 16.803L41.3019 16.8423C41.6304 16.8815 41.9166 17.0654 42.089 17.3477L42.936 18.7387L43.0768 18.7525C43.4038 18.7856 43.6923 18.9626 43.87 19.2388L46.5904 23.4748C47.1374 23.4879 47.6682 23.5102 48.1729 23.5432C48.1829 23.5432 48.1922 23.5448 48.2022 23.5456C50.6087 23.761 53.1352 24.8704 53.2413 24.9173C53.5214 25.0412 53.7353 25.2796 53.8284 25.572C53.9214 25.8636 53.8845 26.1821 53.7268 26.4444L52.1781 29.034C52.1089 29.1494 52.0204 29.2502 51.9135 29.3325C51.8188 29.4049 49.5985 31.1205 48.6615 31.966L48.5168 32.096C47.3767 33.1223 44.3478 35.8473 41.9382 39.1801L41.9359 39.1847L41.922 39.2024C41.3904 39.8979 40.5234 41.8397 40.1772 42.7253C40.0333 43.0915 39.7025 43.3484 39.3132 43.3969C38.5992 43.4854 37.7014 43.53 36.6428 43.53H36.6397Z" fill="#FFF9F3"/>
<path d="M5.60992 35.4048C7.7587 36.3403 10.4783 37.2297 13.6972 38.0491C16.7 38.813 20.1282 39.507 23.6094 40.0555C28.5817 40.8387 33.3309 41.288 36.6398 41.288C37.2883 41.288 37.8677 41.2703 38.3654 41.2349C38.7224 40.4002 39.4871 38.7007 40.1288 37.8544C42.676 34.3347 45.8273 31.4981 47.0151 30.4295L47.159 30.3002C48.0099 29.5324 49.8009 28.133 50.3664 27.6937L51.0873 26.4897C50.2395 26.2004 49.1047 25.8788 48.013 25.7796C47.4252 25.7419 46.7982 25.718 46.1496 25.7088L45.7419 25.7034C45.4995 25.7003 45.2749 25.5749 45.1441 25.3711L42.2906 20.9266L41.9606 20.8935C41.7344 20.8712 41.5336 20.7435 41.4151 20.5504L40.4711 19.0001L39.6902 18.9071C39.3987 18.8724 39.1563 18.6639 39.0794 18.3801L38.7132 17.0383C38.1685 16.8683 37.5784 16.7044 36.956 16.5498C36.6329 16.4698 36.4128 16.1828 36.4067 15.862L28.9133 14.888L23.1263 16.9999L22.4824 18.2046C22.7539 18.4047 22.8563 18.774 22.7093 19.0902L22.5378 19.461C22.4562 19.6372 22.3077 19.7733 22.1238 19.8387L19.9682 20.6042C19.9497 20.6111 19.9305 20.6165 19.912 20.6219L16.1161 21.9652C15.9268 22.0321 15.7183 22.0175 15.5406 21.9244C15.3629 21.8313 15.2313 21.669 15.1782 21.4759L14.0296 17.3091C13.9873 17.3061 13.9404 17.3053 13.8888 17.3068C13.6472 17.3137 13.361 17.3899 12.9871 17.5453C12.9718 17.5515 12.9448 17.563 12.9179 17.5746C12.4486 19.9357 12.0978 21.7036 11.9016 22.6884L11.817 23.1115C11.767 23.3615 11.5892 23.5662 11.3492 23.6516L9.92439 24.1555L8.80654 25.8811C8.71653 26.0204 8.58112 26.1243 8.42264 26.1758L7.12245 26.5974L7.0886 26.6766C7.07552 26.7082 7.05936 26.7382 7.04244 26.7674C7.03398 26.7913 7.02551 26.8144 7.01705 26.839L7.00936 26.8597L6.9932 26.9013L6.98551 26.9205L4.98676 31.6266C4.89136 31.8505 4.68979 32.012 4.45053 32.0551L4.38513 32.0667C4.50053 33.213 5.11601 34.5762 5.613 35.4018L5.60992 35.4048ZM36.6398 42.7336C33.2593 42.7336 28.4278 42.2781 23.384 41.4834C19.8589 40.9279 16.3861 40.2248 13.3403 39.4493C9.94132 38.5845 7.07475 37.6375 4.82058 36.6365C4.6921 36.5796 4.58285 36.4858 4.50669 36.3673C3.86429 35.3694 2.80875 33.2053 2.92646 31.4204C2.948 31.0904 3.19188 30.8165 3.51731 30.7572L3.80505 30.7049L5.64685 26.3674L5.65531 26.3451C5.67763 26.2812 5.69917 26.2204 5.71917 26.1635C5.74071 26.1019 5.76995 26.0435 5.80611 25.9912L5.91689 25.7304C5.99844 25.5372 6.16 25.3903 6.35926 25.3257L7.72869 24.8818L8.84116 23.1646C8.9281 23.0307 9.05658 22.9292 9.2066 22.8761L10.476 22.4268L10.4799 22.406C10.6822 21.392 11.0484 19.5479 11.5385 17.0814C11.6462 16.5359 12.1932 16.3082 12.4271 16.2113C12.9694 15.9851 13.4195 15.8743 13.8427 15.862C14.0796 15.8551 14.8828 15.8674 15.2059 16.3205C15.2552 16.3898 15.2921 16.4667 15.3144 16.5483L16.3607 20.3442L19.4827 19.2394C19.5012 19.2333 19.5196 19.2271 19.5373 19.2225L20.8214 18.767C20.816 18.7547 20.8114 18.7424 20.8083 18.7301C20.749 18.5439 20.7675 18.3424 20.8591 18.17L21.9792 16.0751C22.0623 15.9182 22.2015 15.7981 22.3685 15.7366L28.5809 13.4693C28.6894 13.4293 28.8071 13.417 28.9218 13.4316L37.3337 14.5249C37.5307 14.5503 37.7084 14.6564 37.8261 14.8172C37.93 14.9619 37.9777 15.1396 37.96 15.3165C38.397 15.4335 38.8163 15.5558 39.2125 15.6804L39.5217 15.7781C39.7556 15.852 39.9364 16.0397 40.0018 16.2774L40.3434 17.5299L40.9897 17.6069C41.2097 17.633 41.4059 17.7592 41.5213 17.9485L42.4606 19.491L42.7799 19.5233C42.9992 19.5456 43.1969 19.6664 43.3161 19.8518L46.1489 24.2632H46.1689C46.8382 24.2732 47.486 24.2971 48.0945 24.3363H48.1045L48.1199 24.3378H48.1207C48.1338 24.3386 48.1461 24.3401 48.1584 24.3409C49.8271 24.4956 51.542 25.0949 52.4182 25.4388C52.616 25.5165 52.769 25.6773 52.8383 25.8781C52.9068 26.0789 52.8829 26.2997 52.7744 26.482L51.5366 28.5515C51.4904 28.6292 51.4296 28.6969 51.3588 28.7523C50.9726 29.0508 49.0054 30.5803 48.1268 31.3735L47.9822 31.5035C46.8243 32.5452 43.7516 35.3094 41.2943 38.7084L41.2835 38.723C40.7242 39.4577 39.9172 41.2503 39.5294 42.1927C39.4279 42.4397 39.1994 42.6097 38.934 42.6366C38.3016 42.7005 37.5292 42.7328 36.639 42.7328L36.6398 42.7336ZM5.81072 25.6488L5.7761 25.7634C5.7361 25.8942 5.67224 26.0835 5.59146 26.3104C5.58684 26.3243 5.58146 26.3374 5.57607 26.3504L3.9066 30.2818C3.81197 30.5049 3.61117 30.6657 3.37268 30.7103C3.22419 30.738 3.18957 30.7449 3.17419 30.7472C3.03647 30.7749 2.92415 30.8903 2.9003 31.028C2.58949 32.8237 3.70119 35.2994 4.52438 36.5258C4.56054 36.5796 4.61132 36.6219 4.67056 36.6489C6.94704 37.6721 9.85823 38.6384 13.3233 39.5208C16.3715 40.2963 19.8466 41.0003 23.374 41.5557C28.4209 42.3504 33.2562 42.8067 36.6406 42.8067C37.6692 42.8067 38.5378 42.7636 39.2217 42.679C39.3486 42.6636 39.4556 42.5797 39.5017 42.4612C39.8249 41.6365 40.7373 39.5593 41.3466 38.763L41.352 38.7553C43.8062 35.3617 46.8767 32.599 48.0322 31.5589L48.1768 31.4289C49.1347 30.5641 51.3758 28.8339 51.4712 28.7608C51.5066 28.7331 51.5343 28.7015 51.5573 28.6639L53.106 26.0742C53.1568 25.9888 53.1691 25.8858 53.1391 25.7911C53.1083 25.6965 53.0391 25.6188 52.9483 25.5788C52.8468 25.5334 50.4249 24.4709 48.1376 24.2663H48.1261C47.6321 24.2332 47.1098 24.2109 46.5735 24.1978C46.3335 24.1924 46.1119 24.0678 45.9827 23.8662L43.2623 19.6302C43.2038 19.5395 43.1115 19.4833 43.0046 19.4725L42.8638 19.4587C42.6376 19.4364 42.4368 19.3094 42.3183 19.1155L41.4713 17.7246C41.4143 17.6315 41.3243 17.573 41.2158 17.5607L40.8858 17.5215C40.5934 17.4869 40.3519 17.2784 40.2749 16.9945L39.7249 14.9796C39.6872 14.8442 39.5733 14.7449 39.434 14.7265L28.8256 13.3478C28.7702 13.3409 28.7125 13.347 28.6609 13.3655L22.1839 15.7289C22.1031 15.7581 22.0369 15.8158 21.9961 15.8912L20.5575 18.5839C20.4728 18.7432 20.3305 18.8647 20.1605 18.9248L17.1447 19.9918C16.9554 20.0588 16.7469 20.0441 16.5692 19.9511C16.3915 19.858 16.2599 19.6956 16.2068 19.5025L15.3875 16.5306C15.1875 15.8074 14.1542 15.7812 13.8427 15.7905C13.4095 15.8028 12.951 15.9159 12.4001 16.1451C12.0193 16.3036 11.57 16.5513 11.4669 17.0691C11.0392 19.2248 10.7053 20.9043 10.4929 21.9706C10.4429 22.2206 10.2652 22.426 10.0252 22.5107L9.03811 22.8599C8.96733 22.8846 8.90348 22.9353 8.8627 22.9984L7.82101 24.6063C7.731 24.7456 7.5956 24.8495 7.43711 24.901L6.14154 25.3211C6.05999 25.3472 5.99152 25.4034 5.94843 25.4772C5.91074 25.5419 5.86381 25.6003 5.80918 25.6496L5.81072 25.6488ZM36.6398 44.2523C33.1839 44.2523 28.2663 43.7899 23.1486 42.9836C19.5766 42.4212 16.056 41.708 12.9656 40.9218C9.41971 40.0193 6.4285 39.0254 4.07662 37.9675C3.77043 37.8298 3.51039 37.6098 3.32344 37.3313C2.44331 36.0195 1.06311 33.1637 1.47548 30.7811C1.59088 30.1141 2.08249 29.5663 2.72181 29.3716L4.23665 25.805C4.32512 25.5565 4.37051 25.4149 4.39359 25.3403L4.51823 24.9325C4.57516 24.7471 4.70287 24.5948 4.86982 24.5056C5.08523 24.2455 5.37066 24.0501 5.69686 23.9447L6.74855 23.6039L7.65099 22.2114C7.86486 21.8813 8.18645 21.6274 8.55727 21.4967L9.15659 21.2843C9.36893 20.218 9.67282 18.6878 10.0506 16.7867C10.2267 15.8974 10.8307 15.2327 11.8454 14.8103C12.564 14.511 13.1864 14.3626 13.8019 14.3449C15.3221 14.3002 16.463 14.9903 16.7815 16.1451L17.3947 18.3685L19.4158 17.6538L20.7221 15.2088C20.9306 14.8195 21.2737 14.521 21.6892 14.3702L28.1647 12.0068C28.4332 11.9084 28.7271 11.876 29.0125 11.9137L39.6202 13.2924C40.3388 13.3855 40.9273 13.8986 41.1181 14.598L41.542 16.1505C42.026 16.2513 42.4445 16.5444 42.7045 16.9729L43.3746 18.0723C43.8285 18.177 44.2224 18.4516 44.4771 18.8501L46.9921 22.7653C47.4129 22.7792 47.8245 22.7992 48.2199 22.8245C48.2353 22.8253 48.2515 22.8269 48.2669 22.8284C50.7888 23.0538 53.423 24.2094 53.533 24.2586C54.0023 24.4663 54.3608 24.8664 54.5162 25.3549C54.6709 25.8442 54.6093 26.3766 54.3462 26.8174L52.7975 29.407C52.6813 29.6009 52.5321 29.7694 52.3528 29.9071C52.2597 29.9787 50.0625 31.6766 49.1447 32.5044L48.9993 32.6352C47.8753 33.6476 44.8871 36.335 42.523 39.6054L42.5183 39.6108C42.5099 39.6231 42.503 39.6331 42.4945 39.6424C42.0675 40.2024 41.2466 41.9689 40.8473 42.9898C40.6073 43.6029 40.0534 44.0338 39.4002 44.1153C38.657 44.2076 37.7284 44.2546 36.6406 44.2546L36.6398 44.2523Z" fill="#FFF9F3"/>
<path d="M20.8828 19.5089L22.3346 16.3708L28.9494 13.7773C28.9494 13.7773 34.6217 14.739 39.6163 15.2945L40.4133 18.0572C40.4133 18.0572 29.4679 17.0455 29.3902 17.0194C29.3133 16.9932 20.8836 19.5097 20.8836 19.5097L20.8828 19.5089Z" fill="#FFF8D4"/>
<path d="M10.5696 23.3561C10.5835 23.2992 11.5221 18.577 11.8075 17.1375C11.8983 16.679 12.5484 16.419 12.9446 16.2912C13.5347 16.1012 14.1224 16.1235 14.7133 16.2851C14.8779 16.3305 15.0064 16.459 15.0518 16.6236L16.3643 21.3851L10.5688 23.3561H10.5696Z" fill="#FF5D2B"/>
<path d="M12.9448 16.2895C12.5478 16.4172 11.8985 16.6773 11.8077 17.1358C11.5223 18.5752 10.5844 23.2982 10.5698 23.3544L12.634 22.652C12.7371 20.5217 12.8348 18.3983 13.0086 16.2695C12.9879 16.2757 12.9663 16.2818 12.9448 16.2888V16.2895Z" fill="#FF511C"/>
<path d="M13.9288 16.4448C13.9058 16.4448 13.8835 16.4448 13.8604 16.4455C13.5103 16.4555 13.1264 16.5525 12.6517 16.7494C12.3017 16.8956 12.1447 17.0241 12.1117 17.1949C11.42 20.6777 11.1154 22.2094 10.98 22.8857L15.9884 21.1824L14.7528 16.7025C14.7128 16.5555 14.3497 16.444 13.9288 16.444V16.4448ZM10.5699 23.6643C10.493 23.6643 10.4183 23.6358 10.3599 23.5819C10.2775 23.5065 10.2429 23.3927 10.2675 23.2834C10.2899 23.1803 10.7515 20.8615 11.5039 17.0741C11.6154 16.5101 12.1755 16.2763 12.4148 16.177C12.961 15.9493 13.4149 15.8377 13.8427 15.8254C14.1481 15.8162 15.1598 15.8424 15.3514 16.5386L16.6646 21.3001C16.7085 21.4586 16.6208 21.6232 16.4646 21.6763L10.6691 23.6473C10.6368 23.6581 10.603 23.6643 10.5691 23.6643H10.5699Z" fill="#171936"/>
<path d="M15.0581 16.3597C14.9519 16.3782 13.334 16.182 13.2325 16.2197L12.2831 16.5759C12.0377 16.6674 11.8584 16.879 11.8076 17.1352C11.7607 17.3729 11.6953 17.7014 11.6191 18.083L13.1571 17.3514L13.1501 17.4322C13.164 17.4291 13.1771 17.4252 13.1909 17.4221C13.3563 17.3745 13.5225 17.3329 13.6925 17.3029C13.861 17.2729 14.0203 17.2921 14.1549 17.3629C14.1664 17.3629 14.178 17.3629 14.1903 17.3629C14.2141 17.3629 14.2364 17.3644 14.2603 17.3675C14.665 17.3868 15.1597 17.416 15.1612 17.3891C15.1881 16.9667 15.0396 16.6451 15.0581 16.3589V16.3597Z" fill="#F1F0F1"/>
<path d="M29.2938 17.3104C29.333 17.3235 29.3684 17.3258 29.3938 17.325C29.3176 17.3166 29.303 17.3127 29.2938 17.3104ZM22.519 16.3033L20.9603 19.2207C21.8042 18.9629 23.2775 18.5136 24.7423 18.0697C26.0518 17.6728 27.0981 17.3573 27.8536 17.1327C29.2315 16.7226 29.3561 16.6857 29.4576 16.7118C29.9116 16.7634 36.6456 17.3335 39.7568 17.5958L39.1437 15.3486L28.8137 14.0061L22.519 16.3026V16.3033ZM20.3325 20.0469C20.2417 20.0469 20.1532 20.0069 20.0924 19.9339C20.0124 19.8369 19.9994 19.7015 20.0594 19.5907L22.0281 15.9063C22.0643 15.8386 22.1235 15.7871 22.1951 15.7609L28.6721 13.3975C28.7183 13.3806 28.7691 13.3752 28.8183 13.3814L39.4283 14.76C39.5529 14.7762 39.6553 14.8654 39.6876 14.9862L40.4723 17.8605C40.4985 17.9582 40.4762 18.0628 40.4108 18.1405C40.3461 18.2182 40.2477 18.2598 40.1461 18.2513C31.5649 17.5297 29.7969 17.3704 29.4092 17.3273C28.9191 17.4458 23.8091 18.9976 20.4233 20.0331C20.3933 20.0423 20.3625 20.0469 20.3325 20.0469Z" fill="#171936"/>
<path d="M7.70557 25.4214L8.94805 23.465L30.1511 16.0039C30.1511 16.0039 37.833 16.7556 41.4989 18.0604C41.7436 18.5797 42.8814 20.7054 42.8814 20.7054C42.8814 20.7054 23.9541 21.804 23.8633 21.804C23.7725 21.804 8.17256 26.1692 8.17256 26.1692L7.70557 25.4214Z" fill="#FFF8D4"/>
<path d="M23.89 22.1149C23.8746 22.1156 23.8646 22.1164 23.8631 22.1164C23.8731 22.1164 23.8823 22.1164 23.89 22.1149ZM8.07311 25.4261L8.31237 25.8093C9.19712 25.5615 12.563 24.6198 15.8996 23.6889C23.4038 21.5948 23.7785 21.4994 23.8531 21.4948C24.0947 21.4855 39.3253 20.6016 42.3465 20.4262L40.9863 18.1943L28.4237 16.6956L9.35714 23.4428L8.07311 25.4254V25.4261ZM8.17235 26.4817C8.06772 26.4817 7.96694 26.4278 7.90924 26.3355L7.44225 25.5877C7.37839 25.4854 7.37916 25.3553 7.44533 25.2546L8.89477 23.0181C8.93169 22.9604 8.98709 22.9173 9.05171 22.8942L28.2868 16.0878C28.3314 16.0717 28.3799 16.0671 28.4268 16.0725L41.211 17.5973C41.3056 17.6088 41.3895 17.6627 41.4395 17.7442L43.1459 20.5462C43.2028 20.6393 43.2066 20.7554 43.1559 20.8516C43.1059 20.9478 43.0082 21.0109 42.8997 21.017C38.5844 21.2678 24.7771 22.0687 23.9069 22.1141C23.3584 22.2487 13.4708 25.0107 8.25698 26.4701C8.22929 26.4778 8.20082 26.4817 8.17312 26.4817H8.17235Z" fill="#171936"/>
<path d="M3.51172 31.1362C4.20336 30.1391 5.53817 26.664 5.81051 25.7716C7.74464 25.2754 29.2454 18.2143 29.2454 18.2143C29.2454 18.2143 30.8564 17.9812 37.2289 19.1468C40.7502 19.7423 43.0113 19.83 43.0113 19.83L46.8149 25.8047L3.77868 31.9217L3.51172 31.137V31.1362Z" fill="#FFF8D4"/>
<path d="M30.0508 19.5742L43.7666 20.8583C43.7666 20.8583 44.9745 22.867 44.9245 22.8332C44.9114 22.8247 31.5772 21.6622 31.5772 21.6622L30.0508 19.5742Z" fill="#171936"/>
<path d="M41.0625 21.0273L41.5395 22.0698L44.0883 22.3014L43.4813 21.2797L41.0625 21.0273Z" fill="#7F89E4"/>
<path d="M4.24888 31.1535L4.16887 31.5536L46.2927 25.5666L42.7883 20.1104L28.6924 18.6971L6.47997 25.8997L4.24888 31.1527V31.1535ZM3.77881 32.2321C3.69419 32.2321 3.61264 32.1975 3.5534 32.1352C3.48416 32.0621 3.45492 31.9598 3.47492 31.8613L3.64726 31.0004C3.6511 30.9796 3.65803 30.9596 3.66572 30.9396L5.96452 25.5265C5.9999 25.4442 6.06915 25.3804 6.15454 25.3527L28.5632 18.0855C28.6032 18.0724 28.647 18.0678 28.6893 18.0716L43.0006 19.5064C43.0945 19.5157 43.1791 19.568 43.2299 19.6472L47.0766 25.6366C47.1335 25.7258 47.1412 25.8374 47.0974 25.9335C47.0535 26.0297 46.9635 26.0966 46.8589 26.1112L3.82267 32.2291C3.80805 32.2314 3.79343 32.2321 3.77881 32.2321Z" fill="#171936"/>
<path d="M5.17676 30.9427C5.20984 30.8766 5.88994 29.0517 5.88994 29.0517L30.3573 23.6602L32.1253 26.519L5.17676 30.9427Z" fill="#171936"/>
<path d="M32.1196 22.6133L45.2261 23.548L47.6265 26.1869C47.6265 26.1869 35.2232 27.7071 35.1778 27.6471C35.1331 27.5871 34.5084 26.1076 34.5084 26.1076L32.1196 22.6141V22.6133Z" fill="#171936"/>
<path d="M41.9673 23.7148L42.3758 24.598L45.4001 24.4088L44.93 23.8949L41.9673 23.7148Z" fill="#7F89E4"/>
<path d="M39.3652 23.5312L39.9115 24.6329L41.8833 24.366L41.5879 23.7105L39.3652 23.5312Z" fill="#7F89E4"/>
<path d="M4.81124 36.3308C4.01805 35.1491 2.94943 32.7687 3.24101 31.0854C4.21269 30.8908 33.3054 25.727 34.8594 25.4677C36.4135 25.2084 42.6152 24.2537 48.1029 24.6099C50.3632 24.8122 52.8074 25.8947 52.8074 25.8947L51.2587 28.4843C51.2587 28.4843 48.9353 30.2753 47.9436 31.1708C46.9504 32.0663 43.6599 34.9706 41.0696 38.5519C40.441 39.3751 39.5147 41.4754 39.1785 42.3332C33.4354 43.0456 14.3749 40.6307 4.81201 36.3316L4.81124 36.3308Z" fill="#EEF8D4"/>
<path d="M45.9869 32.927L3.28076 32.4531C3.51003 33.8672 4.24321 35.3889 4.82791 36.2598C14.3901 40.5589 33.4513 42.9746 39.1944 42.2615C39.5306 41.4029 40.4569 39.3026 41.0855 38.4802C42.688 36.2644 44.5575 34.3088 45.9862 32.9263L45.9869 32.927Z" fill="#B6BCF0"/>
<path d="M47.9435 31.1711C48.2728 30.8733 48.7498 30.4771 49.2391 30.0801C39.6723 29.8132 28.1676 30.0393 22.2183 39.1914C28.6092 40.0531 35.4056 40.5093 39.8685 40.7378C40.2555 39.9054 40.7109 39.0214 41.0687 38.5529C43.6591 34.9708 46.9495 32.0666 47.9427 31.1718L47.9435 31.1711Z" fill="#B6BCF0"/>
<path d="M32.0336 38.4963C26.7875 38.0924 8.751 35.2958 3.85645 34.5195C4.15264 35.2312 4.50269 35.8736 4.81197 36.3336C14.3749 40.6327 33.4353 43.0485 39.1785 42.3353C39.4954 41.5259 40.3363 39.6149 40.9587 38.7086C38.903 38.7548 35.5233 38.764 32.0344 38.4955L32.0336 38.4963Z" fill="#FF511C"/>
<path d="M48.17 24.6172L40.5581 39.1954C40.5581 39.1954 40.5996 39.1824 40.6766 39.1585C40.8143 38.9208 40.9482 38.7123 41.0697 38.553C43.6601 34.971 46.9506 32.0667 47.9438 31.172C48.9362 30.2765 51.2589 28.4854 51.2589 28.4854L52.8076 25.8958C52.8076 25.8958 50.4111 24.8349 48.17 24.618V24.6172Z" fill="#B6BCF0"/>
<path d="M33.0713 23.1445L34.4423 25.1848C34.4423 25.1848 35.524 25.0479 36.768 24.9071C36.5449 24.3786 36.3141 23.8546 36.0833 23.3423C34.7315 23.2769 33.0713 23.1445 33.0713 23.1445Z" fill="#7F89E4"/>
<path d="M38.8825 23.494C38.8825 23.494 37.5431 23.4047 36.5645 23.3555C36.7699 23.854 37.0799 24.3687 37.2892 24.8618C38.1408 24.7657 39.3164 24.711 39.4441 24.6995C39.2341 24.1725 38.8817 23.4947 38.8817 23.4947L38.8825 23.494Z" fill="#7F89E4"/>
<path d="M5.8252 30.3651L6.11447 29.4319L7.47082 29.1719L7.3785 30.0843L5.8252 30.3651Z" fill="#7F89E4"/>
<path d="M7.78223 30.06L7.8807 29.0967L9.74405 28.7344L9.67635 29.7084L7.78223 30.06Z" fill="#7F89E4"/>
<path d="M10.1663 28.6195L10.0986 29.6566L12.2528 29.2735L12.3713 28.1641L10.1663 28.6195Z" fill="#7F89E4"/>
<path d="M12.7849 28.0195L12.6895 29.212L15.0413 28.7858L15.1321 27.5625L12.7849 28.0195Z" fill="#7F89E4"/>
<path d="M15.5272 27.4172L15.4033 28.712L18.3091 28.1796L18.4168 26.8633L15.5272 27.4172Z" fill="#7F89E4"/>
<path d="M18.7486 26.7486C18.7594 26.7794 18.6455 28.1258 18.6455 28.1258L21.9067 27.5457L21.9583 26.0547L18.7494 26.7486H18.7486Z" fill="#7F89E4"/>
<path d="M22.4024 25.93L22.2993 27.431L25.6644 26.7894L25.8198 25.1953L22.4024 25.93Z" fill="#7F89E4"/>
<path d="M26.3168 25.0703L26.1406 26.6336L31.0052 25.7581L30.1589 24.2617L26.3168 25.0703Z" fill="#7F89E4"/>
<path d="M5.02061 36.0868C9.24045 37.9678 15.9583 39.7227 23.4756 40.9067C29.8488 41.9107 36.0182 42.3631 38.9586 42.0476C39.3479 41.0844 40.2034 39.1772 40.8212 38.3679C43.3161 34.9181 46.4227 32.1223 47.5921 31.0699L47.7352 30.9406C48.6592 30.1067 50.6803 28.5395 51.0226 28.2749L52.3574 26.0438C51.6273 25.7514 49.7863 25.0736 48.0799 24.9198C42.7076 24.572 36.6429 25.486 34.9111 25.7745C33.1985 26.0599 6.32926 30.8329 3.51962 31.3499C3.36729 32.8963 4.32205 35.012 5.02138 36.0852L5.02061 36.0868ZM36.6406 42.7708C33.3224 42.7708 28.4817 42.3238 23.3786 41.5199C19.8512 40.9644 16.3776 40.2604 13.3318 39.4857C9.86823 38.604 6.95858 37.6385 4.68441 36.6161C4.63132 36.5922 4.5867 36.5545 4.55439 36.5061C3.73427 35.2843 2.62719 32.8194 2.93569 31.0345C2.95723 30.9083 3.05494 30.8083 3.18034 30.7829C4.05893 30.6075 33.027 25.4606 34.8088 25.1636C36.5567 24.8721 42.6837 23.9489 48.123 24.302H48.1307C50.4149 24.5074 52.8314 25.5675 52.9329 25.6122C53.0145 25.6483 53.0768 25.7176 53.1037 25.8022C53.1299 25.8868 53.1199 25.9791 53.0737 26.0553L51.525 28.6449C51.505 28.678 51.4796 28.7072 51.4481 28.7311C51.425 28.7488 49.1231 30.5252 48.1515 31.4022L48.0076 31.5315C46.8505 32.5724 43.7785 35.3367 41.3212 38.7348L41.3166 38.7418C40.7058 39.5403 39.791 41.6214 39.4671 42.4477C39.4263 42.5539 39.3294 42.6285 39.2163 42.6423C38.5239 42.7285 37.6522 42.77 36.6406 42.77V42.7708Z" fill="#171936"/>
<path d="M33.7124 26.8019C38.42 26.4957 45.9996 26.3311 47.1997 26.4957C47.7567 26.5804 50.381 27.1604 51.8235 27.482L52.2058 26.8412C51.3073 26.6134 47.6236 25.7656 47.6236 25.7656C47.6236 25.7656 38.1607 25.8833 33.7124 26.8012V26.8019Z" fill="#171936"/>
<path d="M35.6294 27.7976C39.3253 27.6091 45.2169 27.7284 46.6056 27.8699C47.1111 27.9446 49.2675 28.3846 50.7893 28.6993C51.2101 28.3685 51.5017 28.1438 51.5017 28.1438L51.5948 27.99C50.6954 27.7984 46.9118 27.0937 46.9118 27.0937C46.9118 27.0937 41.608 26.6451 35.6294 27.7984V27.7976Z" fill="#171936"/>
<path d="M6.47276 31.8328C6.47276 32.0275 6.34044 32.1852 6.17657 32.1852C6.0127 32.1852 5.88037 32.0275 5.88037 31.8328C5.88037 31.6382 6.0127 31.4805 6.17657 31.4805C6.34044 31.4805 6.47276 31.6382 6.47276 31.8328Z" fill="#171936"/>
<path d="M7.75222 31.7208C7.75222 31.927 7.6122 32.0939 7.4391 32.0939C7.266 32.0939 7.12598 31.927 7.12598 31.7208C7.12598 31.5146 7.266 31.3477 7.4391 31.3477C7.6122 31.3477 7.75222 31.5146 7.75222 31.7208Z" fill="#171936"/>
<path d="M8.95388 31.5802C8.95388 31.7863 8.81386 31.9533 8.64076 31.9533C8.46766 31.9533 8.32764 31.7863 8.32764 31.5802C8.32764 31.374 8.46766 31.207 8.64076 31.207C8.81386 31.207 8.95388 31.374 8.95388 31.5802Z" fill="#171936"/>
<path d="M10.2681 31.4102C10.2681 31.6325 10.1219 31.8125 9.94192 31.8125C9.7619 31.8125 9.61572 31.6325 9.61572 31.4102C9.61572 31.1878 9.7619 31.0078 9.94192 31.0078C10.1219 31.0078 10.2681 31.1878 10.2681 31.4102Z" fill="#171936"/>
<path d="M11.5923 31.2814C11.5923 31.5276 11.43 31.7268 11.2307 31.7268C11.0315 31.7268 10.8691 31.5276 10.8691 31.2814C10.8691 31.0352 11.0315 30.8359 11.2307 30.8359C11.43 30.8359 11.5923 31.0352 11.5923 31.2814Z" fill="#171936"/>
<path d="M12.9937 31.0751C12.9937 31.3236 12.8175 31.5251 12.6013 31.5251C12.3852 31.5251 12.209 31.3236 12.209 31.0751C12.209 30.8266 12.3852 30.625 12.6013 30.625C12.8175 30.625 12.9937 30.8266 12.9937 31.0751Z" fill="#171936"/>
<path d="M14.5193 30.9068C14.5193 31.1661 14.3247 31.3753 14.0839 31.3753C13.8431 31.3753 13.6484 31.1653 13.6484 30.9068C13.6484 30.6483 13.8438 30.4375 14.0839 30.4375C14.3239 30.4375 14.5193 30.6475 14.5193 30.9068Z" fill="#171936"/>
<path d="M16.2351 30.6975C16.2351 30.9814 16.0066 31.2114 15.7242 31.2114C15.4419 31.2114 15.2134 30.9814 15.2134 30.6975C15.2134 30.4136 15.4419 30.1836 15.7242 30.1836C16.0066 30.1836 16.2351 30.4136 16.2351 30.6975Z" fill="#171936"/>
<path d="M18.1325 30.4241C18.1325 30.708 17.904 30.938 17.6217 30.938C17.3393 30.938 17.1108 30.708 17.1108 30.4241C17.1108 30.1402 17.3393 29.9102 17.6217 29.9102C17.904 29.9102 18.1325 30.1402 18.1325 30.4241Z" fill="#171936"/>
<path d="M20.0588 30.2131C20.0588 30.497 19.8303 30.7271 19.548 30.7271C19.2656 30.7271 19.0371 30.497 19.0371 30.2131C19.0371 29.9293 19.2656 29.6992 19.548 29.6992C19.8303 29.6992 20.0588 29.9293 20.0588 30.2131Z" fill="#171936"/>
<path d="M22.165 29.9448C22.165 30.2702 21.9034 30.5341 21.5803 30.5341C21.2572 30.5341 20.9956 30.2702 20.9956 29.9448C20.9956 29.6194 21.2572 29.3555 21.5803 29.3555C21.9034 29.3555 22.165 29.6194 22.165 29.9448Z" fill="#171936"/>
<path d="M24.4386 29.6425C24.4386 29.9933 24.157 30.2772 23.8085 30.2772C23.46 30.2772 23.1792 29.9933 23.1792 29.6425C23.1792 29.2917 23.4608 29.0078 23.8085 29.0078C24.1563 29.0078 24.4386 29.2917 24.4386 29.6425Z" fill="#171936"/>
<path d="M26.9821 29.3407C26.9821 29.6992 26.6928 29.9901 26.3366 29.9901C25.9804 29.9901 25.6919 29.6992 25.6919 29.3407C25.6919 28.9822 25.9812 28.6914 26.3366 28.6914C26.692 28.6914 26.9821 28.9822 26.9821 29.3407Z" fill="#171936"/>
<path d="M29.3903 29.1151C29.3903 29.5236 29.0611 29.8552 28.6556 29.8552C28.2502 29.8552 27.9209 29.5236 27.9209 29.1151C27.9209 28.7066 28.2502 28.375 28.6556 28.375C29.0611 28.375 29.3903 28.7066 29.3903 29.1151Z" fill="#171936"/>
<path d="M6.01611 28.1306C6.01611 28.0675 6.77699 26.6996 6.77699 26.6996L28.2239 20.3164L29.3141 22.1798L6.01611 28.1306Z" fill="#171936"/>
<path d="M6.58008 27.7042C6.58931 27.6765 6.98475 26.9479 6.98475 26.9479L7.84949 26.7109L7.76179 27.3633L6.58008 27.7034V27.7042Z" fill="#7F89E4"/>
<path d="M8.1579 26.6002L8.0625 27.3119L10.1166 26.7987L10.212 26.0586L8.1579 26.6002Z" fill="#7F89E4"/>
<path d="M10.5422 25.9101L10.4468 26.6587L12.7117 26.0717L12.8063 25.25L10.5422 25.9101Z" fill="#7F89E4"/>
<path d="M13.2017 25.1321L13.1147 25.9722L15.5274 25.3483L15.6228 24.4805L13.2017 25.1321Z" fill="#7F89E4"/>
<path d="M16.0618 24.3443L15.9395 25.2314L18.6622 24.5521L18.7676 23.5742L16.0618 24.3443Z" fill="#7F89E4"/>
<path d="M19.2443 23.4455L19.0942 24.4241L22.2955 23.5801L22.4363 22.5469L19.2443 23.4455Z" fill="#7F89E4"/>
<path d="M22.9216 22.3921L22.7993 23.4523L26.5868 22.4344L26.6722 21.3281L22.9216 22.3921Z" fill="#7F89E4"/>
<path d="M27.1435 21.1616L27.002 22.3326L28.6022 21.9148L28.046 20.9023L27.1435 21.1616Z" fill="#7F89E4"/>
<path d="M22.9862 16.6514C23.0308 16.6368 23.7063 16.3867 23.7063 16.3867L23.5555 17.1499L22.8208 17.3853L22.9862 16.6514Z" fill="#171936"/>
<path d="M24.3095 16.2071C24.3095 16.2509 24.188 16.9872 24.188 16.9872L24.8489 16.7225L24.9858 15.957L24.3095 16.2071Z" fill="#171936"/>
<path d="M25.6211 15.7686C25.6211 15.7686 25.4103 16.5779 25.4549 16.5633C25.4988 16.5487 26.175 16.3133 26.175 16.3133L26.2827 15.5039L25.6219 15.7686H25.6211Z" fill="#171936"/>
<path d="M27.0576 15.2412L26.936 16.0806L27.6107 15.8305L27.6892 14.9766L27.0576 15.2412Z" fill="#171936"/>
<path d="M31.1306 15.3148C31.1306 15.5664 30.9229 15.7703 30.6682 15.7703C30.4136 15.7703 30.2051 15.5664 30.2051 15.3148C30.2051 15.0633 30.4128 14.8594 30.6682 14.8594C30.9236 14.8594 31.1306 15.0633 31.1306 15.3148Z" fill="#171936"/>
<path d="M33.1605 15.5366C33.1605 15.7636 32.9728 15.9482 32.7427 15.9482C32.5127 15.9482 32.3242 15.7643 32.3242 15.5366C32.3242 15.3089 32.5119 15.125 32.7427 15.125C32.9735 15.125 33.1605 15.3089 33.1605 15.5366Z" fill="#171936"/>
<path d="M35.138 15.7749C35.138 16.0018 34.9503 16.1865 34.7195 16.1865C34.4887 16.1865 34.3018 16.0026 34.3018 15.7749C34.3018 15.5472 34.4895 15.3633 34.7195 15.3633C34.9495 15.3633 35.138 15.5472 35.138 15.7749Z" fill="#171936"/>
<path d="M36.9166 15.9996C36.9166 16.2104 36.7435 16.3811 36.5289 16.3811C36.3142 16.3811 36.1411 16.2104 36.1411 15.9996C36.1411 15.7888 36.3142 15.6172 36.5289 15.6172C36.7435 15.6172 36.9166 15.788 36.9166 15.9996Z" fill="#171936"/>
<path d="M38.6974 16.2571C38.6974 16.4679 38.4966 16.6194 38.2828 16.6194C38.0689 16.6194 37.895 16.4486 37.895 16.2371C37.895 16.0255 38.0681 15.8555 38.2828 15.8555C38.4974 15.8555 38.6974 16.0463 38.6974 16.2571Z" fill="#171936"/>
<path d="M13.901 16.3828C13.7117 16.3828 13.5225 16.4021 13.3348 16.4405C13.0562 16.4975 12.7893 16.5944 12.5423 16.729C12.3031 16.8591 12.0853 16.9921 12.0469 17.1853C12.0292 17.273 12.0115 17.3599 11.9938 17.4476C11.9815 17.5091 11.9692 17.5707 11.9561 17.633C12.0538 17.5761 12.15 17.5253 12.2431 17.4784C12.797 17.2006 13.3825 17.0652 13.981 17.0752C14.021 17.0752 14.0625 17.0775 14.1033 17.0791C14.2818 17.0868 14.4672 17.1052 14.6719 17.1345C14.765 17.1483 14.8565 17.1676 14.945 17.1868H14.9504C14.9419 17.1637 14.9334 17.1399 14.9273 17.1168C14.9111 17.0583 14.8973 16.9991 14.8827 16.9398C14.8619 16.8567 14.8396 16.7713 14.8173 16.689C14.7957 16.6075 14.7303 16.5429 14.6488 16.5205C14.6119 16.5105 14.5765 16.5005 14.5411 16.4905C14.3526 16.4375 14.191 16.3921 14.0048 16.3851C13.9695 16.3836 13.9356 16.3828 13.901 16.3828ZM11.6168 18.377C11.6045 18.377 11.5922 18.3762 11.5791 18.3739C11.446 18.3531 11.3552 18.2285 11.376 18.0954C11.4145 17.8438 11.466 17.5922 11.516 17.3491C11.5337 17.263 11.5514 17.176 11.5683 17.0899C11.6545 16.6567 12.0638 16.4336 12.3084 16.3005C12.5985 16.1428 12.9108 16.0289 13.2378 15.962C13.4979 15.9089 13.7625 15.8874 14.0241 15.8966C14.2672 15.9058 14.4657 15.9612 14.6742 16.0205C14.708 16.0305 14.7434 16.0397 14.778 16.0497C15.025 16.1174 15.2204 16.3121 15.2873 16.5582C15.312 16.6459 15.3335 16.7344 15.3558 16.8206C15.3697 16.8775 15.385 16.9352 15.3997 16.9921C15.4058 17.016 15.4227 17.0568 15.4381 17.096C15.4904 17.2245 15.5558 17.3837 15.5181 17.543C15.4912 17.6576 15.385 17.7369 15.2666 17.7299C15.1204 17.7215 14.9796 17.6915 14.8427 17.6622C14.7588 17.6438 14.6788 17.6269 14.6019 17.6161C14.4141 17.5892 14.2433 17.5722 14.0818 17.5653C14.0449 17.5638 14.0095 17.5622 13.9725 17.5615C13.4525 17.5522 12.9447 17.6707 12.4623 17.9131C12.3415 17.9731 12.22 18.0408 12.0892 18.12C12.07 18.1308 12.0453 18.1446 12.0107 18.1631C11.9676 18.1854 11.863 18.2408 11.8168 18.2731C11.7722 18.337 11.6976 18.377 11.6176 18.377H11.6168Z" fill="#171936"/>
<path d="M31.0234 20.0703L31.7951 21.1843L35.6703 21.5013L35.101 20.4496L31.0234 20.0703Z" fill="#7F89E4"/>
<path d="M35.5171 20.4609L36.1303 21.5472L38.6145 21.7773L38.2075 20.7194L35.5171 20.4609Z" fill="#7F89E4"/>
<path d="M38.647 20.7812C38.6854 20.832 39.0455 21.8152 39.0455 21.8152L41.1181 22.0099L40.6911 20.992L38.6477 20.7812H38.647Z" fill="#7F89E4"/>
<path d="M32.9022 25.9581C32.8053 25.9581 32.7106 25.9096 32.656 25.8211L28.2769 18.7124C28.1938 18.577 28.2361 18.3993 28.3715 18.3162C28.507 18.2331 28.6839 18.2747 28.7685 18.4101L33.1476 25.5188C33.2307 25.6542 33.1892 25.8319 33.053 25.915C33.0061 25.9442 32.9538 25.9581 32.9022 25.9581Z" fill="#171936"/>
<path d="M29.2379 18.4777C29.1502 18.4777 29.0664 18.4308 29.0225 18.3484L28.1878 16.7805C28.1247 16.6613 28.1693 16.5143 28.2886 16.4505C28.4078 16.3874 28.5548 16.432 28.6186 16.5513L29.4526 18.1192C29.5164 18.2377 29.471 18.3854 29.3518 18.4492C29.3156 18.4685 29.2764 18.4777 29.2379 18.4777Z" fill="#171936"/>
<path d="M28.9886 16.5652C28.864 16.5652 28.7578 16.4698 28.7463 16.3429L28.5347 13.9171C28.5224 13.7833 28.6224 13.6648 28.7563 13.6533C28.8909 13.6417 29.0086 13.741 29.0209 13.8748L29.2325 16.3006C29.2448 16.4344 29.1448 16.5529 29.0109 16.5644H28.9894L28.9886 16.5652Z" fill="#171936"/>
</g>
<defs>
<clipPath id="clip0_4450_47735">
<rect width="53.2" height="32.3539" fill="white" transform="translate(1.3999 11.8984)"/>
</clipPath>
</defs>
</svg>
