<svg width="56" height="56" viewBox="0 0 56 56" fill="none" xmlns="http://www.w3.org/2000/svg">
<path d="M36.0452 22.5454L45.6578 26.2113C46.0812 26.3738 46.3632 26.79 46.3632 27.2552C46.3632 27.7215 46.0812 28.1377 45.6589 28.298L36.0495 31.9628L32.4589 44.453C32.3228 44.926 31.9004 45.2498 31.423 45.2498C30.9445 45.2498 30.5232 44.926 30.3871 44.4541L26.7965 31.9639L17.1882 28.2991C16.7637 28.1377 16.4828 27.7204 16.4828 27.2552C16.4828 26.7889 16.7637 26.3738 17.1882 26.2113L26.8019 22.5454L30.3903 10.4247C30.5286 9.95724 30.9488 9.63672 31.423 9.63672C31.8972 9.63672 32.3174 9.95724 32.4557 10.4247L36.0452 22.5454Z" fill="url(#paint0_linear_4450_47755)"/>
<path d="M21.5545 37.5022L24.0541 38.4548C24.4786 38.6151 24.7595 39.0324 24.7595 39.4976C24.7595 39.9628 24.4786 40.3802 24.0541 40.5404L21.5686 41.4898L20.5888 45.5207C20.4678 46.016 20.0368 46.3632 19.541 46.3632C19.0452 46.3632 18.6142 46.016 18.4932 45.5218L17.5135 41.4909L15.028 40.5415C14.6035 40.3802 14.3226 39.9628 14.3226 39.4976C14.3226 39.0324 14.6035 38.6151 15.028 38.4537L17.5265 37.5011L18.4986 33.8285C18.6272 33.3444 19.0539 33.0083 19.541 33.0083C20.0282 33.0083 20.4549 33.3444 20.5823 33.8296L21.5545 37.5022Z" fill="url(#paint1_linear_4450_47755)"/>
<path d="M16.8146 13.3721L19.3682 14.3459C19.7927 14.5084 20.0736 14.9246 20.0736 15.3898C20.0736 15.855 19.7927 16.2712 19.3682 16.4337L16.8135 17.4075L15.8684 20.0395C15.7107 20.4769 15.3067 20.7663 14.8551 20.7663C14.4036 20.7663 13.9996 20.4769 13.8419 20.0395L12.8967 17.4075L10.3421 16.4337C9.91757 16.2723 9.63672 15.855 9.63672 15.3898C9.63672 14.9246 9.91757 14.5084 10.3421 14.3459L12.8967 13.3721L13.8419 10.7401C13.9996 10.3027 14.4036 10.0133 14.8551 10.0133C15.3077 10.0133 15.7117 10.3027 15.8684 10.7401L16.8146 13.3721Z" fill="url(#paint2_linear_4450_47755)"/>
<path fill-rule="evenodd" clip-rule="evenodd" d="M46.6096 23.7594C48.0782 24.3229 49 25.735 49 27.2548C49 28.7691 48.0835 30.1882 46.6057 30.7509C46.6055 30.751 46.6053 30.7511 46.6051 30.7512C46.6039 30.7516 46.6027 30.7521 46.6015 30.7525L38.2152 33.9509L34.9844 45.1895C34.5367 46.7453 33.1163 47.8859 31.4253 47.8859C29.7329 47.8859 28.3145 46.7453 27.8666 45.1922L27.8659 45.19L26.8069 41.506C26.3921 42.1682 25.7681 42.7049 24.9844 43.0022C24.9825 43.0029 24.9806 43.0036 24.9786 43.0044L23.7894 43.4586L23.134 46.155C22.7385 47.7741 21.2939 49 19.5356 49C17.7787 49 16.3338 47.7756 15.9376 46.1574L15.9365 46.1531L15.2819 43.4597L14.087 43.0034C14.0863 43.0031 14.0856 43.0028 14.0849 43.0026C12.6029 42.4382 11.6889 41.0167 11.6889 39.5051C11.6889 37.9931 12.6034 36.5712 14.0861 36.0071C14.0864 36.007 14.0867 36.0069 14.087 36.0068L15.3267 35.5341L15.9556 33.1586C16.1701 32.3507 16.6466 31.6468 17.2907 31.1505L16.2486 30.7531C16.2477 30.7527 16.2469 30.7524 16.2461 30.7521C16.246 30.7521 16.2462 30.7521 16.2461 30.7521C14.7644 30.1876 13.8505 28.7661 13.8505 27.2548C13.8505 25.7355 14.77 24.3224 16.243 23.7586L16.246 23.7574L24.6529 20.5518L27.8748 9.66883C27.8748 9.66902 27.8749 9.66863 27.8748 9.66883C28.3306 8.12892 29.7441 7 31.4253 7C33.1063 7 34.5196 8.12825 34.9754 9.66804C34.9755 9.6683 34.9756 9.66856 34.9757 9.66882L38.1986 20.5518L46.6096 23.7594ZM36.0504 22.5419L32.6572 11.0841L32.4586 10.4134C32.3202 9.94572 31.8998 9.625 31.4253 9.625C30.9507 9.625 30.5303 9.94572 30.3919 10.4134L26.8012 22.5419L18.1256 25.8501L17.1812 26.2102C16.7565 26.3728 16.4754 26.7882 16.4754 27.2548C16.4754 27.7203 16.7565 28.1379 17.1812 28.2993L18.1254 28.6595L26.7958 31.9665L30.3887 44.4647C30.5249 44.9369 30.9464 45.2609 31.4253 45.2609C31.903 45.2609 32.3256 44.9369 32.4618 44.4636L36.0547 31.9654L44.7241 28.6591L45.6703 28.2982C46.093 28.1379 46.3751 27.7214 46.3751 27.2548C46.3751 26.7893 46.093 26.3728 45.6693 26.2102L44.7241 25.8497L36.0504 22.5419ZM24.6353 33.9519L23.1771 33.3957L23.7434 35.5349L24.9786 36.0058C24.9804 36.0064 24.9822 36.0071 24.984 36.0078C25.0784 36.0436 25.1705 36.0828 25.2601 36.1254L24.6353 33.9519ZM24.0516 38.4616L23.1042 38.1005L21.5504 37.5083L20.5776 33.8334C20.4501 33.3478 20.0231 33.0115 19.5356 33.0115C19.0481 33.0115 18.6212 33.3478 18.4926 33.8323L17.5198 37.5072L15.964 38.1004L15.0197 38.4605C14.5949 38.622 14.3138 39.0396 14.3138 39.5051C14.3138 39.9706 14.5949 40.3882 15.0197 40.5496L15.9632 40.91L17.5068 41.4996L18.4872 45.5331C18.6082 46.0276 19.0395 46.375 19.5356 46.375C20.0318 46.375 20.463 46.0276 20.5841 45.532L21.5645 41.4985L24.0516 40.5485C24.4764 40.3882 24.7574 39.9706 24.7574 39.5051C24.7574 39.0396 24.4764 38.622 24.0516 38.4616ZM15.9523 40.9142L15.9548 40.9132L15.9523 40.9142ZM20.301 11.8856C21.7754 12.4499 22.6934 13.8652 22.6934 15.3818C22.6934 16.8983 21.7754 18.3136 20.301 18.8779L20.2976 18.8792L18.8689 19.4238L18.3299 20.9249C17.8108 22.3643 16.4459 23.3867 14.8467 23.3867C13.2476 23.3867 11.8826 22.3643 11.3636 20.9249L11.3624 20.9217L10.8245 19.4238L9.39807 18.8801C9.39768 18.8799 9.39728 18.8798 9.39689 18.8796C9.39653 18.8795 9.39617 18.8793 9.39581 18.8792C7.91388 18.3148 7 16.8933 7 15.3818C7 13.8652 7.91806 12.4499 9.39246 11.8856L9.39581 11.8843L10.8245 11.3397L11.3636 9.8386C11.8826 8.3992 13.2476 7.37685 14.8467 7.37685C16.4433 7.37685 17.8118 8.39595 18.3307 9.84094C18.3308 9.84117 18.3309 9.84141 18.331 9.84164C18.3312 9.84243 18.3315 9.84322 18.3318 9.84401L18.8696 11.3398L20.301 11.8856ZM16.8074 13.3628L15.8606 10.729C15.7039 10.2914 15.2996 10.0018 14.8467 10.0018C14.3949 10.0018 13.9906 10.2914 13.8328 10.729L12.887 13.3628L11.2753 13.9771L10.3307 14.3372C9.90594 14.4998 9.62491 14.9163 9.62491 15.3818C9.62491 15.8473 9.90594 16.2649 10.3307 16.4263L11.2752 16.7864L12.887 17.4008L13.8328 20.0345C13.9906 20.4721 14.3949 20.7617 14.8467 20.7617C15.2985 20.7617 15.7028 20.4721 15.8606 20.0345L16.8064 17.4008L18.4182 16.7864L19.3627 16.4263C19.7875 16.2638 20.0685 15.8473 20.0685 15.3818C20.0685 14.9163 19.7875 14.4998 19.3627 14.3372L16.8074 13.3628Z" fill="#FFF8EC"/>
<defs>
<linearGradient id="paint0_linear_4450_47755" x1="27.9999" y1="16.982" x2="27.9999" y2="46.3632" gradientUnits="userSpaceOnUse">
<stop stop-color="#FEB323"/>
<stop offset="1" stop-color="#E64F12"/>
</linearGradient>
<linearGradient id="paint1_linear_4450_47755" x1="27.9999" y1="16.982" x2="27.9999" y2="46.3632" gradientUnits="userSpaceOnUse">
<stop stop-color="#FEB323"/>
<stop offset="1" stop-color="#E64F12"/>
</linearGradient>
<linearGradient id="paint2_linear_4450_47755" x1="27.9999" y1="16.982" x2="27.9999" y2="46.3632" gradientUnits="userSpaceOnUse">
<stop stop-color="#FEB323"/>
<stop offset="1" stop-color="#E64F12"/>
</linearGradient>
</defs>
</svg>
