<svg width="56" height="56" viewBox="0 0 56 56" fill="none" xmlns="http://www.w3.org/2000/svg">
<g clip-path="url(#clip0_4450_47747)">
<path d="M51.424 38.6705C51.2977 37.8416 50.561 36.9997 49.8489 36.1872C49.6748 35.9879 49.5095 35.8001 49.3552 35.613C49.2767 35.5188 49.1804 35.402 49.0691 35.2662C48.0921 34.0788 45.8048 31.2985 43.9572 29.6148C41.3701 27.2565 39.5532 25.0272 39.5396 24.1942C39.5225 23.2062 40.7734 20.7312 42.0188 18.7968C42.7077 17.7276 44.0603 15.8923 45.1466 14.4182C45.8089 13.5203 46.3319 12.8102 46.5258 12.5166C46.6255 12.3637 46.9696 11.8257 47.2113 11.2617C47.4899 10.6117 47.5336 10.1699 47.3499 9.87019C47.2659 9.73364 47.0549 9.50969 46.5879 9.55953C44.4501 9.75958 39.9895 12.1152 38.9121 12.7351C37.423 13.5927 33.4123 15.7455 32.2229 16.358C31.3619 16.8018 31.1141 16.5976 30.7031 16.2562C30.632 16.1989 30.5597 16.1388 30.4818 16.0801C30.3268 15.9346 28.8985 14.5984 27.6456 13.4015C26.3961 12.2067 22.5322 8.77911 21.3463 7.92564C20.3105 7.18141 17.8327 5.56527 16.7771 5.31742C16.3094 5.20818 15.9728 5.25939 15.7447 5.4731C15.4129 5.78444 15.4703 6.30199 15.5488 6.76218C15.641 7.30294 16.1537 8.11135 16.7634 9.03379C16.9232 9.27617 17.0625 9.48511 17.1458 9.62917C17.4817 10.2027 18.9224 13.0827 19.3758 14.2666C19.8387 15.4758 20.7789 18.9621 20.8308 19.4666C20.8369 19.5206 20.8437 19.5766 20.8506 19.6339C20.9195 20.1808 20.9789 20.6533 20.0428 20.9653C19.6666 21.0917 19.1088 21.2624 18.4636 21.4604C16.8461 21.9567 14.8319 22.5747 13.9586 22.9973C13.5639 23.1878 12.9153 23.4841 12.1649 23.8262C10.6164 24.5329 8.86096 25.3358 8.24646 25.7045C7.9754 25.8677 7.6224 26.0616 7.24892 26.2671C6.34902 26.7635 5.41839 27.2763 5.0135 27.6661C4.63319 28.0328 4.48367 28.4875 4.61408 28.8842C4.69055 29.1123 4.92679 29.5076 5.66419 29.6018C6.18037 29.6674 7.74052 29.7152 9.25015 29.7595C10.5092 29.7978 11.8112 29.8367 12.2564 29.8824C13.5455 30.0142 18.8036 30.639 20.1732 31.0473C21.5163 31.446 21.9362 32.2373 22.1519 33.3025C22.3493 34.2713 22.1656 36.3975 22.0563 37.6682C22.0372 37.8846 22.0202 38.0826 22.0065 38.2554C21.9416 39.0747 21.7778 40.7666 21.6323 42.2578C21.5559 43.0464 21.489 43.7271 21.448 44.1751C21.3251 45.516 21.3251 48.239 21.5804 49.1088C21.7334 49.6325 21.8795 50.0429 22.2407 50.1678C22.3097 50.1924 22.3786 50.2026 22.4462 50.2026C22.6941 50.2026 22.9296 50.062 23.1181 49.9281C23.7688 49.4673 24.6372 47.9617 25.4764 46.5067L25.589 46.3108C26.0356 45.5392 26.8877 44.2228 27.7132 42.9488C28.3939 41.8973 29.0371 40.9052 29.4167 40.2716C30.2374 38.904 32.0632 36.4822 33.103 35.3829C33.9517 34.4844 34.8987 34.6694 35.7112 34.9698C36.2042 35.1508 37.8026 35.6458 39.2125 36.0841C39.9916 36.3258 40.7283 36.5539 41.1509 36.6891C42.3267 37.0673 47.6326 38.9634 48.4171 39.257C48.4376 39.2645 50.4285 39.9876 51.1666 39.3881C51.3776 39.2174 51.4684 38.962 51.424 38.6691V38.6705Z" fill="#171936"/>
<path d="M5.49277 28.593C5.51052 28.6108 5.5904 28.662 5.78226 28.6866C6.2527 28.7466 7.85791 28.7944 9.274 28.8381C10.6116 28.8771 11.872 28.9153 12.3499 28.9644C13.1597 29.0471 18.8834 29.7012 20.4374 30.1634C22.3431 30.7294 22.8394 32.0417 23.06 33.1219C23.2655 34.1365 23.133 35.965 22.978 37.7504C22.9603 37.9655 22.9432 38.1615 22.9296 38.3322C22.864 39.1611 22.6995 40.8557 22.554 42.3517L22.552 42.3749C22.4769 43.1505 22.4113 43.8217 22.3711 44.2648C22.2461 45.6161 22.2727 48.1806 22.4694 48.8531C22.4885 48.918 22.5295 49.062 22.5745 49.1836L22.5841 49.1774C23.0695 48.8326 23.9981 47.224 24.6754 46.0483L24.7888 45.8523C25.2469 45.0603 26.1052 43.7336 26.9361 42.4507C27.6134 41.4047 28.2525 40.4187 28.6246 39.7988C29.4863 38.3615 31.3373 35.9076 32.4311 34.7503C33.8151 33.2864 35.4845 33.9023 36.0328 34.1037C36.5032 34.2778 38.1583 34.7906 39.4883 35.203L39.5081 35.2091C40.281 35.4488 41.0109 35.6755 41.4363 35.8114C42.6168 36.1917 47.9357 38.0925 48.7393 38.3923C49.3606 38.6169 50.1445 38.7473 50.4852 38.6954C50.3336 38.1465 49.7095 37.433 49.1551 36.7993C48.9762 36.5959 48.8083 36.404 48.6444 36.2067C48.5713 36.1179 48.4812 36.0087 48.3774 35.8824L48.3563 35.8571C47.3915 34.6848 45.1342 31.9414 43.3351 30.3006C42.0324 29.1133 40.9024 27.9444 40.0673 26.9195C38.7803 25.3403 38.6212 24.6186 38.6151 24.2123C38.585 22.4774 40.9693 18.7221 41.2417 18.2988C41.9456 17.2049 43.3078 15.3573 44.4016 13.8737L44.4057 13.8675C45.0318 13.0175 45.5739 12.2842 45.7528 12.0104C45.8163 11.9141 46.1447 11.4061 46.3625 10.8995C46.4356 10.7267 46.4793 10.5977 46.5032 10.5042C44.6549 10.7725 40.8696 12.6795 39.375 13.5398C37.8749 14.4028 33.8431 16.5672 32.6482 17.1831C31.3516 17.8522 30.7098 17.4651 30.1131 16.9721C30.0482 16.9182 29.9868 16.8683 29.9267 16.8226L29.8864 16.7932L29.8502 16.7584C29.7874 16.7004 28.3003 15.3102 27.0064 14.0744C25.7631 12.8864 21.9232 9.48409 20.8054 8.68045C19.5703 7.79216 17.3499 6.40612 16.5654 6.22109C16.5019 6.20606 16.4507 6.19855 16.4118 6.19446C16.4131 6.27298 16.4247 6.40134 16.4596 6.60754C16.5272 7.00218 17.1833 7.9929 17.5356 8.52615C17.7022 8.77946 17.847 8.99795 17.9439 9.16318C18.3003 9.77085 19.7628 12.6918 20.2394 13.9385C20.7099 15.1662 21.6862 18.7412 21.7518 19.3741C21.7559 19.4219 21.7627 19.4704 21.7688 19.5216C21.8419 20.0972 21.9928 21.2948 20.3357 21.8472C19.9499 21.9755 19.3894 22.1469 18.7407 22.3463L18.7353 22.3483C17.2325 22.8092 15.1718 23.4414 14.3621 23.8334C13.9572 24.0286 13.3051 24.3263 12.5507 24.6705C11.0997 25.3327 9.29448 26.1575 8.72299 26.501C8.43691 26.6717 8.07777 26.8697 7.69609 27.0807C6.92865 27.5033 5.97344 28.0304 5.65663 28.3342C5.52076 28.4647 5.49413 28.565 5.49345 28.593H5.49277ZM22.4462 51.1315C22.2721 51.1315 22.1007 51.1029 21.9375 51.0455C21.0956 50.7533 20.8532 49.9217 20.6921 49.372C20.3712 48.2762 20.4142 45.3102 20.5269 44.0935C20.5685 43.6469 20.6341 42.9744 20.7092 42.1953L20.7112 42.1721C20.8553 40.6837 21.0198 38.9979 21.084 38.1854C21.0977 38.0106 21.1147 37.8098 21.1339 37.592C21.2322 36.4504 21.4145 34.3277 21.2452 33.4899C21.0758 32.6555 20.8321 32.2104 19.9083 31.9359C18.7011 31.5774 13.8145 30.9732 12.1615 30.8052C11.7491 30.7629 10.406 30.7233 9.22142 30.6878C7.61757 30.64 6.10727 30.5942 5.54671 30.5225C4.25967 30.358 3.85205 29.5271 3.73666 29.1775C3.49086 28.4353 3.72847 27.6228 4.37164 27.0021C4.86529 26.5276 5.80548 26.008 6.80302 25.4591C7.16899 25.2576 7.51447 25.0678 7.76983 24.9135C8.43008 24.5182 10.1336 23.7398 11.7805 22.9874C12.5254 22.6474 13.1692 22.3538 13.5557 22.1667C14.4938 21.7133 16.4589 21.1098 18.1918 20.5779L18.1972 20.5765C18.8343 20.3806 19.3853 20.2119 19.7499 20.0897C19.853 20.0555 19.9192 20.0248 19.9588 20.0037C19.9547 19.9326 19.9417 19.8323 19.9322 19.7517C19.924 19.6868 19.9165 19.6247 19.9096 19.5639C19.8557 19.1263 18.9524 15.7527 18.5106 14.6001C18.0805 13.4777 16.663 10.64 16.3462 10.0986C16.2738 9.97569 16.1366 9.76676 15.9898 9.54622C15.2975 8.49815 14.7581 7.63922 14.6345 6.91957C14.5614 6.48942 14.3873 5.48027 15.109 4.80091C15.4279 4.50117 16.0123 4.1905 16.986 4.41855C18.5209 4.77769 21.8508 7.15308 21.8842 7.17629C23.1221 8.06664 26.9846 11.4935 28.2832 12.7348C29.4788 13.8764 30.8409 15.1512 31.0785 15.3737C31.1571 15.4331 31.2267 15.4912 31.2902 15.5444C31.3455 15.5888 31.4131 15.6462 31.4595 15.6803C31.5128 15.6666 31.6172 15.6305 31.7975 15.5369C32.9801 14.9272 36.9689 12.7867 38.4498 11.9339C38.5031 11.9045 43.8356 8.8928 46.4936 8.64085C47.1935 8.5678 47.808 8.84774 48.1385 9.38918C48.6027 10.1484 48.3167 11.0299 48.0613 11.628C47.7889 12.2616 47.4072 12.8584 47.2973 13.027C47.0904 13.3411 46.5879 14.0225 45.8942 14.9648L45.8907 14.9688C44.8106 16.4334 43.4689 18.2544 42.7957 19.2997C41.4028 21.4641 40.4722 23.5459 40.464 24.1604C40.5487 24.5639 41.6841 26.292 44.5798 28.9324C46.4759 30.6612 48.7939 33.4776 49.7833 34.6793L49.8044 34.7059C49.9062 34.8302 49.9942 34.936 50.0673 35.0241C50.2148 35.2023 50.3759 35.3853 50.5452 35.5792C51.3455 36.4928 52.1723 37.437 52.3389 38.5336C52.4331 39.1549 52.2194 39.7291 51.7497 40.1094C51.2178 40.541 50.4353 40.6577 49.3586 40.4631C48.6683 40.3389 48.0975 40.1272 48.092 40.1251C47.3116 39.8329 42.0358 37.9478 40.8675 37.5716C40.4531 37.4377 39.7273 37.2131 38.9599 36.9748L38.9394 36.9693C37.4489 36.5071 35.9092 36.0292 35.393 35.8393C34.5812 35.5403 34.1879 35.584 33.7755 36.0203C32.7896 37.0636 30.9898 39.4492 30.2107 40.7485C29.8215 41.3965 29.1749 42.3954 28.4894 43.4537C27.6715 44.7182 26.8241 46.0244 26.3906 46.7754L26.2779 46.9707C25.1848 48.8647 24.4126 50.1463 23.6533 50.685C23.3843 50.8755 22.9664 51.1302 22.4462 51.1302V51.1315Z" fill="#FFF9F3"/>
<path d="M7.84985 27.9498C8.32574 27.9669 8.82827 27.9819 9.29051 27.9955H9.2987C10.7086 28.0379 11.9254 28.0741 12.434 28.126C12.4975 28.1321 18.902 28.8279 20.6752 29.3556C23.0355 30.0575 23.6357 31.744 23.8815 32.9518C24.1095 34.0757 23.9798 35.8953 23.8139 37.8194C23.7961 38.0324 23.7791 38.2263 23.7661 38.3963C23.6992 39.2327 23.534 40.9315 23.3885 42.4295L23.3844 42.4752C23.31 43.2413 23.2458 43.9029 23.2055 44.3385C23.1359 45.0985 23.1209 46.1267 23.142 46.9946C23.4623 46.4688 23.7695 45.9356 23.9477 45.6263L24.0611 45.4303C24.5295 44.6205 25.3932 43.2864 26.2296 41.9952C26.9035 40.9547 27.5385 39.9742 27.9044 39.3659C28.7907 37.8883 30.6943 35.3634 31.8208 34.172C32.5637 33.3868 33.5039 32.9675 34.5397 32.9614H34.5629C35.3645 32.9614 36.0111 33.1997 36.3224 33.3144C36.7696 33.4796 38.4732 34.0074 39.7151 34.3932L39.767 34.4089C40.5379 34.6472 41.2657 34.8732 41.6918 35.0111C42.7549 35.3532 47.0721 36.8901 48.6077 37.4493C48.5783 37.4152 48.5496 37.3824 48.5216 37.351C48.3393 37.1434 48.1673 36.9475 47.9972 36.7406C47.9228 36.6518 47.832 36.5412 47.7282 36.4149L47.7057 36.3883C46.7525 35.2296 44.5219 32.5183 42.7672 30.9192C41.4351 29.7045 40.275 28.5049 39.4147 27.448C37.9795 25.6864 37.7849 24.8001 37.774 24.2246C37.7412 22.3326 39.879 18.8613 40.5338 17.8426C41.2534 16.7256 42.6231 14.8671 43.7244 13.3738L43.7299 13.3656C44.1614 12.7805 44.5758 12.2186 44.8346 11.8574C43.0887 12.519 40.9168 13.6183 39.7916 14.2655C38.284 15.1334 34.2324 17.3087 33.0321 17.928C31.3607 18.791 30.3474 18.2557 29.5779 17.6173C29.5206 17.5709 29.4666 17.5258 29.4222 17.4924L29.382 17.4616C29.3574 17.4446 29.3355 17.4248 29.313 17.4043L29.2768 17.3701C29.1123 17.2172 27.6709 15.8694 26.4255 14.6786C25.2279 13.5336 21.3853 10.1306 20.314 9.35978C19.6387 8.87296 18.8576 8.36565 18.1598 7.94916C18.1844 7.98535 18.2083 8.02358 18.2342 8.06182C18.4083 8.32469 18.5572 8.55069 18.6664 8.73709C19.0426 9.37958 20.5215 12.3292 21.0227 13.636C21.4986 14.878 22.5064 18.5213 22.5849 19.2867C22.589 19.3256 22.5945 19.3659 22.5999 19.4076L22.6013 19.4151C22.6423 19.7408 22.7187 20.3477 22.4886 20.9786C22.2046 21.759 21.5696 22.3182 20.6007 22.6419C20.204 22.773 19.6394 22.9471 18.9853 23.1471L18.9757 23.1505C17.5863 23.5766 15.4792 24.2232 14.7254 24.5878C14.3144 24.7872 13.6589 25.0849 12.9024 25.4317C11.5416 26.053 9.68447 26.9011 9.15327 27.2199C8.85558 27.3981 8.48961 27.5995 8.10384 27.8126C8.02669 27.8549 7.94134 27.9027 7.84916 27.9525L7.84985 27.9498ZM21.7417 49.8028C21.8543 50.0172 21.9984 50.1749 22.2121 50.25C22.2872 50.2767 22.3657 50.289 22.4463 50.289C22.7242 50.289 22.9782 50.134 23.168 49.9988C23.7859 49.5611 24.5452 48.2932 25.5509 46.5507L25.6642 46.3548C26.108 45.5853 26.9608 44.2689 27.7849 42.9955C28.4657 41.9454 29.1088 40.952 29.4905 40.3163C30.3085 38.9521 32.1288 36.5385 33.1652 35.4426C33.9784 34.5816 34.8551 34.7455 35.6813 35.0507C36.1777 35.233 37.776 35.728 39.1853 36.1657L39.2065 36.1718C39.9391 36.3985 40.697 36.6341 41.1237 36.772C42.2981 37.1496 47.6012 39.0436 48.3857 39.3379C48.3878 39.3392 48.9006 39.5256 49.5069 39.6356C50.3166 39.781 50.8936 39.7202 51.22 39.4553C51.5217 39.2102 51.5436 38.8859 51.5081 38.6571C51.379 37.803 50.6335 36.9529 49.9131 36.1302C49.739 35.9322 49.5758 35.7444 49.4202 35.5566C49.3491 35.472 49.2631 35.3668 49.1634 35.246L49.1348 35.2098C48.1563 34.0218 45.8656 31.2381 44.0132 29.5496C41.2316 27.013 39.7971 25.0657 39.6421 24.3318C39.6291 24.2703 39.623 24.2075 39.6243 24.146C39.638 23.1574 40.8759 20.7287 42.0898 18.8422C42.7767 17.7757 44.1279 15.9431 45.2136 14.4697L45.2211 14.4601L45.2272 14.4506C45.884 13.5602 46.403 12.8563 46.5955 12.562C46.6972 12.4091 47.0448 11.8649 47.2899 11.2941C47.5794 10.6168 47.6217 10.1491 47.4237 9.82407C47.2626 9.5612 46.9553 9.43284 46.5818 9.47244L46.5736 9.47381C44.5069 9.66976 40.2088 11.897 38.8671 12.661C37.3814 13.5152 33.3721 15.6673 32.1834 16.2804C31.9861 16.3835 31.8202 16.4511 31.6754 16.4894C31.4303 16.5542 31.1702 16.5044 30.966 16.3555C30.9025 16.3091 30.8335 16.2524 30.755 16.1883C30.6949 16.137 30.6328 16.0865 30.5666 16.0353C30.5454 16.0196 30.5249 16.0012 30.5051 15.9834C30.2464 15.741 28.8938 14.4752 27.7037 13.339C26.4522 12.1421 22.5828 8.71046 21.3948 7.85494C20.5625 7.26024 17.9311 5.49867 16.7949 5.23238C16.304 5.11768 15.9312 5.17708 15.6854 5.40922C15.3399 5.73491 15.3741 6.25723 15.4628 6.7741C15.5584 7.33261 16.0753 8.14853 16.6911 9.07916L16.6952 9.0853C16.8523 9.32359 16.9875 9.52911 17.0708 9.67045C17.4067 10.2426 18.8419 13.1151 19.2946 14.2949C19.7514 15.485 20.6765 18.9098 20.7434 19.4567L20.7455 19.4724C20.7489 19.5072 20.753 19.5434 20.7571 19.5796C20.8172 19.695 20.8513 19.8268 20.8513 19.9668C20.8513 20.2795 20.6793 20.5519 20.4266 20.696C20.4055 20.711 20.3829 20.7233 20.3611 20.7362C20.2648 20.7881 20.1481 20.838 20.0163 20.8817C19.6401 21.0066 19.0857 21.1773 18.4432 21.3746C16.7335 21.899 14.8012 22.4917 13.9204 22.9177C13.5265 23.1082 12.8785 23.4045 12.1288 23.7452C10.5782 24.4533 8.82212 25.2569 8.20148 25.6277C7.93314 25.7902 7.5822 25.9827 7.21145 26.1862C6.30199 26.6873 5.3659 27.2035 4.9535 27.6009C4.54246 27.9976 4.38884 28.4735 4.53154 28.9077C4.61347 29.1549 4.86747 29.5837 5.65266 29.6847C6.17089 29.7503 7.73104 29.7974 9.24067 29.8425C10.7435 29.8882 11.8345 29.923 12.2456 29.9647C13.5333 30.0958 18.7832 30.7212 20.1474 31.1261C21.4488 31.5132 21.8564 32.2827 22.0667 33.3178C22.2456 34.2 22.1104 36.0209 21.969 37.6582C21.9499 37.8747 21.9328 38.0727 21.9192 38.2454C21.8543 39.0682 21.6905 40.7567 21.545 42.2479L21.5389 42.3175C21.4645 43.074 21.4023 43.7295 21.362 44.1651C21.2371 45.5122 21.2391 48.2509 21.4965 49.131C21.5191 49.2074 21.5409 49.2805 21.5635 49.3515C21.5614 49.3283 21.56 49.3037 21.56 49.2791C21.56 49.1624 21.5846 49.0504 21.6276 48.9493C21.4092 47.9675 21.4146 45.4515 21.5321 44.1808C21.5737 43.7411 21.6372 43.0774 21.7123 42.3086L21.7164 42.2649C21.8605 40.7717 22.025 39.0811 22.0906 38.2584C22.1042 38.0857 22.1213 37.8883 22.1404 37.6712C22.2497 36.3958 22.434 34.2628 22.2346 33.2823C22.0414 32.3339 21.6611 31.3965 20.1952 30.9609C18.8207 30.5519 13.5538 29.9244 12.2626 29.7926C11.8134 29.7469 10.5086 29.708 9.24613 29.6697H9.23794C7.44974 29.6158 6.14699 29.5734 5.67315 29.5127C5.33107 29.469 5.06684 29.3536 4.88863 29.1706C4.73159 29.0095 4.64693 28.7924 4.65239 28.5677C4.65854 28.2775 4.80738 27.9785 5.07094 27.7238C5.43964 27.3688 6.22278 26.9256 7.2886 26.3384C7.66481 26.1309 8.01644 25.937 8.28819 25.7745C8.85558 25.4344 10.3297 24.7537 12.1991 23.9002C12.9516 23.5568 13.5982 23.2612 13.9935 23.07C14.8627 22.6501 16.8721 22.0335 18.4869 21.5385L18.4964 21.5351C19.1355 21.3391 19.6913 21.1684 20.0682 21.0421C21.0712 20.7082 21.0043 20.1791 20.9339 19.6185L20.9326 19.6124C20.9251 19.5571 20.9189 19.5045 20.9135 19.4533C20.8602 18.9453 19.918 15.4433 19.453 14.2307C18.9983 13.0434 17.5535 10.1552 17.2162 9.57964C17.1295 9.43216 16.9854 9.21367 16.8311 8.98152C16.1149 7.89727 15.7107 7.21859 15.6294 6.74201C15.5905 6.51601 15.5714 6.33712 15.5693 6.1951C15.5673 5.95545 15.6677 5.72535 15.8452 5.56421C16.0234 5.40308 16.2617 5.32592 16.5 5.35119C16.5792 5.36074 16.6652 5.37577 16.7546 5.39557C17.7979 5.64068 20.2621 7.24931 21.2924 7.99013C22.4763 8.84155 26.3347 12.265 27.5828 13.4585C28.8221 14.6424 30.2573 15.9855 30.4171 16.1336L30.428 16.1432C30.5044 16.2005 30.5755 16.2599 30.6451 16.3173C31.0691 16.6682 31.349 16.899 32.2606 16.4286C33.4486 15.8148 37.462 13.6613 38.9532 12.8037C40.5154 11.9052 44.3874 9.95448 46.3804 9.66498C46.659 9.6247 46.9389 9.72643 47.1267 9.93741C47.3145 10.147 47.3841 10.4379 47.3124 10.7103C47.2721 10.8619 47.2114 11.0346 47.1315 11.2224C46.8932 11.7789 46.5504 12.3128 46.4521 12.4637C46.2603 12.7559 45.7386 13.4619 45.0797 14.3577L45.0736 14.3659C43.988 15.838 42.6354 17.6726 41.9458 18.7446C40.6942 20.6898 39.4345 23.1847 39.4529 24.1897C39.4605 24.6117 39.909 25.3907 40.7161 26.3808C41.5245 27.3749 42.6258 28.5124 43.8978 29.6731C45.7413 31.3535 48.0252 34.129 49.0016 35.3149L49.0241 35.3422C49.1272 35.4665 49.2146 35.5744 49.2884 35.6625C49.4461 35.8509 49.6106 36.04 49.7848 36.2387C50.2859 36.8102 50.8 37.3974 51.0977 37.9757C51.3053 38.1287 51.4412 38.3752 51.4412 38.653C51.4412 39.0579 51.1537 39.3973 50.7714 39.4758C50.7202 39.4935 50.6676 39.5079 50.6123 39.5161C50.0538 39.6028 49.1027 39.4089 48.452 39.174L48.4438 39.1706C47.6531 38.8749 42.3404 36.9775 41.1777 36.6027C40.7598 36.4682 40.036 36.2435 39.27 36.0059L39.2181 35.9902C37.8177 35.5566 36.2309 35.0637 35.7414 34.8848C34.9507 34.5932 33.9299 34.3788 33.0403 35.319C31.9772 36.4429 30.1808 38.8251 29.343 40.2221C28.9627 40.8557 28.3202 41.8478 27.6395 42.8986C26.8127 44.1747 25.9606 45.4911 25.514 46.264L25.4007 46.4599C24.4066 48.1833 23.6569 49.4355 23.0676 49.854L23.0622 49.8574C23.0144 49.8923 22.9638 49.9209 22.9092 49.9442C22.7686 50.0534 22.591 50.1169 22.3992 50.1169C22.1322 50.1169 21.8946 49.992 21.7396 49.798L21.7417 49.8028ZM22.4463 51.9679C22.178 51.9679 21.913 51.9235 21.6611 51.8355C20.4123 51.4005 20.0702 50.233 19.8866 49.6055C19.5008 48.2891 19.5895 45.1155 19.6913 44.0135C19.7316 43.5738 19.7951 42.9177 19.8681 42.1584L19.8756 42.0888C20.0197 40.6051 20.1829 38.9227 20.2464 38.1164C20.26 37.9402 20.2785 37.7381 20.2976 37.5176C20.3782 36.576 20.5687 34.3741 20.4225 33.6551C20.2901 33.0078 20.1986 32.8958 19.6701 32.7381C18.5702 32.4118 13.8487 31.8191 12.0769 31.6382C11.6932 31.5993 10.3092 31.5576 9.19697 31.5248C7.50026 31.4729 6.04048 31.4292 5.44032 31.3535C3.63095 31.1227 3.06834 29.8295 2.93862 29.4389C2.58903 28.382 2.90653 27.2452 3.78868 26.3951C4.36221 25.8441 5.35019 25.2993 6.39621 24.7223C6.75876 24.5229 7.09606 24.3372 7.33776 24.1925C8.03829 23.7719 9.68652 23.0188 11.431 22.222C12.1718 21.884 12.8109 21.5911 13.1892 21.4088C14.1854 20.9274 16.1825 20.3136 17.9454 19.7735C18.3537 19.6486 18.7231 19.5352 19.031 19.4383C18.8371 18.5862 18.112 15.9022 17.7262 14.8985C17.3179 13.8333 15.9223 11.034 15.6219 10.5212C15.5618 10.4195 15.426 10.2139 15.2935 10.0132L15.2894 10.0071C14.5424 8.87637 13.958 7.94097 13.8078 7.06018C13.7197 6.54537 13.4848 5.17639 14.5336 4.1891C14.9173 3.82791 15.7708 3.27144 17.1773 3.59986C18.8924 4.00133 22.2333 6.39174 22.3753 6.49347C23.6623 7.42001 27.5159 10.8394 28.863 12.1257C29.9705 13.1833 31.22 14.355 31.588 14.6991C32.9427 13.9931 36.6269 12.0131 38.0314 11.2053C38.0853 11.1732 43.5305 8.07957 46.4111 7.80373C47.438 7.6979 48.3516 8.126 48.8555 8.94943C49.5997 10.1661 49.0221 11.5133 48.833 11.9557C48.5339 12.6528 48.1188 13.3042 47.9986 13.4865C47.7801 13.8183 47.2755 14.5018 46.5784 15.4481L46.5689 15.4611L46.5634 15.4686C45.4928 16.9209 44.1593 18.7302 43.5011 19.7517C42.2216 21.7399 41.461 23.4762 41.3238 24.0518C41.562 24.497 42.5978 25.9882 45.1446 28.311C47.085 30.0801 49.429 32.9293 50.4307 34.1447L50.4593 34.1795C50.557 34.2983 50.6416 34.4007 50.7113 34.486C50.8519 34.6554 51.009 34.8349 51.1756 35.0248C52.014 35.982 52.9638 37.0669 53.1672 38.4059C53.3058 39.3153 52.9733 40.1948 52.2769 40.7601C51.5436 41.3548 50.5399 41.5275 49.2085 41.2879C48.4315 41.1479 47.7979 40.9117 47.791 40.9096C47.0175 40.6194 41.7682 38.7432 40.6089 38.3697C40.1903 38.2352 39.4366 38.0017 38.7087 37.7764L38.6882 37.7702C37.1875 37.3046 35.6369 36.8239 35.1002 36.6266C34.7322 36.4907 34.582 36.4811 34.526 36.4879C34.4967 36.4914 34.4489 36.5282 34.3826 36.5972C33.4459 37.5879 31.67 39.9442 30.9285 41.1814C30.5318 41.8416 29.8811 42.8467 29.1921 43.9098C28.379 45.1647 27.5385 46.4634 27.1158 47.1953L27.0025 47.3906C25.8206 49.4403 25.0381 50.7307 24.1382 51.3698C23.9286 51.518 23.2923 51.97 22.4442 51.97L22.4463 51.9679Z" fill="#FFF9F3"/>
<path d="M30.2633 16.3419C30.802 16.7406 31.1407 17.2991 32.3779 16.6607C33.6151 16.0223 37.6243 13.8675 39.0807 13.0304C40.5357 12.192 44.6856 10.0774 46.6213 9.8985C47.7185 9.77902 46.7401 11.574 46.2417 12.3319C45.7426 13.0898 42.8496 16.8799 41.734 18.6155C40.617 20.3518 39.1804 23.0447 39.1995 24.2014C39.2193 25.3587 41.6937 28.0119 43.7284 29.8671C45.7624 31.7222 48.316 34.8944 49.0937 35.8311C49.8713 36.7693 50.9494 37.8071 51.0887 38.7234C51.2287 39.641 49.3333 39.2416 48.5351 38.9426C47.737 38.6435 42.4311 36.7488 41.2547 36.3692C40.0769 35.9909 36.5865 34.9326 35.8286 34.654C35.0707 34.3741 33.8929 34.0552 32.8565 35.1524C31.8187 36.2504 29.9642 38.7036 29.1258 40.1005C28.2887 41.4968 26.1134 44.7284 25.2961 46.1445C24.4781 47.562 23.5407 49.217 22.9221 49.656C22.3041 50.0951 22.1444 49.8349 21.9047 49.017C21.6651 48.1997 21.6651 45.5061 21.7852 44.2102C21.9047 42.9129 22.2441 39.542 22.3437 38.285C22.4434 37.0287 22.7234 34.415 22.4837 33.2386C22.2441 32.0608 21.7463 31.163 20.2695 30.7246C18.7933 30.2856 13.2676 29.6479 12.2905 29.5482C11.3135 29.4485 6.64529 29.3884 5.70715 29.2683C4.77038 29.1495 4.70961 28.4312 5.24901 27.9123C5.78772 27.3927 7.52266 26.5351 8.42052 25.9971C9.31837 25.459 12.9084 23.8825 14.106 23.3035C15.3029 22.7245 18.8336 21.7276 20.15 21.2886C21.4664 20.8496 21.2267 20.0125 21.1673 19.4335C21.1079 18.8545 20.15 15.3443 19.6911 14.1474C19.2323 12.9505 17.7766 10.0378 17.438 9.45948C17.0986 8.88048 16.0014 7.405 15.8819 6.70651C15.7624 6.00803 15.7624 5.42903 16.6992 5.64889C17.6373 5.86806 20.0107 7.3852 21.1475 8.20248C22.285 9.02045 26.0751 12.3722 27.412 13.6483C28.7489 14.9258 30.2647 16.3419 30.2647 16.3419H30.2633Z" fill="#FFED96"/>
<path d="M21.7994 10.9701C22.2118 11.4727 22.6071 11.9895 22.9888 12.5201C24.0696 14.0249 25.0419 15.6042 25.978 17.2025C26.8717 18.7299 27.8427 20.1801 28.6504 21.758C28.8716 22.1923 29.0942 22.6286 29.3263 23.0574C29.4506 23.2854 30.0501 24.0269 30.0214 24.2591C30.3355 21.7936 30.4263 19.3724 31.0019 16.8646C30.724 16.7471 30.5151 16.5245 30.2631 16.3375C30.2631 16.3375 28.7473 14.9214 27.4105 13.6439C26.0736 12.3678 22.2835 9.01603 21.146 8.19806C20.0085 7.38077 17.6351 5.86432 16.6977 5.64447C16.387 5.57209 16.1794 5.58711 16.0449 5.66563C16.1583 5.60009 17.1654 6.4597 17.2978 6.56144C18.9713 7.85326 20.4673 9.33762 21.7994 10.9688V10.9701Z" fill="#FFE047"/>
<path d="M29.2939 24.3314C29.2939 24.3314 29.7848 24.6694 28.5892 24.2092C20.5912 23.9525 10.2689 26.5238 4.93164 28.7585C5.00402 29.0078 5.25186 29.2078 5.70728 29.2652C6.64542 29.3847 11.3136 29.4454 12.2906 29.5451C13.2677 29.6448 18.7934 30.2825 20.2696 30.7215C20.74 30.8615 21.1115 31.0479 21.4057 31.276C24.9425 27.4845 29.6011 24.4236 29.6011 24.4236L29.2939 24.3314Z" fill="#FFE047"/>
<path d="M50.0875 37.9838C48.5751 36.6777 43.7287 33.2057 41.8729 31.7972C40.0172 30.3872 32.695 25.9874 32.695 25.9874L30.0834 24.2695L29.2238 25.1633C28.1238 29.1507 27.5059 32.4506 26.8518 34.9939C26.266 37.2806 22.9299 46.6735 22.2349 49.7747C22.3864 49.9263 22.5865 49.8935 22.9231 49.6559C23.5424 49.2169 24.4792 47.5612 25.2971 46.1444C26.1144 44.7283 28.2891 41.4967 29.1268 40.1004C29.9653 38.7035 31.8204 36.2509 32.8575 35.1523C33.894 34.0551 35.0718 34.3747 35.8297 34.6539C36.5876 34.9325 40.0779 35.9908 41.2557 36.3691C42.4321 36.7487 47.738 38.6434 48.5362 38.9424C49.2476 39.2094 50.831 39.5549 51.0672 38.9773C50.8447 38.6919 50.5299 38.3648 50.0881 37.9831L50.0875 37.9838Z" fill="#FFE047"/>
<path d="M39.202 24.1447C39.2266 22.9594 40.6338 20.3239 41.7344 18.6149C42.8508 16.8799 45.743 13.0892 46.2421 12.3313C46.6586 11.6977 47.4104 10.3396 47.0041 9.98047C44.5379 11.613 40.8639 14.338 38.0372 16.5365C34.1617 19.551 30.0835 24.269 30.0835 24.269C30.0835 24.269 35.9103 24.142 39.202 24.1447Z" fill="#FFE047"/>
<path d="M21.0872 28.7242C16.4662 26.8643 11.4607 27.6884 5.39697 29.1981C5.4871 29.2302 5.5902 29.2534 5.70627 29.2677C6.64441 29.3872 11.3126 29.448 12.2896 29.5476C13.2667 29.6473 18.7924 30.285 20.2686 30.7241C21.7447 31.1631 22.2432 32.061 22.4828 33.2381C22.7225 34.4145 22.4425 37.0282 22.3429 38.2845C22.2432 39.5415 21.9038 42.9124 21.7843 44.2096C21.6649 45.5062 21.6649 48.1991 21.9038 49.0164L21.9052 49.0205C22.0418 46.0019 22.3654 42.9404 22.9553 40.0065C23.1909 38.8403 23.5486 37.7 23.7671 36.5338C24.3079 33.6443 24.2792 30.0085 21.0865 28.7228L21.0872 28.7242Z" fill="#FF5D2B"/>
<path d="M22.8258 17.5943C22.2905 16.1556 19.6946 11.3318 18.7639 9.94986C17.9787 8.78299 16.4705 7.27542 15.8307 6.07031C15.8136 6.25125 15.8403 6.4711 15.8805 6.70393C16 7.40241 17.0973 8.8779 17.4366 9.4569C17.7759 10.0359 19.2309 12.9486 19.6898 14.1449C20.1486 15.3418 21.1072 18.8519 21.1659 19.4309C21.2253 20.0099 21.465 20.847 20.1486 21.286C18.8322 21.7251 15.3016 22.7226 14.1046 23.3009C12.907 23.8799 9.317 25.4558 8.41914 25.9945C8.05044 26.2157 7.53972 26.4915 7.02832 26.7749C12.9268 24.6371 18.9749 22.7288 21.7245 22.1088C23.3611 21.7135 23.3611 19.0342 22.8244 17.5943H22.8258Z" fill="#FF5D2B"/>
<path d="M35.4362 32.0242C31.5539 31.1919 29.6121 36.0656 28.3831 38.4027C27.2934 40.4763 24.1485 45.9147 22.6211 49.827C22.7078 49.7929 22.8075 49.7362 22.9222 49.6543C23.5415 49.2152 24.4783 47.5595 25.2962 46.1427C26.1135 44.7266 28.2882 41.4951 29.1259 40.0988C29.9644 38.7018 31.8195 36.2493 32.8566 35.1507C33.8931 34.0534 35.0709 34.373 35.8288 34.6522C36.5867 34.9308 40.077 35.9891 41.2548 36.3674C42.4312 36.747 47.7371 38.6417 48.5353 38.9408C49.1819 39.1832 50.5481 39.4911 50.9701 39.1115C47.0769 36.5435 38.7859 32.7425 35.4355 32.0235L35.4362 32.0242Z" fill="#FF5D2B"/>
<path d="M43.729 29.8649C41.6936 28.0098 39.2199 25.3572 39.2001 24.1992C39.181 23.0426 40.6176 20.3497 41.7346 18.6134C42.8509 16.8784 45.7432 13.0876 46.2423 12.3298C46.497 11.944 46.8752 11.2878 47.0391 10.7539C45.4755 12.1877 42.6857 15.1264 41.3652 16.7098C40.1348 18.186 38.0749 20.9785 37.8537 23.5082C37.7096 25.1523 38.6389 26.5589 39.6828 27.6916C40.9084 29.0217 42.3825 30.1728 43.7413 31.3656C45.4373 32.8527 47.1798 34.1705 48.9147 35.6118C47.9766 34.4723 45.6264 31.5957 43.7283 29.8649H43.729Z" fill="#FF5D2B"/>
<path d="M27.6549 18.2319C27.6549 18.6272 27.3347 18.9474 26.9394 18.9474C26.544 18.9474 26.2231 18.6272 26.2231 18.2319C26.2231 17.8365 26.544 17.5156 26.9394 17.5156C27.3347 17.5156 27.6549 17.8365 27.6549 18.2319Z" fill="#FFD60A"/>
<path d="M25.9069 15.532C25.9069 15.9273 25.586 16.2475 25.1907 16.2475C24.7953 16.2475 24.4751 15.9273 24.4751 15.532C24.4751 15.1366 24.7953 14.8164 25.1907 14.8164C25.586 14.8164 25.9069 15.1366 25.9069 15.532Z" fill="#FFD60A"/>
<path d="M23.7865 12.5171C23.7865 12.8448 23.5216 13.1097 23.1952 13.1097C22.8688 13.1097 22.6025 12.8448 22.6025 12.5171C22.6025 12.1893 22.8675 11.9258 23.1952 11.9258C23.5229 11.9258 23.7865 12.1907 23.7865 12.5171Z" fill="#FFD60A"/>
<path d="M21.8317 10.37C21.8317 10.6438 21.6105 10.8664 21.3353 10.8664C21.0602 10.8664 20.8403 10.6438 20.8403 10.37C20.8403 10.0962 21.0622 9.875 21.3353 9.875C21.6085 9.875 21.8317 10.0962 21.8317 10.37Z" fill="#FFD60A"/>
<path d="M20.0552 8.65472C20.0033 8.86365 19.7711 8.98655 19.537 8.92919C19.3028 8.87116 19.1553 8.65335 19.2072 8.4451C19.2591 8.23549 19.4905 8.11259 19.7247 8.17063C19.9589 8.22866 20.1064 8.4451 20.0552 8.65472Z" fill="#FFD60A"/>
<path d="M18.1015 7.44391C18.055 7.63031 17.8372 7.73614 17.616 7.68152C17.3934 7.62758 17.2514 7.43162 17.2971 7.24454C17.3436 7.05814 17.5614 6.95231 17.7826 7.00625C18.0052 7.06156 18.1472 7.25751 18.1015 7.44391Z" fill="#FFD60A"/>
<path d="M35.4018 20.0513C35.4018 20.4603 35.0638 20.7914 34.646 20.7914C34.2281 20.7914 33.8901 20.4609 33.8901 20.0513C33.8901 19.6416 34.2295 19.3125 34.646 19.3125C35.0625 19.3125 35.4018 19.643 35.4018 20.0513Z" fill="#FFD60A"/>
<path d="M37.6368 17.8557C37.6368 18.2141 37.2838 18.5043 36.8495 18.5043C36.4153 18.5043 36.0596 18.2141 36.0596 17.8557C36.0596 17.4972 36.4139 17.207 36.8495 17.207C37.2852 17.207 37.6368 17.4972 37.6368 17.8557Z" fill="#FFD60A"/>
<path d="M40.2658 15.6868C40.2658 16.0808 39.9264 16.401 39.5099 16.401C39.0934 16.401 38.7534 16.0808 38.7534 15.6868C38.7534 15.2929 39.0928 14.9727 39.5099 14.9727C39.9271 14.9727 40.2658 15.2929 40.2658 15.6868Z" fill="#FFD60A"/>
<path d="M42.6646 13.6264C42.6646 13.9432 42.4147 14.2006 42.1047 14.2006C41.7947 14.2006 41.5469 13.9432 41.5469 13.6264C41.5469 13.3096 41.7961 13.0508 42.1047 13.0508C42.4133 13.0508 42.6646 13.3082 42.6646 13.6264Z" fill="#FFD60A"/>
<path d="M36.2381 28.0269C36.2381 28.4625 35.8714 28.8155 35.4174 28.8155C34.9633 28.8155 34.5967 28.4625 34.5967 28.0269C34.5967 27.5913 34.9647 27.2383 35.4174 27.2383C35.8701 27.2383 36.2381 27.5913 36.2381 28.0269Z" fill="#FFD60A"/>
<path d="M39.241 29.8148C39.241 30.2135 38.9051 30.5365 38.4906 30.5365C38.0762 30.5365 37.7402 30.2135 37.7402 29.8148C37.7402 29.416 38.0762 29.0938 38.4906 29.0938C38.9051 29.0938 39.241 29.4167 39.241 29.8148Z" fill="#FFD60A"/>
<path d="M42.213 31.7905C42.213 32.1701 41.8921 32.4787 41.4968 32.4787C41.1015 32.4787 40.7812 32.1701 40.7812 31.7905C40.7812 31.4109 41.1015 31.1016 41.4968 31.1016C41.8921 31.1016 42.213 31.4102 42.213 31.7905Z" fill="#FFD60A"/>
<path d="M44.8376 33.7767C44.8376 34.1024 44.5631 34.366 44.2238 34.366C43.8844 34.366 43.6113 34.1017 43.6113 33.7767C43.6113 33.4517 43.8858 33.1875 44.2238 33.1875C44.5618 33.1875 44.8376 33.4517 44.8376 33.7767Z" fill="#FFD60A"/>
<path d="M47.62 35.9441C47.62 36.1701 47.422 36.3531 47.1755 36.3531C46.9291 36.3531 46.7324 36.1695 46.7324 35.9441C46.7324 35.7188 46.9304 35.5352 47.1755 35.5352C47.4207 35.5352 47.62 35.7188 47.62 35.9441Z" fill="#FFD60A"/>
<path d="M29.075 29.8511C29.075 30.2854 28.7083 30.6384 28.2543 30.6384C27.8002 30.6384 27.4336 30.2854 27.4336 29.8511C27.4336 29.4169 27.8016 29.0625 28.2543 29.0625C28.707 29.0625 29.075 29.4155 29.075 29.8511Z" fill="#FFD60A"/>
<path d="M28.0289 32.7324C28.0289 33.1106 27.7586 33.4179 27.426 33.4179C27.0935 33.4179 26.8218 33.1106 26.8218 32.7324C26.8218 32.3541 27.0922 32.0469 27.426 32.0469C27.7599 32.0469 28.0289 32.3541 28.0289 32.7324Z" fill="#FFD60A"/>
<path d="M27.1703 36.4707C27.1703 36.8503 26.8671 37.1575 26.4943 37.1575C26.1215 37.1575 25.8184 36.8503 25.8184 36.4707C25.8184 36.091 26.1215 35.7852 26.4943 35.7852C26.8671 35.7852 27.1703 36.0924 27.1703 36.4707Z" fill="#FFD60A"/>
<path d="M26.0506 40.0861C26.0506 40.4356 25.7727 40.7197 25.4313 40.7197C25.0899 40.7197 24.812 40.4356 24.812 40.0861C24.812 39.7365 25.0899 39.4531 25.4313 39.4531C25.7727 39.4531 26.0506 39.7358 26.0506 40.0861Z" fill="#FFD60A"/>
<path d="M24.8442 43.056C24.8442 43.3653 24.5984 43.6165 24.2959 43.6165C23.9935 43.6165 23.749 43.3653 23.749 43.056C23.749 42.7467 23.9941 42.4961 24.2959 42.4961C24.5977 42.4961 24.8442 42.746 24.8442 43.056Z" fill="#FFD60A"/>
<path d="M23.6799 45.8476C23.6799 46.1412 23.4478 46.3788 23.1603 46.3788C22.8729 46.3788 22.6421 46.1412 22.6421 45.8476C22.6421 45.554 22.8742 45.3164 23.1603 45.3164C23.4464 45.3164 23.6799 45.554 23.6799 45.8476Z" fill="#FFD60A"/>
<path d="M23.6327 24.4982C23.6327 24.9338 23.2661 25.2868 22.8134 25.2868C22.3607 25.2868 21.9927 24.9338 21.9927 24.4982C21.9927 24.0626 22.3593 23.7109 22.8134 23.7109C23.2674 23.7109 23.6327 24.0639 23.6327 24.4982Z" fill="#FFD60A"/>
<path d="M20.2251 24.7858C20.2251 25.1962 19.8796 25.528 19.4522 25.528C19.0248 25.528 18.6807 25.1962 18.6807 24.7858C18.6807 24.3755 19.0262 24.043 19.4522 24.043C19.8783 24.043 20.2251 24.3755 20.2251 24.7858Z" fill="#FFD60A"/>
<path d="M16.351 25.4547C16.351 25.8288 16.0362 26.1306 15.647 26.1306C15.2578 26.1306 14.9424 25.8288 14.9424 25.4547C14.9424 25.0805 15.2585 24.7773 15.647 24.7773C16.0355 24.7773 16.351 25.0805 16.351 25.4547Z" fill="#FFD60A"/>
<path d="M13.3616 26.2015C13.3616 26.5606 13.0584 26.8522 12.6843 26.8522C12.3101 26.8522 12.0083 26.5606 12.0083 26.2015C12.0083 25.8423 12.3115 25.5508 12.6843 25.5508C13.0571 25.5508 13.3616 25.8423 13.3616 26.2015Z" fill="#FFD60A"/>
<path d="M10.0502 27.0484C10.0502 27.3147 9.82554 27.5298 9.54901 27.5298C9.27249 27.5298 9.04785 27.3147 9.04785 27.0484C9.04785 26.7822 9.27249 26.5664 9.54901 26.5664C9.82554 26.5664 10.0502 26.7815 10.0502 27.0484Z" fill="#FFD60A"/>
<path d="M26.9393 17.6493C26.6191 17.6493 26.3583 17.9101 26.3583 18.2303C26.3583 18.5506 26.6191 18.81 26.9393 18.81C27.2595 18.81 27.5204 18.5506 27.5204 18.2303C27.5204 17.9101 27.2595 17.6493 26.9393 17.6493ZM26.9393 19.0818C26.4696 19.0818 26.0879 18.7001 26.0879 18.2303C26.0879 17.7606 26.4696 17.3789 26.9393 17.3789C27.4091 17.3789 27.7907 17.7606 27.7907 18.2303C27.7907 18.7001 27.4091 19.0818 26.9393 19.0818Z" fill="#171936"/>
<path d="M25.1908 14.9508C24.8706 14.9508 24.6111 15.2116 24.6111 15.5318C24.6111 15.852 24.8706 16.1128 25.1908 16.1128C25.511 16.1128 25.7718 15.852 25.7718 15.5318C25.7718 15.2116 25.511 14.9508 25.1908 14.9508ZM25.1908 16.3825C24.721 16.3825 24.3394 16.0009 24.3394 15.5311C24.3394 15.0614 24.721 14.6797 25.1908 14.6797C25.6605 14.6797 26.0422 15.0614 26.0422 15.5311C26.0422 16.0009 25.6605 16.3825 25.1908 16.3825Z" fill="#171936"/>
<path d="M23.1944 12.0601C22.9425 12.0601 22.7377 12.265 22.7377 12.5162C22.7377 12.7675 22.9425 12.973 23.1944 12.973C23.4464 12.973 23.6512 12.7682 23.6512 12.5162C23.6512 12.2643 23.4457 12.0601 23.1944 12.0601ZM23.1944 13.2441C22.793 13.2441 22.4673 12.9177 22.4673 12.5162C22.4673 12.1147 22.793 11.7891 23.1944 11.7891C23.5959 11.7891 23.9216 12.1154 23.9216 12.5162C23.9216 12.917 23.5952 13.2441 23.1944 13.2441Z" fill="#171936"/>
<path d="M21.335 10.0087C21.137 10.0087 20.9758 10.1712 20.9758 10.3692C20.9758 10.5672 21.137 10.7297 21.335 10.7297C21.533 10.7297 21.6955 10.5685 21.6955 10.3692C21.6955 10.1698 21.5344 10.0087 21.335 10.0087ZM21.335 11.0007C20.9875 11.0007 20.7041 10.7167 20.7041 10.3692C20.7041 10.0216 20.9875 9.73828 21.335 9.73828C21.6825 9.73828 21.9666 10.0216 21.9666 10.3692C21.9666 10.7167 21.6832 11.0007 21.335 11.0007Z" fill="#171936"/>
<path d="M19.608 8.29393C19.5561 8.29393 19.5049 8.30691 19.4605 8.33012C19.3977 8.36289 19.3547 8.41683 19.3383 8.48033C19.3226 8.54315 19.3362 8.61074 19.3765 8.67014C19.4202 8.73364 19.4892 8.78007 19.5697 8.80056C19.7309 8.83947 19.8899 8.76164 19.9234 8.6244C19.9384 8.5609 19.9255 8.49399 19.8852 8.43459C19.8408 8.37109 19.7725 8.32466 19.6913 8.30417C19.6639 8.29803 19.6353 8.29325 19.6073 8.29325L19.608 8.29393ZM19.6537 9.08118C19.6052 9.08118 19.554 9.07503 19.5042 9.06342C19.3587 9.02724 19.2338 8.94121 19.1532 8.82309C19.0686 8.69882 19.0406 8.55407 19.0761 8.41478C19.1102 8.27618 19.2024 8.16011 19.3348 8.09046C19.4618 8.02287 19.6114 8.0058 19.7575 8.04199C19.9029 8.07817 20.0279 8.1642 20.1091 8.28233C20.1931 8.40659 20.2204 8.55066 20.1863 8.68926C20.1282 8.9255 19.9036 9.08118 19.653 9.08118H19.6537Z" fill="#171936"/>
<path d="M17.6652 7.12511C17.6188 7.12511 17.5731 7.13604 17.5341 7.15447C17.4788 7.18179 17.442 7.22412 17.429 7.27533C17.4017 7.38662 17.502 7.51157 17.6482 7.54775C17.7253 7.56687 17.8018 7.56073 17.8653 7.53C17.9206 7.50269 17.9575 7.46036 17.9704 7.40915C17.9977 7.29786 17.8974 7.17291 17.7513 7.13536C17.7226 7.12921 17.6939 7.12443 17.6652 7.12443V7.12511ZM17.7335 7.83042C17.6837 7.83042 17.6325 7.82428 17.5826 7.81131C17.2877 7.73893 17.1013 7.46923 17.1648 7.21046C17.1968 7.08142 17.2856 6.9749 17.414 6.91277C17.5335 6.85337 17.6755 6.83971 17.8148 6.87385C18.1097 6.94691 18.2961 7.21729 18.2326 7.4747C18.2005 7.60511 18.1118 7.71094 17.9834 7.77375C17.9069 7.81199 17.8209 7.83111 17.7335 7.83111V7.83042Z" fill="#171936"/>
<path d="M34.6462 19.4468C34.3048 19.4468 34.0262 19.7172 34.0262 20.0497C34.0262 20.3823 34.3048 20.654 34.6462 20.654C34.9876 20.654 35.2675 20.3836 35.2675 20.0497C35.2675 19.7159 34.989 19.4468 34.6462 19.4468ZM34.6462 20.9257C34.1553 20.9257 33.7559 20.5325 33.7559 20.0504C33.7559 19.5684 34.1553 19.1758 34.6462 19.1758C35.1371 19.1758 35.5379 19.5677 35.5379 20.0504C35.5379 20.5331 35.1385 20.9257 34.6462 20.9257Z" fill="#171936"/>
<path d="M36.8488 17.346C36.4883 17.346 36.1947 17.5761 36.1947 17.8587C36.1947 18.1414 36.4883 18.3729 36.8488 18.3729C37.2093 18.3729 37.5015 18.1421 37.5015 17.8587C37.5015 17.5754 37.2079 17.346 36.8488 17.346ZM36.8488 18.6432C36.3388 18.6432 35.9243 18.2916 35.9243 17.8587C35.9243 17.4259 36.3388 17.0742 36.8488 17.0742C37.3588 17.0742 37.7719 17.4259 37.7719 17.8587C37.7719 18.2916 37.3575 18.6432 36.8488 18.6432Z" fill="#171936"/>
<path d="M39.5095 15.1116C39.1681 15.1116 38.8895 15.371 38.8895 15.6906C38.8895 16.0101 39.1681 16.2703 39.5095 16.2703C39.8509 16.2703 40.1308 16.0094 40.1308 15.6906C40.1308 15.3717 39.8522 15.1116 39.5095 15.1116ZM39.5095 16.54C39.0186 16.54 38.6191 16.1583 38.6191 15.6899C38.6191 15.2215 39.0186 14.8398 39.5095 14.8398C40.0004 14.8398 40.4012 15.2215 40.4012 15.6899C40.4012 16.1583 40.0018 16.54 39.5095 16.54Z" fill="#171936"/>
<path d="M42.1051 13.1883C41.8723 13.1883 41.6825 13.3857 41.6825 13.6281C41.6825 13.8704 41.8723 14.0678 42.1051 14.0678C42.338 14.0678 42.5291 13.8698 42.5291 13.6281C42.5291 13.3864 42.3393 13.1883 42.1051 13.1883ZM42.1051 14.3381C41.7228 14.3381 41.4121 14.0193 41.4121 13.6281C41.4121 13.2368 41.7228 12.918 42.1051 12.918C42.4875 12.918 42.7995 13.2361 42.7995 13.6281C42.7995 14.02 42.4889 14.3381 42.1051 14.3381Z" fill="#171936"/>
<path d="M35.4181 27.3719C35.0405 27.3719 34.7333 27.6642 34.7333 28.0247C34.7333 28.3852 35.0405 28.6774 35.4181 28.6774C35.7957 28.6774 36.1029 28.3852 36.1029 28.0247C36.1029 27.6642 35.7957 27.3719 35.4181 27.3719ZM35.4181 28.9492C34.891 28.9492 34.4629 28.5347 34.4629 28.0247C34.4629 27.5146 34.891 27.1016 35.4181 27.1016C35.9452 27.1016 36.374 27.5146 36.374 28.0247C36.374 28.5347 35.9445 28.9492 35.4181 28.9492Z" fill="#171936"/>
<path d="M38.4907 29.232C38.1514 29.232 37.8749 29.4949 37.8749 29.8171C37.8749 30.1394 38.1514 30.403 38.4907 30.403C38.8301 30.403 39.1052 30.1401 39.1052 29.8171C39.1052 29.4942 38.8294 29.232 38.4907 29.232ZM38.4907 30.6747C38.0019 30.6747 37.6045 30.2896 37.6045 29.8171C37.6045 29.3447 38.0019 28.9609 38.4907 28.9609C38.9796 28.9609 39.377 29.346 39.377 29.8171C39.377 30.2883 38.9796 30.6747 38.4907 30.6747Z" fill="#171936"/>
<path d="M41.4969 31.2352C41.1767 31.2352 40.9173 31.4831 40.9173 31.7883C40.9173 32.0935 41.1767 32.3406 41.4969 32.3406C41.8172 32.3406 42.078 32.0928 42.078 31.7883C42.078 31.4838 41.8172 31.2352 41.4969 31.2352ZM41.4969 32.611C41.0272 32.611 40.6455 32.2423 40.6455 31.7883C40.6455 31.3342 41.0272 30.9648 41.4969 30.9648C41.9667 30.9648 42.3484 31.3335 42.3484 31.7883C42.3484 32.243 41.9667 32.611 41.4969 32.611Z" fill="#171936"/>
<path d="M44.2239 33.3225C43.961 33.3225 43.746 33.526 43.746 33.7759C43.746 34.0258 43.961 34.2293 44.2239 34.2293C44.4868 34.2293 44.7019 34.0258 44.7019 33.7759C44.7019 33.526 44.4875 33.3225 44.2239 33.3225ZM44.2239 34.501C43.8115 34.501 43.4756 34.1753 43.4756 33.7759C43.4756 33.3765 43.8115 33.0508 44.2239 33.0508C44.6363 33.0508 44.9736 33.3765 44.9736 33.7759C44.9736 34.1753 44.6377 34.501 44.2239 34.501Z" fill="#171936"/>
<path d="M47.1757 35.6727C47.0063 35.6727 46.8671 35.7956 46.8671 35.9465C46.8671 36.0974 47.0057 36.2203 47.1757 36.2203C47.3457 36.2203 47.4843 36.0974 47.4843 35.9465C47.4843 35.7956 47.3464 35.6727 47.1757 35.6727ZM47.1757 36.4907C46.8568 36.4907 46.5967 36.2456 46.5967 35.9458C46.5967 35.6461 46.8561 35.4023 47.1757 35.4023C47.4952 35.4023 47.7554 35.6461 47.7554 35.9458C47.7554 36.2456 47.4959 36.4907 47.1757 36.4907Z" fill="#171936"/>
<path d="M28.255 29.1975C27.8774 29.1975 27.5702 29.4898 27.5702 29.8503C27.5702 30.2108 27.8774 30.5023 28.255 30.5023C28.6326 30.5023 28.9398 30.2101 28.9398 29.8503C28.9398 29.4904 28.6326 29.1975 28.255 29.1975ZM28.255 30.7734C27.7279 30.7734 27.2998 30.3589 27.2998 29.8503C27.2998 29.3416 27.7279 28.9258 28.255 28.9258C28.7821 28.9258 29.2109 29.3402 29.2109 29.8503C29.2109 30.3603 28.7814 30.7734 28.255 30.7734Z" fill="#171936"/>
<path d="M27.4262 32.1812C27.1674 32.1812 26.9578 32.4284 26.9578 32.7315C26.9578 33.0347 27.1674 33.2819 27.4262 33.2819C27.6849 33.2819 27.8939 33.0347 27.8939 32.7315C27.8939 32.4284 27.6843 32.1812 27.4262 32.1812ZM27.4262 33.5529C27.0179 33.5529 26.686 33.1842 26.686 32.7315C26.686 32.2789 27.0179 31.9102 27.4262 31.9102C27.8345 31.9102 28.1649 32.2789 28.1649 32.7315C28.1649 33.1842 27.8331 33.5529 27.4262 33.5529Z" fill="#171936"/>
<path d="M26.4944 35.9195C26.1967 35.9195 25.9537 36.1667 25.9537 36.4698C25.9537 36.773 26.1967 37.0208 26.4944 37.0208C26.7921 37.0208 27.0352 36.7737 27.0352 36.4698C27.0352 36.166 26.7921 35.9195 26.4944 35.9195ZM26.4944 37.2905C26.0472 37.2905 25.6826 36.9225 25.6826 36.4691C25.6826 36.0158 26.0472 35.6484 26.4944 35.6484C26.9417 35.6484 27.3063 36.0165 27.3063 36.4691C27.3063 36.9218 26.9417 37.2905 26.4944 37.2905Z" fill="#171936"/>
<path d="M25.431 39.5875C25.1647 39.5875 24.9476 39.8101 24.9476 40.0845C24.9476 40.359 25.1647 40.583 25.431 40.583C25.6973 40.583 25.9144 40.359 25.9144 40.0845C25.9144 39.8101 25.6973 39.5875 25.431 39.5875ZM25.431 40.8527C25.0152 40.8527 24.6772 40.5079 24.6772 40.0845C24.6772 39.6612 25.0152 39.3164 25.431 39.3164C25.8468 39.3164 26.1848 39.6619 26.1848 40.0845C26.1848 40.5072 25.8468 40.8527 25.431 40.8527Z" fill="#171936"/>
<path d="M24.2956 42.6298C24.0689 42.6298 23.8832 42.8203 23.8832 43.0551C23.8832 43.29 24.0689 43.4805 24.2956 43.4805C24.5223 43.4805 24.708 43.29 24.708 43.0551C24.708 42.8203 24.5236 42.6298 24.2956 42.6298ZM24.2956 43.7509C23.9194 43.7509 23.6128 43.4382 23.6128 43.0544C23.6128 42.6707 23.9194 42.3594 24.2956 42.3594C24.6718 42.3594 24.9784 42.6707 24.9784 43.0544C24.9784 43.4382 24.6718 43.7509 24.2956 43.7509Z" fill="#171936"/>
<path d="M23.1609 45.454C22.95 45.454 22.7772 45.6308 22.7772 45.8493C22.7772 46.0678 22.95 46.246 23.1609 46.246C23.3719 46.246 23.5447 46.0678 23.5447 45.8493C23.5447 45.6308 23.3726 45.454 23.1609 45.454ZM23.1609 46.5164C22.8004 46.5164 22.5068 46.2173 22.5068 45.85C22.5068 45.4827 22.8004 45.1836 23.1609 45.1836C23.5214 45.1836 23.8157 45.4827 23.8157 45.85C23.8157 46.2173 23.5221 46.5164 23.1609 46.5164Z" fill="#171936"/>
<path d="M22.8133 23.8446C22.4351 23.8446 22.1285 24.1382 22.1285 24.4973C22.1285 24.8565 22.4351 25.1501 22.8133 25.1501C23.1916 25.1501 23.4981 24.8578 23.4981 24.4973C23.4981 24.1368 23.1909 23.8446 22.8133 23.8446ZM22.8133 25.4218C22.2855 25.4218 21.8574 25.0074 21.8574 24.4973C21.8574 23.9873 22.2855 23.5742 22.8133 23.5742C23.3411 23.5742 23.7685 23.9887 23.7685 24.4973C23.7685 25.006 23.3404 25.4218 22.8133 25.4218Z" fill="#171936"/>
<path d="M19.4523 24.1766C19.1014 24.1766 18.8167 24.4491 18.8167 24.7843C18.8167 25.1195 19.1021 25.3906 19.4523 25.3906C19.8026 25.3906 20.0894 25.1195 20.0894 24.7843C20.0894 24.4491 19.804 24.1766 19.4523 24.1766ZM19.4523 25.661C18.9519 25.661 18.5449 25.267 18.5449 24.7836C18.5449 24.3002 18.9519 23.9062 19.4523 23.9062C19.9528 23.9062 20.3604 24.2995 20.3604 24.7836C20.3604 25.2677 19.9535 25.661 19.4523 25.661Z" fill="#171936"/>
<path d="M15.6468 24.9103C15.3327 24.9103 15.0773 25.1527 15.0773 25.4518C15.0773 25.7508 15.3327 25.9932 15.6468 25.9932C15.9608 25.9932 16.2148 25.7501 16.2148 25.4518C16.2148 25.1534 15.9595 24.9103 15.6468 24.9103ZM15.6468 26.2643C15.1838 26.2643 14.8076 25.8997 14.8076 25.4524C14.8076 25.0052 15.1838 24.6406 15.6468 24.6406C16.1097 24.6406 16.4866 25.0039 16.4866 25.4524C16.4866 25.901 16.109 26.2643 15.6468 26.2643Z" fill="#171936"/>
<path d="M12.6844 25.6877C12.3867 25.6877 12.1429 25.9184 12.1429 26.2025C12.1429 26.4865 12.3867 26.7173 12.6844 26.7173C12.9821 26.7173 13.2258 26.4865 13.2258 26.2025C13.2258 25.9184 12.9828 25.6877 12.6844 25.6877ZM12.6844 26.9884C12.2372 26.9884 11.8726 26.6367 11.8726 26.2032C11.8726 25.7696 12.2372 25.418 12.6844 25.418C13.1316 25.418 13.4962 25.7696 13.4962 26.2032C13.4962 26.6367 13.133 26.9884 12.6844 26.9884Z" fill="#171936"/>
<path d="M9.54914 26.7014C9.34636 26.7014 9.18249 26.8564 9.18249 27.0483C9.18249 27.2401 9.34704 27.3951 9.54914 27.3951C9.75124 27.3951 9.91511 27.2395 9.91511 27.0483C9.91511 26.8571 9.75056 26.7014 9.54914 26.7014ZM9.54914 27.6648C9.19751 27.6648 8.91211 27.3883 8.91211 27.0476C8.91211 26.7069 9.19751 26.4297 9.54914 26.4297C9.90077 26.4297 10.1862 26.7062 10.1862 27.0476C10.1862 27.389 9.90009 27.6648 9.54914 27.6648Z" fill="#171936"/>
<path d="M30.2094 25.0464C30.2094 25.0464 29.1176 26.9985 28.6841 27.6499C28.624 27.7414 28.4826 27.7113 28.4635 27.6041C28.3249 26.8135 28.6342 24.7426 28.6943 24.6088C27.6408 24.8717 25.9154 24.6668 25.1213 24.5303C24.9902 24.5077 24.9643 24.3282 25.0851 24.2708C26.1783 23.7485 28.5926 23.2118 28.5926 23.2118C28.5926 23.2118 27.9726 21.1915 27.7965 20.3797C27.7712 20.2622 27.9132 20.1816 27.9999 20.2643C28.641 20.8706 29.6386 22.5932 29.771 22.74C30.2121 22.4314 32.1355 21.666 32.8934 21.4393C32.9944 21.4086 33.0771 21.5219 33.0177 21.6087C32.4878 22.3761 30.7474 23.7669 30.7474 23.7669C31.1441 24.1008 31.7279 24.7337 32.3636 25.2813C33.2655 26.0583 34.19 26.7452 34.1306 26.864C34.0056 27.1139 30.5958 25.4827 30.2087 25.0464H30.2094Z" fill="#FFDC2E"/>
<path d="M28.5796 23.2155C28.3816 23.2599 26.1578 23.7658 25.105 24.2615C25.9189 24.1277 27.7166 23.9877 28.8029 23.2681C28.7223 23.2681 28.65 23.2408 28.579 23.2148L28.5796 23.2155Z" fill="#FFF3B5"/>
<path d="M31.7979 22.1127C32.0417 21.9652 32.65 21.7099 32.8876 21.5508C31.9959 21.8614 30.1463 22.478 29.7714 22.7409L29.7673 22.7354C29.7735 22.7579 29.7496 22.9163 29.7619 22.9163C30.4296 22.7702 31.1104 22.4466 31.7071 22.1666C31.7378 22.1489 31.7686 22.1305 31.7986 22.1113L31.7979 22.1127Z" fill="#FFF3B5"/>
<path d="M29.6951 22.6329C29.4186 22.2171 28.5692 20.8024 28.0004 20.2637L27.8721 20.25C28.2537 21.0673 29.9505 23.8059 29.6951 22.6329Z" fill="#FFF3B5"/>
<path d="M28.6667 24.3507C27.4924 24.0435 26.163 24.0127 25.0098 24.4197C25.0207 24.4729 25.0582 24.5194 25.1211 24.5296C25.9138 24.6662 27.6385 24.871 28.692 24.6081C28.7336 24.4832 28.7302 24.3719 28.6667 24.3507Z" fill="#FF5D2B"/>
<path d="M28.7952 23.2976C28.8123 23.2976 28.8293 23.2941 28.8485 23.288C29.0321 23.2279 28.983 23.0381 28.9447 22.9002C28.8983 22.735 28.8368 22.5725 28.774 22.4127C28.6074 21.9866 28.4197 21.5688 28.221 21.1577C28.0899 20.8853 27.9547 20.6129 27.7949 20.3555L27.797 20.3821C27.9643 21.1557 28.5357 23.0265 28.5897 23.2006C28.6545 23.2484 28.7167 23.3003 28.7952 23.2982V23.2976Z" fill="#FF5D2B"/>
<path d="M30.5181 23.4472C30.4723 23.5373 30.4279 23.6732 30.5181 23.7633C30.5945 23.8398 30.6853 23.8152 30.7734 23.7886L30.7482 23.7661C30.7482 23.7661 32.4886 22.3752 33.0184 21.6078C33.0382 21.5771 33.043 21.5443 33.0341 21.5156C32.1001 21.9881 31.209 22.5418 30.5181 23.4465V23.4472Z" fill="#FF5D2B"/>
<path d="M30.6982 24.5298C30.4278 24.3038 29.9765 24.1235 29.7505 24.4396C28.923 25.3505 28.7024 26.5269 28.5317 27.6904C28.5829 27.7136 28.6471 27.7033 28.6847 27.648C29.1182 26.9973 30.21 25.0446 30.21 25.0446C30.5705 25.4515 33.5447 26.8901 34.0588 26.8881C32.9404 26.1439 31.8125 25.4024 30.6989 24.5298H30.6982Z" fill="#FF5D2B"/>
<path d="M28.9313 24.4093L28.818 24.664C28.7661 24.8101 28.4738 26.7574 28.592 27.5439C29.0296 26.8762 30.0804 24.9992 30.092 24.9801L30.1842 24.8135L30.3112 24.9569C30.4628 25.1282 31.2534 25.5782 32.1895 26.0261C32.9645 26.3962 33.5503 26.6283 33.8548 26.7164C33.678 26.5498 33.3735 26.2999 33.0956 26.0712C32.8436 25.8636 32.5569 25.628 32.2749 25.3856C31.9294 25.088 31.5989 24.7643 31.3074 24.4796C31.0561 24.2338 30.8397 24.0215 30.6608 23.8712L30.5345 23.7654L30.6628 23.6623C30.6799 23.6487 32.3076 22.3446 32.8655 21.5914C32.0639 21.8413 30.2573 22.5665 29.849 22.8525L29.7513 22.9201L29.6708 22.8314C29.6284 22.7836 29.5424 22.6511 29.369 22.378C28.9989 21.797 28.3864 20.8349 27.9392 20.3945C28.1236 21.2173 28.7169 23.1523 28.7237 23.1728L28.7661 23.3127L28.6227 23.3448C28.5981 23.3503 26.2104 23.8842 25.1439 24.3943V24.3983C26.192 24.5793 27.7419 24.709 28.6616 24.4789L28.9306 24.4113L28.9313 24.4093ZM28.5838 27.8389C28.5667 27.8389 28.549 27.8368 28.5305 27.8334C28.4274 27.8109 28.3496 27.7303 28.3311 27.6265C28.2123 26.9567 28.4042 25.3891 28.5169 24.7834C27.2394 25.0176 25.3242 24.7015 25.0996 24.6626C24.9821 24.6428 24.8906 24.5492 24.8749 24.4304C24.8578 24.311 24.9186 24.1997 25.0279 24.1478C25.981 23.6917 27.8826 23.2349 28.422 23.1099C28.2779 22.6361 27.8156 21.1005 27.6654 20.4068C27.6422 20.2955 27.6921 20.1829 27.7917 20.1269C27.8901 20.0716 28.0123 20.0866 28.0949 20.1638C28.5688 20.6123 29.2133 21.6242 29.5977 22.2298C29.6783 22.3548 29.7547 22.4756 29.8087 22.5562C30.4068 22.2087 32.1288 21.5259 32.8559 21.3074C32.959 21.2767 33.0649 21.3129 33.127 21.3982C33.1891 21.4836 33.1905 21.5962 33.1304 21.6836C32.6723 22.3459 31.3729 23.4315 30.9598 23.7688C31.1176 23.9122 31.2971 24.087 31.4986 24.283C31.7867 24.5649 32.1144 24.8852 32.4538 25.1774C32.7337 25.4177 33.0177 25.6519 33.269 25.8602C34.1942 26.6222 34.3376 26.7567 34.2536 26.9233C34.2385 26.954 34.1983 27.0093 34.104 27.0209C33.7797 27.0632 32.5705 26.5068 32.0659 26.2644C31.4112 25.9517 30.6034 25.5277 30.247 25.2566C29.9842 25.725 29.1648 27.1732 28.7982 27.7242C28.7504 27.7965 28.6698 27.8389 28.5851 27.8389H28.5838Z" fill="#171936"/>
<path d="M16.3456 5.93822C16.2384 5.93822 16.209 5.96485 16.2077 5.96554C16.179 5.99216 16.123 6.11302 16.2152 6.64695C16.2903 7.09212 16.915 8.03572 17.3267 8.65978C17.492 8.90968 17.6354 9.12612 17.7282 9.28589C18.0716 9.87171 19.543 12.8145 20.0073 14.023C20.4737 15.2411 21.4391 18.7724 21.504 19.3958C21.5094 19.4443 21.5156 19.4962 21.5217 19.5487C21.5907 20.0977 21.7197 21.1198 20.2559 21.6073C19.8708 21.7357 19.3102 21.9084 18.6616 22.1078C17.1499 22.5707 15.079 23.2057 14.2522 23.6065C13.8507 23.8004 13.1993 24.0974 12.4449 24.4415C10.9885 25.1072 9.17572 25.9348 8.59331 26.285C8.31269 26.4537 7.95423 26.651 7.57461 26.8593C6.79419 27.2894 5.8226 27.8247 5.48257 28.1531C5.2989 28.3293 5.21151 28.5327 5.25657 28.6707C5.30027 28.8011 5.47916 28.8953 5.74954 28.9301C6.23295 28.9916 7.84635 29.0394 9.26995 29.0831C10.5993 29.122 11.8549 29.1602 12.3233 29.208C13.1311 29.2906 18.8295 29.9406 20.3651 30.3974C22.1342 30.9231 22.5964 32.0934 22.8149 33.1681C23.0314 34.2312 22.8497 36.3342 22.7302 37.7257C22.7125 37.9408 22.6954 38.1381 22.6818 38.3088C22.6162 39.1342 22.4517 40.8296 22.3062 42.3235C22.2332 43.078 22.1629 43.7908 22.1219 44.238C22.0051 45.5039 22.0072 48.1599 22.2298 48.9198C22.3281 49.2558 22.4066 49.4585 22.4633 49.5227C22.4954 49.5145 22.5746 49.4845 22.7262 49.3766C23.256 49.0011 24.1627 47.4307 24.8892 46.1689L25.0025 45.973C25.4573 45.1864 26.3148 43.8618 27.1437 42.5809C27.8224 41.5349 28.4615 40.5469 28.8357 39.9229C29.6762 38.5238 31.5449 36.0447 32.6114 34.9181C33.8821 33.5744 35.3821 34.1261 35.9461 34.3343C36.422 34.5105 38.0122 35.0021 39.4133 35.4377C40.1944 35.6794 40.9325 35.9081 41.3592 36.0454C42.5397 36.4257 47.8674 38.3293 48.6547 38.6242C49.4761 38.9328 50.5098 39.0503 50.7406 38.8639C50.7515 38.8557 50.7658 38.8427 50.7556 38.7731C50.6593 38.1394 49.9881 37.374 49.3409 36.6339C49.1715 36.44 48.9954 36.2399 48.8343 36.0454C48.7557 35.9511 48.6595 35.8337 48.5468 35.6965C47.5793 34.52 45.3132 31.7671 43.5004 30.1147C42.3397 29.0557 41.2568 27.9449 40.4497 26.9876C39.3921 25.7306 38.8725 24.8212 38.8623 24.2053C38.8391 22.8561 40.4777 19.94 41.4493 18.431C42.1498 17.3427 43.5086 15.4985 44.6017 14.0162C45.2312 13.162 45.7761 12.4233 45.9598 12.144C46.5968 11.1765 46.8426 10.4138 46.7777 10.2343C46.762 10.2302 46.7245 10.2261 46.6582 10.2329H46.6528C44.8373 10.4015 40.8095 12.4239 39.2501 13.3218C37.7534 14.1828 33.7264 16.3438 32.5329 16.9596C31.2745 17.6096 30.7181 17.1481 30.2702 16.7787C30.1992 16.7193 30.1323 16.6633 30.0626 16.6121L30.0333 16.5868C30.0182 16.5732 28.5004 15.1551 27.1779 13.8912C25.7905 12.5653 22.0475 9.26541 20.9509 8.47611C19.6994 7.57485 17.438 6.16764 16.6221 5.97646C16.4978 5.94778 16.4091 5.93822 16.3463 5.93822H16.3456ZM22.4462 50.2035C22.3786 50.2035 22.3097 50.1925 22.2407 50.1686C21.8795 50.0437 21.7327 49.6333 21.5804 49.1096C21.3251 48.2391 21.3251 45.5162 21.448 44.1759C21.4896 43.7273 21.5559 43.0473 21.6323 42.2586C21.7778 40.7675 21.9416 39.0755 22.0065 38.2562C22.0202 38.0835 22.0372 37.8854 22.0563 37.6676C22.1656 36.3977 22.3486 34.2715 22.1519 33.3026C21.9355 32.2375 21.5163 31.4455 20.1732 31.0474C18.8036 30.6391 13.5455 30.0137 12.2564 29.8826C11.8112 29.8368 10.5099 29.7979 9.25015 29.7597C7.74052 29.7153 6.18037 29.6675 5.66419 29.602C4.92679 29.5077 4.68986 29.1124 4.61408 28.8844C4.48367 28.4877 4.63319 28.0329 5.0135 27.6663C5.41839 27.2764 6.34902 26.763 7.24892 26.2673C7.62172 26.0618 7.97471 25.8679 8.24646 25.7047C8.86096 25.336 10.6164 24.5337 12.1649 23.8263C12.9153 23.4843 13.5639 23.1879 13.9586 22.9975C14.8319 22.5748 16.8461 21.9569 18.4636 21.4605C19.1088 21.2625 19.6666 21.0918 20.0428 20.9655C20.9789 20.6542 20.9195 20.181 20.8506 19.6341C20.843 19.5767 20.8369 19.5207 20.8308 19.4668C20.7789 18.9622 19.8387 15.476 19.3758 14.2668C18.9224 13.0828 17.4817 10.2029 17.1458 9.62933C17.0618 9.48526 16.9232 9.27633 16.7634 9.03394C16.1537 8.11151 15.641 7.3031 15.5488 6.76234C15.4703 6.30215 15.4129 5.78528 15.7447 5.47325C15.9728 5.25886 16.3094 5.20833 16.7771 5.31758C17.8327 5.56543 20.3112 7.18225 21.3463 7.92579C22.5322 8.77927 26.3961 12.2068 27.6456 13.4017C28.8985 14.5986 30.3275 15.9348 30.4818 16.0802C30.5604 16.1383 30.632 16.199 30.7031 16.2564C31.1141 16.5978 31.3626 16.8019 32.2229 16.3581C33.4123 15.7443 37.423 13.5929 38.9121 12.7353C39.9902 12.1153 44.4501 9.75974 46.5879 9.55968C47.0556 9.50984 47.2666 9.73379 47.3499 9.87035C47.5336 10.1701 47.4899 10.6125 47.2113 11.2619C46.9696 11.8258 46.6255 12.3639 46.5258 12.5168C46.3319 12.8104 45.8095 13.5205 45.1466 14.4183C44.0603 15.8925 42.7077 17.7278 42.0188 18.797C40.7734 20.7313 39.5225 23.2064 39.5396 24.1944C39.5532 25.0274 41.3701 27.2566 43.9572 29.6149C45.8048 31.2994 48.0921 34.0796 49.0691 35.2663C49.1804 35.4022 49.2767 35.5183 49.3552 35.6132C49.5102 35.8009 49.6754 35.9887 49.8489 36.1874C50.561 37.0006 51.2977 37.8417 51.424 38.6706C51.4684 38.9629 51.3776 39.2189 51.1666 39.3896C50.4292 39.9884 48.4376 39.2653 48.4171 39.2585C47.6326 38.9649 42.3267 37.0688 41.1509 36.6906C40.7283 36.5547 39.9916 36.3273 39.2125 36.0856C37.8026 35.648 36.2042 35.153 35.7112 34.9713C34.8981 34.6716 33.9517 34.4859 33.103 35.3844C32.0632 36.4837 30.2367 38.9055 29.4167 40.2731C29.0371 40.9067 28.3939 41.8988 27.7132 42.9503C26.8877 44.2244 26.0356 45.5408 25.589 46.3123L25.4764 46.5083C24.6372 47.9633 23.7688 49.4688 23.1181 49.9297C22.9296 50.0635 22.6941 50.2041 22.4462 50.2041V50.2035Z" fill="#171936"/>
</g>
<defs>
<clipPath id="clip0_4450_47747">
<rect width="50.4" height="48.4691" fill="white" transform="translate(2.7998 3.5)"/>
</clipPath>
</defs>
</svg>
