<svg width="56" height="56" viewBox="0 0 56 56" fill="none" xmlns="http://www.w3.org/2000/svg">
<g clip-path="url(#clip0_4450_47741)">
<path d="M51.5626 35.2319C51.5288 35.1526 51.4906 35.0726 51.4488 34.9926C50.8673 33.6102 49.2214 32.0457 46.571 30.3784C44.9096 29.3322 42.8701 28.2611 40.5487 27.2076C40.399 24.79 40.0781 22.3937 39.5349 21.3218C37.9366 18.2523 34.3143 16.6056 32.426 16.1159C30.896 15.7194 27.8654 15.1681 26.2069 15.6167C24.7217 16.0182 23.2204 17.1591 21.744 19.007C21.3255 19.5312 20.9717 20.0172 20.6237 20.5179C18.0585 19.9012 15.685 19.4372 13.6014 19.1502C8.19655 18.4057 5.14759 18.8829 4.53677 20.5671C4.4729 20.6802 4.42224 20.7998 4.38553 20.9268C3.70937 23.293 5.57854 26.3346 9.64799 29.4923C13.6418 32.5911 19.2677 35.4404 25.4889 37.5166C31.7763 39.6141 37.5167 40.7198 42.1125 40.7198C42.1984 40.7198 42.2843 40.719 42.3694 40.7183C47.2053 40.6742 50.3821 39.3652 51.5567 36.9308C51.8129 36.4007 51.8151 35.8288 51.5626 35.2319Z" fill="#FFF9F3"/>
<path d="M9.29687 19.606C6.15981 19.606 5.44621 20.4062 5.28983 20.8379L5.26707 20.9018L5.2333 20.9605C5.19953 21.02 5.17457 21.0802 5.15548 21.1455C4.58357 23.1461 6.39988 25.9572 10.1382 28.8579C14.0623 31.9024 19.603 34.7076 25.7413 36.7552C32.0573 38.8622 37.8109 39.9583 42.3612 39.9158C44.6657 39.8952 46.5731 39.5803 48.0311 38.979C49.3959 38.4166 50.3393 37.6098 50.8356 36.5819C50.992 36.2597 50.9875 35.9293 50.8253 35.5431C50.8018 35.4866 50.7732 35.4271 50.7401 35.3662L50.724 35.3353L50.71 35.303C50.3525 34.4514 49.2704 33.0227 46.1443 31.0559C44.524 30.0362 42.5293 28.9863 40.2174 27.9365L39.7791 27.7375L39.7498 27.2567C39.5831 24.552 39.2447 22.5235 38.8225 21.6873C37.3542 18.8704 33.9852 17.347 32.2261 16.8911C30.3408 16.4029 27.7191 16.0372 26.4175 16.3896C25.1004 16.7457 23.7385 17.7948 22.3715 19.5069C22.011 19.9577 21.6748 20.4106 21.282 20.9752L20.9693 21.4245L20.4377 21.2968C17.8733 20.6801 15.5365 20.2249 13.4933 19.9437C11.7548 19.7044 10.3805 19.6089 9.2976 19.6089L9.29687 19.606ZM42.1123 41.5177C37.4335 41.5177 31.5969 40.3966 25.2355 38.2735C18.9305 36.1694 13.2202 33.2753 9.15738 30.1221C7.05622 28.4908 5.50714 26.8786 4.55494 25.3288C3.53078 23.6622 3.21436 22.1058 3.61595 20.7036C3.6622 20.5391 3.72681 20.3798 3.80756 20.2278C4.23705 19.1303 5.36031 18.4321 7.14799 18.1531C8.73597 17.9049 10.9436 17.9718 13.7114 18.3528C15.665 18.6215 17.8733 19.0444 20.2828 19.6097C20.5691 19.2103 20.8364 18.8572 21.119 18.5033C22.7033 16.5196 24.3449 15.2869 25.9982 14.8398C28.2389 14.2334 32.185 15.2223 32.6277 15.3369C33.2224 15.491 34.7927 15.969 36.521 17.0724C38.2183 18.156 39.4708 19.4599 40.2461 20.948L40.249 20.9554C40.873 22.1844 41.1726 24.6526 41.3165 26.6745C43.5101 27.6876 45.4197 28.7037 46.9974 29.697C49.771 31.4421 51.5117 33.1079 52.1732 34.6467C52.2209 34.7385 52.2628 34.8288 52.301 34.9169C52.6416 35.7237 52.6335 36.5394 52.2782 37.2757C50.9626 40.0031 47.5385 41.4685 42.3766 41.5162C42.2885 41.517 42.2004 41.517 42.1123 41.517V41.5177Z" fill="#FFF9F3"/>
<path d="M9.29721 20.2555C6.83998 20.2555 5.99937 20.7819 5.89805 21.0609L5.87529 21.124C5.86281 21.1585 5.84813 21.1915 5.82978 21.2231L5.79674 21.2818C5.78866 21.2965 5.78279 21.309 5.77765 21.3252C5.29017 23.0328 7.06904 25.6589 10.5357 28.3496C14.4033 31.3501 19.8764 34.1179 25.9465 36.1434C32.2037 38.2314 37.8773 39.3113 42.3556 39.2717C44.5772 39.2511 46.4045 38.9523 47.7848 38.3833C48.9983 37.8834 49.8294 37.1837 50.2537 36.3035C50.3029 36.2021 50.3455 36.0707 50.2295 35.7969C50.2133 35.758 50.1928 35.7147 50.1693 35.6691L50.1531 35.639C50.1443 35.6222 50.1363 35.6045 50.1289 35.5869L50.115 35.5546C49.8521 34.9284 48.9403 33.5805 45.8011 31.6048C44.205 30.6005 42.2367 29.5646 39.9513 28.5265L39.513 28.3283C39.2949 28.2284 39.1496 28.0177 39.1349 27.7791L39.1055 27.2983C38.9462 24.7214 38.6261 22.7355 38.2488 21.9844C36.8832 19.3708 33.719 17.948 32.0642 17.5193C30.2024 17.0369 27.7224 16.7088 26.5866 17.0164C25.4047 17.3357 24.1566 18.3107 22.8769 19.9126C22.5267 20.3517 22.1986 20.7944 21.8139 21.3472L21.5011 21.7965C21.3484 22.0153 21.0783 22.118 20.8191 22.0556L20.2876 21.9279C17.7437 21.3163 15.4289 20.8656 13.4056 20.5866C11.8205 20.3685 10.4381 20.2577 9.29794 20.2577L9.29721 20.2555ZM42.1082 40.566C37.5315 40.566 31.8102 39.4633 25.5375 37.3709C19.3317 35.3006 13.7227 32.4594 9.74284 29.3708C7.82448 27.8819 6.39361 26.4173 5.48839 25.0165C4.5171 23.5137 4.19627 22.1518 4.53472 20.9691C4.56776 20.8546 4.61254 20.7474 4.67127 20.6431L4.68155 20.6196C4.80342 20.2848 5.11617 19.8143 5.92008 19.4685C6.70196 19.1322 7.8377 18.9619 9.29721 18.9619C10.4961 18.9619 11.9372 19.0764 13.581 19.3033C15.6455 19.5874 18.0036 20.047 20.5886 20.6681L20.6906 20.6923L20.7508 20.6057C21.1524 20.0286 21.4967 19.5654 21.866 19.1029C23.3204 17.2814 24.7953 16.1581 26.2489 15.7654C27.8758 15.3249 30.8734 15.8726 32.388 16.2646C34.2513 16.7477 37.8237 18.3694 39.3963 21.3883L39.4007 21.3956C40.0313 22.643 40.2949 25.5781 40.3954 27.2168L40.4013 27.3093L40.4865 27.3475C42.8248 28.409 44.8444 29.4721 46.4904 30.508C49.1136 32.1591 50.7353 33.6884 51.3072 35.0525L51.3131 35.0649C51.355 35.1428 51.3909 35.2184 51.4218 35.2918C51.656 35.8468 51.6552 36.3754 51.4196 36.8644C50.8521 38.0405 49.7956 38.9538 48.2796 39.5785C46.7452 40.2107 44.7571 40.5432 42.3696 40.5645C42.283 40.5653 42.1963 40.566 42.1097 40.566H42.1082ZM9.31042 18.6565C8.53148 18.6565 7.84284 18.7027 7.24817 18.796C5.70423 19.0375 4.74983 19.5999 4.40991 20.4677C4.4011 20.4904 4.39009 20.5132 4.37908 20.5352C4.32034 20.6468 4.27262 20.7643 4.23812 20.8847C3.88939 22.1056 4.18159 23.488 5.10736 24.9937C6.01772 26.4767 7.5154 28.0317 9.55416 29.6145C13.5612 32.7237 19.2032 35.5825 25.4406 37.6631C31.7375 39.7635 37.5029 40.8736 42.1134 40.8736C42.2 40.8736 42.2859 40.8736 42.3718 40.8729C47.2716 40.8281 50.496 39.4882 51.6971 36.998C51.9731 36.4268 51.9761 35.8138 51.7074 35.1758L51.7059 35.1714C51.6758 35.0987 51.6398 35.0238 51.6002 34.9467C51.5928 34.9335 51.5862 34.9188 51.5796 34.9049C50.971 33.4887 49.314 31.9213 46.6541 30.2474C45.1014 29.2695 43.2139 28.2659 41.0466 27.2645C40.833 27.1654 40.6891 26.9584 40.673 26.7234C40.4857 24.0951 40.1311 22.1518 39.6738 21.2517L39.6716 21.2466C38.9521 19.8642 37.7745 18.6433 36.174 17.6213C34.5236 16.5671 33.0311 16.1126 32.4658 15.9665C30.9211 15.5664 27.8575 15.0107 26.1682 15.468C24.6507 15.8784 23.1214 17.0369 21.6252 18.9105C21.347 19.2592 21.0871 19.6021 20.8088 19.9904C20.6561 20.2034 20.3903 20.3025 20.1356 20.243C17.7459 19.6821 15.5552 19.2629 13.6236 18.9971C11.9732 18.7695 10.5306 18.6557 9.31042 18.6557V18.6565ZM42.1126 42.1672C37.3641 42.1672 31.4578 41.0336 25.031 38.8899C18.6585 36.7638 12.8806 33.833 8.76054 30.6365C6.59771 28.9575 4.99724 27.2865 4.00392 25.6706C2.88139 23.8433 2.54074 22.1136 2.99445 20.5293C3.05025 20.3333 3.12587 20.1432 3.21911 19.9611C3.7477 18.6543 5.03542 17.832 7.04774 17.5171C8.69813 17.2594 10.9696 17.3255 13.7998 17.7153C15.658 17.9708 17.7452 18.3643 20.0123 18.8863C20.2127 18.6161 20.4087 18.3614 20.6143 18.1029C22.2867 16.0098 24.0413 14.7023 25.8297 14.2185C28.182 13.582 32.0407 14.5195 32.7903 14.7133C33.4151 14.8748 35.0632 15.3763 36.87 16.5304C38.6636 17.6756 39.9931 19.0625 40.8205 20.6527L40.8264 20.6637C41.3513 21.6988 41.7243 23.5768 41.935 26.2506C44.0097 27.2226 45.8275 28.1976 47.3443 29.152C50.2178 30.961 52.0399 32.7178 52.7601 34.3734C52.8108 34.471 52.8563 34.5694 52.8974 34.6656V34.6678C53.3137 35.6508 53.3012 36.6507 52.8629 37.5596C51.4328 40.5227 47.809 42.1151 42.3843 42.165C42.2947 42.1657 42.2044 42.1657 42.1141 42.1657L42.1126 42.1672Z" fill="#FFF9F3"/>
<path d="M51.3113 36.8103C48.9818 41.6366 38.3674 41.5221 25.5754 37.2544C12.7834 32.9875 3.31716 25.6584 4.64893 20.9994C5.61067 17.6318 18.1347 20.763 30.9274 25.0307C43.7194 29.2984 52.8332 33.6556 51.3113 36.8103Z" fill="#FF693B"/>
<path d="M8.22368 19.8482C7.05123 19.8482 6.17538 19.9987 5.60274 20.3012C5.23052 20.4972 5.00513 20.7505 4.91189 21.0757C4.60868 22.1351 4.90455 23.3744 5.78848 24.759C6.66727 26.1341 8.07832 27.5811 9.9842 29.059C13.9296 32.1211 19.4974 34.9396 25.6622 36.9959C32.0104 39.1147 37.7875 40.2123 42.3643 40.1697C44.635 40.1492 46.5328 39.8437 48.0063 39.2623C49.4966 38.6735 50.5259 37.8087 51.0648 36.692C51.252 36.3044 51.2505 35.8954 51.0589 35.4439C50.4907 34.0982 48.3234 32.4956 44.6167 30.6807C41.2373 29.0267 36.6019 27.2133 30.8409 25.2913C24.5499 23.1923 19.2537 21.6755 15.1028 20.7828C12.208 20.1602 9.90931 19.8489 8.22442 19.8489L8.22368 19.8482ZM42.1125 40.7181C37.5166 40.7181 31.777 39.6125 25.4889 37.515C19.2676 35.4388 13.6418 32.5895 9.64795 29.4906C5.57924 26.333 3.70934 23.2907 4.3855 20.9252C4.51912 20.4561 4.84288 20.0831 5.34798 19.8174C6.15849 19.3901 7.42198 19.2322 9.21186 19.335C10.8072 19.4268 12.8269 19.7337 15.2173 20.2476C19.388 21.144 24.7026 22.6666 31.0134 24.7722C36.7979 26.7023 41.4554 28.5245 44.8567 30.1903C48.739 32.091 50.9326 33.74 51.5618 35.231C51.8144 35.8279 51.8129 36.3998 51.5559 36.9299C50.3813 39.3636 47.2046 40.6726 42.3687 40.7174C42.2835 40.7181 42.1969 40.7189 42.1117 40.7189L42.1125 40.7181Z" fill="#171936"/>
<path d="M8.2252 19.7521C7.03366 19.7521 6.14166 19.9063 5.55727 20.2147C5.16009 20.4239 4.91855 20.697 4.81797 21.0487C4.50742 22.1359 4.80622 23.4016 5.7063 24.8112C6.59096 26.1958 8.00936 27.6509 9.92331 29.1354C13.8782 32.2042 19.4564 35.0292 25.6306 37.0886C31.8732 39.1706 37.5637 40.2682 42.1118 40.2682C42.1977 40.2682 42.2806 40.2682 42.3651 40.2675C47.0196 40.2249 50.0576 39.0032 51.1529 36.734C51.3534 36.3192 51.3512 35.8845 51.1485 35.4051C50.0422 32.7842 43.0302 29.2544 30.8718 25.1981C24.5764 23.0977 19.278 21.5802 15.1226 20.6867C12.2271 20.0642 9.92184 19.7521 8.2252 19.7521ZM42.1125 40.6199C37.5262 40.6199 31.7983 39.5164 25.5198 37.4219C19.3088 35.3501 13.6932 32.5059 9.70747 29.4137C5.67253 26.281 3.81584 23.2761 4.47952 20.951C4.6058 20.5083 4.91341 20.1559 5.39355 19.9026C6.17616 19.49 7.45874 19.3315 9.20604 19.4313C10.7962 19.5223 12.8108 19.8292 15.1968 20.3417C19.3646 21.2381 24.6755 22.7593 30.9827 24.8633C36.7627 26.792 41.4165 28.6127 44.8142 30.2756C48.6208 32.1396 50.8615 33.8186 51.473 35.2671C51.7138 35.8361 51.7124 36.3808 51.4686 36.8852C50.3123 39.283 47.165 40.5736 42.368 40.6169C42.2836 40.6177 42.1984 40.6184 42.1125 40.6184V40.6199Z" fill="#171936"/>
<path d="M51.3154 36.6723C50.2069 39.9951 38.8061 39.86 26.0141 35.5923C13.2221 31.3246 3.67219 24.019 4.78151 20.697C5.89009 17.3742 18.3187 19.57 31.1114 23.8377C43.9034 28.1054 52.424 33.3495 51.3154 36.6723Z" fill="#FFF499"/>
<path d="M51.1463 36.6024C51.8944 34.361 48.2589 31.2445 41.8871 28.1435C39.3689 27.0385 36.4888 26.2457 33.3944 25.2142C20.6031 20.9465 7.76413 18.1193 6.65482 21.4421C5.8054 23.9903 12.4025 28.8681 20.7441 32.9338C22.5861 33.7392 24.6997 34.6716 26.7363 35.3514C39.5282 39.6198 50.0377 39.9252 51.1463 36.6024Z" fill="#FFEA42"/>
<path d="M51.3151 36.6706C52.4237 33.3478 43.9023 28.1037 31.1111 23.836C28.3881 22.9279 25.682 22.113 23.0978 21.4258C20.3469 22.9961 18.0578 24.8426 18.0526 24.847C17.8184 25.0356 20.5877 27.6213 20.9261 27.8761C22.4194 29.0016 23.9861 30.0257 25.61 30.953C28.866 32.8118 32.3393 34.2736 35.9074 35.4166C38.181 36.1442 40.4951 36.7433 42.8305 37.233C44.0161 37.4818 45.2128 37.7322 46.4132 37.8996C46.9043 37.9678 47.3984 38.02 47.8903 38.0838C48.2522 38.1316 49.0826 38.3973 49.4203 38.2696C50.4305 37.8849 51.0876 37.3504 51.3144 36.6713L51.3151 36.6706Z" fill="#FFEA85"/>
<path d="M9.31157 19.3576C6.83525 19.3576 5.35445 19.8399 5.04023 20.7826C4.80163 21.4976 5.15036 22.4924 6.04897 23.6583C6.9696 24.8527 8.4548 26.2043 10.3453 27.5677C14.4573 30.5337 20.2006 33.3638 26.101 35.3321C32.1336 37.3445 38.1552 38.5426 43.0557 38.7041C47.5723 38.8546 50.5639 38.0625 51.0566 36.5846C51.5433 35.1251 49.8481 33.0849 46.2809 30.8398C42.6739 28.5698 37.2559 26.175 31.025 24.0966C24.4551 21.9044 18.2419 20.3399 13.5278 19.6916C11.9076 19.4684 10.495 19.3583 9.31157 19.3583V19.3576ZM44.1393 39.2702C43.7833 39.2702 43.4147 39.2635 43.0366 39.2511C38.0847 39.0866 32.0081 37.8797 25.927 35.8512C22.8355 34.8197 19.8394 33.5834 17.0217 32.1752C14.4206 30.8765 12.0015 29.4368 10.0244 28.0111C5.94104 25.0649 3.93459 22.3676 4.52118 20.6093C5.09456 18.8899 8.15013 18.3988 13.602 19.1491C18.3483 19.8025 24.5968 21.375 31.1976 23.5775C37.4695 25.6699 42.9294 28.0852 46.5716 30.378C50.4274 32.8044 52.1571 35.0113 51.5742 36.7586C51.2709 37.6675 50.3261 38.3436 48.7645 38.7695C47.54 39.1028 45.9887 39.2709 44.1393 39.2709V39.2702Z" fill="#171936"/>
<path d="M18.0909 24.6187C20.0342 21.9904 20.6737 20.7842 21.9592 19.1757C23.244 17.5671 24.6903 16.3088 26.2797 15.8786C27.8692 15.4491 30.8117 15.9777 32.3586 16.3785C33.9054 16.7794 37.6585 18.3064 39.2934 21.4457C40.1627 23.1577 40.4358 28.3872 40.3682 31.4075C40.2603 32.3744 36.7643 32.436 35.2754 32.251C33.7858 32.0668 29.7259 31.196 26.6035 29.9634C23.4819 28.7307 17.5036 25.6098 18.0917 24.6187H18.0909Z" fill="#FFEA42"/>
<path d="M39.2935 21.4466C38.8845 20.6618 38.3435 19.9776 37.7378 19.3866C37.7003 19.3499 37.6622 19.3132 37.6233 19.2772C35.8209 17.5754 33.4943 16.6739 32.3586 16.3795C32.3145 16.3685 32.2698 16.3567 32.2235 16.345C32.2088 16.3413 32.1941 16.3376 32.1787 16.3339C32.1479 16.3259 32.1149 16.3185 32.0833 16.3105C32.0642 16.306 32.0466 16.3016 32.0275 16.2972C31.9959 16.2899 31.9636 16.2818 31.9321 16.2745C31.913 16.2701 31.8953 16.2657 31.8755 16.2613C31.8307 16.251 31.7838 16.24 31.7375 16.2297C31.7089 16.2231 31.6802 16.2172 31.6516 16.2106C31.6296 16.2055 31.6076 16.2011 31.5855 16.1959C31.5532 16.1886 31.5202 16.182 31.4864 16.1746C31.4703 16.171 31.4526 16.1673 31.4358 16.1636C31.2588 16.1262 31.0746 16.0895 30.8844 16.0535L30.8727 16.0513C30.6576 16.0109 30.4358 15.9727 30.2104 15.9375C30.2963 16.0124 30.3822 16.088 30.4667 16.1651C31.1076 16.5366 31.6957 16.9749 32.2338 17.5167C34.4488 19.7456 35.0207 23.2057 34.6279 26.2143C34.3952 28.0012 33.7513 29.689 33.1243 31.3688C33.0671 31.5222 33.0083 31.6749 32.9481 31.8262C33.9348 32.042 34.7578 32.1881 35.2739 32.252C36.7628 32.4363 40.2596 32.3753 40.3668 31.4084C40.4343 28.3881 40.1612 23.1587 39.292 21.4466H39.2935Z" fill="#FFEA82"/>
<path d="M28.8413 15.9597C28.9052 15.9428 28.969 15.9289 29.0329 15.9186C29.0608 15.9127 29.088 15.9061 29.1159 15.901C29.4264 15.843 29.7362 15.7828 30.0483 15.7336C28.7539 15.5501 27.3781 15.4774 26.4582 15.7263C24.8688 16.1565 23.4225 17.4141 22.1377 19.0234C20.8522 20.6326 20.2127 21.8381 18.2694 24.4672C18.0683 24.8063 18.635 25.3937 19.5916 26.0698C19.8978 25.4568 20.2583 24.752 20.3985 24.5369C23.3234 19.2466 25.5178 16.4531 28.7664 15.9737C28.7914 15.9685 28.8163 15.9641 28.8398 15.9597H28.8413Z" fill="#FFF499"/>
<path d="M18.3251 24.7658C18.3229 24.776 18.3251 24.7973 18.3353 24.8274C18.3941 24.9992 18.8001 25.6812 21.5576 27.234C23.169 28.1421 25.1887 29.1149 26.7033 29.7118C29.8462 30.9525 33.8584 31.8034 35.3084 31.9833C36.7238 32.1587 39.3088 32.0721 39.9813 31.5413C40.0481 31.4892 40.087 31.4378 40.0958 31.3893C40.1619 28.3852 39.8756 23.1998 39.0496 21.5722C37.5417 18.6759 34.0911 17.1121 32.2902 16.646C30.8131 16.2627 27.8985 15.7268 26.3509 16.1453C24.9802 16.516 23.575 17.5938 22.1735 19.3491C21.5069 20.1831 21.0268 20.8916 20.4189 21.7887C19.869 22.5992 19.2472 23.5177 18.3258 24.7658H18.3251ZM36.8516 32.611C36.2275 32.611 35.6512 32.5765 35.2408 32.5258C33.7666 32.343 29.6906 31.4789 26.5014 30.2198C24.9663 29.6141 22.9194 28.6289 21.2881 27.7097C19.1965 26.5314 18.0285 25.6203 17.817 25.0036C17.7348 24.7635 17.7928 24.5874 17.8545 24.4816C17.8596 24.4736 17.8648 24.4662 17.8699 24.4589C18.7927 23.2108 19.4153 22.2916 19.9637 21.4811C20.554 20.6097 21.0642 19.8572 21.7433 19.007C23.219 17.1591 24.7211 16.0182 26.2063 15.6167C27.8647 15.1681 30.8961 15.7194 32.4253 16.1159C34.3136 16.6056 37.9359 18.2523 39.5342 21.3218C40.4144 23.0574 40.7103 28.2692 40.6398 31.4165C40.6398 31.4246 40.6391 31.4319 40.6384 31.44C40.6156 31.6419 40.5077 31.8195 40.3175 31.9701C39.703 32.4553 38.1708 32.6102 36.8501 32.6102L36.8516 32.611Z" fill="#171936"/>
<path d="M26.6025 29.9655C29.7249 31.1982 33.7848 32.0689 35.2744 32.2532C36.7633 32.4375 40.2601 32.3765 40.3673 31.4096C40.39 30.409 40.3746 29.166 40.3122 27.8886C38.3021 29.1851 35.2876 28.9429 31.9054 27.976C27.7882 26.7998 23.5022 25.0951 19.9187 22.0352C19.4335 22.748 18.866 23.5703 18.0892 24.6209C17.5012 25.6127 23.4794 28.7336 26.6011 29.9655H26.6025Z" fill="#FF8863"/>
<path d="M19.9206 22.0352C19.4353 22.748 18.8678 23.5703 18.091 24.6209C17.8935 24.9549 18.439 25.5298 19.3692 26.192C19.9294 25.1113 20.4749 24.0189 21.1929 23.0446C20.7604 22.7253 20.3354 22.3898 19.9206 22.0352Z" fill="#FFB59E"/>
<path d="M40.3713 31.2382C40.3713 31.2213 40.372 31.2036 40.372 31.1868C40.3728 31.1434 40.3735 31.0994 40.3735 31.0553C40.3742 31.0385 40.3742 31.0208 40.3742 31.004C40.375 30.9445 40.3757 30.8836 40.3764 30.8234C40.3764 30.7602 40.3764 30.6971 40.3772 30.6332V30.388C40.3764 30.2566 40.3764 30.1222 40.375 29.9864C40.375 29.9747 40.375 29.9637 40.3742 29.9526C40.3742 29.8932 40.3735 29.8337 40.3728 29.7735C40.372 29.7618 40.372 29.75 40.372 29.7375C40.3698 29.5951 40.3669 29.4519 40.364 29.3051V29.2875C40.3625 29.2207 40.361 29.1524 40.3581 29.0849C40.3581 29.0761 40.3581 29.0658 40.3574 29.057C40.353 28.9065 40.3493 28.7552 40.3434 28.6025V28.5981C40.3412 28.524 40.3375 28.4498 40.3353 28.3749V28.3544C40.328 28.1995 40.3214 28.0431 40.3133 27.8867C38.7606 28.8881 36.6087 28.9711 34.15 28.5108C33.9056 29.6509 33.5627 30.7624 33.2632 31.8916V31.8938C33.3909 31.9209 33.5157 31.9459 33.6361 31.9708C33.6449 31.9723 33.6552 31.9752 33.664 31.9767C33.7 31.9841 33.7367 31.9914 33.772 31.998C33.7837 32.0002 33.794 32.0031 33.8057 32.0046C33.8402 32.012 33.8755 32.0186 33.9092 32.0252C33.9188 32.0266 33.9291 32.0296 33.9386 32.031C33.9768 32.0384 34.0135 32.0457 34.0502 32.0523L34.0671 32.0553C34.1104 32.0633 34.153 32.0714 34.1948 32.0788L34.2014 32.0802C34.2396 32.0868 34.2771 32.0942 34.3152 32.1008C34.3255 32.1023 34.3358 32.1052 34.3461 32.1067C34.3747 32.1118 34.4033 32.1162 34.4312 32.1213C34.4437 32.1235 34.4555 32.1265 34.4687 32.128C34.4951 32.1331 34.5201 32.1368 34.5458 32.1419C34.5582 32.1434 34.5693 32.1463 34.5817 32.1478C34.6089 32.1529 34.6368 32.1573 34.6632 32.1617C34.6713 32.1632 34.6801 32.1647 34.6882 32.1661C34.7242 32.1727 34.7594 32.1786 34.7924 32.183H34.799C34.8306 32.1896 34.8614 32.1933 34.8915 32.1984C34.9011 32.1999 34.9121 32.2014 34.9216 32.2036C34.9437 32.2065 34.965 32.2102 34.9863 32.2131C34.998 32.2146 35.0083 32.2161 35.02 32.2183C35.0398 32.2205 35.0589 32.2241 35.078 32.2263C35.0883 32.2278 35.0993 32.2293 35.1096 32.2307C35.1301 32.2337 35.1485 32.2366 35.1683 32.2388C35.1771 32.2403 35.1859 32.241 35.1948 32.2432C35.2227 32.2462 35.2483 32.2498 35.2748 32.2528C36.7637 32.437 40.2605 32.3761 40.3676 31.4092C40.3691 31.3527 40.3698 31.2954 40.3706 31.2374L40.3713 31.2382Z" fill="#FF6738"/>
<path d="M26.6675 29.8031C29.8185 31.046 33.8425 31.8998 35.2961 32.0789C36.5508 32.2346 39.2855 32.214 40.041 31.6172C40.1313 31.5452 40.1812 31.4733 40.1922 31.3969C40.2135 30.4227 40.1988 29.2818 40.1496 28.1571C38.2393 28.9691 35.103 28.9698 31.8632 28.1468C27.1579 26.9509 23.1524 24.9833 19.9551 22.2963C19.4896 22.9791 18.9552 23.7477 18.2386 24.7175C18.2298 24.7352 18.2151 24.7763 18.2438 24.8585C18.6087 25.9267 23.6053 28.5939 26.6675 29.8031ZM36.8709 32.5143C36.2446 32.5143 35.6646 32.4791 35.2528 32.4284C33.7837 32.2463 29.7187 31.3844 26.5383 30.129C23.7698 29.0366 18.3664 26.3019 17.9105 24.9716C17.84 24.7667 17.8877 24.6192 17.9398 24.5311L17.9494 24.5164C18.7232 23.4702 19.2841 22.6582 19.7745 21.9365C19.8024 21.8954 19.8464 21.8675 19.8964 21.8609C19.9463 21.8543 19.9962 21.869 20.0337 21.9013C23.2148 24.6177 27.224 26.6043 31.9498 27.8054C35.2528 28.6453 38.428 28.6167 40.2362 27.7305C40.2891 27.7048 40.3515 27.707 40.4029 27.7371C40.4536 27.7672 40.4859 27.8208 40.4888 27.8803C40.5483 29.0997 40.5673 30.3551 40.5438 31.4138V31.4292C40.5233 31.6039 40.4279 31.7603 40.259 31.8932C39.6636 32.3638 38.1688 32.5136 36.8709 32.5136V32.5143Z" fill="#171936"/>
</g>
<defs>
<clipPath id="clip0_4450_47741">
<rect width="50.4" height="28.166" fill="white" transform="translate(2.7998 14)"/>
</clipPath>
</defs>
</svg>
