<svg width="56" height="56" viewBox="0 0 56 56" fill="none" xmlns="http://www.w3.org/2000/svg">
<g clip-path="url(#clip0_4450_47749)">
<path d="M38.2287 11.3756L36.5926 15.0674L33.1539 13.5413L34.7879 9.85157C34.8136 9.79423 34.8966 9.77331 34.9687 9.80502L38.1039 11.1941C38.2024 11.2373 38.251 11.3257 38.2287 11.3756ZM41.2768 30.4921L44.4133 23.4102C45.4091 21.1636 44.358 18.5115 42.0715 17.4981L39.3479 16.2898L41.3166 11.8465C41.6762 11.0342 41.3146 10.0837 40.5097 9.72676L34.3555 7.00047C33.5101 6.62603 32.5299 6.98225 32.1703 7.79454L30.2036 12.2324L28.8327 11.6239L28.8294 11.6219C27.7425 11.1597 26.5416 11.0066 25.3677 11.0943C24.2363 11.1793 23.0435 11.4215 22.1786 12.2028C21.9472 12.4112 21.7461 12.6514 21.5862 12.9179C21.4007 13.2255 21.2597 13.5615 21.1221 13.886C21.0748 13.9994 21.0256 14.1161 20.9757 14.2281L11.2491 36.1848C10.8167 37.1604 11.1108 38.3026 11.9427 38.9637L11.7376 39.4286C11.3813 40.2321 11.7457 41.176 12.5499 41.5322L12.5782 41.545C13.3824 41.9012 14.3249 41.5369 14.6811 40.7334L14.7398 40.5998L24.689 46.3034L24.6404 46.4133C24.2842 47.2168 24.6485 48.1607 25.4527 48.5162L25.481 48.5284C26.2852 48.8846 27.2277 48.5203 27.5839 47.7168L27.6548 47.5575C27.9044 47.6088 28.1574 47.6459 28.4097 47.6689L29.7826 47.793C29.8656 48.326 30.2104 48.78 30.7103 49.0013L30.7386 49.0141C31.5422 49.3704 32.4867 49.006 32.8415 48.2025L33.1343 47.5427C33.6572 47.2351 34.06 46.783 34.3056 46.2318L38.1511 37.5503C38.842 37.2535 39.3594 36.765 39.6509 36.1322L41.2242 32.7245C41.5386 32.0438 41.5568 31.2544 41.2775 30.4927L41.2768 30.4921Z" fill="#171936"/>
<path d="M38.4093 11.4583L36.6929 15.3301L32.8933 13.6442L34.6076 9.77431C34.6771 9.61644 34.8754 9.551 35.0481 9.62724L38.1833 11.0164C38.3776 11.102 38.4788 11.3004 38.4093 11.4583ZM41.0634 30.489L44.2336 23.3336C45.1849 21.1862 44.1796 18.6508 41.9917 17.682L39.0873 16.3934L41.1362 11.7693C41.452 11.0562 41.1356 10.2223 40.4299 9.90992L39.6878 9.58069L35.3747 7.67006L34.2763 7.18295C33.5301 6.85237 32.6659 7.16339 32.3502 7.8765L30.3039 12.4952L28.7556 11.8084L28.7509 11.8064C27.1614 11.1338 25.0949 11.0548 23.4791 11.6971C22.5946 12.0486 21.9321 12.6463 21.5199 13.4951C20.6347 15.318 19.8744 17.205 19.0533 19.0583C18.3004 20.7591 17.5461 22.4606 16.7926 24.1614C16.0214 25.9013 15.251 27.6406 14.4805 29.3806C13.9205 30.6442 13.3599 31.9078 12.8006 33.1715C12.6569 33.4973 12.5118 33.8232 12.3681 34.149L11.4283 36.2681C11.0087 37.2167 11.3352 38.3171 12.1867 38.9027L11.9161 39.5119C11.6044 40.2162 11.9235 41.0427 12.6279 41.3551L12.6556 41.3679C13.3599 41.6796 14.1864 41.3605 14.4987 40.6561L14.6471 40.3228L24.8453 46.1694C24.877 46.1876 24.9087 46.2045 24.9411 46.2214L24.819 46.496C24.5073 47.2003 24.8264 48.0268 25.5307 48.3391L25.5591 48.3519C26.2634 48.6636 27.0899 48.3445 27.4016 47.6409L27.5372 47.3346C27.8293 47.4013 28.1261 47.4492 28.4264 47.4762L29.9599 47.6145C29.9855 48.1253 30.2898 48.6036 30.789 48.8242L30.8174 48.837C31.5217 49.1487 32.3482 48.8303 32.6605 48.1259L32.979 47.4074C33.4762 47.1295 33.8843 46.6977 34.1238 46.1553L38.0018 37.4022C38.6535 37.1398 39.1818 36.681 39.4712 36.0536L41.0445 32.6459C41.3501 31.9841 41.3548 31.2291 41.0634 30.491V30.489Z" fill="#606CDE"/>
<path d="M33.8877 13.2589L36.3104 14.3343L37.543 11.554L35.1189 10.4799L33.8884 13.2589H33.8877ZM37.0768 16.3218L31.9001 14.0246L33.9194 9.4666C34.1582 8.9289 34.8012 8.69142 35.3537 8.93632L38.4895 10.3254C39.063 10.5798 39.3356 11.2234 39.0981 11.7611L37.0768 16.3225V16.3218ZM14.2983 39.2501L25.2204 45.5122C25.2393 45.523 25.2602 45.5345 25.2845 45.5466L25.9193 45.8712L25.5091 46.7968C25.3654 47.1213 25.5118 47.5025 25.8363 47.6462L25.8653 47.659C26.1898 47.8027 26.5704 47.6556 26.7147 47.3311L27.102 46.4568L27.7078 46.5957C27.9676 46.6551 28.232 46.6976 28.4951 46.7212L30.6804 46.9189L30.7128 47.5727C30.7242 47.8182 30.8713 48.0328 31.0946 48.1313L31.1229 48.1434C31.4475 48.2871 31.828 48.14 31.973 47.8155L32.3927 46.867L32.6126 46.7442C32.9823 46.5377 33.267 46.2267 33.4363 45.8449L37.4377 36.8119L37.7218 36.6978C38.0699 36.5582 38.5374 36.2768 38.7891 35.7317L40.3624 32.324C40.5803 31.8511 40.581 31.3107 40.3644 30.7615L40.2484 30.468L43.5461 23.0239C44.3294 21.2563 43.4962 19.1668 41.6881 18.366L38.0962 16.7718L40.4487 11.4602C40.5958 11.1269 40.4514 10.739 40.1263 10.5946L33.972 7.86834C33.6057 7.70574 33.1881 7.8454 33.041 8.178L30.6891 13.4855L28.4574 12.4951C26.9994 11.8785 25.1549 11.838 23.7597 12.3926C23.0365 12.68 22.5264 13.1469 22.1992 13.8195C21.6143 15.0244 21.0726 16.2867 20.5484 17.5072C20.2873 18.115 20.0167 18.7432 19.7448 19.3591L12.1205 36.5683C11.8513 37.1755 12.0598 37.8947 12.6171 38.2772L13.1318 38.6314L12.609 39.8121C12.4653 40.1366 12.6117 40.5177 12.9362 40.6614L12.9652 40.6743C13.289 40.818 13.6702 40.6709 13.8146 40.3464L14.301 39.2487L14.2983 39.2501ZM25.2548 49.0367L25.2264 49.0245C24.2623 48.5975 23.7671 47.5436 24.0066 46.5532L14.9534 41.3624C14.3685 42.1565 13.2897 42.4682 12.3519 42.0526L12.3236 42.0405C11.2394 41.5601 10.7483 40.2877 11.2286 39.2035L11.2738 39.101C10.4973 38.2651 10.2659 37.0318 10.7402 35.9604L18.3638 18.7512C18.6343 18.1427 18.9015 17.5186 19.1613 16.9148C19.6929 15.6789 20.2421 14.4004 20.8425 13.1644C21.3337 12.1517 22.1277 11.4224 23.2018 10.9954C24.0782 10.6473 25.0962 10.4772 26.144 10.5042C27.1647 10.5305 28.1679 10.7404 29.045 11.1114L29.0612 11.1182L29.92 11.4993L31.6613 7.57014C32.1451 6.47787 33.4546 5.99481 34.5799 6.49338L40.7341 9.21968C41.819 9.70003 42.3081 10.9805 41.8237 12.0728L40.0804 16.0081L42.2966 16.9911C44.863 18.1285 46.041 21.1092 44.9217 23.6364L41.8709 30.5213C42.1226 31.3539 42.0733 32.208 41.7272 32.9575L40.1539 36.3652C39.8382 37.0493 39.2829 37.6086 38.5732 37.9655L34.8113 46.4568C34.5448 47.0592 34.1184 47.5619 33.5706 47.9235L33.348 48.4274C32.8676 49.5116 31.5945 50.0028 30.5104 49.5224L30.482 49.5103C29.9477 49.2735 29.5442 48.8397 29.3445 48.3128L28.3568 48.2237C28.2273 48.2122 28.0971 48.1967 27.9682 48.1778C27.4184 49.0954 26.2546 49.4819 25.2527 49.038L25.2548 49.0367Z" fill="#FFF9F3"/>
<path d="M36.3097 15.03C36.2139 15.03 36.1181 15.0098 36.0284 14.97L33.605 13.8946C33.2542 13.7387 33.097 13.3292 33.2515 12.9784L34.4828 10.1995C34.6386 9.84867 35.0481 9.69012 35.399 9.84597L37.823 10.92C38.1738 11.0752 38.3324 11.4854 38.1765 11.8362L36.9446 14.6165C36.8697 14.7851 36.7314 14.9167 36.5594 14.9828C36.4791 15.0139 36.3941 15.0294 36.3091 15.0294L36.3097 15.03ZM33.6577 8.498L33.5281 8.79013C33.603 8.69905 33.6853 8.61742 33.7757 8.54455L33.6887 8.5061C33.6759 8.5007 33.6651 8.49868 33.657 8.498H33.6577ZM32.8157 13.6733L36.7226 15.4072L38.4626 11.4813C38.5442 11.2972 38.4275 11.0597 38.2076 10.9619L35.0718 9.57273C34.8694 9.483 34.6366 9.56261 34.5536 9.74949L32.8157 13.6726V13.6733ZM27.1013 45.7648C27.1526 45.7648 27.2046 45.7702 27.2572 45.7823L27.8624 45.9213C28.0917 45.9739 28.3252 46.011 28.5579 46.0319L30.7431 46.2296C31.0879 46.2607 31.3571 46.5406 31.3746 46.8867L31.4003 47.3968L31.7585 46.5885C31.8192 46.4509 31.9231 46.3369 32.0554 46.2633L32.2739 46.1406C32.5114 46.0083 32.6936 45.8093 32.8022 45.5658L36.8036 36.5328C36.8771 36.3675 37.0114 36.2373 37.1801 36.1698L37.4627 36.0558C37.6941 35.9627 38.0025 35.7812 38.159 35.4432L39.7323 32.0355C39.8706 31.7353 39.8659 31.3932 39.7188 31.0194L39.6034 30.726C39.5346 30.5526 39.5393 30.3596 39.6142 30.1896L42.912 22.7454C43.2149 22.0627 43.2257 21.2983 42.9443 20.5926C42.6603 19.8815 42.1152 19.3175 41.4075 19.0038L37.8149 17.4096C37.6071 17.3171 37.4668 17.135 37.4196 16.9285C37.3906 16.9447 37.3602 16.9589 37.3292 16.971C37.1571 17.0372 36.9655 17.0324 36.7975 16.9582L31.6209 14.661C31.3348 14.5348 31.1776 14.24 31.212 13.9459C31.1385 14.0295 31.0454 14.0956 30.9401 14.1361C30.7681 14.2022 30.5765 14.1975 30.4085 14.1226L28.1821 13.1349C26.8834 12.5878 25.2494 12.5507 24.0175 13.0405C23.4548 13.2638 23.0763 13.6085 22.8247 14.1253C22.2472 15.3161 21.7081 16.5703 21.1859 17.784L21.1826 17.7928C20.9221 18.3993 20.653 19.0267 20.3797 19.6434L12.7554 36.8525C12.6218 37.1548 12.7291 37.5144 13.0104 37.7073L13.5252 38.0615C13.7532 38.218 13.8625 38.4906 13.8166 38.7531C13.8915 38.6802 13.9833 38.6242 14.0845 38.5911C14.2714 38.5297 14.4758 38.5507 14.6458 38.6485L25.5692 44.9107C25.58 44.9167 25.5921 44.9228 25.6056 44.9295L26.2385 45.2541C26.509 45.3924 26.6507 45.6838 26.6102 45.9705C26.7397 45.839 26.9178 45.7634 27.1047 45.7634L27.1013 45.7648ZM31.3807 48.8959C31.1999 48.8959 31.0164 48.8588 30.841 48.7812L30.812 48.7684C30.3478 48.5626 30.0442 48.1187 30.0192 47.6093L30.0165 47.558L28.4324 47.415C28.1376 47.3887 27.8421 47.3415 27.552 47.2747L27.5048 47.2639L27.3489 47.614C27.0507 48.2887 26.2587 48.5943 25.584 48.2954L25.555 48.2826C24.8804 47.9837 24.5747 47.1917 24.8743 46.517L25.018 46.1918L24.9681 46.1662C24.9316 46.1473 24.9013 46.1311 24.8743 46.1149L14.6215 40.2366L14.4468 40.6293C14.3024 40.9558 14.0393 41.2068 13.7053 41.3356C13.3714 41.4645 13.0084 41.4557 12.6805 41.3107L12.6522 41.2985C12.3257 41.1542 12.0754 40.8904 11.9458 40.5571C11.8176 40.2231 11.8264 39.8595 11.9715 39.533L12.2609 38.8792L12.2204 38.8516C11.3886 38.2794 11.0782 37.202 11.4837 36.2892L19.1073 19.08C19.3779 18.4708 19.645 17.8467 19.9048 17.2436L19.9081 17.2348C20.435 16.0069 20.9815 14.7372 21.5725 13.5181C21.9733 12.6937 22.6223 12.0987 23.5014 11.7492C25.0578 11.1305 27.1081 11.173 28.7259 11.8571L28.7367 11.8618L30.3336 12.5702L32.4035 7.89823C32.7064 7.2148 33.5356 6.91728 34.2514 7.23504L40.4063 9.96134C41.0816 10.2609 41.3845 11.0597 41.0816 11.7431L39.0097 16.4205L41.9674 17.7327C43.0084 18.1935 43.8119 19.026 44.2316 20.0765C44.6532 21.1323 44.6337 22.2792 44.179 23.3068L40.9986 30.4851L41.0074 30.5081C41.2948 31.2387 41.2894 31.9673 40.9892 32.617L39.4159 36.0247C39.0684 36.7763 38.4423 37.1568 37.9782 37.3437L37.9552 37.3525L34.0679 46.1277C33.8371 46.6486 33.4505 47.0723 32.9473 47.3522L32.9311 47.3617L32.6045 48.0984C32.3832 48.5977 31.8921 48.8945 31.3787 48.8945L31.3807 48.8959ZM27.9696 47.4838C28.0034 47.4838 28.0364 47.4865 28.0688 47.4912C28.1862 47.5081 28.3049 47.5223 28.4216 47.5324L29.4093 47.6214C29.6745 47.6457 29.9018 47.8184 29.9963 48.0667C30.1339 48.4297 30.4078 48.7171 30.7661 48.8763L30.7944 48.8884C31.5284 49.2136 32.3907 48.881 32.7152 48.147L32.9385 47.643C32.9925 47.5216 33.0795 47.4184 33.1908 47.3448C33.626 47.0574 33.9673 46.6533 34.1792 46.1763L37.9411 37.6851C38.0065 37.538 38.1199 37.4179 38.2636 37.3457C38.8384 37.0563 39.2755 36.6171 39.5258 36.0747L41.0991 32.667C41.3737 32.0706 41.4122 31.3986 41.2084 30.7219C41.1605 30.5627 41.1713 30.392 41.2381 30.2402L44.2883 23.3553C45.253 21.1782 44.2343 18.6084 42.018 17.6261L39.8018 16.6425C39.451 16.4866 39.2924 16.0771 39.4483 15.7263L41.1916 11.791C41.3508 11.4314 41.3616 11.0313 41.2213 10.6643C41.0823 10.2993 40.8097 10.0113 40.4555 9.85474L34.3013 7.12845C33.9221 6.96113 33.5038 6.94629 33.1233 7.08662C32.7489 7.22492 32.4561 7.49614 32.2989 7.85168L30.5576 11.7809C30.4834 11.9496 30.3451 12.0811 30.1731 12.1472C30.001 12.2133 29.8094 12.2086 29.6414 12.1337L28.7718 11.7478C27.9797 11.4125 27.0636 11.2216 26.1298 11.1973C25.1738 11.1723 24.2509 11.3255 23.4602 11.6399C22.5535 12.0008 21.8835 12.6154 21.47 13.4669C20.8769 14.688 20.3318 15.9577 19.8036 17.1863C19.5425 17.7934 19.274 18.4195 19.0027 19.0321L11.3757 36.2426C11.0202 37.0441 11.1808 37.9812 11.7826 38.6289C11.9728 38.8327 12.0221 39.1295 11.9094 39.3832L11.8642 39.4857C11.5383 40.2191 11.8716 41.0806 12.6056 41.4058L12.634 41.4186C13.2526 41.6932 13.9941 41.4962 14.3955 40.9518C14.6046 40.6677 14.9933 40.5854 15.2995 40.7615L24.3528 45.9523C24.6213 46.1062 24.7549 46.4178 24.6827 46.7181C24.5174 47.4022 24.8642 48.1052 25.5085 48.3905L25.5368 48.4034C26.2074 48.7009 26.9981 48.4506 27.3753 47.8211C27.5021 47.61 27.7288 47.4831 27.9703 47.4831L27.9696 47.4838ZM31.3793 50.4017C30.9948 50.4017 30.6042 50.3234 30.2311 50.1581L30.2027 50.146C29.6428 49.8977 29.1881 49.4882 28.8905 48.9694L28.2962 48.9154H28.2928C27.7463 49.5584 26.9462 49.9166 26.1224 49.9173C25.7365 49.9173 25.3445 49.8384 24.9735 49.6737L24.9451 49.6616C23.8535 49.1785 23.1984 48.0802 23.2551 46.9252L15.083 42.2397C14.2653 42.942 13.0846 43.139 12.0713 42.6897L12.0423 42.6769C10.7085 42.0859 10.0527 40.5874 10.4798 39.2267C9.73901 38.1998 9.58654 36.8525 10.106 35.6807L17.7297 18.4715C17.9982 17.8656 18.266 17.2436 18.5237 16.6418C19.0587 15.3971 19.6113 14.1118 20.2185 12.8617C20.7879 11.6885 21.7061 10.8431 22.9454 10.3506C23.9082 9.96808 25.02 9.7812 26.1629 9.81021C27.27 9.83855 28.3603 10.0673 29.3162 10.4721L29.3372 10.4808L29.3432 10.4835L29.5672 10.5827L31.0265 7.28902C31.3375 6.58737 31.911 6.05304 32.6403 5.78385C33.3628 5.51736 34.1515 5.54367 34.8619 5.85874L41.0162 8.58503C41.7117 8.89268 42.244 9.45534 42.5173 10.1691C42.7892 10.8809 42.7689 11.6574 42.4606 12.3543L40.9973 15.6555L42.5787 16.3571C45.4959 17.6491 46.831 21.0412 45.5573 23.9187L42.6057 30.5796C42.8215 31.4924 42.7365 32.4308 42.3587 33.2499L40.7848 36.6576C40.442 37.4017 39.8531 38.0352 39.113 38.4643L35.4469 46.739C35.1568 47.3947 34.7034 47.9588 34.1286 48.3825L33.9842 48.7097C33.514 49.7702 32.4703 50.4017 31.3793 50.4017Z" fill="#FFF9F3"/>
<path d="M40.3481 10.1462L35.276 7.89895C34.6945 7.64123 34.0131 7.9084 33.7527 8.49602L31.2632 14.1139L32.3022 14.574L34.459 9.70636C34.5859 9.42166 34.932 9.29887 35.2322 9.43245L39.017 11.109C39.3179 11.2426 39.4603 11.5812 39.3341 11.8659L37.1772 16.7329L38.4402 17.2922L40.9283 11.6757C41.1888 11.0887 40.9283 10.404 40.3468 10.1462H40.3481Z" fill="#2F314A"/>
<path d="M35.1715 8.12829C34.7195 7.92792 34.1858 8.13909 33.9827 8.59853L31.5958 13.9864L32.0951 14.2076L34.1494 9.57004C34.3309 9.15917 34.8267 8.97836 35.2525 9.16727L39.1027 10.8728C39.5284 11.0617 39.7275 11.5495 39.5446 11.9604L37.4903 16.5973L38.2911 16.9515L40.6774 11.5643C40.8811 11.1042 40.6794 10.5679 40.2274 10.3675L35.1715 8.12762V8.12829ZM30.9326 14.2427L33.5233 8.39546C33.839 7.68234 34.6702 7.35716 35.3752 7.66953L40.4311 9.90939C41.1361 10.2218 41.4526 11.0556 41.1375 11.7687L38.5468 17.6147L36.8285 16.8536L39.0865 11.7573C39.156 11.5994 39.0724 11.4092 38.8997 11.3322L35.0494 9.62671C34.8767 9.5498 34.6783 9.61592 34.6088 9.77379L32.3508 14.8708L30.9326 14.2434V14.2427Z" fill="#171936"/>
<path d="M39.5045 9.774L34.2557 7.44845C33.6545 7.18196 32.9556 7.44171 32.6952 8.02866L30.207 13.6465L31.2743 14.1188L33.4312 9.25114C33.5567 8.96643 33.9123 8.84769 34.2233 8.98532L38.3717 10.8231C38.6828 10.9614 38.8332 11.3034 38.707 11.5882L36.5502 16.4551L37.635 16.9355L40.1232 11.319C40.3836 10.732 40.107 10.0398 39.5045 9.77332V9.774Z" fill="#4B4C63"/>
<path d="M39.5045 9.774L34.2556 7.44845C33.6545 7.18196 32.9555 7.44171 32.6951 8.02866L32.3423 8.8261C32.5818 8.52183 32.8692 8.35047 33.1768 8.23645C33.8711 7.97873 38.6503 10.1532 39.2805 10.7489C39.5726 11.0255 39.7453 11.464 39.9005 11.8121L40.1231 11.319C40.3835 10.732 40.1069 10.0398 39.5045 9.77332V9.774Z" fill="#8D95E7"/>
<path d="M34.0729 7.64172C33.5804 7.42313 33.013 7.61946 32.8099 8.07957L30.423 13.4681L31.2723 13.8445L33.3274 9.20625C33.5088 8.79539 34.0209 8.62267 34.4682 8.82035L38.3873 10.5569C38.8346 10.7553 39.0512 11.2505 38.8683 11.6613L36.814 16.2983L37.6222 16.6565L40.0092 11.2694C40.2129 10.8099 39.9775 10.258 39.485 10.0395L34.0729 7.64172ZM29.7598 13.7238L32.3505 7.8765C32.6662 7.16339 33.5304 6.85237 34.2766 7.18295L39.6887 9.58069C40.4349 9.91127 40.7844 10.76 40.4693 11.4731L37.8786 17.3197L36.1522 16.5553L38.4102 11.4589C38.4797 11.3011 38.3785 11.1027 38.1842 11.017L34.2651 9.28047C34.0708 9.19478 33.8563 9.2528 33.7868 9.41067L31.528 14.5077L29.7604 13.7244L29.7598 13.7238Z" fill="#171936"/>
<path d="M12.7596 41.134L12.7313 41.1218C12.1538 40.8661 11.8934 40.1901 12.1491 39.6126L13.0146 37.6602L15.1344 38.5993L14.2702 40.5517C14.0145 41.1292 13.3378 41.3903 12.7603 41.134H12.7596Z" fill="#4B4C63"/>
<path d="M13.1425 37.9915L12.3802 39.7132C12.1805 40.1625 12.3849 40.6901 12.8329 40.8891L12.8619 40.9013C13.3112 41.1003 13.8388 40.8965 14.0371 40.4472L14.7995 38.7255L13.1419 37.9908L13.1425 37.9915ZM12.6568 41.3634L12.6291 41.3513C11.9248 41.0396 11.6057 40.2124 11.9174 39.5081L12.8848 37.3242L15.4674 38.4684L14.5 40.6523C14.1883 41.3567 13.3618 41.6758 12.6568 41.3634Z" fill="#171936"/>
<path d="M25.6622 48.119L25.6331 48.1062C25.0556 47.8505 24.7952 47.1745 25.0509 46.597L25.9165 44.6445L28.0369 45.5837L27.1714 47.5361C26.9157 48.1136 26.239 48.3747 25.6622 48.119Z" fill="#4B4C63"/>
<path d="M26.0449 44.9765L25.2825 46.6982C25.0835 47.1476 25.2872 47.6751 25.7366 47.8742L25.7649 47.887C26.2142 48.086 26.7411 47.8823 26.9402 47.4329L27.7032 45.7112L26.0449 44.9765ZM25.5598 48.3484L25.5315 48.3356C24.8271 48.0239 24.508 47.1968 24.8197 46.4925L25.7872 44.3086L28.3704 45.4528L27.4023 47.6367C27.0906 48.341 26.2641 48.6601 25.5598 48.3478V48.3484Z" fill="#171936"/>
<path d="M30.9198 48.6034L30.8914 48.5906C30.3139 48.3349 30.0535 47.6589 30.3092 47.0814L31.1734 45.1289L33.2939 46.068L32.4283 48.0205C32.1726 48.598 31.4973 48.8591 30.9191 48.6034H30.9198Z" fill="#5965DC"/>
<path d="M31.3034 45.4609L30.5403 47.1826C30.3413 47.6319 30.5451 48.1595 30.9944 48.3585L31.0227 48.3714C31.472 48.5704 32.0003 48.3666 32.1993 47.9173L32.9617 46.1956L31.304 45.4609H31.3034ZM30.8176 48.8328L30.7893 48.82C30.0849 48.5076 29.7658 47.6812 30.0775 46.9768L31.045 44.793L33.6276 45.9372L32.6601 48.1211C32.3484 48.8254 31.522 49.1445 30.8169 48.8321L30.8176 48.8328Z" fill="#171936"/>
<path d="M24.1182 11.7227L26.3068 11.7901C27.0765 11.8137 27.8355 11.9797 28.5466 12.2792L41.8893 17.9106C43.9524 18.8248 44.8997 21.2057 44.0024 23.229L33.8933 46.0493C33.4689 47.0066 32.4718 47.5848 31.4112 47.4883L28.4501 47.2205C27.6831 47.151 26.9335 46.9432 26.2386 46.6065L24.5452 45.6526L24.1195 11.7227H24.1182Z" fill="#6571DF"/>
<path d="M31.9041 43.9572C32.2414 42.9296 32.597 41.95 33.0652 40.9806C34.9252 37.1364 36.6213 33.22 38.4152 29.3468C39.4508 27.0988 40.7333 24.9999 41.6704 22.7081C42.1643 21.5929 42.4402 20.2638 41.7285 19.125C41.2893 18.4051 40.7927 17.7629 40.2321 17.2124L28.5456 12.2799C27.8352 11.9797 27.0756 11.8137 26.3058 11.7901L24.1172 11.7227L24.5429 45.6526L26.2363 46.6065C26.9319 46.9425 27.6814 47.151 28.4478 47.2205L29.7654 47.3399C30.7545 46.4129 31.4689 45.2694 31.9027 43.9572H31.9041Z" fill="#6571DF"/>
<path d="M41.8892 17.9099L40.2329 17.2109C40.7935 17.7621 41.2901 18.4037 41.7293 19.1236C42.441 20.2624 42.1651 21.5922 41.6712 22.7067C40.7341 24.9985 39.4516 27.0974 38.416 29.3453C36.6221 33.2186 34.926 37.1356 33.066 40.9791C32.5978 41.9486 32.2422 42.9282 31.9049 43.9557C31.4711 45.2679 30.7566 46.4115 29.7676 47.3385L31.4117 47.4869C32.4723 47.5827 33.4694 47.0052 33.8938 46.0479L44.0029 23.2275C44.9002 21.2049 43.9529 18.8234 41.8898 17.9092L41.8892 17.9099Z" fill="#606CDE"/>
<path d="M26.3531 46.3838C27.0211 46.7063 27.7342 46.904 28.4716 46.9708L31.4326 47.2386C32.3846 47.325 33.2812 46.8062 33.6604 45.9487L43.7708 23.1284C44.6087 21.2359 43.7182 19.0001 41.786 18.144L28.5525 12.2718C27.8725 11.985 27.1546 11.8278 26.4193 11.8035L24.3231 11.9688L24.8129 45.5533L26.3518 46.3852L26.3531 46.3838ZM26.3343 46.9323C26.2648 46.9013 26.196 46.8696 26.1278 46.8365L26.117 46.8311L24.313 45.8562L24.3103 45.7078L23.811 11.5013L26.4213 11.2969C27.2241 11.3218 28.0081 11.4932 28.7509 11.8062L28.7556 11.8083L41.9917 17.6818C44.179 18.6506 45.1849 21.186 44.2336 23.3335L34.1232 46.1538C33.6556 47.2096 32.556 47.8478 31.3868 47.7426L28.4264 47.4747C27.7011 47.4093 26.9988 47.2271 26.3343 46.9323Z" fill="#171936"/>
<path d="M29.7995 47.3417C31.2588 47.0644 31.7641 45.6867 31.7641 45.6867C31.7641 45.6867 40.4267 26.1331 41.6742 23.3164C42.9223 20.4997 42.8623 19.0438 40.2797 17.2053C40.2797 17.2053 38.7259 16.5212 38.7151 16.5314C39.8391 17.3153 42.274 18.7672 40.928 21.8052C39.5814 24.8438 31.1671 44.392 30.7508 45.3312C30.3345 46.2703 29.7388 47.1865 28.687 47.2445L29.7982 47.3417H29.7995Z" fill="#606CDE"/>
<path d="M40.0661 17.3097C41.1192 18.2293 42.0833 19.6467 41.0943 21.8798C40.2287 23.8316 36.4783 32.5246 33.7398 38.8718C32.2461 42.3341 31.0662 45.0692 30.9171 45.4058C30.6533 46.0022 30.2546 46.743 29.6049 47.1424C29.6177 47.1438 29.6298 47.1444 29.642 47.1458C29.6946 47.1505 29.7384 47.1545 29.7695 47.1579C29.7769 47.1586 29.785 47.1593 29.7931 47.1606C31.1154 46.8935 31.5897 45.6393 31.5944 45.6264L31.5991 45.6157L41.5092 23.2453C42.6811 20.6013 42.7573 19.1981 40.1909 17.3657C40.1511 17.3481 40.1093 17.3299 40.0661 17.311V17.3097ZM28.6738 47.4258L28.6785 47.0655C29.4645 47.0216 30.0528 46.465 30.5872 45.2594C30.7356 44.9248 31.9149 42.1904 33.4086 38.7287C36.1477 32.3809 39.8981 23.6872 40.7637 21.7334C41.9788 18.9916 39.9905 17.6268 38.8025 16.8104C38.7364 16.7652 38.6729 16.7221 38.6136 16.6802L38.4321 16.5534L38.5933 16.4009C38.6804 16.3193 38.7694 16.3557 38.8564 16.3908C38.8996 16.409 38.9624 16.4353 39.0373 16.467C39.1843 16.5298 39.38 16.6148 39.575 16.6998C39.9656 16.8698 40.3535 17.0412 40.3535 17.0412L40.3704 17.0486L40.3859 17.0594C41.7224 18.0107 42.4024 18.8749 42.592 19.8612C42.7668 20.7693 42.5488 21.7921 41.8405 23.3904L31.9318 45.756C31.8872 45.8727 31.3414 47.2335 29.8342 47.5202L29.646 47.556L29.6399 47.5081C29.4193 47.4878 28.9734 47.4507 28.6745 47.4258H28.6738Z" fill="#171936"/>
<path d="M38.8879 28.6258L38.6653 28.5273L38.28 29.3956C39.2205 30.1155 39.6118 31.3279 39.1537 32.3608L38.0081 34.9487C37.5494 35.9816 36.3896 36.5065 35.2252 36.2933L34.9067 37.0118L35.1294 37.1103C36.671 37.7931 38.4217 37.2156 39.039 35.8204L40.5597 32.3891C41.177 30.9939 40.4295 29.3093 38.8879 28.6265V28.6258Z" fill="#FF5B29"/>
<path d="M35.0122 36.7238C35.7989 37.0861 36.6483 37.1859 37.4019 37.0031C38.1332 36.8263 38.6858 36.4033 38.959 35.813L40.5323 32.4053C41.1058 31.1639 40.2685 29.5521 38.6662 28.8107L38.4793 29.2155C39.5561 30.1189 39.9649 31.4473 39.4724 32.5146L38.2864 35.0843C37.7939 36.151 36.5167 36.7015 35.1317 36.4681L35.0129 36.7238H35.0122ZM34.8402 37.2655C34.8173 37.2554 34.795 37.2453 34.7721 37.2345L34.2627 36.9997L34.8065 35.8224L35.0298 35.8737C36.2388 36.1503 37.3661 35.7286 37.7729 34.8482L38.959 32.2784C39.3651 31.3987 38.9543 30.2659 37.9605 29.5252L37.777 29.3882L38.3889 28.0625L38.8983 28.2973C40.7846 29.1683 41.7474 31.1174 41.043 32.6421L39.4697 36.0498C39.1236 36.8 38.4361 37.333 37.5334 37.5516C36.6773 37.7587 35.7233 37.6568 34.8389 37.2655H34.8402Z" fill="#171936"/>
<path d="M29.7995 47.3417C31.2588 47.0644 31.7641 45.6867 31.7641 45.6867C31.7641 45.6867 40.4267 26.1331 41.6742 23.3164C42.9223 20.4997 42.8623 19.0438 40.2797 17.2053C40.2797 17.2053 38.7259 16.5212 38.7151 16.5314C39.8391 17.3153 42.274 18.7672 40.928 21.8052C39.5814 24.8438 31.1671 44.392 30.7508 45.3312C30.3345 46.2703 29.7388 47.1865 28.687 47.2445L29.7982 47.3417H29.7995Z" fill="#525FDB"/>
<path d="M40.0661 17.3097C41.1192 18.2293 42.0833 19.6467 41.0943 21.8798C40.2287 23.8316 36.4783 32.5246 33.7398 38.8718C32.2461 42.3341 31.0662 45.0692 30.9171 45.4058C30.6533 46.0022 30.2546 46.743 29.6049 47.1424C29.6177 47.1438 29.6298 47.1444 29.642 47.1458C29.6946 47.1505 29.7384 47.1545 29.7695 47.1579C29.7769 47.1586 29.785 47.1593 29.7931 47.1606C31.1154 46.8935 31.5897 45.6393 31.5944 45.6264L31.5991 45.6157L41.5092 23.2453C42.6811 20.6013 42.7573 19.1981 40.1909 17.3657C40.1511 17.3481 40.1093 17.3299 40.0661 17.311V17.3097ZM28.6738 47.4258L28.6785 47.0655C29.4645 47.0216 30.0528 46.465 30.5872 45.2594C30.7356 44.9248 31.9149 42.1904 33.4086 38.7287C36.1477 32.3809 39.8981 23.6872 40.7637 21.7334C41.9788 18.9916 39.9905 17.6268 38.8025 16.8104C38.7364 16.7652 38.6729 16.7221 38.6136 16.6802L38.4321 16.5534L38.5933 16.4009C38.6804 16.3193 38.7694 16.3557 38.8564 16.3908C38.8996 16.409 38.9624 16.4353 39.0373 16.467C39.1843 16.5298 39.38 16.6148 39.575 16.6998C39.9656 16.8698 40.3535 17.0412 40.3535 17.0412L40.3704 17.0486L40.3859 17.0594C41.7224 18.0107 42.4024 18.8749 42.592 19.8612C42.7668 20.7693 42.5488 21.7921 41.8405 23.3904L31.9318 45.756C31.8872 45.8727 31.3414 47.2335 29.8342 47.5202L29.646 47.556L29.6399 47.5081C29.4193 47.4878 28.9734 47.4507 28.6745 47.4258H28.6738Z" fill="#171936"/>
<path d="M24.9722 45.9463L12.4674 38.7774C11.6173 38.2903 11.2692 37.25 11.6605 36.3675L21.8128 13.4535C22.4901 11.9233 24.2982 11.2399 25.8513 11.928L37.2361 16.9725C38.6306 17.5905 39.2682 19.2056 38.6583 20.5799L27.8226 45.0376C27.3423 46.1217 26.0152 46.5454 24.9715 45.947L24.9722 45.9463Z" fill="#7882E3"/>
<path d="M38.1827 17.6615C36.0522 21.8997 28.8347 38.3283 26.9025 42.4107C26.6549 42.9335 26.4194 43.4125 25.906 43.7735C25.3791 44.1675 25.3872 43.9732 24.8036 43.872C23.8496 43.7236 16.2179 39.4624 13.7142 37.823C13.0733 37.4027 12.4466 37.1436 11.8164 36.7071C11.7402 36.6585 11.6646 36.6086 11.5897 36.558C11.3219 37.3959 11.6774 38.327 12.4675 38.7797L24.9723 45.9486C26.016 46.547 27.343 46.1233 27.8234 45.0391L38.6591 20.5814C39.105 19.5742 38.8824 18.4387 38.1834 17.6602L38.1827 17.6615Z" fill="#6C77E0"/>
<path d="M37.2361 16.9722L25.8512 11.9278C24.2988 11.2403 22.4901 11.923 21.8127 13.4532L11.6605 36.3673C11.3231 37.1276 11.5356 38.0046 12.1442 38.5444C12.4417 37.8117 12.7386 37.0777 13.0347 36.3423C13.5104 35.1799 14.044 34.0849 14.546 32.9319C16.2353 29.0526 21.3067 17.095 22.6021 14.5724C22.9907 13.9605 23.6275 13.497 24.3589 13.3506C24.3555 13.2703 24.454 13.3142 24.4499 13.2339C24.5478 13.2778 24.6247 13.1934 24.6712 13.1752C24.9121 13.1637 25.101 13.0909 25.327 13.1125C25.8964 13.1948 30.0287 15.0804 33.5565 16.6902C35.7309 17.6833 37.7259 18.5097 38.3634 18.9273C38.5604 19.0596 38.7406 19.2309 38.8876 19.4286C38.864 18.3998 38.2508 17.4215 37.2354 16.9715L37.2361 16.9722Z" fill="#8891E6"/>
<path d="M21.8128 13.4562L21.1753 14.8939C22.1077 15.4977 23.4921 15.2501 24.419 14.2631C25.1234 13.5122 25.3784 12.5305 25.1632 11.7176C23.7977 11.4599 22.3924 12.148 21.8128 13.4562Z" fill="#FF754A"/>
<path d="M13.2257 39.2132C13.7627 38.7383 14.119 37.986 14.1399 37.1272C14.1696 35.871 13.4747 34.7908 12.5052 34.4609L11.6605 36.3682C11.2692 37.2513 11.6173 38.291 12.4674 38.7781L13.2257 39.2132Z" fill="#FF754A"/>
<path d="M25.7699 43.0991C24.7552 43.6246 24.1675 44.5941 24.2107 45.511L24.9724 45.9475C26.0161 46.5459 27.3432 46.1222 27.8235 45.038L28.6473 43.1794C27.9024 42.6444 26.7717 42.5803 25.7699 43.0991Z" fill="#FF754A"/>
<path d="M37.7975 17.3066C37.6275 17.2769 37.4521 17.2688 37.2747 17.287C36.0367 17.4118 35.1677 18.7126 35.3357 20.1921C35.497 21.6156 36.5575 22.6849 37.7402 22.6539L38.6577 20.5827C39.1779 19.4095 38.7886 18.0608 37.7969 17.3072L37.7975 17.3066Z" fill="#FF754A"/>
<path d="M21.4999 14.7848C22.3297 15.1821 23.4665 14.9055 24.2343 14.0885C24.8145 13.4705 25.0816 12.6603 24.9535 11.9384C23.7249 11.7778 22.5443 12.4268 22.0437 13.5569L21.4999 14.7848ZM21.3427 15.2699C21.2368 15.2226 21.1356 15.168 21.0377 15.1052L20.8569 14.9878L21.5815 13.3525C21.8824 12.6731 22.414 12.1118 23.0779 11.7731C23.731 11.4398 24.4886 11.3312 25.2098 11.4675L25.367 11.4972L25.4075 11.6517C25.6524 12.5786 25.3441 13.6453 24.6026 14.4353C24.1209 14.9487 23.4969 15.2995 22.8458 15.423C22.3142 15.5242 21.7913 15.4696 21.342 15.2705L21.3427 15.2699Z" fill="#171936"/>
<path d="M12.6372 34.79L11.8924 36.472C11.5524 37.2384 11.8532 38.1363 12.5933 38.56L13.1884 38.9007C13.6182 38.4528 13.8712 37.8152 13.8873 37.1223C13.9123 36.0921 13.407 35.1685 12.6379 34.79H12.6372ZM13.2572 39.5241L12.341 38.9992C11.3763 38.446 10.9836 37.2714 11.4289 36.2675L12.3687 34.1484L12.5873 34.2233C13.6829 34.5964 14.4244 35.7939 14.392 37.1352C14.3704 38.0351 14.0068 38.8623 13.3928 39.4047L13.2572 39.5248V39.5241Z" fill="#171936"/>
<path d="M24.4619 45.3629L25.0974 45.7272C25.538 45.9795 26.0656 46.0348 26.5453 45.8776C27.0202 45.7218 27.392 45.3872 27.5923 44.9345L28.3284 43.2735C27.6423 42.8835 26.7078 42.897 25.8861 43.322C25.0435 43.7585 24.4855 44.5648 24.4619 45.3622V45.3629ZM25.0583 46.2743C24.9861 46.242 24.9153 46.2062 24.8458 46.1664L23.964 45.6611L23.9566 45.5228C23.908 44.4723 24.5732 43.4327 25.6527 42.8741C26.7126 42.3256 27.9452 42.3647 28.7932 42.9739L28.9605 43.094L28.0538 45.1409C27.7981 45.7177 27.3063 46.1617 26.7018 46.3593C26.1621 46.5361 25.5751 46.5037 25.0576 46.275L25.0583 46.2743Z" fill="#171936"/>
<path d="M37.6934 17.5448C37.5612 17.5266 37.4296 17.5239 37.3001 17.5367C36.8434 17.5826 36.4183 17.8221 36.1046 18.2114C35.6931 18.7214 35.5042 19.4325 35.5872 20.1618C35.6965 21.1293 36.2598 21.926 36.985 22.2478C37.1733 22.3315 37.3723 22.3828 37.5774 22.3963L38.4268 20.4782C38.8822 19.45 38.5806 18.2525 37.6934 17.5448ZM36.7867 22.7113C35.8995 22.3187 35.2154 21.3694 35.0852 20.2191C34.9874 19.3562 35.2154 18.5089 35.712 17.8943C36.1114 17.3991 36.6578 17.0934 37.2502 17.0341C37.4452 17.0145 37.6442 17.0219 37.8419 17.0563L37.9026 17.0671L37.9512 17.1042C39.0637 17.9496 39.4496 19.421 38.891 20.684L37.908 22.9016L37.7488 22.9056C37.4141 22.9144 37.0889 22.8449 36.7874 22.7113H36.7867Z" fill="#171936"/>
<path d="M25.7472 12.161C24.325 11.5309 22.6626 12.1577 22.0426 13.5576L11.8917 36.4717C11.5517 37.2381 11.8526 38.1361 12.5927 38.5597L25.0975 45.7293C25.538 45.9817 26.0656 46.037 26.5453 45.8798C27.0202 45.7239 27.392 45.3893 27.5924 44.9366L38.4267 20.4789C38.9786 19.2342 38.3983 17.7654 37.1334 17.2048L25.7472 12.1604V12.161ZM25.0583 46.2758C24.9861 46.2441 24.9153 46.2077 24.8458 46.1679L12.341 38.9989C11.3763 38.4457 10.9836 37.2711 11.4289 36.2673L21.5805 13.3532C22.3138 11.6975 24.2751 10.9554 25.9523 11.6989L37.3385 16.7433C38.8578 17.4166 39.554 19.1849 38.8895 20.6847L28.0538 45.1424C27.7981 45.7192 27.3063 46.1631 26.7018 46.3608C26.1621 46.5376 25.5751 46.5052 25.0577 46.2765L25.0583 46.2758Z" fill="#171936"/>
<path d="M38.1793 25.4249L37.8622 26.1779C37.6929 26.5793 37.9256 27.0401 38.3541 27.1501L40.0286 27.5798C40.3706 27.6675 40.7228 27.4988 40.8631 27.1811L41.1667 26.4956C41.3414 26.103 41.1249 25.6442 40.7073 25.5194L39.0463 25.0229C38.6934 24.9176 38.3203 25.091 38.1793 25.4249Z" fill="#3A3C54"/>
<path d="M40.7148 25.7307C40.6952 25.7213 40.673 25.7138 40.6514 25.7071L38.9904 25.2105C38.7333 25.1336 38.4635 25.2584 38.3609 25.5006L38.0438 26.2536C37.9858 26.3898 37.9912 26.5457 38.058 26.6799C38.1268 26.8183 38.2523 26.9201 38.4028 26.9586L40.0773 27.3883C40.3262 27.4524 40.5812 27.331 40.6831 27.1009L40.9867 26.4155C41.0461 26.2799 41.0447 26.1308 40.982 25.9945C40.928 25.8771 40.8329 25.784 40.7141 25.7314L40.7148 25.7307ZM38.1585 27.2892C37.9622 27.2021 37.8016 27.049 37.7045 26.8547C37.5871 26.6172 37.5776 26.3426 37.6802 26.0997L37.9973 25.3468C38.1781 24.9191 38.6531 24.6978 39.103 24.8321L40.7641 25.3286C41.0191 25.4048 41.2296 25.587 41.3402 25.8279C41.4495 26.0647 41.4522 26.3365 41.3476 26.5734L41.044 27.2588C40.8632 27.6656 40.4159 27.8802 39.9794 27.7682L38.3049 27.3384C38.2543 27.3256 38.2058 27.3081 38.1585 27.2878V27.2892Z" fill="#171936"/>
<path d="M40.0081 26.8637L38.9206 26.5952C38.7161 26.5446 38.6062 26.324 38.6898 26.1344C38.7546 25.9866 38.9185 25.9084 39.0771 25.9475L40.1646 26.216C40.369 26.2666 40.479 26.4872 40.3954 26.6768C40.3306 26.8239 40.1673 26.9028 40.0081 26.8637Z" fill="black"/>
<path d="M31.8511 39.7062L31.534 40.4591C31.3647 40.8612 31.5981 41.3213 32.0259 41.4313L33.7004 41.8611C34.0424 41.9488 34.3946 41.7801 34.5349 41.4623L34.8385 40.7769C35.0132 40.3842 34.7967 39.9255 34.3791 39.8006L32.7181 39.3041C32.3652 39.1989 31.9921 39.3722 31.8511 39.7062Z" fill="#3A3C54"/>
<path d="M34.3865 40.0152C34.3669 40.0057 34.3447 39.9983 34.3231 39.9916L32.6621 39.495C32.405 39.4181 32.1352 39.5429 32.0326 39.7851L31.7155 40.538C31.6575 40.6743 31.6629 40.8302 31.7297 40.9644C31.7985 41.1027 31.924 41.2046 32.0744 41.2431L33.7503 41.6728C33.9992 41.7369 34.2529 41.6155 34.3555 41.3854L34.6591 40.7C34.7191 40.5644 34.7171 40.4153 34.6543 40.279C34.6004 40.1616 34.5052 40.0685 34.3865 40.0159V40.0152ZM31.8309 41.5743C31.6346 41.4873 31.474 41.3348 31.3768 41.1398C31.2595 40.9024 31.25 40.6278 31.3526 40.3849L31.6696 39.632C31.8505 39.2042 32.3254 38.983 32.7754 39.1172L34.4364 39.6138C34.6914 39.69 34.9019 39.8722 35.0126 40.113C35.1219 40.3498 35.1246 40.6217 35.02 40.8585L34.7164 41.544C34.5356 41.9515 34.0876 42.1653 33.6518 42.054L31.9773 41.6242C31.9267 41.6114 31.8781 41.5946 31.8309 41.5736V41.5743Z" fill="#171936"/>
<path d="M33.6805 41.1449L32.5929 40.8764C32.3885 40.8258 32.2785 40.6052 32.3622 40.4156C32.427 40.2685 32.5909 40.1896 32.7494 40.2287L33.837 40.4972C34.0414 40.5478 34.1514 40.7684 34.0677 40.958C34.003 41.1058 33.8397 41.184 33.6805 41.1449Z" fill="black"/>
<path d="M30.117 23.7071C29.9679 24.1659 29.7978 24.6152 29.6204 25.0612C29.445 25.5085 29.2588 25.9504 29.0672 26.3896C28.8756 26.8288 28.6766 27.266 28.4661 27.6971C28.2583 28.1288 28.0404 28.5573 27.8009 28.9755C27.7766 29.0174 27.7233 29.0322 27.6814 29.0079C27.6443 28.987 27.6288 28.9438 27.6416 28.9054C27.7901 28.4466 27.9608 27.998 28.1409 27.5527C28.319 27.1067 28.5099 26.6669 28.7062 26.229C28.9026 25.7918 29.105 25.3567 29.3182 24.9262C29.53 24.4951 29.7486 24.0674 29.9874 23.6491C30.007 23.6147 30.0508 23.6032 30.0853 23.6228C30.1149 23.6397 30.1278 23.6754 30.1176 23.7065L30.117 23.7071Z" fill="#171936"/>
<path d="M27.1075 30.6106C26.9564 31.0687 26.7837 31.5174 26.6056 31.9633C26.5179 32.1866 26.4248 32.4079 26.3324 32.6299C26.2865 32.7405 26.2393 32.8512 26.192 32.9611C26.1441 33.0718 26.0962 33.1811 26.0483 33.2911C25.8547 33.7303 25.6557 34.1668 25.4432 34.5979L25.2839 34.921L25.1193 35.2422C25.0073 35.4547 24.8953 35.6679 24.7719 35.8757C24.7489 35.9135 24.701 35.9263 24.6633 35.9033C24.6309 35.8844 24.6174 35.846 24.6282 35.8116C24.6997 35.5808 24.782 35.3548 24.8643 35.1288L24.9911 34.7915L25.1234 34.4562C25.3008 34.0096 25.4904 33.569 25.686 33.1305C25.7346 33.0212 25.7839 32.9112 25.8345 32.8026C25.883 32.6933 25.9336 32.584 25.9856 32.4761C26.0868 32.2588 26.1893 32.0409 26.2946 31.8257C26.5051 31.3939 26.7223 30.9655 26.9598 30.5452C26.9814 30.5061 27.0313 30.4926 27.0698 30.5142C27.1042 30.5337 27.1183 30.5742 27.1069 30.6106H27.1075Z" fill="#171936"/>
<path d="M24.8773 21.5344C24.6365 22.1976 24.376 22.8514 24.1089 23.5024C23.9766 23.8283 23.8383 24.1521 23.702 24.4766C23.5658 24.8011 23.4248 25.1236 23.2831 25.4461C23.0011 26.0904 22.7123 26.732 22.4121 27.3689C22.1126 28.0057 21.8056 28.6392 21.4764 29.2633C21.45 29.3132 21.388 29.3328 21.338 29.3065C21.2922 29.2822 21.2719 29.2282 21.2895 29.1803C21.5303 28.5171 21.7934 27.8641 22.0647 27.215C22.3338 26.5647 22.6152 25.9197 22.9026 25.2774C23.047 24.9563 23.1913 24.6358 23.3404 24.3167C23.4889 23.9976 23.6353 23.6778 23.7877 23.3607C24.0907 22.7252 24.399 22.093 24.7289 21.469C24.7498 21.4292 24.7997 21.4143 24.8395 21.4352C24.876 21.4541 24.8908 21.4973 24.8773 21.5351V21.5344Z" fill="#171936"/>
<path d="M29.1753 19.872C29.0181 20.3476 28.8407 20.8138 28.6565 21.278C28.5661 21.5101 28.4696 21.7401 28.3745 21.9708C28.2787 22.2016 28.1802 22.4303 28.0803 22.659C27.8806 23.1157 27.6755 23.5698 27.4583 24.0191C27.2424 24.4691 27.0177 24.9151 26.7721 25.3509C26.7438 25.4001 26.6817 25.4177 26.6318 25.39C26.5886 25.3657 26.5698 25.3138 26.5846 25.2679C26.7418 24.7923 26.9219 24.3268 27.1102 23.8653C27.2964 23.4025 27.4954 22.9451 27.6998 22.4903C27.8017 22.263 27.9049 22.0363 28.0115 21.811C28.1181 21.5856 28.224 21.3596 28.3353 21.1363C28.5553 20.6883 28.7813 20.243 29.0269 19.8072C29.0498 19.7681 29.099 19.7539 29.1382 19.7762C29.1726 19.7957 29.1881 19.8369 29.1753 19.8727V19.872Z" fill="#171936"/>
<path d="M23.7108 31.8954C23.5536 32.3711 23.3755 32.8372 23.1906 33.3014C23.1002 33.5342 23.0038 33.7635 22.9086 33.9943C22.8135 34.225 22.7143 34.4537 22.6145 34.6824C22.4155 35.1392 22.2097 35.5932 21.9925 36.0425C21.7772 36.4925 21.5533 36.9385 21.307 37.3743C21.2787 37.4236 21.2159 37.4411 21.166 37.4135C21.1228 37.3892 21.1039 37.3372 21.1188 37.2913C21.2773 36.8157 21.4568 36.3502 21.645 35.8887C21.8312 35.4259 22.0296 34.9685 22.234 34.5138C22.3372 34.2864 22.4404 34.0597 22.547 33.8344C22.6536 33.6091 22.7589 33.383 22.8702 33.1597C23.0901 32.7118 23.3161 32.2665 23.5631 31.8307C23.5846 31.7915 23.6346 31.7774 23.6744 31.7996C23.7088 31.8192 23.723 31.8603 23.7115 31.8961L23.7108 31.8954Z" fill="#171936"/>
<path d="M38.018 19.0411C38.1644 19.5929 38.0693 20.0935 37.8061 20.1583C37.543 20.2238 37.2111 19.8284 37.0647 19.2765C36.9183 18.7247 37.0121 18.2241 37.2752 18.1593C37.5383 18.0945 37.8709 18.4892 38.0173 19.0411H38.018Z" fill="#FFEFA1"/>
<path d="M23.7452 13.1807C23.2689 13.4155 22.8067 13.462 22.7123 13.2839C22.6192 13.1058 22.9302 12.7712 23.4065 12.5357C23.8828 12.3009 24.3463 12.2544 24.4394 12.4325C24.5325 12.6106 24.2215 12.9452 23.7452 13.1807Z" fill="#FFEFA1"/>
<path d="M13.4918 36.3355C13.595 36.7896 13.4999 37.1957 13.2799 37.2423C13.0593 37.2888 12.7962 36.9589 12.693 36.5049C12.5891 36.0508 12.6842 35.6447 12.9048 35.5981C13.1254 35.5516 13.3885 35.8815 13.4918 36.3355Z" fill="#FFEFA1"/>
<path d="M26.4366 43.4931C26.8799 43.3433 27.2901 43.3669 27.3542 43.5457C27.4183 43.7245 27.1113 43.991 26.6667 44.1401C26.2235 44.2899 25.8133 44.2662 25.7492 44.0875C25.6851 43.9087 25.9927 43.6422 26.4366 43.4931Z" fill="#FFEFA1"/>
</g>
<defs>
<clipPath id="clip0_4450_47749">
<rect width="36.2406" height="44.8" fill="white" transform="translate(9.7998 5.60156)"/>
</clipPath>
</defs>
</svg>
