<svg width="56" height="56" viewBox="0 0 56 56" fill="none" xmlns="http://www.w3.org/2000/svg">
<g clip-path="url(#clip0_4450_47754)">
<path d="M47.5999 27.9984C47.5999 33.2339 45.5614 38.1562 41.8595 41.858C38.1576 45.5606 33.2354 47.5992 28.0006 47.5992C22.7659 47.5992 17.8429 45.5606 14.141 41.858C10.4384 38.1562 8.3999 33.2347 8.3999 27.9984C8.3999 22.7622 10.4384 17.8414 14.1403 14.1396C17.8422 10.4377 22.7644 8.39844 27.9999 8.39844C33.2354 8.39844 38.1569 10.4377 41.8588 14.1396C45.5606 17.8422 47.5992 22.7637 47.5992 27.9992L47.5999 27.9984Z" fill="#FFF8EC"/>
<path d="M46.2463 27.997C46.2463 32.8712 44.3484 37.4532 40.9022 40.8993C37.4561 44.3462 32.8734 46.2441 28 46.2441C23.1266 46.2441 18.5439 44.3462 15.097 40.8993C11.6509 37.4532 9.75293 32.8712 9.75293 27.997C9.75293 23.1229 11.6509 18.5417 15.097 15.0948C18.5431 11.6487 23.1258 9.75 28 9.75C32.8734 9.75 37.4561 11.6487 40.9022 15.0948C44.3484 18.5417 46.2463 23.1236 46.2463 27.997Z" fill="#F24E38"/>
<path d="M39.6321 27.9995C39.6321 31.1069 38.4227 34.0277 36.2254 36.2251C34.028 38.4225 31.1071 39.6319 28.0005 39.6319C24.8939 39.6319 21.9716 38.4217 19.775 36.2251C17.5776 34.0285 16.3682 31.1069 16.3682 27.9995C16.3682 24.8922 17.5776 21.9714 19.775 19.774C21.9723 17.5773 24.8932 16.3672 28.0005 16.3672C31.1079 16.3672 34.0287 17.5773 36.2254 19.774C38.4227 21.9714 39.6321 24.8922 39.6321 27.9995Z" fill="#FEB323"/>
<path d="M27.9999 34.3962C26.5508 34.3962 25.1279 34.0108 23.885 33.2808C22.6792 32.5726 21.6694 31.5599 20.9649 30.3519C20.9102 30.2586 20.8534 30.1574 20.798 30.0517C20.6763 29.8215 20.7638 29.5359 20.994 29.4142C21.2242 29.2926 21.5098 29.38 21.6322 29.6102C21.681 29.7035 21.7313 29.7924 21.7794 29.8754C22.4031 30.9457 23.2963 31.8411 24.3629 32.4677C25.4609 33.1125 26.7184 33.4534 27.9999 33.4534C29.2815 33.4534 30.539 33.1125 31.637 32.4677C32.7036 31.8411 33.5968 30.9457 34.2197 29.8776C34.27 29.7916 34.3196 29.702 34.3676 29.6109C34.4893 29.3807 34.7749 29.2926 35.0051 29.4142C35.2361 29.5359 35.3235 29.8215 35.2019 30.0517C35.1479 30.1552 35.0911 30.2565 35.0343 30.3534C34.3305 31.5606 33.32 32.5733 32.1142 33.2815C30.8712 34.0115 29.4483 34.3969 27.9992 34.3969L27.9999 34.3962Z" fill="#151734"/>
<path d="M25.2112 25.0501C25.2112 26.6784 24.6728 27.9986 24.009 27.9986C23.3453 27.9986 22.8076 26.6784 22.8076 25.0501C22.8076 23.4217 23.346 22.1016 24.009 22.1016C24.672 22.1016 25.2112 23.4217 25.2112 25.0501Z" fill="#151734"/>
<path d="M33.1926 25.0501C33.1926 26.6784 32.6542 27.9986 31.9912 27.9986C31.3282 27.9986 30.7891 26.6784 30.7891 25.0501C30.7891 23.4217 31.3275 22.1016 31.9912 22.1016C32.6549 22.1016 33.1926 23.4217 33.1926 25.0501Z" fill="#151734"/>
<path d="M15.1727 23.8142C14.6627 23.608 13.9087 23.2314 13.0519 22.8846C12.7269 22.7534 12.3459 22.6318 12.0785 22.6478C12.0319 22.3942 12.0756 21.9943 12.2475 21.5688C12.4945 20.9582 12.8551 20.7914 13.3207 20.9794C13.8424 21.1899 15.027 21.7735 15.5479 21.9841C16.1257 22.2172 16.337 22.2573 16.506 22.2602C16.514 22.4656 16.4543 22.8066 16.2685 23.2663C16.0419 23.8266 15.6609 24.0117 15.1734 23.8142H15.1727Z" fill="#FFF8EC"/>
<path d="M14.9754 21.0967C14.791 20.7688 14.587 20.5204 14.2657 20.3281C13.9648 20.1481 13.5976 20.0563 13.2086 20.119C13.1437 19.9681 13.1394 19.7044 13.3004 19.4348C13.6071 18.9212 14.1513 18.7398 14.6759 19.0523C15.2573 19.3991 15.548 20.2202 15.1859 20.8279C15.105 20.9626 15.0424 21.045 14.9761 21.0967H14.9754Z" fill="#FFF8EC"/>
<path d="M21.0567 16.6571C21.0968 16.8852 20.9409 17.248 20.5547 17.613C20.1897 17.9576 19.8815 17.9569 19.6039 17.6625C19.4378 17.487 18.8367 16.8407 18.6531 16.5318C18.7748 17.0396 18.9162 17.3471 19.1391 17.7427C19.1049 17.9001 19.0386 18.1033 18.8542 18.2774C18.5511 18.5638 18.3282 18.5827 17.902 18.3955L17.1042 18.0429L17.0998 18.0472C17.5829 18.4975 18.141 18.9922 18.3399 19.2035C18.3785 19.4993 18.2415 19.7951 17.9785 20.0435C17.6266 20.375 17.2791 20.4122 17.0598 20.179L16.0106 19.0585C15.6995 18.7292 15.5946 18.5033 15.6602 18.3175L15.6354 18.2913C15.5305 18.3736 15.4161 18.4902 15.344 18.5995C15.2427 18.5536 15.0882 18.4253 14.9768 18.3066C14.5287 17.8323 14.4952 17.3565 15.1021 16.7839C15.5152 16.3941 15.8263 16.2834 16.2474 16.3511C16.6088 16.4087 17.1545 16.617 17.6659 16.8407C17.4809 16.2841 17.2434 15.6357 17.0204 15.3559C17.0984 15.0331 17.2514 14.7555 17.5989 14.4277C18.0645 13.9876 18.4644 13.9272 18.8834 14.3709C19.2564 14.7665 20.4775 16.1486 20.6101 16.2892C20.7594 16.4473 21.0013 16.6593 21.0574 16.6571H21.0567Z" fill="#FFF8EC"/>
<path d="M27.1096 14.0671C27.2436 14.6747 27.3179 14.8751 27.393 15.0193C27.24 15.1395 26.9668 15.2743 26.5355 15.3683C25.9213 15.5031 25.5548 15.3552 25.4288 14.7825C25.3807 14.564 25.3391 14.2886 25.2962 13.9826C25.1453 14.0277 24.9989 14.0663 24.8517 14.0991C24.7097 14.1305 24.5661 14.1494 24.4204 14.1632C24.4488 14.349 24.4794 14.5151 24.5064 14.639C24.6397 15.2466 24.7148 15.447 24.7898 15.5912C24.6368 15.7115 24.4044 15.8368 23.9738 15.9315C23.3837 16.0612 23.0288 15.9104 22.9028 15.3377C22.7848 14.8007 22.7105 13.9571 22.5123 13.0536C22.4321 12.6879 22.3236 12.2784 22.2041 12.0446C22.3826 11.9003 22.7185 11.7393 23.144 11.646C23.7341 11.5164 23.9978 11.6752 24.1188 12.2238C24.1618 12.4183 24.2091 12.7178 24.255 13.0413C24.3825 13.0012 24.5049 12.9677 24.6346 12.9393C24.7942 12.9043 24.9486 12.8766 25.1133 12.8649C25.0929 12.7455 25.0659 12.6216 25.039 12.4977C24.9639 12.1553 24.859 11.7641 24.7424 11.5419C24.9202 11.3663 25.2634 11.1798 25.7056 11.0829C26.2958 10.9532 26.601 11.1025 26.7212 11.6519C26.8422 12.2005 26.9886 13.517 27.1096 14.0663V14.0671Z" fill="#FFF8EC"/>
<path d="M29.6151 13.8187C29.7113 13.8303 29.8126 13.8486 29.9124 13.8792C29.9073 13.4216 29.8752 12.8883 29.7463 12.6049C29.5649 12.9903 29.406 13.391 29.2712 13.7946C29.3813 13.7961 29.4956 13.8041 29.6159 13.8187H29.6151ZM31.7542 15.4441C31.54 15.552 31.1648 15.6336 30.7444 15.5826C30.1506 15.5097 29.9729 15.3239 29.9262 14.8554C29.7674 14.8605 29.6151 14.8598 29.465 14.8416C29.3091 14.8227 29.1496 14.7848 28.9966 14.7418C28.9587 14.9013 28.9274 15.0624 28.896 15.2103C28.695 15.2649 28.3685 15.2919 28.0502 15.2532C27.5526 15.192 27.3915 14.9655 27.4214 14.7199C27.4673 14.3484 28.0174 12.8388 28.4567 12.3324L28.4582 12.3207C28.3379 12.3062 28.2651 12.3033 28.1871 12.2938C28.1289 12.226 28.1041 12.0279 28.1332 11.794C28.1995 11.2541 28.609 10.9386 29.5088 11.0494C30.163 11.1295 30.7007 11.3598 30.7889 12.0344L30.8792 12.0453C31.5211 12.124 31.5874 13.0209 31.7018 14.8248C31.7083 15.2212 31.7433 15.3778 31.7535 15.4463L31.7542 15.4441Z" fill="#FFF8EC"/>
<path d="M34.9583 14.5351C35.0822 14.2728 34.9357 14.0163 34.5787 13.7948C34.4418 14.0571 34.2866 14.3719 34.1314 14.6866C34.1671 14.7099 34.2108 14.731 34.2494 14.7485C34.5336 14.8826 34.8214 14.825 34.9583 14.5351ZM36.4308 15.2236C35.9718 16.1962 34.8483 16.2545 34.0177 15.8625C33.8924 15.8035 33.7802 15.7438 33.6841 15.6782C33.5529 15.9842 33.4742 16.221 33.4589 16.3536C33.3089 16.4031 32.9584 16.3383 32.6852 16.2093C32.0127 15.8924 31.8845 15.4844 32.1118 15.0028C32.3799 14.4345 32.8105 13.6484 33.0699 13.2834C32.9373 13.2674 32.8098 13.2674 32.6888 13.2703C32.6633 13.1114 32.6939 12.9184 32.7792 12.7384C33.0968 12.0659 33.7992 11.9231 34.8651 12.4259C35.6191 12.7814 36.135 13.2324 36.0279 13.7431C36.4636 13.9821 36.7258 14.6006 36.4322 15.2236H36.4308Z" fill="#FFF8EC"/>
<path d="M38.8424 17.4167C39.042 17.2068 38.9845 16.9176 38.7157 16.5948C38.5029 16.801 38.2559 17.0502 38.0104 17.3001C38.0366 17.3336 38.0716 17.3671 38.1022 17.3963C38.3295 17.6134 38.6209 17.6491 38.8424 17.4167ZM40.0234 18.5336C39.2817 19.3124 38.1969 19.0137 37.5317 18.3798C37.4312 18.2837 37.343 18.1919 37.2731 18.0993C37.0523 18.3485 36.903 18.5489 36.8461 18.6698C36.688 18.6698 36.3762 18.4971 36.1576 18.2888C35.6192 17.7758 35.6265 17.3482 35.993 16.9635C36.4265 16.5081 37.0829 15.8983 37.4443 15.6331C37.3234 15.5763 37.2024 15.5362 37.0858 15.5005C37.1121 15.3417 37.2017 15.1683 37.3394 15.024C37.8523 14.4856 38.5641 14.5716 39.4173 15.3839C40.0212 15.9595 40.3688 16.5497 40.1058 17.0006C40.4438 17.3642 40.4985 18.0345 40.0234 18.5328V18.5336Z" fill="#FFF8EC"/>
<path d="M40.6669 21.7211C40.315 21.8974 39.8662 22.2333 39.6797 22.4693C39.4692 22.3659 39.1821 22.0766 38.9512 21.6657C38.5956 21.0333 38.6328 20.7288 39.0546 20.492C39.3919 20.3025 39.7278 20.1481 39.9172 20.0774C39.7526 19.1303 41.0298 18.7252 41.574 18.0039C41.845 18.1285 42.1146 18.3864 42.2887 18.6975C42.5488 19.1609 42.5714 19.5091 42.2224 19.7882C41.9645 19.9951 41.3802 20.3375 41.1412 20.6654L41.1478 20.6756C41.6957 20.7003 42.6581 20.4031 42.9037 20.1612C43.139 20.3208 43.2985 20.4942 43.4494 20.763C43.6832 21.179 43.7167 21.5972 43.2053 21.8843C42.5998 22.2245 41.1769 22.3578 40.6677 21.7218L40.6669 21.7211Z" fill="#FFF8EC"/>
<path d="M41.1996 25.8951C41.7052 25.85 42.6392 25.7735 43.3969 25.7727C43.3692 25.4594 43.3146 25.1855 43.1718 24.9436C43.2789 24.7826 43.547 24.6617 43.9026 24.6296C44.4264 24.583 44.7637 24.8926 44.814 25.4645C44.8497 25.8682 44.9138 26.9967 44.9561 27.4783C44.9983 27.9541 45.0311 28.1151 45.0595 28.2338C44.9459 28.3898 44.6938 28.4845 44.3805 28.5129C43.9295 28.553 43.5441 28.3868 43.4997 27.887C43.4902 27.785 43.4975 27.6626 43.4953 27.4994C42.7747 27.5089 42.0046 27.5898 41.6316 27.6226C41.3008 27.6517 40.9963 27.7093 40.879 27.7501C40.71 27.6197 40.6371 27.3472 40.605 26.9916C40.5482 26.3534 40.6998 25.9396 41.1996 25.8951Z" fill="#FFF8EC"/>
<path d="M42.3263 31.7265C42.9572 31.8671 43.2887 31.7425 43.3514 31.4591C43.4155 31.1699 43.1663 30.9287 42.5354 30.7888C41.8622 30.6395 41.5496 30.7371 41.4819 31.0438C41.4178 31.3331 41.6546 31.5772 42.327 31.7265H42.3263ZM42.8064 28.8122C43.4906 28.9645 44.0829 29.6159 43.9605 30.3874C44.5579 30.6256 44.6978 31.2755 44.5535 31.9247C44.2774 33.1691 43.2618 33.9217 42.0108 33.6441C40.7009 33.3527 40.0524 32.1192 40.3781 30.6562C40.6535 29.4177 41.5088 28.5237 42.8064 28.8122Z" fill="#FFF8EC"/>
<path d="M39.4312 35.2815C39.8764 35.6728 40.7346 36.5718 41.1893 36.9711C41.4297 37.1824 41.7277 37.4206 42.0002 37.5314C41.9535 37.7397 41.7991 38.0625 41.5113 38.3896C41.0924 38.8661 40.7478 38.9652 40.3572 38.622C40.1846 38.4705 39.9194 38.2053 39.6491 37.927L39.625 37.9539C39.6527 38.3889 39.9529 39.0635 40.3973 39.4373C40.3449 39.6165 40.2429 39.8329 40.0593 40.0413C39.6207 40.5403 39.174 40.5906 38.8068 40.2679C38.3799 39.8927 38.3515 39.2566 38.4804 38.5973L38.4673 38.5856C38.0273 38.4086 37.4911 38.6526 37.3672 38.9951C37.1902 38.9681 36.9694 38.8625 36.7698 38.6869C36.3931 38.3554 36.2459 37.8082 36.6328 37.3682C37.1195 36.8144 37.8699 36.8217 39.0021 37.3186L39.0261 37.2917C38.9023 37.1671 38.7114 36.9908 38.5708 36.8669C38.0987 36.4516 37.9042 36.3533 37.7293 36.3044C37.7854 36.1121 37.9603 35.8396 38.224 35.5402C38.6313 35.0775 39.0283 34.9274 39.432 35.2823L39.4312 35.2815Z" fill="#FFF8EC"/>
<path d="M36.3739 38.7371C36.7411 39.4038 37.2402 40.5229 37.3196 40.7553L37.3283 40.7713C37.4529 40.6963 37.5229 40.6365 37.5462 40.603C37.6161 40.6678 37.7589 40.8514 37.8434 41.0052C38.1174 41.5028 37.9177 41.9297 37.3728 42.2306C36.881 42.5017 36.5801 42.557 36.1349 42.388C35.9185 42.321 35.3131 41.9989 34.704 41.6441C34.7922 41.8168 34.8424 41.9203 34.9911 42.1898C35.128 42.439 35.3707 42.8295 35.5994 43.0066C35.528 43.177 35.3306 43.3825 34.9546 43.5894C34.4148 43.8867 34.0323 43.7803 33.845 43.4415C33.5798 42.9599 33.1755 41.9749 32.7995 41.2922C32.5897 40.9112 32.3974 40.6241 32.2393 40.5382C32.2699 40.2934 32.4433 40.0187 32.8141 39.8147C33.2746 39.5611 33.6439 39.5437 34.1394 39.8161C34.5707 40.0478 35.1849 40.324 35.6067 40.5884L35.6118 40.5855C35.4231 40.1928 34.9262 39.2522 34.6654 39.03C34.7907 38.8435 34.9707 38.6206 35.3153 38.4304C35.6963 38.2206 36.0708 38.1863 36.3739 38.7371Z" fill="#FFF8EC"/>
<path d="M29.4737 42.7239C29.559 43.3651 29.7892 43.6332 30.077 43.5946C30.3706 43.5552 30.5112 43.2383 30.426 42.5972C30.3356 41.9145 30.136 41.6544 29.8249 41.6952C29.5313 41.7338 29.3834 42.0405 29.4737 42.7232V42.7239ZM32.3756 42.1739C32.4674 42.8689 32.0594 43.6485 31.293 43.7993C31.2747 44.4419 30.7123 44.7967 30.0529 44.8849C28.7889 45.0525 27.7332 44.3574 27.5649 43.0875C27.3878 41.7579 28.324 40.7247 29.8096 40.5273C31.0678 40.3605 32.2 40.8559 32.3756 42.1739Z" fill="#FFF8EC"/>
<path d="M20.2835 42.1387C20.6011 41.0357 21.7807 40.2182 22.2914 39.6485C22.6127 39.647 22.8378 39.674 23.2327 39.7876C23.7376 39.9334 23.9606 40.318 23.9263 40.9818C24.0917 40.7778 24.2906 40.5898 24.5004 40.4302C24.88 40.3574 25.2152 40.3727 25.6042 40.4849C26.4516 40.7297 26.8596 41.1683 26.7058 42.2684C26.5441 43.4611 26.5404 44.3026 26.6548 45.0399C26.4231 45.1237 26.0814 45.1514 25.664 45.0304C24.6768 44.7456 24.5187 43.8764 24.9157 42.5001L25.0061 42.1868C25.0979 41.8677 25.0389 41.7876 24.9755 41.7694C24.8713 41.7395 24.6389 41.9996 24.4225 42.7478C24.2615 43.3052 24.1799 43.9609 24.2884 44.4323C24.0436 44.4745 23.683 44.4396 23.4389 44.3696C22.5216 44.1052 22.2703 43.4728 22.62 42.259C22.7103 41.9457 22.8604 41.5989 22.9143 41.4131C22.9617 41.2506 22.9377 41.1807 22.8444 41.1537C22.5952 41.0816 22.2594 41.765 22.0969 42.3282C21.9359 42.8855 21.9257 43.4677 21.9978 43.7839C21.8186 43.8392 21.5701 43.8494 21.2102 43.7452C20.4496 43.5259 20.0547 42.9336 20.2842 42.138L20.2835 42.1387Z" fill="#FFF8EC"/>
<path d="M17.2624 37.1856C17.5604 36.9284 17.9138 36.4934 18.0362 36.2188C18.2657 36.2676 18.6154 36.4781 18.9396 36.8198C19.4387 37.3466 19.4773 37.6511 19.1269 37.9833C18.8456 38.2493 18.5578 38.481 18.3925 38.5961C18.783 39.4747 17.6442 40.1793 17.293 41.012C16.9994 40.9574 16.6752 40.773 16.4304 40.5144C16.0647 40.1283 15.9583 39.796 16.2286 39.4405C16.4282 39.1767 16.9113 38.7024 17.0621 38.3258L17.0541 38.317C16.5164 38.4263 15.6559 38.9509 15.4774 39.2452C15.2108 39.1483 15.0133 39.0194 14.8013 38.795C14.4727 38.4482 14.338 38.0518 14.7642 37.6482C15.2683 37.1703 16.6147 36.693 17.2646 37.1856H17.2624Z" fill="#FFF8EC"/>
<path d="M14.3603 33.7557C13.7738 34.0274 13.5865 34.3276 13.7082 34.5906C13.8328 34.8595 14.1774 34.8995 14.7646 34.6271C15.3897 34.3378 15.5792 34.0697 15.4473 33.7848C15.3227 33.516 14.9861 33.4657 14.361 33.755L14.3603 33.7557ZM15.7482 36.3632C15.1121 36.6583 14.2459 36.4995 13.8743 35.8124C13.2557 35.9858 12.7494 35.5545 12.4696 34.9513C11.9341 33.7943 12.2838 32.5798 13.4459 32.0414C14.6633 31.4774 15.9274 32.0639 16.5576 33.4235C17.0909 34.5746 16.954 35.8037 15.7482 36.3625V36.3632Z" fill="#FFF8EC"/>
<path d="M14.0165 31.1771C13.0883 31.2485 11.9277 31.204 11.4542 31.3556C11.3077 31.1793 11.1576 30.8026 11.1256 30.3931C11.0811 29.8205 11.3303 29.4314 11.8367 29.3928C12.2039 29.3644 13.0708 29.3586 13.5524 29.3214C13.9801 29.2886 14.2249 29.1604 14.2074 28.9375C14.1914 28.7203 13.9276 28.6016 13.1503 28.6613C12.5594 28.7065 11.7332 28.9156 11.3536 29.1021C11.1853 28.9637 10.9893 28.6271 10.9485 28.0967C10.9085 27.5728 11.3055 27.0694 12.4807 26.9791C13.4876 26.9018 14.4318 27.1262 14.6118 27.9728C14.9629 28.0428 15.3396 28.4566 15.4081 29.3484C15.4941 30.4631 15.0271 31.0991 14.0151 31.1771H14.0165Z" fill="#FFF8EC"/>
<path d="M27.9997 16.838C25.0192 16.838 22.2163 17.9986 20.1071 20.1071C18.0001 22.2149 16.8388 25.0177 16.8388 27.999C16.8388 30.9803 18.0001 33.7831 20.1071 35.8909C22.2156 37.9986 25.0184 39.16 27.9997 39.16C30.981 39.16 33.7831 37.9994 35.8916 35.8909C37.9986 33.7831 39.16 30.9803 39.16 27.999C39.16 25.0177 37.9986 22.2156 35.8916 20.1071C33.7831 17.9994 30.9803 16.838 27.9997 16.838ZM27.9997 40.1027C24.7663 40.1027 21.7267 38.8438 19.4405 36.5575C17.155 34.2713 15.896 31.2317 15.896 27.9983C15.896 24.7649 17.155 21.726 19.4405 19.4398C21.7275 17.1535 24.7671 15.8945 27.9997 15.8945C31.2324 15.8945 34.272 17.1535 36.559 19.4398C38.8445 21.726 40.1035 24.7656 40.1035 27.999C40.1035 31.2324 38.8445 34.272 36.559 36.5582C34.2727 38.8445 31.2331 40.1035 27.9997 40.1035V40.1027Z" fill="#151734"/>
</g>
<defs>
<clipPath id="clip0_4450_47754">
<rect width="39.2" height="39.2" fill="white" transform="translate(8.3999 8.39844)"/>
</clipPath>
</defs>
</svg>
