<svg width="56" height="56" viewBox="0 0 56 56" fill="none" xmlns="http://www.w3.org/2000/svg">
<g clip-path="url(#clip0_4450_47744)">
<path d="M51.2278 19.1354L51.2166 19.0989L51.1861 19.077C51.1357 19.0399 50.6833 18.7149 50.4631 18.6651L50.4392 18.6592L50.4213 18.6631C47.9825 17.3333 42.3276 15.829 40.3419 15.3004C37.6855 14.5941 35.8709 14.222 35.4849 14.3042C35.4358 14.3148 35.3224 14.3513 34.8912 14.5456C33.7504 15.0597 31.3382 16.2549 30.7273 16.5798C30.6166 16.6382 30.5138 16.6899 30.4143 16.7397C29.8047 17.0435 29.4015 17.2444 29.4711 18.1352V18.1478L29.4758 18.1604C29.6104 18.6028 29.8472 18.884 30.1795 18.9981C30.7598 19.1951 31.4251 18.8144 31.7693 18.5689C32.1726 18.2837 32.6614 17.8752 33.18 17.4421C33.645 17.0534 34.1265 16.6515 34.5324 16.3537C35.2567 15.8204 36.0858 15.6977 36.8047 16.0174C36.9513 16.0824 37.2471 16.2124 37.6305 16.3822C38.9822 16.9778 41.4986 18.0861 42.2746 18.4542C42.9252 18.7633 44.5058 19.4935 45.5126 19.9591C44.4129 20.3 43.1965 20.698 42.2872 21.0389C40.4301 21.736 38.1777 22.9962 37.3818 23.5944C37.2093 23.7238 37.0117 23.879 36.8014 24.0421C36.1382 24.5621 35.3117 25.2081 34.8939 25.3428C34.293 25.5371 32.0392 25.9437 31.5053 25.8608C31.2533 25.8216 30.8898 25.7069 30.468 25.5736C29.946 25.4091 29.3537 25.2214 28.7276 25.0947C25.6893 24.4732 22.436 24.513 18.1792 25.2181C15.7729 25.6173 13.439 26.1619 12.1078 26.6076C10.6155 25.3892 7.45177 22.3853 6.86147 21.6571C6.61739 21.3553 6.4151 21.0561 6.23735 20.7908C5.95679 20.3757 5.75516 20.0759 5.54027 19.9876C5.4169 19.9372 5.3068 19.9114 5.204 19.9094H5.19073C4.91217 19.9094 4.57125 20.0891 4.49896 20.9295C4.4061 22.0092 4.86242 24.0965 5.30017 24.5906C5.49251 24.8088 5.68685 24.9143 5.87919 24.9077C6.09806 24.8984 6.23934 24.7412 6.28974 24.6742C6.35939 24.5807 6.38194 24.3936 6.37464 24.1794C7.36621 26.0849 9.63785 29.7567 11.2582 30.5301C11.6044 30.804 12.3426 31.2106 12.7651 31.4049C12.8951 32.2068 14.0783 36.0032 14.4716 37.0187C15.048 38.5084 16.4395 41.1229 19.2816 41.8996H19.2862C20.3401 42.1443 21.3144 42.2663 22.2284 42.2663C22.8631 42.2663 23.468 42.208 24.0497 42.0899C25.2197 41.8551 26.3452 41.3836 27.7022 40.5611C29.5593 39.4356 30.9031 37.922 31.8084 35.9343C32.4299 34.5719 32.8298 32.425 32.9366 31.7989C32.9459 31.7465 32.9545 31.6914 32.9645 31.635C33.0421 31.1668 33.1389 30.5851 33.4002 30.2469C33.7504 29.8708 34.0993 29.7116 34.4064 29.7866C34.8123 29.8854 35.1599 30.3802 35.3834 31.1814C35.9511 33.2116 36.8671 34.7729 38.1067 35.8202C39.1255 36.6817 40.2211 37.1241 41.4581 37.1719C42.707 37.221 43.9944 36.9019 45.179 36.2493C47.3153 35.0727 48.7499 33.7807 49.7647 30.6594C50.749 27.633 50.745 25.0065 50.743 23.8836V23.7576C50.743 22.6997 51.0534 22.1074 51.4282 21.4959L51.4374 21.4793L51.4421 21.4614C51.661 20.5236 51.2431 19.1911 51.2245 19.1347L51.2278 19.1354Z" fill="#171936"/>
<path d="M30.3967 17.9692C30.4351 18.0647 30.4696 18.1059 30.4809 18.1145C30.5519 18.1384 30.8271 18.0946 31.2304 17.8081C31.6038 17.5428 32.0793 17.1468 32.5841 16.7256C32.6226 16.6938 32.6617 16.6613 32.7002 16.6288C32.0197 16.9651 31.426 17.2642 31.166 17.4021C31.0453 17.4665 30.9386 17.5202 30.8338 17.5726C30.6766 17.6502 30.469 17.7537 30.4086 17.81C30.4046 17.8279 30.3953 17.8764 30.3973 17.9692H30.3967ZM19.5147 40.9974C20.5016 41.2242 21.3897 41.335 22.2314 41.335C22.7991 41.335 23.3503 41.2813 23.8703 41.1771C24.9281 40.9649 25.9615 40.5291 27.2223 39.7651C28.915 38.7397 30.138 37.3608 30.9638 35.5488C31.4194 34.5473 31.8087 32.8745 32.0216 31.6415C32.0309 31.5918 32.0396 31.5381 32.0482 31.4844C32.143 30.9126 32.2604 30.201 32.6663 29.6783L32.6922 29.6438L32.722 29.6133C33.512 28.7663 34.2555 28.7909 34.6289 28.8817C35.1595 29.0097 35.8758 29.4694 36.285 30.9319C36.8017 32.779 37.6182 34.1845 38.7126 35.109C39.5781 35.8413 40.4635 36.2014 41.4969 36.2412C42.5773 36.2837 43.6962 36.0038 44.7322 35.4334C46.7101 34.343 47.957 33.2135 48.8816 30.3721C49.8187 27.4869 49.8161 24.9639 49.8141 23.8861V23.7588C49.8141 22.541 50.1709 21.7869 50.5589 21.1369C50.6193 20.7151 50.5224 20.1082 50.4137 19.6784C50.3871 19.6612 50.3613 19.6446 50.3374 19.6307L50.2744 19.6433L49.9766 19.4814C47.6353 18.2053 41.9658 16.6978 40.1034 16.2023C39.6 16.0683 39.147 15.9516 38.7384 15.8501C40.1273 16.4616 42.0169 17.2987 42.6781 17.6124C43.3354 17.9241 44.983 18.6862 45.9069 19.112L48.1128 20.1308L45.7915 20.8497C44.5253 21.2424 43.3978 21.6191 42.6171 21.9123C40.8635 22.5696 38.6781 23.7906 37.9432 24.3404C37.7794 24.4631 37.587 24.6144 37.3821 24.7742L37.3781 24.7782C36.4296 25.5197 35.7173 26.0589 35.182 26.2314C34.5944 26.4211 32.145 26.9052 31.363 26.7825C31.0427 26.7328 30.6474 26.6081 30.1897 26.4635C29.6903 26.3057 29.1226 26.1266 28.5455 26.0085C25.6232 25.4123 22.4741 25.4527 18.3341 26.1385C16.0664 26.5146 13.7397 27.0472 12.4059 27.4929L11.9184 27.6567L11.5191 27.3311C10.314 26.3468 7.99262 24.1826 6.78682 22.9483L7.20401 23.7495C8.50134 26.242 10.5236 29.1464 11.6624 29.6896L11.7559 29.7347L11.8382 29.7997C12.1002 30.0066 12.7621 30.378 13.1554 30.5584L13.6071 30.7654L13.6867 31.2555C13.8014 31.9579 14.9442 35.6536 15.3428 36.6829C15.8548 38.0055 17.0779 40.3229 19.514 40.9967L19.5147 40.9974ZM22.2307 43.2001C21.2411 43.2001 20.2098 43.0727 19.0776 42.8107L19.0371 42.8015C15.8011 41.9173 14.2438 39.011 13.6031 37.3568C13.2748 36.5098 12.2965 33.4363 11.9522 32.0441C11.5589 31.8385 11.088 31.5666 10.7644 31.3265C9.08566 30.4497 7.18743 27.4836 6.2078 25.7989C6.11428 25.8228 6.01612 25.8374 5.91796 25.8414C5.58368 25.8546 5.08491 25.7565 4.60406 25.2113C3.8957 24.4114 3.47254 22.0011 3.57203 20.8511C3.72126 19.1127 4.85012 18.978 5.19236 18.978C5.20297 18.978 5.21425 18.978 5.22486 18.9787C5.44506 18.9833 5.66393 19.0311 5.89674 19.1273C6.37163 19.3223 6.65417 19.7408 7.011 20.2714C7.17947 20.5214 7.36982 20.8026 7.58737 21.0726C8.08614 21.6881 10.7445 24.2264 12.315 25.5668C13.7722 25.1264 15.8946 24.6548 18.0277 24.3006C22.4031 23.575 25.7605 23.5386 28.9156 24.1826C29.5895 24.3192 30.2057 24.5135 30.7509 24.686C31.0991 24.7961 31.4592 24.9102 31.6443 24.9394C32.0575 24.9758 34.0651 24.6329 34.6097 24.4572C34.8889 24.3583 35.7936 23.65 36.228 23.3097L36.232 23.3071C36.4442 23.1413 36.6445 22.9847 36.8236 22.8508C37.648 22.2326 39.9515 20.922 41.9618 20.1679C42.2775 20.0492 42.6204 19.9278 42.966 19.8091C42.5183 19.6002 42.1296 19.4184 41.8769 19.299C41.1149 18.9369 38.6131 17.8352 37.2693 17.243L37.2567 17.2383C36.872 17.0679 36.5749 16.9379 36.4276 16.8715C36.0171 16.6898 35.5415 16.7727 35.0865 17.107C34.7045 17.3875 34.2349 17.7802 33.7799 18.1589C33.246 18.6053 32.7433 19.0245 32.3108 19.3315C31.4638 19.9325 30.6003 20.1281 29.8793 19.882C29.4449 19.7335 28.8679 19.3614 28.5853 18.4328L28.5515 18.3234L28.5429 18.2106C28.4905 17.5461 28.6318 17.0254 28.9753 16.6182C29.2685 16.2706 29.6399 16.0862 29.9987 15.9072C30.0956 15.8594 30.1924 15.8117 30.2906 15.7586C30.9087 15.4296 33.3528 14.2185 34.5088 13.6979C34.9884 13.4816 35.1529 13.4239 35.2902 13.3954C35.5402 13.3417 36.1239 13.2163 40.5816 14.4022C42.6636 14.9567 48.1341 16.4112 50.7314 17.7736C50.9967 17.8485 51.3336 18.0342 51.7336 18.3247L52.0121 18.527L52.1162 18.8553C52.2031 19.1259 52.621 20.5354 52.3537 21.6768L52.3146 21.8413L52.2257 21.9859C51.8954 22.5258 51.6785 22.941 51.6785 23.7608V23.8868C51.6805 25.0528 51.6845 27.7834 50.6551 30.9511C49.5495 34.3509 47.9139 35.8127 45.6316 37.0696C44.2985 37.8045 42.844 38.1627 41.4246 38.1083C39.9727 38.0519 38.6907 37.5379 37.5081 36.5364C36.1239 35.3664 35.1084 33.6505 34.4889 31.4366C34.3915 31.0891 34.2853 30.8808 34.2097 30.7694C34.1845 30.7893 34.156 30.8151 34.1235 30.8476C34.0154 31.0287 33.9305 31.5394 33.888 31.7921C33.8788 31.8498 33.8688 31.9068 33.8595 31.9606C33.7163 32.7989 33.309 34.9008 32.661 36.3241C31.6741 38.4883 30.2116 40.1365 28.1887 41.3615C26.7348 42.243 25.5165 42.7504 24.2364 43.0077C23.597 43.1357 22.9225 43.2014 22.2314 43.2014L22.2307 43.2001Z" fill="#FFF9F3"/>
<path d="M30.5265 18.8787C30.4277 18.8787 30.3315 18.8654 30.2373 18.8336C30.1703 18.8104 30.1073 18.7792 30.049 18.7387C29.8971 18.6326 29.7797 18.4728 29.6908 18.2466C29.6583 18.163 29.6411 18.0755 29.6391 17.9859C29.6351 17.846 29.647 17.7273 29.6736 17.6238C29.7087 17.4839 29.7837 17.3565 29.8891 17.2583C30.0211 17.135 30.2062 17.0381 30.4953 16.8949C30.5948 16.8451 30.6976 16.7941 30.8104 16.7344C31.0797 16.5911 31.6759 16.29 32.365 15.9504C32.7086 15.78 33.1258 15.8947 33.3354 16.2164C33.545 16.5381 33.4806 16.9658 33.1862 17.2119L33.0694 17.3088C32.5547 17.7392 32.0672 18.1451 31.67 18.4277C31.4113 18.6114 30.9596 18.8787 30.5272 18.8787H30.5265ZM19.7015 40.2633C20.6241 40.4749 21.4512 40.5784 22.2305 40.5784C22.7485 40.5784 23.2493 40.5306 23.7202 40.4358C24.6879 40.2414 25.6469 39.8348 26.8289 39.1185C28.3862 38.1747 29.5131 36.9046 30.2731 35.2352C30.7003 34.2993 31.079 32.6458 31.2747 31.5143C31.2833 31.4652 31.2919 31.4148 31.3005 31.3624C31.4027 30.7403 31.5446 29.89 32.0672 29.2155L32.0931 29.181C32.1077 29.1631 32.1216 29.1458 32.1382 29.1293L32.1667 29.0974C33.2591 27.9261 34.378 28.0429 34.8078 28.1457C35.5341 28.3221 36.5071 28.913 37.0151 30.7284C37.49 32.4276 38.2262 33.707 39.2012 34.5321C39.9414 35.1569 40.6577 35.4507 41.5259 35.4846C42.4691 35.5217 43.4507 35.275 44.366 34.7702C46.2145 33.7515 47.3095 32.7566 48.1604 30.1387C49.0605 27.3683 49.0572 24.9295 49.0552 23.8882V23.7609C49.0552 22.4629 49.4113 21.6119 49.8179 20.9029C49.8226 20.7232 49.8007 20.4818 49.7549 20.2264L49.613 20.1481C49.3642 20.0135 49.0757 19.8755 48.7574 19.7356C48.8376 19.8669 48.8781 20.0208 48.8675 20.182C48.8462 20.495 48.6347 20.763 48.3355 20.8558L46.0155 21.5755C44.7626 21.9635 43.6503 22.3356 42.8829 22.6234C41.2175 23.2475 39.0798 24.4361 38.3973 24.9481C38.2395 25.0668 38.0498 25.2154 37.8495 25.3719L37.8435 25.3759C36.8022 26.1917 36.07 26.7415 35.414 26.9531C34.8821 27.1242 32.243 27.6893 31.2455 27.5321C30.8674 27.4731 30.4469 27.3398 29.9608 27.1866C29.4772 27.0347 28.9307 26.8623 28.3928 26.7522C25.5654 26.1751 22.5011 26.2169 18.4573 26.8881C16.2254 27.2576 13.9438 27.7782 12.6452 28.2126L12.1577 28.3751C11.911 28.4587 11.639 28.4083 11.4381 28.2438L11.0401 27.9182C10.8378 27.7537 10.6097 27.56 10.3623 27.3458C11.0195 28.2053 11.6112 28.8255 11.9886 29.0052L12.0834 29.0503C12.1338 29.0755 12.1822 29.1047 12.226 29.1405L12.3083 29.2049C12.4999 29.3561 13.0982 29.699 13.4723 29.8701L13.9233 30.0777C14.1528 30.1832 14.3146 30.3954 14.3551 30.6441L14.4353 31.1343C14.5341 31.7405 15.6358 35.338 16.0503 36.4091C16.51 37.595 17.5931 39.6704 19.7022 40.262L19.7015 40.2633ZM22.2305 42.0945C21.3305 42.0945 20.3867 41.9778 19.3447 41.7364C19.3341 41.7344 19.3228 41.7318 19.3122 41.7284C16.5557 40.9664 15.1994 38.4115 14.6363 36.9576C14.2516 35.9641 13.0683 32.1756 12.939 31.379L12.9238 31.2868L12.8395 31.2477C12.4575 31.0726 11.714 30.6673 11.3684 30.3948L11.3532 30.3835L11.3359 30.3749C9.83232 29.6572 7.63894 26.2295 6.53065 24.0998L6.11412 23.2986C5.94101 22.9656 6.03785 22.5551 6.34162 22.3349C6.64605 22.1147 7.06589 22.1498 7.32854 22.4191C8.47133 23.5898 10.7602 25.7347 11.9978 26.7449L12.0728 26.8059L12.165 26.7754C13.5326 26.3171 15.9057 25.7739 18.2086 25.3925C22.4441 24.6901 25.6788 24.6516 28.6953 25.2671C29.3108 25.3925 29.8977 25.5775 30.4151 25.7407C30.8449 25.8767 31.2143 25.9934 31.4796 26.0345C32.044 26.1227 34.3197 25.7142 34.9484 25.5112C35.3961 25.3666 36.2358 24.71 36.9097 24.1814L36.9143 24.1774C37.1199 24.0169 37.3156 23.8637 37.4867 23.735C38.2753 23.1434 40.5065 21.8945 42.349 21.2034C43.1423 20.9056 44.2857 20.5229 45.5651 20.1263L45.9989 19.9916L45.5864 19.8013C44.6624 19.3755 43.0136 18.6127 42.351 18.2977C41.6141 17.9481 39.2185 16.8916 38.4305 16.5453C38.0704 16.3862 37.8919 15.9789 38.0186 15.6062C38.146 15.2341 38.5373 15.0205 38.9193 15.1154C39.3451 15.2215 39.8088 15.3415 40.2956 15.4715C42.1805 15.973 47.9157 17.4991 50.3366 18.8177L50.4613 18.8846C50.5541 18.8999 50.6443 18.9337 50.7266 18.9835C50.7551 19.0007 50.7856 19.0199 50.8188 19.0398C50.9826 19.144 51.1 19.3071 51.1471 19.4948C51.2267 19.8079 51.3998 20.6045 51.3076 21.2465C51.293 21.346 51.2598 21.4415 51.2081 21.5277C50.8857 22.0683 50.5707 22.6858 50.5707 23.7609V23.8869C50.5714 24.9998 50.5753 27.6078 49.601 30.6077C48.6035 33.6745 47.1947 34.944 45.0962 36.0987C43.9388 36.7361 42.684 37.0485 41.4669 37.0001C40.2538 36.953 39.2231 36.5371 38.2209 35.6895C37.0098 34.6654 36.1124 33.134 35.5533 31.1369C35.3119 30.2727 34.9199 29.7335 34.4497 29.6201C34.1903 29.5571 33.7751 29.5942 33.275 30.1314L33.2644 30.144C32.9766 30.5155 32.8797 31.0971 32.7942 31.6105C32.7849 31.6662 32.7763 31.7206 32.7676 31.7723C32.6602 32.3925 32.2629 34.5222 31.6514 35.8646C30.7613 37.8199 29.4401 39.3089 27.6142 40.4152C26.2751 41.227 25.1654 41.692 24.018 41.9228C23.4483 42.0368 22.8474 42.0952 22.2299 42.0952L22.2305 42.0945ZM19.2558 42.074C20.329 42.322 21.3026 42.4428 22.2305 42.4428C22.8706 42.4428 23.496 42.3824 24.0863 42.2637C25.2762 42.0256 26.4196 41.5467 27.7952 40.713C29.6828 39.5689 31.0485 38.0301 31.9697 36.0085C32.5826 34.6654 32.9719 32.6399 33.1119 31.8314C33.1212 31.7776 33.1298 31.7232 33.1397 31.6669C33.2352 31.0925 33.3208 30.7098 33.4747 30.4551C33.5052 30.4027 33.5437 30.3543 33.5854 30.3125C33.6325 30.2654 33.679 30.2223 33.7254 30.1845C33.7619 30.154 33.8017 30.1268 33.8428 30.1042C33.9728 30.0008 34.1366 29.9398 34.3144 29.9398H34.315C34.7335 29.9398 35.0731 30.2787 35.0731 30.6979C35.0731 30.7297 35.0711 30.7602 35.0671 30.7907C35.1215 30.926 35.1726 31.0733 35.2164 31.2318C35.7947 33.2965 36.7286 34.8863 37.9954 35.9561C39.0453 36.8442 40.1762 37.2999 41.4516 37.349C42.733 37.3994 44.0516 37.0724 45.264 36.4052C47.4388 35.2067 48.8993 33.8928 49.932 30.7158C50.9236 27.6635 50.9196 25.0164 50.9189 23.8869V23.7609C50.9183 22.7461 51.2041 22.1989 51.5775 21.5887L51.6027 21.5483L51.6133 21.5032C51.8402 20.5348 51.4389 19.2289 51.3931 19.0836L51.3646 18.9928L51.287 18.9364C50.8572 18.6246 50.6244 18.5305 50.523 18.5019C50.4732 18.4874 50.4241 18.4681 50.3777 18.4436C47.8553 17.1217 42.4279 15.6771 40.3858 15.1339C36.6603 14.143 35.6926 14.0827 35.4479 14.1357C35.3829 14.1503 35.2575 14.1901 34.8191 14.3884C33.6743 14.9045 31.2574 16.103 30.6459 16.4273C30.5384 16.4837 30.437 16.5347 30.3388 16.5832C30.0191 16.743 29.7465 16.879 29.5548 17.1058C29.4209 17.2637 29.2497 17.5442 29.2975 18.1511L29.3002 18.1816L29.3094 18.2121C29.4607 18.7109 29.7346 19.0312 30.1232 19.1639C30.6074 19.3297 31.2276 19.1698 31.8709 18.7129C32.2788 18.4237 32.7716 18.0125 33.2936 17.5774C33.7579 17.19 34.2368 16.7894 34.6367 16.4956C35.3099 16.0008 36.0746 15.8847 36.7346 16.1786C36.8745 16.2409 37.1491 16.3616 37.5073 16.5195L37.5736 16.548C38.9233 17.1423 41.4304 18.2473 42.2018 18.6134C42.4306 18.7215 42.7954 18.8926 43.2855 19.1208C43.5661 19.2508 43.7392 19.5379 43.7233 19.847C43.7067 20.1561 43.5051 20.4241 43.2132 20.5249C42.8458 20.6509 42.5135 20.7689 42.2283 20.8764C40.3573 21.5788 38.0843 22.8522 37.2784 23.4558C37.104 23.5871 36.9077 23.741 36.6994 23.9035L36.6948 23.9075C35.6216 24.7471 35.1593 25.0668 34.8635 25.171L34.8423 25.1789C34.3283 25.3447 32.3385 25.7142 31.6593 25.6989C31.6209 25.6996 31.5831 25.6969 31.5446 25.691L31.5274 25.689H31.5214C31.2992 25.6518 30.9815 25.553 30.5219 25.4084C29.9946 25.2419 29.399 25.0542 28.7656 24.9249C25.7047 24.3001 22.4322 24.3379 18.1522 25.0476C16.0696 25.3932 13.969 25.8581 12.5344 26.2919C12.2877 26.3668 12.0197 26.3098 11.8234 26.1426C10.2535 24.8035 7.54874 22.2274 6.9989 21.5489C6.7608 21.2544 6.56049 20.9586 6.38407 20.6973C6.05576 20.2112 5.85877 19.9313 5.60806 19.8285C5.46281 19.7694 5.33613 19.7396 5.21011 19.7363H5.19286C4.84466 19.7363 4.41155 19.9412 4.32732 20.9162C4.23711 21.9615 4.66624 24.1383 5.17164 24.7087C5.40046 24.9673 5.64189 25.0934 5.88862 25.0841C5.93239 25.0821 5.97749 25.0755 6.0206 25.0642C6.34891 24.9806 6.69381 25.1245 6.8636 25.4184C8.46337 28.1702 10.0127 30.0797 11.1157 30.6554C11.1502 30.6733 11.1834 30.6945 11.2165 30.7184C11.4633 30.9021 11.8705 31.1475 12.3029 31.3731C12.4966 31.4739 12.6359 31.6516 12.689 31.8619C13.0212 33.2056 13.9929 36.2619 14.3113 37.083C14.8989 38.6019 16.3203 41.2688 19.2313 42.068L19.2565 42.074H19.2558ZM22.2305 43.959C21.1833 43.959 20.0962 43.825 18.9063 43.5504L18.8917 43.5464L18.8512 43.5358L18.8367 43.5318C15.2796 42.5602 13.5877 39.4177 12.8966 37.6308C12.5875 36.8336 11.708 34.0891 11.3001 32.555C11.0262 32.4031 10.6614 32.1882 10.3603 31.97C8.73398 31.0872 7.0261 28.6517 5.8004 26.5989C5.14975 26.581 4.52828 26.27 4.03615 25.7128C3.13545 24.6954 2.70566 22.0736 2.81709 20.7862C2.97958 18.8919 4.19798 18.2201 5.19286 18.2201C5.20944 18.2201 5.2247 18.2207 5.24062 18.2207C5.55633 18.2274 5.8654 18.2943 6.18509 18.4263C6.87156 18.7089 7.24497 19.262 7.64027 19.847C7.80011 20.0845 7.97986 20.3518 8.17751 20.5945C8.59801 21.1145 10.9134 23.3397 12.4979 24.7226C13.9644 24.3061 15.9455 23.8763 17.9041 23.552C22.3745 22.8104 25.8174 22.776 29.068 23.4392C29.779 23.5838 30.4157 23.7848 30.9775 23.9619C31.2342 24.0434 31.5764 24.1515 31.7316 24.1847H31.7336C32.0991 24.1847 33.8096 23.9081 34.3488 23.7436C34.5193 23.6594 34.9942 23.3132 35.7609 22.7129L35.7669 22.7083C35.9698 22.5491 36.1821 22.384 36.3691 22.2434C37.1551 21.6537 39.103 20.5269 41.0066 19.731C39.9553 19.2541 38.069 18.4237 36.966 17.9369L36.8964 17.9063C36.5376 17.7485 36.2597 17.6258 36.1204 17.5634C35.9168 17.4726 35.6667 17.6198 35.5354 17.7167C35.1726 17.9839 34.7123 18.3673 34.2673 18.7387C33.7207 19.195 33.2061 19.6242 32.7491 19.9485C31.6991 20.694 30.5928 20.9248 29.6344 20.5972C28.7835 20.306 28.1534 19.6162 27.8596 18.6518L27.8271 18.5424C27.8105 18.49 27.8012 18.4363 27.7966 18.3819L27.7879 18.2691C27.7203 17.4076 27.9246 16.6879 28.3955 16.1282C28.7901 15.6612 29.273 15.4198 29.661 15.2268C29.7565 15.179 29.846 15.1346 29.9356 15.0869C30.5603 14.7559 33.029 13.5315 34.197 13.0049C34.6851 12.7847 34.9119 12.6985 35.1315 12.6514C35.5095 12.5698 36.1429 12.4352 40.7771 13.6682C42.8484 14.2193 48.3243 15.6765 51.0197 17.0673C51.3567 17.1774 51.7367 17.3877 52.1798 17.7094L52.4577 17.9116C52.589 18.0065 52.6852 18.1411 52.7356 18.2957L52.8397 18.6233C52.9757 19.0511 53.3968 20.5461 53.0924 21.8481L53.0533 22.0139C53.0354 22.0921 53.0035 22.1677 52.9611 22.2381L52.8722 22.3826C52.5857 22.8496 52.4364 23.1228 52.4364 23.7602V23.8856C52.4384 25.0881 52.4424 27.9029 51.3759 31.184C50.1973 34.81 48.3733 36.4244 45.9976 37.733C44.5437 38.5342 42.9526 38.9249 41.3953 38.8645C39.7683 38.8015 38.3363 38.2291 37.0178 37.1148C35.9035 36.1717 35.0128 34.9155 34.3568 33.3648C34.1366 34.3716 33.801 35.6504 33.35 36.6386C32.2987 38.9467 30.7387 40.7037 28.5812 42.0116C27.0497 42.9402 25.7557 43.4761 24.3861 43.752C23.697 43.8906 22.972 43.9609 22.2312 43.9609L22.2305 43.959Z" fill="#FFF9F3"/>
<path d="M51.228 19.1369L51.2167 19.1005L51.1862 19.0786C51.1358 19.0414 50.6835 18.7164 50.4633 18.6667L50.4394 18.6607L50.4215 18.6647C47.9827 17.3349 42.3278 15.8306 40.342 15.302C39.4585 15.0672 38.7237 14.8828 38.0272 14.721C37.8647 14.6825 37.6969 14.6394 37.5199 14.5937C36.915 14.4358 36.2285 14.2574 35.6103 14.2939C35.3583 14.3085 35.1222 14.4272 34.8934 14.5426C34.8257 14.5764 34.7614 14.6089 34.6984 14.6374C34.3502 14.7966 33.9854 14.9677 33.5841 15.1594C32.8625 15.5043 32.1349 15.8638 31.4305 16.2133L31.4192 16.2193C31.3131 16.2717 31.1904 16.3254 31.0611 16.3838C30.307 16.7187 29.2749 17.1784 29.4872 18.1487C29.5867 18.6024 29.9229 18.9413 30.3421 19.0109C30.5902 19.052 30.8648 19.0043 31.1805 18.8643C31.7025 18.6349 32.1356 18.2668 32.5561 17.9126C32.6549 17.829 32.7564 17.7434 32.8559 17.6619C33.4601 17.1677 34.0093 16.7399 34.5339 16.3546C35.2582 15.8213 36.0872 15.6986 36.8062 16.0183C36.9528 16.0833 37.2486 16.2133 37.6319 16.3831C38.9837 16.9787 41.5 18.087 42.2761 18.4551C42.9267 18.7642 44.5072 19.4944 45.5141 19.96C44.4144 20.301 43.198 20.6989 42.2887 21.0398C40.4315 21.7369 38.1791 22.9971 37.3832 23.5953C37.2108 23.7247 37.0131 23.8799 36.8029 24.043C36.1396 24.563 35.3132 25.209 34.8954 25.3437C34.2945 25.538 32.0407 25.9446 31.5068 25.8617C31.2548 25.8225 30.8913 25.7078 30.4695 25.5745C29.9475 25.41 29.3552 25.2223 28.7291 25.0956C25.6907 24.4741 22.4375 24.5139 18.1807 25.219C15.7744 25.6183 13.4404 26.1628 12.1093 26.6085C10.617 25.3901 7.45323 22.3862 6.86293 21.658C6.61886 21.3562 6.41656 21.0571 6.23881 20.7918C5.95826 20.3766 5.75663 20.0768 5.54173 19.9886C5.41837 19.9382 5.30827 19.9123 5.20546 19.9103H5.1922C4.91363 19.9103 4.57272 20.09 4.50042 20.9304C4.40757 22.0102 4.86389 24.0974 5.30163 24.5915C5.49398 24.8098 5.68831 24.9152 5.88066 24.9086C6.09953 24.8993 6.2408 24.7421 6.29121 24.6751C6.36085 24.5816 6.3834 24.3946 6.37611 24.1803C7.36767 26.0859 9.63932 29.7576 11.2596 30.531C11.6059 30.8049 12.3441 31.2115 12.7666 31.4058C12.8966 32.2077 14.0798 36.0042 14.4731 37.0196C14.5666 37.263 14.6694 37.5031 14.7775 37.7319C15.0879 38.3912 15.4554 38.9928 15.8719 39.5187C16.7169 40.5879 17.7748 41.3586 18.9308 41.7459C19.9476 42.0875 21.0068 42.2573 22.0707 42.2573C23.4675 42.2573 24.8723 41.9642 26.1961 41.3825C28.6847 40.2901 30.7315 38.3043 31.8112 35.9352C32.4314 34.5728 32.8326 32.4259 32.9394 31.7998C32.9487 31.7474 32.9573 31.6923 32.9673 31.636C33.0449 31.1677 33.1417 30.586 33.403 30.2478C33.7532 29.8717 34.1021 29.7125 34.4092 29.7875C34.8151 29.8863 35.1627 30.3811 35.3862 31.1823C35.9539 33.2125 36.8699 34.7738 38.1095 35.8211C38.8271 36.428 39.6091 36.8359 40.4329 37.0329C41.2454 37.2272 42.1646 37.2013 43.2424 36.9533C44.7453 36.6084 46.1296 35.8755 47.2451 34.8342C48.3707 33.7862 49.1951 32.4199 49.7675 30.6597C50.7518 27.6332 50.7478 25.0067 50.7458 23.8839V23.7578C50.7458 22.6999 51.0562 22.1077 51.4309 21.4961L51.4402 21.4796L51.4449 21.4616C51.6637 20.5238 51.2459 19.1913 51.2273 19.135L51.228 19.1369Z" fill="#171936"/>
<path d="M6.06346 22.9886L6.61794 24.0538C7.7196 26.1709 9.8964 29.5787 11.3781 30.2858L11.4046 30.299L11.4285 30.3169C11.7396 30.563 12.4433 30.957 12.8797 31.1586L13.0117 31.219L13.0349 31.3616C13.1643 32.1548 14.3435 35.9301 14.7275 36.921C14.8197 37.1591 14.9192 37.3925 15.024 37.616C15.3258 38.2561 15.6826 38.8404 16.0852 39.3505C16.8977 40.3785 17.9118 41.1174 19.0168 41.4888C19.9997 41.8178 21.0271 41.9856 22.0704 41.9856C23.4487 41.9856 24.8004 41.6997 26.0871 41.1339C28.5153 40.0674 30.511 38.1314 31.5642 35.8226C32.1711 34.4915 32.5658 32.3717 32.6719 31.7549C32.6812 31.7025 32.6898 31.6488 32.6997 31.593C32.782 31.0943 32.8854 30.4741 33.1885 30.0828L33.2038 30.0636C33.7371 29.4932 34.1881 29.4547 34.4733 29.5243C34.9866 29.649 35.3932 30.1976 35.6479 31.1095C36.201 33.0873 37.0885 34.6022 38.285 35.6143C38.9701 36.1947 39.7143 36.5827 40.4963 36.7697C41.267 36.9535 42.1458 36.9276 43.1811 36.6895C44.637 36.3552 45.9787 35.6449 47.0605 34.6374C48.1509 33.6199 48.9508 32.2921 49.5092 30.5769C50.4789 27.5923 50.4763 24.9943 50.4743 23.886V23.7587C50.4743 22.6444 50.8092 21.9938 51.1866 21.3763C51.3551 20.6069 51.0553 19.5086 50.985 19.2665C50.7661 19.1106 50.5386 18.9766 50.4318 18.9382L50.3794 18.9488L50.2925 18.9017C47.8823 17.5884 42.1557 16.0643 40.2734 15.5642C39.392 15.3294 38.6597 15.1457 37.9673 14.9838C37.8028 14.9467 37.6363 14.9023 37.4592 14.8565H37.4533C36.8676 14.7033 36.203 14.5302 35.628 14.5633C35.4317 14.5746 35.23 14.6761 35.0171 14.7842C34.9502 14.818 34.8812 14.8518 34.8122 14.8837C34.4647 15.0415 34.1012 15.212 33.7019 15.4023C32.9849 15.7453 32.2593 16.1041 31.5589 16.4516L31.5417 16.4602C31.4309 16.5146 31.3062 16.5703 31.1742 16.6287C30.306 17.0154 29.6017 17.3908 29.7549 18.0885C29.8305 18.4334 30.0792 18.6894 30.3883 18.7412C30.5813 18.7737 30.8055 18.7319 31.0728 18.6138C31.5569 18.3996 31.9761 18.0454 32.382 17.7038C32.4828 17.6189 32.5843 17.5327 32.6858 17.4505C33.2933 16.9537 33.8458 16.5232 34.3744 16.1346C35.1803 15.5423 36.1069 15.409 36.9174 15.7691C37.0639 15.8355 37.3598 15.9655 37.7431 16.1339L37.7544 16.1386C39.1041 16.7328 41.6165 17.8391 42.3939 18.2092C43.0206 18.5077 44.4997 19.1915 45.6292 19.7128L46.2726 20.0093L45.596 20.2189C44.3173 20.6149 43.1772 20.9969 42.3859 21.294C40.5507 21.9825 38.3314 23.2248 37.5475 23.8124C37.3783 23.9398 37.1827 24.093 36.9757 24.2548L36.9717 24.2575C36.2561 24.8186 35.4443 25.4533 34.9807 25.6032C34.4016 25.7896 32.0882 26.2273 31.4661 26.1305C31.1941 26.0874 30.8207 25.97 30.389 25.834C29.8729 25.6715 29.288 25.4865 28.6764 25.3624C25.6719 24.7489 22.4491 24.7881 18.2255 25.4878C15.926 25.8698 13.5602 26.4117 12.1959 26.868L12.0533 26.9151L11.9372 26.8203C10.496 25.6437 7.28517 22.6113 6.65176 21.8293C6.40105 21.5189 6.19544 21.2144 6.01305 20.9458C5.78887 20.6115 5.57663 20.2978 5.43801 20.2414C5.34714 20.203 5.26888 20.1837 5.20056 20.1831H5.1926C4.89945 20.1831 4.80195 20.6023 4.77144 20.9544C4.68057 22.0123 5.14883 24.0087 5.50566 24.4127C5.59851 24.5181 5.73713 24.6435 5.87045 24.6375C5.97458 24.6329 6.05218 24.5407 6.0734 24.5121C6.0734 24.5121 6.11386 24.4385 6.10524 24.1898L6.06412 22.9893L6.06346 22.9886ZM22.0704 42.5301C20.9674 42.5301 19.8823 42.3537 18.845 42.0055C17.6379 41.6009 16.5362 40.7997 15.6587 39.6881C15.2296 39.1455 14.8509 38.526 14.5319 37.8482C14.4218 37.6134 14.3163 37.368 14.2202 37.1179C13.8401 36.1357 12.7491 32.6516 12.5262 31.593C12.107 31.3894 11.465 31.0313 11.1161 30.764C9.56079 29.9953 7.54848 26.8766 6.45677 24.9021C6.35595 25.0122 6.16759 25.1694 5.893 25.18C5.6151 25.1913 5.34714 25.0547 5.09975 24.7735C4.57047 24.1752 4.13803 21.9938 4.23089 20.908C4.32639 19.8037 4.8749 19.6379 5.19393 19.6379H5.21383C5.34979 19.6419 5.49173 19.673 5.64627 19.7374C5.93611 19.8568 6.1583 20.1851 6.46472 20.6401C6.64115 20.9007 6.8388 21.1952 7.07558 21.487C7.61945 22.1583 10.6313 25.0295 12.1667 26.3036C13.5735 25.8486 15.8902 25.3233 18.1367 24.9512C22.4286 24.2389 25.713 24.2017 28.7845 24.8285C29.4246 24.9585 30.0242 25.1482 30.5528 25.3147C30.9633 25.444 31.3188 25.5561 31.5503 25.5919C32.002 25.6629 34.1967 25.2835 34.8135 25.0845C35.1849 24.9651 36.0246 24.3085 36.6361 23.829L36.6408 23.825C36.8497 23.6612 37.0474 23.5073 37.2211 23.3773C38.031 22.7698 40.3159 21.489 42.1949 20.784C42.8541 20.5373 43.7495 20.2328 44.7623 19.9098C43.7648 19.4482 42.6777 18.9448 42.1617 18.7C41.391 18.3333 38.8832 17.2289 37.5368 16.6353L37.5256 16.6307C37.1409 16.4616 36.8451 16.3309 36.6978 16.2659C36.0711 15.9867 35.3415 16.0981 34.6981 16.5723C34.1761 16.955 33.6316 17.3802 33.0307 17.871C32.9332 17.9506 32.8337 18.0348 32.7369 18.1157C32.2991 18.4865 31.8508 18.8652 31.2936 19.1113C30.9269 19.2731 30.6019 19.3275 30.3001 19.2771C29.7708 19.1889 29.3483 18.7677 29.2249 18.2053C29.1082 17.6747 29.2813 17.2091 29.7383 16.8191C30.0931 16.5146 30.57 16.303 30.9527 16.1326C31.0807 16.0749 31.2008 16.0225 31.3009 15.9727L31.3188 15.9641C32.0212 15.6159 32.7481 15.2558 33.4684 14.9115C33.8717 14.7192 34.2372 14.5487 34.5887 14.3882C34.647 14.3617 34.7081 14.3305 34.7737 14.298C35.0152 14.1767 35.2897 14.0387 35.5982 14.0208C36.2588 13.9823 36.9671 14.166 37.5919 14.3292H37.5979C37.771 14.375 37.9348 14.4181 38.0926 14.4546C38.7904 14.6171 39.5286 14.8021 40.4147 15.0382C42.4967 15.5927 48.0003 17.0558 50.4968 18.3923L50.5267 18.4003C50.78 18.458 51.1859 18.7392 51.3491 18.8566L51.4512 18.9315L51.4904 19.0529C51.5375 19.2015 51.9454 20.5306 51.7132 21.5242L51.6986 21.5845L51.6648 21.6383C51.2994 22.2359 51.0195 22.7698 51.0195 23.7587V23.8847C51.0215 25.0202 51.0254 27.6772 50.0279 30.7441C49.4409 32.5501 48.592 33.9536 47.4333 35.034C46.2818 36.1078 44.8545 36.8633 43.3058 37.2194C42.1849 37.4768 41.2259 37.5026 40.3723 37.2977C39.5067 37.0908 38.6876 36.6643 37.9361 36.0295C36.6554 34.9458 35.7096 33.3407 35.1266 31.2568C34.9362 30.5743 34.6444 30.1246 34.3473 30.053C34.1463 30.0039 33.8856 30.1365 33.6144 30.425C33.4001 30.7102 33.3113 31.2481 33.2383 31.6819C33.2297 31.7383 33.2204 31.794 33.2118 31.8464C33.1017 32.4811 32.6958 34.6566 32.0623 36.0488C30.9547 38.477 28.8588 40.5131 26.3099 41.6327C24.9536 42.2283 23.5283 42.5294 22.0744 42.5294L22.0704 42.5301Z" fill="#171936"/>
<path d="M29.5888 18.1271C29.5139 17.1813 29.9861 17.107 30.7827 16.6845C31.4154 16.3475 33.8104 15.1623 34.94 14.6536C35.2318 14.5223 35.4387 14.4354 35.5104 14.4201C35.8586 14.3452 37.5996 14.6941 40.3117 15.4157C43.0237 16.1373 49.2444 17.8286 51.0099 19.1723C50.935 20.4657 50.8355 21.0129 50.8355 21.0129L46.456 20.2674C46.456 20.2674 43.3215 18.8241 42.3266 18.3512C41.3311 17.8783 37.5247 16.2122 36.8521 15.9131C36.1809 15.6147 35.3101 15.6392 34.4637 16.2613C33.6174 16.8835 32.474 17.9281 31.702 18.4753C30.9306 19.0231 29.935 19.2718 29.5875 18.1271H29.5888Z" fill="#6874E0"/>
<path d="M46.4915 20.153L50.7384 20.8773C50.7689 20.6618 50.8352 20.1325 50.8896 19.2265C48.998 17.8463 42.447 16.1032 40.2808 15.5269C39.4014 15.2921 38.6678 15.1083 37.974 14.9465C37.8082 14.908 37.6398 14.8643 37.4607 14.8172C36.8432 14.6573 36.2051 14.4908 35.6241 14.5253C35.4192 14.5366 35.205 14.6447 34.9974 14.7495C34.931 14.7833 34.8614 14.8185 34.7951 14.849C34.4469 15.0069 34.0827 15.1773 33.6834 15.3677C32.9605 15.7132 32.2316 16.074 31.5259 16.4236L31.5212 16.4262C31.4111 16.4806 31.2864 16.5363 31.1545 16.5947C30.4355 16.9144 29.5414 17.3123 29.7139 18.0976C29.7935 18.4578 30.0535 18.7257 30.3791 18.7801C30.5807 18.8133 30.8116 18.7715 31.0855 18.6501C31.5756 18.4339 31.9968 18.0777 32.4047 17.7342C32.5035 17.6499 32.6057 17.5637 32.7071 17.4808C33.314 16.9847 33.8665 16.5549 34.3945 16.1669C35.189 15.5832 36.101 15.4512 36.8996 15.8061C37.0461 15.8711 37.3426 16.0011 37.7273 16.1709C39.079 16.7665 41.5961 17.8748 42.3754 18.2449C43.3252 18.6959 46.2607 20.0483 46.4902 20.1537L46.4915 20.153ZM50.9287 21.1466L46.4212 20.3779L46.4066 20.3713C46.3761 20.3567 43.2602 18.9227 42.2752 18.4551C41.4999 18.0863 38.9842 16.9794 37.6338 16.3838C37.2491 16.2146 36.9513 16.0833 36.8047 16.0183C36.0858 15.6986 35.2567 15.8213 34.5324 16.3546C34.0071 16.7406 33.4586 17.1684 32.8544 17.6619C32.7549 17.7434 32.6534 17.8297 32.5546 17.9119C32.1341 18.2668 31.701 18.6349 31.179 18.8643C30.8633 19.0043 30.5887 19.052 30.3406 19.0109C29.9215 18.9413 29.5852 18.6024 29.4857 18.1487C29.2735 17.1784 30.3048 16.7187 31.0596 16.3838C31.1889 16.3254 31.3117 16.271 31.4178 16.218L31.4224 16.216C32.1288 15.8664 32.859 15.505 33.5826 15.1594C33.9826 14.9677 34.3474 14.7966 34.6976 14.6374C34.7599 14.6089 34.8242 14.5764 34.8919 14.5426C35.1207 14.4265 35.3568 14.3078 35.6089 14.2939C36.227 14.2574 36.9135 14.4358 37.5184 14.5923C37.6955 14.6394 37.8633 14.6825 38.0258 14.7203C38.7228 14.8822 39.4577 15.0666 40.3405 15.3013C42.5366 15.8863 49.2195 17.6639 51.0793 19.0786L51.1283 19.1157L51.1257 19.1781C51.0507 20.4635 50.9533 21.01 50.9493 21.0332L50.928 21.1473L50.9287 21.1466Z" fill="#171936"/>
<path d="M51.0096 19.1722C49.2434 17.8284 43.0227 16.1372 40.3114 15.4155C37.6 14.6939 35.8583 14.3457 35.5101 14.42C35.4384 14.4352 35.2315 14.5221 34.9397 14.6535C34.8879 14.6767 34.8342 14.7012 34.7778 14.7271L34.7991 14.7443C35.5465 14.6263 35.5266 14.5281 37.4925 14.9997C39.4578 15.4712 49.9935 19.0687 49.9935 19.0687L50.0128 20.5034L50.3669 20.6214L50.7543 20.7594L50.8704 20.7813C50.9055 20.5106 50.9632 19.9907 51.0103 19.1722H51.0096Z" fill="#171936"/>
<path d="M12.2691 26.8875C10.8862 25.8097 7.38358 22.4861 6.77272 21.732C6.16186 20.9779 5.80238 20.2238 5.49662 20.0971C5.40973 20.0619 5.30693 20.0301 5.2028 20.0274C4.94546 20.0228 4.68082 20.1986 4.61715 20.9414C4.52694 21.984 4.97597 24.0494 5.38984 24.5163C5.80238 24.9833 6.08957 24.7498 6.19768 24.6065C6.30579 24.4633 6.26931 23.8511 6.12605 23.4021C6.88017 25.1086 9.7368 29.8867 11.4785 30.4976C11.8738 29.1863 12.2691 26.8868 12.2691 26.8868V26.8875Z" fill="#6874E0"/>
<path d="M6.12606 23.2857C6.17116 23.2857 6.21295 23.3115 6.23218 23.3547C7.00155 25.0937 9.71891 29.5926 11.4029 30.3414C11.7418 29.1667 12.0761 27.3129 12.1418 26.9356C10.7317 25.8213 7.30135 22.5707 6.68187 21.8053C6.43182 21.4962 6.22621 21.1918 6.04514 20.9225C5.80703 20.5703 5.60209 20.2659 5.45286 20.2049C5.35602 20.1657 5.27378 20.1458 5.20082 20.1438H5.19286C4.93353 20.1438 4.77833 20.4158 4.73256 20.9517C4.64767 21.9432 5.08475 23.9967 5.47607 24.4384C5.61801 24.5983 5.75464 24.6798 5.87071 24.6759C5.98943 24.6712 6.07366 24.5764 6.10417 24.5359C6.16519 24.4537 6.16917 23.9224 6.01397 23.4369C5.99474 23.3785 6.02524 23.3142 6.08361 23.2923C6.09688 23.2877 6.11147 23.2857 6.12473 23.2857H6.12606ZM11.4785 30.6126C11.4659 30.6126 11.4527 30.6106 11.4401 30.6067C9.81176 30.0363 7.40548 26.1576 6.37677 24.1804C6.3834 24.3946 6.36151 24.5817 6.29055 24.6752C6.2408 24.7422 6.10019 24.8994 5.88066 24.9087C5.68898 24.9166 5.49398 24.8098 5.30163 24.5916C4.86389 24.0975 4.40757 22.0102 4.50042 20.9305C4.57405 20.0768 4.92358 19.9031 5.20613 19.9104C5.30827 19.9124 5.41837 19.9382 5.5424 19.9886C5.75663 20.0768 5.95892 20.376 6.23948 20.7918C6.41723 21.0571 6.62018 21.3563 6.8636 21.658C7.48706 22.4268 10.9758 25.7298 12.3414 26.7943C12.3752 26.8202 12.3912 26.8633 12.3845 26.9064C12.3805 26.9296 11.9833 29.2278 11.5913 30.5304C11.582 30.5609 11.5608 30.5861 11.5322 30.6C11.5157 30.6087 11.4978 30.6126 11.4798 30.6126H11.4785Z" fill="#171936"/>
<path d="M6.17164 23.4772C5.89506 22.993 5.23247 21.8449 5.23247 21.8449L5.14161 21.8164C5.14161 21.8164 5.13298 23.6563 5.81614 24.7878C6.00118 24.8097 6.13184 24.6903 6.19684 24.6041C6.30495 24.4608 6.26847 23.8486 6.12521 23.3996C6.14644 23.4487 6.16899 23.4991 6.19419 23.5515C6.1796 23.5057 6.17098 23.4765 6.17098 23.4765L6.17164 23.4772Z" fill="#171936"/>
<path d="M6.77354 21.7319C6.16268 20.9778 5.80319 20.2237 5.49743 20.097C5.41055 20.0618 5.30774 20.03 5.20361 20.0273C5.20361 20.0273 9.32176 26.0358 11.9171 27.6216L12.1631 27.475C12.2295 27.1182 12.2693 26.8874 12.2693 26.8874C10.8864 25.8096 7.38373 22.486 6.77287 21.7319H6.77354Z" fill="#171936"/>
<path d="M51.1165 19.1707C51.1165 19.1707 51.5463 20.5184 51.3308 21.4357C50.96 22.0406 50.6284 22.6653 50.6284 23.759C50.6284 24.8527 50.7252 27.5283 49.7098 30.6516C48.695 33.7748 47.1868 35.0138 45.1247 36.1486C44.0151 36.7601 42.7357 37.107 41.4642 37.0579C40.212 37.0089 39.1355 36.5373 38.1838 35.7334C36.8055 34.5674 35.9771 32.8655 35.4976 31.1523C35.0744 29.6408 34.2228 29.1957 33.3141 30.174C32.9991 30.576 32.9122 31.275 32.824 31.7811C32.7371 32.2885 32.3339 34.5071 31.7038 35.8873C31.075 37.2675 29.9495 39.0663 27.6433 40.4638C25.3372 41.8612 23.0868 42.6624 19.3129 41.7883C16.3083 40.9672 14.9997 38.0608 14.5805 36.9784C14.1614 35.8946 12.933 31.929 12.872 31.3274C12.3838 31.1112 11.3691 30.5408 11.1953 30.314C11.0029 29.4411 10.7237 27.5708 11.1084 27.1867C11.4924 26.8021 14.5421 25.9411 18.1986 25.3343C21.8558 24.7281 25.2987 24.5138 28.7059 25.2096C29.848 25.4411 30.9178 25.8874 31.4882 25.9763C32.0599 26.0652 34.3608 25.6387 34.9312 25.4543C35.5016 25.2706 36.7166 24.2399 37.4522 23.6874C38.1884 23.1362 40.4149 21.8661 42.3291 21.1478C44.2426 20.4302 47.5303 19.4539 48.1929 19.306C48.8555 19.1587 49.6083 18.9432 50.4367 18.7773C50.6397 18.8231 51.1165 19.17 51.1165 19.17V19.1707Z" fill="#6874E0"/>
<path d="M11.3032 30.2598C11.4982 30.4734 12.4334 31.0033 12.9202 31.2189L12.9826 31.2467L12.9892 31.3137C13.0469 31.8841 14.2448 35.784 14.6911 36.9355C14.784 37.1736 14.8835 37.409 14.9889 37.6332C15.2914 38.2752 15.6502 38.8615 16.0554 39.3742C16.8726 40.4083 17.8933 41.1518 19.0063 41.5252C21.3038 42.2965 23.8248 42.1705 26.1031 41.169C28.5399 40.0992 30.5436 38.1558 31.6001 35.8384C32.209 34.502 32.6043 32.3789 32.7104 31.7607C32.7197 31.7084 32.7283 31.6533 32.7383 31.5982C32.8205 31.1021 32.9233 30.4853 33.2238 30.1013L33.2297 30.0933C33.7517 29.5322 34.1888 29.4944 34.4647 29.5614C34.9635 29.6821 35.3608 30.2207 35.6115 31.1194C36.1666 33.1045 37.0587 34.6267 38.2612 35.6428C38.9516 36.2264 39.7011 36.6184 40.4884 36.8055C41.2644 36.9912 42.1492 36.9653 43.1918 36.7259C44.6536 36.3896 46.0014 35.6766 47.0878 34.6631C48.1828 33.6417 48.988 32.3086 49.5465 30.5868C50.5188 27.5968 50.5148 24.9949 50.5141 23.8846V23.7573C50.5141 22.6496 50.8484 22.0036 51.2232 21.3901C51.4002 20.5955 51.0826 19.4587 51.0182 19.2412C50.8458 19.1185 50.5685 18.9394 50.4346 18.8963C49.9504 18.9951 49.4974 19.1079 49.059 19.2166C48.7645 19.2902 48.4859 19.3592 48.2206 19.4183C47.5819 19.5602 44.2915 20.5352 42.3714 21.2548C40.3969 21.9957 38.2002 23.2718 37.5243 23.7791C37.3539 23.9065 37.1569 24.0604 36.9479 24.2242C36.2349 24.782 35.4258 25.4161 34.9688 25.5633C34.4077 25.7444 32.0763 26.1834 31.4721 26.0899C31.2028 26.0481 30.8308 25.9301 30.401 25.7941C29.8843 25.6316 29.298 25.4459 28.6845 25.3212C25.6753 24.7064 22.4486 24.7462 18.2196 25.4466C14.3515 26.0886 11.5201 26.9389 11.1931 27.2659C10.8867 27.571 11.0737 29.1886 11.3052 30.2578L11.3032 30.2598ZM22.0705 42.2574C21.0073 42.2574 19.9474 42.0883 18.9307 41.746C17.7746 41.3587 16.7167 40.588 15.8717 39.5188C15.4552 38.9922 15.0878 38.3913 14.7774 37.732C14.6699 37.5032 14.5671 37.2638 14.4729 37.0197C14.0796 36.0042 12.8964 32.2078 12.7664 31.4059C12.2583 31.1724 11.2926 30.6299 11.1029 30.3838L11.0877 30.3639L11.0817 30.3381C11.0578 30.228 10.4941 27.6346 11.026 27.104C11.479 26.6504 14.7555 25.7881 18.1799 25.2191C22.4373 24.5134 25.6912 24.4756 28.7282 25.0957C29.3544 25.2217 29.946 25.4094 30.4686 25.5746C30.8898 25.7079 31.2546 25.8226 31.5059 25.8618C32.0399 25.9453 34.2936 25.5381 34.8945 25.3438C35.313 25.2091 36.1388 24.5625 36.802 24.0431C37.0116 23.8793 37.2099 23.7241 37.3824 23.5954C38.1789 22.9972 40.4307 21.7363 42.2878 21.0399C44.2165 20.317 47.5249 19.336 48.1676 19.1934C48.4309 19.135 48.7074 19.0661 49.0006 18.9931C49.4496 18.881 49.9139 18.7643 50.4133 18.6648L50.4385 18.6602L50.4624 18.6661C50.6826 18.7159 51.1343 19.0402 51.1854 19.078L51.2159 19.0999L51.2271 19.1364C51.245 19.1927 51.6636 20.5252 51.4447 21.4631L51.4407 21.481L51.4301 21.4976C51.0547 22.1091 50.745 22.702 50.745 23.7593V23.8853C50.7469 25.0082 50.7509 27.6346 49.7667 30.6611C49.1943 32.4213 48.3698 33.787 47.2443 34.8356C46.128 35.8769 44.7438 36.6105 43.2416 36.9547C42.1638 37.2027 41.2452 37.2286 40.432 37.0343C39.6089 36.8373 38.8269 36.4294 38.1086 35.8225C36.869 34.7752 35.9531 33.2139 35.3853 31.1837C35.1611 30.3825 34.8136 29.8877 34.4083 29.7889C34.1013 29.7139 33.7524 29.8731 33.4022 30.2492C33.1409 30.5868 33.044 31.1691 32.9664 31.6374C32.9571 31.6938 32.9485 31.7481 32.9386 31.8012C32.8311 32.4273 32.4312 34.5743 31.8104 35.9366C30.7306 38.3057 28.6845 40.2915 26.1953 41.3839C24.8714 41.9656 23.4673 42.2587 22.0698 42.2587L22.0705 42.2574Z" fill="#171936"/>
<path d="M50.4507 21.0294C50.3041 21.3497 50.0036 21.5261 49.7788 21.424C49.5539 21.3218 49.4909 20.9789 49.6362 20.6579C49.7814 20.3382 50.0826 20.1612 50.3074 20.2633C50.5322 20.3668 50.5966 20.7097 50.4507 21.0294Z" fill="#171936"/>
<path d="M14.2315 29.3106C13.9569 29.6953 13.5019 29.8425 13.2161 29.6389C12.9302 29.434 12.9202 28.9571 13.1948 28.5718C13.4688 28.1871 13.9231 28.0405 14.2096 28.2441C14.4961 28.4477 14.5054 28.9259 14.2315 29.3106Z" fill="#171936"/>
<path d="M34.2971 26.3988C35.7144 26.0725 36.5455 25.2885 37.9795 24.2286C39.4141 23.1687 42.857 21.5909 44.1776 21.118C45.4603 20.6597 49.0737 19.5752 51.1258 19.1985C51.1212 19.1806 51.1172 19.17 51.1172 19.17C51.1172 19.17 50.6403 18.8238 50.4374 18.7773C49.6096 18.9432 48.8562 19.1581 48.1936 19.306C47.531 19.4532 44.2432 20.4295 42.3297 21.1478C40.4156 21.8655 38.189 23.1356 37.4528 23.6874C36.7166 24.2399 35.5022 25.2706 34.9318 25.4543C34.3614 25.638 32.0599 26.0652 31.4889 25.9763C30.9185 25.8874 29.848 25.4411 28.7065 25.2096C25.3 24.5138 21.8571 24.7281 18.1992 25.3343C14.873 25.8868 12.0495 26.6482 11.2769 27.0707C11.5965 27.4036 11.8585 27.775 11.8585 27.775C11.8585 27.775 16.8236 26.3066 18.6012 25.9591C20.3787 25.6115 24.3702 25.4212 25.9838 25.5061C27.5975 25.591 29.7876 26.1494 30.949 26.4545C32.111 26.7596 32.8784 26.7245 34.2971 26.3988Z" fill="#171936"/>
<path d="M22.6822 42.1427C22.3618 42.101 21.9539 42.0691 21.4452 42.0539C16.232 41.8987 14.6369 36.5489 14.2277 35.0705C13.8191 33.5927 13.4324 31.5851 13.3403 31.1122C13.2481 30.6386 13.0809 30.7301 12.5928 30.5318C12.104 30.3335 12.165 30.0437 12.0741 28.6847C11.9892 27.577 11.8048 26.7055 11.1349 27.1638C11.1257 27.1718 11.1157 27.1804 11.1084 27.1877C10.7237 27.5717 11.0029 29.4421 11.1953 30.3149C11.3697 30.5418 12.3838 31.1122 12.872 31.3284C12.933 31.9306 14.1614 35.8962 14.5805 36.9793C14.9997 38.0617 16.3083 40.9681 19.3129 41.7892C20.5896 42.085 21.6926 42.1885 22.6815 42.1427H22.6822Z" fill="#171936"/>
<path d="M45.1249 36.1487C45.55 35.9153 45.9433 35.6666 46.3101 35.3907C40.3806 38.9119 38.1959 34.7446 37.7024 34.0369C37.1791 33.2875 36.3308 30.7698 35.8075 29.9208C35.2842 29.0725 34.026 29.1998 33.3899 29.7935C32.8215 30.3241 32.8169 31.0682 32.7114 32.3987C32.7671 32.1182 32.8063 31.9013 32.8262 31.7806C32.9144 31.2745 33.0013 30.5754 33.3163 30.1735C34.225 29.1952 35.0766 29.6402 35.4997 31.1518C35.9793 32.865 36.807 34.5669 38.1859 35.7329C39.1377 36.5368 40.2142 37.009 41.4664 37.0574C42.7378 37.1065 44.0173 36.7596 45.1269 36.1481L45.1249 36.1487Z" fill="#171936"/>
<path d="M14.4459 31.9836C14.3656 31.2746 14.5281 30.5583 14.8955 29.9461C15.316 29.2457 15.8002 28.7496 16.433 28.3457C17.2952 27.7932 20.0855 26.8301 22.5137 26.6199C24.9418 26.4083 27.9019 26.0382 30.3102 27.573C32.0871 28.7264 31.723 31.5346 31.6984 31.9339C31.6732 32.3331 31.4484 34.0185 31.1366 35.0545C30.8249 36.0911 30.4561 36.7106 29.9958 37.35C29.5355 37.9894 28.4737 39.1149 27.4642 39.7543C26.4534 40.3937 25.2005 40.9826 23.4097 41.1869C21.6189 41.3905 20.3017 41.2632 19.0488 40.6749C17.7946 40.0872 16.7852 39.038 16.1066 37.3752C15.5668 36.0507 14.6428 33.7167 14.4472 31.9836H14.4459Z" fill="#171936"/>
<path d="M15.3202 30.1214C15.884 29.234 16.4518 28.9395 17.5866 28.515C18.7221 28.0918 20.8975 27.4604 22.7918 27.278C24.6861 27.097 26.4397 26.8887 28.6085 27.3729C29.6631 27.6488 30.2886 28.058 30.6646 29.2883C31.0407 30.518 30.9604 31.755 30.8855 32.5482C30.8119 33.3408 30.7515 33.8787 30.5094 34.6448C30.268 35.4115 30.0392 36.0031 29.4754 36.9105C28.911 37.8178 28.0713 38.7052 27.3656 39.2557C26.6599 39.8069 26.0829 40.0961 24.9275 40.4788C23.7721 40.8628 22.8382 40.9762 21.582 41.0505C20.3265 41.1254 18.8885 40.439 18.405 40.0828C17.9209 39.7266 17.0275 38.8259 16.477 37.5425C15.9258 36.2591 15.4158 34.6793 15.2334 34.0883C15.0523 33.4967 14.7498 32.0919 14.7903 31.298C14.8308 30.902 15.3189 30.1214 15.3189 30.1214H15.3202Z" fill="#7C85E4"/>
<path d="M27.6492 27.1976C26.9256 27.0955 26.2431 27.0656 25.5779 27.0762C23.9423 29.4839 19.2697 36.4673 17.4683 39.1627C17.8204 39.5918 18.1634 39.9042 18.4054 40.0826C18.684 40.2883 19.2796 40.6026 19.974 40.8175L27.6485 27.1976H27.6492Z" fill="#B6BCF0"/>
<path d="M28.7724 27.418L20.9082 41.0246C21.1344 41.0531 21.3619 41.0638 21.5827 41.0505C21.785 41.0392 21.9774 41.0253 22.1644 41.0114L29.7348 27.8511C29.4655 27.6594 29.1478 27.5267 28.7717 27.4186L28.7724 27.418Z" fill="#B6BCF0"/>
<path d="M38.1831 25.7443C40.147 24.0105 41.2009 23.4368 43.2716 22.6356C45.3429 21.8344 47.3068 21.1287 48.5378 21.392C49.7675 21.6553 49.8988 23.8434 49.9108 24.9079C49.922 25.9725 49.6859 27.9098 49.2601 29.3557C48.8343 30.8029 48.4675 31.7958 47.6511 33.0275C46.8339 34.2591 45.2129 35.8264 42.8345 36.0884C40.4561 36.3517 39.497 35.2043 39.2489 34.8813C39.0002 34.5576 38.1241 33.3624 37.6034 31.4125C37.0828 29.4638 36.9959 27.8879 37.4263 26.8804C37.687 26.2709 38.1838 25.7443 38.1838 25.7443H38.1831Z" fill="#171936"/>
<path d="M39.7485 24.9957C41.0684 24.1786 41.7243 23.7972 42.9885 23.2872C44.2527 22.7758 45.7297 22.2565 46.5236 22.0801C47.3182 21.903 48.4345 21.4951 48.8868 22.5072C49.3385 23.5187 49.3663 24.5825 49.3537 25.5569C49.3411 26.5312 49.0712 28.8254 48.6792 29.7639C48.2866 30.701 47.9317 31.5765 47.4781 32.3413C47.0244 33.106 46.4235 33.9331 45.6382 34.5254C44.8536 35.117 43.6882 35.6483 42.7199 35.8452C41.7502 36.0422 40.6227 35.7093 40.1438 35.3392C39.6649 34.9697 39.2491 34.5254 38.9055 33.9331C38.5619 33.3408 37.8629 31.6873 37.5929 30.2938C37.323 28.9003 37.3966 27.5426 37.8257 26.8893C38.2555 26.2354 39.1947 25.3844 39.7485 24.9957Z" fill="#7C85E4"/>
<path d="M39.8286 32.6719C40.8832 31.5093 44.3162 24.5511 45.3595 22.4141C44.9496 22.5474 44.4999 22.7059 44.0469 22.8757C43.0401 25.221 39.9885 32.3297 39.8286 32.6726V32.6719Z" fill="#B6BCF0"/>
<path d="M40.3789 35.4899C40.7749 35.7055 41.3751 35.8812 41.9906 35.9018L48.137 21.8779C47.6322 21.7718 47.0168 21.9701 46.5253 22.0789L40.3789 35.4899Z" fill="#B6BCF0"/>
<path d="M6.18252 23.6314C6.14074 23.6314 6.10028 23.6082 6.07906 23.5691C5.99283 23.4066 5.87411 23.2023 5.74809 22.9874C5.53784 22.6286 5.29841 22.2207 5.15249 21.8944C5.12662 21.8353 5.15315 21.7663 5.21152 21.7405C5.27055 21.7146 5.33886 21.7405 5.36539 21.7995C5.50534 22.1146 5.7408 22.5158 5.94839 22.8693C6.07574 23.0875 6.19645 23.2925 6.28466 23.4596C6.31517 23.5173 6.29329 23.587 6.23558 23.6175C6.21834 23.6261 6.20043 23.6308 6.18186 23.6308L6.18252 23.6314Z" fill="#171936"/>
</g>
<defs>
<clipPath id="clip0_4450_47744">
<rect width="50.4" height="31.3567" fill="white" transform="translate(2.7998 12.6016)"/>
</clipPath>
</defs>
</svg>
