<svg width="56" height="56" viewBox="0 0 56 56" fill="none" xmlns="http://www.w3.org/2000/svg">
<g clip-path="url(#clip0_4450_47746)">
<path d="M46.5269 38.8538C45.5314 39.2803 40.6717 40.3427 34.4334 41.4966C33.8785 41.5989 33.3062 41.7038 32.7212 41.8095C32.2746 41.4953 31.0545 40.6435 30.7904 40.5165L30.7496 40.4964L30.7035 40.4951C29.821 40.4697 28.3997 40.5613 26.8426 40.7017L26.8346 40.2096L38.1967 37.984C38.4153 37.9412 38.6065 37.8182 38.7208 37.647C38.8184 37.5006 38.8545 37.3295 38.8211 37.1643C38.783 36.9711 38.6533 36.806 38.4648 36.7117C38.3431 36.6502 38.204 36.6215 38.061 36.6275C37.3343 34.7789 29.7007 15.4095 26.3198 8.50866L26.3011 7.34336C26.2964 7.07795 26.0851 6.86668 25.819 6.86334C25.6867 6.86133 25.563 6.91214 25.4694 7.00507C25.3758 7.098 25.3243 7.22235 25.325 7.35406L25.3343 8.87302L22.8199 15.6896L22.7517 15.8146C22.6915 15.9256 16.6792 26.9836 14.7571 30.6894C13.3845 33.3342 9.40595 41.3863 9.36584 41.4672L9.25553 41.6918C9.06098 41.7219 8.89785 41.7473 8.76949 41.7667C8.44591 41.8168 8.2206 42.121 8.26673 42.4453C8.28946 42.6051 8.37303 42.7461 8.50206 42.8424C8.60703 42.9206 8.73205 42.9614 8.85974 42.9614C8.88916 42.9614 8.91991 42.9594 8.95 42.9547L25.5356 40.4637L25.5382 40.828C22.3613 41.1496 19.086 41.5909 18.8647 41.6209L18.8092 41.6283L15.4624 44.13C11.5674 44.3065 9.24684 44.124 9.21675 44.1214L8.88715 44.0946L8.95334 44.4182C9.14388 45.3461 9.61321 46.46 10.1775 47.3244C10.6635 48.0692 11.4257 48.9483 12.3169 48.9483C12.3282 48.9483 12.3396 48.9483 12.3496 48.9483C13.0095 48.9784 25.5088 49.1462 28.9773 49.1462C29.1504 49.1462 29.3009 49.1462 29.4259 49.1449C32.2312 49.1255 37.2266 48.9096 39.3252 48.717L39.4536 48.705L39.5178 48.5933C40.0459 47.668 41.1203 46.3196 41.8798 45.4451C41.9988 45.308 42.2207 45.0801 42.5015 44.7919C43.725 43.5357 46.0028 41.1978 46.8538 39.18L47.0925 38.6144L46.5282 38.8565L46.5269 38.8538Z" fill="#FFF9F3"/>
<path d="M9.54401 43.5034C10.2467 43.5435 12.2624 43.6291 15.2401 43.5014L16.6682 42.4337L9.54334 43.5034H9.54401ZM12.3499 48.309C12.3593 48.309 12.3693 48.309 12.3787 48.3097C12.971 48.3364 25.3233 48.5069 28.9776 48.5069C29.1488 48.5069 29.2979 48.5069 29.4222 48.5055C32.1292 48.4868 36.884 48.2842 39.0708 48.0977C39.6478 47.1457 40.6687 45.8667 41.4008 45.0244C41.5318 44.8726 41.7591 44.6399 42.0466 44.3444C43.0768 43.2868 44.8726 41.4429 45.8627 39.7321C43.9546 40.2662 39.7828 41.1494 34.5487 42.1181C33.9865 42.2218 33.4102 42.3274 32.8339 42.431C32.6667 42.4611 32.4949 42.423 32.3565 42.3261C31.3965 41.6515 30.8015 41.2544 30.5842 41.1247C29.8107 41.1113 28.5718 41.1802 26.8984 41.3313C26.7233 41.3473 26.5488 41.2891 26.4171 41.1715C26.286 41.0538 26.2098 40.8867 26.2071 40.7102L26.1991 40.2181C26.1944 39.9112 26.4097 39.6445 26.7112 39.585L38.0727 37.3594C38.1322 37.348 38.175 37.3172 38.1917 37.2918L38.195 37.2872C38.195 37.2872 38.1863 37.2798 38.1783 37.2758C38.1536 37.2638 38.1208 37.2577 38.086 37.2591C37.8173 37.2704 37.5686 37.1093 37.4696 36.8573C36.6373 34.7406 29.3473 16.251 25.915 9.12753L23.4146 15.9074C23.4032 15.9361 23.3912 15.9642 23.3765 15.9909L23.3083 16.116C23.2481 16.2269 17.2431 27.2702 15.319 30.9793C13.9739 33.5733 10.0989 41.4115 9.93512 41.7438L9.8228 41.9704C9.77467 42.068 9.7038 42.1496 9.61622 42.2104L25.4416 39.8337C25.6235 39.8063 25.808 39.8591 25.9477 39.9788C26.0881 40.0984 26.169 40.2729 26.1704 40.4568L26.173 40.8211C26.1744 41.1481 25.9283 41.4235 25.6021 41.4563C22.6919 41.7511 19.6686 42.1509 19.0562 42.2325L15.8425 44.6353C15.7409 44.7115 15.6185 44.7549 15.4908 44.761C12.6234 44.8913 10.605 44.8285 9.69912 44.783C9.9164 45.5198 10.2828 46.322 10.708 46.9739C11.2629 47.8229 11.8485 48.3103 12.3165 48.3103H12.3339H12.3493L12.3499 48.309ZM28.9776 49.7758C25.6328 49.7758 13.2705 49.6133 12.3439 49.5786C12.3352 49.5786 12.3265 49.5786 12.3172 49.5786C11.3859 49.5786 10.4633 48.9174 9.6463 47.6672C9.04126 46.7406 8.5385 45.5432 8.33259 44.5417L8.2664 44.2181C8.22629 44.0222 8.28111 43.8196 8.41281 43.6699C8.4536 43.6244 8.5004 43.585 8.55054 43.5535C8.39744 43.5141 8.2537 43.4446 8.12333 43.3483C7.85724 43.1504 7.68542 42.8602 7.63796 42.5326C7.54235 41.8661 8.007 41.2403 8.67221 41.1374L8.832 41.1126C9.25653 40.2535 12.8942 32.8994 14.1938 30.395C16.1233 26.6751 22.1343 15.6206 22.1944 15.5096L22.2406 15.4253L24.6995 8.75983L24.6902 7.35652C24.6888 7.05233 24.8065 6.76753 25.0218 6.55292C25.2377 6.33831 25.5245 6.22265 25.8287 6.22666C26.4384 6.23469 26.9258 6.71939 26.9352 7.33045L26.9519 8.35468C30.2218 15.073 37.2096 32.7329 38.5166 36.0503C38.5975 36.0744 38.675 36.1051 38.7493 36.1426C39.113 36.3251 39.3657 36.6514 39.4426 37.0371C39.5101 37.3687 39.4399 37.7097 39.248 37.9972C39.0401 38.308 38.7011 38.5293 38.318 38.6042L31.1779 40.0028C31.4533 40.1619 32.0209 40.5417 32.8706 41.136C33.358 41.0478 33.8441 40.9589 34.3194 40.8713C41.4375 39.5542 45.5084 38.5995 46.2785 38.2693L46.8428 38.0272C47.0808 37.9256 47.3569 37.9778 47.5401 38.1603C47.7233 38.3428 47.7781 38.6182 47.6772 38.8569L47.4385 39.4225C46.5413 41.5505 44.2087 43.9446 42.9558 45.2303C42.6931 45.4997 42.4664 45.7324 42.3588 45.8567C41.6194 46.7091 40.5751 48.0188 40.069 48.9033L40.0048 49.015C39.9025 49.1948 39.718 49.3132 39.5127 49.3319L39.3837 49.3439C37.2724 49.5378 32.2495 49.7551 29.4316 49.7745C29.3052 49.7751 29.1528 49.7758 28.9783 49.7758H28.9776Z" fill="#FFF9F3"/>
<path d="M25.9845 10.745L24.0009 16.1235C23.9802 16.1804 23.9548 16.2358 23.9254 16.2893L23.8572 16.4143C23.797 16.5247 17.8054 27.5432 15.8739 31.267C14.7294 33.4746 11.7717 39.4428 10.8029 41.4003L25.3487 39.2155C25.5633 39.1834 25.7799 39.2075 25.9785 39.2823C26.145 39.1286 26.3549 39.0189 26.5909 38.9721L36.8392 36.9645C35.8778 34.5209 29.5339 18.4528 25.9838 10.745H25.9845ZM12.35 47.6854C12.37 47.6854 12.3894 47.6854 12.4081 47.6868C12.9971 47.7135 25.328 47.8833 28.977 47.8833C29.1468 47.8833 29.2939 47.8833 29.4162 47.882C31.9594 47.8646 36.4113 47.6801 38.7072 47.5016C39.3182 46.5576 40.2328 45.4157 40.9274 44.6161C41.0718 44.451 41.3038 44.2123 41.598 43.9101C42.3595 43.1286 43.4967 41.9606 44.4247 40.7438C42.1676 41.2787 38.6958 41.988 34.6617 42.7341C34.0988 42.8384 33.5212 42.944 32.9435 43.0477C32.6153 43.1072 32.2696 43.0309 31.9962 42.8384C31.1886 42.2708 30.6657 41.9185 30.4017 41.7493H30.3803C29.6195 41.7493 28.4682 41.8182 26.9539 41.9552C26.7259 41.976 26.4973 41.9332 26.2941 41.8349C26.1162 41.9679 25.9016 42.0548 25.6649 42.0789C22.9646 42.3524 20.152 42.7187 19.3003 42.8317L16.2169 45.1369C16.0137 45.2887 15.7723 45.3749 15.5196 45.3863C13.3795 45.4832 11.7088 45.4745 10.6017 45.4438C10.7809 45.8636 10.9975 46.2741 11.2315 46.6331C11.7924 47.4922 12.2129 47.6861 12.3152 47.6861C12.3279 47.6861 12.3386 47.6861 12.3486 47.6861L12.35 47.6854ZM28.9776 49.1329C25.32 49.1329 12.945 48.9624 12.3506 48.935H12.3493C12.3379 48.935 12.3279 48.935 12.3172 48.935C11.4294 48.935 10.6679 48.0545 10.1852 47.3157C9.73189 46.6211 9.33677 45.762 9.10011 44.9597C9.04328 44.7652 9.08339 44.5553 9.20908 44.3968C9.3341 44.2377 9.52865 44.1488 9.73122 44.1595C10.6625 44.2063 12.6448 44.2651 15.4634 44.1367L15.4681 44.1347L18.6825 41.7319C18.7674 41.6678 18.8684 41.627 18.974 41.6129C19.557 41.5347 22.6116 41.1309 25.5386 40.8341L25.5473 40.8247L25.5446 40.4603L25.5413 40.453L25.5339 40.451L9.70849 42.8277C9.42101 42.8712 9.14222 42.7107 9.03525 42.4406C8.92829 42.1705 9.02055 41.8623 9.25855 41.6965L9.2619 41.6932L9.37421 41.4665C9.53801 41.1342 13.409 33.3034 14.7641 30.6914C16.7016 26.9568 22.6999 15.927 22.7594 15.8167L22.8269 15.6916L25.3287 8.91047C25.4149 8.67513 25.6342 8.51468 25.8849 8.50265C26.1356 8.49128 26.3689 8.62967 26.4779 8.85564C29.9223 16.0032 37.229 34.5383 38.0513 36.6282L38.06 36.6342C38.2017 36.6282 38.3394 36.6569 38.4584 36.7178C38.5139 36.7452 38.5668 36.7813 38.6129 36.8227C38.8282 37.0166 38.8816 37.3335 38.7426 37.5876C38.7339 37.6029 38.7232 37.621 38.7098 37.6417C38.5975 37.8088 38.409 37.9305 38.1917 37.9726L26.8302 40.1983L26.8222 40.2076L26.8302 40.6997L26.8336 40.7064L26.8409 40.7084C28.5344 40.5559 29.7966 40.4857 30.5942 40.4998C30.7032 40.5018 30.8095 40.5319 30.9031 40.588C31.1745 40.7498 31.8518 41.2085 32.7149 41.8148L32.7216 41.8162C33.2965 41.7125 33.8728 41.6076 34.4337 41.5033C39.5716 40.5526 43.7815 39.6654 45.6936 39.1299C45.9383 39.0611 46.2003 39.148 46.3554 39.3485C46.5119 39.5498 46.5299 39.8245 46.4029 40.0445C45.3733 41.8229 43.5702 43.6734 42.4939 44.7799C42.2131 45.068 41.9911 45.2953 41.8708 45.4337C41.1748 46.2353 40.1633 47.4989 39.6037 48.4215C39.5007 48.592 39.3216 48.703 39.1223 48.7204C36.9168 48.9089 32.1132 49.1121 29.4249 49.1302C29.2999 49.1309 29.1495 49.1315 28.9763 49.1315L28.9776 49.1329ZM12.3433 48.9544C12.3506 48.9544 12.3587 48.9544 12.3667 48.9544C13.3154 48.9905 25.7846 49.1516 28.9776 49.1516C29.1508 49.1516 29.3012 49.1516 29.4262 49.1502C32.2315 49.1309 37.227 48.9149 39.3262 48.7224L39.4546 48.7103L39.462 48.7057L39.5261 48.594C40.0543 47.6701 41.128 46.3216 41.8868 45.4471C42.0071 45.3094 42.2278 45.0821 42.5079 44.7946C43.732 43.5384 46.0098 41.1991 46.8622 39.1801L47.1009 38.6145L47.0982 38.6044L47.0889 38.6024L46.5246 38.8444C45.6969 39.1994 41.6368 40.1535 34.4324 41.4866C33.9557 41.5748 33.469 41.6637 32.981 41.752C32.8172 41.7814 32.648 41.7446 32.511 41.649C31.4734 40.923 31.0435 40.6482 30.865 40.5452C30.639 40.4149 30.518 40.1581 30.5608 39.9014C30.6042 39.644 30.8015 39.4408 31.0569 39.3906L38.197 37.992C38.4183 37.9486 38.6115 37.8242 38.7279 37.6511C38.8268 37.5026 38.8629 37.3288 38.8295 37.1617C38.7901 36.9658 38.6583 36.798 38.4678 36.7024C38.427 36.6817 38.3836 36.6643 38.3381 36.6509C38.1543 36.5961 38.0052 36.4597 37.9343 36.2805C36.5765 32.8354 29.6409 15.3099 26.389 8.62967C26.3489 8.54744 26.3275 8.45785 26.3255 8.36626L26.3088 7.34203C26.3047 7.07127 26.0895 6.85666 25.8194 6.85265C25.6817 6.84931 25.5586 6.90078 25.4617 6.99706C25.3648 7.09333 25.3133 7.21634 25.3146 7.3534L25.3233 8.7567C25.324 8.83158 25.3113 8.90646 25.2852 8.97732L22.8269 15.6422C22.8162 15.6702 22.8042 15.6977 22.7901 15.7244L22.744 15.8086C22.6838 15.9203 16.6635 26.9916 14.7494 30.6834C13.4511 33.1858 9.80476 40.5579 9.3936 41.3903C9.30335 41.5728 9.12952 41.6998 8.92829 41.7313L8.7685 41.756C8.44024 41.8068 8.21026 42.1157 8.25772 42.4453C8.28179 42.6098 8.36402 42.7488 8.49707 42.8484C8.56192 42.8966 8.63345 42.9307 8.70833 42.95C8.83669 42.9835 8.94767 43.055 9.02924 43.1519C9.12417 43.0129 9.27527 42.9133 9.45177 42.8865L16.5766 41.8168C16.86 41.7741 17.1355 41.9298 17.2458 42.1939C17.3561 42.458 17.2732 42.7635 17.0432 42.9353L15.6152 44.003C15.5142 44.0786 15.3932 44.1214 15.2675 44.1267C12.2758 44.2551 10.244 44.1708 9.50993 44.128C9.33209 44.118 9.17498 44.0344 9.06801 43.9068C9.01988 43.9763 8.95837 44.0365 8.88416 44.0833L8.88015 44.0933L8.94634 44.4169C9.13688 45.3462 9.6062 46.4606 10.1711 47.3258C10.8564 48.3754 11.6186 48.9537 12.3185 48.9537H12.3353H12.3446L12.3433 48.9544ZM28.9776 50.4018C25.6589 50.4018 13.429 50.2433 12.3353 50.2046H12.3179C11.5143 50.2046 10.3082 49.8242 9.1235 48.0097C8.47902 47.0216 7.94083 45.7413 7.72087 44.6682L7.65468 44.3447C7.61658 44.1581 7.62193 43.9663 7.66739 43.7844C7.31439 43.4896 7.08507 43.0804 7.01956 42.6204C6.88451 41.6724 7.49958 40.7792 8.41283 40.5519C9.20574 38.9494 12.4309 32.4356 13.6389 30.1064C15.5597 26.4039 21.5854 15.3219 21.6456 15.2103L21.6703 15.1655L24.0738 8.64973L24.0658 7.36008C24.0624 6.88674 24.2456 6.44282 24.5812 6.10921C24.9168 5.7756 25.3628 5.59442 25.8374 5.60178C26.7868 5.61381 27.5436 6.36928 27.5596 7.32064L27.5743 8.20648C30.7968 14.866 37.4376 31.6127 38.998 35.5685C39.0093 35.5739 39.0194 35.5792 39.0307 35.5846C39.5662 35.854 39.94 36.3387 40.0556 36.9143C40.1546 37.4104 40.0523 37.9185 39.7675 38.345C39.4673 38.793 38.9826 39.1112 38.4377 39.2182L32.7958 40.3233C32.8653 40.3721 32.9382 40.4222 33.0137 40.4744C33.4149 40.4015 33.8133 40.3286 34.2044 40.2564C41.7564 38.8591 45.4148 37.9586 46.0325 37.6945L46.5961 37.4525C47.0708 37.2493 47.6143 37.3529 47.98 37.7173C48.3464 38.0816 48.4534 38.6238 48.2528 39.0998L48.0141 39.6654C47.0701 41.9024 44.6847 44.3507 43.4038 45.6664C43.1591 45.9178 42.9264 46.1558 42.8308 46.2668C42.1088 47.0978 41.0952 48.3687 40.6119 49.2138L40.5477 49.3254C40.3444 49.6817 39.9787 49.9171 39.5696 49.9545L39.4412 49.9666C37.3159 50.1618 32.2663 50.3804 29.4356 50.3998C29.3086 50.4004 29.1548 50.4011 28.9783 50.4011L28.9776 50.4018Z" fill="#FFF9F3"/>
<path d="M21.5225 20.4533L21.1167 20.3035L25.6375 8.04688L26.044 8.19663L21.5225 20.4533Z" fill="#171936"/>
<path d="M26.0641 8.51251C29.9831 15.5517 37.8226 36.7223 37.8226 36.7223L26.2967 39.5075C26.2967 39.5075 26.9412 37.0318 27.1471 33.2418C27.3537 29.451 27.1471 22.3343 26.9158 18.9306C26.6838 15.527 26.1162 9.80283 25.9618 9.10619C25.7806 8.41022 26.0647 8.51318 26.0647 8.51318L26.0641 8.51251Z" fill="#D2D5F6"/>
<path d="M26.1602 8.6875C27.8997 14.1369 32.3009 24.6948 32.0381 29.7196C31.6824 36.5209 28.2059 38.4764 26.3052 39.5053L37.8225 36.7228C37.8225 36.7228 29.7008 15.9561 26.1602 8.6875Z" fill="#929AE8"/>
<path d="M26.2477 9.43059C26.4556 10.9188 26.9356 15.8253 27.1462 18.9167C27.3815 22.3658 27.5834 29.4893 27.3782 33.256C27.2184 36.1936 26.7905 38.3704 26.6067 39.2001L37.5844 36.6856C36.6725 34.3684 29.7068 16.7179 26.2483 9.43059H26.2477ZM25.9749 39.8212L26.0712 39.4515C26.0779 39.4267 26.7123 36.9511 26.9149 33.2312C27.1188 29.4819 26.9176 22.3852 26.6829 18.9482C26.4489 15.5178 25.8873 9.85646 25.7349 9.16183C25.6286 8.74933 25.6493 8.5033 25.8011 8.36424C25.9121 8.26329 26.0551 8.26462 26.1427 8.29671L26.2303 8.3288L26.2717 8.41237C29.779 15.5352 38.0323 36.556 38.1152 36.7672L38.2135 37.0179L25.9749 39.8205V39.8212Z" fill="#171936"/>
<path d="M26.7646 40.2221L26.6517 39.6451L26.645 39.6465L26.5039 38.9485L37.9209 36.6427C38.1087 36.6045 38.3013 36.6286 38.4631 36.7102C38.6509 36.8044 38.7806 36.9696 38.8194 37.1628C38.8528 37.3279 38.8167 37.4991 38.7191 37.6455C38.6048 37.8166 38.4136 37.9397 38.195 37.9824L26.764 40.2221H26.7646Z" fill="#171936"/>
<path d="M37.9915 36.9911L26.4329 39.3244L26.4302 39.9241L38.1259 37.6329C38.3526 37.5888 38.5063 37.4096 38.4709 37.2324C38.4348 37.0533 38.2188 36.945 37.9915 36.9911Z" fill="#FF5F2E"/>
<path d="M22.9551 15.9225C22.9551 15.9225 20.8464 25.049 21.2737 32.7301C21.6113 37.5958 23.1182 39.6998 23.1182 39.6998L9.57324 41.5664C9.57324 41.5664 13.5752 33.4661 14.9618 30.7926C16.906 27.046 22.9551 15.9219 22.9551 15.9219V15.9225Z" fill="#D2D5F6"/>
<path d="M21.2737 32.7294C20.9073 26.1407 22.4062 18.4891 22.8401 16.4453C21.1627 20.2073 18.4791 26.9363 17.1233 35.9411C14.9872 37.5543 11.7186 39.9651 9.59062 41.5302C9.57926 41.5536 9.57324 41.5657 9.57324 41.5657L23.1182 39.6991C23.1182 39.6991 21.6113 37.5951 21.2737 32.7294Z" fill="#929AE8"/>
<path d="M22.4065 17.4212C20.721 20.5266 16.6789 27.9884 15.1693 30.9C13.9733 33.2051 10.7308 39.8092 9.89977 41.5039L22.7381 39.5243C22.3115 38.7715 21.3127 36.6328 21.0433 32.7465V32.7432C20.8207 28.7559 21.2913 24.3809 21.7252 21.4125C21.9619 19.7926 22.2133 18.4033 22.4065 17.4212ZM9.09149 42.0983L9.28671 41.6992C9.32749 41.6156 13.3843 33.3315 14.7562 30.6867C16.6783 26.9809 22.6906 15.9236 22.7508 15.812L23.5644 14.3164L23.1807 15.9744C23.176 15.9972 22.6498 18.2876 22.1832 21.484C21.7526 24.4297 21.286 28.7686 21.5059 32.7158C21.6771 35.1861 22.1584 36.917 22.5315 37.9345C22.9353 39.0356 23.303 39.5604 23.307 39.5651L23.525 39.8713L23.1532 39.9288L9.09082 42.0976L9.09149 42.0983Z" fill="#171936"/>
<path d="M8.85925 42.961C8.73089 42.961 8.60654 42.9202 8.50158 42.842C8.37255 42.7457 8.28831 42.6046 8.26624 42.4455C8.22011 42.1213 8.44542 41.8171 8.769 41.7669C9.60403 41.6379 13.9771 40.9633 18.0312 40.3409C20.3016 39.9919 22.1047 39.7158 23.389 39.5206C24.1391 39.4063 24.7201 39.3187 25.1166 39.2592C25.5975 39.1874 25.8638 39.158 25.9155 39.1709L26.1715 39.2351L26.229 40.3596L8.95018 42.955C8.91942 42.9596 8.88934 42.9616 8.85992 42.9616L8.85925 42.961Z" fill="#171936"/>
<path d="M25.829 39.5157C25.7769 39.503 10.8975 41.7981 8.82292 42.1184C8.68988 42.1391 8.59896 42.2621 8.61768 42.3952C8.63706 42.5295 8.76208 42.6225 8.89646 42.6024L25.8564 40.0552L25.829 39.5163V39.5157Z" fill="#FF5F2E"/>
<path d="M26.6817 41.3938L25.7123 41.5255L25.4937 7.35086C25.493 7.17302 25.6381 7.02861 25.8152 7.03129C25.987 7.03329 26.1268 7.17235 26.1288 7.34417L26.681 41.3944L26.6817 41.3938Z" fill="#FF5F2E"/>
<path d="M25.8121 7.20297C25.7726 7.20297 25.7359 7.21834 25.7078 7.24575C25.6797 7.27383 25.6643 7.31127 25.6643 7.35138L25.8823 41.3321L26.5101 41.2472L25.9598 7.34804C25.9585 7.26782 25.8943 7.20363 25.8141 7.20297H25.8114H25.8121ZM25.544 41.7219L25.3247 7.35406C25.324 7.22168 25.3749 7.098 25.4691 7.00507C25.5627 6.91214 25.6877 6.86133 25.8188 6.86334C26.0849 6.86668 26.2961 7.07795 26.3008 7.34336L26.8557 41.5447L25.5447 41.7226L25.544 41.7219Z" fill="#171936"/>
<path d="M26.9061 39.2266L26.3325 39.3402L26.3987 39.9366L27.1629 39.7728L26.9061 39.2266Z" fill="#FF5F2E"/>
<path d="M25.0431 39.6308L26.0179 39.4844L26.0908 40.0272L24.999 40.1797L25.0431 39.6308Z" fill="#FF5F2E"/>
<path d="M14.8925 44.8255L18.7193 42.0062C18.7193 42.0062 27.6305 40.7995 30.5214 40.8831C30.8202 41.0261 32.7437 42.0898 32.7437 42.0898L35.1745 43.4189L19.5303 45.7829L13.3047 45.2053L14.8925 44.8255Z" fill="#FFF4BF"/>
<path d="M18.7193 42.0036L14.8925 44.8229L13.3047 45.2027L19.5303 45.7803L27.4066 44.5903C26.9486 43.449 26.502 42.3025 26.0775 41.1445C22.605 41.4781 18.7193 42.0043 18.7193 42.0043V42.0036Z" fill="#FFF4BF"/>
<path d="M32.7439 42.09C32.7439 42.09 30.8198 41.027 30.5216 40.8833C29.5402 40.8545 27.8167 40.9702 26.0303 41.1414C26.5344 42.3026 27.106 43.4399 27.5639 44.5811L35.1741 43.4185L32.7433 42.0894L32.7439 42.09Z" fill="#FFE875"/>
<path d="M30.8821 41.071C29.8552 41.2227 26.8013 41.6927 26.8013 41.6927L27.2385 42.3613L31.9164 41.6332C31.5634 41.4394 31.1676 41.2234 30.8821 41.0703V41.071Z" fill="#FF4E17"/>
<path d="M27.0095 41.7851L27.2983 42.2257L31.5369 41.5658C31.2622 41.4154 31.0355 41.2924 30.8597 41.1981C29.9632 41.3312 27.684 41.6808 27.0095 41.7851ZM27.1786 42.4951L26.5923 41.5993L26.7822 41.5699C26.8129 41.5652 29.8482 41.0979 30.8637 40.9474L30.9045 40.9414L30.9406 40.9608C31.1833 41.0912 31.5323 41.2804 31.9755 41.5244L32.2944 41.6996L27.1786 42.4958V42.4951Z" fill="#171936"/>
<path d="M25.8394 41.7695L26.1275 42.5845L18.5508 43.5559L19.5817 42.5965L25.8394 41.7695Z" fill="#FF5F2E"/>
<path d="M19.6369 42.7132L18.9168 43.3831L25.9587 42.4805L25.7555 41.9042L19.6369 42.7132ZM18.1841 43.7267L19.5259 42.4785L25.922 41.6328L26.2943 42.6871L18.1841 43.7267Z" fill="#171936"/>
<path d="M14.6315 45.109L19.524 45.5629L34.507 43.2992L32.6397 42.2783C32.6323 42.2743 32.625 42.2696 32.619 42.2649C31.9571 41.7976 30.9202 41.0809 30.6407 40.9245C27.8689 40.8596 19.7319 41.9387 18.9777 42.0396L15.0219 44.9973C14.9978 45.0147 14.9704 45.0274 14.9417 45.0348L14.6308 45.109H14.6315ZM19.53 45.9975H19.5099L13.2843 45.4192C13.1787 45.4092 13.0951 45.3249 13.0884 45.2186C13.0811 45.113 13.1506 45.0174 13.2542 44.9926L14.7979 44.6236L18.7631 41.6586C18.7926 41.6365 18.8273 41.6224 18.8641 41.6171C19.2285 41.5676 27.8268 40.409 30.7022 40.4926C30.733 40.4933 30.7624 40.5006 30.7898 40.514C31.0907 40.6584 32.6357 41.7468 32.8583 41.9039L35.2785 43.227C35.3601 43.2718 35.4042 43.3634 35.3881 43.455C35.3721 43.5466 35.2992 43.6174 35.207 43.6315L19.5621 45.9955C19.5514 45.9968 19.5407 45.9982 19.53 45.9982V45.9975Z" fill="#171936"/>
<path d="M9.19598 44.3637C9.19598 44.3637 13.0536 44.6813 19.3072 44.1097C25.5609 43.5381 44.4015 40.0301 46.6245 39.0781C45.5916 41.5264 42.3323 44.5396 41.6919 45.277C41.0514 46.0144 39.8848 47.4444 39.3018 48.4647C37.1858 48.6585 32.2184 48.8725 29.4232 48.8919C26.6293 48.9113 12.7614 48.718 12.3522 48.6953C10.963 48.7408 9.5443 46.0645 9.19531 44.3637H9.19598Z" fill="#FFF1AD"/>
<path d="M19.3074 44.1097C16.68 44.3497 14.4758 44.4326 12.8037 44.4486C17.3492 44.9086 25.3151 44.5168 35.5266 42.6041C34.8447 43.5815 31.9799 47.292 30.7565 48.8718C33.5945 48.811 37.4922 48.6311 39.302 48.4647C39.8849 47.4444 41.0516 46.0144 41.6921 45.277C42.3325 44.5396 45.5918 41.5264 46.6247 39.0781C44.4024 40.0308 25.5611 43.5381 19.3074 44.1097Z" fill="#FFE875"/>
<path d="M32.1159 45.343C25.784 46.4181 18.1979 47.1889 9.89307 46.3171C10.5188 47.5854 11.4428 48.7252 12.3534 48.6958C12.7625 48.7186 26.6304 48.9118 29.4243 48.8924C32.2189 48.873 37.1869 48.6597 39.3029 48.4652C39.8859 47.445 41.0525 46.0149 41.693 45.2775C42.044 44.8737 43.1778 43.7893 44.303 42.4883C41.1073 43.3708 36.15 44.6584 32.1166 45.343H32.1159Z" fill="#FF6F42"/>
<path d="M33.7228 45.0489C32.8691 46.3251 32.0187 47.6068 31.1255 48.8636C33.9234 48.7961 37.5697 48.6236 39.3019 48.4652C39.8849 47.445 41.0516 46.0149 41.692 45.2775C42.043 44.8737 43.1769 43.7893 44.3021 42.4883C41.5202 43.2565 37.4026 44.3315 33.7228 45.0489Z" fill="#FF5F2E"/>
<path d="M42.4237 44.5124C38.6764 45.7572 33.923 46.865 28.4288 47.5209C20.5552 48.4609 15.3598 48.0711 10.7515 47.6907C11.2435 48.3011 11.8011 48.7143 12.3533 48.6962C12.7625 48.7189 26.6304 48.9122 29.4243 48.8928C32.2188 48.8734 37.1869 48.6601 39.3029 48.4656C39.8858 47.4453 41.0525 46.0153 41.6929 45.2779C41.8307 45.1188 42.0907 44.854 42.4237 44.5117V44.5124Z" fill="#FF5D2B"/>
<path d="M32.5262 46.9279C32.3597 47.2 32.1832 47.4627 31.9806 47.7261C31.6985 48.1139 31.4217 48.4916 31.1489 48.8634C33.9435 48.7952 37.5744 48.624 39.302 48.4656C39.885 47.4453 41.0516 46.0153 41.6921 45.2779C41.8298 45.1188 42.0899 44.854 42.4228 44.5117C39.6416 45.4357 36.3062 46.2834 32.5262 46.9279Z" fill="#FF4E17"/>
<path d="M12.3533 48.45H12.3667C12.707 48.4694 26.4592 48.6673 29.4222 48.6466C32.162 48.6272 36.9956 48.4206 39.1524 48.2321C39.7173 47.2827 40.761 45.9744 41.5044 45.1173C41.6334 44.9689 41.8594 44.7369 42.1455 44.4434C43.2393 43.3202 45.1908 41.3165 46.1462 39.5081C44.1472 40.1151 38.8335 41.1848 34.5227 41.9824C29.4222 42.9258 22.752 44.0456 19.3297 44.3585C14.1651 44.8305 10.5896 44.6948 9.51394 44.6346C9.72453 45.4288 10.1303 46.3448 10.5917 47.0508C11.192 47.97 11.8151 48.4674 12.3453 48.4494H12.3533V48.45ZM28.9776 49.1427C25.5112 49.1427 13.0105 48.9749 12.35 48.9448C12.3393 48.9448 12.3286 48.9448 12.3172 48.9448C11.426 48.9448 10.6639 48.0656 10.1778 47.3209C9.61355 46.4564 9.14423 45.3433 8.95369 44.4146C8.93831 44.3384 8.95904 44.2589 9.01118 44.2007C9.06266 44.1425 9.13955 44.1118 9.2171 44.1185C9.25521 44.1218 13.1282 44.4273 19.2856 43.8651C22.6912 43.5535 29.3433 42.437 34.4337 41.495C40.672 40.3411 45.5324 39.2788 46.5273 38.8522C46.6202 38.8121 46.7285 38.8329 46.7994 38.9044C46.8716 38.9759 46.8923 39.0829 46.8528 39.1765C46.0018 41.1942 43.724 43.5321 42.5005 44.7884C42.2197 45.0765 41.9978 45.3038 41.8788 45.4415C41.12 46.316 40.0456 47.6645 39.5168 48.5898C39.4767 48.66 39.4045 48.7061 39.3249 48.7135C37.2263 48.906 32.2308 49.1219 29.4256 49.1413C29.3006 49.142 29.1501 49.1427 28.977 49.1427H28.9776Z" fill="#171936"/>
</g>
<defs>
<clipPath id="clip0_4450_47746">
<rect width="41.3523" height="44.8" fill="white" transform="translate(7 5.60156)"/>
</clipPath>
</defs>
</svg>
