<?xml version="1.0" encoding="UTF-8"?>
<svg id="Layer_2" data-name="Layer 2" xmlns="http://www.w3.org/2000/svg" xmlns:xlink="http://www.w3.org/1999/xlink" version="1.1" viewBox="0 0 84.1 84.1">
  <defs>
    <style>
      .cls-1 {
        fill: none;
      }

      .cls-1, .cls-2, .cls-3, .cls-4, .cls-5 {
        stroke-width: 0px;
      }

      .cls-2 {
        fill: url(#linear-gradient);
      }

      .cls-3 {
        fill: #edeef7;
      }

      .cls-4 {
        fill: url(#linear-gradient-2);
      }

      .cls-5 {
        fill: url(#linear-gradient-3);
      }
    </style>
    <linearGradient id="linear-gradient" x1="-7.8" y1="66.6" x2="41.7" y2="17" gradientTransform="translate(0 83.9) scale(1 -1)" gradientUnits="userSpaceOnUse">
      <stop offset="0" stop-color="#e9510c"/>
      <stop offset="1" stop-color="#ffc14a"/>
    </linearGradient>
    <linearGradient id="linear-gradient-2" x1="6.7" y1="84.7" x2="73.9" y2="17.5" gradientTransform="translate(0 83.9) scale(1 -1)" gradientUnits="userSpaceOnUse">
      <stop offset="0" stop-color="#353980"/>
      <stop offset=".2" stop-color="#424699"/>
      <stop offset=".4" stop-color="#5056b6"/>
      <stop offset=".6" stop-color="#5b61ca"/>
      <stop offset=".8" stop-color="#6167d6"/>
      <stop offset="1" stop-color="#646adb"/>
    </linearGradient>
    <linearGradient id="linear-gradient-3" x1="26.2" y1="784" x2="48.4" y2="773.3" gradientTransform="translate(0 -755.9)" gradientUnits="userSpaceOnUse">
      <stop offset="0" stop-color="#c7c9ef"/>
      <stop offset=".4" stop-color="#dfe0f5"/>
      <stop offset=".7" stop-color="#eff0fa"/>
      <stop offset="1" stop-color="#f5f6fc"/>
    </linearGradient>
  </defs>
  <rect class="cls-1" y="262.5" width="84.1" height="84.1" rx="16" ry="16"/>
  <path class="cls-2" d="M24.5,0v84.1h-8.5c-8.8,0-16-7.2-16-16V16C0,7.2,7.2,0,16,0h8.5Z"/>
  <path class="cls-4" d="M68.1,0H24.5v84.1h43.7c8.8,0,16-7.2,16-16V16C84.2,7.2,77,0,68.2,0h0Z"/>
  <path class="cls-3" d="M46.2,84.1c-3.8,0-7-1.2-9.3-3.7s-3.6-5.5-3.6-9,1.2-6.7,3.6-9.2c2.4-2.5,5.5-3.7,9.3-3.7s6.8,1.2,9.1,3.7c2.3,2.5,3.5,5.5,3.5,9.2s-1.2,6.5-3.5,9-5.4,3.7-9.1,3.7Z"/>
  <path class="cls-5" d="M54.3,0v25.9h-8.2c-3.3,0-6.2.4-8.9,1.1s-4.9,1.9-6.8,3.5c-1.9,1.6-3.4,3.8-4.4,6.6s-1.5,6.2-1.5,10.4v-30.5c2.2-3.5,4.2-6.4,7.2-8.9,2.9-2.5,6.3-4.5,10.2-5.9C45.7.7,49.8,0,54.3,0h0Z"/>
</svg>