<svg width="224" height="58" viewBox="0 0 224 58" fill="none" xmlns="http://www.w3.org/2000/svg">
<g clip-path="url(#clip0_3507_24314)">
<path d="M221.461 16.1627V28.7584H217.516C215.938 28.7584 214.505 28.9324 213.226 29.2707C211.936 29.6091 210.83 30.1794 209.907 30.9721C208.993 31.7647 208.281 32.8377 207.771 34.1814C207.271 35.5251 207.03 37.2071 207.03 39.2081V24.3891C208.079 22.6974 209.079 21.2474 210.493 20.0294C211.917 18.8114 213.562 17.8641 215.429 17.1777C217.295 16.4914 219.306 16.1531 221.461 16.1531V16.1627Z" fill="url(#paint0_linear_3507_24314)"/>
<path d="M15.7964 20.0487C14.3726 21.2667 13.3817 22.7167 12.3234 24.4083V16.1723H0.5V57.0623H12.333V39.237C12.333 37.2263 12.5832 35.554 13.0834 34.2103C13.5837 32.8667 14.2956 31.7937 15.2095 31.001C16.1331 30.2083 17.2298 29.638 18.5189 29.2997C19.8081 28.9613 21.2415 28.7873 22.8192 28.7873H26.7636V16.1917C24.6086 16.1917 22.598 16.5397 20.7316 17.226C18.8653 17.9123 17.2202 18.8597 15.806 20.0777L15.7964 20.0487ZM87.2853 18.299C84.9475 16.878 81.9845 16.1627 78.4153 16.1627C75.6254 16.1627 73.0471 16.7523 70.6902 17.9413C68.3235 19.1303 66.3802 20.7543 64.8506 22.8133C64.0617 21.3343 63.0612 20.1067 61.849 19.1303C60.6369 18.154 59.2515 17.4097 57.6738 16.907C56.0961 16.4043 54.3355 16.1627 52.3922 16.1627C49.66 16.1627 47.1972 16.617 45.177 17.8253C43.1471 19.0337 41.906 20.416 40.6458 22.2623V16.1627H28.8127V57.043H40.6458V35.8053C40.6458 33.8043 40.9632 32.0837 41.627 30.653C42.2812 29.232 43.2048 28.1107 44.3881 27.318C45.5714 26.5253 46.899 26.129 48.3709 26.129C50.9396 26.129 52.8155 26.941 53.97 28.5457C55.1244 30.16 55.7016 32.422 55.7016 35.322V57.0333H67.4577V35.7957C67.4577 33.7947 67.7848 32.074 68.439 30.6433C69.0932 29.2223 70.0264 28.101 71.2385 27.3083C72.4507 26.5157 73.8456 26.1193 75.4138 26.1193C77.8862 26.1193 79.6852 26.9313 80.8204 28.536C81.7151 29.812 82.2538 31.494 82.4366 33.5723V57.0237H94.26V34.278C94.26 30.421 93.6828 27.1537 92.5284 24.4567C91.3739 21.7597 89.623 19.7007 87.2853 18.27V18.299ZM183.797 18.8983C180.93 17.0713 177.688 16.1627 174.061 16.1627C171.117 16.1627 168.645 16.7427 166.644 17.9027C164.643 19.0627 163.017 20.5417 161.757 22.3397V0H149.923V57.0527H161.757V52.2967C162.593 53.4083 163.613 54.3943 164.797 55.2643C165.98 56.1343 167.346 56.811 168.895 57.2847C170.444 57.7583 172.195 58 174.138 58C177.765 58 180.997 57.101 183.835 55.303C186.673 53.505 188.934 51.0207 190.618 47.8597C192.301 44.689 193.138 41.122 193.138 37.1587C193.138 33.1953 192.301 29.4833 190.618 26.3417C188.934 23.2 186.664 20.7157 183.797 18.8983ZM179.814 42.5913C178.967 44.1477 177.803 45.3753 176.303 46.2743C174.802 47.1733 173.109 47.618 171.213 47.618C169.318 47.618 167.548 47.183 166.047 46.313C164.546 45.443 163.382 44.2057 162.536 42.5913C161.689 40.977 161.275 39.1693 161.275 37.1683C161.275 35.0513 161.699 33.2243 162.536 31.6583C163.373 30.102 164.546 28.855 166.047 27.9367C167.548 27.0087 169.27 26.5543 171.213 26.5543C173.157 26.5543 174.802 27.0087 176.303 27.898C177.803 28.797 178.967 30.0537 179.814 31.6583C180.651 33.2727 181.074 35.1093 181.074 37.1683C181.074 39.2273 180.651 41.035 179.814 42.5913ZM140.9 18.299C138.562 16.878 135.599 16.1627 132.03 16.1627C129.249 16.1627 126.671 16.7523 124.304 17.9413C121.938 19.1303 119.995 20.7543 118.465 22.8133C117.676 21.3343 116.685 20.1067 115.473 19.1303C114.261 18.154 112.875 17.4097 111.288 16.9167C109.71 16.414 107.95 16.1627 106.007 16.1627C103.274 16.1627 100.869 16.7137 98.7912 17.8253C96.7613 18.8983 95.0585 21.3053 94.3178 23.4803C94.3466 23.5383 94.3755 23.5963 94.3947 23.664C94.7314 24.4373 95.0201 25.2687 95.2702 26.1387C95.5588 27.1633 95.7897 28.246 95.9532 29.3867C96.5016 28.5553 97.1943 27.8593 97.9927 27.3277C99.176 26.535 100.504 26.1387 101.976 26.1387C104.554 26.1387 106.42 26.9507 107.575 28.5553C108.729 30.1697 109.306 32.4317 109.306 35.3317V57.043H121.053V35.8053C121.053 33.8043 121.38 32.0837 122.034 30.653C122.688 29.232 123.621 28.1107 124.834 27.318C126.046 26.5253 127.441 26.129 129.018 26.129C131.491 26.129 133.29 26.941 134.425 28.5457C135.551 30.16 136.118 32.422 136.118 35.322V57.0333H147.874V34.2877C147.874 30.4307 147.287 27.1633 146.143 24.4663C144.988 21.7693 143.237 19.7103 140.9 18.2797V18.299ZM195.197 16.1627V57.043H207.03V16.1627H195.197Z" fill="url(#paint1_linear_3507_24314)"/>
<path d="M217.381 57.0527C215.525 57.0527 214.014 56.4534 212.86 55.2451C211.705 54.0464 211.128 52.5867 211.128 50.8661C211.128 49.1454 211.705 47.618 212.86 46.4097C214.014 45.211 215.525 44.6021 217.381 44.6021C219.238 44.6021 220.672 45.2014 221.807 46.4097C222.942 47.6084 223.51 49.0971 223.51 50.8661C223.51 52.6351 222.942 54.0464 221.807 55.2451C220.672 56.4437 219.2 57.0527 217.381 57.0527Z" fill="url(#paint2_linear_3507_24314)"/>
</g>
<defs>
<linearGradient id="paint0_linear_3507_24314" x1="204.115" y1="36.2887" x2="222.888" y2="17.6062" gradientUnits="userSpaceOnUse">
<stop stop-color="#464BAA"/>
<stop offset="0.7" stop-color="#646ADB"/>
</linearGradient>
<linearGradient id="paint1_linear_3507_24314" x1="0.499999" y1="58" x2="206.948" y2="17.0636" gradientUnits="userSpaceOnUse">
<stop stop-color="#E64F12"/>
<stop offset="1" stop-color="#FEB323"/>
</linearGradient>
<linearGradient id="paint2_linear_3507_24314" x1="208.627" y1="55.4762" x2="217.787" y2="40.9932" gradientUnits="userSpaceOnUse">
<stop stop-color="#464BAA"/>
<stop offset="0.7" stop-color="#646ADB"/>
</linearGradient>
<clipPath id="clip0_3507_24314">
<rect width="223" height="58" fill="white" transform="translate(0.5)"/>
</clipPath>
</defs>
</svg>
