<svg width="155" height="40" viewBox="0 0 155 40" fill="none" xmlns="http://www.w3.org/2000/svg">
<g clip-path="url(#clip0_3569_14083)">
<path opacity="0.5" d="M153.11 11.1473V19.834H150.377C149.283 19.834 148.29 19.954 147.403 20.1873C146.51 20.4206 145.744 20.814 145.104 21.3606C144.47 21.9073 143.977 22.6473 143.624 23.574C143.277 24.5006 143.11 25.6606 143.11 27.0406V16.8206C143.837 15.654 144.53 14.654 145.51 13.814C146.497 12.974 147.637 12.3206 148.93 11.8473C150.223 11.374 151.616 11.1406 153.11 11.1406V11.1473Z" fill="white"/>
<path d="M10.5993 13.8267C9.61268 14.6667 8.92606 15.6667 8.19278 16.8333V11.1533H0V39.3533H8.19944V27.06C8.19944 25.6733 8.37276 24.52 8.71941 23.5933C9.06605 22.6667 9.55935 21.9267 10.1926 21.38C10.8326 20.8333 11.5925 20.44 12.4858 20.2067C13.3791 19.9733 14.3724 19.8533 15.4656 19.8533H18.1988V11.1667C16.7055 11.1667 15.3123 11.4067 14.019 11.88C12.7258 12.3533 11.5859 13.0067 10.6059 13.8467L10.5993 13.8267ZM60.1359 12.62C58.516 11.64 56.4628 11.1467 53.9897 11.1467C52.0565 11.1467 50.2699 11.5533 48.6367 12.3733C46.9968 13.1933 45.6502 14.3133 44.5903 15.7333C44.0437 14.7133 43.3504 13.8667 42.5104 13.1933C41.6705 12.52 40.7106 12.0067 39.6173 11.66C38.5241 11.3133 37.3041 11.1467 35.9576 11.1467C34.0644 11.1467 32.3578 11.46 30.9579 12.2933C29.5513 13.1267 28.6914 14.08 27.8181 15.3533V11.1467H19.6187V39.34H27.8181V24.6933C27.8181 23.3133 28.0381 22.1267 28.4981 21.14C28.9514 20.16 29.5913 19.3867 30.4113 18.84C31.2312 18.2933 32.1511 18.02 33.1711 18.02C34.951 18.02 36.2509 18.58 37.0508 19.6867C37.8508 20.8 38.2507 22.36 38.2507 24.36V39.3333H46.3968V24.6867C46.3968 23.3067 46.6235 22.12 47.0768 21.1333C47.5301 20.1533 48.1767 19.38 49.0167 18.8333C49.8566 18.2867 50.8232 18.0133 51.9098 18.0133C53.623 18.0133 54.8696 18.5733 55.6562 19.68C56.2762 20.56 56.6495 21.72 56.7761 23.1533V39.3267H64.9689V23.64C64.9689 20.98 64.5689 18.7267 63.769 16.8667C62.9691 15.0067 61.7558 13.5867 60.1359 12.6V12.62ZM127.011 13.0333C125.025 11.7733 122.778 11.1467 120.265 11.1467C118.225 11.1467 116.512 11.5467 115.126 12.3467C113.739 13.1467 112.612 14.1667 111.739 15.4067V0H103.54V39.3467H111.739V36.0667C112.319 36.8333 113.026 37.5133 113.846 38.1133C114.666 38.7133 115.612 39.18 116.685 39.5067C117.759 39.8333 118.972 40 120.318 40C122.832 40 125.072 39.38 127.038 38.14C129.005 36.9 130.571 35.1867 131.738 33.0067C132.904 30.82 133.484 28.36 133.484 25.6267C133.484 22.8933 132.904 20.3333 131.738 18.1667C130.571 16 128.998 14.2867 127.011 13.0333ZM124.252 29.3733C123.665 30.4467 122.858 31.2933 121.818 31.9133C120.778 32.5333 119.605 32.84 118.292 32.84C116.979 32.84 115.752 32.54 114.712 31.94C113.672 31.34 112.866 30.4867 112.279 29.3733C111.692 28.26 111.406 27.0133 111.406 25.6333C111.406 24.1733 111.699 22.9133 112.279 21.8333C112.859 20.76 113.672 19.9 114.712 19.2667C115.752 18.6267 116.945 18.3133 118.292 18.3133C119.639 18.3133 120.778 18.6267 121.818 19.24C122.858 19.86 123.665 20.7267 124.252 21.8333C124.832 22.9467 125.125 24.2133 125.125 25.6333C125.125 27.0533 124.832 28.3 124.252 29.3733ZM97.2867 12.62C95.6668 11.64 93.6136 11.1467 91.1405 11.1467C89.2139 11.1467 87.4274 11.5533 85.7875 12.3733C84.1476 13.1933 82.801 14.3133 81.7411 15.7333C81.1945 14.7133 80.5079 13.8667 79.6679 13.1933C78.828 12.52 77.868 12.0067 76.7681 11.6667C75.6749 11.32 74.4549 11.1467 73.1084 11.1467C71.2152 11.1467 69.5486 11.5267 68.1087 12.2933C66.7021 13.0333 65.5222 14.6933 65.0089 16.1933C65.0289 16.2333 65.0489 16.2733 65.0622 16.32C65.2956 16.8533 65.4956 17.4267 65.6689 18.0267C65.8689 18.7333 66.0288 19.48 66.1422 20.2667C66.5221 19.6933 67.0021 19.2133 67.5554 18.8467C68.3754 18.3 69.2953 18.0267 70.3152 18.0267C72.1018 18.0267 73.395 18.5867 74.195 19.6933C74.9949 20.8067 75.3949 22.3667 75.3949 24.3667V39.34H83.5343V24.6933C83.5343 23.3133 83.761 22.1267 84.2143 21.14C84.6676 20.16 85.3142 19.3867 86.1542 18.84C86.9941 18.2933 87.9607 18.02 89.0539 18.02C90.7672 18.02 92.0138 18.58 92.8004 19.6867C93.5803 20.8 93.9736 22.36 93.9736 24.36V39.3333H102.12V23.6467C102.12 20.9867 101.713 18.7333 100.92 16.8733C100.12 15.0133 98.9066 13.5933 97.2867 12.6067V12.62ZM134.911 11.1467V39.34H143.11V11.1467H134.911Z" fill="white"/>
<path opacity="0.5" d="M150.283 39.3464C148.997 39.3464 147.95 38.9331 147.15 38.0998C146.35 37.2731 145.95 36.2664 145.95 35.0798C145.95 33.8931 146.35 32.8398 147.15 32.0064C147.95 31.1798 148.997 30.7598 150.283 30.7598C151.57 30.7598 152.563 31.1731 153.35 32.0064C154.136 32.8331 154.53 33.8598 154.53 35.0798C154.53 36.2998 154.136 37.2731 153.35 38.0998C152.563 38.9264 151.543 39.3464 150.283 39.3464Z" fill="white"/>
</g>
<defs>
<clipPath id="clip0_3569_14083">
<rect width="154.523" height="40" fill="white"/>
</clipPath>
</defs>
</svg>
