<svg width="16" height="16" viewBox="0 0 16 16" fill="none" xmlns="http://www.w3.org/2000/svg">
<g clip-path="url(#clip0_7009_36983)">
<path d="M0.195262 0.195262C0.455612 -0.0650874 0.877722 -0.0650874 1.13807 0.195262L4.54217 3.59936C4.54858 3.60552 4.55488 3.61181 4.56106 3.61825L7.192 6.24919C7.23381 6.28203 7.27176 6.31989 7.30485 6.36204L15.8047 14.8619C16.0651 15.1223 16.0651 15.5444 15.8047 15.8047C15.5444 16.0651 15.1223 16.0651 14.8619 15.8047L10.4509 11.3937C10.2771 11.4285 10.0898 11.3943 9.93391 11.2835C9.36991 10.8828 8.6952 10.6675 8.00335 10.6675C7.31151 10.6675 6.6368 10.8828 6.0728 11.2835C5.77265 11.4967 5.35646 11.4263 5.14321 11.1261C4.92997 10.826 5.00042 10.4098 5.30058 10.1965C6.09018 9.63557 7.03477 9.33419 8.00335 9.33419C8.13918 9.33419 8.27452 9.34011 8.40904 9.35185L6.55459 7.4974C5.52849 7.72865 4.57043 8.2013 3.76096 8.8781C3.47849 9.11427 3.05805 9.07674 2.82188 8.79427C2.58571 8.51181 2.62324 8.09137 2.90571 7.8552C3.6678 7.21802 4.53952 6.73148 5.47431 6.41712L3.92506 4.86787C3.00211 5.27918 2.14648 5.82918 1.38814 6.4995C1.11227 6.74335 0.690959 6.71739 0.447112 6.44152C0.203266 6.16565 0.229225 5.74434 0.505092 5.50049C1.23822 4.85246 2.05153 4.30358 2.92394 3.86675L0.195262 1.13807C-0.0650874 0.877722 -0.0650874 0.455612 0.195262 0.195262Z" fill="#F0F0FA"/>
<path d="M10.5475 7.08094C10.709 6.75005 11.1082 6.61272 11.439 6.77421C12.035 7.06507 12.5923 7.42927 13.098 7.85834C13.3787 8.09656 13.4132 8.51726 13.175 8.798C12.9368 9.07874 12.5161 9.11321 12.2353 8.87499C11.8144 8.51779 11.3504 8.2146 10.8543 7.97246C10.5234 7.81097 10.386 7.41182 10.5475 7.08094Z" fill="#F0F0FA"/>
<path d="M11.1542 4.51043C9.87955 4.08627 8.53253 3.92327 7.19352 4.03117C6.82652 4.06074 6.50503 3.7872 6.47546 3.4202C6.44589 3.0532 6.71943 2.73171 7.08643 2.70214C8.60397 2.57986 10.1306 2.76459 11.5752 3.24531C13.0197 3.72602 14.3527 4.49286 15.4943 5.50006C15.7704 5.74364 15.7968 6.16492 15.5532 6.44103C15.3097 6.71713 14.8884 6.7435 14.6123 6.49992C13.6049 5.61122 12.4288 4.93459 11.1542 4.51043Z" fill="#F0F0FA"/>
<path d="M8 12.6667C7.63181 12.6667 7.33333 12.9651 7.33333 13.3333C7.33333 13.7015 7.63181 14 8 14H8.00667C8.37486 14 8.67333 13.7015 8.67333 13.3333C8.67333 12.9651 8.37486 12.6667 8.00667 12.6667H8Z" fill="#F0F0FA"/>
</g>
<defs>
<clipPath id="clip0_7009_36983">
<rect width="16" height="16" fill="white"/>
</clipPath>
</defs>
</svg>
